P3
50 50
255
227 222 0
227 222 0
226 222 0
226 222 0
226 222 0
225 221 0
225 221 0
225 220 0
225 220 0
224 220 0
224 221 0
223 222 0
221 223 0
220 224 0
219 225 0
219 226 0
219 226 0
221 226 0
223 224 0
227 222 0
231 219 0
235 216 0
240 213 0
245 209 0
249 206 0
252 203 0
254 201 0
255 200 0
254 200 0
253 201 0
250 203 0
247 206 0
243 209 0
239 212 0
234 215 0
229 219 0
224 222 0
220 225 0
216 228 0
212 231 0
208 233 0
205 234 0
203 236 0
201 237 0
199 237 0
199 238 0
198 238 0
198 238 0
198 238 0
198 237 0
226 223 0
226 223 0
226 223 0
225 222 0
225 222 0
225 222 0
225 221 0
224 221 0
224 221 0
224 221 0
223 221 0
222 222 0
221 223 0
220 224 0
219 225 0
219 226 0
219 226 0
221 226 0
223 224 0
226 222 0
231 220 0
235 216 0
240 213 0
244 209 0
248 206 0
251 203 0
253 201 0
254 200 0
254 201 0
252 202 0
250 203 0
247 206 0
243 209 0
238 212 0
234 216 0
229 219 0
224 223 0
219 226 0
215 228 0
211 231 0
208 233 0
205 235 0
202 236 0
200 237 0
199 237 0
199 238 0
198 238 0
198 237 0
199 237 0
199 237 0
224 224 0
224 224 0
224 224 0
224 223 0
224 223 0
223 223 0
223 222 0
223 222 0
223 221 0
223 221 0
222 222 0
222 222 0
221 223 0
220 224 0
219 226 0
218 226 0
219 226 0
220 226 0
223 225 0
226 223 0
230 220 0
235 217 0
239 213 0
244 210 0
248 206 0
251 204 0
253 202 0
253 201 0
253 201 0
251 202 0
249 204 0
246 207 0
242 210 0
237 213 0
233 216 0
228 220 0
223 223 0
218 226 0
214 229 0
210 232 0
207 234 0
204 235 0
202 236 0
200 237 0
199 238 0
199 238 0
199 237 0
199 237 0
199 237 0
199 237 0
222 225 0
222 225 0
222 225 0
222 225 0
222 224 0
222 224 0
222 223 0
222 223 0
222 222 0
222 222 0
221 223 0
221 223 0
220 224 0
219 225 0
218 226 0
218 227 0
218 227 0
220 226 0
222 225 0
225 223 0
229 220 0
234 217 0
239 213 0
243 210 0
247 207 0
250 204 0
251 203 0
252 202 0
252 202 0
250 203 0
248 205 0
245 208 0
241 211 0
236 214 0
231 217 0
227 221 0
222 224 0
217 227 0
213 230 0
209 233 0
205 235 0
202 236 0
200 237 0
199 238 0
198 238 0
198 238 0
198 237 0
199 237 0
199 236 0
199 236 0
220 227 0
220 227 0
220 227 0
220 226 0
220 226 0
220 225 0
220 224 0
220 224 0
220 223 0
220 223 0
220 223 0
220 224 0
219 225 0
218 226 0
217 226 0
217 227 0
217 227 0
219 227 0
221 225 0
225 223 0
229 221 0
233 218 0
238 214 0
242 211 0
246 208 0
248 205 0
250 204 0
251 203 0
251 203 0
249 204 0
247 206 0
243 209 0
239 212 0
235 215 0
230 218 0
225 222 0
220 225 0
216 228 0
211 231 0
207 234 0
204 236 0
201 237 0
199 238 0
197 238 0
197 238 0
197 238 0
197 237 0
198 237 0
199 236 0
199 236 0
217 229 0
217 229 0
217 228 0
217 228 0
217 227 0
218 226 0
218 226 0
218 225 0
219 225 0
219 224 0
219 224 0
218 225 0
218 225 0
217 226 0
216 227 0
216 228 0
216 228 0
218 227 0
220 226 0
223 224 0
227 221 0
232 218 0
236 215 0
241 212 0
244 209 0
247 206 0
249 204 0
250 204 0
249 204 0
248 205 0
245 207 0
242 209 0
238 212 0
234 216 0
229 219 0
224 223 0
219 226 0
214 229 0
210 232 0
205 235 0
202 237 0
199 238 0
197 239 0
195 239 0
195 239 0
195 239 0
196 238 0
197 237 0
197 237 0
198 237 0
214 230 0
214 230 0
214 230 0
215 229 0
215 228 0
215 228 0
216 227 0
217 226 0
217 226 0
217 225 0
217 225 0
217 226 0
216 226 0
216 227 0
215 228 0
215 228 0
215 228 0
217 228 0
219 227 0
222 225 0
226 222 0
230 219 0
235 216 0
239 213 0
243 210 0
246 207 0
248 205 0
248 205 0
248 205 0
247 206 0
244 208 0
241 210 0
237 213 0
233 216 0
228 220 0
223 223 0
218 227 0
213 230 0
208 233 0
204 236 0
200 238 0
197 239 0
194 240 0
193 241 0
193 241 0
193 240 0
193 239 0
194 239 0
195 238 0
195 238 0
211 232 0
211 232 0
212 231 0
212 230 0
213 230 0
213 229 0
214 228 0
215 227 0
215 227 0
216 226 0
216 226 0
215 227 0
215 227 0
214 228 0
214 229 0
214 229 0
214 229 0
215 229 0
218 228 0
221 226 0
225 223 0
229 220 0
233 217 0
238 214 0
241 211 0
244 208 0
246 206 0
247 205 0
247 205 0
246 206 0
244 208 0
241 210 0
237 213 0
233 216 0
228 220 0
223 224 0
218 227 0
212 231 0
207 234 0
202 237 0
198 239 0
195 241 0
192 242 0
190 242 0
190 242 0
189 242 0
190 241 0
191 241 0
191 240 0
191 240 0
209 233 0
209 233 0
210 232 0
210 232 0
211 231 0
211 230 0
212 229 0
213 228 0
213 228 0
214 228 0
214 228 0
214 228 0
213 228 0
213 229 0
212 230 0
212 230 0
213 230 0
214 230 0
216 229 0
219 227 0
223 224 0
227 221 0
232 218 0
236 215 0
240 212 0
243 209 0
245 207 0
246 206 0
246 206 0
245 207 0
243 208 0
241 210 0
237 213 0
233 216 0
228 220 0
223 223 0
218 227 0
212 231 0
207 234 0
202 237 0
197 240 0
193 241 0
190 243 0
188 243 0
186 244 0
186 244 0
186 243 0
186 243 0
187 242 0
187 242 0
207 234 0
207 234 0
208 233 0
208 232 0
209 232 0
210 231 0
210 230 0
211 229 0
212 229 0
212 229 0
212 229 0
212 229 0
212 229 0
211 230 0
211 231 0
211 231 0
211 231 0
213 231 0
215 229 0
218 228 0
222 225 0
226 222 0
230 219 0
234 216 0
238 213 0
241 210 0
243 208 0
245 207 0
245 207 0
244 207 0
243 208 0
241 210 0
238 213 0
234 216 0
229 219 0
224 223 0
219 226 0
213 230 0
207 234 0
201 237 0
196 240 0
191 242 0
188 244 0
185 245 0
183 245 0
182 245 0
181 245 0
181 245 0
181 245 0
181 245 0
206 234 0
206 234 0
206 234 0
207 233 0
207 232 0
208 232 0
209 231 0
209 230 0
210 230 0
210 230 0
210 230 0
210 230 0
210 231 0
210 231 0
210 231 0
210 232 0
210 232 0
212 231 0
214 230 0
217 228 0
220 226 0
224 223 0
229 220 0
233 217 0
237 214 0
240 211 0
242 209 0
244 208 0
244 207 0
244 207 0
243 208 0
241 210 0
238 212 0
235 215 0
230 218 0
226 222 0
220 225 0
214 229 0
208 233 0
202 237 0
196 240 0
190 243 0
186 245 0
182 246 0
180 247 0
178 247 0
177 247 0
176 248 0
176 247 0
176 247 0
205 235 0
205 235 0
205 234 0
206 233 0
206 233 0
207 232 0
207 232 0
208 231 0
208 231 0
208 231 0
209 231 0
209 231 0
209 232 0
209 232 0
209 232 0
209 232 0
210 232 0
211 232 0
213 230 0
216 229 0
220 226 0
223 224 0
228 221 0
231 217 0
235 215 0
238 212 0
240 210 0
242 209 0
243 208 0
243 208 0
242 208 0
241 210 0
239 211 0
236 214 0
232 217 0
227 220 0
221 224 0
215 228 0
209 233 0
202 236 0
196 240 0
190 243 0
185 245 0
180 247 0
177 248 0
175 249 0
173 249 0
172 250 0
171 250 0
171 250 0
204 235 0
204 235 0
204 234 0
205 234 0
205 233 0
206 233 0
206 232 0
207 232 0
207 232 0
207 232 0
207 232 0
208 232 0
208 232 0
208 232 0
208 233 0
209 233 0
210 232 0
211 231 0
213 230 0
216 229 0
219 226 0
223 224 0
227 221 0
230 218 0
234 216 0
236 213 0
239 211 0
240 210 0
241 209 0
242 209 0
241 209 0
240 210 0
239 211 0
236 213 0
232 216 0
228 219 0
222 223 0
216 227 0
210 232 0
203 236 0
196 240 0
189 243 0
184 246 0
179 248 0
175 249 0
172 250 0
169 251 0
168 252 0
167 252 0
166 252 0
204 235 0
204 235 0
204 235 0
205 234 0
205 234 0
205 233 0
206 233 0
206 232 0
206 232 0
207 232 0
207 232 0
207 232 0
208 232 0
208 232 0
209 232 0
210 232 0
211 232 0
212 231 0
214 230 0
217 228 0
220 226 0
223 224 0
226 221 0
229 219 0
232 217 0
234 215 0
236 213 0
238 212 0
239 211 0
240 210 0
240 210 0
239 211 0
238 212 0
236 213 0
233 216 0
228 219 0
223 223 0
217 227 0
210 231 0
203 236 0
196 240 0
189 243 0
183 246 0
178 248 0
173 250 0
170 251 0
167 252 0
165 253 0
164 253 0
163 253 0
204 235 0
204 235 0
204 234 0
205 234 0
205 233 0
206 233 0
206 233 0
206 232 0
206 232 0
207 232 0
207 232 0
208 232 0
209 232 0
209 232 0
210 231 0
211 231 0
213 230 0
214 230 0
216 228 0
218 227 0
220 225 0
223 224 0
225 222 0
228 220 0
230 218 0
232 216 0
234 215 0
235 214 0
236 213 0
237 212 0
237 212 0
237 212 0
236 213 0
235 214 0
232 216 0
228 219 0
223 223 0
217 227 0
210 231 0
203 235 0
196 240 0
189 243 0
183 246 0
177 249 0
173 251 0
169 252 0
166 253 0
164 254 0
163 254 0
162 254 0
205 235 0
205 234 0
206 234 0
206 233 0
206 233 0
207 233 0
207 232 0
207 232 0
208 232 0
208 232 0
209 232 0
209 231 0
210 231 0
211 230 0
213 230 0
214 229 0
215 229 0
217 228 0
218 227 0
220 226 0
222 225 0
223 223 0
225 222 0
227 221 0
228 220 0
229 218 0
231 217 0
232 216 0
233 215 0
234 215 0
234 214 0
234 214 0
234 214 0
233 215 0
230 217 0
227 220 0
222 223 0
217 227 0
210 231 0
203 236 0
196 240 0
189 243 0
183 246 0
177 249 0
173 251 0
169 252 0
166 253 0
164 254 0
163 254 0
163 255 0
207 234 0
207 233 0
208 233 0
208 232 0
208 232 0
209 231 0
209 231 0
209 231 0
210 231 0
210 230 0
211 230 0
212 230 0
213 229 0
214 229 0
216 228 0
217 227 0
219 226 0
220 225 0
221 225 0
222 224 0
223 223 0
224 223 0
225 222 0
225 222 0
226 221 0
226 221 0
227 220 0
228 219 0
229 219 0
229 218 0
230 217 0
231 217 0
231 217 0
230 217 0
228 219 0
225 221 0
221 224 0
215 228 0
209 232 0
202 236 0
196 240 0
189 243 0
183 246 0
178 249 0
174 250 0
171 252 0
168 253 0
167 253 0
165 254 0
165 254 0
210 232 0
210 232 0
211 231 0
211 231 0
211 230 0
212 230 0
212 229 0
212 229 0
212 229 0
213 229 0
213 229 0
215 228 0
216 227 0
218 226 0
219 225 0
221 224 0
222 224 0
223 223 0
224 223 0
225 222 0
225 222 0
225 222 0
224 222 0
224 223 0
224 223 0
223 223 0
223 223 0
223 222 0
224 222 0
225 221 0
226 220 0
226 220 0
227 220 0
226 220 0
225 221 0
222 223 0
218 226 0
214 229 0
208 233 0
202 236 0
196 240 0
190 243 0
184 246 0
180 248 0
176 249 0
174 251 0
172 251 0
170 252 0
169 252 0
169 252 0
214 230 0
214 229 0
215 229 0
215 228 0
215 228 0
215 227 0
215 227 0
215 227 0
215 227 0
216 227 0
216 227 0
217 226 0
219 225 0
221 224 0
222 223 0
224 222 0
225 221 0
226 221 0
227 220 0
227 221 0
226 221 0
225 222 0
224 222 0
223 223 0
222 224 0
220 225 0
220 225 0
219 225 0
220 225 0
220 224 0
221 224 0
222 223 0
222 223 0
222 223 0
221 223 0
219 225 0
216 227 0
212 230 0
207 233 0
201 237 0
196 240 0
191 243 0
186 245 0
182 247 0
179 248 0
177 249 0
176 250 0
175 250 0
175 250 0
174 250 0
219 226 0
219 226 0
219 226 0
219 225 0
219 225 0
219 225 0
219 225 0
219 225 0
219 225 0
219 225 0
219 225 0
220 224 0
222 223 0
223 222 0
225 221 0
227 220 0
228 219 0
229 219 0
229 219 0
229 219 0
228 220 0
226 221 0
224 223 0
222 224 0
220 225 0
218 227 0
216 228 0
215 228 0
215 228 0
216 228 0
216 227 0
217 226 0
218 225 0
218 225 0
218 226 0
216 227 0
213 229 0
210 231 0
206 234 0
201 237 0
196 240 0
192 242 0
188 244 0
185 246 0
183 247 0
182 247 0
181 247 0
181 248 0
180 248 0
180 248 0
223 223 0
223 223 0
224 223 0
224 222 0
224 222 0
223 222 0
223 222 0
222 223 0
221 223 0
221 224 0
221 224 0
222 223 0
223 222 0
225 221 0
227 220 0
229 219 0
230 218 0
231 217 0
231 217 0
230 218 0
229 219 0
227 221 0
224 222 0
221 224 0
218 226 0
216 228 0
214 229 0
212 230 0
211 230 0
211 230 0
212 230 0
213 229 0
214 228 0
214 228 0
214 228 0
213 229 0
211 230 0
209 232 0
205 234 0
201 236 0
198 239 0
194 241 0
191 243 0
189 244 0
187 245 0
186 245 0
186 245 0
186 245 0
186 245 0
186 245 0
228 220 0
228 220 0
228 219 0
228 219 0
227 219 0
227 220 0
226 220 0
225 221 0
224 222 0
223 223 0
223 223 0
223 223 0
224 222 0
226 221 0
228 219 0
230 218 0
232 217 0
232 216 0
233 216 0
232 217 0
230 218 0
228 220 0
224 222 0
221 225 0
218 227 0
214 229 0
212 231 0
210 232 0
208 232 0
208 232 0
208 232 0
209 231 0
210 231 0
211 230 0
211 230 0
211 230 0
210 231 0
208 232 0
206 234 0
203 236 0
200 238 0
197 239 0
194 241 0
192 242 0
191 243 0
191 243 0
191 243 0
191 242 0
192 242 0
192 242 0
231 217 0
231 217 0
231 217 0
231 217 0
230 217 0
229 218 0
228 219 0
226 220 0
225 221 0
224 222 0
223 223 0
223 223 0
225 222 0
226 221 0
228 219 0
231 218 0
232 216 0
233 216 0
233 216 0
233 216 0
231 218 0
228 220 0
225 222 0
221 225 0
217 227 0
213 230 0
210 232 0
208 233 0
206 234 0
205 234 0
205 234 0
206 233 0
207 233 0
208 232 0
209 231 0
210 231 0
210 231 0
209 232 0
207 233 0
205 234 0
203 236 0
200 237 0
198 239 0
197 240 0
196 240 0
195 241 0
195 240 0
196 240 0
196 240 0
196 240 0
234 215 0
234 215 0
234 215 0
233 215 0
232 216 0
231 217 0
229 218 0
227 220 0
225 221 0
224 222 0
223 223 0
223 223 0
224 223 0
226 221 0
228 220 0
230 218 0
232 217 0
234 216 0
234 215 0
233 216 0
232 217 0
229 219 0
225 222 0
221 225 0
217 227 0
213 230 0
209 232 0
206 234 0
204 235 0
203 236 0
203 236 0
203 235 0
205 234 0
206 233 0
208 232 0
209 231 0
210 231 0
210 231 0
209 231 0
208 232 0
206 234 0
204 235 0
203 236 0
201 237 0
200 238 0
200 238 0
200 238 0
200 238 0
200 238 0
200 238 0
235 214 0
235 214 0
235 214 0
234 214 0
233 215 0
232 216 0
230 218 0
228 219 0
226 221 0
224 223 0
223 224 0
223 224 0
224 223 0
225 222 0
228 220 0
230 219 0
232 217 0
234 216 0
234 215 0
234 216 0
232 217 0
229 219 0
226 222 0
222 224 0
217 227 0
213 230 0
209 233 0
205 235 0
203 236 0
201 237 0
201 237 0
202 236 0
203 235 0
205 234 0
207 233 0
209 231 0
211 230 0
212 229 0
212 229 0
212 230 0
211 231 0
209 232 0
207 233 0
206 235 0
205 235 0
204 236 0
204 236 0
204 236 0
204 236 0
204 236 0
236 214 0
235 214 0
235 214 0
234 214 0
233 215 0
232 216 0
230 218 0
227 220 0
225 222 0
223 223 0
222 224 0
222 224 0
223 224 0
225 223 0
227 221 0
230 219 0
232 217 0
234 216 0
234 216 0
234 216 0
232 217 0
230 219 0
226 222 0
222 225 0
217 227 0
213 230 0
208 233 0
205 235 0
202 237 0
200 237 0
200 238 0
201 237 0
202 236 0
205 234 0
208 233 0
211 231 0
213 229 0
215 227 0
216 227 0
217 227 0
216 227 0
215 229 0
213 230 0
211 231 0
210 233 0
208 234 0
207 234 0
207 234 0
207 234 0
207 235 0
235 214 0
235 214 0
234 214 0
234 215 0
233 216 0
231 217 0
229 218 0
227 220 0
225 222 0
223 224 0
222 225 0
222 225 0
223 224 0
225 223 0
227 221 0
230 219 0
232 217 0
234 216 0
235 216 0
234 216 0
233 217 0
230 219 0
226 222 0
222 225 0
217 228 0
213 230 0
209 233 0
205 235 0
202 237 0
200 238 0
200 238 0
200 237 0
202 236 0
205 234 0
209 232 0
212 230 0
216 227 0
219 225 0
221 224 0
222 223 0
221 224 0
220 225 0
219 226 0
217 228 0
215 229 0
213 231 0
211 232 0
210 232 0
210 233 0
210 233 0
233 215 0
233 216 0
233 216 0
232 216 0
231 217 0
230 218 0
228 219 0
226 221 0
225 222 0
223 224 0
222 224 0
222 225 0
223 224 0
225 223 0
228 221 0
230 219 0
233 217 0
234 216 0
235 216 0
235 216 0
233 217 0
230 219 0
226 222 0
222 225 0
218 228 0
213 230 0
209 233 0
205 235 0
203 237 0
201 238 0
200 238 0
201 237 0
203 236 0
206 234 0
210 231 0
215 228 0
219 225 0
223 223 0
225 221 0
227 220 0
227 220 0
226 221 0
225 222 0
222 224 0
220 226 0
218 228 0
216 229 0
214 230 0
213 231 0
213 231 0
231 217 0
231 217 0
231 217 0
230 217 0
230 218 0
229 218 0
228 220 0
226 221 0
225 222 0
223 223 0
223 224 0
223 224 0
224 224 0
226 222 0
229 220 0
231 219 0
234 217 0
235 216 0
236 215 0
235 216 0
233 218 0
230 220 0
226 222 0
222 225 0
218 228 0
214 230 0
210 233 0
207 234 0
204 236 0
203 237 0
202 237 0
203 236 0
205 235 0
208 233 0
213 230 0
218 226 0
222 223 0
227 220 0
230 218 0
232 216 0
233 216 0
232 216 0
231 218 0
228 220 0
226 222 0
223 224 0
220 226 0
218 228 0
216 229 0
216 229 0
228 219 0
228 219 0
228 219 0
228 219 0
228 219 0
228 219 0
227 220 0
226 221 0
225 222 0
224 223 0
224 223 0
224 223 0
226 223 0
228 221 0
230 219 0
233 218 0
235 216 0
236 215 0
236 215 0
235 216 0
233 217 0
230 220 0
227 222 0
223 225 0
219 228 0
215 230 0
211 232 0
208 233 0
206 235 0
205 235 0
205 236 0
205 235 0
208 234 0
211 231 0
216 228 0
221 225 0
226 221 0
231 217 0
234 214 0
237 213 0
238 212 0
238 212 0
236 214 0
234 216 0
231 218 0
228 221 0
225 223 0
222 225 0
220 226 0
219 227 0
226 221 0
226 221 0
226 220 0
226 220 0
227 220 0
226 220 0
226 221 0
225 221 0
225 222 0
225 222 0
225 223 0
226 222 0
227 221 0
230 220 0
232 218 0
235 216 0
236 215 0
238 214 0
237 214 0
236 215 0
234 217 0
231 220 0
227 222 0
223 225 0
220 227 0
216 229 0
213 231 0
211 232 0
209 233 0
208 233 0
208 233 0
209 233 0
211 232 0
214 229 0
219 226 0
224 222 0
229 219 0
234 215 0
238 212 0
241 209 0
243 208 0
243 209 0
241 210 0
239 212 0
236 215 0
232 217 0
229 220 0
226 222 0
224 224 0
223 225 0
223 223 0
223 223 0
224 222 0
224 222 0
225 221 0
225 221 0
225 221 0
225 222 0
225 222 0
225 222 0
226 222 0
227 221 0
229 220 0
231 219 0
234 217 0
236 215 0
238 214 0
239 213 0
239 214 0
237 215 0
235 217 0
231 219 0
228 222 0
224 224 0
221 226 0
218 228 0
216 229 0
214 230 0
212 231 0
212 231 0
212 231 0
213 230 0
215 229 0
218 227 0
222 224 0
227 220 0
232 216 0
237 213 0
242 209 0
245 207 0
247 205 0
247 205 0
246 206 0
243 208 0
240 211 0
236 214 0
233 217 0
230 220 0
227 221 0
226 222 0
220 225 0
221 224 0
221 224 0
222 223 0
223 223 0
223 222 0
224 222 0
224 222 0
225 222 0
225 222 0
226 222 0
228 221 0
230 220 0
232 218 0
235 216 0
238 214 0
239 213 0
240 212 0
240 213 0
238 214 0
235 216 0
232 219 0
229 221 0
225 223 0
222 225 0
220 226 0
218 227 0
217 228 0
216 228 0
216 228 0
216 228 0
217 228 0
218 227 0
221 225 0
225 222 0
230 218 0
235 214 0
240 211 0
244 207 0
248 205 0
250 203 0
250 203 0
249 204 0
247 206 0
244 208 0
240 211 0
236 214 0
233 217 0
231 219 0
229 220 0
218 227 0
218 226 0
219 226 0
220 225 0
221 224 0
222 224 0
222 223 0
223 223 0
224 223 0
224 223 0
226 222 0
228 221 0
230 219 0
233 217 0
236 215 0
239 213 0
240 212 0
241 211 0
240 212 0
239 213 0
236 216 0
233 218 0
229 221 0
227 223 0
224 224 0
222 225 0
221 225 0
220 225 0
220 225 0
220 225 0
220 225 0
220 225 0
222 224 0
225 222 0
228 220 0
233 217 0
237 213 0
242 209 0
246 206 0
250 203 0
252 201 0
252 201 0
251 202 0
249 204 0
246 206 0
243 209 0
239 212 0
236 215 0
233 217 0
232 218 0
215 228 0
216 228 0
217 227 0
218 226 0
219 226 0
220 225 0
221 225 0
221 224 0
222 224 0
223 223 0
225 223 0
227 221 0
230 219 0
233 217 0
236 215 0
239 213 0
241 211 0
241 211 0
241 212 0
239 213 0
236 215 0
233 218 0
230 220 0
228 222 0
226 223 0
224 223 0
224 223 0
223 223 0
223 223 0
223 223 0
223 223 0
224 222 0
225 222 0
228 220 0
231 218 0
235 215 0
239 211 0
244 208 0
248 205 0
251 202 0
253 200 0
253 200 0
253 201 0
251 203 0
248 205 0
244 208 0
241 211 0
238 213 0
235 215 0
234 216 0
213 230 0
214 229 0
215 229 0
216 228 0
217 227 0
218 226 0
218 226 0
219 226 0
220 225 0
222 225 0
223 224 0
226 222 0
229 220 0
232 217 0
235 215 0
238 213 0
240 211 0
241 211 0
240 212 0
239 213 0
236 215 0
233 217 0
231 220 0
228 221 0
227 222 0
226 222 0
226 222 0
226 221 0
226 221 0
226 221 0
226 220 0
227 220 0
228 219 0
230 218 0
233 216 0
236 214 0
240 211 0
245 207 0
248 204 0
251 202 0
253 200 0
254 200 0
253 201 0
251 202 0
248 205 0
245 207 0
242 210 0
239 212 0
237 214 0
236 215 0
212 231 0
212 230 0
213 230 0
214 229 0
215 228 0
216 228 0
216 227 0
217 227 0
218 227 0
220 226 0
222 225 0
224 223 0
227 221 0
231 218 0
234 216 0
237 214 0
239 212 0
240 212 0
239 212 0
238 214 0
235 216 0
233 218 0
230 220 0
229 221 0
227 221 0
227 221 0
227 221 0
228 220 0
228 219 0
228 219 0
229 219 0
229 218 0
230 218 0
232 217 0
234 215 0
238 213 0
241 210 0
245 207 0
248 204 0
251 202 0
253 201 0
253 200 0
252 201 0
250 203 0
248 205 0
245 207 0
242 210 0
239 212 0
237 213 0
236 214 0
211 231 0
211 231 0
212 230 0
213 230 0
213 229 0
214 229 0
215 228 0
215 228 0
216 228 0
218 227 0
219 226 0
222 225 0
225 222 0
229 220 0
232 217 0
235 215 0
237 214 0
238 213 0
237 213 0
236 215 0
234 216 0
232 218 0
230 220 0
228 221 0
227 221 0
227 221 0
228 220 0
229 219 0
229 218 0
230 218 0
230 217 0
231 217 0
232 216 0
233 216 0
235 214 0
238 212 0
241 210 0
245 207 0
248 205 0
250 203 0
251 202 0
251 202 0
251 202 0
249 204 0
246 206 0
243 208 0
241 210 0
238 212 0
237 214 0
236 214 0
211 231 0
211 230 0
212 230 0
212 230 0
213 229 0
213 229 0
213 229 0
214 229 0
214 229 0
216 228 0
217 227 0
220 226 0
223 224 0
226 221 0
229 219 0
232 217 0
234 216 0
235 215 0
235 215 0
234 216 0
232 218 0
230 219 0
228 221 0
227 221 0
227 222 0
227 221 0
228 220 0
229 219 0
230 218 0
231 217 0
231 217 0
232 216 0
233 216 0
234 215 0
236 214 0
238 212 0
241 210 0
244 207 0
246 205 0
248 204 0
249 203 0
249 203 0
248 204 0
246 206 0
244 208 0
241 210 0
239 212 0
237 213 0
236 214 0
235 215 0
212 230 0
212 230 0
212 229 0
212 229 0
213 229 0
213 229 0
213 229 0
213 230 0
213 230 0
214 229 0
216 228 0
218 227 0
221 225 0
224 223 0
227 221 0
229 219 0
231 218 0
232 217 0
231 217 0
231 218 0
229 220 0
228 221 0
226 222 0
226 222 0
226 222 0
227 221 0
228 220 0
229 219 0
230 218 0
231 217 0
232 216 0
232 216 0
233 215 0
234 215 0
236 214 0
238 212 0
240 210 0
243 208 0
245 207 0
246 206 0
247 205 0
247 206 0
245 207 0
244 208 0
241 210 0
239 212 0
237 214 0
235 215 0
234 216 0
233 216 0
214 228 0
214 228 0
214 228 0
213 228 0
213 229 0
213 229 0
212 229 0
212 230 0
212 230 0
213 230 0
214 229 0
216 228 0
218 226 0
221 225 0
224 223 0
226 221 0
227 220 0
228 220 0
228 220 0
227 221 0
226 222 0
225 223 0
224 223 0
224 223 0
224 223 0
225 222 0
227 221 0
228 219 0
230 218 0
231 217 0
231 216 0
232 216 0
233 216 0
234 215 0
235 214 0
237 213 0
239 211 0
241 210 0
242 209 0
243 208 0
244 208 0
243 208 0
242 209 0
240 211 0
238 212 0
236 214 0
234 216 0
233 217 0
232 217 0
231 218 0
216 226 0
216 227 0
216 227 0
215 227 0
214 228 0
214 228 0
213 229 0
212 230 0
212 230 0
212 230 0
213 230 0
215 229 0
216 228 0
219 226 0
221 225 0
222 223 0
224 223 0
224 222 0
224 222 0
224 223 0
223 224 0
222 224 0
222 225 0
222 225 0
223 224 0
224 223 0
226 222 0
227 220 0
229 219 0
230 218 0
231 217 0
231 217 0
232 216 0
233 216 0
234 215 0
235 214 0
237 213 0
238 212 0
240 211 0
240 210 0
240 210 0
240 211 0
239 212 0
237 213 0
235 215 0
233 216 0
231 218 0
230 219 0
229 219 0
229 219 0
220 224 0
219 224 0
219 225 0
218 226 0
216 227 0
215 228 0
214 229 0
212 229 0
212 230 0
212 230 0
212 230 0
213 229 0
215 228 0
216 227 0
218 226 0
219 226 0
220 225 0
221 225 0
221 225 0
220 225 0
220 226 0
220 226 0
220 226 0
220 226 0
221 225 0
222 224 0
224 223 0
226 221 0
227 220 0
228 219 0
229 218 0
230 218 0
230 217 0
231 217 0
232 216 0
233 216 0
234 215 0
235 214 0
236 213 0
237 213 0
237 213 0
236 214 0
235 215 0
233 216 0
232 217 0
230 219 0
229 220 0
227 220 0
227 221 0
226 221 0
224 222 0
223 222 0
222 223 0
220 224 0
218 225 0
216 227 0
215 228 0
213 229 0
212 230 0
211 230 0
212 230 0
212 230 0
213 229 0
214 229 0
215 228 0
216 227 0
217 227 0
217 227 0
217 227 0
217 227 0
217 228 0
217 228 0
217 228 0
218 227 0
219 227 0
221 225 0
222 224 0
224 222 0
226 221 0
227 220 0
228 219 0
228 219 0
229 219 0
229 218 0
229 218 0
230 218 0
231 217 0
232 217 0
233 216 0
233 216 0
233 216 0
233 216 0
232 217 0
231 218 0
229 219 0
227 220 0
226 221 0
225 222 0
225 222 0
224 222 0
228 219 0
227 220 0
225 221 0
223 222 0
221 224 0
218 226 0
216 227 0
214 229 0
212 230 0
211 230 0
211 230 0
211 230 0
212 230 0
212 230 0
213 229 0
213 229 0
213 229 0
214 229 0
214 229 0
214 229 0
214 230 0
214 230 0
215 229 0
216 229 0
217 228 0
219 227 0
221 225 0
223 224 0
224 222 0
225 221 0
226 221 0
226 220 0
227 220 0
227 220 0
227 220 0
227 220 0
228 220 0
229 219 0
230 219 0
230 218 0
230 218 0
230 219 0
229 219 0
228 220 0
227 221 0
226 222 0
224 222 0
224 223 0
223 223 0
223 223 0
232 217 0
231 217 0
229 219 0
226 221 0
223 223 0
220 225 0
217 227 0
214 229 0
212 230 0
211 230 0
210 231 0
210 231 0
210 231 0
210 231 0
210 231 0
211 231 0
211 231 0
211 231 0
211 231 0
211 231 0
211 231 0
212 231 0
213 231 0
214 230 0
215 229 0
217 228 0
219 226 0
221 225 0
222 224 0
224 223 0
224 222 0
224 222 0
224 222 0
224 222 0
224 223 0
224 223 0
225 222 0
226 222 0
226 221 0
227 221 0
228 220 0
228 220 0
227 221 0
226 221 0
225 222 0
224 222 0
223 223 0
223 223 0
222 224 0
222 224 0
236 214 0
235 215 0
232 217 0
229 219 0
225 222 0
221 224 0
217 227 0
214 229 0
212 230 0
210 231 0
209 231 0
209 231 0
209 232 0
208 232 0
208 232 0
208 232 0
208 232 0
208 233 0
208 233 0
209 233 0
209 233 0
210 232 0
211 232 0
212 231 0
214 230 0
216 229 0
218 228 0
219 226 0
221 225 0
222 224 0
222 224 0
222 224 0
222 224 0
222 224 0
222 225 0
222 225 0
222 225 0
223 224 0
224 223 0
225 223 0
225 222 0
226 222 0
226 221 0
225 222 0
225 222 0
224 222 0
223 223 0
222 223 0
222 224 0
221 224 0
239 212 0
238 213 0
235 215 0
231 218 0
227 221 0
222 224 0
218 227 0
215 229 0
212 230 0
210 231 0
209 232 0
208 232 0
207 232 0
207 232 0
207 233 0
206 233 0
206 234 0
206 234 0
206 234 0
207 234 0
207 234 0
208 234 0
209 233 0
211 232 0
213 231 0
214 230 0
216 229 0
218 227 0
220 226 0
221 225 0
221 225 0
221 225 0
220 225 0
220 226 0
219 226 0
219 227 0
220 226 0
220 226 0
221 225 0
223 224 0
224 223 0
224 222 0
225 222 0
225 222 0
224 222 0
223 222 0
223 223 0
222 223 0
222 224 0
221 224 0
242 211 0
240 212 0
237 214 0
233 217 0
228 220 0
223 224 0
219 227 0
215 229 0
212 230 0
210 231 0
208 232 0
207 232 0
206 233 0
206 233 0
205 234 0
205 234 0
204 235 0
204 235 0
205 235 0
205 235 0
206 235 0
207 234 0
208 234 0
210 233 0
212 232 0
213 231 0
215 230 0
217 228 0
219 227 0
219 226 0
220 226 0
220 226 0
219 226 0
218 227 0
218 228 0
218 228 0
218 228 0
219 227 0
220 226 0
221 225 0
223 224 0
224 223 0
224 222 0
224 222 0
224 222 0
224 222 0
223 222 0
222 223 0
222 223 0
221 223 0
243 210 0
241 211 0
238 214 0
234 217 0
229 220 0
223 224 0
219 227 0
215 229 0
212 231 0
209 232 0
208 232 0
207 233 0
206 233 0
205 233 0
205 234 0
204 235 0
204 235 0
204 235 0
204 236 0
204 236 0
205 235 0
206 235 0
208 234 0
209 233 0
211 232 0
213 231 0
215 230 0
217 229 0
218 227 0
219 227 0
219 226 0
219 227 0
218 227 0
218 228 0
217 228 0
217 229 0
217 229 0
218 228 0
219 227 0
221 226 0
222 224 0
223 223 0
224 222 0
224 222 0
224 222 0
224 222 0
223 222 0
222 223 0
222 223 0
221 223 0
