P3
50 50
255
235 218 0
235 218 0
235 217 0
235 217 0
236 217 0
236 216 0
237 215 0
237 215 0
238 214 0
239 213 0
239 212 0
240 211 0
241 209 0
242 208 0
243 207 0
244 206 0
245 204 0
246 203 0
247 202 0
247 201 0
248 200 0
248 199 0
249 198 0
249 198 0
249 198 0
248 198 0
248 198 0
247 199 0
246 200 0
245 202 0
244 204 0
242 206 0
240 208 0
238 211 0
235 214 0
232 217 0
229 221 0
226 224 0
223 228 0
220 231 0
216 235 0
213 238 0
210 241 0
207 244 0
204 246 0
202 248 0
200 250 0
198 251 0
197 252 0
197 253 0
235 218 0
235 218 0
235 217 0
235 217 0
236 217 0
236 216 0
236 215 0
237 215 0
238 214 0
239 213 0
239 212 0
240 211 0
241 209 0
242 208 0
243 207 0
244 206 0
245 204 0
246 203 0
246 202 0
247 201 0
248 200 0
248 199 0
249 198 0
249 198 0
249 198 0
248 198 0
248 199 0
247 199 0
246 200 0
245 202 0
243 204 0
242 206 0
240 208 0
237 211 0
235 214 0
232 217 0
229 221 0
226 224 0
223 228 0
219 231 0
216 235 0
213 238 0
210 241 0
207 244 0
204 246 0
202 248 0
200 250 0
198 251 0
197 252 0
197 253 0
235 218 0
235 218 0
235 217 0
235 217 0
235 217 0
236 216 0
236 216 0
237 215 0
238 214 0
239 213 0
239 212 0
240 211 0
241 210 0
242 208 0
243 207 0
244 206 0
245 204 0
246 203 0
246 202 0
247 201 0
248 200 0
248 199 0
248 199 0
249 198 0
248 198 0
248 198 0
248 199 0
247 200 0
246 201 0
245 202 0
243 204 0
242 206 0
240 209 0
237 211 0
235 214 0
232 218 0
229 221 0
226 224 0
223 228 0
219 231 0
216 235 0
213 238 0
210 241 0
207 244 0
204 246 0
202 249 0
200 250 0
198 252 0
197 252 0
197 253 0
235 218 0
235 218 0
235 218 0
235 217 0
235 217 0
236 216 0
236 216 0
237 215 0
238 214 0
238 213 0
239 212 0
240 211 0
241 210 0
242 208 0
243 207 0
244 206 0
245 205 0
245 203 0
246 202 0
247 201 0
247 200 0
248 199 0
248 199 0
248 198 0
248 198 0
248 199 0
247 199 0
247 200 0
246 201 0
245 203 0
243 204 0
241 207 0
239 209 0
237 212 0
234 215 0
232 218 0
229 221 0
226 225 0
222 228 0
219 232 0
216 235 0
212 238 0
209 241 0
206 244 0
204 247 0
201 249 0
199 250 0
198 252 0
197 253 0
196 253 0
235 218 0
235 218 0
235 218 0
235 217 0
235 217 0
236 216 0
236 216 0
237 215 0
238 214 0
238 213 0
239 212 0
240 211 0
241 210 0
242 209 0
243 207 0
244 206 0
244 205 0
245 204 0
246 202 0
247 201 0
247 200 0
248 200 0
248 199 0
248 199 0
248 199 0
248 199 0
247 200 0
246 200 0
245 202 0
244 203 0
243 205 0
241 207 0
239 209 0
237 212 0
234 215 0
231 218 0
228 222 0
225 225 0
222 229 0
219 232 0
215 236 0
212 239 0
209 242 0
206 245 0
203 247 0
201 249 0
199 251 0
198 252 0
197 253 0
196 253 0
235 218 0
235 218 0
235 218 0
235 217 0
235 217 0
236 216 0
236 216 0
237 215 0
238 214 0
238 213 0
239 212 0
240 211 0
241 210 0
242 209 0
243 208 0
243 206 0
244 205 0
245 204 0
246 203 0
246 202 0
247 201 0
247 200 0
248 200 0
248 199 0
248 199 0
247 200 0
247 200 0
246 201 0
245 202 0
244 204 0
242 205 0
241 208 0
239 210 0
236 213 0
234 216 0
231 219 0
228 222 0
225 226 0
222 229 0
218 233 0
215 236 0
212 239 0
209 242 0
206 245 0
203 247 0
201 249 0
199 251 0
197 252 0
196 253 0
196 254 0
235 218 0
235 218 0
235 218 0
235 217 0
235 217 0
236 216 0
236 216 0
237 215 0
238 214 0
238 213 0
239 212 0
240 211 0
241 210 0
242 209 0
242 208 0
243 207 0
244 205 0
245 204 0
246 203 0
246 202 0
247 201 0
247 201 0
247 200 0
247 200 0
247 200 0
247 200 0
246 201 0
246 202 0
245 203 0
243 204 0
242 206 0
240 208 0
238 211 0
236 213 0
233 216 0
230 220 0
228 223 0
224 226 0
221 230 0
218 233 0
215 236 0
211 240 0
208 243 0
205 245 0
203 248 0
200 250 0
198 251 0
197 253 0
196 253 0
195 254 0
235 218 0
235 218 0
235 218 0
235 217 0
235 217 0
236 216 0
236 216 0
237 215 0
238 214 0
238 213 0
239 212 0
240 211 0
241 210 0
241 209 0
242 208 0
243 207 0
244 206 0
245 205 0
245 204 0
246 203 0
246 202 0
247 201 0
247 201 0
247 200 0
247 200 0
247 201 0
246 201 0
245 202 0
244 203 0
243 205 0
241 207 0
240 209 0
238 211 0
235 214 0
233 217 0
230 220 0
227 223 0
224 227 0
221 230 0
217 234 0
214 237 0
211 240 0
208 243 0
205 246 0
202 248 0
200 250 0
198 252 0
197 253 0
196 254 0
195 254 0
235 218 0
235 218 0
235 217 0
235 217 0
236 217 0
236 216 0
236 216 0
237 215 0
238 214 0
238 213 0
239 212 0
240 211 0
241 210 0
241 209 0
242 208 0
243 207 0
244 206 0
244 205 0
245 204 0
246 203 0
246 202 0
246 202 0
247 201 0
247 201 0
246 201 0
246 201 0
246 202 0
245 203 0
244 204 0
242 206 0
241 208 0
239 210 0
237 212 0
235 215 0
232 218 0
229 221 0
227 224 0
223 227 0
220 231 0
217 234 0
214 237 0
211 240 0
208 243 0
205 246 0
202 248 0
200 250 0
198 252 0
196 253 0
195 254 0
195 254 0
235 218 0
235 218 0
235 217 0
235 217 0
236 217 0
236 216 0
236 216 0
237 215 0
238 214 0
238 213 0
239 212 0
240 212 0
240 211 0
241 209 0
242 208 0
243 207 0
244 206 0
244 205 0
245 204 0
245 203 0
246 203 0
246 202 0
246 202 0
246 202 0
246 202 0
246 202 0
245 203 0
244 204 0
243 205 0
242 207 0
240 208 0
239 210 0
237 213 0
234 216 0
232 218 0
229 221 0
226 225 0
223 228 0
220 231 0
217 235 0
213 238 0
210 241 0
207 244 0
204 246 0
202 248 0
200 250 0
198 252 0
196 253 0
195 254 0
195 255 0
235 217 0
235 217 0
235 217 0
235 217 0
236 216 0
236 216 0
237 215 0
237 215 0
238 214 0
238 213 0
239 212 0
240 212 0
240 211 0
241 210 0
242 209 0
243 208 0
243 207 0
244 206 0
245 205 0
245 204 0
245 203 0
246 203 0
246 203 0
246 202 0
246 203 0
245 203 0
245 204 0
244 205 0
243 206 0
241 207 0
240 209 0
238 211 0
236 214 0
234 216 0
231 219 0
229 222 0
226 225 0
223 228 0
220 232 0
216 235 0
213 238 0
210 241 0
207 244 0
204 246 0
202 249 0
200 251 0
198 252 0
196 253 0
195 254 0
195 254 0
235 217 0
235 217 0
235 217 0
236 217 0
236 216 0
236 216 0
237 215 0
237 215 0
238 214 0
238 213 0
239 212 0
240 211 0
240 211 0
241 210 0
242 209 0
243 208 0
243 207 0
244 206 0
244 205 0
245 204 0
245 204 0
245 203 0
245 203 0
245 203 0
245 203 0
245 204 0
244 204 0
243 205 0
242 207 0
241 208 0
239 210 0
238 212 0
236 214 0
233 217 0
231 220 0
228 223 0
225 226 0
222 229 0
219 232 0
216 235 0
213 238 0
210 241 0
207 244 0
204 246 0
202 249 0
200 250 0
198 252 0
197 253 0
196 254 0
195 254 0
236 217 0
236 217 0
236 216 0
236 216 0
236 216 0
237 215 0
237 215 0
237 214 0
238 214 0
239 213 0
239 212 0
240 211 0
240 211 0
241 210 0
242 209 0
242 208 0
243 207 0
244 206 0
244 205 0
245 205 0
245 204 0
245 204 0
245 204 0
245 204 0
245 204 0
244 204 0
244 205 0
243 206 0
242 207 0
240 209 0
239 211 0
237 213 0
235 215 0
233 218 0
230 220 0
228 223 0
225 226 0
222 229 0
219 232 0
216 235 0
213 238 0
210 241 0
207 244 0
205 246 0
202 248 0
200 250 0
198 252 0
197 253 0
196 254 0
196 254 0
236 216 0
236 216 0
236 216 0
236 216 0
237 215 0
237 215 0
237 215 0
238 214 0
238 213 0
239 213 0
239 212 0
240 211 0
241 210 0
241 210 0
242 209 0
242 208 0
243 207 0
243 206 0
244 206 0
244 205 0
245 205 0
245 204 0
245 204 0
245 204 0
244 205 0
244 205 0
243 206 0
242 207 0
241 208 0
240 210 0
238 211 0
237 213 0
235 216 0
233 218 0
230 221 0
228 224 0
225 226 0
222 229 0
219 232 0
216 235 0
213 238 0
210 241 0
208 244 0
205 246 0
203 248 0
201 250 0
199 251 0
198 252 0
197 253 0
196 253 0
236 216 0
236 216 0
237 215 0
237 215 0
237 215 0
237 215 0
238 214 0
238 214 0
239 213 0
239 212 0
240 212 0
240 211 0
241 210 0
241 209 0
242 209 0
242 208 0
243 207 0
243 207 0
244 206 0
244 206 0
244 205 0
244 205 0
244 205 0
244 205 0
244 205 0
243 206 0
243 207 0
242 208 0
241 209 0
239 210 0
238 212 0
236 214 0
234 216 0
232 219 0
230 221 0
227 224 0
225 227 0
222 230 0
219 232 0
216 235 0
214 238 0
211 241 0
208 243 0
206 245 0
204 247 0
202 249 0
200 250 0
199 252 0
198 252 0
198 253 0
237 215 0
237 215 0
237 215 0
237 215 0
237 214 0
238 214 0
238 214 0
238 213 0
239 213 0
239 212 0
240 211 0
240 211 0
241 210 0
241 209 0
242 209 0
242 208 0
243 207 0
243 207 0
244 206 0
244 206 0
244 206 0
244 205 0
244 205 0
244 206 0
243 206 0
243 206 0
242 207 0
241 208 0
240 209 0
239 211 0
238 213 0
236 214 0
234 217 0
232 219 0
230 221 0
227 224 0
225 227 0
222 229 0
220 232 0
217 235 0
214 238 0
212 240 0
209 242 0
207 245 0
205 247 0
203 248 0
201 250 0
200 251 0
199 251 0
199 252 0
237 214 0
237 214 0
238 214 0
238 214 0
238 214 0
238 213 0
239 213 0
239 213 0
239 212 0
240 211 0
240 211 0
241 210 0
241 210 0
242 209 0
242 208 0
243 208 0
243 207 0
243 207 0
244 206 0
244 206 0
244 206 0
244 206 0
244 206 0
244 206 0
243 206 0
243 207 0
242 208 0
241 209 0
240 210 0
239 211 0
237 213 0
236 215 0
234 217 0
232 219 0
230 221 0
228 224 0
225 226 0
223 229 0
220 232 0
218 234 0
215 237 0
213 239 0
210 242 0
208 244 0
206 245 0
204 247 0
203 248 0
202 249 0
201 250 0
200 250 0
238 214 0
238 214 0
238 213 0
238 213 0
238 213 0
239 213 0
239 212 0
239 212 0
240 211 0
240 211 0
241 210 0
241 210 0
241 209 0
242 209 0
242 208 0
243 208 0
243 207 0
243 207 0
244 206 0
244 206 0
244 206 0
244 206 0
244 206 0
243 206 0
243 207 0
242 207 0
242 208 0
241 209 0
240 210 0
239 212 0
237 213 0
236 215 0
234 217 0
232 219 0
230 221 0
228 224 0
226 226 0
223 229 0
221 231 0
218 234 0
216 236 0
214 238 0
211 240 0
209 242 0
207 244 0
206 246 0
204 247 0
203 248 0
203 248 0
202 249 0
239 213 0
239 213 0
239 213 0
239 212 0
239 212 0
239 212 0
240 212 0
240 211 0
240 211 0
241 210 0
241 210 0
241 209 0
242 209 0
242 208 0
242 208 0
243 207 0
243 207 0
243 207 0
244 206 0
244 206 0
244 206 0
244 206 0
243 206 0
243 207 0
243 207 0
242 208 0
242 209 0
241 210 0
240 211 0
239 212 0
237 214 0
236 215 0
234 217 0
232 219 0
230 221 0
228 223 0
226 226 0
224 228 0
222 230 0
220 233 0
217 235 0
215 237 0
213 239 0
211 241 0
209 242 0
208 244 0
206 245 0
206 246 0
205 246 0
205 247 0
239 212 0
239 212 0
239 212 0
239 212 0
240 211 0
240 211 0
240 211 0
240 211 0
241 210 0
241 210 0
241 209 0
242 209 0
242 208 0
242 208 0
243 208 0
243 207 0
243 207 0
243 207 0
244 206 0
244 206 0
244 206 0
244 206 0
243 207 0
243 207 0
243 207 0
242 208 0
241 209 0
241 210 0
240 211 0
239 212 0
237 214 0
236 215 0
234 217 0
233 219 0
231 221 0
229 223 0
227 225 0
225 227 0
223 229 0
221 231 0
219 233 0
217 235 0
215 237 0
213 239 0
211 241 0
210 242 0
209 243 0
208 244 0
207 244 0
207 245 0
240 211 0
240 211 0
240 211 0
240 211 0
240 211 0
240 210 0
241 210 0
241 210 0
241 210 0
241 209 0
242 209 0
242 208 0
242 208 0
243 208 0
243 207 0
243 207 0
243 207 0
244 207 0
244 206 0
244 206 0
244 206 0
244 206 0
243 207 0
243 207 0
243 208 0
242 208 0
241 209 0
241 210 0
240 211 0
239 212 0
238 213 0
236 215 0
235 217 0
233 218 0
232 220 0
230 222 0
228 224 0
226 226 0
224 228 0
222 230 0
220 232 0
219 234 0
217 235 0
215 237 0
214 238 0
212 240 0
211 241 0
210 241 0
210 242 0
210 242 0
240 210 0
240 210 0
240 210 0
241 210 0
241 210 0
241 210 0
241 210 0
241 209 0
242 209 0
242 209 0
242 208 0
242 208 0
243 208 0
243 207 0
243 207 0
243 207 0
244 206 0
244 206 0
244 206 0
244 206 0
244 206 0
244 206 0
243 207 0
243 207 0
243 208 0
242 208 0
241 209 0
241 210 0
240 211 0
239 212 0
238 213 0
237 215 0
235 216 0
234 218 0
232 219 0
231 221 0
229 223 0
227 225 0
226 226 0
224 228 0
222 230 0
220 232 0
219 233 0
217 235 0
216 236 0
215 237 0
214 238 0
213 239 0
213 239 0
212 239 0
241 210 0
241 210 0
241 210 0
241 209 0
241 209 0
241 209 0
242 209 0
242 209 0
242 208 0
242 208 0
243 208 0
243 207 0
243 207 0
243 207 0
243 207 0
244 206 0
244 206 0
244 206 0
244 206 0
244 206 0
244 206 0
244 206 0
243 207 0
243 207 0
243 208 0
242 208 0
242 209 0
241 210 0
240 211 0
239 212 0
238 213 0
237 214 0
236 215 0
235 217 0
233 218 0
232 220 0
230 222 0
229 223 0
227 225 0
226 226 0
224 228 0
223 229 0
221 231 0
220 232 0
219 233 0
218 234 0
217 235 0
216 236 0
216 236 0
215 236 0
241 209 0
241 209 0
242 209 0
242 209 0
242 209 0
242 208 0
242 208 0
242 208 0
242 208 0
243 207 0
243 207 0
243 207 0
243 207 0
244 206 0
244 206 0
244 206 0
244 206 0
244 206 0
244 206 0
244 206 0
244 206 0
244 206 0
244 207 0
243 207 0
243 207 0
242 208 0
242 209 0
241 209 0
240 210 0
240 211 0
239 212 0
238 213 0
237 215 0
235 216 0
234 217 0
233 219 0
232 220 0
230 222 0
229 223 0
227 224 0
226 226 0
225 227 0
224 228 0
222 230 0
221 231 0
220 231 0
220 232 0
219 233 0
219 233 0
218 233 0
242 208 0
242 208 0
242 208 0
242 208 0
242 208 0
242 208 0
242 208 0
243 207 0
243 207 0
243 207 0
243 207 0
243 207 0
244 206 0
244 206 0
244 206 0
244 206 0
244 206 0
244 206 0
244 206 0
244 206 0
244 206 0
244 206 0
244 207 0
243 207 0
243 207 0
243 208 0
242 208 0
241 209 0
241 210 0
240 211 0
239 212 0
238 213 0
237 214 0
236 215 0
235 216 0
234 217 0
233 218 0
232 220 0
231 221 0
229 222 0
228 223 0
227 225 0
226 226 0
225 227 0
224 228 0
223 228 0
223 229 0
222 230 0
222 230 0
222 230 0
242 208 0
242 208 0
242 208 0
242 208 0
243 208 0
243 207 0
243 207 0
243 207 0
243 207 0
243 207 0
244 206 0
244 206 0
244 206 0
244 206 0
244 206 0
244 206 0
244 206 0
244 206 0
244 206 0
244 206 0
244 206 0
244 206 0
244 206 0
244 207 0
243 207 0
243 208 0
242 208 0
242 209 0
241 209 0
241 210 0
240 211 0
239 212 0
238 213 0
237 214 0
236 215 0
236 216 0
235 217 0
233 218 0
232 219 0
231 220 0
230 221 0
229 222 0
228 223 0
228 224 0
227 225 0
226 225 0
226 226 0
225 226 0
225 227 0
225 227 0
243 207 0
243 207 0
243 207 0
243 207 0
243 207 0
243 207 0
243 207 0
243 207 0
243 206 0
244 206 0
244 206 0
244 206 0
244 206 0
244 206 0
244 205 0
244 205 0
245 205 0
245 205 0
245 205 0
244 206 0
244 206 0
244 206 0
244 206 0
244 206 0
243 207 0
243 207 0
243 208 0
242 208 0
242 209 0
241 209 0
241 210 0
240 211 0
239 212 0
238 212 0
238 213 0
237 214 0
236 215 0
235 216 0
234 217 0
233 218 0
233 219 0
232 219 0
231 220 0
230 221 0
230 222 0
229 222 0
229 223 0
228 223 0
228 223 0
228 223 0
243 207 0
243 207 0
243 207 0
243 207 0
243 207 0
243 207 0
243 207 0
244 206 0
244 206 0
244 206 0
244 206 0
244 206 0
244 206 0
244 205 0
245 205 0
245 205 0
245 205 0
245 205 0
245 205 0
245 205 0
244 206 0
244 206 0
244 206 0
244 206 0
244 207 0
243 207 0
243 207 0
243 208 0
242 208 0
242 209 0
241 209 0
241 210 0
240 210 0
240 211 0
239 212 0
238 212 0
238 213 0
237 214 0
236 215 0
235 215 0
235 216 0
234 217 0
233 217 0
233 218 0
232 219 0
232 219 0
231 219 0
231 220 0
231 220 0
231 220 0
243 207 0
243 207 0
243 207 0
243 207 0
243 207 0
243 206 0
244 206 0
244 206 0
244 206 0
244 206 0
244 206 0
244 206 0
244 205 0
245 205 0
245 205 0
245 205 0
245 205 0
245 205 0
245 205 0
245 205 0
245 205 0
245 206 0
244 206 0
244 206 0
244 206 0
244 207 0
243 207 0
243 207 0
243 208 0
242 208 0
242 208 0
242 209 0
241 209 0
241 210 0
240 210 0
240 211 0
239 211 0
238 212 0
238 212 0
237 213 0
237 214 0
236 214 0
236 215 0
235 215 0
235 215 0
234 216 0
234 216 0
234 216 0
234 217 0
234 217 0
243 207 0
243 207 0
243 207 0
243 207 0
243 207 0
243 206 0
244 206 0
244 206 0
244 206 0
244 206 0
244 206 0
244 206 0
244 205 0
245 205 0
245 205 0
245 205 0
245 205 0
245 205 0
245 205 0
245 205 0
245 205 0
245 205 0
245 206 0
244 206 0
244 206 0
244 206 0
244 206 0
244 207 0
243 207 0
243 207 0
243 207 0
242 208 0
242 208 0
242 208 0
241 209 0
241 209 0
240 209 0
240 210 0
240 210 0
239 211 0
239 211 0
238 211 0
238 212 0
238 212 0
237 213 0
237 213 0
237 213 0
237 213 0
236 213 0
236 213 0
243 207 0
243 207 0
243 207 0
243 207 0
243 207 0
243 206 0
244 206 0
244 206 0
244 206 0
244 206 0
244 206 0
244 206 0
244 205 0
245 205 0
245 205 0
245 205 0
245 205 0
245 205 0
245 205 0
245 205 0
245 205 0
245 205 0
245 205 0
245 206 0
244 206 0
244 206 0
244 206 0
244 206 0
244 206 0
244 206 0
243 207 0
243 207 0
243 207 0
243 207 0
242 207 0
242 207 0
242 208 0
242 208 0
241 208 0
241 208 0
241 209 0
240 209 0
240 209 0
240 209 0
240 210 0
239 210 0
239 210 0
239 210 0
239 210 0
239 210 0
243 207 0
243 207 0
243 207 0
243 207 0
243 207 0
243 207 0
244 206 0
244 206 0
244 206 0
244 206 0
244 206 0
244 206 0
244 206 0
244 206 0
245 205 0
245 205 0
245 205 0
245 205 0
245 205 0
245 205 0
245 205 0
245 205 0
245 205 0
245 205 0
245 205 0
245 205 0
244 206 0
244 206 0
244 206 0
244 206 0
244 206 0
244 206 0
244 206 0
244 206 0
244 206 0
243 206 0
243 206 0
243 206 0
243 206 0
243 206 0
242 206 0
242 207 0
242 207 0
242 207 0
242 207 0
241 207 0
241 207 0
241 207 0
241 207 0
241 207 0
243 207 0
243 207 0
243 207 0
243 207 0
243 207 0
243 207 0
243 207 0
244 207 0
244 206 0
244 206 0
244 206 0
244 206 0
244 206 0
244 206 0
244 206 0
244 206 0
245 205 0
245 205 0
245 205 0
245 205 0
245 205 0
245 205 0
245 205 0
245 205 0
245 205 0
245 205 0
245 205 0
245 205 0
245 205 0
245 205 0
245 205 0
245 205 0
245 205 0
245 205 0
245 205 0
244 204 0
244 204 0
244 204 0
244 204 0
244 204 0
244 204 0
244 204 0
244 204 0
244 205 0
244 205 0
243 205 0
243 205 0
243 205 0
243 205 0
243 205 0
243 207 0
243 207 0
243 207 0
243 207 0
243 207 0
243 207 0
243 207 0
243 207 0
243 207 0
244 207 0
244 206 0
244 206 0
244 206 0
244 206 0
244 206 0
244 206 0
244 206 0
244 206 0
245 206 0
245 206 0
245 205 0
245 205 0
245 205 0
245 205 0
245 205 0
245 205 0
245 205 0
245 205 0
245 205 0
245 204 0
245 204 0
245 204 0
245 204 0
245 204 0
245 203 0
246 203 0
246 203 0
246 203 0
246 203 0
246 203 0
245 202 0
245 202 0
245 202 0
245 202 0
245 202 0
245 202 0
245 202 0
245 202 0
245 202 0
245 202 0
243 208 0
243 208 0
243 208 0
243 208 0
243 208 0
243 207 0
243 207 0
243 207 0
243 207 0
243 207 0
243 207 0
244 207 0
244 207 0
244 206 0
244 206 0
244 206 0
244 206 0
244 206 0
244 206 0
244 206 0
245 206 0
245 205 0
245 205 0
245 205 0
245 205 0
245 205 0
245 205 0
245 204 0
246 204 0
246 204 0
246 203 0
246 203 0
246 203 0
246 203 0
246 202 0
246 202 0
247 202 0
247 201 0
247 201 0
247 201 0
247 201 0
247 201 0
247 200 0
247 200 0
247 200 0
247 200 0
247 200 0
247 200 0
247 200 0
247 200 0
242 208 0
242 208 0
242 208 0
242 208 0
242 208 0
243 208 0
243 208 0
243 208 0
243 208 0
243 207 0
243 207 0
243 207 0
243 207 0
243 207 0
244 207 0
244 207 0
244 207 0
244 206 0
244 206 0
244 206 0
244 206 0
245 206 0
245 205 0
245 205 0
245 205 0
245 205 0
245 204 0
246 204 0
246 204 0
246 203 0
246 203 0
246 202 0
247 202 0
247 202 0
247 201 0
247 201 0
247 200 0
248 200 0
248 200 0
248 199 0
248 199 0
248 199 0
248 199 0
248 199 0
248 199 0
248 198 0
248 198 0
248 198 0
248 198 0
248 198 0
242 209 0
242 209 0
242 209 0
242 208 0
242 208 0
242 208 0
242 208 0
242 208 0
242 208 0
243 208 0
243 208 0
243 208 0
243 208 0
243 208 0
243 207 0
243 207 0
244 207 0
244 207 0
244 207 0
244 206 0
244 206 0
244 206 0
245 206 0
245 205 0
245 205 0
245 205 0
246 204 0
246 204 0
246 203 0
246 203 0
247 202 0
247 202 0
247 201 0
247 201 0
248 200 0
248 200 0
248 199 0
248 199 0
249 199 0
249 198 0
249 198 0
249 198 0
249 197 0
249 197 0
249 197 0
249 197 0
249 197 0
250 197 0
250 197 0
250 197 0
242 209 0
242 209 0
242 209 0
242 209 0
242 209 0
242 209 0
242 209 0
242 209 0
242 209 0
242 209 0
242 209 0
242 208 0
243 208 0
243 208 0
243 208 0
243 208 0
243 208 0
243 207 0
244 207 0
244 207 0
244 207 0
244 206 0
244 206 0
245 206 0
245 205 0
245 205 0
246 204 0
246 204 0
246 203 0
247 203 0
247 202 0
247 201 0
248 201 0
248 200 0
248 200 0
249 199 0
249 199 0
249 198 0
249 198 0
250 197 0
250 197 0
250 196 0
250 196 0
250 196 0
250 196 0
250 195 0
251 195 0
251 195 0
251 195 0
251 195 0
241 210 0
241 210 0
241 210 0
241 209 0
241 209 0
241 209 0
241 209 0
242 209 0
242 209 0
242 209 0
242 209 0
242 209 0
242 209 0
242 209 0
242 209 0
243 208 0
243 208 0
243 208 0
243 208 0
243 207 0
244 207 0
244 207 0
244 206 0
244 206 0
245 205 0
245 205 0
246 204 0
246 204 0
246 203 0
247 202 0
247 202 0
247 201 0
248 200 0
248 200 0
249 199 0
249 198 0
249 198 0
250 197 0
250 197 0
250 196 0
250 196 0
251 195 0
251 195 0
251 195 0
251 195 0
251 194 0
251 194 0
251 194 0
251 194 0
252 194 0
241 210 0
241 210 0
241 210 0
241 210 0
241 210 0
241 210 0
241 210 0
241 210 0
241 210 0
241 210 0
241 210 0
241 210 0
242 210 0
242 209 0
242 209 0
242 209 0
242 209 0
242 209 0
243 208 0
243 208 0
243 208 0
244 207 0
244 207 0
244 206 0
245 206 0
245 205 0
245 204 0
246 204 0
246 203 0
247 202 0
247 202 0
248 201 0
248 200 0
249 199 0
249 199 0
249 198 0
250 197 0
250 197 0
251 196 0
251 196 0
251 195 0
251 195 0
252 194 0
252 194 0
252 194 0
252 193 0
252 193 0
252 193 0
252 193 0
252 193 0
241 210 0
241 211 0
241 211 0
241 211 0
241 211 0
241 211 0
241 211 0
241 211 0
241 211 0
241 210 0
241 210 0
241 210 0
241 210 0
241 210 0
241 210 0
242 210 0
242 209 0
242 209 0
242 209 0
243 209 0
243 208 0
243 208 0
244 207 0
244 207 0
244 206 0
245 205 0
245 205 0
246 204 0
246 203 0
247 202 0
247 202 0
248 201 0
248 200 0
249 199 0
249 198 0
250 198 0
250 197 0
251 196 0
251 196 0
251 195 0
252 195 0
252 194 0
252 194 0
252 193 0
252 193 0
253 193 0
253 193 0
253 192 0
253 192 0
253 192 0
240 211 0
240 211 0
240 211 0
240 211 0
240 211 0
240 211 0
240 211 0
240 211 0
240 211 0
240 211 0
240 211 0
241 211 0
241 211 0
241 211 0
241 211 0
241 210 0
241 210 0
242 210 0
242 209 0
242 209 0
243 209 0
243 208 0
243 208 0
244 207 0
244 206 0
245 206 0
245 205 0
246 204 0
246 203 0
247 202 0
247 202 0
248 201 0
248 200 0
249 199 0
249 198 0
250 197 0
250 197 0
251 196 0
251 195 0
252 195 0
252 194 0
252 194 0
252 193 0
253 193 0
253 192 0
253 192 0
253 192 0
253 192 0
253 192 0
253 192 0
240 211 0
240 211 0
240 211 0
240 211 0
240 212 0
240 212 0
240 212 0
240 212 0
240 212 0
240 212 0
240 212 0
240 212 0
240 212 0
240 211 0
240 211 0
241 211 0
241 211 0
241 210 0
241 210 0
242 210 0
242 209 0
243 209 0
243 208 0
244 207 0
244 207 0
245 206 0
245 205 0
246 204 0
246 203 0
247 203 0
247 202 0
248 201 0
249 200 0
249 199 0
250 198 0
250 197 0
251 196 0
251 196 0
251 195 0
252 194 0
252 194 0
253 193 0
253 193 0
253 192 0
253 192 0
253 192 0
253 192 0
254 191 0
254 191 0
254 191 0
240 212 0
240 212 0
240 212 0
240 212 0
240 212 0
239 212 0
239 212 0
239 212 0
239 212 0
240 212 0
240 212 0
240 212 0
240 212 0
240 212 0
240 212 0
240 212 0
240 211 0
241 211 0
241 211 0
241 210 0
242 210 0
242 209 0
243 208 0
243 208 0
244 207 0
244 206 0
245 205 0
246 205 0
246 204 0
247 203 0
247 202 0
248 201 0
249 200 0
249 199 0
250 198 0
250 197 0
251 196 0
251 196 0
252 195 0
252 194 0
252 194 0
253 193 0
253 193 0
253 192 0
253 192 0
254 192 0
254 191 0
254 191 0
254 191 0
254 191 0
239 212 0
239 212 0
239 212 0
239 212 0
239 212 0
239 212 0
239 213 0
239 213 0
239 213 0
239 213 0
239 213 0
239 213 0
239 213 0
239 213 0
240 212 0
240 212 0
240 212 0
240 212 0
241 211 0
241 211 0
241 210 0
242 210 0
242 209 0
243 208 0
244 207 0
244 207 0
245 206 0
245 205 0
246 204 0
247 203 0
247 202 0
248 201 0
249 200 0
249 199 0
250 198 0
250 197 0
251 196 0
251 196 0
252 195 0
252 194 0
253 193 0
253 193 0
253 192 0
253 192 0
254 192 0
254 191 0
254 191 0
254 191 0
254 191 0
254 191 0
239 212 0
239 212 0
239 213 0
239 213 0
239 213 0
239 213 0
239 213 0
239 213 0
239 213 0
239 213 0
239 213 0
239 213 0
239 213 0
239 213 0
239 213 0
239 213 0
240 212 0
240 212 0
240 212 0
241 211 0
241 211 0
242 210 0
242 209 0
243 209 0
243 208 0
244 207 0
245 206 0
245 205 0
246 204 0
247 203 0
247 202 0
248 201 0
249 200 0
249 199 0
250 198 0
250 197 0
251 196 0
251 196 0
252 195 0
252 194 0
253 193 0
253 193 0
253 192 0
254 192 0
254 192 0
254 191 0
254 191 0
254 191 0
254 191 0
254 191 0
239 213 0
239 213 0
239 213 0
239 213 0
239 213 0
239 213 0
239 213 0
239 213 0
239 213 0
239 213 0
239 214 0
239 214 0
239 214 0
239 213 0
239 213 0
239 213 0
239 213 0
240 212 0
240 212 0
240 212 0
241 211 0
241 210 0
242 210 0
243 209 0
243 208 0
244 207 0
244 206 0
245 205 0
246 204 0
246 203 0
247 202 0
248 201 0
249 200 0
249 199 0
250 198 0
250 197 0
251 196 0
251 196 0
252 195 0
252 194 0
253 193 0
253 193 0
253 192 0
254 192 0
254 192 0
254 191 0
254 191 0
254 191 0
254 191 0
254 191 0
239 213 0
239 213 0
239 213 0
239 213 0
239 213 0
239 213 0
238 213 0
238 214 0
238 214 0
238 214 0
238 214 0
238 214 0
238 214 0
239 214 0
239 214 0
239 213 0
239 213 0
240 213 0
240 212 0
240 212 0
241 211 0
241 211 0
242 210 0
242 209 0
243 208 0
244 207 0
244 206 0
245 205 0
246 204 0
246 203 0
247 202 0
248 201 0
248 200 0
249 199 0
250 198 0
250 197 0
251 196 0
251 196 0
252 195 0
252 194 0
253 193 0
253 193 0
253 192 0
254 192 0
254 192 0
254 191 0
254 191 0
254 191 0
254 191 0
254 191 0
239 213 0
239 213 0
239 213 0
239 213 0
238 213 0
238 213 0
238 214 0
238 214 0
238 214 0
238 214 0
238 214 0
238 214 0
238 214 0
238 214 0
239 214 0
239 214 0
239 213 0
239 213 0
240 213 0
240 212 0
241 211 0
241 211 0
242 210 0
242 209 0
243 208 0
244 208 0
244 207 0
245 206 0
246 204 0
246 203 0
247 202 0
248 201 0
248 200 0
249 199 0
250 198 0
250 197 0
251 196 0
251 196 0
252 195 0
252 194 0
253 193 0
253 193 0
253 192 0
254 192 0
254 192 0
254 191 0
254 191 0
254 191 0
254 191 0
254 191 0
239 213 0
239 213 0
239 213 0
238 213 0
238 213 0
238 214 0
238 214 0
238 214 0
238 214 0
238 214 0
238 214 0
238 214 0
238 214 0
238 214 0
239 214 0
239 214 0
239 213 0
239 213 0
240 213 0
240 212 0
241 212 0
241 211 0
242 210 0
242 209 0
243 208 0
243 208 0
244 207 0
245 206 0
246 205 0
246 203 0
247 202 0
248 201 0
248 200 0
249 199 0
250 198 0
250 197 0
251 196 0
251 196 0
252 195 0
252 194 0
253 193 0
253 193 0
253 192 0
254 192 0
254 192 0
254 191 0
254 191 0
254 191 0
254 191 0
255 191 0
