P3
50 50
255
222 237 0
222 237 0
222 237 0
222 237 0
222 237 0
222 237 0
222 237 0
222 238 0
222 238 0
222 238 0
222 238 0
221 239 0
221 239 0
220 240 0
219 240 0
218 241 0
217 242 0
216 243 0
215 245 0
213 246 0
212 247 0
211 249 0
210 250 0
208 252 0
208 253 0
207 254 0
206 254 0
206 255 0
207 254 0
207 254 0
208 253 0
210 251 0
212 250 0
214 247 0
216 245 0
218 242 0
221 240 0
224 237 0
226 234 0
229 231 0
231 229 0
234 226 0
236 224 0
238 222 0
240 220 0
241 219 0
242 218 0
243 217 0
244 216 0
244 216 0
223 237 0
223 237 0
223 237 0
223 237 0
223 237 0
223 237 0
223 237 0
222 237 0
222 238 0
222 238 0
222 238 0
221 238 0
221 239 0
220 239 0
219 240 0
218 241 0
217 242 0
216 243 0
215 244 0
214 246 0
212 247 0
211 249 0
210 250 0
209 252 0
208 253 0
207 254 0
207 254 0
207 254 0
207 254 0
208 254 0
209 253 0
210 251 0
212 249 0
214 247 0
216 245 0
218 242 0
221 240 0
224 237 0
226 234 0
229 231 0
231 228 0
234 226 0
236 224 0
238 222 0
240 220 0
241 219 0
242 218 0
243 217 0
244 216 0
244 216 0
223 236 0
223 236 0
223 236 0
223 237 0
223 237 0
223 237 0
223 237 0
223 237 0
222 237 0
222 238 0
222 238 0
222 238 0
221 239 0
220 239 0
220 240 0
219 241 0
218 242 0
216 243 0
215 244 0
214 246 0
212 247 0
211 249 0
210 250 0
209 251 0
208 253 0
207 253 0
207 254 0
207 254 0
207 254 0
208 253 0
209 252 0
210 251 0
212 249 0
214 247 0
216 245 0
219 242 0
221 239 0
224 236 0
227 234 0
229 231 0
232 228 0
234 226 0
236 223 0
238 221 0
240 220 0
242 218 0
243 217 0
244 216 0
244 216 0
245 215 0
223 236 0
223 236 0
223 236 0
223 236 0
223 236 0
223 236 0
223 237 0
223 237 0
223 237 0
223 237 0
222 237 0
222 238 0
221 238 0
221 239 0
220 240 0
219 240 0
218 241 0
217 243 0
215 244 0
214 245 0
213 247 0
211 248 0
210 250 0
209 251 0
208 252 0
208 253 0
207 254 0
207 254 0
207 254 0
208 253 0
209 252 0
211 251 0
212 249 0
214 247 0
217 244 0
219 242 0
222 239 0
224 236 0
227 233 0
230 230 0
232 228 0
235 225 0
237 223 0
239 221 0
241 219 0
242 218 0
244 216 0
244 216 0
245 215 0
245 215 0
224 235 0
224 235 0
224 235 0
224 235 0
224 236 0
224 236 0
224 236 0
223 236 0
223 236 0
223 237 0
223 237 0
222 237 0
222 238 0
221 238 0
220 239 0
219 240 0
218 241 0
217 242 0
216 244 0
214 245 0
213 246 0
212 248 0
211 249 0
210 251 0
209 252 0
208 253 0
208 253 0
208 253 0
208 253 0
209 253 0
210 252 0
211 250 0
213 249 0
215 246 0
217 244 0
219 241 0
222 239 0
225 236 0
228 233 0
230 230 0
233 227 0
235 225 0
238 222 0
240 220 0
242 218 0
243 217 0
244 216 0
245 215 0
246 214 0
246 214 0
225 235 0
224 235 0
224 235 0
224 235 0
224 235 0
224 235 0
224 235 0
224 236 0
224 236 0
223 236 0
223 236 0
223 237 0
222 237 0
221 238 0
221 239 0
220 240 0
219 241 0
217 242 0
216 243 0
215 245 0
214 246 0
212 247 0
211 249 0
210 250 0
209 251 0
208 252 0
208 253 0
208 253 0
208 253 0
209 252 0
210 251 0
211 250 0
213 248 0
215 246 0
217 244 0
220 241 0
223 238 0
225 235 0
228 232 0
231 229 0
234 226 0
236 224 0
238 221 0
241 219 0
242 217 0
244 216 0
245 215 0
246 214 0
247 213 0
247 213 0
225 234 0
225 234 0
225 234 0
225 234 0
225 234 0
225 235 0
225 235 0
225 235 0
224 235 0
224 236 0
224 236 0
223 236 0
223 237 0
222 238 0
221 238 0
220 239 0
219 240 0
218 241 0
217 243 0
215 244 0
214 246 0
213 247 0
212 248 0
211 250 0
210 251 0
209 252 0
209 252 0
209 252 0
209 252 0
210 252 0
211 251 0
212 249 0
214 248 0
216 245 0
218 243 0
221 240 0
223 237 0
226 235 0
229 232 0
232 229 0
234 226 0
237 223 0
239 221 0
241 218 0
243 216 0
245 215 0
246 214 0
247 213 0
248 212 0
249 212 0
226 233 0
226 233 0
226 233 0
226 234 0
226 234 0
225 234 0
225 234 0
225 234 0
225 235 0
224 235 0
224 235 0
224 236 0
223 236 0
222 237 0
221 238 0
220 239 0
219 240 0
218 241 0
217 242 0
216 244 0
215 245 0
213 246 0
212 248 0
211 249 0
210 250 0
210 251 0
209 251 0
209 252 0
210 252 0
210 251 0
211 250 0
213 249 0
214 247 0
216 245 0
219 242 0
221 240 0
224 237 0
227 234 0
229 231 0
232 228 0
235 225 0
238 222 0
240 220 0
242 217 0
244 215 0
246 214 0
248 212 0
249 211 0
249 211 0
250 210 0
226 233 0
226 233 0
226 233 0
226 233 0
226 233 0
226 233 0
226 234 0
225 234 0
225 234 0
225 235 0
224 235 0
224 235 0
223 236 0
223 237 0
222 237 0
221 238 0
220 239 0
219 240 0
218 242 0
216 243 0
215 244 0
214 246 0
213 247 0
212 248 0
211 249 0
210 250 0
210 251 0
210 251 0
210 251 0
211 250 0
212 249 0
213 248 0
215 246 0
217 244 0
219 242 0
222 239 0
225 236 0
227 233 0
230 230 0
233 227 0
236 224 0
239 221 0
241 219 0
243 216 0
245 214 0
247 213 0
249 211 0
250 210 0
251 209 0
251 209 0
227 232 0
227 232 0
227 232 0
227 232 0
226 233 0
226 233 0
226 233 0
226 233 0
226 234 0
225 234 0
225 235 0
224 235 0
224 236 0
223 236 0
222 237 0
221 238 0
220 239 0
219 240 0
218 241 0
217 243 0
216 244 0
214 245 0
213 246 0
213 248 0
212 249 0
211 249 0
211 250 0
211 250 0
211 250 0
212 249 0
213 248 0
214 247 0
216 245 0
218 243 0
220 241 0
223 238 0
225 235 0
228 232 0
231 229 0
234 226 0
237 223 0
239 221 0
242 218 0
244 215 0
246 213 0
248 212 0
250 210 0
251 209 0
252 208 0
252 208 0
227 232 0
227 232 0
227 232 0
227 232 0
227 232 0
227 233 0
226 233 0
226 233 0
226 233 0
225 234 0
225 234 0
224 235 0
224 235 0
223 236 0
222 237 0
221 238 0
220 239 0
219 240 0
218 241 0
217 242 0
216 243 0
215 245 0
214 246 0
213 247 0
213 248 0
212 249 0
212 249 0
212 249 0
212 249 0
213 248 0
214 248 0
215 246 0
217 245 0
219 243 0
221 240 0
223 238 0
226 235 0
229 232 0
232 229 0
235 226 0
237 223 0
240 220 0
243 217 0
245 215 0
247 212 0
249 211 0
251 209 0
252 208 0
253 207 0
253 207 0
227 232 0
227 232 0
227 232 0
227 232 0
227 232 0
227 232 0
226 233 0
226 233 0
226 233 0
226 234 0
225 234 0
225 235 0
224 235 0
223 236 0
222 237 0
222 237 0
221 238 0
220 239 0
219 241 0
218 242 0
217 243 0
216 244 0
215 245 0
214 246 0
213 247 0
213 248 0
213 248 0
213 248 0
213 248 0
214 248 0
215 247 0
216 245 0
218 244 0
220 242 0
222 239 0
224 237 0
227 234 0
229 231 0
232 228 0
235 225 0
238 222 0
241 219 0
243 216 0
246 214 0
248 212 0
250 210 0
251 208 0
253 207 0
253 206 0
254 206 0
227 232 0
227 232 0
227 232 0
227 232 0
227 232 0
227 232 0
226 233 0
226 233 0
226 233 0
225 234 0
225 234 0
224 235 0
224 235 0
223 236 0
222 237 0
222 237 0
221 238 0
220 239 0
219 240 0
218 241 0
217 242 0
216 244 0
215 245 0
215 245 0
214 246 0
214 247 0
214 247 0
214 247 0
214 247 0
215 246 0
216 246 0
217 244 0
219 243 0
220 241 0
222 239 0
225 236 0
227 233 0
230 230 0
233 227 0
236 224 0
239 221 0
241 219 0
244 216 0
246 213 0
248 211 0
250 209 0
252 208 0
253 206 0
254 206 0
254 205 0
227 232 0
227 232 0
227 232 0
227 232 0
227 233 0
226 233 0
226 233 0
226 233 0
226 234 0
225 234 0
225 234 0
224 235 0
224 235 0
223 236 0
222 237 0
222 238 0
221 238 0
220 239 0
219 240 0
218 241 0
217 242 0
217 243 0
216 244 0
215 245 0
215 245 0
215 246 0
214 246 0
215 246 0
215 246 0
216 245 0
217 244 0
218 243 0
219 242 0
221 240 0
223 238 0
226 235 0
228 233 0
231 230 0
233 227 0
236 224 0
239 221 0
242 218 0
244 215 0
247 213 0
249 211 0
251 209 0
252 207 0
253 206 0
254 205 0
255 205 0
226 233 0
226 233 0
226 233 0
226 233 0
226 233 0
226 233 0
226 233 0
226 234 0
225 234 0
225 234 0
224 235 0
224 235 0
223 236 0
223 236 0
222 237 0
221 238 0
221 239 0
220 239 0
219 240 0
218 241 0
218 242 0
217 243 0
216 243 0
216 244 0
216 245 0
215 245 0
215 245 0
216 245 0
216 245 0
217 244 0
218 243 0
219 242 0
220 241 0
222 239 0
224 237 0
226 235 0
229 232 0
231 229 0
234 226 0
236 224 0
239 221 0
242 218 0
244 215 0
246 213 0
249 211 0
250 209 0
252 207 0
253 206 0
254 205 0
254 205 0
226 233 0
226 233 0
226 233 0
226 234 0
226 234 0
225 234 0
225 234 0
225 234 0
225 235 0
224 235 0
224 235 0
223 236 0
223 236 0
222 237 0
222 237 0
221 238 0
220 239 0
220 240 0
219 240 0
218 241 0
218 242 0
217 242 0
217 243 0
216 243 0
216 244 0
216 244 0
216 244 0
217 244 0
217 244 0
218 243 0
219 242 0
220 241 0
221 240 0
223 238 0
225 236 0
227 234 0
229 231 0
231 229 0
234 226 0
236 223 0
239 221 0
242 218 0
244 215 0
246 213 0
248 211 0
250 209 0
251 208 0
253 206 0
253 206 0
254 205 0
225 234 0
225 234 0
225 234 0
225 234 0
225 235 0
225 235 0
225 235 0
224 235 0
224 235 0
224 236 0
223 236 0
223 237 0
222 237 0
222 237 0
221 238 0
221 239 0
220 239 0
220 240 0
219 240 0
218 241 0
218 241 0
218 242 0
217 242 0
217 243 0
217 243 0
217 243 0
217 243 0
218 243 0
218 242 0
219 242 0
220 241 0
221 240 0
222 239 0
224 237 0
225 235 0
227 233 0
229 231 0
232 229 0
234 226 0
236 223 0
239 221 0
241 218 0
243 216 0
246 214 0
248 212 0
249 210 0
251 208 0
252 207 0
252 206 0
253 206 0
224 235 0
224 235 0
224 235 0
224 236 0
224 236 0
224 236 0
224 236 0
223 236 0
223 236 0
223 237 0
223 237 0
222 237 0
222 238 0
221 238 0
221 239 0
220 239 0
220 240 0
219 240 0
219 241 0
218 241 0
218 241 0
218 242 0
218 242 0
218 242 0
218 242 0
218 242 0
218 242 0
218 242 0
219 241 0
220 241 0
221 240 0
222 239 0
223 238 0
224 236 0
226 234 0
228 233 0
230 231 0
232 228 0
234 226 0
236 224 0
238 221 0
240 219 0
243 217 0
245 214 0
246 213 0
248 211 0
249 209 0
250 208 0
251 208 0
252 207 0
223 237 0
223 237 0
223 237 0
223 237 0
223 237 0
223 237 0
223 237 0
223 237 0
222 237 0
222 238 0
222 238 0
221 238 0
221 239 0
221 239 0
220 239 0
220 240 0
219 240 0
219 240 0
219 241 0
218 241 0
218 241 0
218 241 0
218 242 0
218 242 0
218 241 0
218 241 0
219 241 0
219 241 0
220 240 0
221 239 0
221 239 0
222 238 0
224 237 0
225 235 0
226 234 0
228 232 0
230 230 0
231 228 0
233 226 0
235 224 0
238 222 0
240 220 0
242 218 0
243 216 0
245 214 0
247 212 0
248 211 0
249 210 0
250 209 0
250 209 0
222 238 0
222 238 0
222 238 0
222 238 0
222 238 0
222 238 0
222 238 0
222 238 0
221 238 0
221 239 0
221 239 0
221 239 0
220 239 0
220 240 0
219 240 0
219 240 0
219 241 0
219 241 0
218 241 0
218 241 0
218 241 0
218 241 0
218 241 0
218 241 0
219 241 0
219 240 0
219 240 0
220 240 0
221 239 0
221 238 0
222 238 0
223 237 0
224 236 0
225 235 0
227 233 0
228 232 0
229 230 0
231 229 0
233 227 0
235 225 0
237 223 0
238 221 0
240 219 0
242 217 0
243 215 0
245 214 0
246 213 0
247 212 0
248 211 0
248 211 0
221 239 0
221 239 0
221 239 0
221 239 0
221 239 0
221 239 0
221 239 0
221 239 0
221 239 0
220 240 0
220 240 0
220 240 0
219 240 0
219 240 0
219 241 0
219 241 0
218 241 0
218 241 0
218 241 0
218 241 0
218 241 0
218 241 0
218 241 0
219 241 0
219 240 0
220 240 0
220 239 0
221 239 0
221 238 0
222 237 0
223 237 0
224 236 0
225 235 0
226 234 0
227 233 0
228 232 0
229 230 0
231 229 0
232 227 0
234 226 0
235 224 0
237 222 0
239 220 0
240 219 0
242 217 0
243 216 0
244 215 0
245 214 0
245 213 0
246 213 0
220 240 0
220 240 0
220 240 0
220 240 0
220 240 0
220 240 0
220 240 0
220 240 0
220 240 0
219 240 0
219 241 0
219 241 0
219 241 0
218 241 0
218 241 0
218 242 0
218 242 0
218 242 0
218 242 0
218 242 0
218 241 0
218 241 0
218 241 0
219 240 0
219 240 0
220 239 0
221 238 0
221 238 0
222 237 0
223 237 0
223 236 0
224 235 0
225 235 0
226 234 0
227 233 0
228 232 0
229 231 0
230 230 0
231 228 0
233 227 0
234 225 0
235 224 0
237 222 0
238 221 0
239 220 0
241 218 0
241 217 0
242 217 0
243 216 0
243 216 0
219 241 0
219 241 0
219 241 0
219 241 0
219 241 0
219 241 0
219 241 0
219 241 0
219 241 0
219 241 0
218 241 0
218 242 0
218 242 0
218 242 0
217 242 0
217 242 0
217 242 0
217 242 0
217 242 0
217 242 0
218 242 0
218 241 0
218 241 0
219 240 0
220 239 0
220 239 0
221 238 0
222 237 0
222 237 0
223 236 0
224 235 0
224 235 0
225 234 0
226 234 0
226 233 0
227 232 0
228 231 0
229 230 0
230 229 0
231 228 0
232 227 0
234 226 0
235 224 0
236 223 0
237 222 0
238 221 0
239 220 0
239 219 0
240 219 0
240 219 0
219 242 0
219 242 0
219 242 0
219 242 0
218 242 0
218 242 0
218 242 0
218 242 0
218 242 0
218 242 0
218 242 0
217 242 0
217 242 0
217 243 0
217 243 0
217 243 0
217 243 0
217 243 0
217 242 0
217 242 0
217 242 0
218 241 0
218 240 0
219 240 0
220 239 0
220 238 0
221 238 0
222 237 0
222 236 0
223 236 0
224 235 0
224 235 0
225 234 0
225 234 0
226 233 0
226 233 0
227 232 0
228 231 0
229 231 0
230 230 0
231 229 0
232 228 0
233 227 0
234 226 0
235 225 0
235 224 0
236 223 0
237 222 0
237 222 0
237 222 0
218 243 0
218 243 0
218 243 0
218 243 0
218 243 0
218 243 0
218 243 0
218 243 0
217 243 0
217 243 0
217 243 0
217 243 0
217 243 0
216 243 0
216 243 0
216 243 0
216 243 0
216 243 0
216 243 0
217 242 0
217 242 0
218 241 0
218 240 0
219 240 0
220 239 0
220 238 0
221 237 0
222 237 0
222 236 0
223 236 0
224 235 0
224 235 0
224 234 0
225 234 0
225 234 0
226 234 0
226 233 0
227 233 0
227 232 0
228 232 0
229 231 0
229 230 0
230 229 0
231 228 0
232 227 0
233 227 0
233 226 0
234 225 0
234 225 0
234 225 0
217 243 0
217 243 0
217 243 0
217 243 0
217 243 0
217 243 0
217 243 0
217 243 0
217 243 0
217 243 0
217 243 0
216 243 0
216 243 0
216 244 0
216 244 0
216 244 0
216 244 0
216 243 0
216 243 0
216 243 0
217 242 0
217 241 0
218 241 0
219 240 0
220 239 0
220 238 0
221 237 0
222 237 0
222 236 0
223 236 0
223 235 0
224 235 0
224 235 0
224 235 0
224 235 0
225 235 0
225 235 0
225 234 0
226 234 0
226 234 0
227 233 0
227 232 0
228 232 0
229 231 0
229 230 0
230 230 0
230 229 0
231 229 0
231 228 0
231 228 0
217 243 0
217 243 0
217 243 0
217 243 0
217 243 0
217 243 0
217 243 0
217 243 0
217 243 0
216 243 0
216 244 0
216 244 0
216 244 0
216 244 0
215 244 0
215 244 0
215 244 0
215 244 0
216 243 0
216 243 0
217 242 0
217 242 0
218 241 0
219 240 0
219 239 0
220 238 0
221 237 0
221 237 0
222 236 0
222 236 0
223 236 0
223 236 0
223 236 0
223 236 0
223 236 0
223 236 0
224 236 0
224 236 0
224 236 0
224 236 0
225 235 0
225 235 0
225 234 0
226 234 0
226 233 0
227 233 0
227 232 0
228 232 0
228 231 0
228 231 0
217 243 0
217 243 0
217 243 0
217 243 0
217 243 0
217 243 0
217 243 0
217 243 0
216 243 0
216 244 0
216 244 0
216 244 0
215 244 0
215 244 0
215 244 0
215 244 0
215 244 0
215 244 0
215 244 0
216 243 0
216 243 0
217 242 0
218 241 0
218 240 0
219 239 0
220 238 0
220 238 0
221 237 0
222 237 0
222 236 0
222 236 0
222 236 0
222 236 0
222 237 0
222 237 0
222 237 0
222 238 0
222 238 0
222 238 0
222 238 0
222 238 0
223 237 0
223 237 0
223 237 0
224 236 0
224 236 0
225 235 0
225 235 0
225 234 0
225 234 0
217 243 0
217 243 0
217 243 0
217 243 0
217 243 0
217 243 0
217 243 0
216 243 0
216 243 0
216 244 0
216 244 0
215 244 0
215 244 0
215 244 0
215 244 0
215 245 0
215 244 0
215 244 0
215 244 0
215 243 0
216 243 0
217 242 0
217 241 0
218 240 0
219 240 0
219 239 0
220 238 0
221 238 0
221 237 0
221 237 0
221 237 0
222 237 0
221 237 0
221 238 0
221 238 0
221 239 0
221 239 0
220 240 0
220 240 0
220 240 0
220 240 0
220 240 0
221 240 0
221 239 0
221 239 0
222 238 0
222 238 0
222 238 0
222 237 0
222 237 0
217 243 0
217 243 0
217 243 0
217 243 0
217 243 0
217 243 0
217 243 0
217 243 0
216 243 0
216 244 0
216 244 0
215 244 0
215 244 0
215 244 0
215 245 0
215 245 0
215 245 0
215 244 0
215 244 0
215 244 0
216 243 0
216 242 0
217 242 0
218 241 0
218 240 0
219 239 0
220 239 0
220 238 0
220 238 0
221 238 0
221 238 0
221 238 0
220 239 0
220 239 0
220 240 0
219 240 0
219 241 0
219 241 0
219 242 0
218 242 0
218 242 0
218 242 0
218 242 0
219 242 0
219 242 0
219 241 0
219 241 0
220 240 0
220 240 0
220 240 0
218 242 0
218 242 0
218 242 0
218 242 0
217 243 0
217 243 0
217 243 0
217 243 0
217 243 0
216 243 0
216 244 0
215 244 0
215 244 0
215 244 0
215 245 0
214 245 0
214 245 0
215 245 0
215 244 0
215 244 0
215 243 0
216 243 0
217 242 0
217 241 0
218 241 0
218 240 0
219 239 0
219 239 0
220 239 0
220 239 0
220 239 0
220 239 0
219 240 0
219 240 0
219 241 0
218 242 0
218 243 0
217 243 0
217 244 0
217 244 0
216 244 0
216 245 0
216 244 0
216 244 0
217 244 0
217 244 0
217 243 0
217 243 0
217 243 0
217 243 0
218 242 0
218 242 0
218 242 0
218 242 0
218 242 0
218 242 0
217 242 0
217 242 0
217 243 0
216 243 0
216 243 0
216 244 0
215 244 0
215 244 0
215 244 0
215 245 0
214 245 0
214 245 0
215 244 0
215 244 0
215 244 0
216 243 0
216 242 0
217 242 0
217 241 0
218 240 0
218 240 0
219 240 0
219 240 0
219 240 0
219 240 0
219 240 0
218 241 0
218 242 0
217 243 0
217 243 0
216 244 0
216 245 0
215 246 0
215 246 0
215 246 0
214 247 0
214 247 0
215 246 0
215 246 0
215 246 0
215 246 0
215 245 0
215 245 0
215 245 0
219 241 0
219 241 0
219 241 0
218 241 0
218 241 0
218 242 0
218 242 0
218 242 0
217 242 0
217 243 0
216 243 0
216 243 0
216 244 0
215 244 0
215 244 0
215 244 0
215 245 0
215 244 0
215 244 0
215 244 0
215 244 0
216 243 0
216 243 0
217 242 0
217 242 0
217 241 0
218 241 0
218 241 0
218 241 0
218 241 0
218 241 0
218 242 0
217 242 0
217 243 0
216 244 0
216 245 0
215 246 0
214 247 0
214 247 0
213 248 0
213 248 0
213 248 0
213 248 0
213 248 0
213 248 0
213 248 0
213 247 0
213 247 0
213 247 0
213 247 0
219 240 0
219 240 0
219 241 0
219 241 0
219 241 0
219 241 0
218 241 0
218 241 0
218 242 0
217 242 0
217 242 0
216 243 0
216 243 0
216 244 0
215 244 0
215 244 0
215 244 0
215 244 0
215 244 0
215 244 0
215 244 0
216 243 0
216 243 0
216 242 0
217 242 0
217 242 0
217 241 0
217 241 0
217 241 0
217 242 0
217 242 0
217 243 0
216 243 0
216 244 0
215 245 0
214 246 0
214 247 0
213 248 0
213 249 0
212 249 0
212 250 0
212 250 0
211 250 0
211 250 0
211 250 0
212 249 0
212 249 0
212 249 0
212 249 0
212 249 0
220 240 0
220 240 0
220 240 0
220 240 0
219 240 0
219 240 0
219 240 0
219 241 0
218 241 0
218 241 0
217 242 0
217 242 0
216 243 0
216 243 0
216 243 0
215 244 0
215 244 0
215 244 0
215 244 0
215 244 0
215 244 0
216 243 0
216 243 0
216 243 0
216 242 0
217 242 0
217 242 0
217 242 0
217 242 0
217 242 0
216 243 0
216 244 0
215 244 0
215 245 0
214 246 0
213 247 0
213 248 0
212 249 0
212 250 0
211 250 0
211 251 0
210 251 0
210 251 0
210 251 0
210 251 0
210 251 0
210 250 0
211 250 0
211 250 0
211 250 0
220 239 0
220 239 0
220 239 0
220 239 0
220 239 0
220 240 0
219 240 0
219 240 0
219 240 0
218 241 0
218 241 0
217 242 0
217 242 0
217 243 0
216 243 0
216 243 0
216 243 0
216 244 0
215 244 0
215 243 0
216 243 0
216 243 0
216 243 0
216 243 0
216 242 0
216 242 0
217 242 0
217 242 0
216 243 0
216 243 0
216 244 0
215 244 0
215 245 0
214 246 0
213 247 0
213 248 0
212 249 0
211 250 0
211 251 0
210 251 0
210 252 0
210 252 0
209 252 0
209 252 0
209 252 0
209 252 0
210 251 0
210 251 0
210 251 0
210 251 0
221 239 0
221 239 0
221 239 0
221 239 0
220 239 0
220 239 0
220 239 0
220 240 0
219 240 0
219 240 0
219 241 0
218 241 0
218 241 0
217 242 0
217 242 0
217 243 0
216 243 0
216 243 0
216 243 0
216 243 0
216 243 0
216 243 0
216 243 0
216 243 0
216 242 0
216 242 0
216 243 0
216 243 0
216 243 0
216 244 0
215 244 0
215 245 0
214 246 0
214 247 0
213 248 0
212 249 0
211 250 0
211 250 0
210 251 0
210 252 0
209 252 0
209 252 0
209 252 0
209 252 0
209 252 0
209 252 0
209 252 0
209 252 0
209 251 0
209 251 0
221 238 0
221 238 0
221 238 0
221 238 0
221 238 0
221 239 0
220 239 0
220 239 0
220 239 0
220 240 0
219 240 0
219 240 0
218 241 0
218 241 0
218 241 0
217 242 0
217 242 0
217 242 0
217 242 0
217 242 0
216 242 0
216 242 0
216 242 0
217 242 0
217 242 0
216 242 0
216 243 0
216 243 0
216 243 0
216 244 0
215 245 0
214 245 0
214 246 0
213 247 0
212 248 0
212 249 0
211 250 0
210 251 0
210 251 0
209 252 0
209 252 0
209 253 0
209 253 0
209 253 0
209 252 0
209 252 0
209 252 0
209 252 0
209 252 0
209 252 0
221 238 0
221 238 0
221 238 0
221 238 0
221 238 0
221 238 0
221 238 0
221 238 0
220 239 0
220 239 0
220 239 0
220 240 0
219 240 0
219 240 0
218 241 0
218 241 0
218 241 0
218 241 0
217 242 0
217 242 0
217 242 0
217 242 0
217 242 0
217 242 0
217 242 0
217 242 0
216 243 0
216 243 0
216 243 0
215 244 0
215 245 0
214 246 0
214 246 0
213 247 0
212 248 0
212 249 0
211 250 0
210 251 0
210 251 0
209 252 0
209 252 0
209 252 0
209 253 0
209 253 0
209 252 0
209 252 0
209 252 0
209 252 0
209 252 0
209 252 0
221 238 0
221 238 0
221 238 0
221 238 0
221 238 0
221 238 0
221 238 0
221 238 0
221 238 0
221 238 0
221 238 0
220 239 0
220 239 0
220 239 0
219 240 0
219 240 0
219 240 0
218 240 0
218 241 0
218 241 0
218 241 0
218 241 0
218 241 0
217 241 0
217 242 0
217 242 0
217 242 0
216 243 0
216 243 0
215 244 0
215 245 0
214 246 0
214 246 0
213 247 0
212 248 0
212 249 0
211 250 0
210 251 0
210 251 0
209 252 0
209 252 0
209 252 0
209 252 0
209 252 0
209 252 0
209 252 0
209 252 0
209 251 0
209 251 0
209 251 0
221 238 0
221 238 0
222 238 0
222 238 0
222 238 0
222 238 0
222 238 0
222 238 0
222 238 0
221 238 0
221 238 0
221 238 0
221 238 0
221 238 0
220 239 0
220 239 0
220 239 0
219 239 0
219 240 0
219 240 0
219 240 0
218 240 0
218 241 0
218 241 0
218 241 0
217 241 0
217 242 0
217 242 0
216 243 0
216 244 0
215 244 0
215 245 0
214 246 0
213 247 0
213 248 0
212 249 0
211 249 0
211 250 0
210 251 0
210 251 0
210 251 0
209 252 0
209 252 0
209 252 0
209 251 0
209 251 0
209 251 0
209 251 0
210 251 0
210 251 0
221 238 0
221 238 0
221 238 0
222 238 0
222 238 0
222 237 0
222 237 0
222 237 0
222 237 0
222 237 0
222 237 0
222 237 0
222 237 0
221 237 0
221 238 0
221 238 0
221 238 0
220 238 0
220 239 0
220 239 0
220 239 0
219 239 0
219 240 0
219 240 0
218 240 0
218 241 0
218 241 0
217 242 0
217 243 0
216 243 0
215 244 0
215 245 0
214 246 0
214 247 0
213 247 0
212 248 0
212 249 0
211 249 0
211 250 0
210 250 0
210 251 0
210 251 0
210 251 0
210 251 0
210 251 0
210 251 0
210 250 0
210 250 0
210 250 0
210 250 0
221 238 0
221 238 0
221 238 0
222 238 0
222 238 0
222 237 0
222 237 0
222 237 0
222 237 0
222 237 0
222 236 0
222 236 0
222 236 0
222 237 0
222 237 0
222 237 0
222 237 0
221 237 0
221 238 0
221 238 0
220 238 0
220 238 0
220 239 0
219 239 0
219 240 0
219 240 0
218 241 0
218 241 0
217 242 0
216 243 0
216 244 0
215 244 0
215 245 0
214 246 0
213 247 0
213 247 0
212 248 0
212 249 0
211 249 0
211 250 0
211 250 0
211 250 0
210 250 0
210 250 0
210 250 0
211 250 0
211 250 0
211 249 0
211 249 0
211 249 0
221 239 0
221 239 0
221 238 0
221 238 0
222 238 0
222 237 0
222 237 0
222 237 0
223 236 0
223 236 0
223 236 0
223 236 0
223 236 0
223 236 0
223 236 0
223 236 0
223 236 0
222 236 0
222 236 0
222 237 0
221 237 0
221 237 0
221 238 0
220 238 0
220 239 0
219 239 0
219 240 0
218 241 0
218 241 0
217 242 0
216 243 0
216 244 0
215 244 0
214 245 0
214 246 0
213 247 0
213 247 0
212 248 0
212 248 0
212 249 0
211 249 0
211 249 0
211 249 0
211 249 0
211 249 0
211 249 0
211 249 0
211 249 0
211 249 0
211 249 0
221 239 0
221 239 0
221 239 0
221 238 0
222 238 0
222 238 0
222 237 0
223 237 0
223 236 0
223 236 0
224 235 0
224 235 0
224 235 0
224 235 0
224 235 0
224 235 0
223 235 0
223 235 0
223 235 0
223 236 0
222 236 0
222 236 0
221 237 0
221 237 0
220 238 0
220 239 0
219 239 0
219 240 0
218 241 0
217 241 0
217 242 0
216 243 0
216 244 0
215 245 0
214 245 0
214 246 0
213 246 0
213 247 0
213 247 0
212 248 0
212 248 0
212 248 0
212 248 0
212 248 0
212 248 0
212 248 0
212 248 0
212 248 0
212 248 0
212 248 0
220 240 0
221 239 0
221 239 0
221 239 0
221 238 0
222 238 0
222 237 0
223 236 0
223 236 0
224 235 0
224 235 0
224 235 0
224 234 0
224 234 0
224 234 0
224 234 0
224 234 0
224 234 0
224 234 0
223 235 0
223 235 0
222 236 0
222 236 0
222 237 0
221 237 0
220 238 0
220 239 0
219 239 0
219 240 0
218 241 0
217 242 0
217 242 0
216 243 0
215 244 0
215 244 0
214 245 0
214 246 0
213 246 0
213 247 0
213 247 0
213 247 0
213 247 0
212 247 0
212 247 0
213 247 0
213 247 0
213 247 0
213 247 0
213 247 0
213 247 0
220 240 0
220 240 0
221 239 0
221 239 0
221 238 0
222 238 0
222 237 0
223 236 0
223 236 0
224 235 0
224 235 0
225 234 0
225 234 0
225 234 0
225 233 0
225 233 0
225 233 0
225 233 0
224 234 0
224 234 0
224 234 0
223 235 0
223 235 0
222 236 0
222 236 0
221 237 0
220 238 0
220 239 0
219 239 0
218 240 0
218 241 0
217 242 0
216 242 0
216 243 0
215 244 0
215 244 0
214 245 0
214 245 0
214 246 0
213 246 0
213 246 0
213 246 0
213 247 0
213 247 0
213 247 0
213 247 0
213 246 0
213 246 0
213 246 0
213 246 0
220 240 0
220 240 0
220 240 0
221 239 0
221 239 0
222 238 0
222 237 0
223 236 0
224 236 0
224 235 0
225 234 0
225 234 0
225 233 0
225 233 0
225 233 0
225 233 0
225 233 0
225 233 0
225 233 0
224 233 0
224 234 0
224 234 0
223 235 0
223 235 0
222 236 0
221 237 0
221 237 0
220 238 0
219 239 0
219 240 0
218 240 0
217 241 0
217 242 0
216 243 0
216 243 0
215 244 0
215 244 0
214 245 0
214 245 0
214 245 0
214 246 0
214 246 0
214 246 0
214 246 0
214 246 0
214 246 0
214 246 0
214 246 0
214 246 0
214 246 0
220 240 0
220 240 0
220 240 0
221 239 0
221 239 0
222 238 0
222 237 0
223 236 0
224 236 0
224 235 0
225 234 0
225 234 0
225 233 0
226 233 0
226 232 0
226 232 0
226 232 0
225 232 0
225 233 0
225 233 0
224 233 0
224 234 0
223 234 0
223 235 0
222 236 0
222 236 0
221 237 0
220 238 0
220 239 0
219 239 0
218 240 0
218 241 0
217 242 0
217 242 0
216 243 0
216 243 0
215 244 0
215 244 0
214 245 0
214 245 0
214 245 0
214 245 0
214 246 0
214 246 0
214 246 0
214 246 0
214 245 0
214 245 0
214 245 0
214 245 0
220 241 0
220 240 0
220 240 0
221 239 0
221 239 0
222 238 0
222 237 0
223 236 0
224 235 0
224 235 0
225 234 0
225 233 0
226 233 0
226 233 0
226 232 0
226 232 0
226 232 0
226 232 0
225 232 0
225 233 0
225 233 0
224 234 0
224 234 0
223 235 0
222 235 0
222 236 0
221 237 0
220 238 0
220 238 0
219 239 0
218 240 0
218 241 0
217 241 0
217 242 0
216 243 0
216 243 0
215 244 0
215 244 0
215 245 0
214 245 0
214 245 0
214 245 0
214 245 0
214 245 0
214 245 0
214 245 0
214 245 0
214 245 0
214 245 0
214 245 0
