P3
50 50
255
230 211 0
230 211 0
230 211 0
230 211 0
229 211 0
229 210 0
229 210 0
229 210 0
228 209 0
228 209 0
228 208 0
227 207 0
226 207 0
226 206 0
225 205 0
224 203 0
223 202 0
222 201 0
221 200 0
220 198 0
219 197 0
218 196 0
217 195 0
216 194 0
216 193 0
215 193 0
215 193 0
215 193 0
215 194 0
216 195 0
217 196 0
218 198 0
220 199 0
221 202 0
223 204 0
225 207 0
228 210 0
230 214 0
232 217 0
235 220 0
237 224 0
239 227 0
241 231 0
243 234 0
245 236 0
246 239 0
247 241 0
248 242 0
249 243 0
249 244 0
230 211 0
230 211 0
230 211 0
230 211 0
229 211 0
229 211 0
229 210 0
229 210 0
229 209 0
228 209 0
228 208 0
227 208 0
227 207 0
226 206 0
225 205 0
224 203 0
223 202 0
222 201 0
221 200 0
220 198 0
219 197 0
218 196 0
217 195 0
216 194 0
216 194 0
215 193 0
215 193 0
215 193 0
216 194 0
216 195 0
217 196 0
218 198 0
220 200 0
221 202 0
223 204 0
225 207 0
228 210 0
230 214 0
232 217 0
235 221 0
237 224 0
239 227 0
241 231 0
243 234 0
245 237 0
246 239 0
247 241 0
248 243 0
249 244 0
249 244 0
230 211 0
230 211 0
230 211 0
230 211 0
230 211 0
229 211 0
229 211 0
229 210 0
229 210 0
228 209 0
228 208 0
227 208 0
227 207 0
226 206 0
225 205 0
224 204 0
223 202 0
222 201 0
221 200 0
220 199 0
219 197 0
218 196 0
217 195 0
217 194 0
216 194 0
215 193 0
215 193 0
215 194 0
216 194 0
216 195 0
217 196 0
218 198 0
220 200 0
222 202 0
224 205 0
226 208 0
228 211 0
230 214 0
233 217 0
235 221 0
237 224 0
239 228 0
241 231 0
243 234 0
245 237 0
246 240 0
248 242 0
248 243 0
249 244 0
249 245 0
230 212 0
230 212 0
230 212 0
230 211 0
230 211 0
230 211 0
229 211 0
229 210 0
229 210 0
228 209 0
228 209 0
227 208 0
227 207 0
226 206 0
225 205 0
224 204 0
224 203 0
223 201 0
221 200 0
220 199 0
219 198 0
218 196 0
218 195 0
217 195 0
216 194 0
216 194 0
216 194 0
216 194 0
216 194 0
217 195 0
218 197 0
219 198 0
220 200 0
222 203 0
224 205 0
226 208 0
228 211 0
231 214 0
233 218 0
235 221 0
238 225 0
240 228 0
242 232 0
244 235 0
245 238 0
247 240 0
248 242 0
249 244 0
249 245 0
250 246 0
231 212 0
230 212 0
230 212 0
230 212 0
230 212 0
230 211 0
230 211 0
229 211 0
229 210 0
229 210 0
228 209 0
228 208 0
227 207 0
226 206 0
226 205 0
225 204 0
224 203 0
223 202 0
222 200 0
221 199 0
220 198 0
219 197 0
218 196 0
217 195 0
216 194 0
216 194 0
216 194 0
216 194 0
216 195 0
217 196 0
218 197 0
219 199 0
221 201 0
222 203 0
224 206 0
226 209 0
229 212 0
231 215 0
233 219 0
236 222 0
238 226 0
240 229 0
242 233 0
244 236 0
246 239 0
247 241 0
248 243 0
249 245 0
250 246 0
250 247 0
231 213 0
231 212 0
231 212 0
231 212 0
230 212 0
230 212 0
230 211 0
230 211 0
229 211 0
229 210 0
229 209 0
228 209 0
227 208 0
227 207 0
226 206 0
225 204 0
224 203 0
223 202 0
222 201 0
221 200 0
220 198 0
219 197 0
218 196 0
217 196 0
217 195 0
217 195 0
216 195 0
216 195 0
217 195 0
217 196 0
218 198 0
220 199 0
221 201 0
223 204 0
225 206 0
227 209 0
229 212 0
231 216 0
234 219 0
236 223 0
238 226 0
241 230 0
243 233 0
245 237 0
246 240 0
248 242 0
249 244 0
250 246 0
250 247 0
251 248 0
231 213 0
231 213 0
231 213 0
231 213 0
231 212 0
231 212 0
230 212 0
230 211 0
230 211 0
229 210 0
229 210 0
228 209 0
228 208 0
227 207 0
226 206 0
225 205 0
224 204 0
223 202 0
222 201 0
221 200 0
220 199 0
219 198 0
219 197 0
218 196 0
217 196 0
217 195 0
217 195 0
217 195 0
217 196 0
218 197 0
219 198 0
220 200 0
222 202 0
223 204 0
225 207 0
227 210 0
230 213 0
232 216 0
234 220 0
237 224 0
239 227 0
241 231 0
243 234 0
245 238 0
247 241 0
248 243 0
250 246 0
251 247 0
251 248 0
251 249 0
231 213 0
231 213 0
231 213 0
231 213 0
231 213 0
231 213 0
231 212 0
230 212 0
230 211 0
230 211 0
229 210 0
229 209 0
228 208 0
227 207 0
226 206 0
226 205 0
225 204 0
224 203 0
223 202 0
222 200 0
221 199 0
220 198 0
219 197 0
218 197 0
218 196 0
218 196 0
217 196 0
218 196 0
218 197 0
219 198 0
219 199 0
221 201 0
222 203 0
224 205 0
226 208 0
228 211 0
230 214 0
232 217 0
235 221 0
237 225 0
240 228 0
242 232 0
244 235 0
246 239 0
248 242 0
249 245 0
250 247 0
251 248 0
252 250 0
252 250 0
232 214 0
232 214 0
232 213 0
232 213 0
231 213 0
231 213 0
231 213 0
231 212 0
230 212 0
230 211 0
229 210 0
229 210 0
228 209 0
227 208 0
227 207 0
226 206 0
225 204 0
224 203 0
223 202 0
222 201 0
221 200 0
220 199 0
220 198 0
219 197 0
218 197 0
218 197 0
218 197 0
218 197 0
219 198 0
219 199 0
220 200 0
221 202 0
223 204 0
224 206 0
226 209 0
228 212 0
231 215 0
233 218 0
235 222 0
238 225 0
240 229 0
242 233 0
245 236 0
246 240 0
248 243 0
250 246 0
251 248 0
252 250 0
252 251 0
253 252 0
232 214 0
232 214 0
232 214 0
232 214 0
232 213 0
231 213 0
231 213 0
231 212 0
230 212 0
230 211 0
230 211 0
229 210 0
228 209 0
228 208 0
227 207 0
226 206 0
225 205 0
224 204 0
223 202 0
223 201 0
222 200 0
221 199 0
220 199 0
220 198 0
219 198 0
219 197 0
219 197 0
219 198 0
219 198 0
220 199 0
221 201 0
222 202 0
223 204 0
225 207 0
227 209 0
229 212 0
231 216 0
234 219 0
236 223 0
238 226 0
241 230 0
243 234 0
245 237 0
247 241 0
249 244 0
250 247 0
252 249 0
252 251 0
253 252 0
253 253 0
232 214 0
232 214 0
232 214 0
232 214 0
232 213 0
231 213 0
231 213 0
231 212 0
231 212 0
230 211 0
230 211 0
229 210 0
229 209 0
228 208 0
227 207 0
226 206 0
226 205 0
225 204 0
224 203 0
223 202 0
222 201 0
221 200 0
221 199 0
220 199 0
220 198 0
219 198 0
219 198 0
220 199 0
220 199 0
221 200 0
222 202 0
223 203 0
224 205 0
226 208 0
228 210 0
230 213 0
232 216 0
234 220 0
237 223 0
239 227 0
241 231 0
244 235 0
246 238 0
248 242 0
249 245 0
251 248 0
252 250 0
253 252 0
254 253 0
254 254 0
232 214 0
232 214 0
232 214 0
232 214 0
232 213 0
231 213 0
231 213 0
231 212 0
231 212 0
230 211 0
230 211 0
229 210 0
229 209 0
228 208 0
227 207 0
227 206 0
226 205 0
225 204 0
224 203 0
223 202 0
223 201 0
222 201 0
221 200 0
221 199 0
220 199 0
220 199 0
220 199 0
220 200 0
221 200 0
221 201 0
222 203 0
223 204 0
225 206 0
227 209 0
228 211 0
230 214 0
233 217 0
235 221 0
237 224 0
239 228 0
242 232 0
244 235 0
246 239 0
248 242 0
250 245 0
251 248 0
252 251 0
253 252 0
254 254 0
254 254 0
232 214 0
232 214 0
232 214 0
232 213 0
231 213 0
231 213 0
231 213 0
231 212 0
230 212 0
230 211 0
230 211 0
229 210 0
229 209 0
228 208 0
227 207 0
227 206 0
226 205 0
225 205 0
224 204 0
224 203 0
223 202 0
222 201 0
222 201 0
221 200 0
221 200 0
221 200 0
221 200 0
221 201 0
222 201 0
222 202 0
223 204 0
224 205 0
226 207 0
227 210 0
229 212 0
231 215 0
233 218 0
235 221 0
238 225 0
240 229 0
242 232 0
244 236 0
246 239 0
248 243 0
250 246 0
251 249 0
253 251 0
254 253 0
254 254 0
254 255 0
232 213 0
232 213 0
231 213 0
231 213 0
231 213 0
231 213 0
231 212 0
231 212 0
230 211 0
230 211 0
229 210 0
229 210 0
228 209 0
228 208 0
227 207 0
227 206 0
226 206 0
225 205 0
225 204 0
224 203 0
223 202 0
223 202 0
222 201 0
222 201 0
222 201 0
222 201 0
222 201 0
222 201 0
222 202 0
223 203 0
224 205 0
225 206 0
226 208 0
228 210 0
230 213 0
232 216 0
234 219 0
236 222 0
238 225 0
240 229 0
242 232 0
245 236 0
247 240 0
248 243 0
250 246 0
251 249 0
253 251 0
254 253 0
254 254 0
255 254 0
231 213 0
231 213 0
231 213 0
231 213 0
231 212 0
231 212 0
230 212 0
230 211 0
230 211 0
229 211 0
229 210 0
229 209 0
228 209 0
228 208 0
227 207 0
227 206 0
226 206 0
225 205 0
225 204 0
224 203 0
224 203 0
223 202 0
223 202 0
222 201 0
222 201 0
222 202 0
222 202 0
223 202 0
223 203 0
224 204 0
225 206 0
226 207 0
227 209 0
229 211 0
230 214 0
232 216 0
234 219 0
236 222 0
238 226 0
240 229 0
243 233 0
245 236 0
247 239 0
248 243 0
250 246 0
251 248 0
253 250 0
253 252 0
254 253 0
254 254 0
231 212 0
231 212 0
231 212 0
230 212 0
230 212 0
230 212 0
230 211 0
230 211 0
229 210 0
229 210 0
229 209 0
228 209 0
228 208 0
227 208 0
227 207 0
226 206 0
226 205 0
225 205 0
225 204 0
224 203 0
224 203 0
223 203 0
223 202 0
223 202 0
223 202 0
223 202 0
223 203 0
223 203 0
224 204 0
225 205 0
225 206 0
227 208 0
228 210 0
229 212 0
231 214 0
233 217 0
234 220 0
236 223 0
238 226 0
240 229 0
243 232 0
244 236 0
246 239 0
248 242 0
250 245 0
251 247 0
252 249 0
253 251 0
254 252 0
254 253 0
230 212 0
230 212 0
230 211 0
230 211 0
230 211 0
230 211 0
229 211 0
229 210 0
229 210 0
229 209 0
228 209 0
228 208 0
227 208 0
227 207 0
227 207 0
226 206 0
226 205 0
225 205 0
225 204 0
224 204 0
224 203 0
224 203 0
224 203 0
223 203 0
223 203 0
223 203 0
224 203 0
224 204 0
225 205 0
225 206 0
226 207 0
227 209 0
228 210 0
230 212 0
231 215 0
233 217 0
235 220 0
237 223 0
238 226 0
240 229 0
242 232 0
244 235 0
246 238 0
248 241 0
249 244 0
250 246 0
251 248 0
252 249 0
253 251 0
253 251 0
229 211 0
229 211 0
229 211 0
229 210 0
229 210 0
229 210 0
229 210 0
229 209 0
228 209 0
228 209 0
228 208 0
227 208 0
227 207 0
227 207 0
226 206 0
226 206 0
225 205 0
225 205 0
225 204 0
224 204 0
224 203 0
224 203 0
224 203 0
224 203 0
224 203 0
224 204 0
224 204 0
225 205 0
225 206 0
226 207 0
227 208 0
228 209 0
229 211 0
230 213 0
232 215 0
233 217 0
235 220 0
237 222 0
238 225 0
240 228 0
242 231 0
244 234 0
245 237 0
247 240 0
248 242 0
250 244 0
251 246 0
251 248 0
252 249 0
252 249 0
229 210 0
229 210 0
228 210 0
228 210 0
228 209 0
228 209 0
228 209 0
228 209 0
228 208 0
227 208 0
227 207 0
227 207 0
227 207 0
226 206 0
226 206 0
226 205 0
225 205 0
225 204 0
225 204 0
224 204 0
224 203 0
224 203 0
224 203 0
224 204 0
224 204 0
225 204 0
225 205 0
225 205 0
226 206 0
227 207 0
227 208 0
228 210 0
229 211 0
231 213 0
232 215 0
233 217 0
235 220 0
236 222 0
238 225 0
240 227 0
241 230 0
243 233 0
245 235 0
246 238 0
247 240 0
248 242 0
249 244 0
250 245 0
251 246 0
251 247 0
228 209 0
228 209 0
228 209 0
228 209 0
228 208 0
227 208 0
227 208 0
227 208 0
227 207 0
227 207 0
227 207 0
226 206 0
226 206 0
226 205 0
225 205 0
225 205 0
225 204 0
225 204 0
225 204 0
224 204 0
224 203 0
224 203 0
224 204 0
225 204 0
225 204 0
225 205 0
225 205 0
226 206 0
226 207 0
227 208 0
228 209 0
229 210 0
230 212 0
231 213 0
232 215 0
233 217 0
235 219 0
236 221 0
238 224 0
239 226 0
241 229 0
242 231 0
243 233 0
245 236 0
246 238 0
247 240 0
248 241 0
249 242 0
249 243 0
249 244 0
227 208 0
227 208 0
227 208 0
227 208 0
227 207 0
227 207 0
227 207 0
226 207 0
226 207 0
226 206 0
226 206 0
226 206 0
225 205 0
225 205 0
225 204 0
225 204 0
225 204 0
225 204 0
224 204 0
224 203 0
224 203 0
224 204 0
225 204 0
225 204 0
225 204 0
225 205 0
226 206 0
226 206 0
227 207 0
228 208 0
228 209 0
229 210 0
230 212 0
231 213 0
232 215 0
233 217 0
234 218 0
236 220 0
237 223 0
238 225 0
240 227 0
241 229 0
242 231 0
243 233 0
244 235 0
245 237 0
246 238 0
247 239 0
247 240 0
247 240 0
226 207 0
226 207 0
226 207 0
226 207 0
226 207 0
226 206 0
226 206 0
226 206 0
226 206 0
225 205 0
225 205 0
225 205 0
225 204 0
225 204 0
225 204 0
224 204 0
224 203 0
224 203 0
224 203 0
224 203 0
224 203 0
225 204 0
225 204 0
225 204 0
225 205 0
226 205 0
226 206 0
227 207 0
227 207 0
228 208 0
229 209 0
229 210 0
230 212 0
231 213 0
232 214 0
233 216 0
234 218 0
235 219 0
236 221 0
237 223 0
238 225 0
240 227 0
241 229 0
242 230 0
243 232 0
244 234 0
244 235 0
245 236 0
245 236 0
245 237 0
226 206 0
226 206 0
226 206 0
225 206 0
225 206 0
225 206 0
225 205 0
225 205 0
225 205 0
225 205 0
225 204 0
225 204 0
224 204 0
224 204 0
224 203 0
224 203 0
224 203 0
224 203 0
224 203 0
224 203 0
224 203 0
225 203 0
225 204 0
225 204 0
226 205 0
226 205 0
226 206 0
227 207 0
227 208 0
228 208 0
229 209 0
229 210 0
230 211 0
231 213 0
231 214 0
232 215 0
233 216 0
234 218 0
235 220 0
236 221 0
237 223 0
238 224 0
239 226 0
240 228 0
241 229 0
242 230 0
242 231 0
243 232 0
243 233 0
243 233 0
225 205 0
225 205 0
225 205 0
225 205 0
225 205 0
225 205 0
225 205 0
225 204 0
224 204 0
224 204 0
224 204 0
224 203 0
224 203 0
224 203 0
224 203 0
224 203 0
224 203 0
224 203 0
224 203 0
224 203 0
224 203 0
224 203 0
225 204 0
225 204 0
226 205 0
226 205 0
227 206 0
227 207 0
228 207 0
228 208 0
229 209 0
229 210 0
230 211 0
230 212 0
231 213 0
232 214 0
232 215 0
233 216 0
234 218 0
235 219 0
236 221 0
236 222 0
237 223 0
238 225 0
239 226 0
239 227 0
240 228 0
240 228 0
241 229 0
241 229 0
224 205 0
224 205 0
224 204 0
224 204 0
224 204 0
224 204 0
224 204 0
224 204 0
224 203 0
224 203 0
224 203 0
224 203 0
223 203 0
223 202 0
223 202 0
223 202 0
223 202 0
223 202 0
224 202 0
224 202 0
224 203 0
224 203 0
225 204 0
225 204 0
226 205 0
226 205 0
227 206 0
227 207 0
227 207 0
228 208 0
228 209 0
229 209 0
229 210 0
230 211 0
230 212 0
231 213 0
231 214 0
232 215 0
233 216 0
233 217 0
234 218 0
235 219 0
235 220 0
236 221 0
237 222 0
237 223 0
238 224 0
238 225 0
238 225 0
238 225 0
224 204 0
224 204 0
224 204 0
224 204 0
224 204 0
224 204 0
224 203 0
224 203 0
224 203 0
223 203 0
223 202 0
223 202 0
223 202 0
223 202 0
223 202 0
223 202 0
223 202 0
223 202 0
223 202 0
224 202 0
224 202 0
224 203 0
225 203 0
225 204 0
226 204 0
226 205 0
226 206 0
227 206 0
227 207 0
228 208 0
228 208 0
228 209 0
229 209 0
229 210 0
230 211 0
230 212 0
230 212 0
231 213 0
231 214 0
232 215 0
232 216 0
233 217 0
233 217 0
234 218 0
234 219 0
235 220 0
235 220 0
236 221 0
236 221 0
236 222 0
224 204 0
224 204 0
224 204 0
224 203 0
224 203 0
224 203 0
223 203 0
223 203 0
223 203 0
223 202 0
223 202 0
223 202 0
223 202 0
223 201 0
223 201 0
223 201 0
223 201 0
223 201 0
223 202 0
223 202 0
224 202 0
224 203 0
224 203 0
225 204 0
225 204 0
226 205 0
226 205 0
227 206 0
227 207 0
227 207 0
228 208 0
228 208 0
228 209 0
228 209 0
229 210 0
229 210 0
229 211 0
229 211 0
230 212 0
230 212 0
230 213 0
231 214 0
231 215 0
232 215 0
232 216 0
233 216 0
233 217 0
233 217 0
233 218 0
233 218 0
224 203 0
224 203 0
224 203 0
224 203 0
224 203 0
223 203 0
223 203 0
223 202 0
223 202 0
223 202 0
223 202 0
223 202 0
223 201 0
223 201 0
222 201 0
223 201 0
223 201 0
223 201 0
223 201 0
223 202 0
223 202 0
224 202 0
224 203 0
225 203 0
225 204 0
226 204 0
226 205 0
226 205 0
227 206 0
227 206 0
227 207 0
227 207 0
227 208 0
228 208 0
228 208 0
228 209 0
228 209 0
228 209 0
228 210 0
228 210 0
229 211 0
229 211 0
229 212 0
230 212 0
230 213 0
230 213 0
231 214 0
231 214 0
231 214 0
231 214 0
224 203 0
224 203 0
224 203 0
224 203 0
223 203 0
223 203 0
223 203 0
223 202 0
223 202 0
223 202 0
223 202 0
223 201 0
222 201 0
222 201 0
222 201 0
222 201 0
222 201 0
223 201 0
223 201 0
223 201 0
223 202 0
224 202 0
224 203 0
224 203 0
225 203 0
225 204 0
226 204 0
226 205 0
226 205 0
226 206 0
227 206 0
227 206 0
227 207 0
227 207 0
227 207 0
227 207 0
227 207 0
227 207 0
227 208 0
227 208 0
227 208 0
227 209 0
227 209 0
227 209 0
228 210 0
228 210 0
228 210 0
228 211 0
229 211 0
229 211 0
224 203 0
224 203 0
224 203 0
224 203 0
224 203 0
223 203 0
223 203 0
223 202 0
223 202 0
223 202 0
223 202 0
223 201 0
222 201 0
222 201 0
222 201 0
222 201 0
222 201 0
222 201 0
223 201 0
223 201 0
223 201 0
224 202 0
224 202 0
224 203 0
225 203 0
225 204 0
225 204 0
226 204 0
226 205 0
226 205 0
226 205 0
226 205 0
226 205 0
226 205 0
226 205 0
225 205 0
225 206 0
225 206 0
225 206 0
225 206 0
225 206 0
225 206 0
225 206 0
225 207 0
226 207 0
226 207 0
226 207 0
226 208 0
226 208 0
226 208 0
224 204 0
224 203 0
224 203 0
224 203 0
224 203 0
224 203 0
223 203 0
223 202 0
223 202 0
223 202 0
223 202 0
223 201 0
223 201 0
222 201 0
222 201 0
222 201 0
222 201 0
222 201 0
223 201 0
223 201 0
223 201 0
223 202 0
224 202 0
224 202 0
224 203 0
225 203 0
225 203 0
225 204 0
225 204 0
225 204 0
225 204 0
225 204 0
225 204 0
225 204 0
224 204 0
224 204 0
224 204 0
224 204 0
224 204 0
223 204 0
223 204 0
223 204 0
224 204 0
224 204 0
224 204 0
224 204 0
224 205 0
224 205 0
224 205 0
224 205 0
224 204 0
224 204 0
224 204 0
224 204 0
224 203 0
224 203 0
224 203 0
224 203 0
223 202 0
223 202 0
223 202 0
223 202 0
223 201 0
223 201 0
222 201 0
222 201 0
222 201 0
222 201 0
223 201 0
223 201 0
223 201 0
223 201 0
224 202 0
224 202 0
224 202 0
224 203 0
224 203 0
225 203 0
225 203 0
225 203 0
224 203 0
224 203 0
224 203 0
224 203 0
223 203 0
223 203 0
223 202 0
222 202 0
222 202 0
222 202 0
222 202 0
222 202 0
222 202 0
222 202 0
222 202 0
222 202 0
222 202 0
222 202 0
222 202 0
222 202 0
225 204 0
224 204 0
224 204 0
224 204 0
224 204 0
224 203 0
224 203 0
224 203 0
224 203 0
223 202 0
223 202 0
223 202 0
223 202 0
223 201 0
223 201 0
223 201 0
223 201 0
223 201 0
223 201 0
223 201 0
223 201 0
223 201 0
223 202 0
224 202 0
224 202 0
224 202 0
224 203 0
224 203 0
224 203 0
224 203 0
224 203 0
223 202 0
223 202 0
223 202 0
222 202 0
222 201 0
222 201 0
221 201 0
221 200 0
221 200 0
221 200 0
220 200 0
220 200 0
220 200 0
220 200 0
220 200 0
221 200 0
221 200 0
221 200 0
221 200 0
225 205 0
225 204 0
225 204 0
225 204 0
225 204 0
225 204 0
224 204 0
224 203 0
224 203 0
224 203 0
224 202 0
223 202 0
223 202 0
223 202 0
223 201 0
223 201 0
223 201 0
223 201 0
223 201 0
223 201 0
223 201 0
223 201 0
223 202 0
223 202 0
224 202 0
224 202 0
224 202 0
224 202 0
224 202 0
223 202 0
223 202 0
223 202 0
222 201 0
222 201 0
222 201 0
221 200 0
221 200 0
220 199 0
220 199 0
220 199 0
219 199 0
219 198 0
219 198 0
219 198 0
219 198 0
219 198 0
219 198 0
219 198 0
219 198 0
219 198 0
225 205 0
225 205 0
225 205 0
225 205 0
225 205 0
225 204 0
225 204 0
225 204 0
224 204 0
224 203 0
224 203 0
224 203 0
224 202 0
223 202 0
223 202 0
223 202 0
223 202 0
223 201 0
223 201 0
223 201 0
223 201 0
223 201 0
223 202 0
223 202 0
223 202 0
224 202 0
223 202 0
223 202 0
223 202 0
223 201 0
223 201 0
222 201 0
222 200 0
221 200 0
221 200 0
220 199 0
220 199 0
219 198 0
219 198 0
219 198 0
218 197 0
218 197 0
218 197 0
218 197 0
218 197 0
218 197 0
218 197 0
218 197 0
218 197 0
218 197 0
226 205 0
226 205 0
226 205 0
226 205 0
225 205 0
225 205 0
225 205 0
225 204 0
225 204 0
225 204 0
224 204 0
224 203 0
224 203 0
224 203 0
224 202 0
224 202 0
223 202 0
223 202 0
223 202 0
223 202 0
223 202 0
223 202 0
223 202 0
223 202 0
223 202 0
223 202 0
223 202 0
223 201 0
223 201 0
223 201 0
222 201 0
222 200 0
221 200 0
221 199 0
220 199 0
220 198 0
219 198 0
219 197 0
218 197 0
218 197 0
218 196 0
217 196 0
217 196 0
217 196 0
217 196 0
217 196 0
217 196 0
217 195 0
217 195 0
217 196 0
226 206 0
226 206 0
226 206 0
226 206 0
226 206 0
226 205 0
226 205 0
226 205 0
225 205 0
225 204 0
225 204 0
225 204 0
225 204 0
224 203 0
224 203 0
224 203 0
224 203 0
224 202 0
224 202 0
224 202 0
224 202 0
224 202 0
224 202 0
224 202 0
223 202 0
223 202 0
223 202 0
223 201 0
223 201 0
222 201 0
222 200 0
221 200 0
221 199 0
220 199 0
220 198 0
219 198 0
219 197 0
218 197 0
218 196 0
217 196 0
217 195 0
217 195 0
217 195 0
216 195 0
216 195 0
216 195 0
216 195 0
216 195 0
216 195 0
216 195 0
226 206 0
226 206 0
226 206 0
226 206 0
226 206 0
226 206 0
226 206 0
226 206 0
226 205 0
226 205 0
226 205 0
225 205 0
225 204 0
225 204 0
225 204 0
225 204 0
224 203 0
224 203 0
224 203 0
224 203 0
224 203 0
224 202 0
224 202 0
224 202 0
224 202 0
223 202 0
223 202 0
223 201 0
223 201 0
222 200 0
222 200 0
221 200 0
221 199 0
220 198 0
219 198 0
219 197 0
218 197 0
218 196 0
217 196 0
217 195 0
217 195 0
216 195 0
216 194 0
216 194 0
216 194 0
216 194 0
216 194 0
216 194 0
216 194 0
216 194 0
227 207 0
227 207 0
227 207 0
227 207 0
227 206 0
227 206 0
226 206 0
226 206 0
226 206 0
226 206 0
226 206 0
226 205 0
226 205 0
226 205 0
225 205 0
225 204 0
225 204 0
225 204 0
225 204 0
225 203 0
225 203 0
224 203 0
224 203 0
224 203 0
224 202 0
224 202 0
223 202 0
223 201 0
223 201 0
222 200 0
222 200 0
221 199 0
220 199 0
220 198 0
219 198 0
219 197 0
218 196 0
218 196 0
217 195 0
217 195 0
216 195 0
216 194 0
216 194 0
216 194 0
216 194 0
216 194 0
216 194 0
216 194 0
216 194 0
216 194 0
227 207 0
227 207 0
227 207 0
227 207 0
227 207 0
227 207 0
227 207 0
227 207 0
227 207 0
227 206 0
227 206 0
227 206 0
226 206 0
226 206 0
226 205 0
226 205 0
226 205 0
226 205 0
225 204 0
225 204 0
225 204 0
225 204 0
225 203 0
224 203 0
224 203 0
224 202 0
224 202 0
223 202 0
223 201 0
222 200 0
222 200 0
221 199 0
220 199 0
220 198 0
219 197 0
219 197 0
218 196 0
217 196 0
217 195 0
217 195 0
216 194 0
216 194 0
216 194 0
216 194 0
216 194 0
216 193 0
216 193 0
216 193 0
216 193 0
216 193 0
227 207 0
227 207 0
227 207 0
227 207 0
227 207 0
227 207 0
227 207 0
227 207 0
227 207 0
227 207 0
227 207 0
227 207 0
227 207 0
227 206 0
227 206 0
227 206 0
226 206 0
226 205 0
226 205 0
226 205 0
226 205 0
225 204 0
225 204 0
225 204 0
225 203 0
224 203 0
224 202 0
223 202 0
223 201 0
222 201 0
222 200 0
221 199 0
220 199 0
220 198 0
219 197 0
219 197 0
218 196 0
218 196 0
217 195 0
217 195 0
216 194 0
216 194 0
216 194 0
216 194 0
216 194 0
216 194 0
216 193 0
216 193 0
216 193 0
216 193 0
227 207 0
227 207 0
227 207 0
227 208 0
227 208 0
227 208 0
228 208 0
228 208 0
228 208 0
228 208 0
228 208 0
228 208 0
228 207 0
228 207 0
227 207 0
227 207 0
227 207 0
227 206 0
227 206 0
227 206 0
226 205 0
226 205 0
226 205 0
225 204 0
225 204 0
225 203 0
224 203 0
224 202 0
223 202 0
223 201 0
222 200 0
221 200 0
221 199 0
220 198 0
219 198 0
219 197 0
218 196 0
218 196 0
217 195 0
217 195 0
217 195 0
216 194 0
216 194 0
216 194 0
216 194 0
216 194 0
216 194 0
216 194 0
216 194 0
216 194 0
227 208 0
227 208 0
227 208 0
227 208 0
228 208 0
228 208 0
228 208 0
228 208 0
228 208 0
228 208 0
228 208 0
228 208 0
228 208 0
228 208 0
228 208 0
228 208 0
228 207 0
228 207 0
227 207 0
227 207 0
227 206 0
227 206 0
226 205 0
226 205 0
226 204 0
225 204 0
225 203 0
224 203 0
223 202 0
223 201 0
222 201 0
222 200 0
221 199 0
220 199 0
220 198 0
219 197 0
219 197 0
218 196 0
218 196 0
217 195 0
217 195 0
217 195 0
217 194 0
217 194 0
216 194 0
216 194 0
216 194 0
216 194 0
216 194 0
216 194 0
227 208 0
227 208 0
227 208 0
227 208 0
228 208 0
228 208 0
228 208 0
228 209 0
228 209 0
229 209 0
229 209 0
229 209 0
229 209 0
229 209 0
229 209 0
229 209 0
229 208 0
228 208 0
228 208 0
228 207 0
228 207 0
227 206 0
227 206 0
226 205 0
226 205 0
226 204 0
225 204 0
224 203 0
224 202 0
223 202 0
223 201 0
222 200 0
221 200 0
221 199 0
220 198 0
220 198 0
219 197 0
219 196 0
218 196 0
218 196 0
217 195 0
217 195 0
217 195 0
217 195 0
217 194 0
217 194 0
217 194 0
217 194 0
217 194 0
217 194 0
227 208 0
227 208 0
227 208 0
227 208 0
228 208 0
228 208 0
228 209 0
228 209 0
229 209 0
229 209 0
229 209 0
229 210 0
229 210 0
229 210 0
229 209 0
229 209 0
229 209 0
229 209 0
229 208 0
229 208 0
228 208 0
228 207 0
227 207 0
227 206 0
227 205 0
226 205 0
225 204 0
225 203 0
224 203 0
224 202 0
223 201 0
222 201 0
222 200 0
221 199 0
220 198 0
220 198 0
219 197 0
219 197 0
219 196 0
218 196 0
218 196 0
218 195 0
218 195 0
217 195 0
217 195 0
217 195 0
217 195 0
217 195 0
217 195 0
217 195 0
227 208 0
227 208 0
227 208 0
228 208 0
228 208 0
228 209 0
228 209 0
229 209 0
229 209 0
229 210 0
229 210 0
230 210 0
230 210 0
230 210 0
230 210 0
230 210 0
230 210 0
230 209 0
229 209 0
229 209 0
229 208 0
228 208 0
228 207 0
228 207 0
227 206 0
226 205 0
226 205 0
225 204 0
225 203 0
224 202 0
223 202 0
223 201 0
222 200 0
221 199 0
221 199 0
220 198 0
220 198 0
219 197 0
219 197 0
219 196 0
218 196 0
218 196 0
218 195 0
218 195 0
218 195 0
218 195 0
218 195 0
218 195 0
218 195 0
218 195 0
227 208 0
227 208 0
227 208 0
228 208 0
228 208 0
228 209 0
228 209 0
229 209 0
229 210 0
229 210 0
230 210 0
230 210 0
230 211 0
230 211 0
230 211 0
230 211 0
230 210 0
230 210 0
230 210 0
230 209 0
229 209 0
229 208 0
228 208 0
228 207 0
227 206 0
227 206 0
226 205 0
226 204 0
225 204 0
224 203 0
224 202 0
223 201 0
222 200 0
222 200 0
221 199 0
221 198 0
220 198 0
220 197 0
219 197 0
219 197 0
219 196 0
218 196 0
218 196 0
218 196 0
218 196 0
218 196 0
218 195 0
218 195 0
218 195 0
218 195 0
227 208 0
227 208 0
227 208 0
228 208 0
228 208 0
228 209 0
228 209 0
229 210 0
229 210 0
230 210 0
230 211 0
230 211 0
230 211 0
231 211 0
231 211 0
231 211 0
231 211 0
230 211 0
230 210 0
230 210 0
230 209 0
229 209 0
229 208 0
228 208 0
228 207 0
227 206 0
227 205 0
226 205 0
225 204 0
225 203 0
224 202 0
223 201 0
223 201 0
222 200 0
221 199 0
221 199 0
220 198 0
220 198 0
220 197 0
219 197 0
219 197 0
219 196 0
219 196 0
219 196 0
218 196 0
218 196 0
218 196 0
218 196 0
218 196 0
218 196 0
227 208 0
227 208 0
227 208 0
227 208 0
228 209 0
228 209 0
229 209 0
229 210 0
229 210 0
230 210 0
230 211 0
230 211 0
231 211 0
231 211 0
231 211 0
231 211 0
231 211 0
231 211 0
230 211 0
230 210 0
230 210 0
229 209 0
229 208 0
229 208 0
228 207 0
227 206 0
227 206 0
226 205 0
225 204 0
225 203 0
224 202 0
223 202 0
223 201 0
222 200 0
222 200 0
221 199 0
221 198 0
220 198 0
220 197 0
219 197 0
219 197 0
219 197 0
219 196 0
219 196 0
219 196 0
219 196 0
219 196 0
219 196 0
219 196 0
219 196 0
227 208 0
227 208 0
227 208 0
227 208 0
228 209 0
228 209 0
229 209 0
229 210 0
229 210 0
230 211 0
230 211 0
230 211 0
231 211 0
231 211 0
231 212 0
231 211 0
231 211 0
231 211 0
231 211 0
230 210 0
230 210 0
230 209 0
229 209 0
229 208 0
228 207 0
228 206 0
227 206 0
226 205 0
226 204 0
225 203 0
224 203 0
224 202 0
223 201 0
222 200 0
222 200 0
221 199 0
221 198 0
220 198 0
220 198 0
220 197 0
219 197 0
219 197 0
219 196 0
219 196 0
219 196 0
219 196 0
219 196 0
219 196 0
219 196 0
219 196 0
