P3
50 50
255
227 243 0
227 243 0
227 243 0
227 243 0
227 243 0
227 243 0
228 243 0
228 243 0
229 244 0
229 244 0
230 244 0
230 245 0
231 245 0
233 246 0
234 246 0
235 247 0
237 248 0
239 249 0
241 250 0
243 251 0
245 251 0
248 252 0
250 253 0
251 254 0
253 254 0
254 254 0
254 255 0
255 254 0
254 254 0
253 254 0
251 253 0
249 252 0
246 251 0
242 249 0
239 248 0
235 246 0
231 244 0
226 242 0
222 240 0
218 238 0
214 236 0
211 234 0
208 232 0
205 230 0
202 229 0
200 228 0
199 226 0
197 226 0
197 225 0
196 225 0
227 243 0
227 243 0
227 243 0
227 243 0
227 243 0
227 243 0
228 243 0
228 243 0
228 244 0
229 244 0
230 244 0
230 245 0
231 245 0
232 246 0
234 246 0
235 247 0
237 248 0
239 249 0
241 250 0
243 251 0
245 251 0
247 252 0
249 253 0
251 254 0
253 254 0
254 254 0
254 254 0
254 254 0
254 254 0
253 254 0
251 253 0
248 252 0
246 251 0
242 249 0
238 248 0
234 246 0
230 244 0
226 242 0
222 240 0
218 238 0
214 236 0
211 234 0
207 232 0
205 230 0
202 229 0
200 227 0
198 226 0
197 225 0
196 225 0
196 225 0
226 243 0
226 243 0
226 243 0
226 243 0
227 243 0
227 243 0
227 243 0
228 243 0
228 243 0
229 244 0
229 244 0
230 244 0
231 245 0
232 246 0
233 246 0
235 247 0
237 248 0
239 249 0
241 250 0
243 250 0
245 251 0
247 252 0
249 253 0
251 253 0
252 254 0
253 254 0
254 254 0
254 254 0
253 254 0
252 253 0
250 253 0
248 252 0
245 250 0
242 249 0
238 247 0
234 246 0
230 244 0
226 242 0
222 240 0
218 238 0
214 236 0
210 234 0
207 232 0
204 230 0
202 228 0
200 227 0
198 226 0
197 225 0
196 225 0
195 224 0
226 243 0
226 243 0
226 243 0
226 243 0
226 243 0
226 243 0
227 243 0
227 243 0
228 243 0
228 244 0
229 244 0
230 244 0
231 245 0
232 245 0
233 246 0
234 247 0
236 248 0
238 248 0
240 249 0
242 250 0
244 251 0
247 252 0
249 253 0
250 253 0
252 254 0
253 254 0
253 254 0
253 254 0
253 254 0
252 253 0
250 252 0
248 251 0
245 250 0
241 249 0
238 247 0
234 245 0
229 243 0
225 241 0
221 239 0
217 237 0
213 235 0
210 233 0
206 231 0
203 230 0
201 228 0
199 227 0
197 226 0
196 225 0
195 224 0
195 224 0
225 242 0
225 242 0
225 242 0
225 242 0
226 242 0
226 242 0
226 243 0
226 243 0
227 243 0
227 243 0
228 244 0
229 244 0
230 245 0
231 245 0
232 246 0
234 247 0
236 247 0
238 248 0
240 249 0
242 250 0
244 251 0
246 252 0
248 252 0
250 253 0
251 253 0
252 254 0
253 254 0
253 254 0
252 253 0
251 253 0
249 252 0
247 251 0
244 250 0
241 248 0
237 247 0
233 245 0
229 243 0
225 241 0
220 239 0
216 237 0
212 235 0
209 233 0
206 231 0
203 229 0
200 227 0
198 226 0
196 225 0
195 224 0
194 223 0
194 223 0
224 242 0
224 242 0
224 242 0
225 242 0
225 242 0
225 242 0
225 242 0
226 242 0
226 243 0
227 243 0
228 243 0
228 244 0
229 244 0
231 245 0
232 246 0
233 246 0
235 247 0
237 248 0
239 249 0
241 250 0
243 251 0
245 251 0
247 252 0
249 253 0
250 253 0
251 253 0
252 253 0
252 253 0
251 253 0
250 252 0
248 252 0
246 251 0
243 249 0
240 248 0
236 246 0
232 245 0
228 243 0
224 241 0
220 239 0
215 236 0
212 234 0
208 232 0
205 230 0
202 228 0
199 227 0
197 225 0
195 224 0
194 223 0
193 223 0
192 222 0
224 242 0
224 242 0
224 242 0
224 242 0
224 242 0
224 242 0
225 242 0
225 242 0
226 242 0
226 243 0
227 243 0
228 244 0
229 244 0
230 245 0
231 245 0
233 246 0
234 247 0
236 248 0
238 249 0
240 249 0
242 250 0
244 251 0
246 252 0
248 252 0
249 253 0
250 253 0
251 253 0
251 253 0
250 253 0
249 252 0
247 251 0
245 250 0
242 249 0
239 248 0
235 246 0
231 244 0
227 242 0
223 240 0
219 238 0
215 236 0
211 234 0
207 232 0
204 230 0
201 228 0
198 226 0
196 225 0
194 223 0
193 223 0
192 222 0
191 222 0
223 241 0
223 241 0
223 241 0
223 241 0
223 241 0
224 242 0
224 242 0
224 242 0
225 242 0
226 242 0
226 243 0
227 243 0
228 244 0
229 244 0
231 245 0
232 246 0
234 247 0
236 247 0
238 248 0
240 249 0
242 250 0
243 251 0
245 251 0
247 252 0
248 252 0
249 252 0
250 253 0
250 252 0
249 252 0
248 252 0
246 251 0
244 250 0
241 249 0
238 247 0
234 246 0
230 244 0
226 242 0
222 240 0
218 238 0
214 235 0
210 233 0
206 231 0
202 229 0
199 227 0
197 225 0
195 224 0
193 223 0
191 222 0
190 221 0
190 221 0
222 241 0
222 241 0
222 241 0
223 241 0
223 241 0
223 241 0
223 241 0
224 242 0
224 242 0
225 242 0
226 243 0
227 243 0
228 244 0
229 244 0
230 245 0
232 246 0
233 246 0
235 247 0
237 248 0
239 249 0
241 249 0
243 250 0
244 251 0
246 251 0
247 252 0
248 252 0
248 252 0
248 252 0
248 252 0
247 251 0
245 250 0
243 249 0
240 248 0
237 247 0
233 245 0
229 243 0
225 241 0
221 239 0
217 237 0
212 235 0
209 233 0
205 230 0
201 228 0
198 226 0
196 225 0
193 223 0
192 222 0
190 221 0
189 220 0
189 220 0
222 241 0
222 241 0
222 241 0
222 241 0
222 241 0
223 241 0
223 241 0
223 241 0
224 242 0
225 242 0
225 242 0
226 243 0
227 243 0
228 244 0
230 245 0
231 245 0
233 246 0
234 247 0
236 248 0
238 248 0
240 249 0
242 250 0
243 250 0
245 251 0
246 251 0
247 251 0
247 251 0
247 251 0
246 251 0
245 250 0
244 250 0
241 249 0
239 247 0
235 246 0
232 244 0
228 243 0
224 241 0
220 239 0
216 236 0
211 234 0
208 232 0
204 230 0
200 228 0
197 226 0
195 224 0
192 222 0
190 221 0
189 220 0
188 220 0
188 219 0
221 240 0
221 241 0
222 241 0
222 241 0
222 241 0
222 241 0
223 241 0
223 241 0
224 242 0
224 242 0
225 242 0
226 243 0
227 243 0
228 244 0
229 244 0
231 245 0
232 246 0
234 247 0
236 247 0
237 248 0
239 249 0
241 249 0
242 250 0
244 250 0
245 251 0
245 251 0
246 251 0
246 251 0
245 250 0
244 250 0
242 249 0
240 248 0
237 247 0
234 245 0
231 244 0
227 242 0
223 240 0
219 238 0
215 236 0
211 234 0
207 231 0
203 229 0
199 227 0
196 225 0
194 223 0
191 222 0
189 221 0
188 220 0
187 219 0
187 219 0
221 240 0
221 240 0
221 241 0
222 241 0
222 241 0
222 241 0
223 241 0
223 241 0
224 242 0
224 242 0
225 242 0
226 243 0
227 243 0
228 244 0
229 244 0
230 245 0
232 246 0
233 246 0
235 247 0
237 248 0
238 248 0
240 249 0
241 250 0
242 250 0
243 250 0
244 250 0
244 250 0
244 250 0
243 250 0
242 249 0
241 248 0
238 247 0
236 246 0
233 245 0
229 243 0
226 241 0
222 240 0
218 238 0
214 235 0
210 233 0
206 231 0
202 229 0
199 227 0
196 225 0
193 223 0
191 221 0
189 220 0
187 219 0
186 218 0
186 218 0
221 240 0
222 241 0
222 241 0
222 241 0
222 241 0
222 241 0
223 241 0
223 241 0
224 242 0
224 242 0
225 242 0
226 243 0
227 243 0
228 244 0
229 244 0
230 245 0
232 246 0
233 246 0
235 247 0
236 248 0
238 248 0
239 249 0
240 249 0
241 249 0
242 250 0
243 250 0
243 250 0
242 250 0
242 249 0
241 249 0
239 248 0
237 247 0
234 246 0
231 244 0
228 243 0
225 241 0
221 239 0
217 237 0
213 235 0
209 233 0
205 231 0
201 228 0
198 226 0
195 224 0
192 223 0
190 221 0
188 220 0
187 219 0
186 218 0
185 218 0
222 241 0
222 241 0
222 241 0
222 241 0
223 241 0
223 241 0
223 241 0
224 242 0
224 242 0
225 242 0
225 242 0
226 243 0
227 243 0
228 244 0
229 244 0
230 245 0
232 246 0
233 246 0
234 247 0
236 247 0
237 248 0
238 248 0
239 249 0
240 249 0
241 249 0
241 249 0
241 249 0
241 249 0
240 248 0
239 248 0
237 247 0
235 246 0
233 245 0
230 244 0
227 242 0
223 240 0
220 239 0
216 237 0
212 235 0
208 232 0
205 230 0
201 228 0
198 226 0
195 224 0
192 223 0
190 221 0
188 220 0
187 219 0
186 218 0
185 218 0
223 241 0
223 241 0
223 241 0
223 241 0
223 241 0
223 241 0
224 242 0
224 242 0
225 242 0
225 242 0
226 243 0
227 243 0
228 244 0
229 244 0
230 245 0
231 245 0
232 246 0
233 246 0
234 247 0
235 247 0
236 248 0
237 248 0
238 248 0
239 249 0
240 249 0
240 249 0
240 249 0
239 248 0
239 248 0
237 247 0
236 246 0
234 246 0
231 244 0
229 243 0
226 242 0
222 240 0
219 238 0
215 236 0
212 234 0
208 232 0
204 230 0
201 228 0
198 226 0
195 224 0
192 223 0
190 221 0
188 220 0
187 219 0
186 218 0
185 218 0
224 241 0
224 241 0
224 241 0
224 242 0
224 242 0
224 242 0
225 242 0
225 242 0
226 242 0
226 243 0
227 243 0
227 243 0
228 244 0
229 244 0
230 245 0
231 245 0
232 246 0
233 246 0
234 247 0
235 247 0
236 247 0
237 248 0
238 248 0
238 248 0
238 248 0
238 248 0
238 248 0
238 248 0
237 247 0
236 247 0
234 246 0
232 245 0
230 244 0
228 243 0
225 241 0
222 240 0
218 238 0
215 236 0
211 234 0
208 232 0
204 230 0
201 228 0
198 226 0
195 225 0
193 223 0
191 222 0
189 220 0
187 219 0
187 219 0
186 219 0
225 242 0
225 242 0
225 242 0
225 242 0
225 242 0
225 242 0
226 242 0
226 243 0
227 243 0
227 243 0
228 243 0
228 244 0
229 244 0
230 245 0
231 245 0
232 245 0
232 246 0
233 246 0
234 247 0
235 247 0
236 247 0
236 248 0
237 248 0
237 248 0
237 248 0
237 248 0
237 247 0
236 247 0
235 247 0
234 246 0
233 245 0
231 244 0
229 243 0
226 242 0
224 241 0
221 239 0
218 238 0
214 236 0
211 234 0
208 232 0
205 231 0
202 229 0
199 227 0
196 225 0
193 224 0
191 222 0
190 221 0
188 220 0
188 220 0
187 219 0
226 243 0
226 243 0
226 243 0
226 243 0
227 243 0
227 243 0
227 243 0
227 243 0
228 243 0
228 244 0
229 244 0
229 244 0
230 245 0
231 245 0
231 245 0
232 246 0
233 246 0
234 246 0
234 247 0
235 247 0
235 247 0
236 247 0
236 247 0
236 247 0
236 247 0
236 247 0
236 247 0
235 247 0
234 246 0
233 245 0
231 245 0
230 244 0
228 243 0
225 242 0
223 241 0
220 239 0
217 238 0
214 236 0
211 234 0
208 233 0
205 231 0
202 229 0
200 228 0
197 226 0
195 224 0
193 223 0
191 222 0
190 221 0
189 221 0
189 220 0
228 243 0
228 243 0
228 243 0
228 243 0
228 243 0
228 243 0
228 244 0
229 244 0
229 244 0
229 244 0
230 245 0
230 245 0
231 245 0
232 245 0
232 246 0
233 246 0
233 246 0
234 247 0
235 247 0
235 247 0
235 247 0
235 247 0
236 247 0
235 247 0
235 247 0
235 247 0
234 246 0
234 246 0
233 246 0
231 245 0
230 244 0
228 243 0
227 243 0
225 242 0
222 240 0
220 239 0
217 238 0
215 236 0
212 235 0
209 233 0
206 232 0
203 230 0
201 228 0
198 227 0
196 226 0
194 224 0
193 223 0
192 223 0
191 222 0
191 222 0
229 244 0
229 244 0
229 244 0
229 244 0
229 244 0
230 244 0
230 244 0
230 244 0
230 245 0
231 245 0
231 245 0
232 245 0
232 246 0
233 246 0
233 246 0
234 246 0
234 247 0
235 247 0
235 247 0
235 247 0
235 247 0
235 247 0
235 247 0
235 247 0
234 247 0
234 246 0
233 246 0
232 246 0
231 245 0
230 245 0
229 244 0
228 243 0
226 242 0
224 241 0
222 240 0
220 239 0
217 238 0
215 237 0
213 235 0
210 234 0
207 232 0
205 231 0
203 229 0
200 228 0
198 227 0
197 226 0
195 225 0
194 224 0
193 224 0
193 223 0
231 244 0
231 245 0
231 245 0
231 245 0
231 245 0
231 245 0
231 245 0
231 245 0
232 245 0
232 245 0
232 246 0
233 246 0
233 246 0
234 246 0
234 247 0
234 247 0
235 247 0
235 247 0
235 247 0
235 247 0
235 247 0
235 247 0
235 247 0
234 247 0
234 247 0
233 246 0
232 246 0
231 245 0
230 245 0
229 244 0
228 244 0
227 243 0
225 242 0
224 241 0
222 240 0
220 239 0
218 238 0
216 237 0
214 236 0
211 235 0
209 233 0
207 232 0
205 231 0
203 230 0
201 228 0
199 227 0
198 227 0
197 226 0
196 226 0
196 225 0
232 245 0
232 245 0
232 245 0
232 245 0
232 245 0
232 245 0
233 246 0
233 246 0
233 246 0
233 246 0
234 246 0
234 246 0
234 247 0
235 247 0
235 247 0
235 247 0
236 247 0
236 247 0
236 247 0
236 247 0
235 247 0
235 247 0
234 247 0
234 247 0
233 246 0
232 246 0
232 246 0
231 245 0
230 245 0
229 244 0
227 243 0
226 243 0
225 242 0
224 241 0
222 241 0
220 240 0
219 239 0
217 238 0
215 237 0
213 236 0
211 234 0
209 233 0
207 232 0
205 231 0
204 230 0
202 229 0
201 229 0
200 228 0
199 228 0
199 227 0
234 246 0
234 246 0
234 246 0
234 246 0
234 246 0
234 246 0
234 246 0
234 246 0
234 246 0
235 247 0
235 247 0
235 247 0
235 247 0
236 247 0
236 247 0
236 248 0
236 248 0
236 248 0
236 248 0
236 248 0
235 247 0
235 247 0
234 247 0
234 247 0
233 246 0
232 246 0
231 245 0
230 245 0
229 244 0
228 244 0
227 243 0
226 243 0
225 242 0
224 242 0
223 241 0
221 240 0
220 239 0
218 238 0
217 238 0
215 237 0
213 236 0
212 235 0
210 234 0
208 233 0
207 232 0
205 231 0
204 231 0
203 230 0
203 230 0
203 230 0
235 246 0
235 246 0
235 246 0
235 246 0
235 246 0
235 246 0
235 247 0
235 247 0
235 247 0
236 247 0
236 247 0
236 247 0
236 248 0
237 248 0
237 248 0
237 248 0
237 248 0
237 248 0
237 248 0
236 248 0
236 248 0
235 247 0
234 247 0
233 247 0
233 246 0
232 246 0
231 245 0
230 245 0
229 244 0
228 244 0
227 243 0
226 243 0
225 242 0
224 242 0
223 241 0
222 241 0
221 240 0
220 239 0
219 239 0
217 238 0
216 237 0
214 236 0
213 236 0
211 235 0
210 234 0
209 233 0
208 233 0
207 232 0
207 232 0
206 232 0
236 247 0
236 247 0
236 247 0
236 247 0
236 247 0
236 247 0
236 247 0
236 247 0
236 247 0
237 247 0
237 248 0
237 248 0
237 248 0
238 248 0
238 248 0
238 248 0
238 248 0
237 248 0
237 248 0
237 248 0
236 248 0
235 247 0
234 247 0
234 247 0
233 246 0
232 246 0
231 245 0
230 245 0
229 244 0
228 244 0
227 244 0
226 243 0
226 243 0
225 242 0
224 242 0
224 241 0
223 241 0
222 240 0
221 240 0
220 239 0
219 239 0
217 238 0
216 237 0
215 237 0
214 236 0
213 236 0
212 235 0
211 235 0
211 234 0
211 234 0
236 247 0
236 247 0
236 247 0
237 247 0
237 247 0
237 247 0
237 247 0
237 248 0
237 248 0
237 248 0
238 248 0
238 248 0
238 248 0
238 248 0
238 249 0
238 249 0
238 249 0
238 249 0
238 248 0
237 248 0
236 248 0
236 248 0
235 247 0
234 247 0
233 246 0
232 246 0
231 246 0
230 245 0
229 245 0
228 244 0
228 244 0
227 244 0
227 243 0
226 243 0
226 243 0
225 242 0
225 242 0
224 241 0
223 241 0
223 241 0
222 240 0
221 240 0
220 239 0
219 239 0
218 238 0
217 238 0
216 237 0
216 237 0
215 237 0
215 237 0
237 247 0
237 247 0
237 247 0
237 247 0
237 247 0
237 248 0
237 248 0
237 248 0
238 248 0
238 248 0
238 248 0
238 248 0
239 249 0
239 249 0
239 249 0
239 249 0
239 249 0
239 249 0
238 249 0
237 248 0
237 248 0
236 248 0
235 247 0
234 247 0
233 247 0
232 246 0
231 246 0
230 245 0
229 245 0
229 245 0
228 244 0
228 244 0
228 244 0
227 244 0
227 243 0
227 243 0
227 243 0
226 243 0
226 242 0
225 242 0
225 242 0
224 241 0
223 241 0
223 241 0
222 240 0
221 240 0
220 239 0
220 239 0
219 239 0
219 239 0
237 247 0
237 247 0
237 247 0
237 247 0
237 248 0
237 248 0
238 248 0
238 248 0
238 248 0
238 248 0
239 249 0
239 249 0
239 249 0
239 249 0
239 249 0
239 249 0
239 249 0
239 249 0
238 249 0
238 249 0
237 248 0
236 248 0
235 248 0
234 247 0
233 247 0
232 246 0
231 246 0
231 246 0
230 245 0
230 245 0
229 245 0
229 245 0
229 244 0
229 244 0
229 244 0
229 244 0
229 244 0
229 244 0
229 244 0
229 243 0
228 243 0
228 243 0
227 243 0
226 242 0
226 242 0
225 242 0
225 242 0
224 241 0
224 241 0
224 241 0
237 247 0
237 247 0
237 247 0
237 248 0
237 248 0
237 248 0
238 248 0
238 248 0
238 248 0
238 248 0
239 249 0
239 249 0
239 249 0
240 249 0
240 249 0
240 249 0
240 249 0
239 249 0
239 249 0
238 249 0
238 249 0
237 248 0
236 248 0
235 247 0
234 247 0
233 247 0
232 246 0
231 246 0
231 246 0
231 245 0
230 245 0
230 245 0
230 245 0
231 245 0
231 245 0
231 245 0
231 245 0
232 245 0
232 245 0
232 245 0
231 245 0
231 245 0
231 244 0
230 244 0
230 244 0
229 244 0
229 244 0
228 243 0
228 243 0
228 243 0
237 247 0
237 247 0
237 247 0
237 247 0
237 248 0
237 248 0
237 248 0
238 248 0
238 248 0
238 248 0
239 249 0
239 249 0
239 249 0
240 249 0
240 249 0
240 249 0
240 249 0
240 249 0
239 249 0
239 249 0
238 249 0
237 248 0
236 248 0
235 248 0
234 247 0
234 247 0
233 247 0
232 246 0
232 246 0
232 246 0
232 246 0
232 246 0
232 246 0
232 246 0
233 246 0
233 246 0
234 246 0
234 246 0
235 246 0
235 246 0
235 246 0
235 246 0
234 246 0
234 246 0
234 246 0
233 246 0
233 245 0
233 245 0
232 245 0
232 245 0
236 247 0
236 247 0
236 247 0
236 247 0
237 247 0
237 248 0
237 248 0
237 248 0
238 248 0
238 248 0
239 249 0
239 249 0
239 249 0
240 249 0
240 249 0
240 249 0
240 249 0
240 249 0
239 249 0
239 249 0
238 249 0
237 249 0
237 248 0
236 248 0
235 248 0
234 247 0
234 247 0
233 247 0
233 247 0
233 246 0
233 246 0
233 246 0
234 247 0
234 247 0
235 247 0
236 247 0
236 247 0
237 247 0
237 247 0
238 247 0
238 248 0
238 248 0
238 248 0
238 247 0
237 247 0
237 247 0
237 247 0
236 247 0
236 247 0
236 247 0
236 247 0
236 247 0
236 247 0
236 247 0
236 247 0
236 247 0
237 248 0
237 248 0
237 248 0
238 248 0
238 248 0
239 249 0
239 249 0
239 249 0
240 249 0
240 249 0
240 249 0
240 249 0
239 249 0
239 249 0
238 249 0
238 249 0
237 248 0
236 248 0
236 248 0
235 248 0
235 247 0
234 247 0
234 247 0
234 247 0
234 247 0
235 247 0
236 247 0
236 247 0
237 248 0
238 248 0
239 248 0
239 248 0
240 249 0
241 249 0
241 249 0
241 249 0
241 249 0
241 249 0
241 249 0
240 249 0
240 249 0
240 249 0
240 249 0
240 248 0
235 247 0
235 247 0
235 247 0
235 247 0
235 247 0
236 247 0
236 247 0
236 248 0
237 248 0
237 248 0
238 248 0
238 249 0
239 249 0
239 249 0
239 249 0
239 249 0
240 249 0
239 249 0
239 249 0
239 249 0
238 249 0
238 249 0
237 249 0
237 248 0
236 248 0
236 248 0
235 248 0
235 248 0
235 248 0
235 248 0
236 248 0
236 248 0
237 248 0
238 248 0
239 248 0
240 249 0
241 249 0
242 249 0
242 249 0
243 250 0
244 250 0
244 250 0
244 250 0
244 250 0
244 250 0
244 250 0
243 250 0
243 250 0
243 250 0
243 250 0
234 246 0
234 246 0
234 246 0
234 247 0
235 247 0
235 247 0
235 247 0
235 247 0
236 247 0
236 248 0
237 248 0
237 248 0
238 248 0
238 249 0
239 249 0
239 249 0
239 249 0
239 249 0
239 249 0
239 249 0
238 249 0
238 249 0
238 249 0
237 248 0
237 248 0
236 248 0
236 248 0
236 248 0
236 248 0
237 248 0
237 248 0
238 248 0
239 249 0
240 249 0
241 249 0
242 249 0
243 250 0
244 250 0
245 250 0
245 251 0
246 251 0
246 251 0
246 251 0
246 251 0
246 251 0
246 251 0
246 251 0
246 251 0
246 251 0
246 251 0
233 246 0
233 246 0
233 246 0
234 246 0
234 246 0
234 247 0
234 247 0
235 247 0
235 247 0
236 247 0
236 248 0
237 248 0
237 248 0
238 248 0
238 249 0
238 249 0
239 249 0
239 249 0
239 249 0
238 249 0
238 249 0
238 249 0
238 249 0
237 249 0
237 248 0
237 248 0
237 248 0
237 248 0
237 248 0
238 248 0
238 249 0
239 249 0
240 249 0
241 249 0
242 250 0
243 250 0
244 250 0
246 251 0
246 251 0
247 251 0
248 252 0
248 252 0
248 252 0
248 252 0
248 252 0
248 252 0
248 252 0
248 252 0
248 252 0
248 252 0
232 246 0
232 246 0
233 246 0
233 246 0
233 246 0
233 246 0
233 246 0
234 247 0
234 247 0
235 247 0
235 247 0
236 248 0
236 248 0
237 248 0
237 248 0
237 248 0
238 249 0
238 249 0
238 249 0
238 249 0
238 249 0
238 249 0
237 249 0
237 248 0
237 248 0
237 248 0
237 248 0
237 248 0
238 249 0
238 249 0
239 249 0
240 249 0
241 250 0
242 250 0
243 250 0
245 251 0
246 251 0
247 251 0
248 252 0
249 252 0
249 252 0
250 252 0
250 252 0
250 253 0
250 253 0
250 253 0
250 253 0
250 253 0
250 253 0
250 253 0
232 245 0
232 245 0
232 246 0
232 246 0
232 246 0
232 246 0
233 246 0
233 246 0
233 246 0
234 247 0
234 247 0
235 247 0
235 247 0
236 248 0
236 248 0
237 248 0
237 248 0
237 248 0
237 248 0
237 248 0
237 248 0
237 248 0
237 248 0
237 248 0
237 248 0
237 248 0
237 248 0
238 249 0
238 249 0
239 249 0
240 249 0
241 250 0
242 250 0
243 250 0
244 251 0
246 251 0
247 251 0
248 252 0
249 252 0
250 252 0
250 253 0
251 253 0
251 253 0
251 253 0
251 253 0
251 253 0
251 253 0
251 253 0
251 253 0
251 253 0
231 245 0
231 245 0
231 245 0
231 245 0
231 245 0
232 245 0
232 246 0
232 246 0
232 246 0
233 246 0
233 246 0
234 247 0
234 247 0
235 247 0
235 247 0
235 247 0
236 248 0
236 248 0
236 248 0
236 248 0
236 248 0
237 248 0
237 248 0
237 248 0
237 248 0
237 248 0
238 248 0
238 249 0
239 249 0
239 249 0
240 249 0
241 250 0
243 250 0
244 250 0
245 251 0
246 251 0
247 252 0
249 252 0
250 252 0
250 253 0
251 253 0
251 253 0
252 253 0
252 253 0
252 253 0
252 253 0
252 253 0
252 253 0
251 253 0
251 253 0
231 245 0
231 245 0
231 245 0
231 245 0
231 245 0
231 245 0
231 245 0
231 245 0
231 246 0
232 246 0
232 246 0
233 246 0
233 246 0
233 247 0
234 247 0
234 247 0
235 247 0
235 247 0
235 247 0
235 248 0
236 248 0
236 248 0
236 248 0
236 248 0
236 248 0
237 248 0
237 248 0
238 249 0
239 249 0
240 249 0
241 249 0
242 250 0
243 250 0
244 251 0
245 251 0
247 251 0
248 252 0
249 252 0
250 253 0
251 253 0
251 253 0
252 253 0
252 253 0
252 253 0
252 253 0
252 254 0
252 254 0
252 254 0
252 254 0
252 254 0
230 245 0
230 245 0
230 245 0
230 245 0
230 245 0
230 245 0
230 245 0
230 245 0
231 245 0
231 245 0
231 245 0
231 246 0
232 246 0
232 246 0
232 246 0
233 246 0
233 247 0
234 247 0
234 247 0
234 247 0
234 247 0
235 247 0
235 247 0
235 248 0
236 248 0
236 248 0
237 248 0
238 248 0
238 249 0
239 249 0
240 249 0
242 250 0
243 250 0
244 251 0
245 251 0
247 251 0
248 252 0
249 252 0
250 253 0
250 253 0
251 253 0
251 253 0
252 253 0
252 253 0
252 253 0
252 254 0
252 254 0
252 254 0
252 254 0
251 254 0
230 245 0
230 245 0
230 245 0
230 245 0
230 245 0
230 245 0
230 245 0
230 245 0
230 245 0
230 245 0
230 245 0
230 245 0
231 245 0
231 245 0
231 246 0
231 246 0
232 246 0
232 246 0
233 246 0
233 246 0
233 247 0
234 247 0
234 247 0
234 247 0
235 247 0
236 248 0
236 248 0
237 248 0
238 249 0
239 249 0
240 249 0
241 250 0
243 250 0
244 251 0
245 251 0
246 251 0
247 252 0
248 252 0
249 252 0
250 253 0
250 253 0
251 253 0
251 253 0
251 253 0
251 253 0
251 253 0
251 253 0
251 253 0
251 253 0
251 253 0
230 245 0
230 245 0
230 245 0
230 245 0
230 245 0
230 244 0
229 244 0
229 244 0
229 244 0
229 244 0
229 244 0
229 245 0
229 245 0
230 245 0
230 245 0
230 245 0
230 245 0
231 245 0
231 246 0
232 246 0
232 246 0
232 246 0
233 247 0
233 247 0
234 247 0
235 247 0
236 248 0
236 248 0
237 248 0
238 249 0
240 249 0
241 250 0
242 250 0
243 250 0
244 251 0
246 251 0
247 252 0
248 252 0
248 252 0
249 253 0
250 253 0
250 253 0
250 253 0
250 253 0
251 253 0
250 253 0
250 253 0
250 253 0
250 253 0
250 253 0
230 245 0
230 245 0
230 245 0
230 244 0
230 244 0
229 244 0
229 244 0
229 244 0
228 244 0
228 244 0
228 244 0
228 244 0
228 244 0
228 244 0
228 244 0
229 244 0
229 245 0
229 245 0
230 245 0
230 245 0
231 246 0
231 246 0
232 246 0
232 246 0
233 247 0
234 247 0
235 247 0
236 248 0
237 248 0
238 249 0
239 249 0
240 249 0
241 250 0
243 250 0
244 251 0
245 251 0
246 251 0
247 252 0
248 252 0
248 252 0
249 252 0
249 253 0
249 253 0
249 253 0
250 253 0
250 253 0
249 253 0
249 253 0
249 253 0
249 253 0
231 245 0
230 245 0
230 245 0
230 244 0
230 244 0
229 244 0
229 244 0
228 244 0
228 244 0
228 244 0
227 244 0
227 244 0
227 244 0
227 244 0
227 244 0
227 244 0
228 244 0
228 244 0
228 244 0
229 245 0
229 245 0
230 245 0
230 246 0
231 246 0
232 246 0
233 247 0
234 247 0
235 247 0
236 248 0
237 248 0
238 249 0
239 249 0
241 250 0
242 250 0
243 250 0
244 251 0
245 251 0
246 251 0
247 252 0
247 252 0
248 252 0
248 252 0
248 252 0
248 252 0
248 253 0
248 253 0
248 253 0
248 253 0
248 253 0
248 253 0
231 245 0
231 245 0
230 245 0
230 244 0
230 244 0
229 244 0
228 244 0
228 244 0
227 244 0
227 243 0
227 243 0
226 243 0
226 243 0
226 243 0
226 243 0
226 243 0
226 243 0
227 244 0
227 244 0
228 244 0
228 244 0
229 245 0
229 245 0
230 245 0
231 246 0
232 246 0
233 247 0
234 247 0
235 247 0
236 248 0
237 248 0
239 249 0
240 249 0
241 250 0
242 250 0
243 251 0
244 251 0
245 251 0
246 251 0
246 252 0
247 252 0
247 252 0
247 252 0
247 252 0
247 252 0
247 252 0
247 252 0
247 252 0
247 252 0
247 252 0
231 245 0
231 245 0
231 245 0
230 244 0
230 244 0
229 244 0
228 244 0
228 244 0
227 243 0
226 243 0
226 243 0
226 243 0
225 243 0
225 243 0
225 243 0
225 243 0
225 243 0
226 243 0
226 243 0
226 244 0
227 244 0
228 244 0
228 245 0
229 245 0
230 245 0
231 246 0
232 246 0
233 247 0
234 247 0
235 248 0
237 248 0
238 249 0
239 249 0
240 249 0
241 250 0
242 250 0
243 251 0
244 251 0
245 251 0
245 251 0
246 252 0
246 252 0
246 252 0
246 252 0
246 252 0
246 252 0
246 252 0
246 252 0
246 252 0
246 252 0
231 245 0
231 245 0
231 245 0
230 245 0
230 244 0
229 244 0
228 244 0
227 243 0
227 243 0
226 243 0
225 243 0
225 243 0
225 242 0
224 242 0
224 242 0
224 242 0
224 243 0
225 243 0
225 243 0
225 243 0
226 244 0
227 244 0
227 244 0
228 245 0
229 245 0
230 246 0
231 246 0
232 246 0
233 247 0
235 247 0
236 248 0
237 248 0
238 249 0
239 249 0
240 250 0
241 250 0
242 250 0
243 251 0
244 251 0
244 251 0
245 251 0
245 251 0
245 251 0
245 252 0
245 252 0
245 252 0
245 252 0
245 252 0
245 252 0
245 252 0
231 245 0
231 245 0
231 245 0
230 245 0
230 244 0
229 244 0
228 244 0
227 243 0
226 243 0
226 243 0
225 243 0
224 242 0
224 242 0
224 242 0
224 242 0
224 242 0
224 242 0
224 242 0
224 243 0
225 243 0
225 243 0
226 244 0
227 244 0
228 244 0
228 245 0
230 245 0
231 246 0
232 246 0
233 247 0
234 247 0
235 248 0
236 248 0
238 249 0
239 249 0
240 249 0
241 250 0
242 250 0
242 250 0
243 251 0
243 251 0
244 251 0
244 251 0
244 251 0
245 251 0
245 251 0
245 251 0
245 251 0
245 251 0
245 251 0
245 251 0
232 245 0
231 245 0
231 245 0
230 245 0
230 244 0
229 244 0
228 244 0
227 243 0
226 243 0
226 243 0
225 242 0
224 242 0
224 242 0
223 242 0
223 242 0
223 242 0
223 242 0
223 242 0
224 242 0
224 243 0
225 243 0
225 243 0
226 244 0
227 244 0
228 245 0
229 245 0
230 246 0
231 246 0
232 247 0
234 247 0
235 248 0
236 248 0
237 248 0
238 249 0
239 249 0
240 250 0
241 250 0
242 250 0
242 250 0
243 251 0
243 251 0
244 251 0
244 251 0
244 251 0
244 251 0
244 251 0
244 251 0
244 251 0
244 251 0
244 251 0
232 245 0
232 245 0
231 245 0
231 245 0
230 244 0
229 244 0
228 244 0
227 243 0
226 243 0
225 243 0
225 242 0
224 242 0
223 242 0
223 242 0
223 242 0
223 242 0
223 242 0
223 242 0
223 242 0
224 243 0
224 243 0
225 243 0
226 244 0
227 244 0
228 244 0
229 245 0
230 245 0
231 246 0
232 246 0
233 247 0
235 247 0
236 248 0
237 248 0
238 249 0
239 249 0
240 250 0
241 250 0
242 250 0
242 250 0
243 251 0
243 251 0
243 251 0
244 251 0
244 251 0
244 251 0
244 251 0
244 251 0
244 251 0
244 251 0
244 251 0
