P3
50 50
255
203 251 0
203 251 0
203 251 0
203 252 0
203 252 0
203 252 0
203 253 0
204 253 0
204 253 0
204 254 0
204 254 0
205 253 0
205 253 0
205 253 0
205 252 0
205 252 0
204 251 0
203 251 0
201 251 0
199 251 0
196 251 0
193 252 0
191 252 0
188 252 0
186 253 0
184 253 0
182 253 0
182 253 0
182 253 0
183 254 0
184 254 0
186 254 0
189 254 0
192 253 0
196 253 0
200 253 0
203 252 0
207 252 0
210 251 0
214 251 0
217 250 0
219 250 0
221 250 0
223 250 0
224 250 0
225 250 0
226 250 0
226 250 0
226 250 0
226 250 0
204 251 0
204 251 0
204 251 0
204 252 0
204 252 0
204 252 0
204 253 0
204 253 0
204 253 0
204 254 0
205 253 0
205 253 0
205 253 0
206 253 0
206 252 0
205 252 0
204 251 0
203 251 0
201 251 0
199 251 0
196 251 0
194 252 0
191 252 0
188 252 0
186 253 0
184 253 0
183 253 0
182 253 0
182 253 0
183 254 0
185 254 0
187 254 0
189 254 0
193 253 0
196 253 0
200 253 0
203 252 0
207 252 0
211 251 0
214 251 0
217 250 0
220 250 0
222 250 0
223 250 0
225 250 0
226 250 0
226 250 0
226 250 0
227 250 0
227 250 0
205 251 0
205 251 0
205 251 0
205 251 0
205 252 0
205 252 0
205 253 0
205 253 0
205 253 0
205 253 0
205 253 0
206 253 0
206 253 0
206 253 0
206 252 0
206 252 0
205 251 0
203 251 0
202 251 0
199 251 0
197 251 0
194 252 0
191 252 0
188 252 0
186 253 0
184 253 0
183 253 0
182 253 0
182 253 0
183 254 0
185 254 0
187 254 0
190 253 0
193 253 0
196 253 0
200 253 0
204 252 0
208 252 0
211 251 0
215 251 0
218 250 0
220 250 0
222 250 0
224 250 0
225 250 0
226 250 0
227 250 0
227 250 0
227 250 0
227 251 0
206 251 0
206 251 0
206 251 0
206 251 0
206 252 0
206 252 0
206 253 0
206 253 0
206 253 0
206 253 0
206 253 0
206 253 0
207 253 0
207 252 0
207 252 0
206 252 0
205 251 0
204 251 0
202 251 0
200 251 0
197 251 0
195 252 0
192 252 0
189 252 0
187 253 0
185 253 0
184 253 0
183 253 0
183 254 0
184 254 0
185 254 0
188 254 0
190 253 0
193 253 0
197 253 0
201 252 0
205 252 0
208 251 0
212 251 0
215 251 0
218 250 0
221 250 0
223 250 0
225 250 0
226 250 0
227 250 0
228 250 0
228 250 0
228 251 0
228 251 0
207 251 0
207 251 0
207 251 0
207 251 0
207 252 0
207 252 0
207 252 0
207 253 0
207 253 0
207 253 0
207 253 0
207 253 0
207 253 0
207 252 0
207 252 0
207 252 0
206 251 0
205 251 0
203 251 0
201 251 0
198 251 0
195 252 0
192 252 0
190 252 0
187 253 0
186 253 0
184 253 0
184 253 0
184 254 0
185 254 0
186 254 0
188 254 0
191 253 0
194 253 0
198 253 0
201 252 0
205 252 0
209 251 0
213 251 0
216 250 0
219 250 0
222 250 0
224 250 0
226 250 0
228 250 0
228 250 0
229 250 0
229 250 0
229 251 0
230 251 0
209 250 0
209 251 0
209 251 0
209 251 0
209 252 0
208 252 0
208 252 0
208 253 0
208 253 0
208 253 0
208 253 0
208 253 0
208 253 0
208 252 0
208 252 0
208 252 0
207 251 0
205 251 0
204 251 0
201 251 0
199 251 0
196 252 0
193 252 0
191 252 0
188 253 0
186 253 0
185 253 0
184 253 0
184 254 0
185 254 0
187 254 0
189 254 0
191 253 0
195 253 0
198 253 0
202 252 0
206 252 0
210 251 0
214 251 0
217 250 0
221 250 0
224 250 0
226 249 0
228 249 0
229 250 0
230 250 0
231 250 0
231 250 0
231 250 0
231 251 0
211 250 0
211 250 0
211 251 0
210 251 0
210 251 0
210 252 0
210 252 0
209 253 0
209 253 0
209 253 0
209 253 0
209 253 0
209 252 0
209 252 0
209 252 0
209 251 0
208 251 0
206 251 0
205 251 0
202 251 0
200 251 0
197 252 0
194 252 0
192 253 0
189 253 0
187 253 0
186 253 0
185 254 0
185 254 0
186 254 0
187 254 0
189 254 0
192 253 0
195 253 0
199 253 0
202 252 0
206 252 0
211 251 0
215 251 0
218 250 0
222 250 0
225 249 0
228 249 0
230 249 0
231 249 0
232 250 0
233 250 0
233 250 0
234 250 0
234 250 0
213 250 0
213 250 0
212 251 0
212 251 0
212 251 0
211 252 0
211 252 0
211 252 0
211 253 0
211 253 0
211 253 0
211 252 0
211 252 0
210 252 0
210 252 0
210 251 0
209 251 0
207 251 0
205 251 0
203 251 0
201 251 0
198 252 0
195 252 0
193 253 0
190 253 0
188 253 0
187 253 0
186 254 0
186 254 0
187 254 0
188 254 0
190 254 0
192 253 0
196 253 0
199 253 0
203 252 0
207 252 0
211 251 0
215 251 0
219 250 0
223 250 0
226 249 0
229 249 0
232 249 0
233 249 0
235 249 0
236 249 0
236 250 0
237 250 0
237 250 0
214 250 0
214 250 0
214 251 0
214 251 0
213 251 0
213 252 0
213 252 0
212 252 0
212 252 0
212 252 0
212 252 0
212 252 0
212 252 0
211 252 0
211 251 0
210 251 0
209 251 0
208 251 0
206 251 0
204 251 0
202 251 0
199 252 0
196 252 0
194 253 0
191 253 0
189 253 0
188 254 0
187 254 0
187 254 0
187 254 0
189 254 0
190 254 0
193 254 0
196 253 0
199 253 0
203 252 0
207 252 0
212 251 0
216 251 0
220 250 0
224 249 0
228 249 0
231 249 0
234 249 0
236 249 0
237 249 0
238 249 0
239 249 0
240 249 0
240 249 0
216 250 0
216 250 0
215 250 0
215 251 0
215 251 0
214 251 0
214 252 0
214 252 0
213 252 0
213 252 0
213 252 0
213 252 0
213 252 0
212 251 0
212 251 0
211 251 0
210 251 0
209 251 0
207 251 0
205 251 0
202 251 0
200 252 0
197 252 0
195 253 0
192 253 0
190 253 0
189 254 0
188 254 0
188 254 0
188 254 0
189 254 0
191 254 0
193 254 0
196 253 0
199 253 0
203 253 0
208 252 0
212 251 0
216 251 0
221 250 0
225 249 0
229 249 0
233 249 0
236 248 0
238 248 0
240 248 0
241 248 0
242 248 0
243 248 0
243 249 0
217 250 0
217 250 0
216 250 0
216 251 0
216 251 0
215 251 0
215 252 0
215 252 0
214 252 0
214 252 0
214 252 0
214 252 0
213 252 0
213 251 0
213 251 0
212 251 0
211 251 0
209 251 0
208 251 0
206 251 0
203 251 0
201 252 0
198 252 0
196 253 0
193 253 0
192 253 0
190 254 0
189 254 0
189 254 0
189 254 0
190 254 0
191 254 0
194 254 0
196 254 0
200 253 0
203 253 0
208 252 0
212 251 0
217 251 0
221 250 0
226 249 0
230 249 0
234 248 0
238 248 0
240 248 0
243 248 0
244 248 0
246 248 0
246 248 0
247 248 0
218 250 0
217 250 0
217 250 0
217 251 0
217 251 0
216 251 0
216 252 0
215 252 0
215 252 0
215 252 0
214 252 0
214 252 0
214 251 0
213 251 0
213 251 0
212 251 0
211 251 0
210 251 0
208 251 0
206 251 0
204 251 0
201 252 0
199 252 0
197 253 0
195 253 0
193 253 0
191 254 0
190 254 0
190 254 0
190 254 0
191 254 0
192 254 0
194 254 0
197 254 0
200 253 0
204 253 0
208 252 0
212 252 0
217 251 0
222 250 0
227 249 0
231 249 0
235 248 0
239 248 0
242 247 0
245 247 0
247 247 0
248 247 0
249 247 0
250 247 0
218 250 0
218 250 0
218 250 0
217 251 0
217 251 0
217 251 0
216 251 0
216 252 0
215 252 0
215 252 0
215 252 0
214 252 0
214 251 0
213 251 0
213 251 0
212 251 0
211 251 0
209 251 0
208 251 0
206 251 0
204 251 0
202 252 0
200 252 0
198 253 0
196 253 0
194 253 0
193 254 0
192 254 0
191 254 0
191 254 0
192 254 0
193 254 0
195 254 0
197 254 0
200 254 0
204 253 0
208 253 0
212 252 0
217 251 0
222 250 0
227 249 0
232 249 0
236 248 0
240 247 0
244 247 0
247 246 0
249 246 0
251 246 0
252 246 0
252 246 0
218 250 0
218 250 0
217 250 0
217 251 0
217 251 0
217 251 0
216 251 0
216 252 0
215 252 0
215 252 0
215 252 0
214 251 0
214 251 0
213 251 0
212 251 0
211 251 0
210 251 0
209 251 0
208 251 0
206 251 0
204 251 0
202 252 0
200 252 0
199 253 0
197 253 0
196 253 0
194 254 0
194 254 0
193 254 0
193 254 0
193 254 0
194 254 0
196 254 0
198 254 0
201 254 0
204 253 0
208 253 0
213 252 0
218 251 0
223 250 0
228 249 0
233 249 0
237 248 0
241 247 0
245 246 0
248 246 0
250 246 0
252 245 0
253 245 0
254 245 0
217 250 0
217 250 0
217 251 0
217 251 0
216 251 0
216 251 0
216 251 0
215 252 0
215 252 0
215 252 0
214 252 0
214 252 0
213 251 0
212 251 0
211 251 0
210 251 0
209 251 0
208 251 0
207 251 0
205 251 0
204 252 0
202 252 0
201 252 0
200 252 0
198 253 0
197 253 0
196 253 0
195 254 0
195 254 0
195 254 0
195 254 0
196 254 0
197 254 0
199 254 0
202 254 0
205 253 0
209 253 0
213 252 0
218 251 0
223 250 0
228 249 0
233 248 0
237 248 0
242 247 0
245 246 0
248 246 0
251 245 0
253 245 0
254 245 0
255 245 0
216 251 0
216 251 0
216 251 0
215 251 0
215 251 0
215 251 0
215 252 0
214 252 0
214 252 0
214 252 0
213 252 0
212 252 0
212 252 0
211 251 0
210 251 0
209 251 0
208 251 0
207 251 0
206 251 0
205 251 0
204 252 0
203 252 0
201 252 0
200 252 0
200 253 0
199 253 0
198 253 0
197 254 0
197 254 0
197 254 0
197 254 0
198 254 0
199 254 0
201 254 0
203 254 0
206 253 0
210 253 0
214 252 0
218 251 0
223 250 0
228 249 0
233 248 0
237 248 0
241 247 0
245 246 0
248 245 0
250 245 0
252 245 0
253 245 0
254 245 0
214 251 0
214 251 0
214 251 0
214 251 0
214 251 0
213 252 0
213 252 0
213 252 0
213 252 0
212 252 0
212 252 0
211 252 0
210 252 0
210 252 0
209 252 0
208 252 0
207 252 0
206 252 0
205 252 0
204 252 0
203 252 0
202 252 0
202 252 0
201 252 0
201 253 0
200 253 0
200 253 0
200 253 0
200 253 0
200 254 0
200 254 0
200 254 0
201 254 0
203 254 0
205 253 0
207 253 0
211 253 0
214 252 0
219 251 0
223 250 0
228 249 0
232 248 0
237 248 0
241 247 0
244 246 0
247 246 0
249 245 0
251 245 0
252 245 0
253 245 0
212 251 0
212 251 0
212 251 0
212 252 0
212 252 0
211 252 0
211 252 0
211 252 0
211 252 0
211 252 0
210 252 0
209 252 0
209 252 0
208 252 0
207 252 0
206 252 0
205 252 0
204 252 0
204 252 0
203 252 0
203 252 0
202 252 0
202 252 0
202 252 0
202 252 0
202 252 0
202 253 0
202 253 0
202 253 0
202 253 0
202 253 0
203 253 0
204 253 0
205 253 0
207 253 0
209 253 0
212 252 0
215 252 0
219 251 0
223 250 0
227 249 0
231 248 0
235 248 0
239 247 0
242 246 0
245 246 0
247 245 0
249 245 0
250 245 0
250 245 0
209 252 0
209 252 0
209 252 0
209 252 0
209 252 0
209 252 0
209 252 0
209 252 0
209 252 0
209 252 0
208 252 0
208 252 0
207 252 0
206 252 0
205 252 0
204 252 0
203 252 0
203 252 0
202 252 0
202 252 0
202 252 0
202 252 0
202 252 0
203 252 0
203 252 0
204 252 0
204 252 0
205 252 0
205 253 0
205 253 0
205 253 0
206 253 0
206 253 0
207 253 0
208 253 0
210 253 0
213 252 0
216 252 0
219 251 0
223 250 0
227 249 0
230 248 0
234 248 0
237 247 0
240 247 0
242 246 0
244 246 0
246 246 0
246 246 0
247 245 0
207 252 0
207 252 0
207 252 0
207 252 0
207 252 0
207 253 0
207 253 0
207 253 0
207 253 0
207 253 0
207 252 0
206 252 0
205 252 0
205 252 0
204 253 0
203 253 0
202 253 0
201 253 0
201 253 0
201 252 0
201 252 0
202 252 0
203 252 0
204 252 0
204 252 0
205 252 0
206 252 0
207 252 0
207 252 0
208 252 0
208 252 0
208 252 0
209 253 0
209 253 0
210 252 0
212 252 0
214 252 0
216 251 0
219 251 0
222 250 0
225 249 0
229 249 0
232 248 0
235 247 0
237 247 0
239 247 0
241 246 0
242 246 0
243 246 0
243 246 0
204 253 0
204 253 0
204 253 0
204 253 0
205 253 0
205 253 0
205 253 0
205 253 0
205 253 0
205 253 0
205 253 0
205 253 0
204 253 0
203 253 0
202 253 0
201 253 0
201 253 0
200 253 0
200 253 0
200 253 0
201 252 0
202 252 0
203 252 0
204 252 0
205 252 0
207 252 0
208 251 0
209 251 0
210 252 0
210 252 0
210 252 0
211 252 0
211 252 0
211 252 0
212 252 0
213 252 0
214 252 0
216 251 0
219 251 0
221 250 0
224 250 0
227 249 0
229 248 0
232 248 0
234 247 0
236 247 0
237 247 0
238 247 0
239 247 0
239 247 0
202 253 0
202 253 0
202 253 0
202 253 0
202 253 0
203 253 0
203 253 0
204 253 0
204 253 0
204 253 0
204 253 0
203 253 0
203 253 0
202 253 0
201 253 0
200 253 0
200 253 0
199 253 0
199 253 0
200 253 0
200 252 0
201 252 0
203 252 0
205 252 0
206 252 0
208 251 0
210 251 0
211 251 0
212 251 0
212 251 0
213 251 0
213 251 0
213 252 0
213 252 0
213 252 0
214 252 0
215 251 0
216 251 0
218 251 0
220 250 0
222 250 0
224 249 0
227 249 0
229 248 0
230 248 0
232 248 0
233 248 0
234 247 0
234 247 0
235 247 0
199 253 0
200 253 0
200 253 0
200 253 0
201 253 0
201 253 0
202 253 0
202 253 0
203 253 0
203 253 0
203 252 0
202 252 0
202 252 0
201 252 0
200 253 0
199 253 0
199 253 0
198 253 0
198 253 0
199 253 0
200 252 0
201 252 0
203 252 0
205 252 0
207 251 0
209 251 0
211 251 0
212 251 0
214 251 0
214 251 0
215 251 0
215 251 0
215 251 0
214 251 0
214 251 0
214 251 0
215 251 0
216 251 0
217 251 0
218 251 0
220 250 0
222 250 0
223 249 0
225 249 0
227 249 0
228 248 0
229 248 0
230 248 0
230 248 0
230 248 0
198 254 0
198 254 0
198 254 0
199 254 0
199 253 0
200 253 0
200 253 0
201 253 0
202 253 0
202 252 0
202 252 0
202 252 0
201 252 0
200 252 0
200 252 0
199 252 0
198 253 0
198 253 0
198 253 0
198 252 0
200 252 0
201 252 0
203 252 0
205 251 0
208 251 0
210 251 0
212 251 0
214 250 0
215 250 0
216 250 0
216 250 0
216 250 0
216 251 0
215 251 0
215 251 0
214 251 0
214 251 0
214 251 0
215 251 0
216 251 0
217 251 0
219 250 0
220 250 0
221 249 0
223 249 0
224 249 0
225 249 0
226 249 0
226 248 0
226 248 0
197 254 0
197 254 0
197 254 0
198 254 0
198 254 0
199 253 0
200 253 0
200 253 0
201 253 0
201 252 0
201 252 0
201 252 0
201 252 0
200 252 0
199 252 0
198 252 0
198 252 0
197 252 0
197 252 0
198 252 0
199 252 0
201 252 0
203 252 0
205 251 0
208 251 0
210 251 0
212 250 0
214 250 0
216 250 0
217 250 0
217 250 0
217 250 0
216 250 0
216 251 0
215 251 0
214 251 0
213 251 0
213 252 0
213 252 0
213 251 0
214 251 0
215 251 0
216 250 0
218 250 0
219 250 0
220 249 0
221 249 0
221 249 0
222 249 0
222 249 0
196 254 0
196 254 0
197 254 0
197 254 0
198 254 0
198 253 0
199 253 0
200 253 0
201 252 0
201 252 0
201 252 0
201 252 0
200 252 0
200 252 0
199 252 0
198 252 0
197 252 0
197 252 0
197 252 0
198 252 0
199 252 0
201 252 0
203 252 0
205 251 0
208 251 0
210 250 0
213 250 0
215 250 0
216 250 0
217 250 0
217 250 0
217 250 0
216 250 0
215 251 0
214 251 0
213 251 0
212 252 0
211 252 0
210 252 0
210 252 0
211 252 0
211 251 0
212 251 0
214 251 0
215 250 0
216 250 0
217 250 0
218 249 0
218 249 0
218 249 0
196 254 0
197 254 0
197 254 0
197 254 0
198 253 0
198 253 0
199 253 0
200 253 0
200 252 0
201 252 0
201 252 0
201 252 0
200 252 0
199 252 0
198 252 0
197 252 0
197 252 0
196 252 0
197 252 0
197 252 0
199 252 0
200 252 0
203 251 0
205 251 0
208 251 0
210 250 0
213 250 0
215 250 0
216 249 0
217 249 0
217 249 0
217 250 0
216 250 0
215 251 0
213 251 0
211 252 0
210 252 0
208 252 0
208 252 0
207 252 0
207 252 0
208 252 0
208 252 0
209 251 0
211 251 0
212 251 0
213 250 0
214 250 0
214 250 0
215 250 0
197 254 0
197 254 0
197 254 0
198 254 0
198 253 0
199 253 0
199 253 0
200 253 0
200 252 0
201 252 0
201 252 0
200 251 0
200 251 0
199 251 0
198 252 0
197 252 0
196 252 0
196 252 0
196 252 0
197 252 0
198 252 0
200 251 0
202 251 0
205 251 0
207 250 0
210 250 0
212 250 0
214 250 0
216 249 0
216 249 0
216 250 0
216 250 0
215 250 0
213 251 0
211 251 0
209 252 0
207 252 0
206 253 0
204 253 0
204 253 0
203 253 0
204 253 0
204 252 0
205 252 0
207 252 0
208 251 0
209 251 0
210 250 0
211 250 0
211 250 0
198 254 0
198 253 0
198 253 0
199 253 0
199 253 0
199 253 0
200 253 0
200 252 0
201 252 0
201 252 0
201 252 0
200 251 0
199 251 0
198 251 0
197 251 0
197 252 0
196 252 0
196 252 0
196 252 0
196 252 0
198 251 0
200 251 0
202 251 0
204 251 0
207 250 0
209 250 0
211 250 0
213 250 0
215 250 0
215 250 0
215 250 0
215 250 0
213 250 0
212 251 0
209 251 0
207 252 0
205 253 0
203 253 0
201 253 0
200 253 0
200 253 0
200 253 0
200 253 0
201 252 0
203 252 0
204 252 0
205 251 0
206 251 0
207 251 0
208 250 0
199 253 0
199 253 0
199 253 0
200 253 0
200 253 0
200 253 0
200 253 0
201 252 0
201 252 0
201 252 0
200 252 0
200 251 0
199 251 0
198 251 0
197 251 0
196 252 0
195 252 0
195 252 0
195 252 0
196 252 0
197 251 0
199 251 0
201 251 0
203 251 0
206 250 0
208 250 0
210 250 0
212 250 0
213 250 0
214 250 0
214 250 0
213 250 0
211 251 0
210 251 0
207 252 0
205 252 0
202 253 0
200 253 0
198 254 0
197 254 0
196 254 0
196 254 0
197 253 0
198 253 0
199 253 0
200 252 0
202 252 0
203 251 0
204 251 0
204 251 0
201 253 0
201 253 0
201 253 0
201 253 0
201 253 0
201 253 0
201 252 0
201 252 0
201 252 0
201 252 0
200 252 0
200 251 0
199 251 0
198 251 0
196 252 0
195 252 0
195 252 0
194 252 0
195 252 0
195 252 0
197 251 0
198 251 0
200 251 0
203 251 0
205 250 0
207 250 0
209 250 0
210 250 0
211 250 0
212 250 0
212 250 0
211 251 0
209 251 0
207 251 0
205 252 0
202 253 0
200 253 0
197 254 0
195 254 0
194 254 0
193 254 0
193 254 0
193 254 0
194 253 0
196 253 0
197 252 0
199 252 0
200 252 0
201 251 0
201 251 0
203 253 0
203 253 0
203 253 0
202 253 0
202 253 0
202 252 0
202 252 0
202 252 0
202 252 0
201 252 0
200 252 0
200 252 0
198 252 0
197 252 0
196 252 0
195 252 0
194 252 0
194 252 0
194 252 0
195 252 0
196 251 0
198 251 0
200 251 0
202 251 0
204 251 0
206 250 0
207 250 0
209 250 0
209 250 0
210 251 0
209 251 0
208 251 0
207 251 0
205 252 0
203 252 0
200 253 0
197 253 0
195 254 0
193 254 0
191 254 0
190 254 0
190 254 0
190 254 0
191 254 0
193 253 0
194 253 0
196 252 0
197 252 0
198 252 0
198 252 0
204 252 0
204 252 0
204 252 0
204 252 0
204 252 0
203 252 0
203 252 0
203 252 0
202 252 0
202 252 0
201 252 0
200 252 0
198 252 0
197 252 0
196 252 0
195 252 0
194 252 0
194 252 0
194 252 0
195 252 0
196 251 0
197 251 0
199 251 0
201 251 0
203 251 0
204 251 0
206 251 0
207 251 0
207 251 0
207 251 0
207 251 0
206 251 0
205 252 0
203 252 0
200 253 0
198 253 0
195 254 0
193 254 0
190 254 0
189 254 0
188 254 0
188 254 0
188 254 0
189 254 0
190 253 0
192 253 0
193 253 0
195 252 0
196 252 0
196 252 0
206 252 0
206 252 0
206 252 0
205 252 0
205 252 0
205 252 0
204 252 0
204 252 0
203 252 0
202 252 0
201 252 0
200 252 0
198 252 0
197 252 0
196 252 0
195 252 0
194 252 0
193 252 0
194 252 0
194 252 0
195 251 0
197 251 0
198 251 0
200 251 0
202 251 0
203 251 0
204 251 0
205 251 0
205 251 0
205 251 0
205 252 0
204 252 0
202 252 0
200 253 0
198 253 0
196 253 0
193 254 0
191 254 0
189 254 0
187 254 0
186 254 0
186 254 0
186 254 0
187 254 0
188 254 0
190 253 0
191 253 0
193 253 0
194 252 0
194 252 0
208 252 0
207 252 0
207 252 0
207 252 0
207 252 0
206 252 0
206 252 0
205 252 0
204 252 0
203 252 0
202 252 0
200 252 0
199 252 0
197 252 0
196 252 0
195 252 0
194 252 0
194 252 0
194 252 0
194 252 0
195 252 0
197 251 0
198 251 0
200 251 0
201 251 0
202 251 0
203 251 0
203 251 0
203 252 0
203 252 0
203 252 0
202 252 0
200 253 0
198 253 0
196 253 0
194 254 0
192 254 0
189 254 0
187 254 0
186 254 0
185 255 0
185 254 0
185 254 0
186 254 0
187 254 0
188 253 0
190 253 0
191 253 0
192 253 0
193 253 0
209 252 0
209 252 0
208 252 0
208 252 0
208 252 0
207 252 0
207 252 0
206 252 0
205 252 0
204 252 0
203 252 0
201 252 0
200 252 0
198 252 0
197 252 0
195 252 0
195 252 0
194 252 0
194 252 0
195 252 0
196 252 0
197 252 0
198 251 0
199 251 0
200 251 0
201 251 0
202 252 0
202 252 0
202 252 0
201 252 0
201 252 0
200 253 0
198 253 0
197 253 0
195 253 0
193 254 0
190 254 0
188 254 0
186 254 0
185 254 0
184 254 0
184 254 0
184 254 0
185 254 0
186 254 0
188 254 0
189 253 0
190 253 0
191 253 0
192 253 0
210 252 0
210 252 0
209 252 0
209 252 0
209 252 0
208 252 0
208 252 0
207 251 0
206 251 0
205 251 0
204 252 0
202 252 0
201 252 0
199 252 0
198 252 0
196 252 0
195 252 0
195 252 0
195 252 0
195 252 0
196 252 0
197 252 0
198 251 0
199 251 0
200 251 0
200 252 0
201 252 0
201 252 0
201 252 0
200 253 0
199 253 0
198 253 0
197 253 0
196 253 0
194 254 0
192 254 0
190 254 0
188 254 0
186 254 0
185 254 0
184 254 0
184 254 0
184 254 0
185 254 0
186 254 0
188 254 0
189 253 0
190 253 0
191 253 0
192 253 0
210 252 0
210 252 0
210 252 0
210 252 0
210 252 0
209 251 0
209 251 0
208 251 0
207 251 0
206 251 0
205 251 0
204 252 0
202 252 0
200 252 0
199 252 0
198 252 0
197 252 0
196 252 0
196 252 0
196 252 0
197 252 0
198 252 0
199 252 0
199 251 0
200 252 0
200 252 0
200 252 0
200 252 0
200 253 0
199 253 0
198 253 0
197 253 0
196 253 0
195 254 0
193 254 0
191 254 0
190 254 0
188 254 0
186 254 0
185 254 0
185 254 0
185 254 0
185 254 0
186 254 0
187 254 0
188 254 0
189 253 0
190 253 0
191 253 0
192 253 0
210 252 0
210 252 0
210 252 0
210 252 0
210 252 0
210 251 0
209 251 0
209 251 0
208 251 0
207 251 0
206 251 0
205 252 0
203 252 0
202 252 0
200 252 0
199 252 0
198 252 0
198 252 0
198 252 0
198 252 0
198 252 0
199 252 0
199 252 0
200 252 0
200 252 0
200 252 0
200 252 0
200 252 0
199 253 0
199 253 0
198 253 0
197 253 0
196 253 0
194 254 0
193 254 0
191 254 0
190 254 0
188 254 0
187 254 0
186 254 0
186 254 0
186 254 0
186 254 0
187 254 0
188 254 0
189 253 0
190 253 0
191 253 0
192 253 0
192 253 0
210 252 0
210 252 0
210 252 0
210 252 0
210 252 0
210 252 0
210 251 0
210 251 0
209 251 0
208 251 0
207 251 0
206 251 0
205 252 0
204 252 0
202 252 0
201 252 0
200 252 0
200 252 0
200 252 0
200 252 0
200 252 0
200 252 0
201 251 0
201 251 0
201 252 0
201 252 0
200 252 0
200 252 0
199 253 0
198 253 0
198 253 0
197 253 0
196 254 0
194 254 0
193 254 0
192 254 0
190 254 0
189 254 0
188 254 0
187 254 0
187 254 0
187 254 0
187 254 0
188 254 0
189 254 0
190 253 0
191 253 0
192 253 0
193 253 0
193 253 0
209 252 0
209 252 0
209 252 0
210 252 0
210 252 0
210 252 0
210 251 0
210 251 0
210 251 0
209 251 0
209 251 0
208 251 0
207 252 0
205 252 0
204 252 0
203 252 0
202 252 0
202 252 0
202 252 0
202 252 0
202 252 0
202 251 0
202 251 0
202 251 0
202 252 0
201 252 0
201 252 0
200 252 0
199 253 0
199 253 0
198 253 0
197 253 0
196 253 0
195 254 0
194 254 0
193 254 0
192 254 0
190 254 0
190 254 0
189 254 0
189 254 0
189 254 0
189 254 0
190 254 0
191 253 0
192 253 0
193 253 0
194 253 0
194 253 0
195 253 0
208 252 0
208 252 0
208 252 0
209 252 0
209 252 0
210 252 0
210 252 0
210 251 0
210 251 0
210 251 0
210 251 0
209 251 0
208 252 0
207 252 0
206 252 0
205 252 0
205 252 0
204 252 0
204 252 0
204 252 0
204 251 0
204 251 0
204 251 0
203 251 0
203 251 0
202 252 0
202 252 0
201 252 0
200 253 0
199 253 0
198 253 0
198 253 0
197 253 0
196 253 0
195 254 0
194 254 0
193 254 0
192 254 0
191 254 0
191 254 0
191 254 0
191 254 0
191 253 0
192 253 0
193 253 0
194 253 0
195 253 0
195 253 0
196 253 0
196 253 0
206 253 0
206 253 0
207 252 0
207 252 0
208 252 0
209 252 0
210 252 0
210 251 0
211 251 0
211 251 0
211 251 0
210 251 0
210 251 0
209 252 0
208 252 0
207 252 0
207 252 0
206 252 0
206 251 0
206 251 0
206 251 0
206 251 0
205 251 0
205 251 0
204 251 0
204 251 0
203 252 0
202 252 0
201 252 0
200 253 0
199 253 0
199 253 0
198 253 0
197 253 0
196 253 0
195 253 0
195 253 0
194 253 0
193 253 0
193 253 0
193 253 0
193 253 0
193 253 0
194 253 0
195 253 0
196 253 0
196 253 0
197 253 0
198 252 0
198 252 0
204 253 0
204 253 0
205 253 0
206 252 0
207 252 0
208 252 0
209 252 0
210 252 0
211 251 0
211 251 0
211 251 0
211 251 0
211 251 0
211 251 0
210 251 0
210 251 0
209 251 0
209 251 0
208 251 0
208 251 0
208 251 0
208 251 0
207 251 0
207 251 0
206 251 0
205 251 0
204 251 0
203 252 0
202 252 0
201 252 0
200 253 0
200 253 0
199 253 0
198 253 0
198 253 0
197 253 0
196 253 0
196 253 0
195 253 0
195 253 0
195 253 0
195 253 0
195 253 0
196 253 0
196 253 0
197 253 0
198 253 0
199 252 0
199 252 0
199 252 0
202 253 0
202 253 0
203 253 0
204 253 0
206 252 0
207 252 0
209 252 0
210 252 0
211 251 0
212 251 0
212 251 0
212 251 0
212 251 0
212 251 0
212 251 0
212 251 0
211 251 0
211 251 0
211 251 0
210 251 0
210 250 0
210 250 0
209 250 0
208 250 0
207 251 0
206 251 0
205 251 0
204 251 0
203 252 0
202 252 0
202 252 0
201 252 0
200 252 0
200 252 0
199 252 0
199 252 0
198 252 0
198 252 0
197 253 0
197 253 0
197 253 0
197 253 0
197 253 0
198 253 0
198 253 0
199 252 0
199 252 0
200 252 0
200 252 0
200 252 0
200 253 0
201 253 0
202 253 0
203 253 0
205 252 0
206 252 0
208 252 0
210 252 0
211 251 0
212 251 0
213 251 0
213 251 0
214 251 0
214 251 0
213 251 0
213 251 0
213 251 0
213 251 0
213 250 0
212 250 0
212 250 0
211 250 0
211 250 0
210 250 0
209 250 0
208 251 0
207 251 0
206 251 0
205 251 0
204 252 0
203 252 0
202 252 0
202 252 0
201 252 0
201 252 0
201 252 0
200 252 0
200 252 0
199 252 0
199 252 0
199 252 0
199 252 0
199 252 0
199 252 0
199 252 0
200 252 0
200 252 0
201 252 0
201 252 0
201 252 0
198 253 0
199 253 0
200 253 0
202 253 0
203 252 0
205 252 0
208 252 0
209 252 0
211 251 0
212 251 0
213 251 0
214 251 0
214 251 0
215 251 0
215 251 0
215 251 0
215 251 0
215 250 0
214 250 0
214 250 0
213 250 0
213 250 0
212 250 0
211 250 0
210 250 0
209 250 0
208 251 0
207 251 0
206 251 0
205 251 0
204 251 0
204 252 0
203 252 0
203 252 0
203 252 0
202 252 0
202 252 0
201 252 0
201 252 0
201 252 0
200 252 0
200 252 0
200 252 0
200 252 0
201 252 0
201 252 0
201 252 0
202 252 0
202 252 0
202 252 0
197 253 0
197 253 0
199 253 0
200 253 0
203 252 0
205 252 0
207 252 0
209 252 0
211 251 0
213 251 0
214 251 0
215 251 0
215 251 0
216 251 0
216 251 0
216 251 0
216 250 0
216 250 0
216 250 0
215 250 0
215 250 0
214 249 0
213 249 0
212 250 0
211 250 0
210 250 0
209 250 0
208 251 0
207 251 0
206 251 0
205 251 0
205 251 0
204 251 0
204 251 0
204 251 0
203 251 0
203 251 0
203 251 0
202 251 0
202 252 0
201 252 0
201 252 0
201 252 0
201 252 0
201 252 0
202 252 0
202 252 0
202 252 0
203 252 0
203 252 0
196 253 0
196 253 0
198 253 0
200 253 0
202 252 0
204 252 0
207 252 0
209 252 0
211 251 0
213 251 0
214 251 0
215 251 0
216 251 0
216 251 0
217 251 0
217 250 0
217 250 0
217 250 0
217 250 0
216 250 0
216 249 0
215 249 0
214 249 0
213 249 0
212 250 0
211 250 0
209 250 0
208 250 0
207 251 0
206 251 0
206 251 0
205 251 0
205 251 0
205 251 0
205 251 0
204 251 0
204 251 0
204 251 0
203 251 0
203 251 0
202 252 0
202 252 0
202 252 0
202 252 0
202 252 0
202 252 0
202 252 0
203 253 0
203 253 0
203 253 0
195 253 0
196 253 0
197 253 0
199 253 0
202 252 0
204 252 0
207 252 0
209 252 0
211 251 0
213 251 0
214 251 0
215 251 0
216 251 0
217 251 0
217 251 0
217 250 0
217 250 0
217 250 0
217 250 0
217 249 0
216 249 0
215 249 0
214 249 0
213 249 0
212 249 0
211 250 0
210 250 0
209 250 0
208 250 0
207 251 0
206 251 0
206 251 0
206 251 0
205 251 0
205 251 0
205 251 0
205 251 0
204 251 0
204 251 0
203 251 0
203 251 0
202 252 0
202 252 0
202 252 0
202 252 0
202 252 0
203 253 0
203 253 0
203 253 0
203 253 0
