P3
50 50
255
254 201 0
254 201 0
254 200 0
254 200 0
254 200 0
254 199 0
254 199 0
254 198 0
254 197 0
254 196 0
253 195 0
253 194 0
253 193 0
253 191 0
253 190 0
252 188 0
252 187 0
252 185 0
251 184 0
251 182 0
251 181 0
250 180 0
250 179 0
250 178 0
250 178 0
249 178 0
249 178 0
249 179 0
250 180 0
250 181 0
250 183 0
250 185 0
251 188 0
251 191 0
252 194 0
252 198 0
252 202 0
253 206 0
253 211 0
253 215 0
253 220 0
253 225 0
253 229 0
253 233 0
253 237 0
253 240 0
252 243 0
252 245 0
252 247 0
252 247 0
254 201 0
254 201 0
254 201 0
254 200 0
254 200 0
254 199 0
254 199 0
254 198 0
254 197 0
254 196 0
253 195 0
253 194 0
253 193 0
253 191 0
253 190 0
252 188 0
252 187 0
252 185 0
251 184 0
251 182 0
251 181 0
250 180 0
250 179 0
250 178 0
250 178 0
249 178 0
249 178 0
249 179 0
250 180 0
250 181 0
250 183 0
250 185 0
251 188 0
251 191 0
252 194 0
252 198 0
252 202 0
253 206 0
253 211 0
253 216 0
253 220 0
253 225 0
253 229 0
253 233 0
253 237 0
253 241 0
252 243 0
252 245 0
252 247 0
252 248 0
254 201 0
254 201 0
254 201 0
254 200 0
254 200 0
254 199 0
254 199 0
254 198 0
254 197 0
254 196 0
253 195 0
253 194 0
253 193 0
253 191 0
253 190 0
252 188 0
252 187 0
252 185 0
251 184 0
251 183 0
251 181 0
250 180 0
250 179 0
250 179 0
250 178 0
250 178 0
249 178 0
250 179 0
250 180 0
250 181 0
250 183 0
250 185 0
251 188 0
251 191 0
252 195 0
252 198 0
252 202 0
253 207 0
253 211 0
253 216 0
253 221 0
253 225 0
253 230 0
253 234 0
253 238 0
253 241 0
252 244 0
252 246 0
252 247 0
252 248 0
254 201 0
254 201 0
254 201 0
254 201 0
254 200 0
254 200 0
254 199 0
254 198 0
254 197 0
254 196 0
253 195 0
253 194 0
253 193 0
253 192 0
253 190 0
252 189 0
252 187 0
252 186 0
251 184 0
251 183 0
251 182 0
250 180 0
250 180 0
250 179 0
250 179 0
250 178 0
250 179 0
250 179 0
250 180 0
250 182 0
250 184 0
250 186 0
251 189 0
251 192 0
252 195 0
252 199 0
252 203 0
253 207 0
253 212 0
253 216 0
253 221 0
253 226 0
253 230 0
253 234 0
253 238 0
253 242 0
252 244 0
252 247 0
252 248 0
252 249 0
254 201 0
254 201 0
254 201 0
254 201 0
254 200 0
254 200 0
254 199 0
254 198 0
254 198 0
254 197 0
254 196 0
253 194 0
253 193 0
253 192 0
253 190 0
252 189 0
252 187 0
252 186 0
252 185 0
251 183 0
251 182 0
251 181 0
250 180 0
250 179 0
250 179 0
250 179 0
250 179 0
250 180 0
250 181 0
250 182 0
250 184 0
251 186 0
251 189 0
251 192 0
252 196 0
252 199 0
252 204 0
253 208 0
253 212 0
253 217 0
253 222 0
253 226 0
253 231 0
253 235 0
253 239 0
253 242 0
252 245 0
252 247 0
252 249 0
252 250 0
254 202 0
254 201 0
254 201 0
254 201 0
254 201 0
254 200 0
254 199 0
254 199 0
254 198 0
254 197 0
254 196 0
253 195 0
253 193 0
253 192 0
253 191 0
253 189 0
252 188 0
252 186 0
252 185 0
251 184 0
251 182 0
251 181 0
250 181 0
250 180 0
250 180 0
250 180 0
250 180 0
250 181 0
250 182 0
250 183 0
250 185 0
251 187 0
251 190 0
251 193 0
252 196 0
252 200 0
253 204 0
253 209 0
253 213 0
253 218 0
253 223 0
253 227 0
253 232 0
253 236 0
253 240 0
252 243 0
252 246 0
252 248 0
252 250 0
252 250 0
254 202 0
254 202 0
254 201 0
254 201 0
254 201 0
254 200 0
254 200 0
254 199 0
254 198 0
254 197 0
254 196 0
253 195 0
253 194 0
253 192 0
253 191 0
253 190 0
252 188 0
252 187 0
252 185 0
251 184 0
251 183 0
251 182 0
251 181 0
250 181 0
250 180 0
250 180 0
250 181 0
250 181 0
250 182 0
250 184 0
251 186 0
251 188 0
251 191 0
252 194 0
252 197 0
252 201 0
253 205 0
253 209 0
253 214 0
253 219 0
253 223 0
253 228 0
253 233 0
253 237 0
253 241 0
252 244 0
252 247 0
252 249 0
252 251 0
252 251 0
254 202 0
254 202 0
254 202 0
254 201 0
254 201 0
254 200 0
254 200 0
254 199 0
254 198 0
254 197 0
254 196 0
254 195 0
253 194 0
253 193 0
253 191 0
253 190 0
252 189 0
252 187 0
252 186 0
252 185 0
251 184 0
251 183 0
251 182 0
251 181 0
250 181 0
250 181 0
250 181 0
250 182 0
250 183 0
251 185 0
251 187 0
251 189 0
251 192 0
252 195 0
252 198 0
252 202 0
253 206 0
253 210 0
253 215 0
253 220 0
253 224 0
253 229 0
253 234 0
253 238 0
253 242 0
252 245 0
252 248 0
252 250 0
252 252 0
252 252 0
254 202 0
254 202 0
254 202 0
254 201 0
254 201 0
254 201 0
254 200 0
254 199 0
254 198 0
254 198 0
254 197 0
254 195 0
253 194 0
253 193 0
253 192 0
253 190 0
252 189 0
252 188 0
252 186 0
252 185 0
251 184 0
251 183 0
251 182 0
251 182 0
251 182 0
250 182 0
250 182 0
250 183 0
251 184 0
251 186 0
251 188 0
251 190 0
252 193 0
252 196 0
252 199 0
253 203 0
253 207 0
253 211 0
253 216 0
253 221 0
253 225 0
253 230 0
253 234 0
253 239 0
253 242 0
252 246 0
252 249 0
252 251 0
252 252 0
252 253 0
254 202 0
254 202 0
254 202 0
254 201 0
254 201 0
254 201 0
254 200 0
254 199 0
254 198 0
254 198 0
254 197 0
254 196 0
253 194 0
253 193 0
253 192 0
253 191 0
253 189 0
252 188 0
252 187 0
252 186 0
252 185 0
251 184 0
251 183 0
251 183 0
251 183 0
251 183 0
251 183 0
251 184 0
251 185 0
251 187 0
251 189 0
251 191 0
252 194 0
252 197 0
252 200 0
253 204 0
253 208 0
253 212 0
253 217 0
253 221 0
253 226 0
253 231 0
253 235 0
253 239 0
253 243 0
252 247 0
252 249 0
252 252 0
252 253 0
251 254 0
254 202 0
254 202 0
254 202 0
254 201 0
254 201 0
254 200 0
254 200 0
254 199 0
254 198 0
254 198 0
254 197 0
254 196 0
253 195 0
253 193 0
253 192 0
253 191 0
253 190 0
252 188 0
252 187 0
252 186 0
252 185 0
251 185 0
251 184 0
251 184 0
251 184 0
251 184 0
251 184 0
251 185 0
251 186 0
251 188 0
251 190 0
252 192 0
252 195 0
252 198 0
253 201 0
253 205 0
253 209 0
253 213 0
253 218 0
253 222 0
253 227 0
253 231 0
253 236 0
253 240 0
253 244 0
252 247 0
252 250 0
252 252 0
252 254 0
251 254 0
254 202 0
254 202 0
254 201 0
254 201 0
254 201 0
254 200 0
254 200 0
254 199 0
254 198 0
254 198 0
254 197 0
254 196 0
253 195 0
253 193 0
253 192 0
253 191 0
253 190 0
252 189 0
252 188 0
252 187 0
252 186 0
252 185 0
251 185 0
251 184 0
251 184 0
251 185 0
251 185 0
251 186 0
251 187 0
251 189 0
252 191 0
252 193 0
252 196 0
252 199 0
253 202 0
253 206 0
253 210 0
253 214 0
253 218 0
253 223 0
253 227 0
253 232 0
253 236 0
253 240 0
253 244 0
252 247 0
252 250 0
252 252 0
252 254 0
251 255 0
254 201 0
254 201 0
254 201 0
254 201 0
254 200 0
254 200 0
254 199 0
254 199 0
254 198 0
254 197 0
254 196 0
254 195 0
253 194 0
253 193 0
253 192 0
253 191 0
253 190 0
253 189 0
252 188 0
252 187 0
252 187 0
252 186 0
252 185 0
251 185 0
251 185 0
251 186 0
251 186 0
251 187 0
252 188 0
252 190 0
252 192 0
252 194 0
252 197 0
253 200 0
253 203 0
253 207 0
253 211 0
253 215 0
254 219 0
254 223 0
253 228 0
253 232 0
253 237 0
253 241 0
253 244 0
252 247 0
252 250 0
252 252 0
252 254 0
252 254 0
254 201 0
254 201 0
254 201 0
254 200 0
254 200 0
254 200 0
254 199 0
254 198 0
254 198 0
254 197 0
254 196 0
254 195 0
253 194 0
253 193 0
253 192 0
253 191 0
253 190 0
253 189 0
252 189 0
252 188 0
252 187 0
252 187 0
252 186 0
252 186 0
252 186 0
252 186 0
252 187 0
252 188 0
252 189 0
252 191 0
252 193 0
252 195 0
253 198 0
253 200 0
253 204 0
253 207 0
253 211 0
254 215 0
254 219 0
254 224 0
254 228 0
253 232 0
253 236 0
253 240 0
253 244 0
252 247 0
252 250 0
252 252 0
252 253 0
252 254 0
254 200 0
254 200 0
254 200 0
254 200 0
254 199 0
254 199 0
254 198 0
254 198 0
254 197 0
254 197 0
254 196 0
254 195 0
253 194 0
253 193 0
253 192 0
253 191 0
253 190 0
253 190 0
252 189 0
252 188 0
252 188 0
252 187 0
252 187 0
252 187 0
252 187 0
252 187 0
252 188 0
252 189 0
252 190 0
252 192 0
252 194 0
253 196 0
253 198 0
253 201 0
253 204 0
253 208 0
254 212 0
254 215 0
254 220 0
254 224 0
254 228 0
253 232 0
253 236 0
253 240 0
253 243 0
253 246 0
252 249 0
252 251 0
252 252 0
252 253 0
254 199 0
254 199 0
254 199 0
254 199 0
254 199 0
254 198 0
254 198 0
254 197 0
254 197 0
254 196 0
254 195 0
253 194 0
253 194 0
253 193 0
253 192 0
253 191 0
253 190 0
253 190 0
253 189 0
252 188 0
252 188 0
252 188 0
252 187 0
252 187 0
252 188 0
252 188 0
252 189 0
252 190 0
252 191 0
252 193 0
253 194 0
253 197 0
253 199 0
253 202 0
253 205 0
254 208 0
254 212 0
254 216 0
254 219 0
254 223 0
254 227 0
254 231 0
253 235 0
253 239 0
253 242 0
253 245 0
253 247 0
252 249 0
252 250 0
252 251 0
254 198 0
254 198 0
254 198 0
254 198 0
254 198 0
254 197 0
254 197 0
254 196 0
254 196 0
254 195 0
253 195 0
253 194 0
253 193 0
253 192 0
253 192 0
253 191 0
253 190 0
253 190 0
253 189 0
252 189 0
252 188 0
252 188 0
252 188 0
252 188 0
252 188 0
252 189 0
252 190 0
252 191 0
252 192 0
253 193 0
253 195 0
253 197 0
253 200 0
253 202 0
253 205 0
254 208 0
254 212 0
254 215 0
254 219 0
254 223 0
254 227 0
254 230 0
254 234 0
253 237 0
253 240 0
253 243 0
253 245 0
253 247 0
252 248 0
252 249 0
254 198 0
254 197 0
254 197 0
254 197 0
254 197 0
254 197 0
254 196 0
253 196 0
253 195 0
253 195 0
253 194 0
253 193 0
253 193 0
253 192 0
253 191 0
253 191 0
253 190 0
253 190 0
253 189 0
253 189 0
252 188 0
252 188 0
252 188 0
252 189 0
252 189 0
252 189 0
252 190 0
253 191 0
253 192 0
253 194 0
253 196 0
253 198 0
253 200 0
253 203 0
254 205 0
254 208 0
254 212 0
254 215 0
254 218 0
254 222 0
254 225 0
254 229 0
254 232 0
254 235 0
253 238 0
253 241 0
253 243 0
253 245 0
253 246 0
253 246 0
253 196 0
253 196 0
253 196 0
253 196 0
253 196 0
253 196 0
253 195 0
253 195 0
253 194 0
253 194 0
253 193 0
253 193 0
253 192 0
253 192 0
253 191 0
253 190 0
253 190 0
253 189 0
253 189 0
253 189 0
253 189 0
252 189 0
252 189 0
252 189 0
252 189 0
253 190 0
253 191 0
253 192 0
253 193 0
253 194 0
253 196 0
253 198 0
253 200 0
254 203 0
254 205 0
254 208 0
254 211 0
254 214 0
254 217 0
254 221 0
254 224 0
254 227 0
254 230 0
254 233 0
254 236 0
253 238 0
253 240 0
253 242 0
253 243 0
253 243 0
253 195 0
253 195 0
253 195 0
253 195 0
253 195 0
253 195 0
253 194 0
253 194 0
253 193 0
253 193 0
253 192 0
253 192 0
253 191 0
253 191 0
253 190 0
253 190 0
253 190 0
253 189 0
253 189 0
253 189 0
253 189 0
253 189 0
253 189 0
253 189 0
253 190 0
253 190 0
253 191 0
253 192 0
253 193 0
253 195 0
253 196 0
253 198 0
253 200 0
254 202 0
254 205 0
254 207 0
254 210 0
254 213 0
254 216 0
254 219 0
254 222 0
254 225 0
254 228 0
254 230 0
254 233 0
254 235 0
253 237 0
253 238 0
253 239 0
253 240 0
253 194 0
253 194 0
253 194 0
253 194 0
253 194 0
253 194 0
253 193 0
253 193 0
253 193 0
253 192 0
253 192 0
253 191 0
253 191 0
253 190 0
253 190 0
253 190 0
253 189 0
253 189 0
253 189 0
253 189 0
253 189 0
253 189 0
253 189 0
253 189 0
253 190 0
253 191 0
253 191 0
253 192 0
253 194 0
253 195 0
253 196 0
253 198 0
254 200 0
254 202 0
254 204 0
254 207 0
254 209 0
254 212 0
254 214 0
254 217 0
254 220 0
254 223 0
254 225 0
254 227 0
254 230 0
254 232 0
254 233 0
254 234 0
254 235 0
254 236 0
253 193 0
253 193 0
253 193 0
253 193 0
253 193 0
253 193 0
253 192 0
253 192 0
253 192 0
253 191 0
253 191 0
253 191 0
253 190 0
253 190 0
253 189 0
253 189 0
253 189 0
253 189 0
253 189 0
253 189 0
253 189 0
253 189 0
253 189 0
253 190 0
253 190 0
253 191 0
253 192 0
253 193 0
253 194 0
253 195 0
253 196 0
254 198 0
254 200 0
254 201 0
254 203 0
254 206 0
254 208 0
254 210 0
254 213 0
254 215 0
254 217 0
254 220 0
254 222 0
254 224 0
254 226 0
254 228 0
254 229 0
254 230 0
254 231 0
254 232 0
253 192 0
253 192 0
253 192 0
253 192 0
253 192 0
253 192 0
253 191 0
253 191 0
253 191 0
253 190 0
253 190 0
253 190 0
253 189 0
253 189 0
253 189 0
253 189 0
253 188 0
253 188 0
253 188 0
253 188 0
253 189 0
253 189 0
253 189 0
253 190 0
253 190 0
253 191 0
253 192 0
253 193 0
253 194 0
253 195 0
253 196 0
254 197 0
254 199 0
254 201 0
254 202 0
254 204 0
254 206 0
254 208 0
254 210 0
254 213 0
254 215 0
254 217 0
254 219 0
254 221 0
254 222 0
254 224 0
254 225 0
254 226 0
254 227 0
254 227 0
253 192 0
253 191 0
253 191 0
253 191 0
253 191 0
253 191 0
253 191 0
253 190 0
253 190 0
253 190 0
253 189 0
253 189 0
253 189 0
252 189 0
252 188 0
252 188 0
253 188 0
253 188 0
253 188 0
253 188 0
253 188 0
253 189 0
253 189 0
253 190 0
253 190 0
253 191 0
253 192 0
253 192 0
253 193 0
253 194 0
253 196 0
254 197 0
254 198 0
254 200 0
254 201 0
254 203 0
254 205 0
254 206 0
254 208 0
254 210 0
254 212 0
254 214 0
254 215 0
254 217 0
254 218 0
254 220 0
254 221 0
254 222 0
254 222 0
254 222 0
253 191 0
253 191 0
253 191 0
252 190 0
252 190 0
252 190 0
252 190 0
252 190 0
252 189 0
252 189 0
252 189 0
252 189 0
252 188 0
252 188 0
252 188 0
252 188 0
252 188 0
252 188 0
253 188 0
253 188 0
253 188 0
253 188 0
253 189 0
253 189 0
253 190 0
253 191 0
253 191 0
253 192 0
253 193 0
253 194 0
253 195 0
253 196 0
254 197 0
254 198 0
254 200 0
254 201 0
254 203 0
254 204 0
254 206 0
254 207 0
254 209 0
254 210 0
254 212 0
254 213 0
254 214 0
254 215 0
254 216 0
254 217 0
254 218 0
254 218 0
252 190 0
252 190 0
252 190 0
252 190 0
252 190 0
252 190 0
252 189 0
252 189 0
252 189 0
252 189 0
252 188 0
252 188 0
252 188 0
252 188 0
252 187 0
252 187 0
252 187 0
252 187 0
252 187 0
253 188 0
253 188 0
253 188 0
253 189 0
253 189 0
253 190 0
253 190 0
253 191 0
253 192 0
253 192 0
253 193 0
253 194 0
253 195 0
253 196 0
253 197 0
254 198 0
254 199 0
254 201 0
254 202 0
254 203 0
254 204 0
254 206 0
254 207 0
254 208 0
254 209 0
254 210 0
254 211 0
254 212 0
254 213 0
254 213 0
254 213 0
252 190 0
252 190 0
252 189 0
252 189 0
252 189 0
252 189 0
252 189 0
252 189 0
252 188 0
252 188 0
252 188 0
252 188 0
252 187 0
252 187 0
252 187 0
252 187 0
252 187 0
252 187 0
252 187 0
253 187 0
253 188 0
253 188 0
253 188 0
253 189 0
253 189 0
253 190 0
253 191 0
253 191 0
253 192 0
253 193 0
253 193 0
253 194 0
253 195 0
253 196 0
253 197 0
253 198 0
253 198 0
253 199 0
253 200 0
253 201 0
253 202 0
253 203 0
253 204 0
253 205 0
253 206 0
253 207 0
253 208 0
253 208 0
253 208 0
253 209 0
252 189 0
252 189 0
252 189 0
252 189 0
252 189 0
252 189 0
252 188 0
252 188 0
252 188 0
252 188 0
252 188 0
252 187 0
252 187 0
252 187 0
252 187 0
252 187 0
252 187 0
252 187 0
252 187 0
253 187 0
253 187 0
253 188 0
253 188 0
253 189 0
253 189 0
253 190 0
253 190 0
253 191 0
253 191 0
253 192 0
253 192 0
253 193 0
253 194 0
253 194 0
253 195 0
253 196 0
253 196 0
253 197 0
253 198 0
253 199 0
253 199 0
253 200 0
253 201 0
253 202 0
253 202 0
253 203 0
253 203 0
253 204 0
253 204 0
253 204 0
252 189 0
252 189 0
252 189 0
252 189 0
252 189 0
252 188 0
252 188 0
252 188 0
252 188 0
252 188 0
252 187 0
252 187 0
252 187 0
252 187 0
252 187 0
252 187 0
252 187 0
252 187 0
252 187 0
252 187 0
253 187 0
253 188 0
253 188 0
253 188 0
253 189 0
253 189 0
253 190 0
253 190 0
253 190 0
253 191 0
253 191 0
253 192 0
253 192 0
253 193 0
253 193 0
253 194 0
253 194 0
253 195 0
253 195 0
253 196 0
253 196 0
253 197 0
253 198 0
253 198 0
253 199 0
253 199 0
253 199 0
253 200 0
253 200 0
253 200 0
252 189 0
252 189 0
252 189 0
252 189 0
252 189 0
252 188 0
252 188 0
252 188 0
252 188 0
252 187 0
252 187 0
252 187 0
252 187 0
252 187 0
252 187 0
252 187 0
252 187 0
252 187 0
252 187 0
252 187 0
253 187 0
253 187 0
253 188 0
253 188 0
253 188 0
253 189 0
253 189 0
253 189 0
253 190 0
253 190 0
253 190 0
253 191 0
253 191 0
253 191 0
253 191 0
253 192 0
252 192 0
252 192 0
252 193 0
252 193 0
252 193 0
252 194 0
252 194 0
252 195 0
252 195 0
252 195 0
252 196 0
252 196 0
252 196 0
252 196 0
252 189 0
252 189 0
252 189 0
252 189 0
252 189 0
252 188 0
252 188 0
252 188 0
252 188 0
252 188 0
252 187 0
252 187 0
252 187 0
252 187 0
252 187 0
252 187 0
252 187 0
252 187 0
252 187 0
252 187 0
253 187 0
253 187 0
253 187 0
253 188 0
253 188 0
253 188 0
253 188 0
253 189 0
253 189 0
253 189 0
253 189 0
253 189 0
253 189 0
252 190 0
252 190 0
252 190 0
252 190 0
252 190 0
252 190 0
252 190 0
252 191 0
252 191 0
252 191 0
252 191 0
252 192 0
252 192 0
252 192 0
252 192 0
252 192 0
252 193 0
252 189 0
252 189 0
252 189 0
252 189 0
252 189 0
252 189 0
252 188 0
252 188 0
252 188 0
252 188 0
252 188 0
252 187 0
252 187 0
252 187 0
252 187 0
252 187 0
252 187 0
252 187 0
252 187 0
252 187 0
253 187 0
253 187 0
253 187 0
253 187 0
253 188 0
253 188 0
253 188 0
253 188 0
253 188 0
253 188 0
252 188 0
252 188 0
252 188 0
252 188 0
252 188 0
252 188 0
252 188 0
252 188 0
252 188 0
252 188 0
252 188 0
251 188 0
251 188 0
251 189 0
251 189 0
251 189 0
251 189 0
251 189 0
251 189 0
251 189 0
253 189 0
253 189 0
253 189 0
252 189 0
252 189 0
252 189 0
252 189 0
252 189 0
252 188 0
252 188 0
252 188 0
252 188 0
252 187 0
252 187 0
252 187 0
252 187 0
252 187 0
252 187 0
252 187 0
253 187 0
253 187 0
253 187 0
253 187 0
253 187 0
253 187 0
253 187 0
253 187 0
253 187 0
253 187 0
252 187 0
252 187 0
252 187 0
252 187 0
252 187 0
252 187 0
252 186 0
252 186 0
251 186 0
251 186 0
251 186 0
251 186 0
251 186 0
251 186 0
251 186 0
251 186 0
251 186 0
251 186 0
251 186 0
251 186 0
251 186 0
253 190 0
253 190 0
253 190 0
253 190 0
253 189 0
253 189 0
253 189 0
253 189 0
253 189 0
253 188 0
253 188 0
253 188 0
253 188 0
252 188 0
252 187 0
253 187 0
253 187 0
253 187 0
253 187 0
253 187 0
253 187 0
253 187 0
253 187 0
253 187 0
253 187 0
253 187 0
253 187 0
252 187 0
252 187 0
252 187 0
252 186 0
252 186 0
252 186 0
252 186 0
252 185 0
251 185 0
251 185 0
251 184 0
251 184 0
251 184 0
251 184 0
251 184 0
251 184 0
251 184 0
251 184 0
251 184 0
251 184 0
251 184 0
251 184 0
251 184 0
253 190 0
253 190 0
253 190 0
253 190 0
253 190 0
253 190 0
253 190 0
253 189 0
253 189 0
253 189 0
253 189 0
253 189 0
253 188 0
253 188 0
253 188 0
253 188 0
253 188 0
253 188 0
253 187 0
253 187 0
253 187 0
253 187 0
253 187 0
253 187 0
253 187 0
253 187 0
252 187 0
252 187 0
252 186 0
252 186 0
252 186 0
252 185 0
252 185 0
252 185 0
251 184 0
251 184 0
251 183 0
251 183 0
251 183 0
251 182 0
250 182 0
250 182 0
250 182 0
250 182 0
250 182 0
250 182 0
250 182 0
250 181 0
250 181 0
250 181 0
253 191 0
253 191 0
253 191 0
253 191 0
253 190 0
253 190 0
253 190 0
253 190 0
253 190 0
253 190 0
253 189 0
253 189 0
253 189 0
253 189 0
253 189 0
253 188 0
253 188 0
253 188 0
253 188 0
253 188 0
253 188 0
253 188 0
253 187 0
253 187 0
253 187 0
253 187 0
252 187 0
252 186 0
252 186 0
252 186 0
252 185 0
252 185 0
252 184 0
251 184 0
251 183 0
251 183 0
251 182 0
251 182 0
250 181 0
250 181 0
250 181 0
250 180 0
250 180 0
250 180 0
250 180 0
250 180 0
250 180 0
250 180 0
250 180 0
250 180 0
253 191 0
253 191 0
253 191 0
253 191 0
253 191 0
253 191 0
253 191 0
253 191 0
253 190 0
253 190 0
253 190 0
253 190 0
253 190 0
253 189 0
253 189 0
253 189 0
253 189 0
253 189 0
253 188 0
253 188 0
253 188 0
253 188 0
253 188 0
253 187 0
253 187 0
253 187 0
252 186 0
252 186 0
252 186 0
252 185 0
252 185 0
252 184 0
251 183 0
251 183 0
251 182 0
251 182 0
251 181 0
250 181 0
250 180 0
250 180 0
250 179 0
250 179 0
250 179 0
250 179 0
250 178 0
250 178 0
250 178 0
250 178 0
250 178 0
250 178 0
253 192 0
253 192 0
253 192 0
253 192 0
253 192 0
253 192 0
253 191 0
253 191 0
253 191 0
253 191 0
253 191 0
253 191 0
253 190 0
253 190 0
253 190 0
253 190 0
253 190 0
253 189 0
253 189 0
253 189 0
253 189 0
253 188 0
253 188 0
253 188 0
253 187 0
253 187 0
252 186 0
252 186 0
252 185 0
252 185 0
252 184 0
252 184 0
251 183 0
251 182 0
251 182 0
251 181 0
251 180 0
250 180 0
250 179 0
250 179 0
250 178 0
250 178 0
250 178 0
250 177 0
249 177 0
249 177 0
249 177 0
249 177 0
249 177 0
249 177 0
253 192 0
253 192 0
253 192 0
253 192 0
253 192 0
253 192 0
253 192 0
253 192 0
253 192 0
253 192 0
253 192 0
253 191 0
253 191 0
253 191 0
253 191 0
253 191 0
253 190 0
253 190 0
253 190 0
253 190 0
253 189 0
253 189 0
253 189 0
253 188 0
253 188 0
253 187 0
253 187 0
252 186 0
252 185 0
252 185 0
252 184 0
252 183 0
251 183 0
251 182 0
251 181 0
251 180 0
250 180 0
250 179 0
250 179 0
250 178 0
250 178 0
250 177 0
250 177 0
249 177 0
249 176 0
249 176 0
249 176 0
249 176 0
249 176 0
249 176 0
253 193 0
253 193 0
253 193 0
253 193 0
253 193 0
253 193 0
253 193 0
253 193 0
253 193 0
253 193 0
253 192 0
253 192 0
253 192 0
253 192 0
253 192 0
253 191 0
253 191 0
253 191 0
253 191 0
253 190 0
253 190 0
253 189 0
253 189 0
253 189 0
253 188 0
253 187 0
253 187 0
252 186 0
252 186 0
252 185 0
252 184 0
252 183 0
251 182 0
251 182 0
251 181 0
251 180 0
250 179 0
250 179 0
250 178 0
250 178 0
250 177 0
250 177 0
249 176 0
249 176 0
249 176 0
249 176 0
249 175 0
249 175 0
249 175 0
249 175 0
253 193 0
253 193 0
253 193 0
253 193 0
253 193 0
253 193 0
253 193 0
253 193 0
253 193 0
253 193 0
253 193 0
253 193 0
254 193 0
254 193 0
254 193 0
254 192 0
253 192 0
253 192 0
253 191 0
253 191 0
253 191 0
253 190 0
253 190 0
253 189 0
253 189 0
253 188 0
253 187 0
252 186 0
252 186 0
252 185 0
252 184 0
252 183 0
251 182 0
251 182 0
251 181 0
251 180 0
250 179 0
250 178 0
250 178 0
250 177 0
250 177 0
250 176 0
249 176 0
249 176 0
249 175 0
249 175 0
249 175 0
249 175 0
249 175 0
249 175 0
253 194 0
253 194 0
253 194 0
253 194 0
253 194 0
253 194 0
253 194 0
254 194 0
254 194 0
254 194 0
254 194 0
254 194 0
254 194 0
254 194 0
254 193 0
254 193 0
254 193 0
254 193 0
254 192 0
254 192 0
253 191 0
253 191 0
253 190 0
253 190 0
253 189 0
253 188 0
253 188 0
253 187 0
252 186 0
252 185 0
252 184 0
252 183 0
251 182 0
251 182 0
251 181 0
251 180 0
250 179 0
250 178 0
250 178 0
250 177 0
250 177 0
250 176 0
249 176 0
249 175 0
249 175 0
249 175 0
249 175 0
249 175 0
249 175 0
249 175 0
253 194 0
253 194 0
253 194 0
253 194 0
253 194 0
253 195 0
254 195 0
254 195 0
254 195 0
254 195 0
254 195 0
254 195 0
254 195 0
254 195 0
254 194 0
254 194 0
254 194 0
254 194 0
254 193 0
254 193 0
254 192 0
254 192 0
253 191 0
253 190 0
253 190 0
253 189 0
253 188 0
253 187 0
252 186 0
252 185 0
252 184 0
252 183 0
251 183 0
251 182 0
251 181 0
251 180 0
251 179 0
250 178 0
250 178 0
250 177 0
250 177 0
250 176 0
250 176 0
249 175 0
249 175 0
249 175 0
249 175 0
249 175 0
249 175 0
249 175 0
253 195 0
253 195 0
253 195 0
253 195 0
254 195 0
254 195 0
254 195 0
254 195 0
254 195 0
254 195 0
254 195 0
254 195 0
254 195 0
254 195 0
254 195 0
254 195 0
254 195 0
254 194 0
254 194 0
254 193 0
254 193 0
254 192 0
254 192 0
253 191 0
253 190 0
253 189 0
253 188 0
253 188 0
253 187 0
252 186 0
252 185 0
252 184 0
252 183 0
251 182 0
251 181 0
251 180 0
251 179 0
250 178 0
250 178 0
250 177 0
250 177 0
250 176 0
250 176 0
250 175 0
250 175 0
249 175 0
249 175 0
249 175 0
249 175 0
249 175 0
253 195 0
253 195 0
253 195 0
253 195 0
254 195 0
254 195 0
254 196 0
254 196 0
254 196 0
254 196 0
254 196 0
254 196 0
254 196 0
254 196 0
254 196 0
254 196 0
254 195 0
254 195 0
254 195 0
254 194 0
254 194 0
254 193 0
254 192 0
254 192 0
253 191 0
253 190 0
253 189 0
253 188 0
253 187 0
252 186 0
252 185 0
252 184 0
252 183 0
251 182 0
251 181 0
251 180 0
251 179 0
251 179 0
250 178 0
250 177 0
250 177 0
250 176 0
250 176 0
250 176 0
250 175 0
250 175 0
250 175 0
250 175 0
249 175 0
249 175 0
253 195 0
253 195 0
253 195 0
254 195 0
254 196 0
254 196 0
254 196 0
254 196 0
254 196 0
254 197 0
254 197 0
254 197 0
254 197 0
254 197 0
254 197 0
254 196 0
254 196 0
254 196 0
254 195 0
254 195 0
254 194 0
254 194 0
254 193 0
254 192 0
254 191 0
253 190 0
253 189 0
253 188 0
253 187 0
253 186 0
252 185 0
252 184 0
252 183 0
252 182 0
251 181 0
251 180 0
251 180 0
251 179 0
250 178 0
250 178 0
250 177 0
250 177 0
250 176 0
250 176 0
250 176 0
250 175 0
250 175 0
250 175 0
250 175 0
250 175 0
253 195 0
253 195 0
253 195 0
254 196 0
254 196 0
254 196 0
254 196 0
254 197 0
254 197 0
254 197 0
254 197 0
254 197 0
254 197 0
254 197 0
254 197 0
254 197 0
254 197 0
254 196 0
254 196 0
254 195 0
254 195 0
254 194 0
254 193 0
254 193 0
254 192 0
254 191 0
253 190 0
253 189 0
253 188 0
253 187 0
252 186 0
252 184 0
252 183 0
252 182 0
251 182 0
251 181 0
251 180 0
251 179 0
251 178 0
250 178 0
250 177 0
250 177 0
250 176 0
250 176 0
250 176 0
250 175 0
250 175 0
250 175 0
250 175 0
250 175 0
253 195 0
253 196 0
253 196 0
254 196 0
254 196 0
254 196 0
254 197 0
254 197 0
254 197 0
254 197 0
254 197 0
254 198 0
254 198 0
254 198 0
254 198 0
254 197 0
254 197 0
254 197 0
254 196 0
254 196 0
254 195 0
254 195 0
254 194 0
254 193 0
254 192 0
254 191 0
253 190 0
253 189 0
253 188 0
253 187 0
252 186 0
252 185 0
252 184 0
252 183 0
251 182 0
251 181 0
251 180 0
251 179 0
251 178 0
250 178 0
250 177 0
250 177 0
250 176 0
250 176 0
250 176 0
250 176 0
250 175 0
250 175 0
250 175 0
250 175 0
253 196 0
253 196 0
253 196 0
254 196 0
254 196 0
254 196 0
254 197 0
254 197 0
254 197 0
254 198 0
254 198 0
254 198 0
254 198 0
254 198 0
254 198 0
254 198 0
254 197 0
254 197 0
254 197 0
254 196 0
254 196 0
254 195 0
254 194 0
254 193 0
254 192 0
254 191 0
253 190 0
253 189 0
253 188 0
253 187 0
253 186 0
252 185 0
252 184 0
252 183 0
252 182 0
251 181 0
251 180 0
251 179 0
251 179 0
251 178 0
250 177 0
250 177 0
250 177 0
250 176 0
250 176 0
250 176 0
250 176 0
250 175 0
250 175 0
250 175 0
253 196 0
253 196 0
253 196 0
254 196 0
254 196 0
254 196 0
254 197 0
254 197 0
254 197 0
254 198 0
254 198 0
254 198 0
254 198 0
254 198 0
254 198 0
254 198 0
255 198 0
254 197 0
254 197 0
254 196 0
254 196 0
254 195 0
254 194 0
254 193 0
254 192 0
254 191 0
253 190 0
253 189 0
253 188 0
253 187 0
253 186 0
252 185 0
252 184 0
252 183 0
252 182 0
251 181 0
251 180 0
251 179 0
251 179 0
251 178 0
250 178 0
250 177 0
250 177 0
250 176 0
250 176 0
250 176 0
250 176 0
250 176 0
250 175 0
250 175 0
