P3
50 50
255
250 229 0
250 229 0
250 229 0
250 230 0
250 230 0
250 231 0
250 231 0
250 232 0
250 233 0
251 234 0
251 235 0
251 236 0
251 237 0
251 238 0
252 239 0
252 241 0
252 242 0
252 243 0
253 245 0
253 246 0
253 247 0
254 248 0
254 248 0
254 249 0
254 249 0
254 249 0
254 249 0
255 248 0
254 247 0
254 245 0
254 244 0
254 242 0
254 239 0
254 236 0
253 233 0
253 230 0
252 227 0
252 223 0
252 220 0
251 216 0
251 213 0
250 210 0
250 207 0
249 204 0
249 202 0
249 199 0
249 198 0
248 196 0
248 195 0
248 195 0
250 229 0
250 229 0
250 229 0
250 230 0
250 230 0
250 231 0
250 231 0
250 232 0
250 233 0
251 234 0
251 234 0
251 236 0
251 237 0
251 238 0
252 239 0
252 241 0
252 242 0
252 243 0
253 244 0
253 246 0
253 247 0
254 248 0
254 248 0
254 249 0
254 249 0
254 249 0
254 249 0
254 248 0
254 247 0
254 245 0
254 244 0
254 241 0
254 239 0
254 236 0
253 233 0
253 230 0
252 227 0
252 223 0
252 220 0
251 216 0
251 213 0
250 210 0
250 207 0
249 204 0
249 202 0
249 199 0
249 198 0
248 196 0
248 195 0
248 195 0
250 229 0
250 229 0
250 229 0
250 230 0
250 230 0
250 230 0
250 231 0
250 232 0
250 233 0
251 233 0
251 234 0
251 235 0
251 237 0
251 238 0
252 239 0
252 240 0
252 242 0
252 243 0
253 244 0
253 245 0
253 246 0
253 247 0
254 248 0
254 249 0
254 249 0
254 249 0
254 248 0
254 248 0
254 246 0
254 245 0
254 243 0
254 241 0
254 239 0
254 236 0
253 233 0
253 230 0
252 226 0
252 223 0
251 220 0
251 216 0
251 213 0
250 210 0
250 207 0
249 204 0
249 201 0
249 199 0
249 197 0
248 196 0
248 195 0
248 195 0
250 229 0
250 229 0
250 229 0
250 230 0
250 230 0
250 230 0
250 231 0
250 232 0
250 232 0
251 233 0
251 234 0
251 235 0
251 237 0
251 238 0
252 239 0
252 240 0
252 242 0
252 243 0
253 244 0
253 245 0
253 246 0
253 247 0
254 248 0
254 248 0
254 248 0
254 248 0
254 248 0
254 247 0
254 246 0
254 245 0
254 243 0
254 241 0
254 238 0
253 236 0
253 233 0
253 229 0
252 226 0
252 223 0
251 219 0
251 216 0
251 212 0
250 209 0
250 206 0
249 203 0
249 201 0
249 199 0
248 197 0
248 196 0
248 195 0
248 194 0
250 229 0
250 229 0
250 229 0
250 229 0
250 230 0
250 230 0
250 231 0
250 232 0
250 232 0
251 233 0
251 234 0
251 235 0
251 236 0
251 238 0
252 239 0
252 240 0
252 241 0
252 243 0
253 244 0
253 245 0
253 246 0
253 247 0
254 247 0
254 248 0
254 248 0
254 248 0
254 247 0
254 247 0
254 246 0
254 244 0
254 242 0
254 240 0
254 238 0
253 235 0
253 232 0
253 229 0
252 226 0
252 222 0
251 219 0
251 215 0
250 212 0
250 209 0
250 206 0
249 203 0
249 201 0
249 199 0
248 197 0
248 195 0
248 195 0
248 194 0
250 229 0
250 229 0
250 229 0
250 229 0
250 230 0
250 230 0
250 231 0
250 231 0
250 232 0
250 233 0
251 234 0
251 235 0
251 236 0
251 237 0
251 239 0
252 240 0
252 241 0
252 242 0
252 243 0
253 245 0
253 245 0
253 246 0
253 247 0
254 247 0
254 247 0
254 247 0
254 247 0
254 246 0
254 245 0
254 244 0
254 242 0
254 240 0
254 237 0
253 235 0
253 232 0
252 228 0
252 225 0
252 222 0
251 218 0
251 215 0
250 212 0
250 208 0
250 205 0
249 203 0
249 200 0
249 198 0
248 196 0
248 195 0
248 194 0
248 194 0
250 229 0
250 229 0
250 229 0
250 229 0
250 230 0
250 230 0
250 231 0
250 231 0
250 232 0
250 233 0
251 234 0
251 235 0
251 236 0
251 237 0
251 238 0
252 240 0
252 241 0
252 242 0
252 243 0
253 244 0
253 245 0
253 246 0
253 246 0
254 247 0
254 247 0
254 247 0
254 246 0
254 245 0
254 244 0
254 243 0
254 241 0
254 239 0
253 237 0
253 234 0
253 231 0
252 228 0
252 225 0
252 221 0
251 218 0
251 214 0
250 211 0
250 208 0
249 205 0
249 202 0
249 200 0
248 198 0
248 196 0
248 195 0
248 194 0
248 193 0
250 229 0
250 229 0
250 229 0
250 229 0
250 230 0
250 230 0
250 231 0
250 231 0
250 232 0
250 233 0
251 234 0
251 235 0
251 236 0
251 237 0
251 238 0
252 239 0
252 240 0
252 242 0
252 243 0
253 244 0
253 245 0
253 245 0
253 246 0
253 246 0
254 246 0
254 246 0
254 246 0
254 245 0
254 244 0
254 242 0
254 240 0
253 238 0
253 236 0
253 233 0
253 230 0
252 227 0
252 224 0
251 221 0
251 217 0
251 214 0
250 211 0
250 207 0
249 204 0
249 202 0
249 199 0
248 197 0
248 196 0
248 194 0
248 193 0
248 193 0
250 229 0
250 229 0
250 229 0
250 229 0
250 230 0
250 230 0
250 231 0
250 231 0
250 232 0
250 233 0
251 234 0
251 235 0
251 236 0
251 237 0
251 238 0
251 239 0
252 240 0
252 241 0
252 242 0
252 243 0
253 244 0
253 245 0
253 245 0
253 245 0
253 246 0
254 245 0
254 245 0
254 244 0
254 243 0
254 241 0
253 240 0
253 237 0
253 235 0
253 232 0
252 230 0
252 226 0
252 223 0
251 220 0
251 217 0
250 213 0
250 210 0
250 207 0
249 204 0
249 201 0
249 199 0
248 197 0
248 195 0
248 194 0
248 193 0
248 193 0
250 229 0
250 229 0
250 229 0
250 229 0
250 230 0
250 230 0
250 231 0
250 231 0
250 232 0
250 233 0
251 234 0
251 235 0
251 236 0
251 237 0
251 238 0
251 239 0
252 240 0
252 241 0
252 242 0
252 243 0
253 243 0
253 244 0
253 245 0
253 245 0
253 245 0
253 245 0
253 244 0
253 243 0
253 242 0
253 241 0
253 239 0
253 237 0
253 234 0
253 232 0
252 229 0
252 226 0
251 223 0
251 219 0
251 216 0
250 213 0
250 210 0
249 207 0
249 204 0
249 201 0
248 199 0
248 197 0
248 195 0
248 194 0
248 193 0
248 192 0
250 229 0
250 229 0
250 229 0
250 230 0
250 230 0
250 230 0
250 231 0
250 231 0
250 232 0
250 233 0
250 234 0
251 235 0
251 235 0
251 236 0
251 237 0
251 239 0
252 240 0
252 240 0
252 241 0
252 242 0
252 243 0
253 244 0
253 244 0
253 244 0
253 244 0
253 244 0
253 243 0
253 242 0
253 241 0
253 240 0
253 238 0
253 236 0
253 233 0
252 231 0
252 228 0
252 225 0
251 222 0
251 219 0
251 216 0
250 212 0
250 209 0
249 206 0
249 203 0
249 201 0
248 199 0
248 197 0
248 195 0
248 194 0
248 193 0
248 192 0
250 229 0
250 229 0
250 230 0
250 230 0
250 230 0
250 231 0
250 231 0
250 232 0
250 232 0
250 233 0
251 234 0
251 235 0
251 235 0
251 236 0
251 237 0
251 238 0
252 239 0
252 240 0
252 241 0
252 242 0
252 242 0
252 243 0
253 243 0
253 243 0
253 243 0
253 243 0
253 242 0
253 241 0
253 240 0
253 239 0
253 237 0
253 235 0
252 233 0
252 230 0
252 227 0
252 225 0
251 221 0
251 218 0
250 215 0
250 212 0
250 209 0
249 206 0
249 203 0
249 201 0
248 198 0
248 197 0
248 195 0
248 194 0
248 193 0
248 192 0
250 230 0
250 230 0
250 230 0
250 230 0
250 230 0
250 231 0
250 231 0
250 232 0
250 232 0
250 233 0
251 234 0
251 235 0
251 236 0
251 236 0
251 237 0
251 238 0
251 239 0
252 240 0
252 241 0
252 241 0
252 242 0
252 242 0
252 243 0
253 243 0
253 243 0
253 242 0
253 242 0
253 241 0
253 239 0
253 238 0
253 236 0
252 234 0
252 232 0
252 229 0
252 227 0
251 224 0
251 221 0
251 218 0
250 215 0
250 212 0
250 209 0
249 206 0
249 203 0
249 201 0
248 199 0
248 197 0
248 195 0
248 194 0
248 193 0
248 193 0
250 230 0
250 230 0
250 230 0
250 231 0
250 231 0
250 231 0
250 232 0
250 232 0
250 233 0
250 233 0
251 234 0
251 235 0
251 236 0
251 236 0
251 237 0
251 238 0
251 239 0
252 240 0
252 240 0
252 241 0
252 241 0
252 242 0
252 242 0
252 242 0
253 242 0
253 241 0
253 241 0
253 240 0
253 239 0
252 237 0
252 235 0
252 234 0
252 231 0
252 229 0
251 226 0
251 224 0
251 221 0
250 218 0
250 215 0
250 212 0
249 209 0
249 206 0
249 203 0
248 201 0
248 199 0
248 197 0
248 196 0
248 194 0
248 194 0
248 193 0
250 231 0
250 231 0
250 231 0
250 231 0
250 231 0
250 232 0
250 232 0
250 233 0
250 233 0
251 234 0
251 234 0
251 235 0
251 236 0
251 237 0
251 237 0
251 238 0
251 239 0
252 240 0
252 240 0
252 241 0
252 241 0
252 241 0
252 241 0
252 241 0
252 241 0
252 241 0
252 240 0
252 239 0
252 238 0
252 236 0
252 235 0
252 233 0
252 231 0
252 228 0
251 226 0
251 223 0
251 220 0
250 218 0
250 215 0
250 212 0
249 209 0
249 206 0
249 204 0
248 202 0
248 200 0
248 198 0
248 196 0
248 195 0
248 194 0
248 194 0
250 231 0
250 231 0
250 231 0
250 232 0
250 232 0
250 232 0
250 233 0
250 233 0
251 234 0
251 234 0
251 235 0
251 235 0
251 236 0
251 237 0
251 237 0
251 238 0
251 239 0
251 239 0
252 240 0
252 240 0
252 241 0
252 241 0
252 241 0
252 241 0
252 241 0
252 240 0
252 239 0
252 238 0
252 237 0
252 236 0
252 234 0
252 232 0
252 230 0
251 228 0
251 226 0
251 223 0
251 220 0
250 218 0
250 215 0
250 212 0
249 209 0
249 207 0
249 205 0
248 202 0
248 200 0
248 199 0
248 197 0
248 196 0
248 195 0
248 195 0
250 232 0
250 232 0
250 232 0
250 232 0
250 233 0
251 233 0
251 233 0
251 234 0
251 234 0
251 235 0
251 235 0
251 236 0
251 236 0
251 237 0
251 238 0
251 238 0
251 239 0
251 239 0
252 240 0
252 240 0
252 240 0
252 241 0
252 241 0
252 240 0
252 240 0
252 240 0
252 239 0
252 238 0
252 237 0
252 235 0
252 234 0
252 232 0
251 230 0
251 228 0
251 225 0
251 223 0
250 220 0
250 218 0
250 215 0
250 213 0
249 210 0
249 208 0
249 205 0
248 203 0
248 201 0
248 200 0
248 198 0
248 197 0
248 197 0
248 196 0
251 233 0
251 233 0
251 233 0
251 233 0
251 233 0
251 234 0
251 234 0
251 234 0
251 235 0
251 235 0
251 236 0
251 236 0
251 237 0
251 237 0
251 238 0
251 238 0
251 239 0
251 239 0
252 240 0
252 240 0
252 240 0
252 240 0
252 240 0
252 240 0
252 240 0
252 239 0
252 238 0
252 237 0
252 236 0
252 235 0
252 233 0
251 232 0
251 230 0
251 228 0
251 225 0
251 223 0
250 221 0
250 218 0
250 216 0
250 213 0
249 211 0
249 209 0
249 207 0
249 205 0
248 203 0
248 201 0
248 200 0
248 199 0
248 198 0
248 198 0
251 233 0
251 234 0
251 234 0
251 234 0
251 234 0
251 234 0
251 235 0
251 235 0
251 235 0
251 236 0
251 236 0
251 237 0
251 237 0
251 238 0
251 238 0
251 239 0
251 239 0
251 239 0
251 240 0
252 240 0
252 240 0
252 240 0
252 240 0
252 240 0
252 239 0
252 239 0
252 238 0
252 237 0
252 236 0
251 235 0
251 233 0
251 231 0
251 230 0
251 228 0
251 226 0
250 224 0
250 221 0
250 219 0
250 217 0
250 214 0
249 212 0
249 210 0
249 208 0
249 206 0
249 204 0
248 203 0
248 202 0
248 201 0
248 200 0
248 200 0
251 234 0
251 234 0
251 234 0
251 235 0
251 235 0
251 235 0
251 235 0
251 236 0
251 236 0
251 236 0
251 237 0
251 237 0
251 238 0
251 238 0
251 239 0
251 239 0
251 239 0
251 240 0
251 240 0
251 240 0
252 240 0
252 240 0
252 240 0
252 239 0
252 239 0
252 238 0
252 238 0
251 237 0
251 236 0
251 234 0
251 233 0
251 231 0
251 230 0
251 228 0
251 226 0
250 224 0
250 222 0
250 220 0
250 218 0
250 216 0
249 213 0
249 211 0
249 210 0
249 208 0
249 206 0
249 205 0
248 204 0
248 203 0
248 202 0
248 202 0
251 235 0
251 235 0
251 235 0
251 235 0
251 236 0
251 236 0
251 236 0
251 236 0
251 237 0
251 237 0
251 237 0
251 238 0
251 238 0
251 239 0
251 239 0
251 239 0
251 240 0
251 240 0
251 240 0
251 240 0
251 240 0
251 240 0
251 240 0
251 239 0
251 239 0
251 238 0
251 237 0
251 237 0
251 236 0
251 234 0
251 233 0
251 232 0
251 230 0
251 228 0
251 227 0
250 225 0
250 223 0
250 221 0
250 219 0
250 217 0
250 215 0
249 213 0
249 211 0
249 210 0
249 208 0
249 207 0
249 206 0
249 205 0
249 205 0
249 205 0
251 236 0
251 236 0
251 236 0
251 236 0
251 236 0
251 237 0
251 237 0
251 237 0
251 237 0
251 238 0
251 238 0
251 238 0
251 239 0
251 239 0
251 239 0
251 240 0
251 240 0
251 240 0
251 240 0
251 240 0
251 240 0
251 240 0
251 240 0
251 239 0
251 239 0
251 238 0
251 237 0
251 237 0
251 236 0
251 234 0
251 233 0
251 232 0
251 231 0
251 229 0
251 227 0
250 226 0
250 224 0
250 222 0
250 220 0
250 219 0
250 217 0
250 215 0
249 214 0
249 212 0
249 211 0
249 210 0
249 209 0
249 208 0
249 208 0
249 207 0
251 237 0
251 237 0
251 237 0
251 237 0
251 237 0
251 237 0
251 238 0
251 238 0
251 238 0
251 238 0
251 239 0
251 239 0
251 239 0
251 239 0
251 240 0
251 240 0
251 240 0
251 240 0
251 240 0
251 240 0
251 240 0
251 240 0
251 240 0
251 239 0
251 239 0
251 238 0
251 237 0
251 237 0
251 236 0
251 235 0
251 234 0
251 232 0
251 231 0
251 230 0
251 228 0
251 227 0
250 225 0
250 224 0
250 222 0
250 220 0
250 219 0
250 217 0
250 216 0
250 215 0
250 213 0
249 212 0
249 211 0
249 211 0
249 210 0
249 210 0
251 237 0
251 237 0
251 238 0
251 238 0
251 238 0
251 238 0
251 238 0
251 238 0
251 239 0
251 239 0
251 239 0
251 239 0
251 240 0
251 240 0
251 240 0
251 240 0
251 240 0
251 240 0
251 240 0
251 240 0
251 240 0
251 240 0
251 240 0
251 239 0
251 239 0
251 238 0
251 238 0
251 237 0
251 236 0
251 235 0
251 234 0
251 233 0
251 232 0
251 231 0
251 229 0
251 228 0
251 227 0
250 225 0
250 224 0
250 222 0
250 221 0
250 220 0
250 218 0
250 217 0
250 216 0
250 215 0
250 214 0
250 214 0
250 213 0
250 213 0
252 238 0
252 238 0
252 238 0
252 238 0
252 238 0
252 239 0
252 239 0
252 239 0
252 239 0
252 239 0
252 240 0
252 240 0
252 240 0
252 240 0
252 240 0
252 241 0
251 241 0
251 241 0
251 241 0
251 240 0
251 240 0
251 240 0
251 240 0
251 239 0
251 239 0
251 238 0
251 238 0
251 237 0
251 236 0
251 236 0
251 235 0
251 234 0
251 233 0
251 232 0
251 230 0
251 229 0
251 228 0
251 227 0
251 226 0
251 224 0
250 223 0
250 222 0
250 221 0
250 220 0
250 219 0
250 218 0
250 218 0
250 217 0
250 217 0
250 216 0
252 239 0
252 239 0
252 239 0
252 239 0
252 239 0
252 239 0
252 239 0
252 239 0
252 240 0
252 240 0
252 240 0
252 240 0
252 240 0
252 241 0
252 241 0
252 241 0
252 241 0
251 241 0
251 241 0
251 241 0
251 240 0
251 240 0
251 240 0
251 240 0
251 239 0
251 239 0
251 238 0
251 237 0
251 237 0
251 236 0
251 235 0
251 235 0
251 234 0
251 233 0
251 232 0
251 231 0
251 230 0
251 229 0
251 228 0
251 227 0
251 226 0
251 225 0
251 224 0
251 223 0
251 222 0
251 221 0
251 221 0
251 220 0
251 220 0
250 220 0
252 239 0
252 239 0
252 239 0
252 239 0
252 239 0
252 239 0
252 240 0
252 240 0
252 240 0
252 240 0
252 240 0
252 241 0
252 241 0
252 241 0
252 241 0
252 241 0
252 241 0
251 241 0
251 241 0
251 241 0
251 241 0
251 240 0
251 240 0
251 240 0
251 239 0
251 239 0
251 238 0
251 238 0
251 237 0
251 237 0
251 236 0
251 235 0
251 235 0
251 234 0
251 233 0
251 232 0
251 231 0
251 231 0
251 230 0
251 229 0
251 228 0
251 227 0
251 226 0
251 226 0
251 225 0
251 224 0
251 224 0
251 224 0
251 223 0
251 223 0
252 239 0
252 239 0
252 239 0
252 239 0
252 240 0
252 240 0
252 240 0
252 240 0
252 240 0
252 240 0
252 241 0
252 241 0
252 241 0
252 241 0
252 241 0
252 241 0
252 241 0
251 241 0
251 241 0
251 241 0
251 241 0
251 241 0
251 240 0
251 240 0
251 240 0
251 239 0
251 239 0
251 238 0
251 238 0
251 237 0
251 237 0
251 236 0
251 236 0
251 235 0
251 235 0
251 234 0
251 233 0
251 233 0
251 232 0
251 231 0
251 231 0
251 230 0
251 229 0
251 229 0
251 228 0
251 228 0
251 227 0
251 227 0
251 227 0
251 227 0
252 240 0
252 240 0
252 240 0
252 240 0
252 240 0
252 240 0
252 240 0
252 240 0
252 240 0
252 241 0
252 241 0
252 241 0
252 241 0
252 241 0
252 241 0
252 241 0
252 241 0
251 241 0
251 241 0
251 241 0
251 241 0
251 241 0
251 241 0
251 240 0
251 240 0
251 240 0
251 239 0
251 239 0
251 239 0
251 238 0
251 238 0
251 237 0
251 237 0
251 237 0
251 236 0
252 236 0
252 235 0
252 235 0
252 234 0
252 234 0
252 233 0
252 232 0
252 232 0
252 231 0
252 231 0
252 231 0
252 230 0
252 230 0
252 230 0
252 230 0
252 240 0
252 240 0
252 240 0
252 240 0
252 240 0
252 240 0
252 240 0
252 240 0
252 240 0
252 241 0
252 241 0
252 241 0
252 241 0
252 241 0
252 241 0
252 241 0
252 241 0
251 241 0
251 241 0
251 241 0
251 241 0
251 241 0
251 241 0
251 241 0
251 240 0
251 240 0
251 240 0
251 240 0
251 239 0
251 239 0
251 239 0
251 238 0
252 238 0
252 238 0
252 238 0
252 237 0
252 237 0
252 237 0
252 236 0
252 236 0
252 235 0
252 235 0
252 235 0
252 234 0
252 234 0
252 234 0
252 233 0
252 233 0
252 233 0
252 233 0
252 240 0
252 240 0
252 240 0
252 240 0
252 240 0
252 240 0
252 240 0
252 240 0
252 240 0
252 241 0
252 241 0
252 241 0
252 241 0
252 241 0
252 241 0
252 241 0
251 241 0
251 241 0
251 241 0
251 241 0
251 241 0
251 241 0
251 241 0
251 241 0
251 241 0
251 240 0
251 240 0
251 240 0
251 240 0
251 240 0
251 240 0
252 239 0
252 239 0
252 239 0
252 239 0
252 239 0
252 239 0
252 238 0
252 238 0
252 238 0
252 238 0
253 237 0
253 237 0
253 237 0
253 237 0
253 237 0
253 236 0
253 236 0
253 236 0
253 236 0
252 239 0
252 240 0
252 240 0
252 240 0
252 240 0
252 240 0
252 240 0
252 240 0
252 240 0
252 240 0
252 241 0
252 241 0
252 241 0
252 241 0
251 241 0
251 241 0
251 241 0
251 241 0
251 241 0
251 241 0
251 241 0
251 241 0
251 241 0
251 241 0
251 241 0
251 241 0
251 241 0
251 241 0
251 241 0
252 241 0
252 240 0
252 240 0
252 240 0
252 240 0
252 240 0
252 240 0
252 240 0
252 240 0
253 240 0
253 240 0
253 240 0
253 240 0
253 240 0
253 240 0
253 239 0
253 239 0
253 239 0
253 239 0
253 239 0
253 239 0
252 239 0
252 239 0
252 239 0
252 239 0
252 240 0
252 240 0
252 240 0
252 240 0
252 240 0
252 240 0
251 240 0
251 240 0
251 241 0
251 241 0
251 241 0
251 241 0
251 241 0
251 241 0
251 241 0
251 241 0
251 241 0
251 241 0
251 241 0
251 241 0
251 241 0
251 241 0
251 241 0
251 241 0
252 241 0
252 241 0
252 241 0
252 241 0
252 242 0
252 242 0
252 242 0
252 242 0
253 242 0
253 242 0
253 242 0
253 242 0
253 242 0
253 242 0
253 242 0
253 242 0
253 242 0
253 242 0
253 242 0
253 242 0
253 242 0
253 242 0
251 239 0
251 239 0
251 239 0
251 239 0
251 239 0
251 239 0
251 239 0
251 240 0
251 240 0
251 240 0
251 240 0
251 240 0
251 240 0
251 240 0
251 241 0
251 241 0
251 241 0
251 241 0
251 241 0
251 241 0
251 241 0
251 241 0
251 241 0
251 241 0
251 241 0
251 241 0
251 241 0
251 242 0
252 242 0
252 242 0
252 242 0
252 242 0
252 242 0
252 243 0
252 243 0
253 243 0
253 243 0
253 244 0
253 244 0
253 244 0
253 244 0
253 244 0
253 244 0
254 244 0
254 244 0
254 244 0
254 244 0
254 244 0
254 244 0
254 244 0
251 239 0
251 239 0
251 239 0
251 239 0
251 239 0
251 239 0
251 239 0
251 239 0
251 239 0
251 239 0
251 240 0
251 240 0
251 240 0
251 240 0
251 240 0
251 240 0
251 240 0
251 240 0
251 241 0
251 241 0
251 241 0
251 241 0
251 241 0
251 241 0
251 241 0
251 241 0
251 242 0
252 242 0
252 242 0
252 242 0
252 243 0
252 243 0
252 243 0
252 244 0
253 244 0
253 244 0
253 245 0
253 245 0
253 245 0
253 245 0
253 246 0
254 246 0
254 246 0
254 246 0
254 246 0
254 246 0
254 246 0
254 246 0
254 246 0
254 246 0
251 238 0
251 238 0
251 238 0
251 238 0
251 238 0
251 238 0
251 239 0
251 239 0
251 239 0
251 239 0
251 239 0
251 239 0
251 239 0
251 239 0
251 240 0
251 240 0
251 240 0
251 240 0
251 240 0
251 240 0
251 241 0
251 241 0
251 241 0
251 241 0
251 241 0
251 242 0
251 242 0
252 242 0
252 242 0
252 243 0
252 243 0
252 244 0
252 244 0
253 245 0
253 245 0
253 245 0
253 246 0
253 246 0
253 247 0
254 247 0
254 247 0
254 247 0
254 248 0
254 248 0
254 248 0
254 248 0
254 248 0
254 248 0
254 248 0
254 248 0
251 238 0
251 238 0
251 238 0
251 238 0
251 238 0
251 238 0
251 238 0
251 238 0
251 238 0
251 238 0
251 239 0
251 239 0
251 239 0
251 239 0
251 239 0
251 239 0
251 239 0
251 240 0
251 240 0
251 240 0
251 240 0
251 240 0
251 241 0
251 241 0
251 241 0
251 242 0
251 242 0
252 242 0
252 243 0
252 243 0
252 244 0
252 244 0
252 245 0
253 245 0
253 246 0
253 246 0
253 247 0
253 247 0
253 248 0
254 248 0
254 248 0
254 249 0
254 249 0
254 249 0
254 249 0
254 249 0
254 250 0
254 250 0
254 250 0
254 250 0
251 237 0
251 237 0
251 237 0
251 237 0
251 237 0
251 237 0
251 238 0
251 238 0
251 238 0
251 238 0
251 238 0
251 238 0
251 238 0
251 238 0
251 238 0
251 239 0
251 239 0
251 239 0
251 239 0
251 239 0
251 240 0
251 240 0
251 240 0
251 241 0
251 241 0
251 241 0
251 242 0
252 242 0
252 243 0
252 243 0
252 244 0
252 245 0
252 245 0
253 246 0
253 246 0
253 247 0
253 248 0
253 248 0
254 249 0
254 249 0
254 249 0
254 250 0
254 250 0
254 250 0
254 251 0
254 251 0
254 251 0
254 251 0
254 251 0
254 251 0
251 237 0
251 237 0
251 237 0
251 237 0
251 237 0
251 237 0
251 237 0
251 237 0
251 237 0
251 237 0
251 237 0
251 237 0
251 238 0
251 238 0
251 238 0
251 238 0
251 238 0
251 238 0
251 239 0
251 239 0
251 239 0
251 240 0
251 240 0
251 240 0
251 241 0
251 241 0
251 242 0
251 242 0
252 243 0
252 244 0
252 244 0
252 245 0
252 246 0
253 246 0
253 247 0
253 248 0
253 248 0
253 249 0
254 249 0
254 250 0
254 250 0
254 251 0
254 251 0
254 251 0
254 252 0
254 252 0
254 252 0
254 252 0
254 252 0
254 252 0
251 236 0
251 236 0
251 236 0
251 236 0
251 236 0
251 236 0
251 236 0
251 236 0
251 236 0
251 237 0
251 237 0
251 237 0
251 237 0
251 237 0
251 237 0
251 237 0
251 238 0
251 238 0
251 238 0
251 238 0
251 239 0
251 239 0
251 240 0
251 240 0
251 241 0
251 241 0
251 242 0
251 242 0
252 243 0
252 244 0
252 244 0
252 245 0
252 246 0
253 247 0
253 247 0
253 248 0
253 249 0
253 249 0
254 250 0
254 250 0
254 251 0
254 251 0
254 252 0
254 252 0
254 252 0
254 253 0
254 253 0
254 253 0
254 253 0
254 253 0
251 236 0
251 236 0
251 236 0
251 236 0
251 236 0
251 236 0
251 236 0
251 236 0
251 236 0
251 236 0
251 236 0
251 236 0
250 236 0
250 236 0
250 236 0
250 237 0
250 237 0
250 237 0
250 237 0
251 238 0
251 238 0
251 239 0
251 239 0
251 240 0
251 240 0
251 241 0
251 241 0
251 242 0
252 243 0
252 244 0
252 244 0
252 245 0
252 246 0
253 247 0
253 248 0
253 248 0
253 249 0
253 250 0
254 250 0
254 251 0
254 251 0
254 252 0
254 252 0
254 253 0
254 253 0
254 253 0
254 253 0
254 253 0
254 254 0
254 254 0
251 235 0
251 235 0
251 235 0
251 235 0
251 235 0
251 235 0
251 235 0
251 235 0
251 235 0
250 235 0
250 235 0
250 235 0
250 235 0
250 236 0
250 236 0
250 236 0
250 236 0
250 236 0
250 237 0
250 237 0
250 238 0
250 238 0
251 239 0
251 239 0
251 240 0
251 240 0
251 241 0
251 242 0
251 243 0
252 244 0
252 244 0
252 245 0
252 246 0
253 247 0
253 248 0
253 248 0
253 249 0
253 250 0
254 251 0
254 251 0
254 252 0
254 252 0
254 253 0
254 253 0
254 253 0
254 254 0
254 254 0
254 254 0
254 254 0
254 254 0
251 235 0
251 235 0
251 235 0
251 235 0
251 235 0
251 235 0
251 235 0
250 235 0
250 235 0
250 235 0
250 235 0
250 235 0
250 235 0
250 235 0
250 235 0
250 235 0
250 236 0
250 236 0
250 236 0
250 237 0
250 237 0
250 238 0
250 238 0
251 239 0
251 239 0
251 240 0
251 241 0
251 242 0
251 242 0
252 243 0
252 244 0
252 245 0
252 246 0
252 247 0
253 248 0
253 249 0
253 249 0
253 250 0
253 251 0
254 251 0
254 252 0
254 252 0
254 253 0
254 253 0
254 254 0
254 254 0
254 254 0
254 254 0
254 254 0
254 254 0
251 235 0
251 235 0
251 235 0
251 235 0
251 235 0
250 234 0
250 234 0
250 234 0
250 234 0
250 234 0
250 234 0
250 234 0
250 234 0
250 234 0
250 234 0
250 235 0
250 235 0
250 235 0
250 236 0
250 236 0
250 236 0
250 237 0
250 238 0
250 238 0
251 239 0
251 240 0
251 241 0
251 241 0
251 242 0
252 243 0
252 244 0
252 245 0
252 246 0
252 247 0
253 248 0
253 249 0
253 249 0
253 250 0
253 251 0
254 251 0
254 252 0
254 253 0
254 253 0
254 253 0
254 254 0
254 254 0
254 254 0
254 254 0
254 254 0
254 254 0
251 234 0
251 234 0
251 234 0
251 234 0
251 234 0
250 234 0
250 234 0
250 234 0
250 234 0
250 234 0
250 234 0
250 234 0
250 234 0
250 234 0
250 234 0
250 234 0
250 234 0
250 235 0
250 235 0
250 235 0
250 236 0
250 237 0
250 237 0
250 238 0
250 239 0
251 239 0
251 240 0
251 241 0
251 242 0
251 243 0
252 244 0
252 245 0
252 246 0
252 247 0
253 248 0
253 248 0
253 249 0
253 250 0
253 251 0
253 251 0
254 252 0
254 253 0
254 253 0
254 253 0
254 254 0
254 254 0
254 254 0
254 254 0
254 254 0
254 255 0
251 234 0
251 234 0
251 234 0
251 234 0
250 234 0
250 234 0
250 234 0
250 233 0
250 233 0
250 233 0
250 233 0
250 233 0
250 233 0
250 233 0
250 233 0
250 234 0
250 234 0
250 234 0
250 235 0
250 235 0
250 235 0
250 236 0
250 237 0
250 237 0
250 238 0
251 239 0
251 240 0
251 241 0
251 242 0
251 243 0
252 244 0
252 245 0
252 246 0
252 247 0
252 247 0
253 248 0
253 249 0
253 250 0
253 251 0
253 251 0
253 252 0
254 253 0
254 253 0
254 253 0
254 254 0
254 254 0
254 254 0
254 254 0
254 254 0
254 254 0
251 234 0
251 234 0
251 234 0
250 234 0
250 234 0
250 233 0
250 233 0
250 233 0
250 233 0
250 233 0
250 233 0
250 233 0
250 233 0
250 233 0
250 233 0
250 233 0
250 233 0
250 234 0
250 234 0
250 235 0
250 235 0
250 236 0
250 236 0
250 237 0
250 238 0
250 239 0
251 240 0
251 241 0
251 242 0
251 242 0
251 243 0
252 244 0
252 245 0
252 246 0
252 247 0
253 248 0
253 249 0
253 250 0
253 251 0
253 251 0
253 252 0
253 252 0
254 253 0
254 253 0
254 254 0
254 254 0
254 254 0
254 254 0
254 254 0
254 254 0
251 234 0
251 234 0
251 234 0
250 234 0
250 233 0
250 233 0
250 233 0
250 233 0
250 233 0
250 233 0
250 233 0
250 233 0
250 233 0
250 233 0
250 233 0
250 233 0
250 233 0
250 233 0
250 234 0
250 234 0
250 235 0
250 235 0
250 236 0
250 237 0
250 238 0
250 238 0
251 239 0
251 240 0
251 241 0
251 242 0
251 243 0
252 244 0
252 245 0
252 246 0
252 247 0
253 248 0
253 249 0
253 250 0
253 251 0
253 251 0
253 252 0
253 252 0
254 253 0
254 253 0
254 254 0
254 254 0
254 254 0
254 254 0
254 254 0
254 254 0
251 234 0
251 234 0
250 234 0
250 233 0
250 233 0
250 233 0
250 233 0
250 233 0
250 233 0
250 233 0
250 232 0
250 232 0
250 232 0
250 232 0
250 232 0
250 233 0
250 233 0
250 233 0
250 234 0
250 234 0
250 235 0
250 235 0
250 236 0
250 237 0
250 237 0
250 238 0
251 239 0
251 240 0
251 241 0
251 242 0
251 243 0
252 244 0
252 245 0
252 246 0
252 247 0
252 248 0
253 249 0
253 250 0
253 251 0
253 251 0
253 252 0
253 252 0
253 253 0
254 253 0
254 254 0
254 254 0
254 254 0
254 254 0
254 254 0
254 254 0
251 234 0
251 234 0
250 233 0
250 233 0
250 233 0
250 233 0
250 233 0
250 233 0
250 233 0
250 232 0
250 232 0
250 232 0
250 232 0
250 232 0
250 232 0
250 233 0
250 233 0
250 233 0
250 233 0
250 234 0
250 234 0
250 235 0
250 236 0
250 237 0
250 237 0
250 238 0
251 239 0
251 240 0
251 241 0
251 242 0
251 243 0
252 244 0
252 245 0
252 246 0
252 247 0
252 248 0
253 249 0
253 250 0
253 250 0
253 251 0
253 252 0
253 252 0
253 253 0
254 253 0
254 254 0
254 254 0
254 254 0
254 254 0
254 254 0
254 254 0
