P3
50 50
255
219 241 0
219 241 0
219 241 0
219 241 0
218 242 0
218 242 0
218 242 0
217 243 0
216 243 0
216 244 0
215 244 0
214 245 0
213 245 0
212 246 0
211 247 0
211 247 0
210 248 0
209 249 0
208 249 0
208 250 0
207 250 0
207 251 0
206 251 0
206 251 0
206 252 0
207 252 0
207 252 0
208 251 0
209 251 0
210 250 0
212 250 0
213 249 0
215 248 0
217 247 0
220 245 0
222 244 0
225 242 0
228 241 0
231 239 0
234 237 0
237 236 0
240 234 0
242 233 0
245 231 0
247 230 0
249 229 0
251 228 0
252 227 0
253 227 0
253 227 0
219 241 0
219 241 0
219 241 0
219 241 0
218 242 0
218 242 0
218 242 0
217 243 0
216 243 0
216 244 0
215 244 0
214 245 0
213 245 0
212 246 0
211 247 0
211 247 0
210 248 0
209 249 0
208 249 0
208 250 0
207 250 0
207 251 0
206 251 0
206 251 0
206 252 0
207 252 0
207 251 0
208 251 0
209 251 0
210 250 0
212 250 0
213 249 0
215 248 0
218 246 0
220 245 0
223 244 0
225 242 0
228 241 0
231 239 0
234 237 0
237 236 0
240 234 0
242 233 0
245 231 0
247 230 0
249 229 0
251 228 0
252 227 0
253 227 0
254 227 0
219 241 0
219 241 0
219 241 0
219 241 0
218 242 0
218 242 0
218 242 0
217 243 0
216 243 0
216 244 0
215 244 0
214 245 0
213 245 0
212 246 0
211 247 0
211 247 0
210 248 0
209 249 0
208 249 0
208 250 0
207 250 0
207 251 0
206 251 0
206 251 0
206 251 0
207 251 0
207 251 0
208 251 0
209 251 0
210 250 0
212 249 0
214 249 0
216 248 0
218 246 0
220 245 0
223 244 0
225 242 0
228 241 0
231 239 0
234 237 0
237 236 0
240 234 0
243 233 0
245 231 0
247 230 0
249 229 0
251 228 0
252 227 0
253 227 0
254 226 0
219 241 0
219 241 0
219 241 0
219 241 0
218 242 0
218 242 0
218 242 0
217 243 0
216 243 0
216 244 0
215 244 0
214 245 0
213 245 0
212 246 0
212 247 0
211 247 0
210 248 0
209 248 0
208 249 0
208 250 0
207 250 0
207 251 0
207 251 0
207 251 0
207 251 0
207 251 0
208 251 0
208 251 0
209 251 0
211 250 0
212 249 0
214 248 0
216 247 0
218 246 0
220 245 0
223 243 0
226 242 0
228 240 0
231 239 0
234 237 0
237 236 0
240 234 0
243 232 0
245 231 0
248 230 0
250 229 0
251 228 0
252 227 0
253 227 0
254 226 0
219 241 0
219 241 0
219 241 0
219 241 0
218 242 0
218 242 0
218 242 0
217 243 0
216 243 0
216 244 0
215 244 0
214 245 0
213 245 0
213 246 0
212 246 0
211 247 0
210 248 0
209 248 0
209 249 0
208 249 0
207 250 0
207 250 0
207 251 0
207 251 0
207 251 0
207 251 0
208 251 0
209 251 0
210 250 0
211 250 0
212 249 0
214 248 0
216 247 0
218 246 0
221 245 0
223 243 0
226 242 0
229 240 0
232 239 0
235 237 0
237 235 0
240 234 0
243 232 0
245 231 0
248 230 0
250 229 0
251 228 0
253 227 0
254 226 0
254 226 0
219 241 0
219 241 0
219 241 0
219 241 0
218 242 0
218 242 0
218 242 0
217 243 0
216 243 0
216 243 0
215 244 0
214 245 0
213 245 0
213 246 0
212 246 0
211 247 0
210 248 0
209 248 0
209 249 0
208 249 0
208 250 0
207 250 0
207 250 0
207 251 0
207 251 0
208 251 0
208 251 0
209 250 0
210 250 0
211 249 0
213 249 0
214 248 0
216 247 0
219 246 0
221 244 0
224 243 0
226 241 0
229 240 0
232 238 0
235 237 0
238 235 0
241 234 0
243 232 0
246 231 0
248 229 0
250 228 0
252 227 0
253 227 0
254 226 0
254 226 0
219 241 0
219 241 0
219 241 0
219 241 0
218 242 0
218 242 0
218 242 0
217 243 0
216 243 0
216 243 0
215 244 0
214 244 0
214 245 0
213 246 0
212 246 0
211 247 0
210 247 0
210 248 0
209 249 0
208 249 0
208 250 0
208 250 0
207 250 0
207 250 0
208 251 0
208 251 0
209 250 0
209 250 0
210 250 0
212 249 0
213 248 0
215 247 0
217 246 0
219 245 0
221 244 0
224 243 0
227 241 0
229 240 0
232 238 0
235 236 0
238 235 0
241 233 0
243 232 0
246 231 0
248 229 0
250 228 0
252 227 0
253 227 0
254 226 0
254 226 0
219 241 0
219 241 0
219 241 0
219 241 0
218 242 0
218 242 0
218 242 0
217 243 0
216 243 0
216 243 0
215 244 0
214 244 0
214 245 0
213 246 0
212 246 0
211 247 0
211 247 0
210 248 0
209 248 0
209 249 0
208 249 0
208 250 0
208 250 0
208 250 0
208 250 0
208 250 0
209 250 0
210 250 0
211 249 0
212 249 0
214 248 0
215 247 0
217 246 0
219 245 0
222 244 0
224 242 0
227 241 0
230 239 0
233 238 0
235 236 0
238 235 0
241 233 0
244 232 0
246 230 0
248 229 0
250 228 0
252 227 0
253 226 0
254 226 0
254 226 0
219 241 0
219 241 0
219 241 0
219 242 0
218 242 0
218 242 0
217 242 0
217 243 0
216 243 0
216 243 0
215 244 0
214 244 0
214 245 0
213 245 0
212 246 0
211 247 0
211 247 0
210 248 0
209 248 0
209 249 0
209 249 0
208 249 0
208 250 0
208 250 0
208 250 0
209 250 0
209 250 0
210 249 0
211 249 0
213 248 0
214 248 0
216 247 0
218 246 0
220 245 0
222 243 0
225 242 0
227 241 0
230 239 0
233 237 0
236 236 0
239 234 0
241 233 0
244 231 0
246 230 0
248 229 0
250 228 0
252 227 0
253 226 0
254 226 0
255 226 0
219 241 0
219 241 0
219 241 0
218 242 0
218 242 0
218 242 0
217 242 0
217 243 0
216 243 0
216 243 0
215 244 0
214 244 0
214 245 0
213 245 0
212 246 0
212 246 0
211 247 0
210 247 0
210 248 0
209 248 0
209 249 0
209 249 0
209 249 0
209 249 0
209 250 0
209 249 0
210 249 0
211 249 0
212 248 0
213 248 0
214 247 0
216 246 0
218 245 0
220 244 0
223 243 0
225 242 0
228 240 0
230 239 0
233 237 0
236 236 0
239 234 0
241 233 0
244 231 0
246 230 0
249 229 0
250 228 0
252 227 0
253 226 0
254 226 0
254 226 0
219 241 0
219 241 0
219 242 0
218 242 0
218 242 0
218 242 0
217 242 0
217 243 0
216 243 0
216 243 0
215 244 0
214 244 0
214 245 0
213 245 0
212 246 0
212 246 0
211 247 0
210 247 0
210 248 0
210 248 0
209 248 0
209 249 0
209 249 0
209 249 0
209 249 0
210 249 0
210 249 0
211 249 0
212 248 0
213 247 0
215 247 0
217 246 0
219 245 0
221 244 0
223 243 0
225 241 0
228 240 0
231 238 0
233 237 0
236 235 0
239 234 0
241 233 0
244 231 0
246 230 0
248 229 0
250 228 0
252 227 0
253 226 0
254 226 0
254 226 0
218 242 0
218 242 0
218 242 0
218 242 0
218 242 0
217 242 0
217 242 0
217 243 0
216 243 0
216 243 0
215 244 0
214 244 0
214 245 0
213 245 0
212 246 0
212 246 0
211 247 0
211 247 0
210 248 0
210 248 0
210 248 0
209 248 0
209 249 0
209 249 0
210 249 0
210 249 0
211 248 0
212 248 0
213 248 0
214 247 0
215 246 0
217 245 0
219 244 0
221 243 0
223 242 0
226 241 0
228 240 0
231 238 0
233 237 0
236 235 0
239 234 0
241 232 0
244 231 0
246 230 0
248 229 0
250 228 0
252 227 0
253 226 0
254 226 0
254 226 0
218 242 0
218 242 0
218 242 0
218 242 0
218 242 0
217 242 0
217 243 0
216 243 0
216 243 0
215 244 0
215 244 0
214 244 0
214 245 0
213 245 0
212 246 0
212 246 0
211 247 0
211 247 0
210 247 0
210 248 0
210 248 0
210 248 0
210 248 0
210 248 0
210 248 0
211 248 0
211 248 0
212 248 0
213 247 0
214 247 0
216 246 0
218 245 0
219 244 0
221 243 0
224 242 0
226 241 0
228 239 0
231 238 0
234 237 0
236 235 0
239 234 0
241 232 0
244 231 0
246 230 0
248 229 0
250 228 0
251 227 0
252 227 0
253 226 0
253 226 0
218 242 0
218 242 0
218 242 0
217 242 0
217 242 0
217 243 0
217 243 0
216 243 0
216 243 0
215 244 0
215 244 0
214 244 0
214 245 0
213 245 0
212 246 0
212 246 0
211 246 0
211 247 0
211 247 0
210 247 0
210 248 0
210 248 0
210 248 0
210 248 0
210 248 0
211 248 0
212 248 0
213 247 0
214 247 0
215 246 0
216 245 0
218 245 0
220 244 0
222 243 0
224 242 0
226 240 0
228 239 0
231 238 0
233 236 0
236 235 0
238 234 0
241 232 0
243 231 0
245 230 0
247 229 0
249 228 0
250 227 0
252 227 0
252 226 0
253 226 0
217 242 0
217 242 0
217 242 0
217 243 0
217 243 0
217 243 0
216 243 0
216 243 0
215 244 0
215 244 0
214 244 0
214 245 0
213 245 0
213 245 0
212 246 0
212 246 0
211 246 0
211 247 0
211 247 0
210 247 0
210 247 0
210 248 0
210 248 0
211 248 0
211 248 0
211 247 0
212 247 0
213 247 0
214 246 0
215 246 0
217 245 0
218 244 0
220 243 0
222 242 0
224 241 0
226 240 0
228 239 0
231 238 0
233 236 0
236 235 0
238 234 0
240 233 0
243 231 0
245 230 0
247 229 0
248 228 0
250 228 0
251 227 0
251 227 0
252 227 0
217 243 0
217 243 0
217 243 0
217 243 0
216 243 0
216 243 0
216 243 0
216 244 0
215 244 0
215 244 0
214 244 0
214 245 0
213 245 0
213 245 0
212 246 0
212 246 0
211 246 0
211 247 0
211 247 0
211 247 0
211 247 0
210 247 0
211 247 0
211 247 0
211 247 0
212 247 0
212 247 0
213 246 0
214 246 0
215 245 0
217 245 0
218 244 0
220 243 0
222 242 0
224 241 0
226 240 0
228 239 0
231 238 0
233 236 0
235 235 0
237 234 0
240 233 0
242 232 0
244 231 0
246 230 0
247 229 0
248 228 0
249 228 0
250 227 0
250 227 0
217 243 0
217 243 0
216 243 0
216 243 0
216 243 0
216 243 0
215 244 0
215 244 0
215 244 0
214 244 0
214 245 0
214 245 0
213 245 0
213 245 0
212 246 0
212 246 0
211 246 0
211 247 0
211 247 0
211 247 0
211 247 0
211 247 0
211 247 0
211 247 0
211 247 0
212 247 0
213 247 0
213 246 0
214 246 0
216 245 0
217 244 0
218 244 0
220 243 0
222 242 0
224 241 0
226 240 0
228 239 0
230 238 0
232 237 0
235 235 0
237 234 0
239 233 0
241 232 0
243 231 0
244 230 0
246 229 0
247 229 0
248 228 0
249 228 0
249 228 0
216 243 0
216 243 0
216 243 0
216 244 0
216 244 0
215 244 0
215 244 0
215 244 0
214 244 0
214 245 0
214 245 0
213 245 0
213 245 0
212 246 0
212 246 0
212 246 0
211 246 0
211 246 0
211 247 0
211 247 0
211 247 0
211 247 0
211 247 0
211 247 0
212 247 0
212 247 0
213 246 0
214 246 0
215 245 0
216 245 0
217 244 0
218 244 0
220 243 0
222 242 0
224 241 0
225 240 0
227 239 0
230 238 0
232 237 0
234 236 0
236 235 0
238 234 0
240 233 0
241 232 0
243 231 0
244 230 0
246 230 0
246 229 0
247 229 0
247 229 0
216 244 0
215 244 0
215 244 0
215 244 0
215 244 0
215 244 0
215 244 0
214 244 0
214 245 0
214 245 0
213 245 0
213 245 0
213 245 0
212 246 0
212 246 0
212 246 0
211 246 0
211 246 0
211 247 0
211 247 0
211 247 0
211 247 0
211 247 0
211 247 0
212 247 0
212 246 0
213 246 0
214 246 0
215 245 0
216 245 0
217 244 0
218 243 0
220 243 0
221 242 0
223 241 0
225 240 0
227 239 0
229 238 0
231 237 0
233 236 0
235 235 0
237 234 0
238 233 0
240 232 0
241 232 0
243 231 0
244 230 0
245 230 0
245 230 0
245 230 0
215 244 0
215 244 0
215 244 0
215 244 0
215 244 0
214 244 0
214 245 0
214 245 0
214 245 0
213 245 0
213 245 0
213 245 0
212 246 0
212 246 0
212 246 0
211 246 0
211 246 0
211 246 0
211 247 0
211 247 0
211 247 0
211 247 0
211 247 0
211 247 0
212 246 0
212 246 0
213 246 0
214 245 0
215 245 0
216 245 0
217 244 0
218 243 0
220 243 0
221 242 0
223 241 0
224 240 0
226 239 0
228 238 0
230 238 0
232 237 0
233 236 0
235 235 0
237 234 0
238 233 0
240 233 0
241 232 0
242 231 0
243 231 0
243 231 0
243 231 0
214 244 0
214 244 0
214 245 0
214 245 0
214 245 0
214 245 0
214 245 0
213 245 0
213 245 0
213 245 0
213 245 0
212 246 0
212 246 0
212 246 0
212 246 0
211 246 0
211 246 0
211 246 0
211 247 0
211 247 0
211 247 0
211 247 0
211 247 0
212 246 0
212 246 0
212 246 0
213 246 0
214 245 0
215 245 0
216 245 0
217 244 0
218 243 0
219 243 0
221 242 0
222 241 0
224 241 0
225 240 0
227 239 0
229 238 0
230 237 0
232 236 0
234 236 0
235 235 0
236 234 0
238 234 0
239 233 0
240 233 0
240 232 0
241 232 0
241 232 0
214 245 0
214 245 0
214 245 0
214 245 0
214 245 0
213 245 0
213 245 0
213 245 0
213 245 0
213 246 0
212 246 0
212 246 0
212 246 0
212 246 0
211 246 0
211 246 0
211 246 0
211 247 0
211 247 0
211 247 0
211 247 0
211 247 0
211 246 0
212 246 0
212 246 0
212 246 0
213 246 0
214 245 0
215 245 0
215 245 0
216 244 0
218 243 0
219 243 0
220 242 0
221 242 0
223 241 0
224 240 0
226 239 0
227 239 0
229 238 0
230 237 0
232 236 0
233 236 0
235 235 0
236 235 0
237 234 0
237 234 0
238 233 0
239 233 0
239 233 0
213 245 0
213 245 0
213 245 0
213 245 0
213 245 0
213 245 0
213 246 0
213 246 0
212 246 0
212 246 0
212 246 0
212 246 0
211 246 0
211 246 0
211 246 0
211 246 0
211 247 0
211 247 0
211 247 0
211 247 0
211 247 0
211 247 0
211 246 0
211 246 0
212 246 0
212 246 0
213 246 0
214 245 0
214 245 0
215 245 0
216 244 0
217 244 0
218 243 0
219 243 0
221 242 0
222 241 0
223 241 0
225 240 0
226 239 0
227 239 0
229 238 0
230 237 0
231 237 0
232 236 0
233 236 0
234 235 0
235 235 0
236 235 0
236 235 0
236 235 0
213 246 0
213 246 0
213 246 0
213 246 0
213 246 0
213 246 0
212 246 0
212 246 0
212 246 0
212 246 0
212 246 0
211 246 0
211 246 0
211 246 0
211 247 0
211 247 0
211 247 0
211 247 0
211 247 0
211 247 0
211 247 0
211 247 0
211 246 0
211 246 0
212 246 0
212 246 0
213 246 0
213 245 0
214 245 0
215 245 0
216 244 0
217 244 0
217 243 0
219 243 0
220 242 0
221 242 0
222 241 0
223 241 0
224 240 0
226 240 0
227 239 0
228 239 0
229 238 0
230 238 0
231 237 0
232 237 0
233 236 0
233 236 0
233 236 0
234 236 0
213 246 0
213 246 0
212 246 0
212 246 0
212 246 0
212 246 0
212 246 0
212 246 0
212 246 0
211 246 0
211 246 0
211 246 0
211 247 0
211 247 0
211 247 0
211 247 0
210 247 0
210 247 0
210 247 0
210 247 0
211 247 0
211 247 0
211 246 0
211 246 0
212 246 0
212 246 0
212 246 0
213 245 0
214 245 0
214 245 0
215 245 0
216 244 0
217 244 0
218 243 0
219 243 0
220 243 0
221 242 0
222 242 0
223 241 0
224 241 0
225 240 0
226 240 0
227 239 0
228 239 0
229 238 0
229 238 0
230 238 0
230 238 0
231 238 0
231 238 0
212 246 0
212 246 0
212 246 0
212 246 0
212 246 0
212 246 0
212 246 0
212 246 0
211 246 0
211 246 0
211 247 0
211 247 0
211 247 0
211 247 0
210 247 0
210 247 0
210 247 0
210 247 0
210 247 0
210 247 0
210 247 0
211 247 0
211 246 0
211 246 0
211 246 0
212 246 0
212 246 0
213 246 0
213 245 0
214 245 0
214 245 0
215 245 0
216 244 0
217 244 0
218 244 0
218 243 0
219 243 0
220 242 0
221 242 0
222 242 0
223 241 0
224 241 0
225 240 0
226 240 0
226 240 0
227 240 0
227 239 0
228 239 0
228 239 0
228 239 0
212 246 0
212 246 0
212 246 0
212 246 0
212 246 0
212 246 0
211 246 0
211 246 0
211 247 0
211 247 0
211 247 0
211 247 0
211 247 0
210 247 0
210 247 0
210 247 0
210 247 0
210 247 0
210 247 0
210 247 0
210 247 0
210 247 0
211 247 0
211 246 0
211 246 0
211 246 0
212 246 0
212 246 0
213 246 0
213 245 0
214 245 0
214 245 0
215 245 0
216 244 0
217 244 0
217 244 0
218 244 0
219 243 0
220 243 0
220 243 0
221 242 0
222 242 0
223 242 0
223 241 0
224 241 0
224 241 0
225 241 0
225 241 0
225 241 0
225 241 0
212 246 0
212 246 0
212 246 0
212 246 0
211 246 0
211 246 0
211 247 0
211 247 0
211 247 0
211 247 0
211 247 0
211 247 0
210 247 0
210 247 0
210 247 0
210 247 0
210 247 0
210 247 0
210 247 0
210 247 0
210 247 0
210 247 0
210 247 0
211 246 0
211 246 0
211 246 0
212 246 0
212 246 0
212 246 0
213 246 0
213 246 0
214 245 0
214 245 0
215 245 0
215 245 0
216 245 0
217 244 0
217 244 0
218 244 0
219 244 0
219 243 0
220 243 0
220 243 0
221 243 0
222 243 0
222 242 0
222 242 0
223 242 0
223 242 0
223 242 0
212 246 0
211 246 0
211 246 0
211 246 0
211 247 0
211 247 0
211 247 0
211 247 0
211 247 0
211 247 0
211 247 0
210 247 0
210 247 0
210 247 0
210 247 0
210 247 0
210 247 0
210 247 0
210 247 0
210 247 0
210 247 0
210 247 0
210 247 0
210 247 0
211 246 0
211 246 0
211 246 0
211 246 0
212 246 0
212 246 0
212 246 0
213 246 0
213 246 0
214 246 0
214 245 0
215 245 0
215 245 0
216 245 0
216 245 0
217 245 0
217 245 0
218 244 0
218 244 0
219 244 0
219 244 0
220 244 0
220 244 0
220 244 0
220 244 0
220 244 0
211 246 0
211 246 0
211 246 0
211 247 0
211 247 0
211 247 0
211 247 0
211 247 0
211 247 0
211 247 0
211 247 0
210 247 0
210 247 0
210 247 0
210 247 0
210 247 0
210 247 0
210 247 0
210 247 0
210 247 0
210 247 0
210 247 0
210 247 0
210 247 0
210 247 0
211 247 0
211 246 0
211 246 0
211 246 0
212 246 0
212 246 0
212 246 0
212 246 0
213 246 0
213 246 0
214 246 0
214 246 0
214 246 0
215 246 0
215 246 0
216 246 0
216 246 0
216 245 0
217 245 0
217 245 0
217 245 0
217 245 0
218 245 0
218 245 0
218 245 0
211 246 0
211 246 0
211 246 0
211 246 0
211 247 0
211 247 0
211 247 0
211 247 0
211 247 0
211 247 0
211 247 0
210 247 0
210 247 0
210 247 0
210 247 0
210 247 0
210 247 0
210 247 0
210 247 0
210 247 0
210 247 0
210 247 0
210 247 0
210 247 0
210 247 0
210 247 0
210 247 0
211 247 0
211 247 0
211 247 0
211 247 0
211 247 0
212 247 0
212 247 0
212 247 0
212 247 0
213 247 0
213 247 0
213 247 0
213 247 0
214 247 0
214 247 0
214 247 0
215 247 0
215 247 0
215 247 0
215 246 0
215 246 0
215 246 0
215 246 0
211 246 0
211 246 0
211 246 0
211 246 0
211 246 0
211 246 0
211 246 0
211 247 0
211 247 0
211 247 0
211 247 0
211 247 0
210 247 0
210 247 0
210 247 0
210 247 0
210 247 0
210 247 0
210 247 0
210 247 0
210 247 0
210 247 0
210 247 0
210 247 0
210 247 0
210 247 0
210 247 0
210 247 0
210 247 0
210 247 0
210 247 0
211 247 0
211 247 0
211 247 0
211 247 0
211 247 0
211 247 0
212 248 0
212 248 0
212 248 0
212 248 0
212 248 0
212 248 0
213 248 0
213 248 0
213 248 0
213 248 0
213 248 0
213 248 0
213 248 0
212 246 0
212 246 0
211 246 0
211 246 0
211 246 0
211 246 0
211 246 0
211 246 0
211 246 0
211 246 0
211 246 0
211 247 0
211 247 0
210 247 0
210 247 0
210 247 0
210 247 0
210 247 0
210 247 0
210 247 0
210 247 0
210 247 0
210 247 0
210 247 0
210 247 0
210 247 0
210 247 0
210 247 0
210 247 0
210 247 0
210 247 0
210 248 0
210 248 0
210 248 0
210 248 0
210 248 0
210 248 0
210 248 0
210 248 0
210 249 0
211 249 0
211 249 0
211 249 0
211 249 0
211 249 0
211 249 0
211 249 0
211 249 0
211 249 0
211 249 0
212 246 0
212 246 0
212 246 0
212 246 0
212 246 0
211 246 0
211 246 0
211 246 0
211 246 0
211 246 0
211 246 0
211 246 0
211 246 0
211 246 0
211 246 0
210 246 0
210 246 0
210 246 0
210 247 0
210 247 0
210 247 0
210 247 0
210 247 0
210 247 0
210 247 0
210 247 0
210 247 0
210 247 0
209 247 0
209 248 0
209 248 0
209 248 0
209 248 0
209 248 0
209 248 0
209 249 0
209 249 0
209 249 0
209 249 0
209 249 0
209 249 0
209 250 0
209 250 0
209 250 0
209 250 0
209 250 0
209 250 0
209 250 0
209 250 0
209 250 0
212 246 0
212 246 0
212 246 0
212 246 0
212 246 0
212 246 0
212 246 0
212 246 0
211 246 0
211 246 0
211 246 0
211 246 0
211 246 0
211 246 0
211 246 0
211 246 0
211 246 0
210 246 0
210 246 0
210 246 0
210 246 0
210 247 0
210 247 0
210 247 0
210 247 0
210 247 0
209 247 0
209 247 0
209 248 0
209 248 0
209 248 0
209 248 0
209 248 0
208 249 0
208 249 0
208 249 0
208 249 0
208 250 0
208 250 0
208 250 0
208 250 0
208 250 0
208 250 0
208 251 0
208 251 0
208 251 0
208 251 0
208 251 0
208 251 0
208 251 0
212 246 0
212 246 0
212 246 0
212 246 0
212 246 0
212 246 0
212 246 0
212 246 0
212 246 0
212 246 0
212 246 0
211 246 0
211 246 0
211 246 0
211 246 0
211 246 0
211 246 0
211 246 0
211 246 0
210 246 0
210 246 0
210 246 0
210 247 0
210 247 0
210 247 0
209 247 0
209 247 0
209 247 0
209 248 0
209 248 0
208 248 0
208 248 0
208 249 0
208 249 0
208 249 0
207 250 0
207 250 0
207 250 0
207 250 0
207 251 0
207 251 0
207 251 0
206 251 0
206 251 0
206 251 0
206 252 0
206 252 0
206 252 0
206 252 0
206 252 0
212 246 0
212 246 0
212 246 0
212 246 0
212 246 0
212 246 0
212 246 0
212 246 0
212 246 0
212 246 0
212 246 0
212 246 0
212 246 0
212 246 0
211 246 0
211 246 0
211 246 0
211 246 0
211 246 0
211 246 0
211 246 0
210 246 0
210 246 0
210 247 0
210 247 0
209 247 0
209 247 0
209 248 0
209 248 0
208 248 0
208 248 0
208 249 0
207 249 0
207 249 0
207 250 0
207 250 0
206 250 0
206 251 0
206 251 0
206 251 0
206 251 0
205 252 0
205 252 0
205 252 0
205 252 0
205 252 0
205 252 0
205 252 0
205 252 0
205 252 0
213 245 0
213 245 0
213 245 0
213 245 0
213 245 0
213 245 0
213 245 0
213 245 0
212 245 0
212 245 0
212 245 0
212 245 0
212 245 0
212 245 0
212 245 0
212 245 0
212 246 0
211 246 0
211 246 0
211 246 0
211 246 0
211 246 0
210 246 0
210 246 0
210 247 0
209 247 0
209 247 0
209 248 0
208 248 0
208 248 0
208 249 0
207 249 0
207 249 0
207 250 0
206 250 0
206 250 0
206 251 0
205 251 0
205 251 0
205 252 0
205 252 0
205 252 0
204 252 0
204 252 0
204 253 0
204 253 0
204 253 0
204 253 0
204 253 0
204 253 0
213 245 0
213 245 0
213 245 0
213 245 0
213 245 0
213 245 0
213 245 0
213 245 0
213 245 0
213 245 0
213 245 0
213 245 0
212 245 0
212 245 0
212 245 0
212 245 0
212 245 0
212 245 0
211 245 0
211 246 0
211 246 0
211 246 0
210 246 0
210 246 0
210 247 0
209 247 0
209 247 0
209 248 0
208 248 0
208 248 0
208 249 0
207 249 0
207 249 0
206 250 0
206 250 0
206 251 0
205 251 0
205 251 0
204 252 0
204 252 0
204 252 0
204 252 0
204 253 0
203 253 0
203 253 0
203 253 0
203 253 0
203 253 0
203 253 0
203 253 0
213 245 0
213 245 0
213 245 0
213 245 0
213 245 0
213 245 0
213 245 0
213 245 0
213 245 0
213 245 0
213 245 0
213 245 0
213 245 0
213 245 0
213 245 0
212 245 0
212 245 0
212 245 0
212 245 0
212 245 0
211 245 0
211 246 0
211 246 0
210 246 0
210 246 0
210 247 0
209 247 0
209 247 0
208 248 0
208 248 0
207 249 0
207 249 0
206 250 0
206 250 0
206 250 0
205 251 0
205 251 0
204 252 0
204 252 0
204 252 0
203 253 0
203 253 0
203 253 0
203 253 0
202 253 0
202 254 0
202 254 0
202 254 0
202 254 0
202 254 0
214 245 0
214 245 0
214 244 0
214 244 0
214 244 0
214 244 0
214 244 0
214 244 0
214 244 0
214 244 0
214 244 0
213 244 0
213 244 0
213 244 0
213 244 0
213 244 0
213 245 0
212 245 0
212 245 0
212 245 0
212 245 0
211 245 0
211 246 0
211 246 0
210 246 0
210 247 0
209 247 0
209 247 0
208 248 0
208 248 0
207 249 0
207 249 0
206 250 0
206 250 0
205 250 0
205 251 0
204 251 0
204 252 0
203 252 0
203 252 0
203 253 0
202 253 0
202 253 0
202 253 0
202 254 0
202 254 0
202 254 0
201 254 0
201 254 0
201 254 0
214 244 0
214 244 0
214 244 0
214 244 0
214 244 0
214 244 0
214 244 0
214 244 0
214 244 0
214 244 0
214 244 0
214 244 0
214 244 0
214 244 0
213 244 0
213 244 0
213 244 0
213 244 0
213 245 0
212 245 0
212 245 0
212 245 0
211 245 0
211 246 0
210 246 0
210 246 0
209 247 0
209 247 0
208 248 0
208 248 0
207 249 0
207 249 0
206 250 0
206 250 0
205 251 0
204 251 0
204 251 0
204 252 0
203 252 0
203 253 0
202 253 0
202 253 0
202 253 0
202 254 0
201 254 0
201 254 0
201 254 0
201 254 0
201 254 0
201 254 0
214 244 0
214 244 0
214 244 0
214 244 0
214 244 0
214 244 0
214 244 0
214 244 0
214 244 0
214 244 0
214 244 0
214 244 0
214 244 0
214 244 0
214 244 0
214 244 0
213 244 0
213 244 0
213 244 0
213 244 0
212 245 0
212 245 0
211 245 0
211 246 0
210 246 0
210 246 0
209 247 0
209 247 0
208 248 0
208 248 0
207 249 0
207 249 0
206 250 0
205 250 0
205 251 0
204 251 0
204 251 0
203 252 0
203 252 0
202 253 0
202 253 0
202 253 0
201 254 0
201 254 0
201 254 0
201 254 0
201 254 0
200 254 0
200 254 0
200 254 0
215 244 0
215 244 0
215 244 0
215 244 0
215 244 0
215 244 0
215 244 0
215 244 0
215 244 0
215 243 0
215 243 0
215 243 0
215 243 0
214 243 0
214 243 0
214 244 0
214 244 0
214 244 0
213 244 0
213 244 0
213 244 0
212 245 0
212 245 0
211 245 0
211 246 0
210 246 0
210 247 0
209 247 0
208 248 0
208 248 0
207 249 0
207 249 0
206 250 0
205 250 0
205 251 0
204 251 0
204 251 0
203 252 0
203 252 0
202 253 0
202 253 0
201 253 0
201 254 0
201 254 0
201 254 0
200 254 0
200 254 0
200 254 0
200 254 0
200 254 0
215 244 0
215 244 0
215 244 0
215 244 0
215 244 0
215 243 0
215 243 0
215 243 0
215 243 0
215 243 0
215 243 0
215 243 0
215 243 0
215 243 0
215 243 0
214 243 0
214 243 0
214 244 0
214 244 0
213 244 0
213 244 0
212 244 0
212 245 0
211 245 0
211 246 0
210 246 0
210 246 0
209 247 0
208 247 0
208 248 0
207 248 0
207 249 0
206 250 0
205 250 0
205 251 0
204 251 0
204 251 0
203 252 0
202 252 0
202 253 0
202 253 0
201 253 0
201 254 0
201 254 0
200 254 0
200 254 0
200 254 0
200 254 0
200 254 0
200 254 0
215 244 0
215 244 0
215 243 0
215 243 0
215 243 0
215 243 0
215 243 0
215 243 0
215 243 0
215 243 0
215 243 0
215 243 0
215 243 0
215 243 0
215 243 0
215 243 0
214 243 0
214 243 0
214 243 0
214 244 0
213 244 0
213 244 0
212 245 0
212 245 0
211 245 0
210 246 0
210 246 0
209 247 0
209 247 0
208 248 0
207 248 0
207 249 0
206 249 0
205 250 0
205 250 0
204 251 0
203 251 0
203 252 0
202 252 0
202 253 0
201 253 0
201 253 0
201 254 0
200 254 0
200 254 0
200 254 0
200 254 0
200 254 0
200 254 0
200 255 0
215 243 0
215 243 0
215 243 0
215 243 0
216 243 0
216 243 0
216 243 0
216 243 0
216 243 0
216 243 0
216 243 0
216 243 0
215 243 0
215 243 0
215 243 0
215 243 0
215 243 0
214 243 0
214 243 0
214 244 0
213 244 0
213 244 0
212 244 0
212 245 0
211 245 0
211 246 0
210 246 0
209 247 0
209 247 0
208 248 0
207 248 0
207 249 0
206 249 0
205 250 0
205 250 0
204 251 0
203 251 0
203 252 0
202 252 0
202 253 0
201 253 0
201 253 0
201 254 0
200 254 0
200 254 0
200 254 0
200 254 0
200 254 0
200 254 0
199 254 0
216 243 0
216 243 0
216 243 0
216 243 0
216 243 0
216 243 0
216 243 0
216 243 0
216 243 0
216 243 0
216 243 0
216 243 0
216 243 0
216 243 0
215 243 0
215 243 0
215 243 0
215 243 0
214 243 0
214 243 0
213 244 0
213 244 0
212 244 0
212 245 0
211 245 0
211 246 0
210 246 0
209 247 0
209 247 0
208 248 0
207 248 0
207 249 0
206 249 0
205 250 0
205 250 0
204 251 0
203 251 0
203 252 0
202 252 0
202 253 0
201 253 0
201 253 0
201 254 0
200 254 0
200 254 0
200 254 0
200 254 0
200 254 0
199 254 0
199 254 0
216 243 0
216 243 0
216 243 0
216 243 0
216 243 0
216 243 0
216 243 0
216 243 0
216 243 0
216 243 0
216 243 0
216 243 0
216 243 0
216 243 0
215 243 0
215 243 0
215 243 0
215 243 0
214 243 0
214 243 0
214 244 0
213 244 0
213 244 0
212 245 0
211 245 0
211 246 0
210 246 0
209 247 0
209 247 0
208 248 0
207 248 0
207 249 0
206 249 0
205 250 0
205 250 0
204 251 0
203 251 0
203 252 0
202 252 0
202 253 0
201 253 0
201 253 0
201 254 0
200 254 0
200 254 0
200 254 0
200 254 0
199 254 0
199 254 0
199 254 0
216 243 0
216 243 0
216 243 0
216 243 0
216 243 0
216 243 0
216 243 0
216 243 0
216 243 0
216 243 0
216 243 0
216 242 0
216 242 0
216 242 0
216 242 0
215 243 0
215 243 0
215 243 0
214 243 0
214 243 0
214 244 0
213 244 0
213 244 0
212 245 0
211 245 0
211 245 0
210 246 0
209 247 0
209 247 0
208 248 0
207 248 0
207 249 0
206 249 0
205 250 0
205 250 0
204 251 0
203 251 0
203 252 0
202 252 0
202 253 0
201 253 0
201 253 0
201 254 0
200 254 0
200 254 0
200 254 0
200 254 0
199 254 0
199 254 0
199 254 0
