P3
50 50
255
235 229 0
235 229 0
235 229 0
235 230 0
236 230 0
236 231 0
237 231 0
237 232 0
238 233 0
238 233 0
239 234 0
240 235 0
241 236 0
241 237 0
242 238 0
243 240 0
244 241 0
245 241 0
246 242 0
246 243 0
247 244 0
248 244 0
248 244 0
248 244 0
248 244 0
248 244 0
248 243 0
247 242 0
246 241 0
245 239 0
244 238 0
243 236 0
241 233 0
240 231 0
238 228 0
236 225 0
234 222 0
232 219 0
230 216 0
228 213 0
226 210 0
224 207 0
222 204 0
221 201 0
219 199 0
218 197 0
217 196 0
216 194 0
216 194 0
216 193 0
235 229 0
235 229 0
235 229 0
235 230 0
236 230 0
236 231 0
237 231 0
237 232 0
238 233 0
238 233 0
239 234 0
240 235 0
241 236 0
241 237 0
242 238 0
243 240 0
244 241 0
245 241 0
246 242 0
246 243 0
247 244 0
247 244 0
248 244 0
248 244 0
248 244 0
248 244 0
248 243 0
247 242 0
246 241 0
245 239 0
244 238 0
243 235 0
241 233 0
240 231 0
238 228 0
236 225 0
234 222 0
232 219 0
230 216 0
228 213 0
226 209 0
224 207 0
222 204 0
221 201 0
219 199 0
218 197 0
217 196 0
216 194 0
216 194 0
216 193 0
235 229 0
235 229 0
235 229 0
235 230 0
236 230 0
236 231 0
237 231 0
237 232 0
238 233 0
238 233 0
239 234 0
240 235 0
241 236 0
241 237 0
242 238 0
243 239 0
244 240 0
245 241 0
246 242 0
246 243 0
247 244 0
247 244 0
248 244 0
248 244 0
248 244 0
248 244 0
247 243 0
247 242 0
246 241 0
245 239 0
244 237 0
243 235 0
241 233 0
240 230 0
238 228 0
236 225 0
234 222 0
232 219 0
230 216 0
228 212 0
226 209 0
224 206 0
222 204 0
221 201 0
219 199 0
218 197 0
217 195 0
216 194 0
216 193 0
216 193 0
235 229 0
235 229 0
235 229 0
235 230 0
236 230 0
236 231 0
236 231 0
237 232 0
238 233 0
238 233 0
239 234 0
240 235 0
240 236 0
241 237 0
242 238 0
243 239 0
244 240 0
245 241 0
245 242 0
246 243 0
247 243 0
247 244 0
248 244 0
248 244 0
248 244 0
248 243 0
247 243 0
247 242 0
246 240 0
245 239 0
244 237 0
243 235 0
241 233 0
239 230 0
238 227 0
236 225 0
234 221 0
232 218 0
230 215 0
228 212 0
226 209 0
224 206 0
222 204 0
221 201 0
219 199 0
218 197 0
217 195 0
216 194 0
216 193 0
215 193 0
235 229 0
235 229 0
235 229 0
235 230 0
236 230 0
236 231 0
236 231 0
237 232 0
238 233 0
238 233 0
239 234 0
240 235 0
240 236 0
241 237 0
242 238 0
243 239 0
244 240 0
244 241 0
245 242 0
246 243 0
246 243 0
247 244 0
247 244 0
247 244 0
247 244 0
247 243 0
247 242 0
246 241 0
246 240 0
245 239 0
244 237 0
242 235 0
241 232 0
239 230 0
237 227 0
235 224 0
233 221 0
231 218 0
229 215 0
227 212 0
225 209 0
224 206 0
222 203 0
220 201 0
219 199 0
218 197 0
217 195 0
216 194 0
216 193 0
215 193 0
235 229 0
235 229 0
235 229 0
235 230 0
236 230 0
236 231 0
236 231 0
237 232 0
238 233 0
238 233 0
239 234 0
240 235 0
240 236 0
241 237 0
242 238 0
243 239 0
244 240 0
244 241 0
245 242 0
246 242 0
246 243 0
247 243 0
247 243 0
247 243 0
247 243 0
247 243 0
247 242 0
246 241 0
245 240 0
244 238 0
243 236 0
242 234 0
240 232 0
239 229 0
237 227 0
235 224 0
233 221 0
231 218 0
229 215 0
227 212 0
225 209 0
223 206 0
222 203 0
220 201 0
219 199 0
218 197 0
217 195 0
216 194 0
216 193 0
215 193 0
235 229 0
235 229 0
235 229 0
235 230 0
236 230 0
236 231 0
236 231 0
237 232 0
238 233 0
238 233 0
239 234 0
239 235 0
240 236 0
241 237 0
242 238 0
243 239 0
243 240 0
244 241 0
245 241 0
245 242 0
246 243 0
246 243 0
247 243 0
247 243 0
247 243 0
247 242 0
246 242 0
246 241 0
245 239 0
244 238 0
243 236 0
241 234 0
240 232 0
238 229 0
237 226 0
235 223 0
233 221 0
231 218 0
229 214 0
227 211 0
225 209 0
223 206 0
222 203 0
220 201 0
219 198 0
218 197 0
217 195 0
216 194 0
215 193 0
215 193 0
235 229 0
235 229 0
235 230 0
235 230 0
236 230 0
236 231 0
237 231 0
237 232 0
238 233 0
238 233 0
239 234 0
239 235 0
240 236 0
241 237 0
242 238 0
242 239 0
243 240 0
244 240 0
245 241 0
245 242 0
246 242 0
246 242 0
246 243 0
246 243 0
246 242 0
246 242 0
246 241 0
245 240 0
244 239 0
243 237 0
242 235 0
241 233 0
240 231 0
238 229 0
236 226 0
234 223 0
232 220 0
231 217 0
229 214 0
227 211 0
225 208 0
223 205 0
221 203 0
220 200 0
219 198 0
217 196 0
217 195 0
216 194 0
215 193 0
215 193 0
235 229 0
235 229 0
235 230 0
236 230 0
236 230 0
236 231 0
237 231 0
237 232 0
238 233 0
238 233 0
239 234 0
239 235 0
240 236 0
241 237 0
242 238 0
242 239 0
243 239 0
244 240 0
244 241 0
245 241 0
245 242 0
246 242 0
246 242 0
246 242 0
246 242 0
246 241 0
245 241 0
245 239 0
244 238 0
243 237 0
242 235 0
241 233 0
239 231 0
238 228 0
236 225 0
234 223 0
232 220 0
230 217 0
228 214 0
226 211 0
225 208 0
223 205 0
221 203 0
220 200 0
218 198 0
217 196 0
216 195 0
216 194 0
215 193 0
215 193 0
235 230 0
235 230 0
236 230 0
236 230 0
236 230 0
236 231 0
237 231 0
237 232 0
238 233 0
238 233 0
239 234 0
239 235 0
240 236 0
241 237 0
241 238 0
242 238 0
243 239 0
243 240 0
244 241 0
244 241 0
245 241 0
245 242 0
245 242 0
246 242 0
245 241 0
245 241 0
245 240 0
244 239 0
243 238 0
243 236 0
241 234 0
240 232 0
239 230 0
237 228 0
235 225 0
234 222 0
232 219 0
230 217 0
228 214 0
226 211 0
224 208 0
223 205 0
221 203 0
220 200 0
218 198 0
217 196 0
216 195 0
216 194 0
215 193 0
215 193 0
235 230 0
236 230 0
236 230 0
236 230 0
236 231 0
236 231 0
237 232 0
237 232 0
238 233 0
238 234 0
239 234 0
239 235 0
240 236 0
241 237 0
241 237 0
242 238 0
243 239 0
243 240 0
244 240 0
244 241 0
245 241 0
245 241 0
245 241 0
245 241 0
245 241 0
245 240 0
244 239 0
244 238 0
243 237 0
242 236 0
241 234 0
240 232 0
238 230 0
237 227 0
235 225 0
233 222 0
231 219 0
230 216 0
228 213 0
226 211 0
224 208 0
223 205 0
221 203 0
220 200 0
218 198 0
217 197 0
216 195 0
216 194 0
215 193 0
215 193 0
236 230 0
236 230 0
236 230 0
236 231 0
236 231 0
237 231 0
237 232 0
237 232 0
238 233 0
238 234 0
239 234 0
239 235 0
240 236 0
241 237 0
241 237 0
242 238 0
242 239 0
243 239 0
243 240 0
244 240 0
244 241 0
244 241 0
245 241 0
245 241 0
245 240 0
244 240 0
244 239 0
243 238 0
242 237 0
241 235 0
240 233 0
239 231 0
238 229 0
236 227 0
235 224 0
233 222 0
231 219 0
229 216 0
228 213 0
226 211 0
224 208 0
223 205 0
221 203 0
220 201 0
219 199 0
217 197 0
217 196 0
216 194 0
216 194 0
215 193 0
236 231 0
236 231 0
236 231 0
236 231 0
237 231 0
237 232 0
237 232 0
238 233 0
238 233 0
238 234 0
239 235 0
239 235 0
240 236 0
241 237 0
241 237 0
242 238 0
242 239 0
243 239 0
243 240 0
244 240 0
244 240 0
244 240 0
244 240 0
244 240 0
244 240 0
244 239 0
243 238 0
243 237 0
242 236 0
241 235 0
240 233 0
239 231 0
237 229 0
236 226 0
234 224 0
233 221 0
231 219 0
229 216 0
228 213 0
226 211 0
224 208 0
223 206 0
221 203 0
220 201 0
219 199 0
218 197 0
217 196 0
216 195 0
216 194 0
216 194 0
236 231 0
236 231 0
236 231 0
237 231 0
237 232 0
237 232 0
237 232 0
238 233 0
238 233 0
239 234 0
239 235 0
240 235 0
240 236 0
241 237 0
241 237 0
242 238 0
242 239 0
243 239 0
243 239 0
243 240 0
244 240 0
244 240 0
244 240 0
244 240 0
244 239 0
243 239 0
243 238 0
242 237 0
241 236 0
241 234 0
239 232 0
238 231 0
237 228 0
236 226 0
234 224 0
232 221 0
231 219 0
229 216 0
227 214 0
226 211 0
224 208 0
223 206 0
221 204 0
220 202 0
219 200 0
218 198 0
217 197 0
217 196 0
216 195 0
216 195 0
237 231 0
237 231 0
237 232 0
237 232 0
237 232 0
237 232 0
238 233 0
238 233 0
238 234 0
239 234 0
239 235 0
240 236 0
240 236 0
241 237 0
241 237 0
242 238 0
242 238 0
242 239 0
243 239 0
243 240 0
243 240 0
243 240 0
243 240 0
243 239 0
243 239 0
243 238 0
242 237 0
242 236 0
241 235 0
240 234 0
239 232 0
238 230 0
237 228 0
235 226 0
234 224 0
232 221 0
231 219 0
229 216 0
228 214 0
226 211 0
224 209 0
223 206 0
222 204 0
220 202 0
219 200 0
218 199 0
218 198 0
217 197 0
217 196 0
216 196 0
237 232 0
237 232 0
237 232 0
237 232 0
238 233 0
238 233 0
238 233 0
238 234 0
239 234 0
239 235 0
239 235 0
240 236 0
240 236 0
241 237 0
241 237 0
242 238 0
242 238 0
242 239 0
243 239 0
243 239 0
243 240 0
243 240 0
243 239 0
243 239 0
243 239 0
242 238 0
242 237 0
241 236 0
241 235 0
240 233 0
239 232 0
238 230 0
236 228 0
235 226 0
234 224 0
232 221 0
231 219 0
229 217 0
228 214 0
226 212 0
225 209 0
223 207 0
222 205 0
221 203 0
220 201 0
219 200 0
218 199 0
218 198 0
217 197 0
217 197 0
237 232 0
238 232 0
238 233 0
238 233 0
238 233 0
238 233 0
238 234 0
239 234 0
239 235 0
239 235 0
240 236 0
240 236 0
240 237 0
241 237 0
241 238 0
242 238 0
242 238 0
242 239 0
243 239 0
243 239 0
243 239 0
243 239 0
243 239 0
243 239 0
243 238 0
242 238 0
242 237 0
241 236 0
240 235 0
239 233 0
239 232 0
237 230 0
236 228 0
235 226 0
234 224 0
232 222 0
231 219 0
229 217 0
228 215 0
226 212 0
225 210 0
224 208 0
223 206 0
221 204 0
220 203 0
220 201 0
219 200 0
218 199 0
218 199 0
218 198 0
238 233 0
238 233 0
238 233 0
238 233 0
238 234 0
239 234 0
239 234 0
239 235 0
239 235 0
240 235 0
240 236 0
240 236 0
241 237 0
241 237 0
241 238 0
242 238 0
242 238 0
242 239 0
242 239 0
243 239 0
243 239 0
243 239 0
243 239 0
242 239 0
242 238 0
242 237 0
241 237 0
241 236 0
240 234 0
239 233 0
238 232 0
237 230 0
236 228 0
235 226 0
234 224 0
232 222 0
231 220 0
230 218 0
228 216 0
227 213 0
226 211 0
224 209 0
223 207 0
222 206 0
221 204 0
220 203 0
220 202 0
219 201 0
219 200 0
219 200 0
238 234 0
238 234 0
238 234 0
239 234 0
239 234 0
239 234 0
239 235 0
239 235 0
240 235 0
240 236 0
240 236 0
241 237 0
241 237 0
241 237 0
241 238 0
242 238 0
242 239 0
242 239 0
242 239 0
242 239 0
243 239 0
243 239 0
242 239 0
242 238 0
242 238 0
242 237 0
241 236 0
241 235 0
240 234 0
239 233 0
238 232 0
237 230 0
236 228 0
235 227 0
234 225 0
233 223 0
231 221 0
230 219 0
229 216 0
228 214 0
226 212 0
225 211 0
224 209 0
223 207 0
222 206 0
221 204 0
221 203 0
220 203 0
220 202 0
220 202 0
239 234 0
239 234 0
239 234 0
239 235 0
239 235 0
239 235 0
240 235 0
240 236 0
240 236 0
240 236 0
241 237 0
241 237 0
241 237 0
241 238 0
242 238 0
242 238 0
242 239 0
242 239 0
242 239 0
242 239 0
242 239 0
242 239 0
242 239 0
242 238 0
242 238 0
241 237 0
241 236 0
240 235 0
240 234 0
239 233 0
238 232 0
237 230 0
236 229 0
235 227 0
234 225 0
233 223 0
232 221 0
231 220 0
229 218 0
228 216 0
227 214 0
226 212 0
225 210 0
224 209 0
223 207 0
223 206 0
222 205 0
222 205 0
221 204 0
221 204 0
239 235 0
239 235 0
239 235 0
240 235 0
240 235 0
240 236 0
240 236 0
240 236 0
240 236 0
241 237 0
241 237 0
241 237 0
241 238 0
242 238 0
242 238 0
242 239 0
242 239 0
242 239 0
242 239 0
242 239 0
242 239 0
242 239 0
242 239 0
242 238 0
242 238 0
241 237 0
241 236 0
240 235 0
240 234 0
239 233 0
238 232 0
237 231 0
236 229 0
236 228 0
234 226 0
233 224 0
232 222 0
231 221 0
230 219 0
229 217 0
228 215 0
227 214 0
226 212 0
225 211 0
224 209 0
224 208 0
223 207 0
223 207 0
223 206 0
222 206 0
240 235 0
240 235 0
240 236 0
240 236 0
240 236 0
240 236 0
240 236 0
241 237 0
241 237 0
241 237 0
241 237 0
241 238 0
242 238 0
242 238 0
242 239 0
242 239 0
242 239 0
242 239 0
242 239 0
242 239 0
242 239 0
242 239 0
242 239 0
242 238 0
242 238 0
241 237 0
241 236 0
240 236 0
240 235 0
239 234 0
238 232 0
238 231 0
237 230 0
236 228 0
235 227 0
234 225 0
233 224 0
232 222 0
231 220 0
230 219 0
229 217 0
228 215 0
227 214 0
227 213 0
226 212 0
225 211 0
225 210 0
224 209 0
224 209 0
224 209 0
240 236 0
240 236 0
240 236 0
240 236 0
240 236 0
241 237 0
241 237 0
241 237 0
241 237 0
241 238 0
241 238 0
242 238 0
242 238 0
242 239 0
242 239 0
242 239 0
242 239 0
242 239 0
242 239 0
242 239 0
242 239 0
242 239 0
242 239 0
242 238 0
242 238 0
241 237 0
241 237 0
240 236 0
240 235 0
239 234 0
239 233 0
238 232 0
237 230 0
236 229 0
236 228 0
235 226 0
234 225 0
233 223 0
232 222 0
231 220 0
230 219 0
229 217 0
229 216 0
228 215 0
227 214 0
227 213 0
226 212 0
226 212 0
226 211 0
226 211 0
241 237 0
241 237 0
241 237 0
241 237 0
241 237 0
241 237 0
241 237 0
241 237 0
241 238 0
242 238 0
242 238 0
242 238 0
242 239 0
242 239 0
242 239 0
242 239 0
242 239 0
242 239 0
242 239 0
242 239 0
242 239 0
242 239 0
242 239 0
242 238 0
242 238 0
241 237 0
241 237 0
241 236 0
240 235 0
240 234 0
239 233 0
238 232 0
238 231 0
237 230 0
236 229 0
235 227 0
235 226 0
234 225 0
233 223 0
232 222 0
231 221 0
231 220 0
230 218 0
229 217 0
229 216 0
228 216 0
228 215 0
228 214 0
227 214 0
227 214 0
241 237 0
241 237 0
241 237 0
241 237 0
241 237 0
241 237 0
241 238 0
242 238 0
242 238 0
242 238 0
242 238 0
242 239 0
242 239 0
242 239 0
242 239 0
242 239 0
243 239 0
243 240 0
243 240 0
243 239 0
242 239 0
242 239 0
242 239 0
242 239 0
242 238 0
241 238 0
241 237 0
241 236 0
240 236 0
240 235 0
239 234 0
239 233 0
238 232 0
238 231 0
237 230 0
236 229 0
236 228 0
235 226 0
234 225 0
233 224 0
233 223 0
232 222 0
232 221 0
231 220 0
231 219 0
230 218 0
230 218 0
229 217 0
229 217 0
229 217 0
241 237 0
241 237 0
241 238 0
241 238 0
241 238 0
242 238 0
242 238 0
242 238 0
242 238 0
242 239 0
242 239 0
242 239 0
242 239 0
242 239 0
243 239 0
243 240 0
243 240 0
243 240 0
243 240 0
243 240 0
242 239 0
242 239 0
242 239 0
242 239 0
242 238 0
242 238 0
241 237 0
241 237 0
241 236 0
240 236 0
240 235 0
239 234 0
239 233 0
238 232 0
238 231 0
237 230 0
237 229 0
236 228 0
235 227 0
235 226 0
234 225 0
234 224 0
233 223 0
233 222 0
232 222 0
232 221 0
232 220 0
231 220 0
231 220 0
231 220 0
242 238 0
242 238 0
242 238 0
242 238 0
242 238 0
242 238 0
242 238 0
242 238 0
242 239 0
242 239 0
242 239 0
242 239 0
242 239 0
243 239 0
243 240 0
243 240 0
243 240 0
243 240 0
243 240 0
243 240 0
243 240 0
242 239 0
242 239 0
242 239 0
242 239 0
242 238 0
242 238 0
241 237 0
241 237 0
241 236 0
240 236 0
240 235 0
239 234 0
239 233 0
239 232 0
238 232 0
238 231 0
237 230 0
237 229 0
236 228 0
236 227 0
235 226 0
235 226 0
234 225 0
234 224 0
234 224 0
233 223 0
233 223 0
233 223 0
233 222 0
242 238 0
242 238 0
242 238 0
242 238 0
242 238 0
242 238 0
242 239 0
242 239 0
242 239 0
242 239 0
242 239 0
242 239 0
243 239 0
243 240 0
243 240 0
243 240 0
243 240 0
243 240 0
243 240 0
243 240 0
243 240 0
243 240 0
242 239 0
242 239 0
242 239 0
242 239 0
242 238 0
242 238 0
241 237 0
241 237 0
241 236 0
240 236 0
240 235 0
240 234 0
239 234 0
239 233 0
239 232 0
238 232 0
238 231 0
238 230 0
237 229 0
237 229 0
236 228 0
236 227 0
236 227 0
236 226 0
235 226 0
235 226 0
235 225 0
235 225 0
242 238 0
242 238 0
242 238 0
242 238 0
242 238 0
242 239 0
242 239 0
242 239 0
242 239 0
242 239 0
242 239 0
243 239 0
243 240 0
243 240 0
243 240 0
243 240 0
243 240 0
243 240 0
243 240 0
243 240 0
243 240 0
243 240 0
243 240 0
242 239 0
242 239 0
242 239 0
242 239 0
242 238 0
242 238 0
241 238 0
241 237 0
241 237 0
241 236 0
241 236 0
240 235 0
240 235 0
240 234 0
240 233 0
239 233 0
239 232 0
239 232 0
238 231 0
238 230 0
238 230 0
238 229 0
237 229 0
237 229 0
237 229 0
237 228 0
237 228 0
242 238 0
242 238 0
242 238 0
242 238 0
242 239 0
242 239 0
242 239 0
242 239 0
242 239 0
242 239 0
242 239 0
243 239 0
243 240 0
243 240 0
243 240 0
243 240 0
243 240 0
243 240 0
243 240 0
243 240 0
243 240 0
243 240 0
243 240 0
243 240 0
242 240 0
242 239 0
242 239 0
242 239 0
242 239 0
242 238 0
242 238 0
242 238 0
242 237 0
241 237 0
241 236 0
241 236 0
241 236 0
241 235 0
241 235 0
240 234 0
240 234 0
240 233 0
240 233 0
240 232 0
239 232 0
239 232 0
239 231 0
239 231 0
239 231 0
239 231 0
242 238 0
242 238 0
242 238 0
242 238 0
242 239 0
242 239 0
242 239 0
242 239 0
242 239 0
242 239 0
242 239 0
242 239 0
242 240 0
243 240 0
243 240 0
243 240 0
243 240 0
243 240 0
243 240 0
243 240 0
243 240 0
243 240 0
243 240 0
243 240 0
243 240 0
243 240 0
243 240 0
243 239 0
242 239 0
242 239 0
242 239 0
242 239 0
242 238 0
242 238 0
242 238 0
242 237 0
242 237 0
242 237 0
242 236 0
242 236 0
242 236 0
241 235 0
241 235 0
241 235 0
241 235 0
241 234 0
241 234 0
241 234 0
241 234 0
241 234 0
242 238 0
242 238 0
242 238 0
242 238 0
242 238 0
242 239 0
242 239 0
242 239 0
242 239 0
242 239 0
242 239 0
242 239 0
242 239 0
242 240 0
242 240 0
243 240 0
243 240 0
243 240 0
243 240 0
243 240 0
243 240 0
243 240 0
243 240 0
243 240 0
243 240 0
243 240 0
243 240 0
243 240 0
243 240 0
243 240 0
243 240 0
243 239 0
243 239 0
243 239 0
243 239 0
243 239 0
243 239 0
243 238 0
243 238 0
243 238 0
243 238 0
243 237 0
243 237 0
243 237 0
243 237 0
243 237 0
243 237 0
243 236 0
243 236 0
243 236 0
242 238 0
242 238 0
242 238 0
242 238 0
242 238 0
242 238 0
242 239 0
242 239 0
242 239 0
242 239 0
242 239 0
242 239 0
242 239 0
242 239 0
242 239 0
242 240 0
242 240 0
242 240 0
243 240 0
243 240 0
243 240 0
243 240 0
243 240 0
243 240 0
243 240 0
243 240 0
243 240 0
243 240 0
243 240 0
243 240 0
243 240 0
244 240 0
244 240 0
244 240 0
244 240 0
244 240 0
244 240 0
244 240 0
244 240 0
244 240 0
244 240 0
244 239 0
244 239 0
244 239 0
244 239 0
244 239 0
244 239 0
244 239 0
244 239 0
244 239 0
242 238 0
242 238 0
242 238 0
242 238 0
242 238 0
242 238 0
242 238 0
242 238 0
242 238 0
242 239 0
242 239 0
242 239 0
242 239 0
242 239 0
242 239 0
242 239 0
242 239 0
242 240 0
242 240 0
242 240 0
243 240 0
243 240 0
243 240 0
243 240 0
243 240 0
243 240 0
243 241 0
243 241 0
244 241 0
244 241 0
244 241 0
244 241 0
244 241 0
244 241 0
245 241 0
245 241 0
245 241 0
245 241 0
245 241 0
245 241 0
246 241 0
246 241 0
246 241 0
246 241 0
246 241 0
246 241 0
246 241 0
246 241 0
246 241 0
246 241 0
241 238 0
241 238 0
241 238 0
241 238 0
241 238 0
241 238 0
241 238 0
241 238 0
242 238 0
242 238 0
242 238 0
242 239 0
242 239 0
242 239 0
242 239 0
242 239 0
242 239 0
242 239 0
242 239 0
242 240 0
242 240 0
242 240 0
243 240 0
243 240 0
243 240 0
243 241 0
243 241 0
244 241 0
244 241 0
244 241 0
244 242 0
245 242 0
245 242 0
245 242 0
245 242 0
246 242 0
246 243 0
246 243 0
246 243 0
246 243 0
247 243 0
247 243 0
247 243 0
247 243 0
247 243 0
247 243 0
247 243 0
247 243 0
247 243 0
247 243 0
241 237 0
241 237 0
241 237 0
241 237 0
241 238 0
241 238 0
241 238 0
241 238 0
241 238 0
241 238 0
241 238 0
241 238 0
241 238 0
241 238 0
242 239 0
242 239 0
242 239 0
242 239 0
242 239 0
242 239 0
242 240 0
242 240 0
243 240 0
243 240 0
243 241 0
243 241 0
243 241 0
244 241 0
244 242 0
244 242 0
245 242 0
245 242 0
245 243 0
246 243 0
246 243 0
246 243 0
247 244 0
247 244 0
247 244 0
247 244 0
248 244 0
248 245 0
248 245 0
248 245 0
248 245 0
248 245 0
249 245 0
249 245 0
249 245 0
249 245 0
241 237 0
241 237 0
241 237 0
241 237 0
241 237 0
241 237 0
241 237 0
241 237 0
241 237 0
241 238 0
241 238 0
241 238 0
241 238 0
241 238 0
241 238 0
241 238 0
241 239 0
242 239 0
242 239 0
242 239 0
242 239 0
242 240 0
242 240 0
243 240 0
243 241 0
243 241 0
244 241 0
244 242 0
244 242 0
245 242 0
245 243 0
245 243 0
246 243 0
246 244 0
247 244 0
247 244 0
247 245 0
248 245 0
248 245 0
248 246 0
249 246 0
249 246 0
249 246 0
249 246 0
249 246 0
250 246 0
250 247 0
250 247 0
250 247 0
250 247 0
240 237 0
240 237 0
240 237 0
240 237 0
240 237 0
240 237 0
240 237 0
241 237 0
241 237 0
241 237 0
241 237 0
241 237 0
241 237 0
241 238 0
241 238 0
241 238 0
241 238 0
241 238 0
241 239 0
242 239 0
242 239 0
242 239 0
242 240 0
243 240 0
243 240 0
243 241 0
244 241 0
244 242 0
244 242 0
245 243 0
245 243 0
246 243 0
246 244 0
247 244 0
247 245 0
247 245 0
248 246 0
248 246 0
249 246 0
249 247 0
249 247 0
250 247 0
250 247 0
250 248 0
250 248 0
250 248 0
251 248 0
251 248 0
251 248 0
251 248 0
240 236 0
240 236 0
240 236 0
240 236 0
240 236 0
240 236 0
240 236 0
240 236 0
240 237 0
240 237 0
240 237 0
240 237 0
240 237 0
240 237 0
240 237 0
241 237 0
241 238 0
241 238 0
241 238 0
241 239 0
241 239 0
242 239 0
242 240 0
242 240 0
243 240 0
243 241 0
244 241 0
244 242 0
244 242 0
245 243 0
245 243 0
246 244 0
246 244 0
247 245 0
247 245 0
248 246 0
248 246 0
249 247 0
249 247 0
250 248 0
250 248 0
250 248 0
251 248 0
251 249 0
251 249 0
251 249 0
251 249 0
252 249 0
252 249 0
252 249 0
240 236 0
240 236 0
240 236 0
240 236 0
240 236 0
240 236 0
240 236 0
240 236 0
240 236 0
240 236 0
240 236 0
240 236 0
240 236 0
240 237 0
240 237 0
240 237 0
240 237 0
240 238 0
241 238 0
241 238 0
241 238 0
241 239 0
242 239 0
242 240 0
243 240 0
243 241 0
243 241 0
244 242 0
244 242 0
245 243 0
246 244 0
246 244 0
247 245 0
247 245 0
248 246 0
248 246 0
249 247 0
249 247 0
250 248 0
250 248 0
251 249 0
251 249 0
251 249 0
252 250 0
252 250 0
252 250 0
252 250 0
252 250 0
252 250 0
252 251 0
239 235 0
239 235 0
239 235 0
239 235 0
239 235 0
239 235 0
239 236 0
239 236 0
239 236 0
239 236 0
239 236 0
239 236 0
239 236 0
240 236 0
240 236 0
240 237 0
240 237 0
240 237 0
240 237 0
241 238 0
241 238 0
241 239 0
242 239 0
242 240 0
242 240 0
243 241 0
243 241 0
244 242 0
244 242 0
245 243 0
246 244 0
246 244 0
247 245 0
247 246 0
248 246 0
249 247 0
249 248 0
250 248 0
250 249 0
251 249 0
251 249 0
251 250 0
252 250 0
252 251 0
252 251 0
253 251 0
253 251 0
253 251 0
253 251 0
253 251 0
239 235 0
239 235 0
239 235 0
239 235 0
239 235 0
239 235 0
239 235 0
239 235 0
239 235 0
239 235 0
239 235 0
239 235 0
239 236 0
239 236 0
239 236 0
239 236 0
240 236 0
240 237 0
240 237 0
240 237 0
241 238 0
241 238 0
241 239 0
242 239 0
242 240 0
243 240 0
243 241 0
244 242 0
244 242 0
245 243 0
246 244 0
246 245 0
247 245 0
248 246 0
248 247 0
249 247 0
249 248 0
250 249 0
250 249 0
251 250 0
251 250 0
252 251 0
252 251 0
252 251 0
253 252 0
253 252 0
253 252 0
253 252 0
253 252 0
253 252 0
239 235 0
239 235 0
239 235 0
239 235 0
239 235 0
239 235 0
239 235 0
239 235 0
239 235 0
239 235 0
239 235 0
239 235 0
239 235 0
239 235 0
239 235 0
239 236 0
239 236 0
239 236 0
240 237 0
240 237 0
240 237 0
241 238 0
241 238 0
241 239 0
242 240 0
243 240 0
243 241 0
244 242 0
244 242 0
245 243 0
246 244 0
246 245 0
247 245 0
248 246 0
248 247 0
249 248 0
250 248 0
250 249 0
251 249 0
251 250 0
252 251 0
252 251 0
252 251 0
253 252 0
253 252 0
253 252 0
253 253 0
254 253 0
254 253 0
254 253 0
239 234 0
239 234 0
239 234 0
239 234 0
238 234 0
238 234 0
238 234 0
238 234 0
238 234 0
238 234 0
238 234 0
238 234 0
238 235 0
238 235 0
239 235 0
239 235 0
239 235 0
239 236 0
239 236 0
240 237 0
240 237 0
240 238 0
241 238 0
241 239 0
242 239 0
242 240 0
243 241 0
244 242 0
244 242 0
245 243 0
246 244 0
246 245 0
247 246 0
248 246 0
248 247 0
249 248 0
250 249 0
250 249 0
251 250 0
251 250 0
252 251 0
252 251 0
253 252 0
253 252 0
253 253 0
254 253 0
254 253 0
254 253 0
254 253 0
254 253 0
238 234 0
238 234 0
238 234 0
238 234 0
238 234 0
238 234 0
238 234 0
238 234 0
238 234 0
238 234 0
238 234 0
238 234 0
238 234 0
238 234 0
238 235 0
238 235 0
239 235 0
239 235 0
239 236 0
239 236 0
240 237 0
240 237 0
241 238 0
241 239 0
242 239 0
242 240 0
243 241 0
243 241 0
244 242 0
245 243 0
246 244 0
246 245 0
247 246 0
248 246 0
248 247 0
249 248 0
250 249 0
250 249 0
251 250 0
251 251 0
252 251 0
252 252 0
253 252 0
253 253 0
253 253 0
254 253 0
254 253 0
254 254 0
254 254 0
254 254 0
238 234 0
238 234 0
238 234 0
238 234 0
238 234 0
238 234 0
238 234 0
238 234 0
238 234 0
238 234 0
238 234 0
238 234 0
238 234 0
238 234 0
238 234 0
238 234 0
238 235 0
238 235 0
239 236 0
239 236 0
239 236 0
240 237 0
240 238 0
241 238 0
241 239 0
242 240 0
243 241 0
243 241 0
244 242 0
245 243 0
245 244 0
246 245 0
247 246 0
248 246 0
248 247 0
249 248 0
250 249 0
250 250 0
251 250 0
252 251 0
252 251 0
252 252 0
253 252 0
253 253 0
254 253 0
254 253 0
254 254 0
254 254 0
254 254 0
254 254 0
238 233 0
238 233 0
238 233 0
238 233 0
238 233 0
238 233 0
238 233 0
238 233 0
238 233 0
238 233 0
238 233 0
238 233 0
238 234 0
238 234 0
238 234 0
238 234 0
238 234 0
238 235 0
239 235 0
239 236 0
239 236 0
240 237 0
240 237 0
241 238 0
241 239 0
242 240 0
243 240 0
243 241 0
244 242 0
245 243 0
245 244 0
246 245 0
247 246 0
248 247 0
248 247 0
249 248 0
250 249 0
250 250 0
251 250 0
252 251 0
252 252 0
253 252 0
253 253 0
253 253 0
254 253 0
254 254 0
254 254 0
254 254 0
254 254 0
254 254 0
238 233 0
238 233 0
238 233 0
238 233 0
238 233 0
238 233 0
238 233 0
237 233 0
237 233 0
237 233 0
237 233 0
237 233 0
237 233 0
237 234 0
238 234 0
238 234 0
238 234 0
238 235 0
238 235 0
239 236 0
239 236 0
240 237 0
240 237 0
241 238 0
241 239 0
242 240 0
242 240 0
243 241 0
244 242 0
245 243 0
245 244 0
246 245 0
247 246 0
248 247 0
248 247 0
249 248 0
250 249 0
250 250 0
251 250 0
252 251 0
252 252 0
253 252 0
253 253 0
253 253 0
254 253 0
254 254 0
254 254 0
254 254 0
254 254 0
254 254 0
238 233 0
238 233 0
238 233 0
238 233 0
238 233 0
238 233 0
237 233 0
237 233 0
237 233 0
237 233 0
237 233 0
237 233 0
237 233 0
237 233 0
237 234 0
238 234 0
238 234 0
238 234 0
238 235 0
239 235 0
239 236 0
239 237 0
240 237 0
240 238 0
241 239 0
242 239 0
242 240 0
243 241 0
244 242 0
245 243 0
245 244 0
246 245 0
247 246 0
248 247 0
248 247 0
249 248 0
250 249 0
250 250 0
251 250 0
252 251 0
252 252 0
253 252 0
253 253 0
253 253 0
254 254 0
254 254 0
254 254 0
254 254 0
254 254 0
254 254 0
238 233 0
238 233 0
238 233 0
238 233 0
238 233 0
237 233 0
237 233 0
237 233 0
237 233 0
237 233 0
237 233 0
237 233 0
237 233 0
237 233 0
237 233 0
237 234 0
238 234 0
238 234 0
238 235 0
239 235 0
239 236 0
239 236 0
240 237 0
240 238 0
241 239 0
242 239 0
242 240 0
243 241 0
244 242 0
244 243 0
245 244 0
246 245 0
247 246 0
248 247 0
248 247 0
249 248 0
250 249 0
250 250 0
251 251 0
252 251 0
252 252 0
253 252 0
253 253 0
253 253 0
254 254 0
254 254 0
254 254 0
254 254 0
254 254 0
255 255 0
