P3
50 50
255
216 236 0
215 236 0
215 236 0
215 236 0
215 236 0
214 236 0
213 236 0
213 236 0
212 236 0
211 235 0
211 235 0
210 235 0
209 235 0
208 235 0
207 235 0
206 235 0
205 235 0
205 235 0
204 235 0
203 235 0
203 235 0
203 235 0
203 235 0
203 236 0
203 236 0
203 236 0
204 237 0
205 237 0
206 238 0
208 238 0
209 239 0
211 240 0
213 240 0
216 241 0
218 242 0
221 243 0
224 244 0
227 245 0
230 246 0
233 247 0
236 248 0
239 249 0
242 250 0
245 251 0
248 252 0
250 253 0
252 254 0
253 254 0
254 254 0
254 255 0
215 236 0
215 236 0
215 236 0
215 236 0
214 236 0
214 236 0
213 236 0
213 236 0
212 236 0
211 235 0
211 235 0
210 235 0
209 235 0
208 235 0
207 235 0
206 235 0
205 235 0
205 235 0
204 235 0
204 235 0
203 235 0
203 235 0
203 235 0
203 236 0
203 236 0
204 236 0
204 237 0
205 237 0
206 238 0
208 238 0
209 239 0
211 240 0
213 240 0
216 241 0
218 242 0
221 243 0
224 244 0
227 245 0
230 246 0
233 247 0
236 248 0
239 249 0
242 250 0
245 251 0
248 252 0
250 253 0
252 254 0
253 254 0
254 254 0
254 254 0
215 236 0
215 236 0
215 236 0
215 236 0
214 236 0
214 236 0
213 236 0
213 236 0
212 236 0
211 235 0
211 235 0
210 235 0
209 235 0
208 235 0
207 235 0
206 235 0
205 235 0
205 235 0
204 235 0
204 235 0
203 235 0
203 235 0
203 235 0
203 236 0
203 236 0
204 236 0
204 237 0
205 237 0
206 238 0
208 238 0
210 239 0
211 240 0
214 240 0
216 241 0
219 242 0
221 243 0
224 244 0
227 245 0
230 246 0
233 247 0
237 248 0
240 249 0
242 250 0
245 251 0
248 252 0
250 253 0
252 254 0
253 254 0
254 254 0
254 254 0
215 236 0
215 236 0
215 236 0
215 236 0
214 236 0
214 236 0
213 236 0
213 236 0
212 236 0
211 235 0
211 235 0
210 235 0
209 235 0
208 235 0
207 235 0
206 235 0
206 235 0
205 235 0
204 235 0
204 235 0
203 235 0
203 235 0
203 235 0
203 236 0
203 236 0
204 236 0
205 237 0
205 237 0
207 238 0
208 238 0
210 239 0
212 240 0
214 240 0
216 241 0
219 242 0
221 243 0
224 244 0
227 245 0
230 246 0
234 247 0
237 248 0
240 249 0
243 250 0
245 251 0
248 252 0
250 253 0
252 253 0
253 254 0
254 254 0
254 254 0
215 236 0
215 236 0
215 236 0
215 236 0
214 236 0
214 236 0
213 236 0
213 236 0
212 235 0
211 235 0
211 235 0
210 235 0
209 235 0
208 235 0
207 235 0
206 235 0
206 235 0
205 235 0
204 235 0
204 235 0
204 235 0
203 235 0
203 235 0
203 236 0
204 236 0
204 236 0
205 237 0
206 237 0
207 238 0
208 238 0
210 239 0
212 240 0
214 240 0
216 241 0
219 242 0
222 243 0
225 244 0
228 245 0
231 246 0
234 247 0
237 248 0
240 249 0
243 250 0
245 251 0
248 252 0
250 253 0
252 253 0
253 254 0
254 254 0
254 254 0
215 236 0
215 236 0
215 236 0
215 236 0
214 236 0
214 236 0
213 236 0
213 236 0
212 235 0
211 235 0
211 235 0
210 235 0
209 235 0
208 235 0
207 235 0
207 235 0
206 235 0
205 235 0
205 235 0
204 235 0
204 235 0
204 235 0
203 235 0
204 236 0
204 236 0
204 236 0
205 237 0
206 237 0
207 238 0
209 238 0
210 239 0
212 240 0
214 240 0
217 241 0
219 242 0
222 243 0
225 244 0
228 245 0
231 246 0
234 247 0
237 248 0
240 249 0
243 250 0
245 251 0
248 252 0
250 253 0
252 253 0
253 254 0
254 254 0
255 254 0
215 236 0
215 236 0
215 236 0
215 236 0
214 236 0
214 236 0
213 236 0
213 236 0
212 235 0
211 235 0
211 235 0
210 235 0
209 235 0
208 235 0
207 235 0
207 235 0
206 235 0
205 235 0
205 235 0
204 235 0
204 235 0
204 235 0
204 235 0
204 236 0
204 236 0
205 236 0
205 237 0
206 237 0
208 238 0
209 238 0
211 239 0
213 240 0
215 240 0
217 241 0
220 242 0
222 243 0
225 244 0
228 245 0
231 246 0
234 247 0
237 248 0
240 249 0
243 250 0
246 251 0
248 252 0
250 253 0
252 253 0
253 254 0
254 254 0
254 254 0
215 236 0
215 236 0
215 236 0
215 236 0
214 236 0
214 236 0
213 236 0
213 236 0
212 235 0
211 235 0
211 235 0
210 235 0
209 235 0
208 235 0
208 235 0
207 235 0
206 235 0
205 235 0
205 235 0
205 235 0
204 235 0
204 235 0
204 235 0
204 236 0
205 236 0
205 236 0
206 237 0
207 237 0
208 238 0
209 238 0
211 239 0
213 240 0
215 240 0
217 241 0
220 242 0
223 243 0
225 244 0
228 245 0
231 246 0
234 247 0
237 248 0
240 249 0
243 250 0
246 251 0
248 252 0
250 253 0
252 253 0
253 254 0
254 254 0
254 254 0
215 236 0
215 236 0
215 236 0
214 236 0
214 236 0
214 236 0
213 236 0
213 235 0
212 235 0
211 235 0
211 235 0
210 235 0
209 235 0
208 235 0
208 235 0
207 235 0
206 235 0
206 235 0
205 235 0
205 235 0
205 235 0
204 235 0
204 235 0
205 236 0
205 236 0
205 236 0
206 237 0
207 237 0
208 238 0
210 238 0
211 239 0
213 240 0
215 240 0
218 241 0
220 242 0
223 243 0
226 244 0
228 245 0
231 246 0
234 247 0
237 248 0
240 249 0
243 250 0
246 251 0
248 252 0
250 252 0
252 253 0
253 253 0
254 254 0
254 254 0
215 236 0
215 236 0
214 236 0
214 236 0
214 236 0
213 236 0
213 236 0
212 235 0
212 235 0
211 235 0
211 235 0
210 235 0
209 235 0
208 235 0
208 235 0
207 235 0
206 235 0
206 235 0
205 235 0
205 235 0
205 235 0
205 235 0
205 235 0
205 236 0
205 236 0
206 236 0
207 237 0
208 237 0
209 238 0
210 238 0
212 239 0
214 240 0
216 240 0
218 241 0
220 242 0
223 243 0
226 244 0
229 245 0
232 246 0
234 247 0
237 248 0
240 249 0
243 250 0
245 251 0
248 252 0
250 252 0
251 253 0
253 253 0
253 254 0
254 254 0
214 236 0
214 236 0
214 236 0
214 236 0
214 236 0
213 236 0
213 235 0
212 235 0
212 235 0
211 235 0
210 235 0
210 235 0
209 235 0
208 235 0
208 235 0
207 235 0
207 235 0
206 235 0
206 235 0
205 235 0
205 235 0
205 235 0
205 235 0
205 236 0
206 236 0
206 236 0
207 237 0
208 237 0
209 238 0
211 238 0
212 239 0
214 239 0
216 240 0
218 241 0
221 242 0
223 243 0
226 244 0
229 245 0
232 246 0
235 247 0
237 248 0
240 249 0
243 250 0
245 250 0
247 251 0
249 252 0
251 253 0
252 253 0
253 253 0
253 253 0
214 236 0
214 236 0
214 236 0
214 236 0
213 236 0
213 236 0
213 235 0
212 235 0
212 235 0
211 235 0
210 235 0
210 235 0
209 235 0
208 235 0
208 235 0
207 235 0
207 235 0
206 235 0
206 235 0
206 235 0
205 235 0
205 235 0
205 235 0
206 236 0
206 236 0
207 236 0
207 237 0
208 237 0
210 237 0
211 238 0
213 239 0
214 239 0
216 240 0
219 241 0
221 242 0
223 243 0
226 244 0
229 245 0
232 246 0
234 247 0
237 247 0
240 248 0
242 249 0
245 250 0
247 251 0
249 252 0
250 252 0
252 253 0
252 253 0
253 253 0
214 236 0
214 236 0
214 236 0
213 236 0
213 236 0
213 235 0
212 235 0
212 235 0
211 235 0
211 235 0
210 235 0
210 235 0
209 235 0
208 235 0
208 235 0
207 235 0
207 235 0
206 235 0
206 235 0
206 235 0
206 235 0
206 235 0
206 235 0
206 235 0
206 236 0
207 236 0
208 236 0
209 237 0
210 237 0
211 238 0
213 239 0
215 239 0
217 240 0
219 241 0
221 242 0
224 243 0
226 243 0
229 244 0
231 245 0
234 246 0
237 247 0
239 248 0
242 249 0
244 250 0
246 251 0
248 251 0
250 252 0
251 252 0
252 252 0
252 253 0
213 236 0
213 236 0
213 236 0
213 236 0
213 235 0
212 235 0
212 235 0
212 235 0
211 235 0
211 235 0
210 235 0
209 235 0
209 235 0
208 235 0
208 235 0
207 235 0
207 235 0
207 235 0
206 235 0
206 235 0
206 235 0
206 235 0
206 235 0
206 235 0
207 236 0
207 236 0
208 236 0
209 237 0
210 237 0
212 238 0
213 238 0
215 239 0
217 240 0
219 241 0
221 241 0
224 242 0
226 243 0
229 244 0
231 245 0
234 246 0
236 247 0
239 248 0
241 249 0
244 249 0
246 250 0
247 251 0
249 251 0
250 252 0
251 252 0
251 252 0
213 236 0
213 236 0
213 235 0
213 235 0
212 235 0
212 235 0
212 235 0
211 235 0
211 235 0
210 235 0
210 235 0
209 235 0
209 235 0
208 235 0
208 235 0
207 235 0
207 235 0
207 235 0
206 235 0
206 235 0
206 235 0
206 235 0
206 235 0
207 235 0
207 236 0
208 236 0
208 236 0
209 237 0
211 237 0
212 238 0
213 238 0
215 239 0
217 240 0
219 240 0
221 241 0
223 242 0
226 243 0
228 244 0
231 245 0
233 246 0
236 246 0
238 247 0
241 248 0
243 249 0
245 250 0
246 250 0
248 251 0
249 251 0
249 251 0
250 252 0
213 235 0
213 235 0
212 235 0
212 235 0
212 235 0
212 235 0
211 235 0
211 235 0
211 235 0
210 235 0
210 235 0
209 235 0
209 235 0
208 235 0
208 235 0
207 235 0
207 235 0
207 235 0
206 235 0
206 235 0
206 235 0
206 235 0
207 235 0
207 235 0
207 236 0
208 236 0
209 236 0
210 237 0
211 237 0
212 238 0
214 238 0
215 239 0
217 240 0
219 240 0
221 241 0
223 242 0
226 243 0
228 243 0
230 244 0
233 245 0
235 246 0
237 247 0
240 248 0
242 248 0
243 249 0
245 250 0
246 250 0
247 251 0
248 251 0
248 251 0
212 235 0
212 235 0
212 235 0
212 235 0
212 235 0
211 235 0
211 235 0
211 235 0
210 235 0
210 235 0
209 235 0
209 235 0
209 235 0
208 235 0
208 235 0
207 235 0
207 235 0
207 235 0
207 235 0
206 235 0
206 235 0
207 235 0
207 235 0
207 235 0
208 236 0
208 236 0
209 236 0
210 237 0
211 237 0
212 238 0
214 238 0
215 239 0
217 239 0
219 240 0
221 241 0
223 241 0
225 242 0
227 243 0
230 244 0
232 245 0
234 246 0
236 246 0
238 247 0
240 248 0
242 248 0
244 249 0
245 249 0
246 250 0
246 250 0
247 250 0
212 235 0
212 235 0
211 235 0
211 235 0
211 235 0
211 235 0
211 235 0
210 235 0
210 235 0
209 235 0
209 235 0
209 235 0
208 235 0
208 235 0
208 235 0
207 234 0
207 234 0
207 234 0
207 235 0
207 235 0
207 235 0
207 235 0
207 235 0
207 235 0
208 235 0
208 236 0
209 236 0
210 236 0
211 237 0
212 237 0
214 238 0
215 238 0
217 239 0
219 240 0
220 240 0
222 241 0
225 242 0
227 243 0
229 243 0
231 244 0
233 245 0
235 246 0
237 247 0
239 247 0
240 248 0
242 248 0
243 249 0
244 249 0
245 249 0
245 249 0
211 235 0
211 235 0
211 235 0
211 235 0
211 235 0
210 235 0
210 235 0
210 235 0
210 235 0
209 235 0
209 235 0
208 235 0
208 235 0
208 235 0
207 234 0
207 234 0
207 234 0
207 234 0
207 234 0
207 235 0
207 235 0
207 235 0
207 235 0
207 235 0
208 235 0
208 236 0
209 236 0
210 236 0
211 237 0
212 237 0
213 238 0
215 238 0
216 239 0
218 239 0
220 240 0
222 241 0
224 242 0
226 242 0
228 243 0
230 244 0
232 245 0
234 245 0
236 246 0
237 247 0
239 247 0
240 248 0
241 248 0
242 248 0
243 249 0
243 249 0
211 235 0
211 235 0
210 235 0
210 235 0
210 235 0
210 235 0
210 235 0
209 235 0
209 235 0
209 235 0
209 235 0
208 235 0
208 235 0
208 234 0
207 234 0
207 234 0
207 234 0
207 234 0
207 234 0
207 234 0
207 235 0
207 235 0
207 235 0
207 235 0
208 235 0
208 235 0
209 236 0
210 236 0
211 237 0
212 237 0
213 237 0
215 238 0
216 239 0
218 239 0
219 240 0
221 240 0
223 241 0
225 242 0
227 243 0
229 243 0
230 244 0
232 245 0
234 245 0
235 246 0
237 246 0
238 247 0
239 247 0
240 248 0
240 248 0
241 248 0
210 235 0
210 235 0
210 235 0
210 235 0
210 235 0
210 235 0
209 235 0
209 235 0
209 235 0
208 235 0
208 235 0
208 235 0
208 234 0
207 234 0
207 234 0
207 234 0
207 234 0
207 234 0
207 234 0
207 234 0
207 234 0
207 235 0
207 235 0
207 235 0
208 235 0
208 235 0
209 236 0
210 236 0
211 236 0
212 237 0
213 237 0
214 238 0
216 238 0
217 239 0
219 239 0
220 240 0
222 241 0
224 241 0
225 242 0
227 243 0
229 243 0
230 244 0
232 245 0
233 245 0
235 246 0
236 246 0
237 246 0
237 247 0
238 247 0
238 247 0
210 235 0
210 235 0
210 235 0
209 235 0
209 235 0
209 235 0
209 235 0
209 235 0
208 235 0
208 235 0
208 235 0
208 234 0
207 234 0
207 234 0
207 234 0
207 234 0
207 234 0
207 234 0
206 234 0
206 234 0
207 234 0
207 235 0
207 235 0
207 235 0
208 235 0
208 235 0
209 236 0
210 236 0
211 236 0
212 237 0
213 237 0
214 237 0
215 238 0
216 238 0
218 239 0
219 240 0
221 240 0
222 241 0
224 241 0
226 242 0
227 243 0
229 243 0
230 244 0
231 244 0
232 245 0
233 245 0
234 246 0
235 246 0
235 246 0
236 246 0
209 235 0
209 235 0
209 235 0
209 235 0
209 235 0
209 235 0
208 235 0
208 235 0
208 235 0
208 235 0
208 234 0
207 234 0
207 234 0
207 234 0
207 234 0
207 234 0
206 234 0
206 234 0
206 234 0
206 234 0
207 234 0
207 234 0
207 235 0
207 235 0
208 235 0
208 235 0
209 235 0
209 236 0
210 236 0
211 236 0
212 237 0
213 237 0
214 238 0
216 238 0
217 239 0
218 239 0
220 240 0
221 240 0
222 241 0
224 241 0
225 242 0
227 243 0
228 243 0
229 244 0
230 244 0
231 244 0
232 245 0
232 245 0
233 245 0
233 245 0
209 235 0
209 235 0
209 235 0
209 235 0
208 235 0
208 235 0
208 235 0
208 235 0
208 235 0
208 234 0
207 234 0
207 234 0
207 234 0
207 234 0
207 234 0
206 234 0
206 234 0
206 234 0
206 234 0
206 234 0
206 234 0
207 234 0
207 234 0
207 235 0
208 235 0
208 235 0
209 235 0
209 235 0
210 236 0
211 236 0
212 236 0
213 237 0
214 237 0
215 238 0
216 238 0
217 239 0
218 239 0
220 240 0
221 240 0
222 241 0
223 241 0
225 242 0
226 242 0
227 243 0
228 243 0
228 244 0
229 244 0
230 244 0
230 244 0
230 244 0
208 235 0
208 235 0
208 235 0
208 235 0
208 235 0
208 235 0
208 235 0
208 235 0
207 234 0
207 234 0
207 234 0
207 234 0
207 234 0
207 234 0
206 234 0
206 234 0
206 234 0
206 234 0
206 234 0
206 234 0
206 234 0
206 234 0
207 234 0
207 234 0
207 235 0
208 235 0
208 235 0
209 235 0
209 236 0
210 236 0
211 236 0
212 237 0
213 237 0
214 237 0
215 238 0
216 238 0
217 239 0
218 239 0
219 240 0
220 240 0
221 241 0
222 241 0
223 242 0
224 242 0
225 242 0
226 243 0
226 243 0
227 243 0
227 243 0
227 243 0
208 235 0
208 235 0
208 235 0
208 235 0
208 235 0
208 235 0
208 235 0
207 234 0
207 234 0
207 234 0
207 234 0
207 234 0
207 234 0
206 234 0
206 234 0
206 234 0
206 234 0
206 234 0
206 234 0
206 234 0
206 234 0
206 234 0
207 234 0
207 234 0
207 235 0
208 235 0
208 235 0
208 235 0
209 235 0
210 236 0
210 236 0
211 236 0
212 237 0
213 237 0
214 237 0
215 238 0
216 238 0
217 239 0
218 239 0
218 240 0
219 240 0
220 241 0
221 241 0
222 241 0
223 242 0
223 242 0
224 242 0
224 242 0
224 242 0
225 243 0
208 235 0
208 235 0
208 235 0
208 235 0
208 235 0
207 235 0
207 234 0
207 234 0
207 234 0
207 234 0
207 234 0
207 234 0
206 234 0
206 234 0
206 234 0
206 234 0
206 234 0
206 234 0
206 234 0
206 234 0
206 234 0
206 234 0
206 234 0
207 234 0
207 234 0
207 235 0
208 235 0
208 235 0
209 235 0
209 235 0
210 236 0
210 236 0
211 236 0
212 237 0
212 237 0
213 237 0
214 238 0
215 238 0
216 239 0
217 239 0
217 240 0
218 240 0
219 240 0
220 241 0
220 241 0
221 241 0
221 241 0
221 242 0
222 242 0
222 242 0
208 235 0
208 235 0
207 235 0
207 235 0
207 235 0
207 234 0
207 234 0
207 234 0
207 234 0
207 234 0
207 234 0
206 234 0
206 234 0
206 234 0
206 234 0
206 234 0
206 234 0
206 234 0
206 234 0
206 234 0
206 234 0
206 234 0
206 234 0
206 234 0
207 234 0
207 234 0
207 235 0
208 235 0
208 235 0
208 235 0
209 235 0
209 236 0
210 236 0
211 236 0
211 237 0
212 237 0
213 237 0
213 238 0
214 238 0
215 239 0
215 239 0
216 239 0
217 240 0
217 240 0
218 240 0
218 240 0
218 241 0
219 241 0
219 241 0
219 241 0
207 235 0
207 235 0
207 235 0
207 234 0
207 234 0
207 234 0
207 234 0
207 234 0
207 234 0
207 234 0
207 234 0
206 234 0
206 234 0
206 234 0
206 234 0
206 234 0
206 234 0
206 234 0
206 234 0
206 234 0
206 234 0
206 234 0
206 234 0
206 234 0
206 234 0
207 234 0
207 234 0
207 235 0
207 235 0
208 235 0
208 235 0
209 235 0
209 236 0
210 236 0
210 236 0
211 237 0
211 237 0
212 237 0
212 238 0
213 238 0
213 238 0
214 239 0
214 239 0
215 239 0
215 239 0
216 240 0
216 240 0
216 240 0
216 240 0
216 240 0
207 235 0
207 234 0
207 234 0
207 234 0
207 234 0
207 234 0
207 234 0
207 234 0
207 234 0
207 234 0
206 234 0
206 234 0
206 234 0
206 234 0
206 234 0
206 234 0
206 234 0
206 234 0
206 234 0
206 234 0
206 234 0
206 234 0
206 234 0
206 234 0
206 234 0
206 234 0
206 234 0
207 234 0
207 235 0
207 235 0
207 235 0
208 235 0
208 235 0
209 236 0
209 236 0
209 236 0
210 237 0
210 237 0
211 237 0
211 237 0
211 238 0
212 238 0
212 238 0
213 239 0
213 239 0
213 239 0
213 239 0
214 239 0
214 239 0
214 239 0
207 234 0
207 234 0
207 234 0
207 234 0
207 234 0
207 234 0
207 234 0
207 234 0
207 234 0
207 234 0
207 234 0
206 234 0
206 234 0
206 234 0
206 234 0
206 234 0
206 234 0
206 234 0
206 234 0
206 234 0
206 234 0
206 234 0
206 234 0
206 234 0
206 234 0
206 234 0
206 234 0
206 234 0
206 234 0
207 235 0
207 235 0
207 235 0
207 235 0
207 235 0
208 236 0
208 236 0
208 236 0
209 236 0
209 237 0
209 237 0
210 237 0
210 237 0
210 238 0
211 238 0
211 238 0
211 238 0
211 238 0
211 238 0
211 239 0
211 239 0
207 234 0
207 234 0
207 234 0
207 234 0
207 234 0
207 234 0
207 234 0
207 234 0
207 234 0
207 234 0
207 234 0
207 234 0
206 234 0
206 234 0
206 234 0
206 234 0
206 234 0
206 234 0
206 234 0
206 234 0
206 234 0
206 234 0
206 234 0
206 234 0
206 234 0
206 234 0
206 234 0
206 234 0
206 234 0
206 234 0
206 235 0
206 235 0
206 235 0
206 235 0
207 235 0
207 236 0
207 236 0
207 236 0
207 236 0
208 236 0
208 237 0
208 237 0
208 237 0
208 237 0
209 237 0
209 238 0
209 238 0
209 238 0
209 238 0
209 238 0
207 234 0
207 234 0
207 234 0
207 234 0
207 234 0
207 234 0
207 234 0
207 234 0
207 234 0
207 234 0
207 234 0
207 234 0
207 234 0
206 234 0
206 234 0
206 234 0
206 234 0
206 234 0
206 234 0
206 234 0
206 234 0
206 234 0
206 234 0
206 234 0
206 234 0
205 234 0
205 234 0
205 234 0
205 234 0
205 234 0
205 234 0
205 235 0
205 235 0
206 235 0
206 235 0
206 235 0
206 235 0
206 236 0
206 236 0
206 236 0
206 236 0
206 236 0
206 237 0
207 237 0
207 237 0
207 237 0
207 237 0
207 237 0
207 237 0
207 237 0
208 234 0
208 234 0
208 234 0
208 234 0
207 234 0
207 234 0
207 234 0
207 234 0
207 234 0
207 234 0
207 234 0
207 234 0
207 234 0
207 234 0
207 234 0
206 234 0
206 234 0
206 234 0
206 234 0
206 234 0
206 234 0
206 234 0
206 234 0
205 234 0
205 234 0
205 234 0
205 234 0
205 234 0
205 234 0
205 234 0
205 234 0
205 234 0
205 234 0
205 235 0
205 235 0
205 235 0
205 235 0
205 235 0
205 235 0
205 236 0
205 236 0
205 236 0
205 236 0
205 236 0
205 236 0
205 236 0
205 236 0
205 237 0
205 237 0
205 237 0
208 234 0
208 234 0
208 234 0
208 234 0
208 234 0
208 234 0
208 234 0
207 234 0
207 234 0
207 234 0
207 234 0
207 234 0
207 234 0
207 234 0
207 234 0
207 234 0
206 234 0
206 234 0
206 234 0
206 234 0
206 234 0
206 234 0
206 234 0
205 234 0
205 234 0
205 234 0
205 234 0
205 234 0
205 234 0
204 234 0
204 234 0
204 234 0
204 234 0
204 234 0
204 234 0
204 235 0
204 235 0
203 235 0
203 235 0
203 235 0
203 235 0
203 235 0
203 236 0
203 236 0
203 236 0
203 236 0
203 236 0
203 236 0
203 236 0
203 236 0
208 234 0
208 234 0
208 234 0
208 234 0
208 234 0
208 234 0
208 234 0
208 234 0
208 234 0
208 234 0
208 234 0
207 234 0
207 234 0
207 234 0
207 234 0
207 234 0
207 234 0
207 234 0
206 234 0
206 234 0
206 234 0
206 234 0
206 234 0
205 234 0
205 234 0
205 234 0
205 234 0
204 234 0
204 234 0
204 234 0
204 234 0
204 234 0
203 234 0
203 234 0
203 234 0
203 234 0
203 234 0
202 235 0
202 235 0
202 235 0
202 235 0
202 235 0
202 235 0
202 235 0
202 235 0
202 235 0
202 235 0
202 235 0
202 236 0
202 236 0
208 234 0
208 234 0
208 234 0
208 234 0
208 234 0
208 234 0
208 234 0
208 234 0
208 234 0
208 234 0
208 234 0
208 234 0
208 234 0
207 234 0
207 234 0
207 234 0
207 234 0
207 234 0
207 234 0
206 234 0
206 234 0
206 234 0
206 233 0
205 233 0
205 233 0
205 233 0
205 233 0
204 234 0
204 234 0
204 234 0
203 234 0
203 234 0
203 234 0
202 234 0
202 234 0
202 234 0
202 234 0
201 234 0
201 234 0
201 234 0
201 235 0
201 235 0
201 235 0
200 235 0
200 235 0
200 235 0
200 235 0
200 235 0
200 235 0
200 235 0
209 235 0
209 235 0
209 235 0
209 234 0
209 234 0
209 234 0
208 234 0
208 234 0
208 234 0
208 234 0
208 234 0
208 234 0
208 234 0
208 234 0
208 234 0
207 234 0
207 234 0
207 234 0
207 234 0
207 234 0
206 234 0
206 234 0
206 233 0
205 233 0
205 233 0
205 233 0
204 233 0
204 233 0
204 233 0
203 233 0
203 234 0
203 234 0
202 234 0
202 234 0
202 234 0
201 234 0
201 234 0
201 234 0
200 234 0
200 234 0
200 234 0
200 234 0
199 234 0
199 234 0
199 234 0
199 234 0
199 235 0
199 235 0
199 235 0
199 235 0
209 235 0
209 235 0
209 235 0
209 235 0
209 234 0
209 234 0
209 234 0
209 234 0
209 234 0
209 234 0
209 234 0
208 234 0
208 234 0
208 234 0
208 234 0
208 234 0
208 234 0
207 234 0
207 234 0
207 234 0
207 234 0
206 233 0
206 233 0
206 233 0
205 233 0
205 233 0
204 233 0
204 233 0
204 233 0
203 233 0
203 233 0
202 233 0
202 233 0
201 233 0
201 234 0
201 234 0
200 234 0
200 234 0
200 234 0
199 234 0
199 234 0
199 234 0
198 234 0
198 234 0
198 234 0
198 234 0
198 234 0
198 234 0
198 234 0
198 234 0
209 235 0
209 235 0
209 235 0
209 235 0
209 235 0
209 234 0
209 234 0
209 234 0
209 234 0
209 234 0
209 234 0
209 234 0
209 234 0
209 234 0
208 234 0
208 234 0
208 234 0
208 234 0
207 234 0
207 234 0
207 234 0
206 233 0
206 233 0
206 233 0
205 233 0
205 233 0
204 233 0
204 233 0
203 233 0
203 233 0
202 233 0
202 233 0
201 233 0
201 233 0
200 233 0
200 233 0
200 233 0
199 233 0
199 234 0
198 234 0
198 234 0
198 234 0
198 234 0
197 234 0
197 234 0
197 234 0
197 234 0
197 234 0
197 234 0
197 234 0
210 235 0
210 235 0
210 235 0
210 235 0
210 235 0
210 235 0
210 234 0
210 234 0
210 234 0
209 234 0
209 234 0
209 234 0
209 234 0
209 234 0
209 234 0
209 234 0
208 234 0
208 234 0
208 234 0
207 234 0
207 234 0
207 233 0
206 233 0
206 233 0
205 233 0
205 233 0
204 233 0
204 233 0
203 233 0
203 233 0
202 233 0
202 233 0
201 233 0
201 233 0
200 233 0
200 233 0
199 233 0
199 233 0
198 233 0
198 233 0
197 233 0
197 233 0
197 233 0
197 233 0
196 233 0
196 233 0
196 233 0
196 233 0
196 233 0
196 233 0
210 235 0
210 235 0
210 235 0
210 235 0
210 235 0
210 235 0
210 235 0
210 234 0
210 234 0
210 234 0
210 234 0
210 234 0
209 234 0
209 234 0
209 234 0
209 234 0
209 234 0
208 234 0
208 234 0
208 234 0
207 234 0
207 233 0
206 233 0
206 233 0
206 233 0
205 233 0
204 233 0
204 233 0
203 233 0
203 233 0
202 233 0
201 233 0
201 233 0
200 233 0
200 233 0
199 233 0
199 233 0
198 233 0
198 233 0
197 233 0
197 233 0
197 233 0
196 233 0
196 233 0
196 233 0
196 233 0
195 233 0
195 233 0
195 233 0
195 233 0
210 235 0
210 235 0
210 235 0
210 235 0
210 235 0
210 235 0
210 235 0
210 235 0
210 234 0
210 234 0
210 234 0
210 234 0
210 234 0
210 234 0
210 234 0
209 234 0
209 234 0
209 234 0
208 234 0
208 234 0
208 234 0
207 233 0
207 233 0
206 233 0
206 233 0
205 233 0
204 233 0
204 233 0
203 233 0
203 233 0
202 233 0
201 233 0
201 233 0
200 233 0
199 233 0
199 233 0
198 233 0
198 233 0
197 233 0
197 233 0
196 233 0
196 233 0
196 233 0
195 233 0
195 233 0
195 233 0
195 233 0
195 233 0
195 233 0
195 233 0
211 235 0
211 235 0
211 235 0
211 235 0
211 235 0
211 235 0
211 235 0
211 235 0
211 235 0
211 234 0
210 234 0
210 234 0
210 234 0
210 234 0
210 234 0
210 234 0
209 234 0
209 234 0
209 234 0
208 234 0
208 234 0
207 233 0
207 233 0
206 233 0
206 233 0
205 233 0
205 233 0
204 233 0
203 233 0
203 233 0
202 233 0
201 233 0
201 233 0
200 233 0
199 233 0
199 233 0
198 233 0
198 233 0
197 233 0
197 233 0
196 233 0
196 233 0
195 233 0
195 233 0
195 233 0
195 233 0
194 233 0
194 233 0
194 233 0
194 233 0
211 235 0
211 235 0
211 235 0
211 235 0
211 235 0
211 235 0
211 235 0
211 235 0
211 235 0
211 234 0
211 234 0
211 234 0
211 234 0
210 234 0
210 234 0
210 234 0
210 234 0
209 234 0
209 234 0
209 234 0
208 234 0
208 233 0
207 233 0
207 233 0
206 233 0
205 233 0
205 233 0
204 233 0
203 233 0
203 233 0
202 233 0
201 233 0
200 233 0
200 233 0
199 233 0
198 233 0
198 233 0
197 233 0
197 233 0
196 233 0
196 233 0
195 233 0
195 233 0
195 233 0
194 233 0
194 233 0
194 233 0
194 233 0
194 232 0
194 232 0
211 235 0
211 235 0
211 235 0
211 235 0
211 235 0
211 235 0
211 235 0
211 235 0
211 235 0
211 235 0
211 234 0
211 234 0
211 234 0
211 234 0
210 234 0
210 234 0
210 234 0
210 234 0
209 234 0
209 234 0
208 234 0
208 233 0
207 233 0
207 233 0
206 233 0
205 233 0
205 233 0
204 233 0
203 233 0
203 233 0
202 233 0
201 233 0
200 233 0
200 233 0
199 233 0
198 233 0
198 233 0
197 233 0
197 232 0
196 232 0
196 232 0
195 232 0
195 232 0
194 232 0
194 232 0
194 232 0
194 232 0
194 232 0
193 232 0
193 232 0
211 235 0
211 235 0
211 235 0
211 235 0
211 235 0
211 235 0
211 235 0
211 235 0
211 235 0
211 235 0
211 234 0
211 234 0
211 234 0
211 234 0
211 234 0
210 234 0
210 234 0
210 234 0
209 234 0
209 234 0
208 234 0
208 233 0
207 233 0
207 233 0
206 233 0
205 233 0
205 233 0
204 233 0
203 233 0
203 233 0
202 233 0
201 233 0
200 233 0
200 233 0
199 233 0
198 233 0
198 232 0
197 232 0
196 232 0
196 232 0
195 232 0
195 232 0
195 232 0
194 232 0
194 232 0
194 232 0
193 232 0
193 232 0
193 232 0
193 232 0
212 235 0
212 235 0
212 235 0
212 235 0
212 235 0
212 235 0
212 235 0
212 235 0
212 235 0
212 235 0
211 234 0
211 234 0
211 234 0
211 234 0
211 234 0
211 234 0
210 234 0
210 234 0
210 234 0
209 234 0
209 234 0
208 233 0
208 233 0
207 233 0
206 233 0
206 233 0
205 233 0
204 233 0
203 233 0
203 233 0
202 233 0
201 233 0
200 233 0
200 233 0
199 232 0
198 232 0
197 232 0
197 232 0
196 232 0
196 232 0
195 232 0
195 232 0
194 232 0
194 232 0
194 232 0
193 232 0
193 232 0
193 232 0
193 232 0
193 232 0
212 235 0
212 235 0
212 235 0
212 235 0
212 235 0
212 235 0
212 235 0
212 235 0
212 235 0
212 235 0
212 234 0
211 234 0
211 234 0
211 234 0
211 234 0
211 234 0
210 234 0
210 234 0
210 234 0
209 234 0
209 234 0
208 233 0
208 233 0
207 233 0
206 233 0
206 233 0
205 233 0
204 233 0
203 233 0
203 233 0
202 233 0
201 233 0
200 233 0
200 233 0
199 232 0
198 232 0
197 232 0
197 232 0
196 232 0
196 232 0
195 232 0
195 232 0
194 232 0
194 232 0
194 232 0
193 232 0
193 232 0
193 232 0
193 232 0
193 232 0
212 235 0
212 235 0
212 235 0
212 235 0
212 235 0
212 235 0
212 235 0
212 235 0
212 235 0
212 235 0
212 234 0
212 234 0
211 234 0
211 234 0
211 234 0
211 234 0
210 234 0
210 234 0
210 234 0
209 234 0
209 234 0
208 233 0
208 233 0
207 233 0
206 233 0
206 233 0
205 233 0
204 233 0
203 233 0
203 233 0
202 233 0
201 233 0
200 233 0
200 233 0
199 232 0
198 232 0
197 232 0
197 232 0
196 232 0
196 232 0
195 232 0
195 232 0
194 232 0
194 232 0
194 232 0
193 232 0
193 232 0
193 232 0
193 232 0
193 232 0
