P3
50 50
255
227 211 0
227 211 0
227 211 0
226 210 0
226 210 0
226 209 0
225 209 0
225 208 0
224 208 0
224 207 0
223 206 0
222 205 0
221 204 0
220 204 0
219 203 0
219 202 0
218 201 0
217 200 0
216 200 0
215 199 0
215 198 0
214 198 0
214 198 0
214 198 0
214 198 0
214 198 0
214 199 0
215 200 0
215 201 0
216 202 0
218 204 0
219 205 0
221 208 0
223 210 0
225 212 0
227 215 0
229 218 0
232 222 0
234 225 0
237 228 0
239 232 0
242 235 0
244 239 0
246 242 0
248 245 0
250 247 0
251 249 0
252 251 0
253 252 0
253 253 0
227 211 0
227 211 0
227 211 0
226 210 0
226 210 0
226 209 0
225 209 0
225 208 0
224 208 0
224 207 0
223 206 0
222 205 0
221 205 0
220 204 0
219 203 0
219 202 0
218 201 0
217 200 0
216 200 0
215 199 0
215 199 0
214 198 0
214 198 0
214 198 0
214 198 0
214 198 0
214 199 0
215 200 0
215 201 0
217 202 0
218 204 0
219 206 0
221 208 0
223 210 0
225 213 0
227 215 0
229 218 0
232 222 0
234 225 0
237 228 0
239 232 0
242 235 0
244 239 0
246 242 0
248 245 0
250 247 0
251 250 0
252 251 0
253 252 0
253 253 0
227 211 0
227 211 0
227 211 0
226 210 0
226 210 0
226 209 0
225 209 0
225 208 0
224 208 0
224 207 0
223 206 0
222 205 0
221 205 0
220 204 0
220 203 0
219 202 0
218 201 0
217 200 0
216 200 0
215 199 0
215 199 0
214 198 0
214 198 0
214 198 0
214 198 0
214 198 0
214 199 0
215 200 0
216 201 0
217 202 0
218 204 0
219 206 0
221 208 0
223 210 0
225 213 0
227 216 0
230 219 0
232 222 0
234 225 0
237 229 0
239 232 0
242 236 0
244 239 0
246 242 0
248 245 0
250 248 0
251 250 0
252 251 0
253 253 0
253 253 0
227 211 0
227 211 0
227 211 0
227 210 0
226 210 0
226 209 0
225 209 0
225 208 0
224 208 0
224 207 0
223 206 0
222 205 0
221 205 0
220 204 0
220 203 0
219 202 0
218 201 0
217 201 0
216 200 0
216 199 0
215 199 0
215 198 0
214 198 0
214 198 0
214 198 0
214 199 0
215 199 0
215 200 0
216 201 0
217 202 0
218 204 0
220 206 0
221 208 0
223 210 0
225 213 0
227 216 0
230 219 0
232 222 0
235 225 0
237 229 0
240 232 0
242 236 0
244 239 0
246 242 0
248 245 0
250 248 0
251 250 0
252 252 0
253 253 0
254 253 0
227 211 0
227 211 0
227 211 0
227 210 0
226 210 0
226 209 0
225 209 0
225 208 0
224 208 0
224 207 0
223 206 0
222 206 0
221 205 0
221 204 0
220 203 0
219 202 0
218 201 0
217 201 0
217 200 0
216 199 0
215 199 0
215 199 0
214 198 0
214 198 0
214 199 0
214 199 0
215 200 0
215 200 0
216 201 0
217 203 0
218 204 0
220 206 0
222 208 0
223 211 0
226 213 0
228 216 0
230 219 0
232 222 0
235 226 0
237 229 0
240 233 0
242 236 0
245 239 0
247 243 0
249 245 0
250 248 0
252 250 0
253 252 0
253 253 0
254 254 0
227 211 0
227 211 0
227 211 0
227 210 0
226 210 0
226 209 0
225 209 0
225 208 0
224 208 0
224 207 0
223 206 0
222 206 0
221 205 0
221 204 0
220 203 0
219 202 0
218 202 0
217 201 0
217 200 0
216 200 0
216 199 0
215 199 0
215 199 0
215 199 0
215 199 0
215 199 0
215 200 0
216 201 0
217 202 0
218 203 0
219 205 0
220 207 0
222 209 0
224 211 0
226 214 0
228 217 0
230 220 0
233 223 0
235 226 0
238 230 0
240 233 0
243 236 0
245 240 0
247 243 0
249 246 0
250 248 0
252 250 0
253 252 0
254 253 0
254 254 0
227 211 0
227 211 0
227 210 0
227 210 0
226 210 0
226 209 0
225 209 0
225 208 0
224 208 0
224 207 0
223 206 0
222 206 0
222 205 0
221 204 0
220 203 0
219 202 0
218 202 0
218 201 0
217 200 0
216 200 0
216 199 0
215 199 0
215 199 0
215 199 0
215 199 0
215 200 0
216 200 0
216 201 0
217 202 0
218 204 0
219 205 0
221 207 0
222 209 0
224 211 0
226 214 0
228 217 0
231 220 0
233 223 0
236 226 0
238 230 0
241 233 0
243 237 0
245 240 0
247 243 0
249 246 0
251 249 0
252 251 0
253 252 0
254 254 0
254 254 0
227 211 0
227 211 0
227 210 0
227 210 0
226 210 0
226 209 0
225 209 0
225 208 0
224 208 0
224 207 0
223 206 0
222 206 0
222 205 0
221 204 0
220 203 0
219 203 0
219 202 0
218 201 0
217 201 0
217 200 0
216 200 0
216 199 0
215 199 0
215 199 0
215 200 0
216 200 0
216 201 0
217 201 0
217 203 0
218 204 0
220 206 0
221 207 0
223 210 0
225 212 0
227 214 0
229 217 0
231 220 0
234 224 0
236 227 0
238 230 0
241 234 0
243 237 0
245 240 0
247 244 0
249 246 0
251 249 0
252 251 0
253 253 0
254 254 0
254 254 0
227 211 0
227 210 0
227 210 0
226 210 0
226 210 0
226 209 0
225 209 0
225 208 0
224 208 0
224 207 0
223 206 0
222 206 0
222 205 0
221 204 0
220 203 0
220 203 0
219 202 0
218 201 0
217 201 0
217 200 0
216 200 0
216 200 0
216 200 0
216 200 0
216 200 0
216 200 0
216 201 0
217 202 0
218 203 0
219 204 0
220 206 0
222 208 0
223 210 0
225 212 0
227 215 0
229 218 0
232 221 0
234 224 0
236 227 0
239 231 0
241 234 0
243 237 0
246 241 0
248 244 0
250 247 0
251 249 0
252 251 0
253 253 0
254 254 0
254 255 0
227 210 0
227 210 0
227 210 0
226 210 0
226 210 0
226 209 0
225 209 0
225 208 0
224 208 0
224 207 0
223 206 0
223 206 0
222 205 0
221 204 0
220 204 0
220 203 0
219 202 0
218 202 0
218 201 0
217 201 0
217 200 0
216 200 0
216 200 0
216 200 0
216 200 0
217 201 0
217 201 0
218 202 0
218 204 0
219 205 0
221 206 0
222 208 0
224 210 0
226 213 0
228 215 0
230 218 0
232 221 0
234 224 0
237 228 0
239 231 0
241 234 0
244 238 0
246 241 0
248 244 0
250 247 0
251 249 0
252 251 0
253 253 0
254 254 0
255 254 0
227 210 0
227 210 0
226 210 0
226 210 0
226 209 0
226 209 0
225 209 0
225 208 0
224 208 0
224 207 0
223 206 0
223 206 0
222 205 0
221 204 0
221 204 0
220 203 0
219 202 0
219 202 0
218 201 0
218 201 0
217 201 0
217 200 0
217 200 0
217 200 0
217 201 0
217 201 0
217 202 0
218 203 0
219 204 0
220 205 0
221 207 0
223 209 0
224 211 0
226 213 0
228 216 0
230 219 0
232 221 0
235 225 0
237 228 0
239 231 0
242 234 0
244 238 0
246 241 0
248 244 0
250 247 0
251 249 0
252 251 0
253 253 0
254 254 0
254 254 0
226 210 0
226 210 0
226 210 0
226 210 0
226 209 0
225 209 0
225 208 0
225 208 0
224 207 0
224 207 0
223 206 0
222 206 0
222 205 0
221 204 0
221 204 0
220 203 0
219 203 0
219 202 0
218 202 0
218 201 0
217 201 0
217 201 0
217 201 0
217 201 0
217 201 0
217 202 0
218 202 0
219 203 0
219 204 0
221 206 0
222 207 0
223 209 0
225 211 0
227 214 0
228 216 0
231 219 0
233 222 0
235 225 0
237 228 0
240 231 0
242 234 0
244 238 0
246 241 0
248 244 0
250 246 0
251 249 0
252 251 0
253 252 0
254 253 0
254 254 0
226 210 0
226 210 0
226 209 0
226 209 0
225 209 0
225 209 0
225 208 0
224 208 0
224 207 0
223 207 0
223 206 0
222 206 0
222 205 0
221 204 0
221 204 0
220 203 0
219 203 0
219 202 0
218 202 0
218 201 0
218 201 0
218 201 0
217 201 0
217 201 0
218 202 0
218 202 0
218 203 0
219 204 0
220 205 0
221 206 0
222 208 0
224 210 0
225 212 0
227 214 0
229 216 0
231 219 0
233 222 0
235 225 0
237 228 0
240 231 0
242 234 0
244 237 0
246 240 0
248 243 0
249 246 0
251 248 0
252 250 0
253 252 0
254 253 0
254 253 0
226 209 0
226 209 0
226 209 0
225 209 0
225 209 0
225 208 0
225 208 0
224 208 0
224 207 0
223 207 0
223 206 0
222 205 0
222 205 0
221 204 0
221 204 0
220 203 0
220 203 0
219 202 0
219 202 0
218 202 0
218 201 0
218 201 0
218 201 0
218 202 0
218 202 0
218 202 0
219 203 0
220 204 0
220 205 0
222 207 0
223 208 0
224 210 0
226 212 0
227 214 0
229 217 0
231 219 0
233 222 0
235 225 0
237 228 0
240 231 0
242 234 0
244 237 0
246 240 0
247 243 0
249 245 0
250 247 0
252 249 0
253 251 0
253 252 0
253 252 0
225 209 0
225 209 0
225 209 0
225 209 0
225 208 0
225 208 0
224 208 0
224 207 0
224 207 0
223 206 0
223 206 0
222 205 0
222 205 0
221 204 0
221 204 0
220 203 0
220 203 0
219 202 0
219 202 0
219 202 0
218 202 0
218 202 0
218 202 0
218 202 0
218 202 0
219 203 0
219 204 0
220 204 0
221 206 0
222 207 0
223 208 0
224 210 0
226 212 0
228 214 0
229 217 0
231 219 0
233 222 0
235 225 0
237 227 0
239 230 0
241 233 0
243 236 0
245 239 0
247 242 0
249 244 0
250 246 0
251 248 0
252 249 0
252 250 0
253 251 0
225 208 0
225 208 0
225 208 0
225 208 0
224 208 0
224 208 0
224 207 0
224 207 0
223 206 0
223 206 0
222 206 0
222 205 0
221 205 0
221 204 0
221 204 0
220 203 0
220 203 0
219 202 0
219 202 0
219 202 0
219 202 0
218 202 0
218 202 0
219 202 0
219 203 0
219 203 0
220 204 0
220 205 0
221 206 0
222 207 0
223 209 0
225 210 0
226 212 0
228 214 0
230 217 0
231 219 0
233 222 0
235 224 0
237 227 0
239 230 0
241 233 0
243 235 0
245 238 0
246 241 0
248 243 0
249 245 0
250 247 0
251 248 0
252 249 0
252 249 0
224 208 0
224 208 0
224 208 0
224 208 0
224 207 0
224 207 0
224 207 0
223 206 0
223 206 0
222 206 0
222 205 0
222 205 0
221 204 0
221 204 0
220 203 0
220 203 0
220 203 0
219 202 0
219 202 0
219 202 0
219 202 0
219 202 0
219 202 0
219 202 0
219 203 0
220 203 0
220 204 0
221 205 0
222 206 0
223 207 0
224 209 0
225 210 0
226 212 0
228 214 0
230 216 0
231 219 0
233 221 0
235 224 0
237 226 0
239 229 0
241 232 0
242 234 0
244 237 0
246 239 0
247 241 0
248 243 0
249 245 0
250 246 0
251 247 0
251 247 0
224 207 0
224 207 0
224 207 0
224 207 0
224 207 0
223 207 0
223 206 0
223 206 0
222 206 0
222 205 0
222 205 0
221 205 0
221 204 0
221 204 0
220 203 0
220 203 0
220 203 0
219 202 0
219 202 0
219 202 0
219 202 0
219 202 0
219 202 0
219 203 0
219 203 0
220 204 0
220 204 0
221 205 0
222 206 0
223 207 0
224 209 0
225 210 0
226 212 0
228 214 0
229 216 0
231 218 0
233 221 0
235 223 0
236 226 0
238 228 0
240 231 0
242 233 0
243 235 0
245 238 0
246 240 0
247 241 0
248 243 0
249 244 0
249 245 0
249 245 0
223 207 0
223 207 0
223 207 0
223 207 0
223 206 0
223 206 0
223 206 0
222 206 0
222 205 0
222 205 0
221 205 0
221 204 0
221 204 0
220 203 0
220 203 0
220 203 0
220 203 0
219 202 0
219 202 0
219 202 0
219 202 0
219 202 0
219 202 0
219 203 0
220 203 0
220 204 0
221 204 0
221 205 0
222 206 0
223 207 0
224 209 0
225 210 0
226 212 0
228 214 0
229 216 0
231 218 0
232 220 0
234 222 0
236 225 0
237 227 0
239 229 0
241 232 0
242 234 0
243 236 0
245 238 0
246 239 0
247 241 0
247 242 0
248 242 0
248 243 0
223 206 0
223 206 0
223 206 0
223 206 0
223 206 0
222 206 0
222 205 0
222 205 0
222 205 0
221 205 0
221 204 0
221 204 0
221 204 0
220 203 0
220 203 0
220 203 0
219 202 0
219 202 0
219 202 0
219 202 0
219 202 0
219 202 0
219 202 0
220 203 0
220 203 0
220 204 0
221 204 0
221 205 0
222 206 0
223 207 0
224 209 0
225 210 0
226 212 0
228 213 0
229 215 0
230 217 0
232 219 0
233 221 0
235 223 0
236 226 0
238 228 0
239 230 0
241 232 0
242 234 0
243 235 0
244 237 0
245 238 0
246 239 0
246 240 0
246 240 0
222 206 0
222 206 0
222 206 0
222 206 0
222 205 0
222 205 0
222 205 0
221 205 0
221 204 0
221 204 0
221 204 0
220 204 0
220 203 0
220 203 0
220 203 0
220 202 0
219 202 0
219 202 0
219 202 0
219 202 0
219 202 0
219 202 0
219 202 0
220 203 0
220 203 0
220 204 0
221 204 0
221 205 0
222 206 0
223 207 0
224 208 0
225 210 0
226 211 0
227 213 0
229 214 0
230 216 0
231 218 0
233 220 0
234 222 0
235 224 0
237 226 0
238 228 0
239 230 0
241 231 0
242 233 0
242 234 0
243 236 0
244 236 0
244 237 0
244 237 0
222 205 0
222 205 0
222 205 0
222 205 0
222 205 0
221 205 0
221 205 0
221 204 0
221 204 0
221 204 0
220 203 0
220 203 0
220 203 0
220 203 0
220 202 0
219 202 0
219 202 0
219 202 0
219 202 0
219 202 0
219 202 0
219 202 0
219 202 0
220 203 0
220 203 0
220 204 0
221 204 0
221 205 0
222 206 0
223 207 0
224 208 0
225 209 0
226 211 0
227 212 0
228 214 0
229 215 0
230 217 0
232 219 0
233 220 0
234 222 0
235 224 0
237 226 0
238 228 0
239 229 0
240 230 0
241 232 0
241 233 0
242 234 0
242 234 0
242 234 0
221 205 0
221 205 0
221 205 0
221 205 0
221 204 0
221 204 0
221 204 0
221 204 0
220 204 0
220 203 0
220 203 0
220 203 0
220 203 0
219 202 0
219 202 0
219 202 0
219 202 0
219 202 0
219 202 0
219 202 0
219 202 0
219 202 0
219 202 0
220 203 0
220 203 0
220 204 0
221 204 0
221 205 0
222 206 0
223 207 0
223 208 0
224 209 0
225 210 0
226 211 0
227 213 0
228 214 0
229 216 0
231 217 0
232 219 0
233 221 0
234 222 0
235 224 0
236 225 0
237 227 0
238 228 0
239 229 0
239 230 0
240 231 0
240 231 0
240 231 0
221 204 0
221 204 0
221 204 0
221 204 0
221 204 0
221 204 0
220 204 0
220 203 0
220 203 0
220 203 0
220 203 0
220 203 0
219 202 0
219 202 0
219 202 0
219 202 0
219 202 0
219 202 0
219 202 0
219 202 0
219 202 0
219 202 0
219 202 0
220 202 0
220 203 0
220 203 0
221 204 0
221 205 0
222 205 0
222 206 0
223 207 0
224 208 0
225 209 0
226 210 0
227 212 0
227 213 0
228 214 0
229 216 0
230 217 0
232 219 0
232 220 0
233 221 0
234 223 0
235 224 0
236 225 0
237 226 0
237 227 0
238 227 0
238 228 0
238 228 0
221 204 0
220 204 0
220 204 0
220 204 0
220 204 0
220 203 0
220 203 0
220 203 0
220 203 0
220 203 0
219 202 0
219 202 0
219 202 0
219 202 0
219 202 0
219 202 0
219 202 0
219 201 0
219 201 0
219 202 0
219 202 0
219 202 0
219 202 0
219 202 0
220 203 0
220 203 0
221 204 0
221 204 0
222 205 0
222 206 0
223 207 0
223 207 0
224 208 0
225 209 0
226 211 0
227 212 0
227 213 0
228 214 0
229 215 0
230 217 0
231 218 0
232 219 0
232 220 0
233 221 0
234 222 0
234 223 0
235 224 0
235 224 0
235 225 0
236 225 0
220 204 0
220 203 0
220 203 0
220 203 0
220 203 0
220 203 0
220 203 0
220 203 0
219 203 0
219 202 0
219 202 0
219 202 0
219 202 0
219 202 0
219 202 0
219 201 0
219 201 0
219 201 0
219 201 0
219 201 0
219 201 0
219 202 0
219 202 0
219 202 0
220 202 0
220 203 0
220 203 0
221 204 0
221 204 0
222 205 0
222 206 0
223 207 0
223 208 0
224 208 0
225 209 0
225 210 0
226 211 0
227 213 0
228 214 0
228 215 0
229 216 0
230 217 0
231 218 0
231 219 0
232 220 0
232 220 0
233 221 0
233 221 0
233 222 0
233 222 0
220 203 0
220 203 0
220 203 0
220 203 0
220 203 0
220 203 0
219 203 0
219 202 0
219 202 0
219 202 0
219 202 0
219 202 0
219 202 0
219 201 0
219 201 0
219 201 0
219 201 0
219 201 0
219 201 0
219 201 0
219 201 0
219 201 0
219 202 0
219 202 0
219 202 0
220 203 0
220 203 0
220 203 0
221 204 0
221 205 0
222 205 0
222 206 0
223 207 0
223 207 0
224 208 0
224 209 0
225 210 0
226 211 0
226 212 0
227 213 0
227 214 0
228 215 0
229 215 0
229 216 0
230 217 0
230 217 0
230 218 0
231 218 0
231 219 0
231 219 0
220 203 0
220 203 0
220 203 0
220 203 0
219 203 0
219 203 0
219 202 0
219 202 0
219 202 0
219 202 0
219 202 0
219 202 0
219 201 0
219 201 0
218 201 0
218 201 0
218 201 0
218 201 0
218 201 0
219 201 0
219 201 0
219 201 0
219 201 0
219 202 0
219 202 0
219 202 0
220 203 0
220 203 0
220 203 0
221 204 0
221 204 0
221 205 0
222 206 0
222 206 0
223 207 0
223 208 0
224 208 0
224 209 0
225 210 0
225 211 0
226 212 0
226 212 0
227 213 0
227 214 0
227 214 0
228 215 0
228 215 0
228 215 0
228 216 0
228 216 0
220 203 0
220 203 0
219 203 0
219 203 0
219 203 0
219 202 0
219 202 0
219 202 0
219 202 0
219 202 0
219 202 0
219 202 0
219 201 0
218 201 0
218 201 0
218 201 0
218 201 0
218 201 0
218 201 0
218 201 0
219 201 0
219 201 0
219 201 0
219 201 0
219 202 0
219 202 0
219 202 0
220 203 0
220 203 0
220 203 0
220 204 0
221 204 0
221 205 0
221 205 0
222 206 0
222 206 0
222 207 0
223 208 0
223 208 0
224 209 0
224 209 0
224 210 0
225 211 0
225 211 0
225 212 0
226 212 0
226 212 0
226 213 0
226 213 0
226 213 0
219 203 0
219 203 0
219 203 0
219 203 0
219 202 0
219 202 0
219 202 0
219 202 0
219 202 0
219 202 0
219 202 0
219 201 0
219 201 0
218 201 0
218 201 0
218 201 0
218 201 0
218 201 0
218 201 0
218 201 0
218 201 0
219 201 0
219 201 0
219 201 0
219 201 0
219 202 0
219 202 0
219 202 0
219 202 0
220 203 0
220 203 0
220 203 0
220 204 0
220 204 0
221 205 0
221 205 0
221 206 0
222 206 0
222 207 0
222 207 0
222 208 0
223 208 0
223 208 0
223 209 0
223 209 0
224 210 0
224 210 0
224 210 0
224 210 0
224 210 0
219 203 0
219 203 0
219 203 0
219 202 0
219 202 0
219 202 0
219 202 0
219 202 0
219 202 0
219 202 0
219 202 0
219 202 0
219 201 0
219 201 0
218 201 0
218 201 0
218 201 0
218 201 0
218 201 0
218 201 0
218 201 0
218 201 0
219 201 0
219 201 0
219 201 0
219 201 0
219 202 0
219 202 0
219 202 0
219 202 0
219 202 0
219 203 0
219 203 0
220 203 0
220 204 0
220 204 0
220 204 0
220 205 0
220 205 0
221 205 0
221 206 0
221 206 0
221 206 0
221 207 0
221 207 0
222 207 0
222 207 0
222 208 0
222 208 0
222 208 0
220 203 0
219 203 0
219 203 0
219 203 0
219 202 0
219 202 0
219 202 0
219 202 0
219 202 0
219 202 0
219 202 0
219 202 0
219 201 0
219 201 0
219 201 0
219 201 0
218 201 0
218 201 0
218 201 0
218 201 0
218 201 0
218 201 0
218 201 0
218 201 0
218 201 0
219 201 0
219 201 0
219 201 0
219 201 0
219 202 0
219 202 0
219 202 0
219 202 0
219 202 0
219 202 0
219 203 0
219 203 0
219 203 0
219 203 0
219 204 0
219 204 0
219 204 0
219 204 0
220 205 0
220 205 0
220 205 0
220 205 0
220 205 0
220 205 0
220 205 0
220 203 0
220 203 0
220 203 0
220 203 0
220 203 0
219 202 0
219 202 0
219 202 0
219 202 0
219 202 0
219 202 0
219 202 0
219 202 0
219 201 0
219 201 0
219 201 0
219 201 0
219 201 0
219 201 0
218 201 0
218 201 0
218 201 0
218 201 0
218 201 0
218 201 0
218 201 0
218 201 0
218 201 0
218 201 0
218 201 0
218 201 0
218 201 0
218 201 0
218 201 0
218 201 0
218 202 0
218 202 0
218 202 0
218 202 0
218 202 0
218 202 0
218 202 0
218 203 0
218 203 0
218 203 0
218 203 0
218 203 0
218 203 0
218 203 0
218 203 0
220 203 0
220 203 0
220 203 0
220 203 0
220 203 0
220 203 0
220 203 0
220 202 0
219 202 0
219 202 0
219 202 0
219 202 0
219 202 0
219 202 0
219 202 0
219 201 0
219 201 0
219 201 0
219 201 0
219 201 0
219 201 0
218 201 0
218 201 0
218 201 0
218 201 0
218 201 0
218 201 0
218 201 0
218 201 0
218 201 0
218 201 0
217 201 0
217 200 0
217 201 0
217 201 0
217 201 0
217 201 0
217 201 0
217 201 0
217 201 0
217 201 0
217 201 0
216 201 0
216 201 0
216 201 0
216 201 0
216 201 0
216 201 0
216 201 0
216 201 0
220 203 0
220 203 0
220 203 0
220 203 0
220 203 0
220 203 0
220 203 0
220 203 0
220 203 0
220 202 0
220 202 0
219 202 0
219 202 0
219 202 0
219 202 0
219 202 0
219 202 0
219 201 0
219 201 0
219 201 0
219 201 0
219 201 0
218 201 0
218 201 0
218 201 0
218 201 0
218 200 0
218 200 0
218 200 0
217 200 0
217 200 0
217 200 0
217 200 0
217 200 0
216 200 0
216 200 0
216 200 0
216 200 0
216 200 0
216 200 0
215 200 0
215 200 0
215 200 0
215 200 0
215 200 0
215 200 0
215 200 0
215 200 0
215 200 0
215 200 0
220 203 0
220 203 0
220 203 0
220 203 0
220 203 0
220 203 0
220 203 0
220 203 0
220 203 0
220 203 0
220 203 0
220 202 0
220 202 0
220 202 0
220 202 0
219 202 0
219 202 0
219 202 0
219 201 0
219 201 0
219 201 0
219 201 0
219 201 0
218 201 0
218 201 0
218 200 0
218 200 0
218 200 0
217 200 0
217 200 0
217 200 0
217 199 0
216 199 0
216 199 0
216 199 0
215 199 0
215 199 0
215 199 0
215 198 0
215 198 0
214 198 0
214 198 0
214 198 0
214 198 0
214 198 0
214 198 0
214 198 0
214 198 0
214 198 0
214 198 0
221 204 0
221 204 0
221 204 0
221 204 0
221 204 0
221 203 0
220 203 0
220 203 0
220 203 0
220 203 0
220 203 0
220 203 0
220 203 0
220 203 0
220 202 0
220 202 0
220 202 0
220 202 0
219 202 0
219 202 0
219 201 0
219 201 0
219 201 0
218 201 0
218 201 0
218 200 0
218 200 0
217 200 0
217 200 0
217 199 0
216 199 0
216 199 0
216 199 0
215 199 0
215 198 0
215 198 0
214 198 0
214 198 0
214 198 0
214 197 0
213 197 0
213 197 0
213 197 0
213 197 0
213 197 0
213 197 0
213 197 0
213 197 0
213 197 0
213 197 0
221 204 0
221 204 0
221 204 0
221 204 0
221 204 0
221 204 0
221 204 0
221 204 0
221 204 0
221 203 0
221 203 0
221 203 0
220 203 0
220 203 0
220 203 0
220 203 0
220 202 0
220 202 0
220 202 0
220 202 0
219 202 0
219 201 0
219 201 0
219 201 0
218 201 0
218 200 0
218 200 0
217 200 0
217 199 0
217 199 0
216 199 0
216 199 0
215 198 0
215 198 0
215 198 0
214 197 0
214 197 0
214 197 0
213 197 0
213 197 0
213 196 0
212 196 0
212 196 0
212 196 0
212 196 0
212 196 0
212 196 0
212 196 0
212 196 0
212 196 0
221 204 0
221 204 0
221 204 0
221 204 0
221 204 0
221 204 0
221 204 0
221 204 0
221 204 0
221 204 0
221 204 0
221 204 0
221 203 0
221 203 0
221 203 0
221 203 0
220 203 0
220 203 0
220 202 0
220 202 0
220 202 0
219 202 0
219 201 0
219 201 0
218 201 0
218 200 0
218 200 0
217 200 0
217 199 0
216 199 0
216 199 0
216 198 0
215 198 0
215 198 0
214 197 0
214 197 0
213 197 0
213 196 0
213 196 0
212 196 0
212 196 0
212 195 0
212 195 0
211 195 0
211 195 0
211 195 0
211 195 0
211 195 0
211 195 0
211 195 0
222 205 0
222 205 0
222 205 0
222 205 0
222 205 0
222 205 0
222 204 0
222 204 0
222 204 0
221 204 0
221 204 0
221 204 0
221 204 0
221 204 0
221 204 0
221 203 0
221 203 0
221 203 0
220 203 0
220 202 0
220 202 0
220 202 0
219 202 0
219 201 0
219 201 0
218 200 0
218 200 0
217 200 0
217 199 0
216 199 0
216 198 0
215 198 0
215 198 0
214 197 0
214 197 0
213 197 0
213 196 0
213 196 0
212 196 0
212 195 0
212 195 0
211 195 0
211 195 0
211 194 0
211 194 0
210 194 0
210 194 0
210 194 0
210 194 0
210 194 0
222 205 0
222 205 0
222 205 0
222 205 0
222 205 0
222 205 0
222 205 0
222 205 0
222 205 0
222 205 0
222 205 0
222 204 0
222 204 0
222 204 0
222 204 0
221 204 0
221 204 0
221 203 0
221 203 0
221 203 0
220 202 0
220 202 0
220 202 0
219 201 0
219 201 0
218 201 0
218 200 0
217 200 0
217 199 0
216 199 0
216 198 0
215 198 0
215 197 0
214 197 0
214 197 0
213 196 0
213 196 0
212 195 0
212 195 0
211 195 0
211 194 0
211 194 0
211 194 0
210 194 0
210 194 0
210 193 0
210 193 0
210 193 0
210 193 0
210 193 0
222 205 0
222 205 0
222 205 0
222 205 0
222 205 0
222 205 0
222 205 0
222 205 0
222 205 0
222 205 0
222 205 0
222 205 0
222 205 0
222 205 0
222 204 0
222 204 0
222 204 0
221 204 0
221 203 0
221 203 0
221 203 0
220 202 0
220 202 0
219 202 0
219 201 0
219 201 0
218 200 0
218 200 0
217 199 0
216 199 0
216 198 0
215 198 0
215 197 0
214 197 0
214 196 0
213 196 0
213 195 0
212 195 0
212 195 0
211 194 0
211 194 0
211 194 0
210 194 0
210 193 0
210 193 0
210 193 0
209 193 0
209 193 0
209 193 0
209 193 0
223 206 0
223 206 0
223 206 0
223 206 0
223 206 0
223 206 0
223 206 0
223 206 0
223 206 0
223 205 0
223 205 0
223 205 0
223 205 0
223 205 0
222 205 0
222 205 0
222 204 0
222 204 0
222 204 0
221 203 0
221 203 0
221 203 0
220 202 0
220 202 0
219 201 0
219 201 0
218 200 0
218 200 0
217 199 0
216 199 0
216 198 0
215 198 0
215 197 0
214 197 0
213 196 0
213 196 0
212 195 0
212 195 0
211 194 0
211 194 0
211 194 0
210 193 0
210 193 0
210 193 0
209 193 0
209 193 0
209 192 0
209 192 0
209 192 0
209 192 0
223 206 0
223 206 0
223 206 0
223 206 0
223 206 0
223 206 0
223 206 0
223 206 0
223 206 0
223 206 0
223 206 0
223 206 0
223 206 0
223 205 0
223 205 0
223 205 0
222 205 0
222 204 0
222 204 0
222 204 0
221 203 0
221 203 0
220 203 0
220 202 0
220 202 0
219 201 0
218 201 0
218 200 0
217 199 0
217 199 0
216 198 0
215 198 0
215 197 0
214 197 0
213 196 0
213 196 0
212 195 0
212 195 0
211 194 0
211 194 0
210 193 0
210 193 0
210 193 0
210 193 0
209 192 0
209 192 0
209 192 0
209 192 0
209 192 0
209 192 0
223 206 0
223 206 0
223 206 0
223 206 0
223 206 0
223 206 0
223 206 0
223 206 0
223 206 0
223 206 0
223 206 0
223 206 0
223 206 0
223 206 0
223 206 0
223 205 0
223 205 0
223 205 0
222 204 0
222 204 0
222 204 0
221 203 0
221 203 0
220 202 0
220 202 0
219 201 0
219 201 0
218 200 0
217 199 0
217 199 0
216 198 0
215 198 0
215 197 0
214 197 0
213 196 0
213 195 0
212 195 0
212 194 0
211 194 0
211 194 0
210 193 0
210 193 0
210 193 0
209 192 0
209 192 0
209 192 0
209 192 0
209 192 0
209 192 0
209 192 0
223 206 0
223 206 0
223 206 0
223 206 0
223 206 0
223 206 0
224 206 0
224 206 0
224 206 0
224 206 0
224 206 0
224 206 0
224 206 0
224 206 0
223 206 0
223 206 0
223 205 0
223 205 0
223 205 0
222 204 0
222 204 0
221 203 0
221 203 0
220 202 0
220 202 0
219 201 0
219 201 0
218 200 0
217 200 0
217 199 0
216 198 0
215 198 0
215 197 0
214 196 0
213 196 0
213 195 0
212 195 0
212 194 0
211 194 0
211 193 0
210 193 0
210 193 0
210 192 0
209 192 0
209 192 0
209 192 0
209 192 0
209 192 0
209 191 0
208 191 0
223 207 0
223 207 0
223 207 0
224 207 0
224 207 0
224 207 0
224 207 0
224 207 0
224 207 0
224 207 0
224 207 0
224 207 0
224 206 0
224 206 0
224 206 0
224 206 0
223 206 0
223 205 0
223 205 0
223 205 0
222 204 0
222 204 0
221 203 0
221 203 0
220 202 0
220 201 0
219 201 0
218 200 0
218 200 0
217 199 0
216 198 0
215 198 0
215 197 0
214 196 0
213 196 0
213 195 0
212 195 0
212 194 0
211 194 0
211 193 0
210 193 0
210 193 0
210 192 0
209 192 0
209 192 0
209 192 0
209 192 0
209 191 0
208 191 0
208 191 0
224 207 0
224 207 0
224 207 0
224 207 0
224 207 0
224 207 0
224 207 0
224 207 0
224 207 0
224 207 0
224 207 0
224 207 0
224 207 0
224 207 0
224 206 0
224 206 0
224 206 0
223 206 0
223 205 0
223 205 0
222 204 0
222 204 0
221 203 0
221 203 0
220 202 0
220 202 0
219 201 0
218 200 0
218 200 0
217 199 0
216 198 0
216 198 0
215 197 0
214 196 0
214 196 0
213 195 0
212 195 0
212 194 0
211 194 0
211 193 0
210 193 0
210 193 0
210 192 0
209 192 0
209 192 0
209 192 0
209 191 0
209 191 0
208 191 0
208 191 0
224 207 0
224 207 0
224 207 0
224 207 0
224 207 0
224 207 0
224 207 0
224 207 0
224 207 0
224 207 0
224 207 0
224 207 0
224 207 0
224 207 0
224 206 0
224 206 0
224 206 0
223 206 0
223 205 0
223 205 0
222 204 0
222 204 0
221 203 0
221 203 0
220 202 0
220 202 0
219 201 0
218 200 0
218 200 0
217 199 0
216 198 0
216 198 0
215 197 0
214 196 0
214 196 0
213 195 0
212 195 0
212 194 0
211 194 0
211 193 0
210 193 0
210 193 0
210 192 0
209 192 0
209 192 0
209 192 0
209 191 0
208 191 0
208 191 0
208 191 0
224 207 0
224 207 0
224 207 0
224 207 0
224 207 0
224 207 0
224 207 0
224 207 0
224 207 0
224 207 0
224 207 0
224 207 0
224 207 0
224 207 0
224 207 0
224 206 0
224 206 0
224 206 0
223 205 0
223 205 0
223 205 0
222 204 0
222 203 0
221 203 0
220 202 0
220 202 0
219 201 0
218 200 0
218 200 0
217 199 0
216 198 0
216 198 0
215 197 0
214 196 0
214 196 0
213 195 0
212 195 0
212 194 0
211 194 0
211 193 0
210 193 0
210 193 0
210 192 0
209 192 0
209 192 0
209 192 0
209 191 0
208 191 0
208 191 0
208 191 0
