P3
50 50
255
34 34 0
216 216 0
195 195 0
65 65 0
126 126 0
114 114 0
166 166 0
201 201 0
23 23 0
7 7 0
213 213 0
110 110 0
194 194 0
0 0 0
113 113 0
184 184 0
58 58 0
241 241 0
230 230 0
7 7 0
6 6 0
138 138 0
239 239 0
97 97 0
55 55 0
107 107 0
7 7 0
56 56 0
111 111 0
126 126 0
59 59 0
58 58 0
55 55 0
117 117 0
73 73 0
5 5 0
213 213 0
142 142 0
163 163 0
47 47 0
253 253 0
219 219 0
30 30 0
84 84 0
184 184 0
181 181 0
239 239 0
107 107 0
211 211 0
171 171 0
77 77 0
150 150 0
225 225 0
216 216 0
129 129 0
150 150 0
8 8 0
61 61 0
203 203 0
105 105 0
44 44 0
140 140 0
179 179 0
172 172 0
95 95 0
112 112 0
129 129 0
198 198 0
133 133 0
100 100 0
125 125 0
7 7 0
11 11 0
179 179 0
251 251 0
151 151 0
100 100 0
43 43 0
128 128 0
250 250 0
196 196 0
137 137 0
219 219 0
59 59 0
131 131 0
243 243 0
147 147 0
117 117 0
68 68 0
139 139 0
244 244 0
1 1 0
200 200 0
209 209 0
226 226 0
189 189 0
206 206 0
132 132 0
143 143 0
108 108 0
14 14 0
222 222 0
145 145 0
51 51 0
128 128 0
123 123 0
91 91 0
88 88 0
137 137 0
159 159 0
156 156 0
116 116 0
7 7 0
58 58 0
45 45 0
149 149 0
219 219 0
203 203 0
203 203 0
208 208 0
65 65 0
214 214 0
171 171 0
21 21 0
4 4 0
3 3 0
192 192 0
63 63 0
27 27 0
159 159 0
87 87 0
17 17 0
40 40 0
134 134 0
42 42 0
69 69 0
181 181 0
116 116 0
82 82 0
120 120 0
6 6 0
98 98 0
107 107 0
48 48 0
27 27 0
229 229 0
130 130 0
53 53 0
154 154 0
208 208 0
5 5 0
4 4 0
37 37 0
183 183 0
40 40 0
179 179 0
173 173 0
139 139 0
56 56 0
249 249 0
203 203 0
131 131 0
56 56 0
165 165 0
100 100 0
147 147 0
82 82 0
161 161 0
15 15 0
76 76 0
247 247 0
223 223 0
78 78 0
219 219 0
79 79 0
239 239 0
189 189 0
106 106 0
64 64 0
2 2 0
224 224 0
9 9 0
209 209 0
245 245 0
145 145 0
43 43 0
221 221 0
248 248 0
179 179 0
129 129 0
96 96 0
88 88 0
52 52 0
172 172 0
110 110 0
49 49 0
26 26 0
170 170 0
75 75 0
127 127 0
83 83 0
222 222 0
229 229 0
4 4 0
51 51 0
83 83 0
252 252 0
199 199 0
86 86 0
54 54 0
172 172 0
213 213 0
237 237 0
87 87 0
225 225 0
175 175 0
123 123 0
251 251 0
59 59 0
185 185 0
21 21 0
43 43 0
232 232 0
54 54 0
193 193 0
153 153 0
214 214 0
93 93 0
86 86 0
74 74 0
221 221 0
154 154 0
243 243 0
226 226 0
34 34 0
140 140 0
26 26 0
9 9 0
18 18 0
221 221 0
201 201 0
211 211 0
87 87 0
157 157 0
199 199 0
96 96 0
145 145 0
57 57 0
20 20 0
68 68 0
227 227 0
144 144 0
236 236 0
116 116 0
70 70 0
200 200 0
211 211 0
3 3 0
171 171 0
23 23 0
29 29 0
225 225 0
10 10 0
61 61 0
252 252 0
107 107 0
29 29 0
42 42 0
61 61 0
189 189 0
26 26 0
232 232 0
96 96 0
247 247 0
232 232 0
75 75 0
64 64 0
121 121 0
25 25 0
166 166 0
10 10 0
2 2 0
250 250 0
75 75 0
152 152 0
114 114 0
79 79 0
16 16 0
233 233 0
247 247 0
247 247 0
28 28 0
54 54 0
157 157 0
250 250 0
138 138 0
175 175 0
168 168 0
66 66 0
138 138 0
78 78 0
62 62 0
20 20 0
71 71 0
251 251 0
114 114 0
166 166 0
164 164 0
240 240 0
99 99 0
78 78 0
83 83 0
80 80 0
216 216 0
228 228 0
77 77 0
85 85 0
138 138 0
147 147 0
152 152 0
62 62 0
5 5 0
62 62 0
18 18 0
140 140 0
18 18 0
19 19 0
162 162 0
74 74 0
202 202 0
125 125 0
220 220 0
39 39 0
128 128 0
202 202 0
19 19 0
242 242 0
44 44 0
198 198 0
251 251 0
209 209 0
81 81 0
27 27 0
131 131 0
234 234 0
74 74 0
228 228 0
36 36 0
232 232 0
8 8 0
80 80 0
230 230 0
205 205 0
231 231 0
214 214 0
190 190 0
176 176 0
45 45 0
110 110 0
40 40 0
182 182 0
170 170 0
64 64 0
16 16 0
245 245 0
206 206 0
140 140 0
138 138 0
217 217 0
115 115 0
101 101 0
86 86 0
65 65 0
6 6 0
165 165 0
106 106 0
145 145 0
15 15 0
90 90 0
35 35 0
31 31 0
66 66 0
211 211 0
101 101 0
102 102 0
156 156 0
59 59 0
1 1 0
134 134 0
127 127 0
165 165 0
111 111 0
175 175 0
186 186 0
60 60 0
126 126 0
122 122 0
57 57 0
105 105 0
143 143 0
231 231 0
234 234 0
70 70 0
165 165 0
12 12 0
18 18 0
130 130 0
224 224 0
40 40 0
195 195 0
225 225 0
79 79 0
176 176 0
216 216 0
94 94 0
179 179 0
188 188 0
151 151 0
218 218 0
228 228 0
245 245 0
145 145 0
45 45 0
63 63 0
55 55 0
145 145 0
193 193 0
13 13 0
174 174 0
183 183 0
88 88 0
131 131 0
42 42 0
186 186 0
10 10 0
250 250 0
206 206 0
160 160 0
68 68 0
233 233 0
244 244 0
35 35 0
198 198 0
214 214 0
168 168 0
178 178 0
113 113 0
235 235 0
247 247 0
97 97 0
204 204 0
110 110 0
42 42 0
83 83 0
32 32 0
232 232 0
244 244 0
30 30 0
153 153 0
104 104 0
30 30 0
75 75 0
63 63 0
191 191 0
1 1 0
48 48 0
112 112 0
5 5 0
160 160 0
154 154 0
213 213 0
52 52 0
72 72 0
138 138 0
69 69 0
149 149 0
64 64 0
174 174 0
201 201 0
206 206 0
248 248 0
139 139 0
125 125 0
218 218 0
196 196 0
145 145 0
97 97 0
72 72 0
27 27 0
206 206 0
30 30 0
190 190 0
139 139 0
246 246 0
194 194 0
248 248 0
34 34 0
127 127 0
146 146 0
79 79 0
128 128 0
91 91 0
134 134 0
0 0 0
112 112 0
114 114 0
77 77 0
101 101 0
199 199 0
174 174 0
125 125 0
165 165 0
96 96 0
52 52 0
0 0 0
70 70 0
152 152 0
225 225 0
211 211 0
130 130 0
251 251 0
117 117 0
213 213 0
104 104 0
190 190 0
252 252 0
77 77 0
43 43 0
158 158 0
135 135 0
91 91 0
0 0 0
99 99 0
108 108 0
103 103 0
219 219 0
149 149 0
187 187 0
229 229 0
191 191 0
125 125 0
190 190 0
163 163 0
165 165 0
160 160 0
103 103 0
160 160 0
161 161 0
239 239 0
199 199 0
216 216 0
195 195 0
208 208 0
154 154 0
89 89 0
67 67 0
180 180 0
223 223 0
138 138 0
38 38 0
212 212 0
123 123 0
119 119 0
11 11 0
130 130 0
190 190 0
107 107 0
90 90 0
167 167 0
5 5 0
129 129 0
241 241 0
176 176 0
102 102 0
175 175 0
154 154 0
53 53 0
53 53 0
226 226 0
68 68 0
19 19 0
212 212 0
133 133 0
94 94 0
130 130 0
188 188 0
43 43 0
166 166 0
182 182 0
208 208 0
68 68 0
155 155 0
59 59 0
143 143 0
44 44 0
201 201 0
221 221 0
84 84 0
56 56 0
246 246 0
180 180 0
215 215 0
7 7 0
229 229 0
158 158 0
80 80 0
110 110 0
194 194 0
200 200 0
48 48 0
159 159 0
42 42 0
248 248 0
113 113 0
233 233 0
185 185 0
154 154 0
66 66 0
134 134 0
35 35 0
35 35 0
182 182 0
92 92 0
191 191 0
61 61 0
183 183 0
183 183 0
77 77 0
27 27 0
101 101 0
125 125 0
25 25 0
47 47 0
14 14 0
152 152 0
226 226 0
55 55 0
8 8 0
179 179 0
208 208 0
246 246 0
156 156 0
87 87 0
213 213 0
30 30 0
176 176 0
24 24 0
102 102 0
126 126 0
96 96 0
43 43 0
59 59 0
209 209 0
118 118 0
148 148 0
54 54 0
182 182 0
84 84 0
151 151 0
232 232 0
253 253 0
11 11 0
203 203 0
218 218 0
81 81 0
97 97 0
148 148 0
234 234 0
102 102 0
224 224 0
193 193 0
38 38 0
233 233 0
3 3 0
37 37 0
169 169 0
14 14 0
96 96 0
33 33 0
118 118 0
214 214 0
231 231 0
9 9 0
15 15 0
214 214 0
10 10 0
69 69 0
29 29 0
23 23 0
7 7 0
162 162 0
190 190 0
175 175 0
215 215 0
169 169 0
99 99 0
161 161 0
247 247 0
163 163 0
62 62 0
15 15 0
238 238 0
150 150 0
89 89 0
154 154 0
143 143 0
133 133 0
15 15 0
90 90 0
105 105 0
50 50 0
224 224 0
108 108 0
169 169 0
182 182 0
189 189 0
184 184 0
192 192 0
64 64 0
249 249 0
38 38 0
234 234 0
218 218 0
217 217 0
13 13 0
23 23 0
207 207 0
119 119 0
94 94 0
251 251 0
10 10 0
135 135 0
113 113 0
32 32 0
100 100 0
180 180 0
225 225 0
6 6 0
133 133 0
23 23 0
204 204 0
21 21 0
8 8 0
98 98 0
187 187 0
79 79 0
33 33 0
202 202 0
206 206 0
218 218 0
77 77 0
108 108 0
62 62 0
142 142 0
84 84 0
86 86 0
200 200 0
244 244 0
149 149 0
26 26 0
166 166 0
114 114 0
252 252 0
183 183 0
213 213 0
179 179 0
136 136 0
228 228 0
212 212 0
74 74 0
40 40 0
94 94 0
133 133 0
24 24 0
88 88 0
146 146 0
11 11 0
208 208 0
166 166 0
80 80 0
76 76 0
90 90 0
83 83 0
191 191 0
127 127 0
134 134 0
37 37 0
233 233 0
83 83 0
83 83 0
17 17 0
250 250 0
122 122 0
233 233 0
236 236 0
247 247 0
208 208 0
236 236 0
235 235 0
204 204 0
34 34 0
133 133 0
146 146 0
253 253 0
200 200 0
179 179 0
190 190 0
92 92 0
240 240 0
164 164 0
102 102 0
118 118 0
250 250 0
135 135 0
42 42 0
37 37 0
175 175 0
143 143 0
231 231 0
47 47 0
104 104 0
185 185 0
12 12 0
25 25 0
139 139 0
67 67 0
27 27 0
66 66 0
161 161 0
134 134 0
20 20 0
18 18 0
217 217 0
164 164 0
44 44 0
220 220 0
5 5 0
93 93 0
216 216 0
181 181 0
72 72 0
227 227 0
152 152 0
220 220 0
227 227 0
108 108 0
172 172 0
139 139 0
241 241 0
203 203 0
185 185 0
207 207 0
254 254 0
65 65 0
51 51 0
190 190 0
196 196 0
131 131 0
124 124 0
103 103 0
225 225 0
203 203 0
149 149 0
10 10 0
217 217 0
117 117 0
48 48 0
76 76 0
176 176 0
1 1 0
30 30 0
77 77 0
226 226 0
190 190 0
247 247 0
138 138 0
146 146 0
140 140 0
134 134 0
138 138 0
208 208 0
243 243 0
104 104 0
160 160 0
78 78 0
77 77 0
129 129 0
149 149 0
140 140 0
249 249 0
41 41 0
162 162 0
253 253 0
187 187 0
144 144 0
94 94 0
102 102 0
239 239 0
228 228 0
170 170 0
229 229 0
236 236 0
216 216 0
97 97 0
118 118 0
203 203 0
95 95 0
191 191 0
122 122 0
85 85 0
116 116 0
29 29 0
90 90 0
106 106 0
4 4 0
43 43 0
66 66 0
219 219 0
150 150 0
73 73 0
254 254 0
65 65 0
131 131 0
188 188 0
176 176 0
110 110 0
198 198 0
124 124 0
182 182 0
125 125 0
248 248 0
182 182 0
23 23 0
33 33 0
246 246 0
58 58 0
6 6 0
64 64 0
122 122 0
243 243 0
101 101 0
184 184 0
213 213 0
22 22 0
156 156 0
254 254 0
140 140 0
136 136 0
88 88 0
241 241 0
247 247 0
26 26 0
141 141 0
107 107 0
171 171 0
30 30 0
67 67 0
71 71 0
122 122 0
202 202 0
219 219 0
200 200 0
172 172 0
22 22 0
99 99 0
170 170 0
75 75 0
129 129 0
231 231 0
29 29 0
218 218 0
27 27 0
98 98 0
231 231 0
51 51 0
132 132 0
106 106 0
226 226 0
253 253 0
73 73 0
125 125 0
228 228 0
139 139 0
54 54 0
193 193 0
86 86 0
124 124 0
2 2 0
252 252 0
167 167 0
236 236 0
247 247 0
68 68 0
138 138 0
112 112 0
194 194 0
215 215 0
58 58 0
70 70 0
180 180 0
105 105 0
33 33 0
49 49 0
143 143 0
152 152 0
245 245 0
136 136 0
155 155 0
38 38 0
105 105 0
71 71 0
177 177 0
68 68 0
54 54 0
93 93 0
120 120 0
86 86 0
154 154 0
46 46 0
224 224 0
177 177 0
136 136 0
14 14 0
83 83 0
176 176 0
164 164 0
207 207 0
227 227 0
80 80 0
126 126 0
84 84 0
32 32 0
35 35 0
65 65 0
22 22 0
137 137 0
179 179 0
143 143 0
174 174 0
57 57 0
50 50 0
144 144 0
225 225 0
107 107 0
1 1 0
5 5 0
77 77 0
157 157 0
21 21 0
57 57 0
173 173 0
251 251 0
87 87 0
153 153 0
132 132 0
5 5 0
84 84 0
35 35 0
64 64 0
196 196 0
173 173 0
10 10 0
19 19 0
185 185 0
26 26 0
80 80 0
68 68 0
12 12 0
7 7 0
35 35 0
101 101 0
238 238 0
162 162 0
61 61 0
173 173 0
69 69 0
131 131 0
82 82 0
242 242 0
89 89 0
205 205 0
163 163 0
215 215 0
154 154 0
222 222 0
103 103 0
173 173 0
158 158 0
134 134 0
144 144 0
136 136 0
100 100 0
229 229 0
161 161 0
140 140 0
13 13 0
129 129 0
44 44 0
54 54 0
110 110 0
139 139 0
63 63 0
69 69 0
135 135 0
120 120 0
102 102 0
26 26 0
95 95 0
167 167 0
138 138 0
139 139 0
215 215 0
184 184 0
174 174 0
7 7 0
78 78 0
174 174 0
39 39 0
233 233 0
36 36 0
224 224 0
55 55 0
214 214 0
216 216 0
85 85 0
226 226 0
40 40 0
216 216 0
97 97 0
112 112 0
30 30 0
153 153 0
68 68 0
170 170 0
204 204 0
154 154 0
2 2 0
243 243 0
234 234 0
164 164 0
96 96 0
143 143 0
225 225 0
117 117 0
198 198 0
152 152 0
107 107 0
238 238 0
104 104 0
154 154 0
13 13 0
120 120 0
9 9 0
179 179 0
0 0 0
10 10 0
28 28 0
35 35 0
129 129 0
90 90 0
69 69 0
251 251 0
232 232 0
167 167 0
204 204 0
209 209 0
62 62 0
206 206 0
61 61 0
143 143 0
91 91 0
40 40 0
198 198 0
233 233 0
80 80 0
224 224 0
88 88 0
167 167 0
254 254 0
197 197 0
14 14 0
111 111 0
96 96 0
75 75 0
208 208 0
112 112 0
178 178 0
162 162 0
132 132 0
14 14 0
171 171 0
227 227 0
43 43 0
164 164 0
124 124 0
87 87 0
181 181 0
248 248 0
5 5 0
229 229 0
97 97 0
212 212 0
44 44 0
182 182 0
25 25 0
85 85 0
247 247 0
167 167 0
200 200 0
117 117 0
120 120 0
125 125 0
197 197 0
184 184 0
49 49 0
112 112 0
138 138 0
145 145 0
236 236 0
214 214 0
38 38 0
96 96 0
27 27 0
6 6 0
19 19 0
46 46 0
195 195 0
170 170 0
203 203 0
73 73 0
39 39 0
248 248 0
210 210 0
241 241 0
4 4 0
101 101 0
161 161 0
187 187 0
233 233 0
137 137 0
99 99 0
1 1 0
205 205 0
250 250 0
231 231 0
169 169 0
87 87 0
61 61 0
197 197 0
238 238 0
245 245 0
44 44 0
149 149 0
131 131 0
109 109 0
202 202 0
238 238 0
185 185 0
178 178 0
176 176 0
166 166 0
137 137 0
63 63 0
199 199 0
30 30 0
164 164 0
98 98 0
142 142 0
163 163 0
122 122 0
249 249 0
61 61 0
3 3 0
243 243 0
79 79 0
70 70 0
106 106 0
151 151 0
251 251 0
180 180 0
81 81 0
136 136 0
114 114 0
128 128 0
106 106 0
42 42 0
100 100 0
99 99 0
51 51 0
208 208 0
91 91 0
38 38 0
144 144 0
215 215 0
199 199 0
158 158 0
186 186 0
85 85 0
36 36 0
65 65 0
89 89 0
71 71 0
119 119 0
38 38 0
33 33 0
64 64 0
50 50 0
204 204 0
137 137 0
50 50 0
109 109 0
222 222 0
147 147 0
141 141 0
99 99 0
49 49 0
159 159 0
19 19 0
200 200 0
14 14 0
190 190 0
97 97 0
174 174 0
150 150 0
32 32 0
137 137 0
18 18 0
61 61 0
97 97 0
72 72 0
168 168 0
251 251 0
91 91 0
214 214 0
57 57 0
181 181 0
88 88 0
136 136 0
22 22 0
211 211 0
53 53 0
118 118 0
74 74 0
206 206 0
151 151 0
157 157 0
192 192 0
65 65 0
14 14 0
211 211 0
80 80 0
207 207 0
244 244 0
160 160 0
26 26 0
218 218 0
161 161 0
62 62 0
53 53 0
129 129 0
31 31 0
231 231 0
180 180 0
209 209 0
97 97 0
235 235 0
34 34 0
182 182 0
65 65 0
0 0 0
30 30 0
51 51 0
194 194 0
96 96 0
123 123 0
156 156 0
68 68 0
163 163 0
171 171 0
235 235 0
128 128 0
218 218 0
247 247 0
196 196 0
107 107 0
69 69 0
24 24 0
212 212 0
33 33 0
142 142 0
115 115 0
11 11 0
54 54 0
210 210 0
137 137 0
236 236 0
231 231 0
24 24 0
173 173 0
10 10 0
107 107 0
112 112 0
244 244 0
151 151 0
48 48 0
130 130 0
133 133 0
50 50 0
91 91 0
224 224 0
250 250 0
198 198 0
16 16 0
231 231 0
117 117 0
212 212 0
45 45 0
37 37 0
231 231 0
72 72 0
10 10 0
127 127 0
252 252 0
213 213 0
101 101 0
253 253 0
203 203 0
214 214 0
164 164 0
100 100 0
231 231 0
120 120 0
238 238 0
140 140 0
232 232 0
121 121 0
108 108 0
150 150 0
81 81 0
38 38 0
150 150 0
217 217 0
70 70 0
220 220 0
200 200 0
198 198 0
105 105 0
254 254 0
201 201 0
146 146 0
28 28 0
146 146 0
3 3 0
230 230 0
85 85 0
94 94 0
140 140 0
162 162 0
148 148 0
123 123 0
161 161 0
216 216 0
113 113 0
127 127 0
206 206 0
0 0 0
41 41 0
82 82 0
54 54 0
228 228 0
37 37 0
27 27 0
80 80 0
129 129 0
209 209 0
254 254 0
217 217 0
155 155 0
9 9 0
16 16 0
161 161 0
209 209 0
67 67 0
247 247 0
140 140 0
146 146 0
157 157 0
19 19 0
43 43 0
239 239 0
68 68 0
21 21 0
72 72 0
185 185 0
67 67 0
53 53 0
70 70 0
122 122 0
188 188 0
76 76 0
223 223 0
249 249 0
209 209 0
19 19 0
80 80 0
236 236 0
219 219 0
34 34 0
112 112 0
92 92 0
190 190 0
7 7 0
80 80 0
191 191 0
226 226 0
10 10 0
150 150 0
169 169 0
222 222 0
108 108 0
248 248 0
50 50 0
29 29 0
33 33 0
149 149 0
31 31 0
68 68 0
50 50 0
14 14 0
245 245 0
85 85 0
246 246 0
184 184 0
56 56 0
238 238 0
2 2 0
250 250 0
8 8 0
64 64 0
140 140 0
2 2 0
195 195 0
21 21 0
208 208 0
8 8 0
134 134 0
53 53 0
73 73 0
125 125 0
94 94 0
100 100 0
166 166 0
49 49 0
46 46 0
174 174 0
75 75 0
238 238 0
108 108 0
121 121 0
5 5 0
5 5 0
26 26 0
159 159 0
169 169 0
243 243 0
110 110 0
180 180 0
87 87 0
18 18 0
107 107 0
179 179 0
205 205 0
243 243 0
212 212 0
143 143 0
140 140 0
127 127 0
121 121 0
173 173 0
146 146 0
218 218 0
114 114 0
120 120 0
212 212 0
172 172 0
133 133 0
143 143 0
205 205 0
155 155 0
66 66 0
79 79 0
154 154 0
11 11 0
116 116 0
227 227 0
59 59 0
113 113 0
178 178 0
236 236 0
177 177 0
159 159 0
98 98 0
111 111 0
163 163 0
90 90 0
200 200 0
2 2 0
191 191 0
189 189 0
78 78 0
3 3 0
86 86 0
150 150 0
200 200 0
222 222 0
53 53 0
20 20 0
30 30 0
252 252 0
164 164 0
32 32 0
176 176 0
244 244 0
155 155 0
59 59 0
245 245 0
178 178 0
46 46 0
195 195 0
128 128 0
146 146 0
93 93 0
74 74 0
107 107 0
134 134 0
117 117 0
221 221 0
18 18 0
50 50 0
239 239 0
155 155 0
157 157 0
160 160 0
62 62 0
100 100 0
53 53 0
38 38 0
252 252 0
189 189 0
224 224 0
0 0 0
179 179 0
78 78 0
127 127 0
172 172 0
7 7 0
94 94 0
141 141 0
223 223 0
131 131 0
81 81 0
154 154 0
149 149 0
74 74 0
139 139 0
70 70 0
2 2 0
79 79 0
22 22 0
125 125 0
127 127 0
222 222 0
190 190 0
191 191 0
252 252 0
67 67 0
95 95 0
58 58 0
26 26 0
131 131 0
130 130 0
33 33 0
235 235 0
249 249 0
17 17 0
0 0 0
15 15 0
186 186 0
217 217 0
16 16 0
2 2 0
137 137 0
84 84 0
4 4 0
2 2 0
53 53 0
51 51 0
75 75 0
140 140 0
64 64 0
59 59 0
53 53 0
226 226 0
60 60 0
141 141 0
115 115 0
84 84 0
103 103 0
4 4 0
47 47 0
163 163 0
194 194 0
55 55 0
45 45 0
231 231 0
24 24 0
202 202 0
224 224 0
37 37 0
212 212 0
38 38 0
11 11 0
73 73 0
87 87 0
150 150 0
112 112 0
202 202 0
169 169 0
30 30 0
51 51 0
190 190 0
29 29 0
243 243 0
207 207 0
56 56 0
73 73 0
64 64 0
107 107 0
63 63 0
8 8 0
64 64 0
49 49 0
89 89 0
115 115 0
223 223 0
168 168 0
157 157 0
220 220 0
98 98 0
108 108 0
62 62 0
211 211 0
224 224 0
232 232 0
154 154 0
29 29 0
18 18 0
203 203 0
226 226 0
135 135 0
235 235 0
237 237 0
192 192 0
94 94 0
116 116 0
89 89 0
101 101 0
120 120 0
4 4 0
32 32 0
42 42 0
144 144 0
222 222 0
181 181 0
38 38 0
116 116 0
160 160 0
34 34 0
20 20 0
156 156 0
60 60 0
164 164 0
43 43 0
218 218 0
79 79 0
109 109 0
140 140 0
226 226 0
233 233 0
215 215 0
174 174 0
17 17 0
47 47 0
136 136 0
251 251 0
185 185 0
48 48 0
90 90 0
245 245 0
129 129 0
222 222 0
219 219 0
199 199 0
160 160 0
169 169 0
87 87 0
30 30 0
242 242 0
8 8 0
69 69 0
156 156 0
246 246 0
53 53 0
63 63 0
216 216 0
83 83 0
102 102 0
91 91 0
12 12 0
240 240 0
178 178 0
1 1 0
24 24 0
34 34 0
94 94 0
227 227 0
35 35 0
58 58 0
79 79 0
130 130 0
230 230 0
137 137 0
230 230 0
138 138 0
110 110 0
222 222 0
148 148 0
121 121 0
130 130 0
90 90 0
110 110 0
18 18 0
52 52 0
194 194 0
34 34 0
53 53 0
41 41 0
92 92 0
12 12 0
91 91 0
155 155 0
173 173 0
221 221 0
22 22 0
164 164 0
50 50 0
87 87 0
146 146 0
213 213 0
171 171 0
251 251 0
4 4 0
80 80 0
122 122 0
9 9 0
13 13 0
93 93 0
142 142 0
34 34 0
17 17 0
81 81 0
189 189 0
144 144 0
254 254 0
154 154 0
227 227 0
146 146 0
122 122 0
106 106 0
18 18 0
16 16 0
168 168 0
219 219 0
4 4 0
46 46 0
83 83 0
79 79 0
212 212 0
64 64 0
78 78 0
124 124 0
242 242 0
75 75 0
161 161 0
12 12 0
110 110 0
236 236 0
55 55 0
91 91 0
167 167 0
144 144 0
147 147 0
155 155 0
172 172 0
82 82 0
89 89 0
101 101 0
133 133 0
144 144 0
223 223 0
101 101 0
114 114 0
212 212 0
247 247 0
62 62 0
186 186 0
63 63 0
189 189 0
9 9 0
129 129 0
145 145 0
178 178 0
234 234 0
202 202 0
143 143 0
126 126 0
3 3 0
141 141 0
143 143 0
189 189 0
42 42 0
150 150 0
13 13 0
185 185 0
209 209 0
111 111 0
175 175 0
169 169 0
77 77 0
22 22 0
193 193 0
91 91 0
41 41 0
112 112 0
212 212 0
243 243 0
144 144 0
247 247 0
44 44 0
125 125 0
2 2 0
59 59 0
223 223 0
15 15 0
167 167 0
130 130 0
252 252 0
253 253 0
31 31 0
66 66 0
253 253 0
84 84 0
46 46 0
232 232 0
157 157 0
78 78 0
141 141 0
109 109 0
116 116 0
140 140 0
43 43 0
157 157 0
243 243 0
151 151 0
201 201 0
72 72 0
39 39 0
1 1 0
250 250 0
30 30 0
97 97 0
167 167 0
187 187 0
157 157 0
112 112 0
208 208 0
112 112 0
213 213 0
13 13 0
184 184 0
24 24 0
98 98 0
113 113 0
46 46 0
114 114 0
217 217 0
9 9 0
49 49 0
249 249 0
114 114 0
99 99 0
233 233 0
198 198 0
44 44 0
152 152 0
46 46 0
198 198 0
142 142 0
203 203 0
16 16 0
236 236 0
58 58 0
216 216 0
112 112 0
226 226 0
25 25 0
13 13 0
119 119 0
237 237 0
118 118 0
129 129 0
41 41 0
138 138 0
109 109 0
226 226 0
189 189 0
121 121 0
38 38 0
37 37 0
247 247 0
156 156 0
57 57 0
207 207 0
55 55 0
115 115 0
223 223 0
26 26 0
26 26 0
13 13 0
38 38 0
95 95 0
82 82 0
71 71 0
3 3 0
124 124 0
113 113 0
189 189 0
77 77 0
148 148 0
79 79 0
192 192 0
44 44 0
124 124 0
113 113 0
117 117 0
137 137 0
136 136 0
80 80 0
210 210 0
242 242 0
142 142 0
162 162 0
184 184 0
81 81 0
151 151 0
118 118 0
123 123 0
100 100 0
136 136 0
55 55 0
61 61 0
51 51 0
151 151 0
62 62 0
199 199 0
231 231 0
193 193 0
83 83 0
240 240 0
87 87 0
92 92 0
151 151 0
168 168 0
104 104 0
200 200 0
217 217 0
73 73 0
57 57 0
101 101 0
178 178 0
171 171 0
44 44 0
99 99 0
230 230 0
245 245 0
154 154 0
199 199 0
214 214 0
56 56 0
16 16 0
156 156 0
98 98 0
181 181 0
74 74 0
110 110 0
206 206 0
23 23 0
104 104 0
39 39 0
136 136 0
187 187 0
252 252 0
192 192 0
36 36 0
111 111 0
138 138 0
162 162 0
178 178 0
248 248 0
240 240 0
53 53 0
40 40 0
247 247 0
40 40 0
247 247 0
30 30 0
149 149 0
33 33 0
34 34 0
85 85 0
202 202 0
179 179 0
81 81 0
35 35 0
91 91 0
44 44 0
60 60 0
126 126 0
124 124 0
235 235 0
22 22 0
136 136 0
144 144 0
36 36 0
92 92 0
35 35 0
228 228 0
88 88 0
16 16 0
121 121 0
135 135 0
226 226 0
183 183 0
52 52 0
231 231 0
1 1 0
178 178 0
10 10 0
209 209 0
48 48 0
203 203 0
207 207 0
196 196 0
28 28 0
102 102 0
26 26 0
183 183 0
253 253 0
133 133 0
166 166 0
170 170 0
36 36 0
94 94 0
89 89 0
191 191 0
105 105 0
93 93 0
140 140 0
52 52 0
16 16 0
60 60 0
5 5 0
170 170 0
116 116 0
157 157 0
144 144 0
13 13 0
208 208 0
209 209 0
1 1 0
109 109 0
200 200 0
106 106 0
219 219 0
177 177 0
168 168 0
231 231 0
198 198 0
149 149 0
12 12 0
116 116 0
175 175 0
133 133 0
149 149 0
89 89 0
214 214 0
62 62 0
163 163 0
111 111 0
37 37 0
4 4 0
33 33 0
73 73 0
120 120 0
6 6 0
17 17 0
203 203 0
250 250 0
110 110 0
119 119 0
153 153 0
24 24 0
137 137 0
172 172 0
241 241 0
164 164 0
139 139 0
104 104 0
232 232 0
133 133 0
121 121 0
187 187 0
111 111 0
17 17 0
151 151 0
221 221 0
94 94 0
24 24 0
26 26 0
231 231 0
28 28 0
167 167 0
22 22 0
130 130 0
232 232 0
59 59 0
78 78 0
156 156 0
146 146 0
143 143 0
100 100 0
10 10 0
151 151 0
70 70 0
158 158 0
111 111 0
68 68 0
254 254 0
82 82 0
247 247 0
121 121 0
136 136 0
68 68 0
44 44 0
180 180 0
116 116 0
149 149 0
46 46 0
130 130 0
168 168 0
193 193 0
170 170 0
105 105 0
174 174 0
152 152 0
121 121 0
160 160 0
78 78 0
16 16 0
37 37 0
248 248 0
227 227 0
211 211 0
66 66 0
214 214 0
201 201 0
138 138 0
77 77 0
27 27 0
254 254 0
255 255 0
217 217 0
113 113 0
186 186 0
232 232 0
138 138 0
31 31 0
249 249 0
137 137 0
196 196 0
158 158 0
16 16 0
117 117 0
3 3 0
67 67 0
245 245 0
176 176 0
144 144 0
28 28 0
174 174 0
154 154 0
162 162 0
175 175 0
236 236 0
114 114 0
155 155 0
135 135 0
150 150 0
173 173 0
47 47 0
14 14 0
29 29 0
10 10 0
141 141 0
77 77 0
200 200 0
41 41 0
38 38 0
221 221 0
22 22 0
90 90 0
176 176 0
143 143 0
68 68 0
34 34 0
147 147 0
63 63 0
218 218 0
67 67 0
238 238 0
5 5 0
155 155 0
72 72 0
121 121 0
111 111 0
206 206 0
47 47 0
196 196 0
8 8 0
162 162 0
210 210 0
109 109 0
216 216 0
90 90 0
90 90 0
232 232 0
252 252 0
201 201 0
58 58 0
240 240 0
93 93 0
221 221 0
82 82 0
55 55 0
65 65 0
176 176 0
250 250 0
133 133 0
27 27 0
174 174 0
229 229 0
199 199 0
0 0 0
79 79 0
198 198 0
179 179 0
254 254 0
229 229 0
203 203 0
176 176 0
97 97 0
8 8 0
196 196 0
116 116 0
220 220 0
33 33 0
218 218 0
164 164 0
226 226 0
179 179 0
111 111 0
131 131 0
25 25 0
61 61 0
146 146 0
45 45 0
91 91 0
164 164 0
151 151 0
228 228 0
110 110 0
141 141 0
107 107 0
192 192 0
159 159 0
241 241 0
36 36 0
32 32 0
74 74 0
157 157 0
163 163 0
51 51 0
69 69 0
152 152 0
67 67 0
211 211 0
27 27 0
199 199 0
39 39 0
182 182 0
199 199 0
240 240 0
230 230 0
6 6 0
168 168 0
232 232 0
196 196 0
115 115 0
191 191 0
72 72 0
205 205 0
103 103 0
247 247 0
7 7 0
148 148 0
33 33 0
195 195 0
247 247 0
125 125 0
214 214 0
59 59 0
7 7 0
205 205 0
104 104 0
21 21 0
171 171 0
230 230 0
21 21 0
155 155 0
88 88 0
10 10 0
18 18 0
11 11 0
78 78 0
78 78 0
137 137 0
158 158 0
217 217 0
218 218 0
43 43 0
160 160 0
223 223 0
63 63 0
153 153 0
252 252 0
161 161 0
179 179 0
79 79 0
253 253 0
212 212 0
82 82 0
77 77 0
1 1 0
122 122 0
222 222 0
200 200 0
37 37 0
61 61 0
41 41 0
66 66 0
51 51 0
42 42 0
141 141 0
233 233 0
218 218 0
158 158 0
80 80 0
231 231 0
53 53 0
9 9 0
55 55 0
201 201 0
178 178 0
79 79 0
56 56 0
162 162 0
130 130 0
202 202 0
113 113 0
21 21 0
