P3
50 50
255
210 243 0
210 243 0
209 243 0
209 243 0
209 243 0
208 244 0
208 244 0
207 244 0
206 245 0
206 245 0
205 245 0
204 246 0
203 246 0
203 247 0
202 247 0
201 248 0
201 248 0
200 249 0
200 249 0
199 249 0
199 250 0
199 250 0
199 250 0
199 250 0
200 250 0
201 250 0
202 250 0
203 250 0
204 250 0
206 250 0
208 249 0
210 249 0
212 248 0
215 248 0
217 247 0
220 246 0
223 246 0
227 245 0
230 244 0
233 243 0
236 242 0
239 241 0
242 241 0
245 240 0
248 239 0
250 239 0
252 238 0
253 238 0
254 237 0
255 237 0
210 243 0
210 243 0
209 243 0
209 243 0
209 243 0
208 244 0
208 244 0
207 244 0
206 245 0
206 245 0
205 245 0
204 246 0
203 246 0
203 247 0
202 247 0
201 248 0
201 248 0
200 249 0
200 249 0
199 249 0
199 250 0
199 250 0
199 250 0
200 250 0
200 250 0
201 250 0
202 250 0
203 250 0
204 250 0
206 250 0
208 249 0
210 249 0
212 248 0
215 248 0
217 247 0
220 246 0
223 246 0
227 245 0
230 244 0
233 243 0
236 242 0
239 241 0
242 241 0
245 240 0
248 239 0
250 239 0
252 238 0
253 238 0
254 237 0
254 237 0
210 243 0
209 243 0
209 243 0
209 243 0
209 243 0
208 244 0
208 244 0
207 244 0
206 245 0
206 245 0
205 245 0
204 246 0
203 246 0
203 247 0
202 247 0
201 248 0
201 248 0
200 248 0
200 249 0
199 249 0
199 250 0
199 250 0
199 250 0
200 250 0
200 250 0
201 250 0
202 250 0
203 250 0
204 250 0
206 250 0
208 249 0
210 249 0
212 248 0
215 248 0
218 247 0
220 246 0
223 246 0
227 245 0
230 244 0
233 243 0
236 242 0
239 241 0
242 241 0
245 240 0
248 239 0
250 238 0
252 238 0
253 238 0
254 237 0
254 237 0
209 243 0
209 243 0
209 243 0
209 243 0
209 243 0
208 244 0
208 244 0
207 244 0
206 245 0
206 245 0
205 245 0
204 246 0
203 246 0
203 247 0
202 247 0
201 248 0
201 248 0
200 248 0
200 249 0
199 249 0
199 249 0
199 250 0
199 250 0
200 250 0
200 250 0
201 250 0
202 250 0
203 250 0
204 250 0
206 250 0
208 249 0
210 249 0
212 248 0
215 248 0
218 247 0
221 246 0
224 245 0
227 245 0
230 244 0
233 243 0
236 242 0
239 241 0
242 240 0
245 240 0
248 239 0
250 238 0
251 238 0
253 238 0
254 237 0
254 237 0
209 243 0
209 243 0
209 243 0
209 243 0
208 243 0
208 244 0
207 244 0
207 244 0
206 245 0
206 245 0
205 245 0
204 246 0
203 246 0
203 247 0
202 247 0
201 248 0
201 248 0
200 248 0
200 249 0
200 249 0
199 249 0
199 250 0
200 250 0
200 250 0
200 250 0
201 250 0
202 250 0
203 250 0
205 250 0
206 249 0
208 249 0
210 249 0
213 248 0
215 247 0
218 247 0
221 246 0
224 245 0
227 245 0
230 244 0
233 243 0
236 242 0
239 241 0
242 240 0
245 240 0
247 239 0
250 238 0
251 238 0
253 238 0
254 237 0
254 237 0
209 243 0
209 243 0
209 243 0
209 243 0
208 243 0
208 244 0
207 244 0
207 244 0
206 245 0
206 245 0
205 245 0
204 246 0
203 246 0
203 247 0
202 247 0
201 247 0
201 248 0
200 248 0
200 249 0
200 249 0
200 249 0
200 249 0
200 250 0
200 250 0
201 250 0
201 250 0
202 250 0
203 250 0
205 249 0
207 249 0
208 249 0
210 248 0
213 248 0
215 247 0
218 247 0
221 246 0
224 245 0
227 244 0
230 244 0
233 243 0
236 242 0
239 241 0
242 240 0
245 240 0
247 239 0
249 238 0
251 238 0
253 237 0
254 237 0
254 237 0
209 243 0
209 243 0
209 243 0
209 243 0
208 243 0
208 244 0
207 244 0
207 244 0
206 245 0
205 245 0
205 245 0
204 246 0
203 246 0
203 247 0
202 247 0
201 247 0
201 248 0
200 248 0
200 248 0
200 249 0
200 249 0
200 249 0
200 250 0
200 250 0
201 250 0
202 250 0
203 250 0
204 249 0
205 249 0
207 249 0
209 249 0
211 248 0
213 248 0
215 247 0
218 246 0
221 246 0
224 245 0
227 244 0
230 243 0
233 243 0
236 242 0
239 241 0
242 240 0
245 239 0
247 239 0
249 238 0
251 238 0
252 237 0
253 237 0
254 237 0
209 243 0
209 243 0
209 243 0
208 243 0
208 244 0
208 244 0
207 244 0
207 244 0
206 245 0
205 245 0
205 245 0
204 246 0
203 246 0
203 246 0
202 247 0
202 247 0
201 248 0
201 248 0
200 248 0
200 249 0
200 249 0
200 249 0
200 249 0
201 249 0
201 249 0
202 249 0
203 249 0
204 249 0
205 249 0
207 249 0
209 248 0
211 248 0
213 247 0
216 247 0
218 246 0
221 246 0
224 245 0
227 244 0
230 243 0
233 242 0
236 242 0
239 241 0
242 240 0
244 239 0
247 239 0
249 238 0
251 238 0
252 237 0
253 237 0
253 237 0
209 243 0
209 243 0
209 243 0
208 243 0
208 244 0
208 244 0
207 244 0
207 244 0
206 245 0
205 245 0
205 245 0
204 246 0
203 246 0
203 246 0
202 247 0
202 247 0
201 248 0
201 248 0
200 248 0
200 249 0
200 249 0
200 249 0
200 249 0
201 249 0
201 249 0
202 249 0
203 249 0
204 249 0
206 249 0
207 249 0
209 248 0
211 248 0
213 247 0
216 247 0
218 246 0
221 245 0
224 245 0
227 244 0
230 243 0
233 242 0
236 241 0
239 241 0
242 240 0
244 239 0
246 239 0
248 238 0
250 238 0
251 237 0
252 237 0
253 237 0
209 243 0
208 243 0
208 243 0
208 244 0
208 244 0
207 244 0
207 244 0
206 244 0
206 245 0
205 245 0
205 245 0
204 246 0
203 246 0
203 246 0
202 247 0
202 247 0
201 247 0
201 248 0
201 248 0
200 248 0
200 249 0
200 249 0
201 249 0
201 249 0
202 249 0
202 249 0
203 249 0
205 249 0
206 249 0
207 248 0
209 248 0
211 247 0
213 247 0
216 246 0
218 246 0
221 245 0
224 244 0
227 244 0
230 243 0
233 242 0
236 241 0
239 241 0
241 240 0
244 239 0
246 239 0
248 238 0
250 238 0
251 237 0
252 237 0
252 237 0
208 243 0
208 243 0
208 243 0
208 244 0
208 244 0
207 244 0
207 244 0
206 244 0
206 245 0
205 245 0
205 245 0
204 246 0
203 246 0
203 246 0
202 247 0
202 247 0
201 247 0
201 248 0
201 248 0
201 248 0
201 248 0
201 249 0
201 249 0
201 249 0
202 249 0
203 249 0
204 249 0
205 249 0
206 248 0
208 248 0
209 248 0
211 247 0
214 247 0
216 246 0
218 246 0
221 245 0
224 244 0
227 243 0
230 243 0
232 242 0
235 241 0
238 241 0
241 240 0
243 239 0
245 239 0
247 238 0
249 238 0
250 237 0
251 237 0
251 237 0
208 243 0
208 244 0
208 244 0
208 244 0
207 244 0
207 244 0
206 244 0
206 244 0
206 245 0
205 245 0
204 245 0
204 246 0
203 246 0
203 246 0
202 247 0
202 247 0
201 247 0
201 248 0
201 248 0
201 248 0
201 248 0
201 248 0
201 248 0
202 249 0
202 249 0
203 249 0
204 248 0
205 248 0
206 248 0
208 248 0
210 247 0
212 247 0
214 246 0
216 246 0
218 245 0
221 245 0
224 244 0
226 243 0
229 243 0
232 242 0
235 241 0
238 240 0
240 240 0
242 239 0
245 239 0
246 238 0
248 238 0
249 237 0
250 237 0
250 237 0
208 244 0
208 244 0
207 244 0
207 244 0
207 244 0
207 244 0
206 244 0
206 245 0
205 245 0
205 245 0
204 245 0
204 246 0
203 246 0
203 246 0
202 247 0
202 247 0
201 247 0
201 247 0
201 248 0
201 248 0
201 248 0
201 248 0
201 248 0
202 248 0
202 248 0
203 248 0
204 248 0
205 248 0
207 248 0
208 247 0
210 247 0
212 247 0
214 246 0
216 246 0
218 245 0
221 244 0
223 244 0
226 243 0
229 242 0
232 242 0
234 241 0
237 240 0
239 240 0
242 239 0
244 239 0
246 238 0
247 238 0
248 238 0
249 237 0
249 237 0
207 244 0
207 244 0
207 244 0
207 244 0
207 244 0
206 244 0
206 244 0
206 245 0
205 245 0
205 245 0
204 245 0
204 246 0
203 246 0
203 246 0
202 247 0
202 247 0
202 247 0
201 247 0
201 248 0
201 248 0
201 248 0
201 248 0
202 248 0
202 248 0
203 248 0
203 248 0
204 248 0
205 248 0
207 247 0
208 247 0
210 247 0
212 246 0
214 246 0
216 245 0
218 245 0
221 244 0
223 244 0
226 243 0
228 242 0
231 242 0
234 241 0
236 240 0
238 240 0
241 239 0
243 239 0
244 238 0
246 238 0
247 238 0
248 238 0
248 237 0
207 244 0
207 244 0
207 244 0
207 244 0
206 244 0
206 244 0
206 245 0
205 245 0
205 245 0
204 245 0
204 245 0
204 246 0
203 246 0
203 246 0
202 246 0
202 247 0
202 247 0
201 247 0
201 247 0
201 248 0
201 248 0
201 248 0
202 248 0
202 248 0
203 248 0
204 248 0
204 248 0
206 247 0
207 247 0
208 247 0
210 247 0
212 246 0
214 246 0
216 245 0
218 245 0
220 244 0
223 244 0
225 243 0
228 242 0
230 242 0
233 241 0
235 241 0
237 240 0
239 239 0
241 239 0
243 239 0
244 238 0
245 238 0
246 238 0
247 238 0
207 244 0
206 244 0
206 244 0
206 244 0
206 244 0
206 245 0
205 245 0
205 245 0
205 245 0
204 245 0
204 246 0
203 246 0
203 246 0
203 246 0
202 246 0
202 247 0
202 247 0
201 247 0
201 247 0
201 247 0
201 248 0
202 248 0
202 248 0
202 248 0
203 248 0
204 248 0
205 247 0
206 247 0
207 247 0
208 247 0
210 246 0
212 246 0
213 246 0
215 245 0
218 245 0
220 244 0
222 244 0
225 243 0
227 242 0
229 242 0
232 241 0
234 241 0
236 240 0
238 240 0
240 239 0
241 239 0
243 238 0
244 238 0
244 238 0
245 238 0
206 244 0
206 244 0
206 244 0
206 245 0
206 245 0
205 245 0
205 245 0
205 245 0
204 245 0
204 245 0
204 246 0
203 246 0
203 246 0
202 246 0
202 246 0
202 247 0
202 247 0
201 247 0
201 247 0
201 247 0
201 247 0
202 247 0
202 248 0
202 248 0
203 247 0
204 247 0
205 247 0
206 247 0
207 247 0
208 247 0
210 246 0
211 246 0
213 246 0
215 245 0
217 245 0
219 244 0
221 244 0
224 243 0
226 242 0
228 242 0
231 241 0
233 241 0
235 240 0
237 240 0
238 239 0
240 239 0
241 239 0
242 239 0
243 238 0
243 238 0
206 245 0
206 245 0
206 245 0
205 245 0
205 245 0
205 245 0
205 245 0
204 245 0
204 245 0
204 246 0
203 246 0
203 246 0
203 246 0
202 246 0
202 246 0
202 247 0
202 247 0
201 247 0
201 247 0
201 247 0
201 247 0
202 247 0
202 247 0
202 247 0
203 247 0
204 247 0
205 247 0
206 247 0
207 247 0
208 246 0
210 246 0
211 246 0
213 245 0
215 245 0
217 245 0
219 244 0
221 244 0
223 243 0
225 243 0
227 242 0
229 242 0
231 241 0
233 241 0
235 240 0
237 240 0
238 239 0
239 239 0
240 239 0
241 239 0
241 239 0
205 245 0
205 245 0
205 245 0
205 245 0
205 245 0
205 245 0
204 245 0
204 245 0
204 245 0
203 246 0
203 246 0
203 246 0
202 246 0
202 246 0
202 246 0
202 247 0
201 247 0
201 247 0
201 247 0
201 247 0
201 247 0
202 247 0
202 247 0
202 247 0
203 247 0
204 247 0
205 247 0
206 247 0
207 247 0
208 246 0
209 246 0
211 246 0
212 245 0
214 245 0
216 245 0
218 244 0
220 244 0
222 243 0
224 243 0
226 242 0
228 242 0
230 241 0
231 241 0
233 241 0
235 240 0
236 240 0
237 240 0
238 239 0
238 239 0
239 239 0
205 245 0
205 245 0
205 245 0
205 245 0
204 245 0
204 245 0
204 245 0
204 245 0
203 246 0
203 246 0
203 246 0
203 246 0
202 246 0
202 246 0
202 246 0
202 247 0
201 247 0
201 247 0
201 247 0
201 247 0
201 247 0
202 247 0
202 247 0
202 247 0
203 247 0
204 247 0
204 247 0
205 247 0
206 246 0
208 246 0
209 246 0
210 246 0
212 245 0
213 245 0
215 245 0
217 244 0
219 244 0
221 243 0
222 243 0
224 243 0
226 242 0
228 242 0
230 241 0
231 241 0
232 241 0
234 240 0
235 240 0
235 240 0
236 240 0
236 240 0
204 245 0
204 245 0
204 245 0
204 245 0
204 245 0
204 245 0
204 245 0
203 246 0
203 246 0
203 246 0
203 246 0
202 246 0
202 246 0
202 246 0
202 246 0
201 247 0
201 247 0
201 247 0
201 247 0
201 247 0
201 247 0
202 247 0
202 247 0
202 247 0
203 247 0
204 247 0
204 247 0
205 247 0
206 246 0
207 246 0
208 246 0
210 246 0
211 245 0
213 245 0
214 245 0
216 244 0
218 244 0
219 244 0
221 243 0
223 243 0
224 243 0
226 242 0
228 242 0
229 242 0
230 241 0
231 241 0
232 241 0
233 241 0
233 241 0
234 241 0
204 245 0
204 245 0
204 245 0
204 245 0
204 245 0
203 246 0
203 246 0
203 246 0
203 246 0
203 246 0
202 246 0
202 246 0
202 246 0
202 246 0
201 247 0
201 247 0
201 247 0
201 247 0
201 247 0
201 247 0
201 247 0
202 247 0
202 247 0
202 247 0
203 247 0
203 247 0
204 247 0
205 247 0
206 246 0
207 246 0
208 246 0
209 246 0
210 245 0
212 245 0
213 245 0
215 245 0
216 244 0
218 244 0
220 244 0
221 243 0
223 243 0
224 243 0
226 242 0
227 242 0
228 242 0
229 242 0
230 241 0
230 241 0
231 241 0
231 241 0
204 246 0
204 246 0
204 246 0
203 246 0
203 246 0
203 246 0
203 246 0
203 246 0
203 246 0
202 246 0
202 246 0
202 246 0
202 246 0
202 246 0
201 247 0
201 247 0
201 247 0
201 247 0
201 247 0
201 247 0
201 247 0
201 247 0
202 247 0
202 247 0
203 247 0
203 247 0
204 247 0
205 247 0
205 246 0
206 246 0
207 246 0
208 246 0
210 246 0
211 245 0
212 245 0
214 245 0
215 245 0
216 244 0
218 244 0
219 244 0
221 243 0
222 243 0
223 243 0
224 243 0
226 243 0
226 242 0
227 242 0
228 242 0
228 242 0
228 242 0
203 246 0
203 246 0
203 246 0
203 246 0
203 246 0
203 246 0
203 246 0
203 246 0
202 246 0
202 246 0
202 246 0
202 246 0
202 246 0
201 246 0
201 247 0
201 247 0
201 247 0
201 247 0
201 247 0
201 247 0
201 247 0
201 247 0
202 247 0
202 247 0
202 247 0
203 247 0
203 247 0
204 247 0
205 246 0
206 246 0
207 246 0
208 246 0
209 246 0
210 246 0
211 245 0
212 245 0
214 245 0
215 245 0
216 244 0
218 244 0
219 244 0
220 244 0
221 244 0
222 243 0
223 243 0
224 243 0
225 243 0
225 243 0
225 243 0
226 243 0
203 246 0
203 246 0
203 246 0
203 246 0
203 246 0
203 246 0
202 246 0
202 246 0
202 246 0
202 246 0
202 246 0
202 246 0
201 246 0
201 247 0
201 247 0
201 247 0
201 247 0
201 247 0
201 247 0
201 247 0
201 247 0
201 247 0
201 247 0
202 247 0
202 247 0
203 247 0
203 247 0
204 247 0
204 247 0
205 246 0
206 246 0
207 246 0
208 246 0
209 246 0
210 246 0
211 245 0
212 245 0
213 245 0
215 245 0
216 245 0
217 245 0
218 244 0
219 244 0
220 244 0
221 244 0
221 244 0
222 244 0
222 244 0
223 244 0
223 244 0
203 246 0
203 246 0
203 246 0
203 246 0
202 246 0
202 246 0
202 246 0
202 246 0
202 246 0
202 246 0
202 246 0
201 246 0
201 246 0
201 247 0
201 247 0
201 247 0
201 247 0
201 247 0
201 247 0
201 247 0
201 247 0
201 247 0
201 247 0
202 247 0
202 247 0
202 247 0
203 247 0
203 247 0
204 247 0
205 247 0
205 246 0
206 246 0
207 246 0
208 246 0
209 246 0
210 246 0
211 246 0
212 246 0
213 245 0
214 245 0
215 245 0
216 245 0
217 245 0
217 245 0
218 245 0
219 245 0
219 245 0
220 244 0
220 244 0
220 244 0
202 246 0
202 246 0
202 246 0
202 246 0
202 246 0
202 246 0
202 246 0
202 246 0
202 246 0
202 246 0
201 246 0
201 246 0
201 246 0
201 247 0
201 247 0
201 247 0
201 247 0
201 247 0
201 247 0
201 247 0
201 247 0
201 247 0
201 247 0
201 247 0
202 247 0
202 247 0
202 247 0
203 247 0
203 247 0
204 247 0
205 247 0
205 247 0
206 246 0
207 246 0
208 246 0
208 246 0
209 246 0
210 246 0
211 246 0
212 246 0
213 246 0
213 246 0
214 246 0
215 246 0
216 245 0
216 245 0
216 245 0
217 245 0
217 245 0
217 245 0
202 246 0
202 246 0
202 246 0
202 246 0
202 246 0
202 246 0
202 246 0
202 246 0
202 246 0
201 246 0
201 246 0
201 246 0
201 246 0
201 247 0
201 247 0
201 247 0
201 247 0
201 247 0
201 247 0
201 247 0
201 247 0
201 247 0
201 247 0
201 247 0
201 247 0
202 247 0
202 247 0
202 247 0
203 247 0
203 247 0
204 247 0
204 247 0
205 247 0
206 247 0
206 247 0
207 247 0
208 247 0
208 247 0
209 246 0
210 246 0
211 246 0
211 246 0
212 246 0
213 246 0
213 246 0
214 246 0
214 246 0
214 246 0
214 246 0
214 246 0
202 246 0
202 246 0
202 246 0
202 246 0
202 246 0
202 246 0
202 246 0
202 246 0
202 246 0
201 246 0
201 246 0
201 246 0
201 246 0
201 247 0
201 247 0
201 247 0
201 247 0
201 247 0
201 247 0
201 247 0
201 247 0
201 247 0
201 247 0
201 247 0
201 247 0
201 247 0
202 247 0
202 247 0
202 247 0
203 247 0
203 247 0
203 247 0
204 247 0
204 247 0
205 247 0
206 247 0
206 247 0
207 247 0
207 247 0
208 247 0
209 247 0
209 247 0
210 247 0
210 247 0
211 247 0
211 247 0
211 247 0
212 247 0
212 247 0
212 247 0
202 246 0
202 246 0
202 246 0
202 246 0
202 246 0
202 246 0
202 246 0
202 246 0
202 246 0
201 246 0
201 246 0
201 246 0
201 246 0
201 246 0
201 247 0
201 247 0
201 247 0
201 247 0
201 247 0
200 247 0
200 247 0
200 247 0
201 247 0
201 247 0
201 247 0
201 247 0
201 247 0
201 247 0
202 247 0
202 247 0
202 247 0
203 247 0
203 247 0
203 247 0
204 247 0
204 247 0
205 247 0
205 248 0
206 248 0
206 248 0
207 248 0
207 248 0
208 248 0
208 248 0
208 248 0
209 248 0
209 248 0
209 248 0
209 248 0
209 248 0
202 246 0
202 246 0
202 246 0
202 246 0
202 246 0
202 246 0
202 246 0
202 246 0
202 246 0
201 246 0
201 246 0
201 246 0
201 246 0
201 246 0
201 246 0
201 246 0
201 247 0
201 247 0
200 247 0
200 247 0
200 247 0
200 247 0
200 247 0
200 247 0
200 247 0
201 247 0
201 247 0
201 247 0
201 247 0
201 247 0
201 247 0
202 247 0
202 248 0
202 248 0
203 248 0
203 248 0
203 248 0
204 248 0
204 248 0
204 248 0
205 248 0
205 248 0
205 248 0
206 248 0
206 248 0
206 248 0
206 248 0
207 248 0
207 249 0
207 249 0
202 246 0
202 246 0
202 246 0
202 246 0
202 246 0
202 246 0
202 246 0
202 246 0
202 246 0
202 246 0
201 246 0
201 246 0
201 246 0
201 246 0
201 246 0
201 246 0
201 246 0
201 247 0
200 247 0
200 247 0
200 247 0
200 247 0
200 247 0
200 247 0
200 247 0
200 247 0
200 247 0
200 247 0
200 247 0
201 247 0
201 248 0
201 248 0
201 248 0
201 248 0
201 248 0
202 248 0
202 248 0
202 248 0
202 249 0
203 249 0
203 249 0
203 249 0
204 249 0
204 249 0
204 249 0
204 249 0
204 249 0
204 249 0
204 249 0
204 249 0
202 246 0
202 246 0
202 246 0
202 246 0
202 246 0
202 246 0
202 246 0
202 246 0
202 246 0
202 246 0
202 246 0
201 246 0
201 246 0
201 246 0
201 246 0
201 246 0
201 246 0
201 246 0
201 246 0
200 247 0
200 247 0
200 247 0
200 247 0
200 247 0
200 247 0
200 247 0
200 247 0
200 247 0
200 248 0
200 248 0
200 248 0
200 248 0
200 248 0
200 248 0
200 248 0
200 249 0
201 249 0
201 249 0
201 249 0
201 249 0
201 249 0
201 249 0
202 250 0
202 250 0
202 250 0
202 250 0
202 250 0
202 250 0
202 250 0
202 250 0
202 246 0
202 246 0
202 246 0
202 246 0
202 246 0
202 246 0
202 246 0
202 246 0
202 246 0
202 246 0
202 246 0
202 246 0
201 246 0
201 246 0
201 246 0
201 246 0
201 246 0
201 246 0
201 246 0
200 246 0
200 247 0
200 247 0
200 247 0
200 247 0
200 247 0
200 247 0
200 247 0
200 247 0
199 248 0
199 248 0
199 248 0
199 248 0
199 248 0
199 249 0
199 249 0
199 249 0
199 249 0
199 249 0
200 249 0
200 250 0
200 250 0
200 250 0
200 250 0
200 250 0
200 250 0
200 250 0
200 250 0
200 251 0
200 251 0
200 251 0
203 246 0
203 246 0
203 246 0
202 246 0
202 246 0
202 246 0
202 246 0
202 246 0
202 246 0
202 246 0
202 246 0
202 246 0
202 246 0
201 246 0
201 246 0
201 246 0
201 246 0
201 246 0
201 246 0
201 246 0
200 246 0
200 247 0
200 247 0
200 247 0
200 247 0
199 247 0
199 247 0
199 248 0
199 248 0
199 248 0
199 248 0
199 248 0
199 249 0
198 249 0
198 249 0
198 249 0
198 249 0
198 250 0
198 250 0
198 250 0
198 250 0
198 250 0
198 251 0
198 251 0
198 251 0
198 251 0
198 251 0
198 251 0
198 251 0
198 251 0
203 246 0
203 246 0
203 246 0
203 246 0
203 246 0
203 246 0
203 246 0
202 246 0
202 246 0
202 246 0
202 246 0
202 246 0
202 246 0
202 246 0
202 246 0
201 246 0
201 246 0
201 246 0
201 246 0
201 246 0
200 246 0
200 247 0
200 247 0
200 247 0
199 247 0
199 247 0
199 247 0
199 248 0
199 248 0
198 248 0
198 248 0
198 249 0
198 249 0
198 249 0
197 249 0
197 250 0
197 250 0
197 250 0
197 250 0
197 251 0
197 251 0
197 251 0
197 251 0
197 251 0
197 251 0
197 251 0
197 252 0
197 252 0
197 252 0
197 252 0
203 246 0
203 246 0
203 246 0
203 246 0
203 246 0
203 246 0
203 246 0
203 246 0
203 246 0
203 246 0
202 246 0
202 246 0
202 246 0
202 246 0
202 246 0
202 246 0
201 246 0
201 246 0
201 246 0
201 246 0
200 246 0
200 246 0
200 247 0
200 247 0
199 247 0
199 247 0
199 247 0
199 248 0
198 248 0
198 248 0
198 248 0
197 249 0
197 249 0
197 249 0
197 250 0
196 250 0
196 250 0
196 250 0
196 251 0
196 251 0
196 251 0
195 251 0
195 252 0
195 252 0
195 252 0
195 252 0
195 252 0
195 252 0
195 252 0
195 252 0
203 245 0
203 245 0
203 245 0
203 245 0
203 245 0
203 245 0
203 245 0
203 245 0
203 245 0
203 245 0
203 245 0
203 245 0
202 245 0
202 245 0
202 246 0
202 246 0
202 246 0
201 246 0
201 246 0
201 246 0
201 246 0
200 246 0
200 247 0
200 247 0
199 247 0
199 247 0
199 247 0
198 248 0
198 248 0
198 248 0
197 249 0
197 249 0
197 249 0
196 249 0
196 250 0
196 250 0
195 250 0
195 251 0
195 251 0
195 251 0
194 251 0
194 252 0
194 252 0
194 252 0
194 252 0
194 252 0
194 252 0
194 253 0
194 253 0
194 253 0
204 245 0
204 245 0
204 245 0
204 245 0
204 245 0
203 245 0
203 245 0
203 245 0
203 245 0
203 245 0
203 245 0
203 245 0
203 245 0
203 245 0
202 245 0
202 245 0
202 246 0
202 246 0
201 246 0
201 246 0
201 246 0
200 246 0
200 246 0
200 247 0
199 247 0
199 247 0
198 247 0
198 248 0
198 248 0
197 248 0
197 249 0
196 249 0
196 249 0
196 250 0
195 250 0
195 250 0
195 251 0
194 251 0
194 251 0
194 251 0
193 252 0
193 252 0
193 252 0
193 252 0
193 253 0
193 253 0
192 253 0
192 253 0
192 253 0
192 253 0
204 245 0
204 245 0
204 245 0
204 245 0
204 245 0
204 245 0
204 245 0
204 245 0
204 245 0
203 245 0
203 245 0
203 245 0
203 245 0
203 245 0
203 245 0
202 245 0
202 245 0
202 245 0
202 246 0
201 246 0
201 246 0
200 246 0
200 246 0
200 247 0
199 247 0
199 247 0
198 247 0
198 248 0
197 248 0
197 248 0
196 249 0
196 249 0
196 249 0
195 250 0
195 250 0
194 250 0
194 251 0
193 251 0
193 251 0
193 252 0
193 252 0
192 252 0
192 252 0
192 253 0
192 253 0
191 253 0
191 253 0
191 253 0
191 253 0
191 253 0
204 245 0
204 245 0
204 245 0
204 245 0
204 245 0
204 245 0
204 245 0
204 245 0
204 245 0
204 245 0
204 245 0
203 245 0
203 245 0
203 245 0
203 245 0
203 245 0
202 245 0
202 245 0
202 245 0
201 246 0
201 246 0
201 246 0
200 246 0
200 246 0
199 247 0
199 247 0
198 247 0
198 248 0
197 248 0
197 248 0
196 249 0
196 249 0
195 249 0
195 250 0
194 250 0
194 251 0
193 251 0
193 251 0
192 252 0
192 252 0
192 252 0
191 252 0
191 253 0
191 253 0
191 253 0
191 253 0
190 253 0
190 253 0
190 254 0
190 254 0
205 245 0
205 245 0
205 245 0
205 245 0
204 245 0
204 245 0
204 245 0
204 245 0
204 245 0
204 245 0
204 245 0
204 245 0
204 245 0
203 245 0
203 245 0
203 245 0
203 245 0
202 245 0
202 245 0
202 245 0
201 246 0
201 246 0
200 246 0
200 246 0
199 247 0
199 247 0
198 247 0
198 248 0
197 248 0
196 248 0
196 249 0
195 249 0
195 250 0
194 250 0
194 250 0
193 251 0
193 251 0
192 251 0
192 252 0
191 252 0
191 252 0
191 253 0
190 253 0
190 253 0
190 253 0
190 253 0
190 254 0
189 254 0
189 254 0
189 254 0
205 244 0
205 244 0
205 244 0
205 244 0
205 244 0
205 244 0
205 244 0
205 244 0
205 244 0
204 244 0
204 244 0
204 244 0
204 245 0
204 245 0
203 245 0
203 245 0
203 245 0
203 245 0
202 245 0
202 245 0
201 246 0
201 246 0
200 246 0
200 246 0
199 247 0
199 247 0
198 247 0
198 248 0
197 248 0
196 248 0
196 249 0
195 249 0
194 250 0
194 250 0
193 250 0
193 251 0
192 251 0
192 252 0
191 252 0
191 252 0
190 253 0
190 253 0
190 253 0
189 253 0
189 253 0
189 254 0
189 254 0
189 254 0
189 254 0
189 254 0
205 244 0
205 244 0
205 244 0
205 244 0
205 244 0
205 244 0
205 244 0
205 244 0
205 244 0
205 244 0
205 244 0
204 244 0
204 244 0
204 244 0
204 244 0
203 245 0
203 245 0
203 245 0
202 245 0
202 245 0
201 245 0
201 246 0
200 246 0
200 246 0
199 247 0
199 247 0
198 247 0
197 248 0
197 248 0
196 248 0
196 249 0
195 249 0
194 250 0
194 250 0
193 250 0
192 251 0
192 251 0
191 252 0
191 252 0
190 252 0
190 253 0
190 253 0
189 253 0
189 253 0
189 254 0
188 254 0
188 254 0
188 254 0
188 254 0
188 254 0
205 244 0
205 244 0
205 244 0
205 244 0
205 244 0
205 244 0
205 244 0
205 244 0
205 244 0
205 244 0
205 244 0
205 244 0
204 244 0
204 244 0
204 244 0
204 244 0
203 245 0
203 245 0
203 245 0
202 245 0
202 245 0
201 246 0
201 246 0
200 246 0
199 246 0
199 247 0
198 247 0
197 248 0
197 248 0
196 248 0
195 249 0
195 249 0
194 250 0
193 250 0
193 251 0
192 251 0
192 251 0
191 252 0
190 252 0
190 252 0
189 253 0
189 253 0
189 253 0
188 254 0
188 254 0
188 254 0
188 254 0
188 254 0
187 254 0
187 254 0
206 244 0
206 244 0
206 244 0
206 244 0
206 244 0
206 244 0
205 244 0
205 244 0
205 244 0
205 244 0
205 244 0
205 244 0
205 244 0
204 244 0
204 244 0
204 244 0
204 244 0
203 245 0
203 245 0
202 245 0
202 245 0
201 245 0
201 246 0
200 246 0
199 246 0
199 247 0
198 247 0
197 248 0
197 248 0
196 248 0
195 249 0
195 249 0
194 250 0
193 250 0
193 251 0
192 251 0
191 251 0
191 252 0
190 252 0
190 253 0
189 253 0
189 253 0
188 253 0
188 254 0
188 254 0
187 254 0
187 254 0
187 254 0
187 254 0
187 254 0
206 244 0
206 244 0
206 244 0
206 244 0
206 244 0
206 244 0
206 244 0
206 244 0
205 244 0
205 244 0
205 244 0
205 244 0
205 244 0
205 244 0
204 244 0
204 244 0
204 244 0
203 244 0
203 245 0
202 245 0
202 245 0
201 245 0
201 246 0
200 246 0
199 246 0
199 247 0
198 247 0
197 248 0
197 248 0
196 248 0
195 249 0
194 249 0
194 250 0
193 250 0
192 251 0
192 251 0
191 251 0
190 252 0
190 252 0
189 253 0
189 253 0
188 253 0
188 253 0
188 254 0
187 254 0
187 254 0
187 254 0
187 254 0
187 254 0
187 254 0
206 244 0
206 244 0
206 244 0
206 244 0
206 244 0
206 244 0
206 244 0
206 244 0
206 244 0
206 244 0
205 244 0
205 244 0
205 244 0
205 244 0
204 244 0
204 244 0
204 244 0
203 244 0
203 245 0
202 245 0
202 245 0
201 245 0
201 246 0
200 246 0
200 246 0
199 247 0
198 247 0
197 247 0
197 248 0
196 248 0
195 249 0
194 249 0
194 250 0
193 250 0
192 251 0
192 251 0
191 251 0
190 252 0
190 252 0
189 253 0
189 253 0
188 253 0
188 253 0
187 254 0
187 254 0
187 254 0
187 254 0
187 254 0
186 254 0
186 254 0
206 244 0
206 244 0
206 244 0
206 244 0
206 244 0
206 244 0
206 244 0
206 244 0
206 244 0
206 244 0
205 244 0
205 244 0
205 244 0
205 244 0
205 244 0
204 244 0
204 244 0
203 244 0
203 245 0
203 245 0
202 245 0
201 245 0
201 246 0
200 246 0
200 246 0
199 247 0
198 247 0
197 247 0
197 248 0
196 248 0
195 249 0
194 249 0
194 250 0
193 250 0
192 251 0
191 251 0
191 251 0
190 252 0
190 252 0
189 253 0
189 253 0
188 253 0
188 254 0
187 254 0
187 254 0
187 254 0
187 254 0
186 254 0
186 254 0
186 254 0
206 244 0
206 244 0
206 244 0
206 244 0
206 244 0
206 244 0
206 244 0
206 244 0
206 244 0
206 244 0
206 244 0
205 244 0
205 244 0
205 244 0
205 244 0
204 244 0
204 244 0
204 244 0
203 245 0
203 245 0
202 245 0
201 245 0
201 246 0
200 246 0
200 246 0
199 247 0
198 247 0
197 247 0
197 248 0
196 248 0
195 249 0
194 249 0
194 250 0
193 250 0
192 251 0
191 251 0
191 251 0
190 252 0
190 252 0
189 253 0
189 253 0
188 253 0
188 254 0
187 254 0
187 254 0
187 254 0
186 254 0
186 254 0
186 254 0
186 255 0
