P3
50 50
255
253 198 0
253 198 0
253 198 0
253 198 0
252 198 0
252 198 0
252 197 0
252 197 0
252 197 0
252 197 0
252 197 0
252 197 0
252 196 0
253 195 0
253 195 0
253 193 0
254 192 0
254 190 0
254 188 0
254 185 0
254 183 0
254 181 0
255 178 0
254 176 0
254 174 0
254 173 0
254 172 0
254 172 0
254 172 0
254 173 0
254 174 0
254 177 0
254 179 0
254 183 0
253 186 0
253 190 0
253 195 0
252 199 0
251 203 0
251 208 0
250 212 0
249 216 0
248 219 0
247 222 0
247 225 0
246 227 0
245 228 0
245 230 0
245 230 0
244 231 0
253 198 0
253 198 0
253 198 0
253 198 0
252 198 0
252 198 0
252 198 0
252 198 0
252 198 0
252 197 0
252 197 0
252 197 0
252 196 0
253 196 0
253 195 0
253 193 0
254 192 0
254 190 0
254 188 0
254 186 0
254 183 0
254 181 0
254 178 0
254 176 0
254 175 0
254 173 0
254 172 0
254 172 0
254 172 0
254 173 0
254 175 0
254 177 0
254 180 0
254 183 0
253 186 0
253 191 0
252 195 0
252 199 0
251 204 0
251 208 0
250 212 0
249 216 0
248 219 0
247 223 0
246 225 0
246 227 0
245 229 0
245 230 0
244 231 0
244 231 0
253 199 0
253 199 0
253 199 0
252 199 0
252 199 0
252 198 0
252 198 0
252 198 0
252 198 0
252 198 0
252 198 0
252 197 0
252 197 0
253 196 0
253 195 0
253 194 0
253 192 0
254 190 0
254 188 0
254 186 0
254 184 0
254 181 0
254 179 0
254 177 0
254 175 0
254 173 0
254 173 0
254 172 0
254 173 0
254 173 0
254 175 0
254 177 0
254 180 0
253 183 0
253 187 0
253 191 0
252 195 0
252 200 0
251 204 0
250 209 0
250 213 0
249 217 0
248 220 0
247 223 0
246 226 0
246 228 0
245 230 0
244 231 0
244 232 0
244 232 0
252 200 0
252 200 0
252 200 0
252 199 0
252 199 0
252 199 0
252 199 0
252 199 0
252 199 0
252 199 0
252 198 0
252 198 0
252 197 0
253 197 0
253 196 0
253 194 0
253 193 0
254 191 0
254 189 0
254 187 0
254 184 0
254 182 0
254 179 0
254 177 0
254 175 0
254 174 0
254 173 0
254 173 0
254 173 0
254 174 0
254 175 0
254 178 0
254 180 0
253 184 0
253 187 0
253 191 0
252 196 0
252 200 0
251 205 0
250 209 0
249 213 0
249 217 0
248 221 0
247 224 0
246 227 0
245 229 0
245 231 0
244 232 0
244 233 0
244 234 0
252 201 0
252 201 0
252 201 0
252 201 0
252 200 0
252 200 0
252 200 0
252 200 0
252 200 0
252 200 0
252 199 0
252 199 0
252 198 0
252 197 0
253 196 0
253 195 0
253 193 0
254 192 0
254 190 0
254 187 0
254 185 0
254 182 0
254 180 0
254 178 0
254 176 0
254 175 0
254 174 0
254 173 0
254 174 0
254 175 0
254 176 0
254 178 0
254 181 0
253 184 0
253 188 0
253 192 0
252 196 0
252 201 0
251 206 0
250 210 0
249 214 0
248 219 0
247 222 0
246 226 0
245 228 0
245 231 0
244 233 0
244 234 0
243 235 0
243 235 0
252 202 0
252 202 0
252 202 0
252 202 0
252 202 0
252 202 0
252 201 0
252 201 0
252 201 0
252 201 0
252 200 0
252 200 0
252 199 0
252 198 0
253 197 0
253 196 0
253 194 0
254 192 0
254 190 0
254 188 0
254 186 0
254 183 0
254 181 0
254 179 0
254 177 0
254 176 0
254 175 0
254 174 0
254 174 0
254 175 0
254 177 0
254 179 0
253 182 0
253 185 0
253 189 0
253 193 0
252 197 0
251 202 0
251 206 0
250 211 0
249 216 0
248 220 0
247 224 0
246 227 0
245 230 0
244 233 0
243 235 0
243 236 0
242 237 0
242 238 0
252 203 0
252 203 0
252 203 0
252 203 0
252 203 0
252 203 0
252 203 0
252 202 0
252 202 0
252 202 0
252 201 0
252 201 0
252 200 0
252 199 0
253 198 0
253 197 0
253 195 0
253 193 0
254 191 0
254 189 0
254 186 0
254 184 0
254 182 0
254 180 0
254 178 0
254 176 0
254 176 0
254 175 0
254 175 0
254 176 0
254 178 0
254 180 0
253 182 0
253 186 0
253 189 0
252 194 0
252 198 0
251 203 0
250 208 0
250 212 0
249 217 0
247 221 0
246 225 0
245 229 0
244 232 0
243 235 0
243 237 0
242 238 0
242 239 0
242 240 0
252 205 0
252 205 0
252 205 0
252 204 0
252 204 0
251 204 0
251 204 0
251 203 0
251 203 0
252 203 0
252 202 0
252 202 0
252 201 0
252 200 0
253 199 0
253 198 0
253 196 0
253 194 0
254 192 0
254 190 0
254 187 0
254 185 0
254 183 0
254 181 0
254 179 0
254 177 0
254 177 0
254 176 0
254 176 0
254 177 0
254 179 0
253 181 0
253 183 0
253 187 0
253 190 0
252 194 0
252 199 0
251 204 0
250 209 0
249 214 0
248 218 0
247 223 0
246 227 0
245 231 0
244 234 0
243 237 0
242 239 0
241 241 0
241 242 0
241 243 0
251 206 0
251 206 0
251 206 0
251 206 0
251 205 0
251 205 0
251 205 0
251 205 0
251 204 0
251 204 0
252 203 0
252 203 0
252 202 0
252 201 0
252 200 0
253 198 0
253 197 0
253 195 0
254 193 0
254 191 0
254 188 0
254 186 0
254 184 0
254 182 0
254 180 0
254 179 0
254 178 0
254 177 0
254 177 0
254 178 0
253 180 0
253 182 0
253 184 0
253 188 0
253 191 0
252 195 0
252 200 0
251 205 0
250 210 0
249 215 0
248 220 0
247 224 0
245 229 0
244 233 0
243 236 0
242 239 0
241 242 0
240 243 0
240 245 0
240 245 0
251 207 0
251 207 0
251 207 0
251 207 0
251 206 0
251 206 0
251 206 0
251 205 0
251 205 0
251 205 0
251 204 0
252 203 0
252 202 0
252 201 0
252 200 0
253 199 0
253 197 0
253 195 0
253 193 0
254 191 0
254 189 0
254 187 0
254 185 0
254 183 0
254 181 0
254 180 0
254 179 0
254 179 0
254 179 0
253 180 0
253 181 0
253 183 0
253 185 0
253 189 0
252 192 0
252 196 0
251 201 0
251 206 0
250 211 0
249 216 0
247 221 0
246 226 0
245 230 0
244 235 0
242 238 0
241 241 0
240 244 0
240 246 0
239 247 0
239 248 0
251 208 0
251 208 0
251 208 0
251 207 0
251 207 0
251 207 0
251 207 0
251 206 0
251 206 0
251 205 0
251 205 0
252 204 0
252 203 0
252 202 0
252 201 0
253 199 0
253 198 0
253 196 0
253 194 0
254 192 0
254 190 0
254 188 0
254 186 0
254 184 0
254 182 0
254 181 0
254 180 0
254 180 0
253 180 0
253 181 0
253 182 0
253 184 0
253 187 0
253 190 0
252 193 0
252 198 0
251 202 0
250 207 0
249 212 0
248 217 0
247 222 0
246 227 0
244 232 0
243 236 0
242 240 0
241 243 0
240 246 0
239 248 0
238 249 0
238 250 0
251 208 0
251 208 0
251 208 0
251 208 0
251 208 0
251 207 0
251 207 0
251 206 0
251 206 0
251 205 0
251 205 0
252 204 0
252 203 0
252 202 0
252 201 0
253 200 0
253 198 0
253 196 0
253 195 0
253 193 0
254 191 0
254 189 0
254 187 0
254 185 0
254 184 0
254 183 0
254 182 0
254 181 0
253 182 0
253 182 0
253 184 0
253 185 0
253 188 0
252 191 0
252 195 0
252 199 0
251 203 0
250 208 0
249 213 0
248 218 0
247 223 0
245 229 0
244 233 0
243 238 0
241 242 0
240 245 0
239 248 0
238 250 0
238 251 0
237 252 0
251 208 0
251 208 0
251 208 0
251 208 0
251 208 0
251 207 0
251 207 0
251 206 0
251 206 0
251 205 0
251 205 0
252 204 0
252 203 0
252 202 0
252 201 0
253 200 0
253 198 0
253 197 0
253 195 0
253 193 0
254 191 0
254 189 0
254 188 0
254 186 0
254 185 0
254 184 0
254 183 0
253 183 0
253 183 0
253 184 0
253 185 0
253 187 0
253 189 0
252 192 0
252 196 0
251 200 0
251 204 0
250 209 0
249 214 0
248 219 0
247 224 0
245 229 0
244 234 0
242 239 0
241 243 0
240 246 0
239 249 0
238 251 0
237 253 0
237 254 0
251 208 0
251 208 0
251 208 0
251 208 0
251 207 0
251 207 0
251 207 0
251 206 0
251 206 0
251 205 0
251 204 0
252 204 0
252 203 0
252 202 0
252 201 0
253 199 0
253 198 0
253 196 0
253 195 0
253 193 0
253 192 0
254 190 0
254 189 0
254 187 0
254 186 0
254 185 0
253 185 0
253 185 0
253 185 0
253 186 0
253 187 0
253 189 0
252 191 0
252 194 0
252 197 0
251 201 0
251 205 0
250 210 0
249 215 0
248 220 0
246 225 0
245 230 0
244 235 0
242 240 0
241 244 0
240 247 0
239 250 0
238 252 0
237 254 0
237 254 0
251 207 0
251 207 0
251 207 0
251 207 0
251 206 0
251 206 0
251 206 0
251 205 0
251 205 0
251 204 0
252 204 0
252 203 0
252 202 0
252 201 0
252 200 0
253 199 0
253 198 0
253 196 0
253 195 0
253 193 0
253 192 0
253 191 0
254 190 0
254 188 0
253 188 0
253 187 0
253 187 0
253 186 0
253 187 0
253 188 0
253 189 0
253 190 0
252 193 0
252 195 0
252 198 0
251 202 0
250 206 0
250 211 0
249 216 0
248 220 0
246 225 0
245 230 0
244 235 0
242 240 0
241 244 0
240 247 0
239 250 0
238 252 0
237 254 0
237 255 0
251 206 0
251 206 0
251 206 0
251 206 0
251 205 0
251 205 0
251 205 0
251 204 0
251 204 0
252 203 0
252 203 0
252 202 0
252 201 0
252 200 0
252 199 0
253 198 0
253 197 0
253 196 0
253 195 0
253 193 0
253 192 0
253 191 0
253 190 0
253 189 0
253 189 0
253 188 0
253 188 0
253 188 0
253 189 0
253 190 0
253 191 0
252 192 0
252 194 0
252 197 0
251 200 0
251 203 0
250 207 0
249 211 0
249 216 0
248 221 0
246 226 0
245 230 0
244 235 0
242 239 0
241 243 0
240 247 0
239 249 0
238 252 0
238 253 0
237 254 0
251 204 0
251 204 0
251 204 0
251 204 0
251 204 0
251 204 0
251 203 0
252 203 0
252 203 0
252 202 0
252 201 0
252 201 0
252 200 0
252 199 0
253 198 0
253 197 0
253 196 0
253 195 0
253 194 0
253 193 0
253 192 0
253 192 0
253 191 0
253 190 0
253 190 0
253 190 0
253 190 0
253 190 0
253 191 0
253 192 0
252 193 0
252 194 0
252 196 0
252 198 0
251 201 0
251 204 0
250 208 0
249 212 0
249 216 0
248 221 0
246 225 0
245 230 0
244 234 0
243 238 0
242 242 0
241 245 0
240 248 0
239 250 0
238 252 0
238 252 0
252 202 0
252 202 0
252 202 0
252 202 0
252 202 0
252 202 0
252 202 0
252 201 0
252 201 0
252 201 0
252 200 0
252 199 0
252 199 0
252 198 0
253 197 0
253 196 0
253 195 0
253 195 0
253 194 0
253 193 0
253 192 0
253 192 0
253 192 0
253 191 0
253 191 0
253 191 0
253 192 0
253 192 0
253 193 0
253 194 0
252 195 0
252 196 0
252 198 0
252 200 0
251 203 0
251 206 0
250 209 0
249 212 0
249 216 0
248 220 0
247 225 0
246 229 0
245 233 0
243 237 0
242 240 0
241 243 0
240 246 0
240 248 0
239 249 0
239 250 0
252 200 0
252 200 0
252 200 0
252 200 0
252 200 0
252 200 0
252 200 0
252 200 0
252 199 0
252 199 0
252 198 0
252 198 0
252 197 0
253 197 0
253 196 0
253 195 0
253 194 0
253 194 0
253 193 0
253 193 0
253 192 0
253 192 0
253 192 0
253 192 0
253 192 0
253 193 0
253 193 0
253 194 0
253 195 0
252 196 0
252 197 0
252 198 0
252 200 0
251 202 0
251 204 0
251 206 0
250 209 0
249 213 0
249 216 0
248 220 0
247 224 0
246 227 0
245 231 0
244 235 0
243 238 0
242 241 0
241 243 0
241 245 0
240 246 0
240 247 0
252 198 0
252 198 0
252 198 0
252 198 0
252 198 0
252 198 0
252 198 0
252 198 0
252 198 0
252 197 0
252 197 0
253 196 0
253 196 0
253 195 0
253 194 0
253 194 0
253 193 0
253 193 0
253 192 0
253 192 0
253 192 0
253 192 0
253 193 0
253 193 0
253 194 0
253 194 0
253 195 0
253 196 0
253 196 0
252 197 0
252 198 0
252 200 0
252 201 0
251 203 0
251 205 0
251 207 0
250 210 0
250 212 0
249 215 0
248 219 0
248 222 0
247 225 0
246 229 0
245 232 0
244 235 0
243 238 0
243 240 0
242 241 0
242 243 0
242 243 0
252 196 0
252 196 0
252 196 0
252 196 0
252 196 0
252 196 0
252 196 0
252 196 0
252 196 0
253 196 0
253 195 0
253 195 0
253 194 0
253 194 0
253 193 0
253 193 0
253 192 0
253 192 0
253 192 0
253 192 0
253 192 0
253 192 0
253 193 0
253 194 0
253 194 0
253 195 0
253 196 0
253 197 0
253 198 0
252 199 0
252 200 0
252 201 0
252 203 0
251 204 0
251 206 0
251 207 0
250 209 0
250 212 0
249 214 0
249 217 0
248 220 0
247 223 0
247 226 0
246 229 0
245 231 0
245 234 0
244 236 0
243 237 0
243 238 0
243 239 0
252 194 0
252 194 0
252 194 0
252 194 0
252 194 0
252 194 0
253 195 0
253 194 0
253 194 0
253 194 0
253 194 0
253 193 0
253 193 0
253 192 0
253 192 0
253 192 0
253 191 0
253 191 0
253 191 0
253 191 0
253 192 0
253 192 0
253 193 0
253 194 0
253 195 0
253 196 0
253 197 0
253 198 0
252 200 0
252 201 0
252 202 0
252 203 0
252 204 0
251 205 0
251 206 0
251 207 0
250 209 0
250 211 0
250 213 0
249 215 0
249 218 0
248 220 0
248 223 0
247 225 0
246 227 0
246 230 0
245 231 0
245 233 0
245 234 0
245 234 0
253 192 0
253 193 0
253 193 0
253 193 0
253 193 0
253 193 0
253 193 0
253 193 0
253 193 0
253 193 0
253 192 0
253 192 0
253 192 0
253 191 0
253 191 0
253 191 0
254 190 0
254 190 0
254 190 0
254 191 0
254 191 0
253 192 0
253 193 0
253 195 0
253 196 0
253 197 0
253 198 0
253 200 0
252 201 0
252 202 0
252 203 0
252 203 0
252 204 0
251 205 0
251 206 0
251 207 0
251 208 0
250 210 0
250 211 0
250 213 0
249 215 0
249 217 0
248 219 0
248 221 0
247 223 0
247 225 0
247 227 0
246 228 0
246 229 0
246 229 0
253 191 0
253 191 0
253 191 0
253 191 0
253 191 0
253 192 0
253 192 0
253 192 0
253 192 0
253 191 0
253 191 0
253 191 0
253 191 0
253 190 0
254 190 0
254 190 0
254 189 0
254 189 0
254 190 0
254 190 0
254 191 0
254 192 0
253 193 0
253 195 0
253 196 0
253 198 0
253 199 0
253 200 0
252 201 0
252 202 0
252 203 0
252 204 0
252 205 0
252 205 0
251 206 0
251 206 0
251 207 0
251 208 0
251 209 0
250 210 0
250 212 0
250 213 0
249 215 0
249 217 0
249 219 0
248 220 0
248 221 0
248 223 0
248 223 0
248 224 0
253 190 0
253 190 0
253 190 0
253 190 0
253 190 0
253 191 0
253 191 0
253 191 0
253 191 0
253 190 0
253 190 0
253 190 0
254 190 0
254 189 0
254 189 0
254 189 0
254 189 0
254 189 0
254 189 0
254 190 0
254 191 0
254 192 0
254 193 0
253 195 0
253 196 0
253 198 0
253 199 0
253 201 0
253 202 0
252 203 0
252 204 0
252 204 0
252 204 0
252 205 0
252 205 0
251 205 0
251 205 0
251 206 0
251 206 0
251 207 0
251 208 0
250 210 0
250 211 0
250 212 0
250 214 0
249 215 0
249 216 0
249 217 0
249 218 0
249 218 0
253 189 0
253 189 0
253 189 0
253 190 0
253 190 0
253 190 0
253 190 0
253 190 0
253 190 0
253 190 0
254 189 0
254 189 0
254 189 0
254 188 0
254 188 0
254 188 0
254 188 0
254 188 0
254 189 0
254 189 0
254 190 0
254 192 0
254 193 0
254 195 0
253 196 0
253 198 0
253 199 0
253 201 0
253 202 0
252 203 0
252 203 0
252 204 0
252 204 0
252 204 0
252 204 0
252 203 0
252 203 0
252 203 0
251 204 0
251 204 0
251 205 0
251 206 0
251 207 0
251 208 0
251 209 0
250 210 0
250 211 0
250 212 0
250 213 0
250 213 0
253 189 0
253 189 0
253 189 0
253 189 0
253 189 0
253 189 0
253 189 0
253 189 0
253 189 0
254 189 0
254 189 0
254 189 0
254 188 0
254 188 0
254 187 0
254 187 0
254 187 0
254 187 0
254 188 0
254 189 0
254 190 0
254 191 0
254 193 0
254 194 0
254 196 0
253 198 0
253 199 0
253 201 0
253 202 0
253 202 0
252 203 0
252 203 0
252 203 0
252 202 0
252 202 0
252 201 0
252 201 0
252 201 0
252 201 0
252 201 0
252 201 0
252 202 0
252 202 0
251 203 0
251 204 0
251 205 0
251 206 0
251 207 0
251 207 0
251 208 0
253 189 0
253 189 0
253 189 0
253 189 0
253 189 0
253 189 0
253 189 0
253 189 0
254 189 0
254 189 0
254 189 0
254 188 0
254 188 0
254 187 0
254 187 0
254 187 0
254 187 0
254 187 0
254 187 0
254 188 0
254 189 0
254 191 0
254 192 0
254 194 0
254 196 0
253 197 0
253 199 0
253 200 0
253 201 0
253 202 0
253 202 0
253 202 0
252 201 0
252 201 0
252 200 0
252 199 0
252 199 0
252 198 0
252 197 0
252 197 0
252 197 0
252 198 0
252 198 0
252 199 0
252 200 0
252 201 0
252 201 0
252 202 0
252 203 0
252 203 0
253 189 0
253 189 0
253 189 0
253 190 0
253 190 0
253 190 0
253 189 0
253 189 0
254 189 0
254 189 0
254 188 0
254 188 0
254 187 0
254 187 0
254 186 0
254 186 0
254 186 0
254 186 0
254 187 0
254 188 0
254 189 0
254 190 0
254 192 0
254 193 0
254 195 0
254 196 0
253 198 0
253 199 0
253 200 0
253 200 0
253 200 0
253 200 0
253 200 0
253 199 0
253 198 0
253 197 0
253 196 0
253 195 0
253 194 0
253 194 0
253 194 0
253 194 0
253 194 0
253 195 0
253 195 0
253 196 0
253 197 0
253 197 0
253 198 0
253 198 0
253 190 0
253 190 0
253 190 0
253 190 0
253 190 0
253 190 0
253 190 0
253 190 0
254 189 0
254 189 0
254 188 0
254 188 0
254 187 0
254 187 0
254 186 0
254 186 0
254 186 0
254 186 0
254 186 0
254 187 0
254 188 0
254 190 0
254 191 0
254 193 0
254 194 0
254 196 0
254 197 0
253 198 0
253 199 0
253 199 0
253 199 0
253 199 0
253 198 0
253 197 0
253 196 0
253 194 0
253 193 0
253 192 0
253 191 0
253 190 0
253 190 0
253 190 0
253 190 0
253 191 0
253 191 0
253 192 0
253 193 0
253 193 0
253 194 0
253 194 0
253 191 0
253 191 0
253 191 0
253 191 0
253 191 0
253 191 0
253 190 0
253 190 0
254 190 0
254 189 0
254 189 0
254 188 0
254 187 0
254 187 0
254 186 0
254 186 0
254 186 0
254 186 0
254 186 0
254 187 0
254 188 0
254 189 0
254 190 0
254 192 0
254 193 0
254 195 0
254 196 0
254 197 0
253 197 0
253 197 0
253 197 0
253 197 0
253 196 0
253 195 0
253 193 0
253 192 0
253 190 0
253 189 0
253 188 0
253 187 0
253 187 0
253 187 0
253 187 0
253 187 0
253 188 0
253 188 0
253 189 0
253 189 0
253 190 0
253 190 0
253 192 0
253 192 0
253 192 0
253 192 0
253 192 0
253 192 0
253 191 0
253 191 0
254 190 0
254 190 0
254 189 0
254 188 0
254 188 0
254 187 0
254 186 0
254 186 0
254 186 0
254 186 0
254 186 0
254 187 0
254 187 0
254 188 0
254 190 0
254 191 0
254 192 0
254 194 0
254 195 0
254 195 0
254 196 0
253 196 0
253 195 0
253 195 0
253 194 0
253 192 0
253 191 0
253 189 0
253 188 0
253 187 0
253 185 0
253 184 0
253 184 0
253 184 0
253 184 0
253 184 0
253 184 0
254 185 0
254 185 0
254 186 0
254 186 0
254 187 0
253 193 0
253 193 0
253 193 0
253 193 0
253 193 0
253 193 0
253 192 0
253 192 0
254 191 0
254 190 0
254 190 0
254 189 0
254 188 0
254 187 0
254 186 0
254 186 0
254 186 0
254 186 0
254 186 0
254 186 0
254 187 0
254 188 0
254 189 0
254 190 0
254 191 0
254 192 0
254 193 0
254 194 0
254 194 0
254 194 0
253 194 0
253 193 0
253 192 0
253 190 0
253 189 0
253 187 0
253 186 0
253 184 0
253 183 0
253 182 0
253 181 0
253 181 0
253 181 0
254 181 0
254 182 0
254 182 0
254 183 0
254 183 0
254 183 0
254 184 0
253 195 0
253 195 0
253 194 0
253 194 0
253 194 0
253 194 0
253 193 0
253 193 0
253 192 0
254 191 0
254 190 0
254 189 0
254 189 0
254 188 0
254 187 0
254 186 0
254 186 0
254 186 0
254 186 0
254 186 0
254 187 0
254 188 0
254 189 0
254 190 0
254 191 0
254 192 0
254 192 0
254 193 0
254 193 0
254 192 0
254 192 0
254 191 0
253 190 0
253 188 0
253 187 0
253 185 0
253 184 0
253 182 0
253 181 0
253 180 0
253 179 0
253 179 0
254 179 0
254 179 0
254 179 0
254 180 0
254 180 0
254 181 0
254 181 0
254 181 0
253 196 0
253 196 0
253 196 0
253 195 0
253 195 0
253 195 0
253 194 0
253 194 0
253 193 0
254 192 0
254 191 0
254 190 0
254 189 0
254 188 0
254 188 0
254 187 0
254 187 0
254 186 0
254 186 0
254 187 0
254 187 0
254 188 0
254 189 0
254 189 0
254 190 0
254 191 0
254 191 0
254 191 0
254 191 0
254 191 0
254 190 0
254 189 0
254 188 0
253 187 0
253 185 0
253 183 0
253 182 0
253 180 0
253 179 0
253 178 0
253 178 0
253 177 0
254 177 0
254 177 0
254 178 0
254 178 0
254 179 0
254 179 0
254 179 0
254 180 0
253 197 0
253 197 0
253 197 0
253 196 0
253 196 0
253 196 0
253 195 0
253 195 0
253 194 0
253 193 0
254 192 0
254 191 0
254 190 0
254 189 0
254 189 0
254 188 0
254 187 0
254 187 0
254 187 0
254 187 0
254 187 0
254 188 0
254 189 0
254 189 0
254 190 0
254 190 0
254 190 0
254 191 0
254 190 0
254 190 0
254 189 0
254 188 0
254 187 0
254 185 0
254 184 0
253 182 0
253 181 0
253 179 0
253 178 0
253 177 0
253 176 0
254 176 0
254 176 0
254 176 0
254 177 0
254 177 0
254 177 0
254 178 0
254 178 0
254 178 0
253 198 0
253 198 0
253 197 0
253 197 0
253 197 0
253 197 0
253 196 0
253 196 0
253 195 0
253 194 0
253 193 0
254 192 0
254 191 0
254 190 0
254 190 0
254 189 0
254 188 0
254 188 0
254 188 0
254 188 0
254 188 0
254 188 0
254 189 0
254 189 0
254 190 0
254 190 0
254 190 0
254 190 0
254 190 0
254 189 0
254 188 0
254 187 0
254 186 0
254 184 0
254 183 0
254 181 0
254 180 0
253 178 0
253 177 0
253 176 0
254 176 0
254 175 0
254 175 0
254 176 0
254 176 0
254 176 0
254 177 0
254 177 0
254 178 0
254 178 0
253 198 0
253 198 0
253 198 0
253 198 0
253 198 0
253 198 0
253 197 0
253 197 0
253 196 0
253 195 0
253 194 0
253 194 0
253 193 0
254 192 0
254 191 0
254 190 0
254 190 0
254 189 0
254 189 0
254 189 0
254 189 0
254 189 0
254 189 0
254 190 0
254 190 0
254 190 0
254 190 0
254 189 0
254 189 0
254 188 0
254 187 0
254 186 0
254 185 0
254 184 0
254 182 0
254 181 0
254 179 0
254 178 0
254 177 0
254 176 0
254 176 0
254 175 0
254 175 0
254 175 0
254 176 0
254 176 0
254 177 0
254 177 0
254 177 0
254 178 0
252 198 0
252 198 0
252 198 0
253 198 0
253 198 0
253 198 0
253 198 0
253 197 0
253 197 0
253 196 0
253 196 0
253 195 0
253 194 0
253 193 0
253 192 0
254 192 0
254 191 0
254 191 0
254 190 0
254 190 0
254 190 0
254 190 0
254 190 0
254 190 0
254 190 0
254 190 0
254 190 0
254 189 0
254 189 0
254 188 0
254 187 0
254 186 0
254 185 0
254 183 0
254 182 0
254 181 0
254 179 0
254 178 0
254 177 0
254 176 0
254 176 0
254 176 0
254 176 0
254 176 0
254 176 0
254 177 0
254 177 0
254 177 0
254 178 0
254 178 0
252 199 0
252 199 0
252 199 0
252 199 0
252 199 0
253 199 0
253 198 0
253 198 0
253 198 0
253 197 0
253 197 0
253 196 0
253 195 0
253 195 0
253 194 0
253 193 0
253 193 0
254 192 0
254 192 0
254 192 0
254 191 0
254 191 0
254 191 0
254 191 0
254 191 0
254 191 0
254 190 0
254 190 0
254 189 0
254 188 0
254 187 0
254 186 0
254 185 0
254 183 0
254 182 0
254 181 0
254 180 0
254 179 0
254 178 0
254 177 0
254 177 0
254 176 0
254 176 0
254 177 0
254 177 0
254 177 0
254 178 0
254 178 0
254 178 0
254 178 0
252 198 0
252 198 0
252 198 0
252 199 0
252 199 0
252 199 0
253 199 0
253 199 0
253 199 0
253 198 0
253 198 0
253 198 0
253 197 0
253 196 0
253 196 0
253 195 0
253 195 0
253 194 0
253 194 0
254 193 0
254 193 0
254 193 0
254 193 0
254 192 0
254 192 0
254 191 0
254 191 0
254 190 0
254 189 0
254 188 0
254 187 0
254 186 0
254 185 0
254 184 0
254 183 0
254 181 0
254 180 0
254 179 0
254 179 0
254 178 0
254 178 0
254 177 0
254 177 0
254 178 0
254 178 0
254 178 0
254 179 0
254 179 0
254 179 0
254 179 0
252 198 0
252 198 0
252 198 0
252 198 0
252 199 0
252 199 0
252 199 0
252 199 0
252 199 0
253 199 0
253 199 0
253 199 0
253 198 0
253 198 0
253 197 0
253 197 0
253 196 0
253 196 0
253 196 0
253 195 0
253 195 0
254 194 0
254 194 0
254 194 0
254 193 0
254 192 0
254 192 0
254 191 0
254 190 0
254 189 0
254 188 0
254 187 0
254 186 0
254 185 0
254 184 0
254 182 0
254 181 0
254 181 0
254 180 0
254 179 0
254 179 0
254 179 0
254 179 0
254 179 0
254 179 0
254 180 0
254 180 0
254 180 0
254 180 0
254 181 0
252 197 0
252 197 0
252 197 0
252 198 0
252 198 0
252 199 0
252 199 0
252 200 0
252 200 0
252 200 0
252 200 0
252 200 0
252 200 0
253 200 0
253 199 0
253 199 0
253 198 0
253 198 0
253 197 0
253 197 0
253 197 0
253 196 0
253 196 0
254 195 0
254 194 0
254 194 0
254 193 0
254 192 0
254 191 0
254 190 0
254 189 0
254 188 0
254 187 0
254 186 0
254 185 0
254 184 0
254 183 0
254 182 0
254 181 0
254 181 0
254 180 0
254 180 0
254 180 0
254 180 0
254 181 0
254 181 0
254 181 0
254 182 0
254 182 0
254 182 0
252 196 0
252 196 0
252 197 0
252 197 0
252 198 0
252 199 0
252 199 0
252 200 0
252 201 0
252 201 0
252 201 0
252 201 0
252 201 0
252 201 0
252 201 0
252 201 0
253 200 0
253 200 0
253 199 0
253 199 0
253 198 0
253 198 0
253 197 0
253 196 0
253 196 0
254 195 0
254 194 0
254 193 0
254 192 0
254 191 0
254 190 0
254 189 0
254 188 0
254 187 0
254 186 0
254 185 0
254 184 0
254 183 0
254 183 0
254 182 0
254 182 0
254 182 0
254 182 0
254 182 0
254 182 0
254 182 0
254 183 0
254 183 0
254 183 0
254 183 0
253 195 0
253 195 0
253 196 0
252 197 0
252 197 0
252 198 0
252 199 0
252 200 0
252 201 0
252 202 0
252 202 0
252 202 0
252 203 0
252 203 0
252 203 0
252 202 0
252 202 0
252 202 0
253 201 0
253 201 0
253 200 0
253 199 0
253 199 0
253 198 0
253 197 0
253 196 0
253 195 0
254 194 0
254 193 0
254 192 0
254 191 0
254 190 0
254 189 0
254 188 0
254 187 0
254 186 0
254 185 0
254 185 0
254 184 0
254 184 0
254 183 0
254 183 0
254 183 0
254 183 0
254 184 0
254 184 0
254 184 0
254 184 0
254 185 0
254 185 0
253 194 0
253 195 0
253 195 0
253 196 0
252 197 0
252 198 0
252 199 0
252 200 0
252 201 0
252 202 0
252 203 0
252 203 0
252 204 0
252 204 0
252 204 0
252 204 0
252 204 0
252 203 0
252 203 0
253 202 0
253 202 0
253 201 0
253 200 0
253 199 0
253 198 0
253 197 0
253 196 0
254 195 0
254 194 0
254 193 0
254 192 0
254 191 0
254 190 0
254 189 0
254 188 0
254 187 0
254 187 0
254 186 0
254 185 0
254 185 0
254 185 0
254 185 0
254 185 0
254 185 0
254 185 0
254 185 0
254 185 0
254 186 0
254 186 0
254 186 0
253 193 0
253 194 0
253 194 0
253 195 0
252 196 0
252 198 0
252 199 0
252 200 0
252 201 0
252 202 0
252 203 0
252 204 0
252 205 0
252 205 0
252 205 0
252 205 0
252 205 0
252 205 0
252 204 0
252 204 0
253 203 0
253 202 0
253 202 0
253 201 0
253 200 0
253 199 0
253 197 0
253 196 0
254 195 0
254 194 0
254 193 0
254 192 0
254 191 0
254 190 0
254 189 0
254 188 0
254 188 0
254 187 0
254 187 0
254 186 0
254 186 0
254 186 0
254 186 0
254 186 0
254 186 0
254 186 0
254 187 0
254 187 0
254 187 0
254 187 0
253 193 0
253 193 0
253 194 0
253 195 0
253 196 0
252 197 0
252 199 0
252 200 0
252 202 0
252 203 0
252 204 0
252 205 0
252 205 0
252 206 0
252 206 0
252 206 0
252 206 0
252 206 0
252 205 0
252 205 0
252 204 0
253 203 0
253 203 0
253 202 0
253 201 0
253 199 0
253 198 0
253 197 0
254 196 0
254 195 0
254 194 0
254 193 0
254 192 0
254 191 0
254 190 0
254 189 0
254 189 0
254 188 0
254 188 0
254 187 0
254 187 0
254 187 0
254 187 0
254 187 0
254 187 0
254 187 0
254 187 0
254 188 0
254 188 0
254 188 0
253 192 0
253 193 0
253 193 0
253 194 0
253 196 0
252 197 0
252 199 0
252 200 0
252 202 0
252 203 0
252 204 0
252 205 0
252 206 0
252 206 0
252 207 0
252 207 0
252 207 0
252 207 0
252 206 0
252 206 0
252 205 0
253 204 0
253 203 0
253 202 0
253 201 0
253 200 0
253 199 0
253 198 0
254 197 0
254 195 0
254 194 0
254 193 0
254 192 0
254 192 0
254 191 0
254 190 0
254 189 0
254 189 0
254 188 0
254 188 0
254 188 0
254 188 0
254 188 0
254 188 0
254 188 0
254 188 0
254 188 0
254 188 0
254 188 0
254 188 0
253 192 0
253 192 0
253 193 0
253 194 0
253 195 0
252 197 0
252 199 0
252 200 0
252 202 0
252 203 0
252 204 0
252 205 0
252 206 0
252 207 0
252 207 0
252 207 0
252 207 0
252 207 0
252 207 0
252 206 0
252 205 0
252 205 0
253 204 0
253 203 0
253 202 0
253 200 0
253 199 0
253 198 0
254 197 0
254 196 0
254 195 0
254 194 0
254 193 0
254 192 0
254 191 0
254 190 0
254 190 0
254 189 0
254 189 0
254 188 0
254 188 0
254 188 0
254 188 0
254 188 0
254 188 0
254 188 0
254 188 0
254 188 0
254 189 0
254 189 0
