P3
50 50
255
229 181 0
229 181 0
229 180 0
228 180 0
228 179 0
228 179 0
227 178 0
227 177 0
226 176 0
225 176 0
225 175 0
224 174 0
223 173 0
223 172 0
222 171 0
221 170 0
221 169 0
220 169 0
220 168 0
219 168 0
219 168 0
219 168 0
219 168 0
219 168 0
219 169 0
220 170 0
220 171 0
221 173 0
222 175 0
223 177 0
225 179 0
226 182 0
228 185 0
230 189 0
231 193 0
233 197 0
236 202 0
238 207 0
240 212 0
242 217 0
244 222 0
246 227 0
248 232 0
249 237 0
251 242 0
252 246 0
253 249 0
254 252 0
254 254 0
255 255 0
229 181 0
229 181 0
229 180 0
228 180 0
228 179 0
228 179 0
227 178 0
227 177 0
226 176 0
225 176 0
225 175 0
224 174 0
223 173 0
223 172 0
222 171 0
221 170 0
221 169 0
220 169 0
220 168 0
219 168 0
219 168 0
219 168 0
219 168 0
219 168 0
219 169 0
220 170 0
220 171 0
221 173 0
222 175 0
223 177 0
225 179 0
226 182 0
228 185 0
230 189 0
232 193 0
234 197 0
236 202 0
238 207 0
240 212 0
242 217 0
244 222 0
246 227 0
248 232 0
249 237 0
251 242 0
252 246 0
253 249 0
254 252 0
254 254 0
254 254 0
229 181 0
229 180 0
229 180 0
228 180 0
228 179 0
228 179 0
227 178 0
227 177 0
226 176 0
225 175 0
225 175 0
224 174 0
223 173 0
223 172 0
222 171 0
221 170 0
221 169 0
220 169 0
220 168 0
219 168 0
219 168 0
219 168 0
219 168 0
219 168 0
219 169 0
220 170 0
220 171 0
221 173 0
222 175 0
223 177 0
225 179 0
226 182 0
228 186 0
230 189 0
232 193 0
234 197 0
236 202 0
238 207 0
240 212 0
242 217 0
244 222 0
246 227 0
248 232 0
249 237 0
251 242 0
252 246 0
253 249 0
254 252 0
254 253 0
254 254 0
229 181 0
229 180 0
228 180 0
228 180 0
228 179 0
228 179 0
227 178 0
227 177 0
226 176 0
225 175 0
225 175 0
224 174 0
223 173 0
223 172 0
222 171 0
221 170 0
221 169 0
220 169 0
220 168 0
219 168 0
219 168 0
219 168 0
219 168 0
219 169 0
219 169 0
220 170 0
221 171 0
221 173 0
222 175 0
224 177 0
225 180 0
226 183 0
228 186 0
230 189 0
232 193 0
234 197 0
236 202 0
238 207 0
240 212 0
242 217 0
244 222 0
246 227 0
248 232 0
249 237 0
251 242 0
252 246 0
253 249 0
254 252 0
254 253 0
254 254 0
229 180 0
229 180 0
228 180 0
228 180 0
228 179 0
227 179 0
227 178 0
226 177 0
226 176 0
225 175 0
225 175 0
224 174 0
223 173 0
223 172 0
222 171 0
221 170 0
221 169 0
220 169 0
220 168 0
220 168 0
219 168 0
219 168 0
219 168 0
219 169 0
220 169 0
220 170 0
221 172 0
222 173 0
223 175 0
224 177 0
225 180 0
227 183 0
228 186 0
230 190 0
232 193 0
234 198 0
236 202 0
238 207 0
240 212 0
242 217 0
244 222 0
246 227 0
248 232 0
249 237 0
251 242 0
252 245 0
253 249 0
254 251 0
254 253 0
254 254 0
229 180 0
228 180 0
228 180 0
228 180 0
228 179 0
227 178 0
227 178 0
226 177 0
226 176 0
225 175 0
225 175 0
224 174 0
223 173 0
223 172 0
222 171 0
221 170 0
221 170 0
220 169 0
220 169 0
220 168 0
219 168 0
219 168 0
219 168 0
220 169 0
220 170 0
220 171 0
221 172 0
222 174 0
223 175 0
224 178 0
225 180 0
227 183 0
228 186 0
230 190 0
232 194 0
234 198 0
236 202 0
238 207 0
240 212 0
242 217 0
244 222 0
246 227 0
248 232 0
249 237 0
251 241 0
252 245 0
253 248 0
254 251 0
254 253 0
254 254 0
228 180 0
228 180 0
228 180 0
228 179 0
228 179 0
227 178 0
227 178 0
226 177 0
226 176 0
225 175 0
225 174 0
224 174 0
223 173 0
223 172 0
222 171 0
222 170 0
221 170 0
221 169 0
220 169 0
220 168 0
220 168 0
220 168 0
220 169 0
220 169 0
220 170 0
221 171 0
221 172 0
222 174 0
223 176 0
224 178 0
225 180 0
227 183 0
229 186 0
230 190 0
232 194 0
234 198 0
236 202 0
238 207 0
240 212 0
242 217 0
244 222 0
246 227 0
248 232 0
249 237 0
251 241 0
252 245 0
253 248 0
254 251 0
254 252 0
254 253 0
228 180 0
228 180 0
228 179 0
228 179 0
228 179 0
227 178 0
227 178 0
226 177 0
226 176 0
225 175 0
225 174 0
224 174 0
223 173 0
223 172 0
222 171 0
222 170 0
221 170 0
221 169 0
220 169 0
220 169 0
220 169 0
220 169 0
220 169 0
220 169 0
220 170 0
221 171 0
221 173 0
222 174 0
223 176 0
224 178 0
226 181 0
227 184 0
229 187 0
231 190 0
232 194 0
234 198 0
236 203 0
238 207 0
240 212 0
242 217 0
244 222 0
246 227 0
248 232 0
249 236 0
251 241 0
252 244 0
253 247 0
253 250 0
254 252 0
254 252 0
228 180 0
228 179 0
228 179 0
228 179 0
227 178 0
227 178 0
227 177 0
226 177 0
226 176 0
225 175 0
225 174 0
224 174 0
223 173 0
223 172 0
222 171 0
222 171 0
221 170 0
221 169 0
220 169 0
220 169 0
220 169 0
220 169 0
220 169 0
220 170 0
221 171 0
221 172 0
222 173 0
223 174 0
224 176 0
225 178 0
226 181 0
227 184 0
229 187 0
231 190 0
233 194 0
234 198 0
236 203 0
238 207 0
240 212 0
242 217 0
244 222 0
246 227 0
248 231 0
249 236 0
251 240 0
252 244 0
253 247 0
253 249 0
254 251 0
254 252 0
228 179 0
228 179 0
228 179 0
228 179 0
227 178 0
227 178 0
227 177 0
226 176 0
226 176 0
225 175 0
225 174 0
224 173 0
223 173 0
223 172 0
222 171 0
222 171 0
221 170 0
221 170 0
221 169 0
220 169 0
220 169 0
220 169 0
220 170 0
221 170 0
221 171 0
221 172 0
222 173 0
223 175 0
224 177 0
225 179 0
226 181 0
228 184 0
229 187 0
231 191 0
233 194 0
235 198 0
237 203 0
238 207 0
240 212 0
242 216 0
244 221 0
246 226 0
248 231 0
249 235 0
250 239 0
251 243 0
252 246 0
253 248 0
254 250 0
254 250 0
228 179 0
228 179 0
228 179 0
227 178 0
227 178 0
227 177 0
226 177 0
226 176 0
226 176 0
225 175 0
224 174 0
224 173 0
223 173 0
223 172 0
222 171 0
222 171 0
221 170 0
221 170 0
221 169 0
221 169 0
220 169 0
220 169 0
221 170 0
221 170 0
221 171 0
222 172 0
222 174 0
223 175 0
224 177 0
225 179 0
227 182 0
228 184 0
229 187 0
231 191 0
233 194 0
235 198 0
237 202 0
239 207 0
240 211 0
242 216 0
244 221 0
246 225 0
247 230 0
249 234 0
250 238 0
251 241 0
252 244 0
253 247 0
253 248 0
254 249 0
228 179 0
227 178 0
227 178 0
227 178 0
227 178 0
227 177 0
226 177 0
226 176 0
225 175 0
225 175 0
224 174 0
224 173 0
223 173 0
223 172 0
222 171 0
222 171 0
222 170 0
221 170 0
221 170 0
221 169 0
221 170 0
221 170 0
221 170 0
221 171 0
221 171 0
222 173 0
223 174 0
223 175 0
224 177 0
226 179 0
227 182 0
228 184 0
230 187 0
231 191 0
233 194 0
235 198 0
237 202 0
238 206 0
240 211 0
242 215 0
244 220 0
246 224 0
247 229 0
249 233 0
250 237 0
251 240 0
252 243 0
252 245 0
253 247 0
253 247 0
227 178 0
227 178 0
227 178 0
227 178 0
227 177 0
226 177 0
226 176 0
226 176 0
225 175 0
225 174 0
224 174 0
224 173 0
223 172 0
223 172 0
222 171 0
222 171 0
222 170 0
221 170 0
221 170 0
221 170 0
221 170 0
221 170 0
221 170 0
221 171 0
222 172 0
222 173 0
223 174 0
224 176 0
225 177 0
226 179 0
227 182 0
228 184 0
230 187 0
231 191 0
233 194 0
235 198 0
237 202 0
238 206 0
240 210 0
242 215 0
244 219 0
245 223 0
247 228 0
248 231 0
249 235 0
250 238 0
251 241 0
252 243 0
252 245 0
253 245 0
227 178 0
227 178 0
227 177 0
227 177 0
226 177 0
226 176 0
226 176 0
225 175 0
225 175 0
225 174 0
224 174 0
224 173 0
223 172 0
223 172 0
222 171 0
222 171 0
222 170 0
221 170 0
221 170 0
221 170 0
221 170 0
221 170 0
221 171 0
222 171 0
222 172 0
222 173 0
223 174 0
224 176 0
225 178 0
226 180 0
227 182 0
228 185 0
230 187 0
231 190 0
233 194 0
235 197 0
236 201 0
238 205 0
240 209 0
242 214 0
243 218 0
245 222 0
246 226 0
248 230 0
249 233 0
250 236 0
251 239 0
251 241 0
252 242 0
252 243 0
227 177 0
227 177 0
226 177 0
226 177 0
226 176 0
226 176 0
226 176 0
225 175 0
225 174 0
224 174 0
224 173 0
224 173 0
223 172 0
223 172 0
222 171 0
222 171 0
222 170 0
222 170 0
221 170 0
221 170 0
221 170 0
221 170 0
221 171 0
222 171 0
222 172 0
223 173 0
223 174 0
224 176 0
225 178 0
226 180 0
227 182 0
229 184 0
230 187 0
231 190 0
233 193 0
235 197 0
236 201 0
238 204 0
240 208 0
241 212 0
243 216 0
244 220 0
246 224 0
247 228 0
248 231 0
249 234 0
250 236 0
251 238 0
251 240 0
251 240 0
226 177 0
226 177 0
226 176 0
226 176 0
226 176 0
226 176 0
225 175 0
225 175 0
225 174 0
224 174 0
224 173 0
224 173 0
223 172 0
223 172 0
222 171 0
222 171 0
222 170 0
222 170 0
221 170 0
221 170 0
221 170 0
221 170 0
222 171 0
222 172 0
222 172 0
223 173 0
224 175 0
224 176 0
225 178 0
226 180 0
227 182 0
229 184 0
230 187 0
231 190 0
233 193 0
234 196 0
236 200 0
238 203 0
239 207 0
241 211 0
242 215 0
244 218 0
245 222 0
246 225 0
247 229 0
248 231 0
249 234 0
250 235 0
250 237 0
250 237 0
226 176 0
226 176 0
226 176 0
226 176 0
225 175 0
225 175 0
225 175 0
225 174 0
224 174 0
224 173 0
224 173 0
223 172 0
223 172 0
223 171 0
222 171 0
222 171 0
222 170 0
222 170 0
222 170 0
221 170 0
221 170 0
222 171 0
222 171 0
222 172 0
222 172 0
223 173 0
224 175 0
224 176 0
225 178 0
226 180 0
227 182 0
229 184 0
230 186 0
231 189 0
233 192 0
234 195 0
236 199 0
237 202 0
239 206 0
240 209 0
242 213 0
243 216 0
244 220 0
246 223 0
247 226 0
247 228 0
248 230 0
249 232 0
249 233 0
249 234 0
226 176 0
226 175 0
225 175 0
225 175 0
225 175 0
225 175 0
225 174 0
224 174 0
224 173 0
224 173 0
224 173 0
223 172 0
223 172 0
223 171 0
222 171 0
222 171 0
222 170 0
222 170 0
222 170 0
222 170 0
222 170 0
222 171 0
222 171 0
222 172 0
223 172 0
223 173 0
224 175 0
224 176 0
225 178 0
226 179 0
227 181 0
228 183 0
230 186 0
231 189 0
232 191 0
234 194 0
235 197 0
237 201 0
238 204 0
240 207 0
241 211 0
242 214 0
243 217 0
245 220 0
246 223 0
246 225 0
247 227 0
248 229 0
248 230 0
248 230 0
225 175 0
225 175 0
225 175 0
225 175 0
225 174 0
225 174 0
224 174 0
224 173 0
224 173 0
224 173 0
223 172 0
223 172 0
223 171 0
222 171 0
222 171 0
222 170 0
222 170 0
222 170 0
222 170 0
222 170 0
222 170 0
222 171 0
222 171 0
222 172 0
223 172 0
223 173 0
224 174 0
224 176 0
225 177 0
226 179 0
227 181 0
228 183 0
229 185 0
231 188 0
232 190 0
233 193 0
235 196 0
236 199 0
237 202 0
239 205 0
240 208 0
241 212 0
242 214 0
243 217 0
244 220 0
245 222 0
246 224 0
246 225 0
247 226 0
247 226 0
225 174 0
225 174 0
225 174 0
225 174 0
224 174 0
224 174 0
224 173 0
224 173 0
224 173 0
223 172 0
223 172 0
223 172 0
223 171 0
222 171 0
222 171 0
222 170 0
222 170 0
222 170 0
222 170 0
222 170 0
222 170 0
222 171 0
222 171 0
222 172 0
223 172 0
223 173 0
224 174 0
224 176 0
225 177 0
226 179 0
227 180 0
228 182 0
229 184 0
230 187 0
231 189 0
233 192 0
234 195 0
235 197 0
237 200 0
238 203 0
239 206 0
240 209 0
241 211 0
242 214 0
243 216 0
244 218 0
244 220 0
245 221 0
245 222 0
245 222 0
224 174 0
224 174 0
224 174 0
224 174 0
224 173 0
224 173 0
224 173 0
224 173 0
223 172 0
223 172 0
223 172 0
223 171 0
222 171 0
222 171 0
222 170 0
222 170 0
222 170 0
222 170 0
222 170 0
222 170 0
222 170 0
222 170 0
222 171 0
222 171 0
223 172 0
223 173 0
224 174 0
224 175 0
225 177 0
226 178 0
227 180 0
228 182 0
229 184 0
230 186 0
231 188 0
232 190 0
233 193 0
234 195 0
236 198 0
237 201 0
238 203 0
239 206 0
240 208 0
241 211 0
242 213 0
242 214 0
243 216 0
243 217 0
244 218 0
244 218 0
224 173 0
224 173 0
224 173 0
224 173 0
224 173 0
224 173 0
223 172 0
223 172 0
223 172 0
223 172 0
223 171 0
222 171 0
222 171 0
222 170 0
222 170 0
222 170 0
222 170 0
222 170 0
222 170 0
222 170 0
222 170 0
222 170 0
222 171 0
222 171 0
223 172 0
223 173 0
224 174 0
224 175 0
225 176 0
226 177 0
226 179 0
227 181 0
228 183 0
229 184 0
230 187 0
231 189 0
232 191 0
233 193 0
235 196 0
236 198 0
237 201 0
238 203 0
239 205 0
239 207 0
240 209 0
241 211 0
241 212 0
242 213 0
242 214 0
242 214 0
224 173 0
224 173 0
224 173 0
224 173 0
223 172 0
223 172 0
223 172 0
223 172 0
223 172 0
223 171 0
222 171 0
222 171 0
222 170 0
222 170 0
222 170 0
222 170 0
222 170 0
222 170 0
221 170 0
222 170 0
222 170 0
222 170 0
222 171 0
222 171 0
223 172 0
223 172 0
223 173 0
224 174 0
225 175 0
225 177 0
226 178 0
227 180 0
228 181 0
229 183 0
229 185 0
230 187 0
231 189 0
232 191 0
233 193 0
234 196 0
235 198 0
236 200 0
237 202 0
238 204 0
239 205 0
239 207 0
240 208 0
240 209 0
240 209 0
240 210 0
223 172 0
223 172 0
223 172 0
223 172 0
223 172 0
223 172 0
223 172 0
223 171 0
223 171 0
222 171 0
222 171 0
222 170 0
222 170 0
222 170 0
222 170 0
222 170 0
222 170 0
221 170 0
221 170 0
221 170 0
222 170 0
222 170 0
222 170 0
222 171 0
222 171 0
223 172 0
223 173 0
224 174 0
224 175 0
225 176 0
226 177 0
226 179 0
227 180 0
228 182 0
229 184 0
230 185 0
230 187 0
231 189 0
232 191 0
233 193 0
234 195 0
235 197 0
236 198 0
236 200 0
237 201 0
237 203 0
238 204 0
238 204 0
238 205 0
238 205 0
223 172 0
223 172 0
223 172 0
223 172 0
223 172 0
223 171 0
223 171 0
223 171 0
222 171 0
222 171 0
222 170 0
222 170 0
222 170 0
222 170 0
222 170 0
222 169 0
221 169 0
221 169 0
221 169 0
221 169 0
221 170 0
222 170 0
222 170 0
222 171 0
222 171 0
223 172 0
223 172 0
223 173 0
224 174 0
224 175 0
225 176 0
226 178 0
226 179 0
227 180 0
228 182 0
229 184 0
229 185 0
230 187 0
231 189 0
232 190 0
233 192 0
233 193 0
234 195 0
235 196 0
235 198 0
236 199 0
236 200 0
236 200 0
236 201 0
236 201 0
223 172 0
223 172 0
223 172 0
223 171 0
223 171 0
223 171 0
223 171 0
222 171 0
222 171 0
222 170 0
222 170 0
222 170 0
222 170 0
222 170 0
222 169 0
221 169 0
221 169 0
221 169 0
221 169 0
221 169 0
221 169 0
221 170 0
222 170 0
222 170 0
222 171 0
222 171 0
223 172 0
223 173 0
223 173 0
224 174 0
224 175 0
225 176 0
226 178 0
226 179 0
227 180 0
228 182 0
228 183 0
229 185 0
230 186 0
230 187 0
231 189 0
232 190 0
232 192 0
233 193 0
233 194 0
234 195 0
234 196 0
234 196 0
234 197 0
235 197 0
223 171 0
223 171 0
223 171 0
223 171 0
223 171 0
222 171 0
222 171 0
222 171 0
222 170 0
222 170 0
222 170 0
222 170 0
222 170 0
222 169 0
221 169 0
221 169 0
221 169 0
221 169 0
221 169 0
221 169 0
221 169 0
221 169 0
222 170 0
222 170 0
222 170 0
222 171 0
222 171 0
223 172 0
223 173 0
223 174 0
224 174 0
224 175 0
225 176 0
225 177 0
226 179 0
227 180 0
227 181 0
228 182 0
228 184 0
229 185 0
230 186 0
230 187 0
231 188 0
231 189 0
231 190 0
232 191 0
232 192 0
232 192 0
232 193 0
232 193 0
223 171 0
223 171 0
223 171 0
222 171 0
222 171 0
222 171 0
222 171 0
222 170 0
222 170 0
222 170 0
222 170 0
222 170 0
222 170 0
222 169 0
221 169 0
221 169 0
221 169 0
221 169 0
221 169 0
221 169 0
221 169 0
221 169 0
221 169 0
222 170 0
222 170 0
222 170 0
222 171 0
222 171 0
223 172 0
223 173 0
223 173 0
224 174 0
224 175 0
225 176 0
225 177 0
226 178 0
226 179 0
227 180 0
227 181 0
228 182 0
228 183 0
228 184 0
229 185 0
229 186 0
230 187 0
230 187 0
230 188 0
230 188 0
230 189 0
230 189 0
222 171 0
222 171 0
222 171 0
222 171 0
222 171 0
222 171 0
222 170 0
222 170 0
222 170 0
222 170 0
222 170 0
222 170 0
222 169 0
221 169 0
221 169 0
221 169 0
221 169 0
221 169 0
221 169 0
221 169 0
221 169 0
221 169 0
221 169 0
221 169 0
221 170 0
222 170 0
222 170 0
222 171 0
222 171 0
222 172 0
223 172 0
223 173 0
223 174 0
224 174 0
224 175 0
224 176 0
225 177 0
225 178 0
226 179 0
226 180 0
226 180 0
227 181 0
227 182 0
227 183 0
228 183 0
228 184 0
228 184 0
228 185 0
228 185 0
229 185 0
222 171 0
222 171 0
222 171 0
222 171 0
222 171 0
222 171 0
222 170 0
222 170 0
222 170 0
222 170 0
222 170 0
222 170 0
222 169 0
222 169 0
221 169 0
221 169 0
221 169 0
221 169 0
221 169 0
221 169 0
221 169 0
221 169 0
221 169 0
221 169 0
221 169 0
221 169 0
221 170 0
222 170 0
222 170 0
222 171 0
222 171 0
222 172 0
223 172 0
223 173 0
223 174 0
223 174 0
224 175 0
224 176 0
224 176 0
225 177 0
225 178 0
225 179 0
226 179 0
226 180 0
226 180 0
226 181 0
226 181 0
226 181 0
227 182 0
227 182 0
222 171 0
222 171 0
222 171 0
222 171 0
222 171 0
222 171 0
222 170 0
222 170 0
222 170 0
222 170 0
222 170 0
222 170 0
222 170 0
222 169 0
221 169 0
221 169 0
221 169 0
221 169 0
221 169 0
221 169 0
221 169 0
221 169 0
221 169 0
221 169 0
221 169 0
221 169 0
221 169 0
221 169 0
221 170 0
221 170 0
222 170 0
222 171 0
222 171 0
222 172 0
222 172 0
222 173 0
223 173 0
223 174 0
223 174 0
223 175 0
223 175 0
224 176 0
224 176 0
224 177 0
224 177 0
224 178 0
225 178 0
225 178 0
225 178 0
225 178 0
222 171 0
222 171 0
222 171 0
222 171 0
222 171 0
222 171 0
222 170 0
222 170 0
222 170 0
222 170 0
222 170 0
222 170 0
222 170 0
222 169 0
222 169 0
221 169 0
221 169 0
221 169 0
221 169 0
221 169 0
221 169 0
221 169 0
221 169 0
221 169 0
221 169 0
221 169 0
221 169 0
221 169 0
221 169 0
221 169 0
221 169 0
221 170 0
221 170 0
221 170 0
221 171 0
221 171 0
222 171 0
222 172 0
222 172 0
222 173 0
222 173 0
222 173 0
222 174 0
222 174 0
223 174 0
223 175 0
223 175 0
223 175 0
223 175 0
223 175 0
223 171 0
223 171 0
223 171 0
222 171 0
222 171 0
222 171 0
222 171 0
222 170 0
222 170 0
222 170 0
222 170 0
222 170 0
222 170 0
222 170 0
222 169 0
222 169 0
221 169 0
221 169 0
221 169 0
221 169 0
221 169 0
221 168 0
221 168 0
221 168 0
221 168 0
221 168 0
221 168 0
221 168 0
220 168 0
220 168 0
220 169 0
220 169 0
220 169 0
220 169 0
220 169 0
220 169 0
221 170 0
221 170 0
221 170 0
221 171 0
221 171 0
221 171 0
221 171 0
221 172 0
221 172 0
221 172 0
221 172 0
221 172 0
221 172 0
221 172 0
223 171 0
223 171 0
223 171 0
223 171 0
223 171 0
223 171 0
222 171 0
222 171 0
222 171 0
222 170 0
222 170 0
222 170 0
222 170 0
222 170 0
222 170 0
222 169 0
222 169 0
221 169 0
221 169 0
221 169 0
221 169 0
221 168 0
221 168 0
221 168 0
221 168 0
220 168 0
220 168 0
220 168 0
220 168 0
220 168 0
220 168 0
220 168 0
220 168 0
220 168 0
220 168 0
220 168 0
220 168 0
219 168 0
219 168 0
219 169 0
219 169 0
219 169 0
219 169 0
219 169 0
219 169 0
220 170 0
220 170 0
220 170 0
220 170 0
220 170 0
223 171 0
223 171 0
223 171 0
223 171 0
223 171 0
223 171 0
223 171 0
223 171 0
223 171 0
222 171 0
222 170 0
222 170 0
222 170 0
222 170 0
222 170 0
222 170 0
222 169 0
222 169 0
221 169 0
221 169 0
221 169 0
221 168 0
221 168 0
221 168 0
220 168 0
220 168 0
220 167 0
220 167 0
220 167 0
220 167 0
219 167 0
219 167 0
219 167 0
219 167 0
219 167 0
219 167 0
219 167 0
219 167 0
218 167 0
218 167 0
218 167 0
218 167 0
218 167 0
218 167 0
218 167 0
218 167 0
218 167 0
218 167 0
218 167 0
218 167 0
223 172 0
223 172 0
223 172 0
223 172 0
223 171 0
223 171 0
223 171 0
223 171 0
223 171 0
223 171 0
223 171 0
223 171 0
222 170 0
222 170 0
222 170 0
222 170 0
222 170 0
222 169 0
222 169 0
221 169 0
221 169 0
221 168 0
221 168 0
221 168 0
220 168 0
220 167 0
220 167 0
220 167 0
219 167 0
219 166 0
219 166 0
219 166 0
219 166 0
218 166 0
218 166 0
218 165 0
218 165 0
218 165 0
217 165 0
217 165 0
217 165 0
217 165 0
217 165 0
217 165 0
217 165 0
217 165 0
217 165 0
217 165 0
217 165 0
217 165 0
223 172 0
223 172 0
223 172 0
223 172 0
223 172 0
223 172 0
223 172 0
223 172 0
223 171 0
223 171 0
223 171 0
223 171 0
223 171 0
223 171 0
222 170 0
222 170 0
222 170 0
222 170 0
222 169 0
222 169 0
221 169 0
221 168 0
221 168 0
221 168 0
220 167 0
220 167 0
220 167 0
219 166 0
219 166 0
219 166 0
219 166 0
218 165 0
218 165 0
218 165 0
217 165 0
217 164 0
217 164 0
217 164 0
217 164 0
216 164 0
216 164 0
216 164 0
216 163 0
216 163 0
216 163 0
216 163 0
215 163 0
215 163 0
215 163 0
215 163 0
224 172 0
224 172 0
224 172 0
224 172 0
223 172 0
223 172 0
223 172 0
223 172 0
223 172 0
223 172 0
223 171 0
223 171 0
223 171 0
223 171 0
223 171 0
223 170 0
222 170 0
222 170 0
222 169 0
222 169 0
221 169 0
221 168 0
221 168 0
221 168 0
220 167 0
220 167 0
220 167 0
219 166 0
219 166 0
219 165 0
218 165 0
218 165 0
218 164 0
217 164 0
217 164 0
217 163 0
216 163 0
216 163 0
216 163 0
215 162 0
215 162 0
215 162 0
215 162 0
215 162 0
215 162 0
214 162 0
214 162 0
214 162 0
214 162 0
214 162 0
224 173 0
224 173 0
224 173 0
224 173 0
224 173 0
224 172 0
224 172 0
224 172 0
224 172 0
224 172 0
223 172 0
223 172 0
223 171 0
223 171 0
223 171 0
223 171 0
223 170 0
222 170 0
222 170 0
222 169 0
222 169 0
221 169 0
221 168 0
221 168 0
220 167 0
220 167 0
220 166 0
219 166 0
219 165 0
218 165 0
218 165 0
218 164 0
217 164 0
217 163 0
216 163 0
216 162 0
216 162 0
215 162 0
215 162 0
215 161 0
214 161 0
214 161 0
214 161 0
214 160 0
214 160 0
213 160 0
213 160 0
213 160 0
213 160 0
213 160 0
224 173 0
224 173 0
224 173 0
224 173 0
224 173 0
224 173 0
224 173 0
224 173 0
224 173 0
224 172 0
224 172 0
224 172 0
224 172 0
223 172 0
223 171 0
223 171 0
223 171 0
223 170 0
222 170 0
222 170 0
222 169 0
221 169 0
221 168 0
221 168 0
220 167 0
220 167 0
219 166 0
219 166 0
219 165 0
218 165 0
218 164 0
217 164 0
217 163 0
216 163 0
216 162 0
215 162 0
215 161 0
215 161 0
214 161 0
214 160 0
214 160 0
213 160 0
213 159 0
213 159 0
213 159 0
213 159 0
212 159 0
212 159 0
212 159 0
212 159 0
224 173 0
224 173 0
224 173 0
224 173 0
224 173 0
224 173 0
224 173 0
224 173 0
224 173 0
224 173 0
224 173 0
224 172 0
224 172 0
224 172 0
223 172 0
223 171 0
223 171 0
223 171 0
223 170 0
222 170 0
222 169 0
222 169 0
221 168 0
221 168 0
220 167 0
220 167 0
219 166 0
219 165 0
218 165 0
218 164 0
217 164 0
217 163 0
216 163 0
216 162 0
216 162 0
215 161 0
215 161 0
214 160 0
214 160 0
213 159 0
213 159 0
213 159 0
212 158 0
212 158 0
212 158 0
212 158 0
212 158 0
212 158 0
212 157 0
211 157 0
225 174 0
225 174 0
225 174 0
225 174 0
225 174 0
225 174 0
225 174 0
225 173 0
224 173 0
224 173 0
224 173 0
224 173 0
224 173 0
224 172 0
224 172 0
224 172 0
223 171 0
223 171 0
223 170 0
222 170 0
222 170 0
222 169 0
221 168 0
221 168 0
220 167 0
220 167 0
219 166 0
219 165 0
218 165 0
218 164 0
217 163 0
217 163 0
216 162 0
216 162 0
215 161 0
215 160 0
214 160 0
214 159 0
213 159 0
213 159 0
213 158 0
212 158 0
212 157 0
212 157 0
211 157 0
211 157 0
211 157 0
211 156 0
211 156 0
211 156 0
225 174 0
225 174 0
225 174 0
225 174 0
225 174 0
225 174 0
225 174 0
225 174 0
225 174 0
225 174 0
225 173 0
224 173 0
224 173 0
224 173 0
224 172 0
224 172 0
224 172 0
223 171 0
223 171 0
223 170 0
222 170 0
222 169 0
221 169 0
221 168 0
220 167 0
220 167 0
219 166 0
219 165 0
218 165 0
218 164 0
217 163 0
217 162 0
216 162 0
215 161 0
215 161 0
214 160 0
214 159 0
213 159 0
213 158 0
212 158 0
212 157 0
212 157 0
211 157 0
211 156 0
211 156 0
211 156 0
210 156 0
210 156 0
210 156 0
210 155 0
225 175 0
225 175 0
225 175 0
225 175 0
225 174 0
225 174 0
225 174 0
225 174 0
225 174 0
225 174 0
225 174 0
225 174 0
225 173 0
224 173 0
224 173 0
224 172 0
224 172 0
224 171 0
223 171 0
223 170 0
222 170 0
222 169 0
222 169 0
221 168 0
221 167 0
220 167 0
219 166 0
219 165 0
218 164 0
218 164 0
217 163 0
216 162 0
216 161 0
215 161 0
215 160 0
214 159 0
214 159 0
213 158 0
213 158 0
212 157 0
212 157 0
211 156 0
211 156 0
211 156 0
210 155 0
210 155 0
210 155 0
210 155 0
210 155 0
210 155 0
225 175 0
225 175 0
225 175 0
225 175 0
225 175 0
225 175 0
225 175 0
225 175 0
225 174 0
225 174 0
225 174 0
225 174 0
225 174 0
225 173 0
225 173 0
224 173 0
224 172 0
224 172 0
223 171 0
223 171 0
223 170 0
222 169 0
222 169 0
221 168 0
221 167 0
220 167 0
219 166 0
219 165 0
218 164 0
218 164 0
217 163 0
216 162 0
216 161 0
215 161 0
214 160 0
214 159 0
213 159 0
213 158 0
212 157 0
212 157 0
211 156 0
211 156 0
211 156 0
210 155 0
210 155 0
210 155 0
210 154 0
209 154 0
209 154 0
209 154 0
226 175 0
226 175 0
226 175 0
226 175 0
226 175 0
226 175 0
226 175 0
226 175 0
225 175 0
225 175 0
225 174 0
225 174 0
225 174 0
225 174 0
225 173 0
224 173 0
224 172 0
224 172 0
224 171 0
223 171 0
223 170 0
222 170 0
222 169 0
221 168 0
221 167 0
220 167 0
219 166 0
219 165 0
218 164 0
218 163 0
217 163 0
216 162 0
216 161 0
215 160 0
214 160 0
214 159 0
213 158 0
213 158 0
212 157 0
212 156 0
211 156 0
211 155 0
210 155 0
210 155 0
210 154 0
209 154 0
209 154 0
209 154 0
209 154 0
209 154 0
226 175 0
226 175 0
226 175 0
226 175 0
226 175 0
226 175 0
226 175 0
226 175 0
226 175 0
226 175 0
225 175 0
225 174 0
225 174 0
225 174 0
225 173 0
225 173 0
224 173 0
224 172 0
224 172 0
223 171 0
223 170 0
222 170 0
222 169 0
221 168 0
221 167 0
220 167 0
220 166 0
219 165 0
218 164 0
218 163 0
217 163 0
216 162 0
215 161 0
215 160 0
214 159 0
214 159 0
213 158 0
212 157 0
212 157 0
211 156 0
211 156 0
210 155 0
210 155 0
210 154 0
209 154 0
209 154 0
209 154 0
209 153 0
209 153 0
209 153 0
226 176 0
226 176 0
226 176 0
226 176 0
226 176 0
226 175 0
226 175 0
226 175 0
226 175 0
226 175 0
226 175 0
226 175 0
225 174 0
225 174 0
225 174 0
225 173 0
224 173 0
224 172 0
224 172 0
223 171 0
223 171 0
222 170 0
222 169 0
221 168 0
221 168 0
220 167 0
220 166 0
219 165 0
218 164 0
218 163 0
217 162 0
216 162 0
215 161 0
215 160 0
214 159 0
213 158 0
213 158 0
212 157 0
212 156 0
211 156 0
211 155 0
210 155 0
210 154 0
210 154 0
209 154 0
209 154 0
209 153 0
209 153 0
209 153 0
208 153 0
226 176 0
226 176 0
226 176 0
226 176 0
226 176 0
226 176 0
226 176 0
226 175 0
226 175 0
226 175 0
226 175 0
226 175 0
225 174 0
225 174 0
225 174 0
225 173 0
225 173 0
224 172 0
224 172 0
223 171 0
223 171 0
223 170 0
222 169 0
221 168 0
221 168 0
220 167 0
220 166 0
219 165 0
218 164 0
217 163 0
217 162 0
216 162 0
215 161 0
215 160 0
214 159 0
213 158 0
213 158 0
212 157 0
212 156 0
211 156 0
211 155 0
210 155 0
210 154 0
209 154 0
209 154 0
209 153 0
209 153 0
209 153 0
208 153 0
208 153 0
226 176 0
226 176 0
226 176 0
226 176 0
226 176 0
226 176 0
226 176 0
226 175 0
226 175 0
226 175 0
226 175 0
226 175 0
226 175 0
225 174 0
225 174 0
225 173 0
225 173 0
224 172 0
224 172 0
223 171 0
223 171 0
223 170 0
222 169 0
221 168 0
221 168 0
220 167 0
220 166 0
219 165 0
218 164 0
217 163 0
217 162 0
216 162 0
215 161 0
215 160 0
214 159 0
213 158 0
213 158 0
212 157 0
212 156 0
211 156 0
211 155 0
210 155 0
210 154 0
209 154 0
209 154 0
209 153 0
209 153 0
208 153 0
208 153 0
208 153 0
