P3
50 50
255
236 221 0
236 221 0
236 221 0
236 221 0
237 221 0
237 221 0
237 220 0
237 220 0
238 220 0
238 219 0
239 219 0
239 218 0
240 217 0
241 216 0
242 215 0
243 214 0
245 212 0
246 211 0
247 209 0
249 208 0
250 206 0
251 205 0
252 203 0
253 202 0
254 201 0
254 200 0
255 200 0
254 200 0
254 200 0
253 201 0
252 203 0
250 204 0
248 207 0
246 209 0
244 212 0
241 215 0
238 218 0
235 222 0
231 225 0
228 228 0
225 231 0
222 234 0
219 237 0
216 239 0
213 241 0
211 243 0
209 244 0
208 246 0
207 246 0
207 247 0
236 221 0
236 221 0
236 221 0
236 221 0
236 221 0
237 221 0
237 220 0
237 220 0
238 220 0
238 219 0
239 219 0
239 218 0
240 217 0
241 216 0
242 215 0
243 214 0
245 212 0
246 211 0
247 209 0
249 208 0
250 206 0
251 205 0
252 203 0
253 202 0
254 201 0
254 200 0
254 200 0
254 200 0
254 201 0
253 201 0
252 203 0
250 205 0
248 207 0
246 209 0
244 212 0
241 215 0
238 218 0
235 222 0
231 225 0
228 228 0
225 231 0
221 234 0
218 237 0
216 239 0
213 242 0
211 243 0
209 245 0
208 246 0
207 246 0
206 247 0
236 222 0
236 222 0
236 221 0
236 221 0
236 221 0
236 221 0
237 221 0
237 220 0
237 220 0
238 219 0
238 219 0
239 218 0
240 217 0
241 216 0
242 215 0
243 214 0
244 213 0
246 211 0
247 210 0
248 208 0
250 206 0
251 205 0
252 204 0
253 202 0
254 201 0
254 201 0
254 200 0
254 200 0
254 201 0
253 202 0
251 203 0
250 205 0
248 207 0
246 210 0
243 212 0
240 215 0
237 219 0
234 222 0
231 225 0
228 229 0
224 232 0
221 235 0
218 237 0
215 240 0
213 242 0
211 244 0
209 245 0
207 246 0
206 247 0
206 247 0
236 222 0
236 222 0
236 222 0
236 222 0
236 222 0
236 221 0
236 221 0
237 221 0
237 220 0
238 220 0
238 219 0
239 218 0
240 218 0
241 217 0
242 216 0
243 214 0
244 213 0
245 211 0
247 210 0
248 208 0
249 207 0
251 205 0
252 204 0
253 203 0
253 202 0
254 201 0
254 201 0
254 201 0
253 201 0
252 202 0
251 204 0
250 205 0
248 207 0
245 210 0
243 213 0
240 216 0
237 219 0
234 222 0
231 226 0
227 229 0
224 232 0
221 235 0
217 238 0
215 240 0
212 242 0
210 244 0
208 246 0
207 247 0
206 247 0
205 248 0
235 222 0
235 222 0
235 222 0
235 222 0
236 222 0
236 222 0
236 221 0
236 221 0
237 221 0
237 220 0
238 220 0
239 219 0
239 218 0
240 217 0
241 216 0
243 215 0
244 213 0
245 212 0
246 210 0
248 209 0
249 207 0
250 206 0
251 204 0
252 203 0
253 202 0
253 202 0
253 201 0
253 201 0
253 202 0
252 203 0
251 204 0
249 206 0
247 208 0
245 210 0
242 213 0
240 216 0
237 220 0
233 223 0
230 226 0
227 230 0
223 233 0
220 236 0
217 238 0
214 241 0
211 243 0
209 245 0
207 246 0
206 247 0
205 248 0
204 248 0
235 223 0
235 223 0
235 223 0
235 223 0
235 222 0
235 222 0
236 222 0
236 222 0
236 221 0
237 221 0
237 220 0
238 219 0
239 218 0
240 217 0
241 216 0
242 215 0
243 214 0
245 212 0
246 211 0
247 209 0
249 208 0
250 206 0
251 205 0
252 204 0
252 203 0
253 202 0
253 202 0
253 202 0
252 202 0
251 203 0
250 205 0
249 206 0
247 209 0
244 211 0
242 214 0
239 217 0
236 220 0
233 224 0
229 227 0
226 230 0
222 233 0
219 236 0
216 239 0
213 242 0
210 244 0
208 246 0
206 247 0
205 248 0
204 249 0
203 249 0
234 223 0
234 223 0
234 223 0
234 223 0
235 223 0
235 223 0
235 222 0
235 222 0
236 222 0
236 221 0
237 220 0
238 220 0
239 219 0
240 218 0
241 217 0
242 216 0
243 214 0
244 213 0
246 211 0
247 210 0
248 208 0
249 207 0
250 206 0
251 204 0
252 204 0
252 203 0
252 203 0
252 203 0
252 203 0
251 204 0
249 205 0
248 207 0
246 209 0
244 212 0
241 215 0
238 218 0
235 221 0
232 224 0
228 228 0
225 231 0
221 234 0
218 237 0
215 240 0
212 242 0
209 245 0
207 246 0
205 248 0
204 249 0
203 250 0
202 250 0
234 224 0
234 224 0
234 224 0
234 224 0
234 223 0
234 223 0
235 223 0
235 223 0
236 222 0
236 222 0
237 221 0
237 220 0
238 219 0
239 218 0
240 217 0
241 216 0
243 215 0
244 213 0
245 212 0
246 210 0
248 209 0
249 208 0
250 206 0
250 205 0
251 204 0
251 204 0
252 203 0
251 204 0
251 204 0
250 205 0
249 206 0
247 208 0
245 210 0
243 213 0
240 215 0
237 219 0
234 222 0
231 225 0
228 228 0
224 232 0
221 235 0
217 238 0
214 241 0
211 243 0
208 246 0
206 247 0
204 249 0
202 250 0
201 251 0
201 251 0
233 224 0
233 224 0
233 224 0
234 224 0
234 224 0
234 224 0
234 223 0
235 223 0
235 222 0
236 222 0
236 221 0
237 221 0
238 220 0
239 219 0
240 218 0
241 216 0
242 215 0
243 214 0
245 212 0
246 211 0
247 210 0
248 208 0
249 207 0
250 206 0
250 205 0
251 205 0
251 204 0
251 205 0
250 205 0
249 206 0
248 207 0
246 209 0
244 211 0
242 214 0
240 216 0
237 219 0
234 223 0
230 226 0
227 229 0
223 233 0
220 236 0
216 239 0
213 242 0
210 244 0
207 246 0
205 248 0
203 250 0
201 251 0
200 252 0
200 252 0
233 225 0
233 225 0
233 225 0
233 224 0
233 224 0
234 224 0
234 224 0
234 223 0
235 223 0
235 222 0
236 222 0
237 221 0
238 220 0
239 219 0
240 218 0
241 217 0
242 216 0
243 214 0
244 213 0
245 212 0
246 210 0
248 209 0
248 208 0
249 207 0
250 206 0
250 206 0
250 205 0
250 206 0
249 206 0
248 207 0
247 208 0
245 210 0
243 212 0
241 215 0
239 217 0
236 220 0
233 223 0
229 227 0
226 230 0
222 233 0
219 237 0
215 240 0
212 242 0
209 245 0
206 247 0
204 249 0
202 251 0
200 252 0
199 252 0
199 253 0
233 225 0
233 225 0
233 225 0
233 225 0
233 224 0
234 224 0
234 224 0
234 223 0
235 223 0
235 222 0
236 222 0
237 221 0
237 220 0
238 219 0
239 218 0
240 217 0
242 216 0
243 215 0
244 213 0
245 212 0
246 211 0
247 210 0
248 209 0
248 208 0
249 207 0
249 207 0
249 206 0
249 207 0
248 207 0
247 208 0
246 209 0
244 211 0
243 213 0
240 216 0
238 218 0
235 221 0
232 224 0
228 228 0
225 231 0
221 234 0
218 237 0
214 240 0
211 243 0
208 246 0
205 248 0
203 250 0
201 251 0
199 252 0
198 253 0
198 254 0
233 225 0
233 225 0
233 225 0
233 225 0
233 224 0
234 224 0
234 224 0
234 223 0
235 223 0
235 222 0
236 222 0
237 221 0
237 220 0
238 219 0
239 218 0
240 217 0
241 216 0
242 215 0
243 214 0
244 213 0
245 211 0
246 210 0
247 209 0
248 209 0
248 208 0
248 208 0
248 207 0
248 208 0
247 208 0
246 209 0
245 211 0
243 212 0
242 214 0
239 217 0
237 219 0
234 222 0
231 225 0
228 228 0
224 232 0
221 235 0
217 238 0
214 241 0
210 244 0
207 246 0
205 248 0
202 250 0
200 252 0
199 253 0
198 254 0
197 254 0
233 225 0
233 225 0
233 225 0
233 224 0
233 224 0
234 224 0
234 224 0
234 223 0
235 223 0
235 222 0
236 222 0
237 221 0
237 220 0
238 219 0
239 218 0
240 217 0
241 216 0
242 215 0
243 214 0
244 213 0
245 212 0
246 211 0
246 210 0
247 209 0
247 209 0
247 209 0
247 209 0
247 209 0
246 209 0
245 210 0
244 212 0
242 213 0
241 215 0
238 218 0
236 220 0
233 223 0
230 226 0
227 229 0
224 232 0
220 235 0
217 239 0
213 241 0
210 244 0
207 247 0
204 249 0
202 251 0
200 252 0
198 253 0
197 254 0
197 254 0
233 224 0
233 224 0
233 224 0
234 224 0
234 224 0
234 224 0
234 223 0
235 223 0
235 223 0
236 222 0
236 221 0
237 221 0
238 220 0
238 219 0
239 218 0
240 217 0
241 216 0
242 215 0
243 214 0
244 213 0
245 212 0
245 212 0
246 211 0
246 210 0
246 210 0
247 210 0
246 210 0
246 210 0
245 211 0
244 212 0
243 213 0
242 215 0
240 216 0
238 219 0
235 221 0
232 224 0
229 227 0
226 230 0
223 233 0
220 236 0
216 239 0
213 242 0
210 244 0
207 247 0
204 249 0
202 251 0
200 252 0
198 253 0
197 254 0
197 255 0
234 224 0
234 224 0
234 224 0
234 224 0
234 223 0
234 223 0
235 223 0
235 222 0
236 222 0
236 222 0
237 221 0
237 220 0
238 220 0
239 219 0
239 218 0
240 217 0
241 216 0
242 216 0
243 215 0
243 214 0
244 213 0
245 212 0
245 212 0
246 211 0
246 211 0
246 211 0
245 211 0
245 211 0
244 212 0
243 213 0
242 214 0
241 216 0
239 218 0
237 220 0
234 222 0
232 225 0
229 227 0
226 230 0
223 233 0
219 236 0
216 239 0
213 242 0
210 244 0
207 247 0
204 249 0
202 251 0
200 252 0
199 253 0
198 254 0
197 254 0
234 223 0
234 223 0
235 223 0
235 223 0
235 223 0
235 222 0
235 222 0
236 222 0
236 221 0
237 221 0
237 220 0
238 220 0
238 219 0
239 219 0
240 218 0
240 217 0
241 216 0
242 215 0
243 215 0
243 214 0
244 213 0
244 213 0
245 212 0
245 212 0
245 212 0
245 212 0
245 212 0
244 212 0
243 213 0
242 214 0
241 215 0
240 217 0
238 219 0
236 221 0
234 223 0
231 225 0
228 228 0
226 231 0
223 234 0
219 236 0
216 239 0
213 242 0
210 244 0
207 246 0
205 248 0
203 250 0
201 252 0
199 253 0
198 253 0
198 254 0
235 222 0
235 222 0
235 222 0
235 222 0
236 222 0
236 222 0
236 221 0
236 221 0
237 221 0
237 220 0
238 220 0
238 219 0
239 219 0
240 218 0
240 217 0
241 217 0
241 216 0
242 215 0
243 215 0
243 214 0
244 214 0
244 213 0
244 213 0
244 213 0
244 213 0
244 213 0
244 213 0
243 213 0
242 214 0
241 215 0
240 216 0
239 218 0
237 219 0
235 221 0
233 224 0
231 226 0
228 228 0
225 231 0
223 234 0
220 236 0
217 239 0
214 241 0
211 244 0
208 246 0
206 248 0
204 249 0
202 251 0
201 252 0
200 253 0
199 253 0
236 221 0
236 221 0
236 221 0
236 221 0
237 221 0
237 221 0
237 220 0
237 220 0
238 220 0
238 219 0
239 219 0
239 218 0
240 218 0
240 217 0
241 217 0
241 216 0
242 216 0
242 215 0
243 215 0
243 214 0
243 214 0
244 213 0
244 213 0
244 213 0
244 213 0
243 214 0
243 214 0
242 214 0
242 215 0
241 216 0
239 217 0
238 219 0
236 220 0
235 222 0
233 224 0
230 226 0
228 229 0
226 231 0
223 233 0
220 236 0
217 238 0
215 241 0
212 243 0
209 245 0
207 247 0
205 248 0
204 250 0
202 251 0
201 251 0
201 252 0
237 220 0
237 220 0
237 220 0
237 220 0
238 220 0
238 220 0
238 219 0
238 219 0
239 219 0
239 218 0
239 218 0
240 218 0
240 217 0
241 217 0
241 216 0
242 216 0
242 215 0
242 215 0
243 214 0
243 214 0
243 214 0
243 214 0
243 214 0
243 214 0
243 214 0
243 214 0
242 215 0
242 215 0
241 216 0
240 217 0
239 218 0
237 220 0
236 221 0
234 223 0
232 225 0
230 226 0
228 229 0
226 231 0
223 233 0
221 235 0
218 238 0
216 240 0
213 242 0
211 244 0
209 245 0
207 247 0
206 248 0
204 249 0
204 250 0
203 250 0
238 219 0
238 219 0
238 219 0
238 219 0
239 219 0
239 218 0
239 218 0
239 218 0
239 218 0
240 217 0
240 217 0
241 217 0
241 216 0
241 216 0
242 216 0
242 215 0
243 215 0
243 215 0
243 214 0
243 214 0
243 214 0
243 214 0
243 214 0
243 214 0
243 215 0
242 215 0
242 216 0
241 216 0
240 217 0
239 218 0
238 219 0
237 220 0
236 222 0
234 223 0
232 225 0
230 227 0
228 228 0
226 230 0
224 232 0
222 234 0
220 237 0
217 239 0
215 240 0
213 242 0
211 244 0
209 245 0
208 246 0
207 247 0
206 248 0
206 248 0
239 218 0
239 218 0
239 218 0
239 218 0
240 217 0
240 217 0
240 217 0
240 217 0
240 217 0
241 216 0
241 216 0
241 216 0
242 216 0
242 215 0
242 215 0
243 215 0
243 214 0
243 214 0
243 214 0
243 214 0
243 214 0
243 214 0
243 214 0
243 215 0
242 215 0
242 216 0
241 216 0
241 217 0
240 218 0
239 219 0
238 220 0
237 221 0
235 222 0
234 223 0
232 225 0
231 226 0
229 228 0
227 230 0
225 232 0
223 233 0
221 235 0
219 237 0
217 239 0
215 240 0
213 242 0
212 243 0
211 244 0
210 245 0
209 246 0
209 246 0
240 217 0
240 217 0
240 217 0
240 216 0
240 216 0
241 216 0
241 216 0
241 216 0
241 216 0
242 216 0
242 215 0
242 215 0
242 215 0
243 214 0
243 214 0
243 214 0
243 214 0
244 214 0
244 214 0
244 214 0
243 214 0
243 214 0
243 215 0
243 215 0
242 215 0
242 216 0
241 217 0
240 217 0
239 218 0
238 219 0
238 220 0
236 221 0
235 222 0
234 223 0
233 225 0
231 226 0
230 227 0
228 229 0
226 230 0
225 232 0
223 234 0
221 235 0
219 237 0
218 238 0
216 240 0
215 241 0
214 242 0
213 242 0
212 243 0
212 243 0
241 216 0
241 216 0
241 216 0
241 215 0
241 215 0
242 215 0
242 215 0
242 215 0
242 215 0
242 215 0
243 214 0
243 214 0
243 214 0
243 214 0
244 213 0
244 213 0
244 213 0
244 213 0
244 213 0
244 214 0
244 214 0
243 214 0
243 215 0
242 215 0
242 216 0
241 216 0
241 217 0
240 218 0
239 219 0
238 219 0
237 220 0
237 221 0
236 222 0
234 223 0
233 224 0
232 225 0
231 226 0
229 228 0
228 229 0
226 230 0
225 232 0
223 233 0
222 235 0
220 236 0
219 237 0
218 238 0
217 239 0
216 240 0
216 240 0
215 240 0
242 215 0
242 215 0
242 215 0
242 215 0
242 215 0
242 214 0
242 214 0
243 214 0
243 214 0
243 214 0
243 214 0
244 213 0
244 213 0
244 213 0
244 213 0
244 213 0
244 213 0
244 213 0
244 213 0
244 213 0
244 214 0
243 214 0
243 215 0
243 215 0
242 216 0
241 217 0
241 217 0
240 218 0
239 219 0
238 219 0
238 220 0
237 221 0
236 222 0
235 223 0
234 223 0
233 224 0
232 225 0
231 226 0
230 227 0
228 229 0
227 230 0
226 231 0
225 232 0
223 233 0
222 234 0
221 235 0
220 236 0
220 236 0
219 237 0
219 237 0
243 214 0
243 214 0
243 214 0
243 214 0
243 214 0
243 214 0
243 214 0
243 213 0
244 213 0
244 213 0
244 213 0
244 213 0
244 213 0
245 212 0
245 212 0
245 212 0
245 212 0
245 212 0
245 213 0
244 213 0
244 213 0
244 214 0
243 214 0
243 215 0
242 216 0
241 217 0
241 217 0
240 218 0
239 219 0
239 219 0
238 220 0
237 221 0
236 221 0
236 222 0
235 223 0
234 223 0
233 224 0
232 225 0
232 226 0
231 226 0
230 227 0
228 228 0
227 229 0
226 230 0
225 231 0
225 232 0
224 233 0
223 233 0
223 234 0
223 234 0
243 213 0
243 213 0
243 213 0
243 213 0
243 213 0
244 213 0
244 213 0
244 213 0
244 213 0
244 212 0
245 212 0
245 212 0
245 212 0
245 212 0
245 212 0
245 212 0
245 212 0
245 212 0
245 212 0
245 213 0
244 213 0
244 214 0
243 214 0
243 215 0
242 216 0
242 216 0
241 217 0
240 218 0
240 218 0
239 219 0
238 220 0
238 220 0
237 221 0
237 221 0
236 221 0
235 222 0
235 222 0
234 223 0
234 224 0
233 224 0
232 225 0
231 226 0
230 227 0
229 227 0
229 228 0
228 229 0
227 229 0
227 230 0
227 230 0
226 230 0
243 213 0
243 213 0
244 213 0
244 213 0
244 213 0
244 213 0
244 213 0
244 212 0
245 212 0
245 212 0
245 212 0
245 212 0
245 212 0
246 211 0
246 211 0
246 211 0
246 211 0
246 212 0
245 212 0
245 212 0
245 213 0
244 213 0
244 214 0
243 215 0
242 216 0
242 216 0
241 217 0
241 218 0
240 218 0
239 219 0
239 219 0
238 219 0
238 220 0
238 220 0
237 220 0
237 220 0
237 221 0
236 221 0
236 221 0
235 222 0
234 222 0
234 223 0
233 224 0
233 224 0
232 225 0
231 225 0
231 226 0
230 226 0
230 227 0
230 227 0
244 213 0
244 213 0
244 213 0
244 213 0
244 213 0
244 212 0
244 212 0
245 212 0
245 212 0
245 212 0
245 212 0
246 211 0
246 211 0
246 211 0
246 211 0
246 211 0
246 211 0
246 211 0
246 212 0
245 212 0
245 213 0
245 213 0
244 214 0
243 214 0
243 215 0
242 216 0
242 217 0
241 217 0
240 218 0
240 218 0
240 218 0
239 218 0
239 219 0
239 219 0
239 219 0
238 219 0
238 219 0
238 219 0
238 219 0
237 220 0
237 220 0
236 220 0
236 221 0
236 221 0
235 222 0
235 222 0
234 223 0
234 223 0
234 223 0
234 223 0
244 213 0
244 213 0
244 213 0
244 213 0
244 213 0
244 212 0
244 212 0
245 212 0
245 212 0
245 212 0
245 211 0
246 211 0
246 211 0
246 211 0
246 211 0
246 211 0
246 211 0
246 211 0
246 211 0
246 212 0
245 212 0
245 213 0
244 213 0
244 214 0
243 215 0
243 215 0
242 216 0
242 217 0
241 217 0
241 217 0
241 217 0
240 217 0
240 217 0
240 217 0
240 217 0
240 217 0
240 217 0
240 217 0
240 217 0
240 217 0
239 217 0
239 218 0
239 218 0
238 218 0
238 219 0
238 219 0
237 219 0
237 220 0
237 220 0
237 220 0
244 213 0
244 213 0
244 213 0
244 213 0
244 213 0
244 213 0
244 212 0
245 212 0
245 212 0
245 212 0
246 211 0
246 211 0
246 211 0
246 211 0
246 211 0
246 211 0
246 211 0
246 211 0
246 211 0
246 212 0
245 212 0
245 213 0
245 213 0
244 214 0
244 214 0
243 215 0
243 215 0
242 216 0
242 216 0
242 216 0
241 216 0
241 216 0
241 216 0
241 216 0
241 216 0
242 215 0
242 215 0
242 215 0
242 215 0
242 215 0
242 215 0
241 215 0
241 215 0
241 215 0
241 216 0
241 216 0
240 216 0
240 216 0
240 217 0
240 217 0
243 213 0
243 213 0
244 213 0
244 213 0
244 213 0
244 213 0
244 213 0
245 212 0
245 212 0
245 212 0
245 212 0
246 211 0
246 211 0
246 211 0
246 211 0
246 211 0
246 211 0
246 211 0
246 211 0
246 211 0
246 212 0
245 212 0
245 213 0
244 213 0
244 214 0
243 214 0
243 215 0
243 215 0
243 215 0
242 215 0
242 215 0
242 215 0
242 215 0
243 215 0
243 214 0
243 214 0
243 213 0
243 213 0
244 213 0
244 212 0
244 212 0
244 212 0
244 212 0
244 213 0
243 213 0
243 213 0
243 213 0
243 213 0
243 214 0
243 214 0
243 214 0
243 214 0
243 214 0
243 214 0
244 213 0
244 213 0
244 213 0
244 213 0
245 212 0
245 212 0
245 212 0
246 212 0
246 211 0
246 211 0
246 211 0
246 211 0
246 211 0
246 211 0
246 211 0
246 211 0
246 212 0
245 212 0
245 213 0
245 213 0
244 213 0
244 214 0
244 214 0
243 214 0
243 214 0
243 214 0
243 214 0
243 214 0
244 214 0
244 213 0
244 213 0
244 212 0
245 212 0
245 211 0
245 211 0
246 210 0
246 210 0
246 210 0
246 210 0
246 210 0
246 210 0
246 210 0
245 211 0
245 211 0
245 211 0
245 211 0
243 214 0
243 214 0
243 214 0
243 214 0
243 214 0
243 214 0
244 213 0
244 213 0
244 213 0
245 213 0
245 212 0
245 212 0
246 212 0
246 211 0
246 211 0
246 211 0
246 211 0
246 211 0
246 211 0
246 211 0
246 212 0
246 212 0
245 212 0
245 213 0
245 213 0
244 213 0
244 214 0
244 214 0
244 214 0
244 214 0
244 213 0
244 213 0
245 212 0
245 212 0
245 211 0
246 210 0
246 210 0
247 209 0
247 209 0
247 208 0
247 208 0
248 208 0
248 208 0
248 208 0
248 208 0
248 208 0
247 208 0
247 208 0
247 208 0
247 208 0
242 215 0
242 215 0
242 215 0
243 215 0
243 214 0
243 214 0
243 214 0
243 214 0
244 213 0
244 213 0
244 213 0
245 212 0
245 212 0
245 212 0
246 212 0
246 211 0
246 211 0
246 211 0
246 211 0
246 211 0
246 212 0
246 212 0
245 212 0
245 213 0
245 213 0
245 213 0
245 213 0
245 213 0
245 213 0
245 213 0
245 212 0
245 212 0
246 211 0
246 211 0
246 210 0
247 209 0
247 208 0
248 208 0
248 207 0
249 207 0
249 206 0
249 206 0
249 206 0
249 206 0
249 206 0
249 206 0
249 206 0
249 206 0
249 206 0
249 206 0
242 215 0
242 215 0
242 215 0
242 215 0
242 215 0
242 215 0
243 215 0
243 214 0
243 214 0
244 214 0
244 213 0
244 213 0
245 213 0
245 212 0
245 212 0
245 212 0
246 212 0
246 212 0
246 212 0
246 212 0
246 212 0
245 212 0
245 212 0
245 212 0
245 213 0
245 213 0
245 213 0
245 213 0
245 212 0
245 212 0
246 211 0
246 211 0
246 210 0
247 209 0
247 209 0
248 208 0
249 207 0
249 206 0
249 206 0
250 205 0
250 205 0
250 205 0
251 204 0
251 204 0
251 204 0
251 204 0
251 204 0
251 205 0
251 205 0
251 205 0
241 216 0
241 216 0
241 216 0
242 216 0
242 216 0
242 215 0
242 215 0
242 215 0
243 215 0
243 214 0
243 214 0
244 214 0
244 213 0
244 213 0
245 213 0
245 212 0
245 212 0
245 212 0
245 212 0
245 212 0
245 212 0
245 212 0
245 212 0
245 212 0
245 212 0
245 212 0
245 212 0
245 212 0
245 212 0
246 211 0
246 211 0
247 210 0
247 209 0
248 209 0
248 208 0
249 207 0
249 206 0
250 205 0
250 205 0
251 204 0
251 204 0
251 203 0
252 203 0
252 203 0
252 203 0
252 203 0
252 203 0
252 203 0
252 203 0
252 203 0
241 217 0
241 216 0
241 216 0
241 216 0
241 216 0
241 216 0
242 216 0
242 216 0
242 215 0
242 215 0
243 215 0
243 214 0
243 214 0
244 214 0
244 213 0
244 213 0
244 213 0
245 213 0
245 213 0
245 213 0
245 213 0
245 213 0
245 213 0
245 213 0
245 213 0
245 212 0
245 212 0
245 212 0
246 211 0
246 211 0
247 210 0
247 210 0
248 209 0
248 208 0
249 207 0
249 206 0
250 205 0
251 205 0
251 204 0
251 203 0
252 203 0
252 203 0
252 202 0
252 202 0
253 202 0
253 202 0
253 202 0
253 202 0
253 202 0
253 202 0
240 217 0
240 217 0
241 217 0
241 217 0
241 217 0
241 217 0
241 217 0
241 216 0
241 216 0
242 216 0
242 216 0
242 215 0
243 215 0
243 215 0
243 214 0
243 214 0
244 214 0
244 214 0
244 213 0
244 213 0
244 213 0
244 213 0
245 213 0
245 213 0
245 213 0
245 213 0
245 212 0
246 212 0
246 211 0
246 211 0
247 210 0
247 209 0
248 208 0
249 207 0
249 207 0
250 206 0
250 205 0
251 204 0
252 203 0
252 203 0
252 202 0
253 202 0
253 202 0
253 202 0
253 202 0
253 202 0
253 202 0
253 202 0
253 202 0
253 202 0
240 217 0
240 217 0
240 217 0
240 217 0
240 217 0
240 217 0
240 217 0
241 217 0
241 217 0
241 217 0
241 216 0
242 216 0
242 216 0
242 216 0
242 215 0
243 215 0
243 215 0
243 215 0
243 214 0
244 214 0
244 214 0
244 214 0
244 214 0
244 213 0
245 213 0
245 213 0
245 212 0
245 212 0
246 211 0
246 211 0
247 210 0
248 209 0
248 208 0
249 207 0
249 206 0
250 205 0
251 205 0
251 204 0
252 203 0
252 203 0
253 202 0
253 202 0
253 202 0
253 201 0
253 201 0
253 201 0
253 201 0
253 201 0
253 201 0
253 201 0
240 218 0
240 218 0
240 218 0
240 218 0
240 218 0
240 218 0
240 218 0
240 218 0
240 217 0
240 217 0
241 217 0
241 217 0
241 217 0
241 217 0
242 216 0
242 216 0
242 216 0
242 215 0
243 215 0
243 215 0
243 215 0
243 215 0
244 214 0
244 214 0
244 214 0
244 213 0
245 213 0
245 212 0
246 211 0
246 211 0
247 210 0
248 209 0
248 208 0
249 207 0
250 206 0
250 205 0
251 205 0
251 204 0
252 203 0
252 203 0
253 202 0
253 202 0
253 202 0
253 201 0
253 201 0
253 201 0
253 201 0
253 201 0
253 201 0
253 201 0
240 218 0
240 218 0
240 218 0
240 218 0
240 218 0
239 218 0
239 218 0
240 218 0
240 218 0
240 218 0
240 218 0
240 218 0
240 218 0
240 217 0
241 217 0
241 217 0
241 217 0
241 216 0
242 216 0
242 216 0
242 216 0
243 215 0
243 215 0
243 215 0
244 214 0
244 214 0
244 213 0
245 212 0
246 212 0
246 211 0
247 210 0
247 209 0
248 208 0
249 207 0
249 207 0
250 206 0
251 205 0
251 204 0
252 203 0
252 203 0
253 202 0
253 202 0
253 202 0
253 202 0
253 202 0
253 202 0
253 202 0
253 202 0
253 202 0
253 202 0
239 218 0
239 218 0
239 218 0
239 218 0
239 218 0
239 218 0
239 219 0
239 219 0
239 219 0
239 219 0
239 219 0
239 219 0
239 219 0
239 218 0
240 218 0
240 218 0
240 218 0
240 218 0
241 217 0
241 217 0
241 217 0
242 216 0
242 216 0
243 215 0
243 215 0
244 214 0
244 214 0
245 213 0
245 212 0
246 211 0
246 211 0
247 210 0
248 209 0
249 208 0
249 207 0
250 206 0
251 205 0
251 205 0
252 204 0
252 203 0
252 203 0
253 203 0
253 202 0
253 202 0
253 202 0
253 202 0
253 202 0
253 202 0
253 202 0
253 202 0
239 218 0
239 218 0
239 218 0
239 218 0
239 218 0
239 219 0
239 219 0
239 219 0
239 219 0
238 219 0
238 219 0
238 219 0
239 219 0
239 219 0
239 219 0
239 219 0
239 219 0
240 219 0
240 218 0
240 218 0
241 218 0
241 217 0
241 217 0
242 216 0
242 216 0
243 215 0
244 214 0
244 214 0
245 213 0
245 212 0
246 211 0
247 210 0
248 209 0
248 208 0
249 207 0
250 207 0
250 206 0
251 205 0
251 204 0
252 204 0
252 204 0
252 203 0
252 203 0
253 203 0
253 203 0
253 203 0
253 203 0
253 203 0
253 203 0
253 203 0
239 218 0
239 218 0
239 218 0
239 218 0
239 219 0
239 219 0
238 219 0
238 219 0
238 220 0
238 220 0
238 220 0
238 220 0
238 220 0
238 220 0
238 220 0
238 220 0
238 220 0
239 220 0
239 219 0
239 219 0
240 219 0
240 218 0
241 218 0
241 217 0
242 216 0
242 216 0
243 215 0
244 214 0
244 213 0
245 212 0
246 212 0
246 211 0
247 210 0
248 209 0
249 208 0
249 207 0
250 206 0
250 206 0
251 205 0
251 205 0
251 204 0
252 204 0
252 204 0
252 204 0
252 203 0
252 203 0
252 203 0
252 203 0
252 203 0
252 203 0
239 218 0
239 218 0
239 218 0
239 218 0
239 219 0
238 219 0
238 219 0
238 220 0
238 220 0
237 220 0
237 221 0
237 221 0
237 221 0
237 221 0
237 221 0
237 221 0
237 221 0
238 221 0
238 220 0
238 220 0
239 219 0
239 219 0
240 218 0
240 218 0
241 217 0
242 216 0
242 216 0
243 215 0
244 214 0
245 213 0
245 212 0
246 211 0
247 210 0
248 209 0
248 209 0
249 208 0
249 207 0
250 206 0
250 206 0
251 205 0
251 205 0
251 205 0
251 204 0
252 204 0
252 204 0
252 204 0
252 204 0
252 204 0
252 204 0
252 204 0
239 218 0
239 218 0
239 218 0
239 218 0
239 219 0
238 219 0
238 220 0
238 220 0
237 220 0
237 221 0
237 221 0
237 221 0
236 222 0
236 222 0
236 222 0
237 222 0
237 222 0
237 221 0
237 221 0
238 221 0
238 220 0
239 220 0
239 219 0
240 219 0
240 218 0
241 217 0
242 216 0
243 215 0
243 215 0
244 214 0
245 213 0
246 212 0
246 211 0
247 210 0
248 209 0
248 208 0
249 208 0
249 207 0
250 206 0
250 206 0
251 206 0
251 205 0
251 205 0
251 205 0
251 205 0
251 205 0
251 205 0
251 205 0
251 205 0
251 205 0
240 218 0
239 218 0
239 218 0
239 218 0
239 219 0
238 219 0
238 220 0
237 220 0
237 221 0
237 221 0
236 222 0
236 222 0
236 222 0
236 222 0
236 223 0
236 222 0
236 222 0
236 222 0
237 222 0
237 222 0
238 221 0
238 221 0
239 220 0
239 219 0
240 218 0
241 218 0
241 217 0
242 216 0
243 215 0
244 214 0
245 213 0
245 212 0
246 211 0
247 210 0
247 210 0
248 209 0
249 208 0
249 208 0
249 207 0
250 207 0
250 206 0
250 206 0
251 206 0
251 206 0
251 205 0
251 205 0
251 205 0
251 205 0
251 205 0
251 205 0
240 217 0
239 218 0
239 218 0
239 218 0
239 219 0
238 219 0
238 220 0
237 220 0
237 221 0
236 221 0
236 222 0
236 222 0
236 223 0
235 223 0
235 223 0
235 223 0
236 223 0
236 223 0
236 222 0
237 222 0
237 222 0
238 221 0
238 220 0
239 220 0
240 219 0
240 218 0
241 217 0
242 216 0
243 215 0
243 215 0
244 214 0
245 213 0
246 212 0
246 211 0
247 210 0
248 209 0
248 209 0
249 208 0
249 207 0
250 207 0
250 207 0
250 206 0
250 206 0
250 206 0
250 206 0
250 206 0
250 206 0
250 206 0
250 206 0
250 206 0
240 217 0
240 217 0
239 218 0
239 218 0
239 219 0
238 219 0
238 220 0
237 220 0
237 221 0
236 222 0
236 222 0
236 223 0
235 223 0
235 223 0
235 223 0
235 223 0
235 223 0
235 223 0
236 223 0
236 222 0
237 222 0
237 221 0
238 221 0
239 220 0
239 219 0
240 218 0
241 218 0
242 217 0
242 216 0
243 215 0
244 214 0
245 213 0
246 212 0
246 211 0
247 210 0
247 210 0
248 209 0
249 208 0
249 208 0
249 207 0
250 207 0
250 207 0
250 207 0
250 206 0
250 206 0
250 206 0
250 206 0
250 206 0
250 206 0
250 206 0
240 217 0
240 217 0
239 218 0
239 218 0
239 219 0
238 219 0
238 220 0
237 220 0
237 221 0
236 222 0
236 222 0
235 223 0
235 223 0
235 223 0
235 224 0
235 224 0
235 224 0
235 223 0
236 223 0
236 223 0
237 222 0
237 222 0
238 221 0
238 220 0
239 220 0
240 219 0
241 218 0
241 217 0
242 216 0
243 215 0
244 214 0
245 213 0
245 212 0
246 211 0
247 211 0
247 210 0
248 209 0
248 209 0
249 208 0
249 208 0
249 207 0
250 207 0
250 207 0
250 207 0
250 207 0
250 206 0
250 206 0
250 206 0
250 206 0
250 206 0
