P3
50 50
255
221 235 0
221 234 0
220 234 0
220 233 0
221 232 0
221 232 0
222 232 0
223 232 0
223 232 0
223 231 0
222 231 0
221 230 0
219 229 0
217 228 0
214 226 0
212 226 0
211 226 0
211 227 0
213 228 0
217 231 0
221 235 0
226 239 0
232 242 0
237 246 0
243 249 0
247 252 0
250 253 0
252 254 0
252 254 0
250 252 0
247 250 0
243 248 0
239 245 0
234 241 0
229 238 0
224 234 0
219 231 0
215 228 0
211 225 0
207 223 0
204 220 0
202 218 0
199 216 0
197 215 0
196 213 0
195 213 0
195 212 0
195 212 0
195 212 0
196 212 0
220 234 0
220 234 0
220 233 0
220 232 0
220 232 0
220 231 0
221 231 0
222 231 0
222 231 0
222 231 0
222 231 0
220 230 0
218 229 0
216 227 0
214 226 0
212 226 0
211 226 0
211 226 0
213 228 0
216 231 0
221 235 0
226 238 0
231 242 0
237 246 0
242 249 0
247 251 0
250 253 0
251 253 0
251 253 0
250 252 0
246 250 0
242 247 0
238 244 0
233 241 0
228 237 0
223 234 0
219 231 0
214 228 0
210 225 0
207 222 0
204 220 0
201 218 0
199 216 0
197 215 0
196 214 0
196 213 0
196 213 0
196 213 0
197 213 0
197 213 0
218 233 0
218 233 0
218 232 0
218 231 0
218 231 0
219 230 0
220 230 0
220 230 0
221 230 0
221 230 0
221 230 0
219 229 0
218 228 0
215 227 0
213 226 0
212 225 0
211 225 0
211 226 0
213 228 0
216 231 0
221 234 0
226 238 0
231 242 0
236 245 0
242 248 0
246 251 0
249 252 0
250 253 0
250 252 0
248 251 0
245 249 0
241 246 0
236 243 0
231 240 0
227 236 0
222 233 0
217 230 0
213 227 0
209 224 0
206 221 0
203 219 0
200 217 0
199 216 0
197 214 0
197 214 0
197 213 0
197 214 0
198 214 0
199 214 0
199 215 0
216 231 0
216 231 0
216 230 0
216 230 0
216 229 0
217 229 0
217 229 0
218 229 0
219 229 0
219 229 0
219 229 0
218 228 0
217 228 0
215 226 0
213 226 0
211 225 0
210 225 0
211 226 0
213 228 0
216 231 0
220 234 0
225 238 0
231 241 0
236 245 0
241 248 0
245 250 0
247 251 0
249 252 0
248 251 0
246 250 0
243 248 0
239 245 0
234 242 0
229 239 0
225 235 0
220 232 0
215 229 0
211 226 0
207 223 0
204 220 0
201 218 0
199 216 0
198 215 0
197 214 0
197 214 0
197 214 0
199 214 0
200 215 0
201 216 0
202 216 0
213 229 0
213 228 0
213 228 0
213 228 0
214 227 0
214 227 0
215 227 0
216 228 0
217 228 0
218 228 0
218 228 0
217 228 0
215 227 0
214 226 0
212 225 0
211 224 0
210 225 0
211 225 0
212 227 0
216 230 0
220 233 0
225 237 0
230 240 0
235 244 0
240 247 0
244 249 0
246 250 0
247 251 0
247 250 0
244 249 0
241 246 0
237 244 0
232 241 0
228 238 0
223 234 0
218 231 0
213 228 0
209 224 0
205 221 0
202 219 0
199 216 0
197 215 0
196 213 0
196 213 0
196 213 0
197 213 0
199 214 0
201 215 0
202 216 0
203 217 0
209 226 0
210 226 0
210 226 0
211 226 0
211 226 0
212 226 0
213 226 0
214 226 0
215 227 0
216 227 0
216 227 0
216 227 0
215 226 0
213 225 0
211 225 0
210 224 0
209 224 0
210 225 0
212 227 0
215 229 0
219 232 0
224 236 0
229 240 0
234 243 0
239 246 0
242 248 0
245 249 0
246 249 0
245 249 0
243 247 0
240 245 0
235 243 0
231 240 0
226 236 0
221 233 0
216 230 0
212 226 0
207 223 0
203 220 0
199 217 0
197 215 0
195 213 0
194 212 0
194 211 0
195 211 0
196 212 0
198 213 0
200 215 0
202 216 0
203 216 0
206 224 0
207 224 0
207 224 0
208 224 0
209 224 0
210 224 0
212 225 0
213 225 0
214 226 0
215 226 0
215 226 0
215 226 0
214 226 0
212 225 0
211 224 0
209 223 0
209 223 0
209 224 0
211 226 0
213 228 0
218 231 0
222 235 0
228 238 0
233 242 0
237 245 0
241 247 0
243 248 0
244 248 0
244 248 0
242 246 0
238 244 0
234 242 0
230 239 0
225 236 0
220 232 0
215 229 0
210 226 0
206 222 0
201 219 0
197 216 0
194 213 0
192 211 0
191 210 0
191 209 0
192 209 0
194 210 0
196 212 0
198 213 0
200 214 0
201 215 0
204 221 0
204 221 0
205 222 0
206 222 0
207 222 0
209 223 0
210 223 0
211 224 0
213 224 0
213 225 0
214 225 0
214 225 0
213 225 0
211 224 0
210 223 0
208 223 0
208 223 0
208 223 0
209 225 0
212 227 0
216 230 0
221 234 0
226 237 0
231 241 0
236 243 0
240 245 0
242 247 0
243 247 0
243 247 0
241 246 0
238 244 0
234 241 0
230 239 0
225 236 0
220 232 0
215 229 0
210 225 0
205 221 0
200 218 0
196 214 0
192 211 0
190 209 0
189 208 0
189 207 0
189 207 0
191 208 0
192 209 0
194 210 0
196 211 0
197 212 0
202 219 0
202 220 0
203 220 0
205 220 0
206 221 0
208 222 0
209 222 0
210 223 0
211 223 0
212 224 0
212 224 0
212 224 0
211 224 0
210 223 0
209 222 0
207 222 0
206 222 0
206 222 0
208 223 0
210 226 0
214 229 0
219 232 0
224 236 0
229 239 0
234 242 0
238 244 0
241 246 0
242 246 0
242 246 0
240 245 0
238 244 0
234 241 0
230 239 0
226 236 0
221 233 0
216 229 0
210 225 0
205 222 0
200 218 0
195 214 0
191 210 0
188 208 0
187 206 0
186 205 0
186 204 0
187 205 0
188 206 0
190 206 0
191 207 0
192 208 0
201 218 0
201 218 0
203 219 0
204 219 0
205 220 0
207 220 0
208 221 0
209 222 0
210 222 0
210 222 0
211 223 0
210 223 0
210 223 0
208 222 0
207 221 0
206 221 0
205 220 0
205 221 0
206 222 0
208 224 0
212 227 0
217 231 0
222 234 0
228 238 0
232 241 0
237 243 0
240 245 0
241 246 0
241 246 0
240 245 0
238 244 0
235 242 0
232 240 0
227 237 0
222 234 0
217 230 0
212 227 0
206 222 0
200 218 0
195 214 0
191 210 0
187 207 0
185 204 0
184 203 0
183 202 0
183 202 0
184 202 0
185 202 0
185 203 0
186 203 0
200 217 0
201 218 0
202 218 0
203 218 0
205 219 0
206 219 0
207 220 0
207 220 0
208 221 0
208 221 0
208 221 0
208 221 0
207 221 0
206 221 0
205 220 0
204 220 0
203 219 0
203 220 0
205 221 0
207 223 0
211 226 0
215 230 0
221 233 0
226 237 0
231 240 0
235 242 0
238 244 0
240 245 0
241 245 0
241 245 0
239 244 0
237 243 0
234 241 0
230 238 0
225 236 0
220 232 0
214 228 0
208 224 0
202 219 0
196 215 0
191 210 0
187 206 0
184 203 0
182 201 0
180 199 0
180 199 0
180 198 0
180 198 0
180 198 0
180 198 0
200 217 0
201 217 0
202 217 0
203 218 0
204 218 0
205 218 0
205 219 0
206 219 0
206 219 0
206 219 0
206 219 0
206 219 0
205 219 0
204 219 0
203 219 0
202 219 0
202 219 0
203 219 0
204 221 0
206 223 0
210 226 0
215 229 0
220 232 0
225 236 0
230 239 0
234 241 0
237 243 0
239 244 0
241 245 0
241 245 0
240 244 0
238 243 0
236 242 0
232 240 0
228 237 0
223 234 0
217 230 0
210 226 0
204 221 0
198 216 0
192 211 0
187 207 0
183 203 0
180 200 0
178 197 0
176 196 0
176 195 0
175 194 0
175 194 0
174 194 0
200 216 0
200 217 0
201 217 0
202 217 0
203 217 0
204 217 0
204 218 0
204 218 0
204 218 0
204 218 0
204 218 0
203 218 0
203 218 0
202 218 0
202 218 0
202 218 0
202 218 0
202 219 0
204 221 0
207 223 0
210 226 0
214 229 0
219 232 0
224 235 0
229 238 0
232 240 0
236 242 0
238 243 0
239 244 0
240 244 0
240 244 0
239 244 0
237 243 0
234 241 0
230 239 0
225 236 0
220 232 0
213 227 0
206 222 0
199 217 0
193 212 0
187 207 0
183 202 0
179 199 0
176 196 0
174 194 0
172 192 0
171 191 0
170 190 0
170 190 0
200 216 0
200 216 0
201 216 0
201 217 0
202 217 0
203 217 0
203 217 0
203 217 0
203 217 0
202 217 0
202 217 0
202 217 0
202 217 0
202 218 0
202 218 0
202 218 0
202 219 0
203 220 0
205 222 0
208 224 0
211 226 0
215 229 0
219 232 0
223 234 0
227 237 0
231 239 0
233 240 0
236 241 0
237 242 0
238 243 0
239 243 0
238 243 0
237 243 0
235 241 0
232 240 0
227 237 0
222 233 0
215 229 0
208 224 0
200 218 0
194 212 0
187 207 0
182 202 0
178 198 0
174 195 0
171 192 0
169 190 0
168 188 0
166 187 0
166 187 0
199 216 0
200 216 0
200 216 0
201 216 0
202 216 0
202 216 0
202 216 0
202 216 0
202 216 0
202 217 0
202 217 0
202 217 0
202 218 0
202 218 0
203 219 0
203 220 0
204 221 0
206 222 0
207 223 0
210 225 0
213 227 0
216 229 0
219 231 0
222 233 0
225 235 0
228 237 0
230 238 0
232 239 0
234 240 0
235 241 0
236 241 0
236 242 0
236 242 0
235 241 0
232 239 0
228 237 0
222 233 0
216 229 0
208 224 0
201 218 0
194 213 0
187 207 0
182 202 0
177 197 0
173 194 0
170 191 0
168 189 0
166 187 0
164 186 0
164 185 0
199 216 0
199 216 0
200 216 0
201 217 0
202 217 0
202 217 0
203 217 0
203 217 0
203 217 0
203 217 0
203 218 0
203 218 0
204 219 0
205 220 0
206 221 0
207 222 0
208 223 0
209 224 0
211 226 0
213 227 0
215 228 0
217 230 0
219 231 0
221 233 0
223 234 0
225 234 0
226 235 0
227 236 0
229 237 0
230 238 0
232 239 0
233 240 0
233 240 0
232 239 0
230 238 0
227 236 0
222 233 0
215 229 0
208 224 0
200 218 0
193 212 0
187 207 0
181 202 0
176 197 0
173 194 0
170 191 0
167 189 0
165 187 0
164 186 0
164 185 0
200 217 0
200 217 0
201 218 0
202 218 0
203 218 0
204 218 0
204 218 0
204 218 0
204 219 0
205 219 0
205 220 0
206 220 0
207 222 0
208 223 0
210 224 0
211 226 0
212 227 0
214 228 0
215 228 0
216 229 0
217 230 0
218 231 0
219 231 0
220 231 0
220 232 0
221 232 0
221 232 0
222 233 0
223 233 0
225 234 0
226 235 0
228 236 0
229 237 0
229 237 0
228 236 0
225 234 0
220 231 0
214 227 0
207 222 0
199 217 0
193 212 0
186 206 0
181 202 0
177 198 0
174 195 0
171 192 0
169 191 0
167 189 0
166 188 0
166 188 0
202 219 0
202 219 0
203 220 0
204 220 0
206 220 0
206 221 0
207 221 0
207 221 0
207 221 0
208 221 0
208 222 0
209 223 0
211 225 0
213 226 0
215 228 0
216 229 0
218 230 0
219 231 0
219 231 0
219 231 0
219 231 0
219 231 0
218 231 0
218 230 0
217 229 0
216 229 0
216 229 0
216 229 0
217 229 0
219 230 0
221 232 0
223 233 0
224 234 0
225 234 0
224 234 0
221 232 0
217 229 0
211 225 0
205 221 0
198 216 0
192 211 0
186 206 0
182 202 0
178 199 0
175 197 0
174 195 0
172 194 0
171 193 0
170 192 0
170 192 0
205 222 0
206 222 0
207 223 0
208 223 0
210 224 0
211 224 0
211 224 0
211 224 0
211 224 0
211 224 0
212 225 0
213 226 0
215 227 0
217 229 0
219 231 0
221 232 0
223 233 0
223 234 0
223 234 0
222 234 0
221 233 0
220 232 0
218 230 0
216 229 0
214 227 0
213 226 0
211 225 0
211 225 0
212 225 0
213 226 0
215 228 0
217 229 0
219 230 0
220 231 0
220 230 0
218 229 0
214 227 0
209 223 0
203 219 0
197 215 0
191 211 0
187 207 0
183 203 0
180 201 0
178 199 0
177 198 0
177 198 0
176 198 0
176 197 0
176 197 0
210 226 0
211 226 0
212 227 0
213 227 0
215 228 0
215 228 0
216 227 0
215 227 0
215 227 0
215 227 0
215 227 0
216 228 0
218 230 0
221 231 0
223 233 0
225 235 0
227 236 0
227 236 0
227 236 0
225 235 0
223 234 0
221 232 0
218 230 0
215 228 0
212 226 0
209 224 0
208 223 0
207 222 0
207 222 0
208 223 0
210 224 0
212 225 0
214 227 0
216 227 0
215 227 0
214 226 0
211 224 0
206 221 0
201 218 0
196 214 0
192 210 0
188 207 0
185 205 0
183 203 0
182 202 0
182 202 0
182 202 0
182 203 0
182 203 0
182 203 0
216 230 0
217 230 0
218 231 0
219 231 0
220 231 0
221 231 0
220 231 0
219 230 0
218 229 0
217 229 0
217 229 0
218 229 0
220 231 0
222 233 0
225 235 0
228 236 0
229 237 0
230 238 0
229 238 0
227 237 0
225 235 0
221 233 0
218 230 0
214 228 0
211 225 0
207 223 0
205 221 0
204 219 0
203 219 0
204 220 0
206 221 0
208 222 0
210 223 0
211 224 0
212 224 0
211 224 0
208 222 0
205 220 0
201 217 0
197 214 0
193 211 0
189 209 0
187 207 0
186 206 0
186 205 0
186 206 0
187 206 0
188 207 0
188 208 0
189 208 0
222 234 0
223 234 0
224 235 0
225 235 0
225 235 0
225 234 0
224 233 0
222 232 0
220 231 0
218 230 0
218 229 0
218 230 0
220 231 0
222 233 0
225 235 0
228 237 0
230 238 0
231 239 0
230 239 0
229 238 0
226 236 0
222 234 0
218 231 0
214 228 0
210 225 0
206 222 0
204 219 0
202 218 0
201 217 0
201 217 0
202 218 0
204 219 0
206 220 0
208 221 0
208 222 0
208 222 0
207 221 0
204 219 0
201 217 0
198 215 0
194 212 0
192 210 0
190 209 0
189 208 0
189 208 0
190 209 0
191 210 0
192 211 0
193 212 0
194 213 0
228 237 0
228 237 0
229 238 0
230 238 0
229 238 0
228 237 0
226 235 0
224 233 0
221 232 0
218 230 0
217 229 0
217 229 0
218 230 0
221 232 0
224 234 0
227 236 0
230 238 0
231 239 0
231 239 0
229 238 0
227 237 0
223 234 0
219 232 0
215 228 0
210 225 0
206 222 0
203 219 0
200 217 0
199 215 0
199 215 0
200 216 0
201 217 0
203 218 0
205 219 0
206 220 0
206 220 0
206 220 0
205 220 0
203 218 0
200 216 0
197 215 0
195 213 0
193 212 0
192 211 0
192 211 0
193 212 0
194 213 0
196 214 0
197 215 0
198 216 0
231 239 0
232 239 0
232 240 0
232 240 0
232 239 0
230 238 0
227 236 0
224 234 0
220 231 0
217 230 0
215 228 0
215 228 0
216 229 0
219 231 0
222 233 0
225 235 0
228 237 0
230 239 0
231 239 0
230 239 0
228 237 0
224 235 0
220 232 0
216 229 0
211 225 0
207 222 0
203 219 0
200 216 0
198 214 0
197 214 0
197 214 0
198 214 0
200 216 0
202 217 0
204 219 0
206 220 0
207 221 0
206 221 0
205 220 0
203 219 0
201 217 0
199 216 0
197 215 0
195 214 0
195 214 0
196 214 0
197 215 0
198 216 0
200 217 0
200 218 0
233 240 0
233 240 0
233 240 0
233 240 0
232 239 0
230 238 0
227 236 0
223 233 0
219 231 0
216 229 0
213 227 0
213 227 0
214 228 0
216 229 0
220 232 0
224 234 0
227 237 0
229 238 0
231 239 0
230 239 0
228 238 0
225 236 0
221 233 0
217 230 0
212 226 0
207 222 0
203 219 0
199 216 0
197 214 0
195 213 0
195 212 0
196 213 0
198 214 0
200 216 0
203 218 0
206 220 0
208 222 0
209 223 0
209 223 0
208 222 0
206 221 0
203 220 0
201 218 0
199 217 0
198 216 0
198 216 0
199 217 0
200 218 0
201 218 0
202 219 0
233 240 0
233 240 0
233 240 0
232 240 0
231 239 0
229 237 0
226 235 0
222 233 0
218 230 0
214 228 0
212 226 0
211 226 0
212 226 0
214 228 0
218 231 0
222 234 0
226 236 0
229 238 0
230 239 0
230 239 0
229 238 0
226 236 0
221 234 0
217 230 0
212 226 0
207 223 0
202 219 0
199 216 0
196 213 0
194 212 0
193 211 0
194 212 0
196 213 0
199 215 0
203 218 0
207 221 0
210 223 0
213 225 0
214 226 0
213 226 0
212 225 0
209 224 0
206 222 0
203 221 0
202 219 0
201 219 0
201 219 0
201 219 0
202 219 0
203 220 0
231 239 0
231 239 0
231 239 0
231 238 0
229 238 0
227 236 0
224 234 0
221 232 0
217 229 0
213 227 0
211 226 0
210 225 0
211 226 0
213 228 0
217 231 0
221 234 0
225 236 0
229 238 0
230 240 0
230 240 0
228 239 0
225 236 0
221 234 0
216 230 0
211 226 0
207 223 0
202 219 0
198 216 0
195 213 0
193 211 0
192 211 0
193 211 0
195 213 0
198 215 0
203 219 0
208 222 0
213 225 0
216 228 0
219 230 0
219 231 0
218 230 0
215 229 0
212 227 0
209 225 0
206 223 0
204 222 0
203 221 0
203 221 0
204 221 0
204 221 0
228 237 0
228 237 0
228 237 0
228 237 0
227 236 0
226 235 0
223 233 0
220 231 0
217 229 0
214 227 0
211 226 0
211 226 0
211 227 0
214 228 0
217 231 0
222 234 0
226 237 0
229 239 0
230 240 0
230 240 0
228 239 0
224 236 0
220 233 0
216 230 0
211 226 0
206 223 0
202 219 0
198 216 0
195 214 0
193 212 0
192 211 0
193 211 0
195 213 0
198 216 0
204 220 0
209 224 0
215 228 0
220 231 0
224 234 0
225 235 0
225 235 0
222 234 0
219 232 0
215 229 0
211 227 0
209 225 0
207 224 0
206 223 0
205 222 0
205 222 0
225 235 0
225 235 0
226 235 0
226 235 0
225 235 0
224 234 0
222 233 0
220 231 0
217 230 0
215 228 0
213 227 0
212 227 0
213 228 0
215 230 0
219 232 0
223 235 0
226 238 0
229 239 0
230 240 0
229 240 0
227 238 0
223 236 0
219 233 0
214 229 0
210 226 0
206 223 0
202 220 0
199 217 0
196 214 0
194 213 0
193 212 0
194 212 0
196 214 0
200 217 0
205 221 0
212 226 0
218 230 0
224 234 0
229 237 0
231 239 0
231 239 0
229 239 0
226 237 0
222 234 0
217 231 0
214 229 0
211 227 0
209 225 0
207 224 0
207 223 0
222 233 0
222 233 0
223 233 0
223 233 0
224 233 0
223 233 0
222 232 0
220 231 0
218 230 0
216 229 0
215 229 0
214 229 0
215 230 0
217 232 0
221 234 0
225 237 0
228 239 0
230 240 0
231 241 0
229 240 0
226 238 0
222 236 0
218 232 0
213 229 0
210 226 0
206 223 0
203 220 0
201 218 0
199 216 0
197 215 0
196 214 0
196 214 0
198 216 0
202 219 0
207 223 0
214 228 0
221 233 0
228 237 0
233 240 0
237 243 0
238 244 0
236 243 0
233 241 0
229 239 0
224 236 0
219 233 0
215 230 0
212 228 0
210 226 0
209 225 0
219 231 0
220 231 0
221 231 0
221 232 0
222 232 0
222 232 0
222 232 0
221 232 0
219 231 0
218 230 0
217 230 0
217 230 0
218 232 0
220 234 0
223 236 0
227 238 0
230 240 0
232 242 0
232 242 0
230 241 0
226 238 0
222 235 0
217 232 0
213 229 0
210 226 0
207 224 0
205 222 0
204 220 0
202 219 0
200 217 0
199 217 0
199 217 0
201 218 0
205 221 0
210 225 0
217 230 0
224 235 0
231 239 0
237 243 0
241 246 0
243 247 0
242 247 0
240 246 0
235 243 0
230 240 0
225 237 0
220 233 0
216 230 0
214 228 0
212 227 0
217 229 0
217 229 0
218 230 0
220 231 0
221 231 0
221 232 0
222 232 0
221 232 0
220 232 0
219 231 0
219 231 0
219 232 0
220 233 0
223 235 0
226 238 0
230 240 0
232 242 0
234 243 0
233 243 0
230 241 0
226 239 0
222 236 0
217 232 0
213 229 0
211 227 0
209 225 0
208 224 0
207 223 0
206 222 0
205 221 0
204 220 0
204 220 0
205 221 0
208 224 0
213 227 0
219 232 0
227 237 0
234 241 0
240 245 0
245 248 0
247 250 0
247 250 0
245 249 0
241 247 0
236 244 0
230 240 0
225 236 0
220 233 0
217 231 0
215 230 0
214 227 0
215 227 0
216 228 0
217 229 0
219 230 0
220 231 0
221 231 0
221 231 0
220 232 0
219 232 0
219 232 0
220 233 0
222 235 0
225 237 0
229 239 0
232 242 0
235 244 0
236 244 0
235 244 0
232 242 0
227 239 0
222 236 0
218 233 0
214 230 0
212 228 0
212 227 0
211 226 0
211 226 0
211 225 0
210 224 0
209 224 0
209 224 0
210 225 0
212 227 0
216 230 0
222 234 0
229 238 0
236 243 0
243 247 0
248 250 0
251 252 0
251 253 0
249 252 0
245 249 0
240 246 0
234 243 0
229 239 0
224 236 0
221 233 0
219 232 0
211 225 0
212 226 0
213 226 0
215 228 0
217 229 0
218 230 0
219 230 0
219 231 0
219 231 0
219 231 0
219 232 0
220 233 0
223 235 0
226 238 0
231 241 0
234 243 0
237 245 0
238 246 0
237 245 0
233 243 0
229 240 0
223 237 0
219 233 0
216 231 0
214 229 0
214 229 0
215 228 0
216 228 0
216 228 0
215 228 0
214 227 0
214 227 0
214 228 0
216 229 0
219 232 0
225 236 0
231 240 0
238 244 0
244 248 0
249 251 0
253 253 0
254 254 0
252 253 0
248 251 0
243 248 0
238 245 0
232 241 0
227 238 0
224 235 0
222 234 0
208 223 0
209 224 0
210 225 0
212 226 0
214 227 0
216 228 0
217 229 0
217 229 0
217 230 0
217 230 0
218 231 0
220 233 0
223 235 0
227 238 0
232 241 0
236 244 0
239 246 0
240 246 0
238 245 0
235 243 0
230 241 0
225 237 0
220 234 0
217 232 0
216 231 0
217 230 0
218 231 0
219 231 0
220 231 0
220 231 0
219 230 0
218 230 0
218 230 0
219 231 0
222 234 0
227 237 0
232 241 0
239 245 0
245 249 0
250 252 0
253 254 0
255 255 0
253 254 0
250 252 0
245 249 0
240 246 0
234 242 0
230 239 0
227 237 0
225 236 0
205 221 0
206 222 0
208 223 0
210 224 0
212 225 0
213 226 0
214 227 0
214 227 0
214 228 0
214 228 0
216 230 0
218 231 0
221 234 0
226 237 0
231 240 0
236 243 0
239 245 0
240 246 0
239 245 0
235 243 0
230 241 0
225 237 0
221 235 0
219 233 0
218 232 0
219 232 0
221 232 0
222 233 0
223 233 0
223 233 0
223 233 0
222 232 0
221 232 0
222 233 0
224 235 0
228 238 0
234 241 0
239 245 0
245 249 0
250 252 0
253 254 0
254 254 0
253 254 0
250 252 0
245 249 0
240 246 0
236 243 0
232 240 0
229 238 0
227 237 0
204 220 0
205 220 0
206 221 0
208 223 0
210 224 0
211 225 0
211 225 0
211 225 0
211 226 0
212 226 0
213 228 0
215 230 0
219 232 0
224 236 0
230 239 0
235 242 0
238 244 0
239 245 0
238 245 0
234 243 0
230 240 0
225 237 0
221 235 0
219 233 0
219 232 0
220 233 0
222 233 0
224 234 0
226 235 0
226 235 0
225 234 0
224 234 0
224 234 0
224 234 0
226 236 0
230 239 0
234 242 0
240 245 0
245 249 0
250 251 0
252 253 0
253 253 0
252 253 0
248 251 0
244 248 0
240 245 0
236 243 0
232 240 0
230 238 0
229 238 0
203 219 0
204 220 0
205 221 0
207 222 0
208 222 0
209 223 0
209 223 0
209 224 0
209 224 0
209 224 0
210 226 0
213 228 0
217 231 0
222 234 0
227 237 0
232 240 0
236 243 0
237 243 0
236 243 0
233 241 0
228 239 0
224 236 0
220 234 0
219 232 0
219 232 0
220 233 0
223 234 0
225 235 0
227 236 0
228 236 0
227 236 0
226 235 0
226 235 0
226 235 0
228 237 0
231 239 0
235 242 0
240 245 0
245 248 0
248 250 0
251 252 0
251 252 0
249 251 0
246 249 0
242 247 0
238 244 0
234 242 0
232 240 0
230 238 0
229 238 0
204 219 0
204 220 0
206 220 0
207 221 0
208 222 0
208 222 0
208 222 0
207 222 0
207 222 0
207 223 0
208 224 0
211 226 0
215 229 0
219 232 0
224 235 0
229 238 0
232 240 0
233 241 0
232 240 0
230 239 0
226 237 0
222 235 0
219 233 0
218 232 0
218 232 0
220 232 0
223 234 0
225 235 0
227 236 0
228 236 0
228 236 0
227 236 0
227 236 0
227 236 0
229 237 0
231 239 0
235 242 0
240 245 0
244 247 0
247 249 0
248 250 0
248 250 0
246 249 0
242 247 0
239 245 0
235 242 0
232 240 0
230 239 0
229 238 0
228 237 0
205 220 0
206 220 0
207 221 0
208 221 0
208 222 0
208 222 0
207 222 0
206 221 0
206 221 0
206 221 0
207 222 0
209 224 0
212 227 0
217 230 0
221 233 0
225 235 0
228 237 0
229 238 0
228 238 0
226 236 0
223 235 0
220 233 0
217 231 0
216 231 0
217 231 0
219 232 0
222 233 0
225 235 0
227 236 0
228 236 0
228 236 0
228 236 0
228 236 0
228 236 0
229 237 0
232 239 0
235 241 0
239 244 0
242 246 0
244 248 0
245 248 0
244 248 0
242 246 0
238 244 0
235 242 0
232 240 0
229 238 0
228 237 0
227 236 0
227 236 0
208 222 0
208 222 0
209 222 0
209 222 0
209 222 0
209 222 0
208 221 0
206 221 0
205 221 0
205 221 0
206 222 0
208 223 0
211 226 0
214 228 0
218 231 0
221 233 0
223 234 0
224 235 0
223 234 0
222 233 0
219 232 0
217 231 0
215 230 0
215 229 0
216 230 0
218 231 0
221 232 0
224 234 0
226 235 0
228 236 0
228 236 0
228 236 0
228 236 0
228 236 0
229 237 0
231 239 0
234 241 0
237 243 0
240 244 0
241 246 0
241 246 0
240 245 0
237 243 0
234 242 0
230 239 0
228 238 0
226 236 0
225 235 0
224 235 0
224 235 0
211 224 0
211 224 0
212 224 0
211 223 0
211 223 0
210 223 0
208 222 0
207 221 0
206 221 0
205 221 0
206 221 0
207 223 0
210 224 0
213 226 0
215 228 0
218 230 0
219 231 0
220 231 0
219 231 0
218 231 0
216 230 0
215 229 0
214 228 0
213 228 0
214 229 0
217 230 0
220 232 0
223 233 0
225 234 0
227 235 0
227 235 0
227 235 0
227 235 0
227 236 0
228 236 0
230 238 0
232 239 0
234 241 0
236 242 0
237 243 0
237 243 0
235 242 0
232 240 0
229 238 0
226 237 0
224 235 0
222 234 0
222 233 0
222 233 0
222 233 0
215 227 0
215 226 0
215 226 0
214 225 0
213 224 0
211 223 0
209 222 0
208 222 0
206 221 0
206 221 0
206 221 0
208 222 0
209 224 0
211 225 0
213 226 0
215 228 0
215 228 0
215 228 0
215 228 0
214 228 0
213 227 0
212 227 0
212 226 0
212 227 0
213 227 0
215 229 0
218 230 0
221 232 0
224 234 0
225 234 0
226 235 0
226 235 0
226 235 0
226 235 0
227 235 0
228 236 0
229 238 0
231 239 0
232 240 0
233 240 0
232 240 0
230 239 0
228 237 0
225 236 0
222 234 0
220 232 0
219 232 0
219 231 0
219 231 0
219 231 0
220 230 0
219 230 0
218 229 0
216 228 0
214 226 0
212 225 0
210 223 0
208 222 0
207 221 0
207 221 0
207 221 0
208 222 0
209 223 0
210 224 0
211 225 0
212 225 0
212 226 0
212 226 0
211 225 0
211 225 0
211 225 0
210 225 0
210 225 0
211 225 0
212 226 0
214 228 0
216 229 0
219 231 0
222 232 0
224 233 0
224 234 0
224 234 0
224 233 0
224 233 0
224 234 0
224 234 0
225 235 0
227 236 0
227 237 0
228 237 0
227 237 0
226 236 0
224 235 0
222 233 0
220 232 0
218 231 0
217 230 0
216 229 0
216 229 0
217 229 0
224 234 0
223 233 0
221 232 0
219 230 0
216 228 0
213 226 0
211 224 0
209 222 0
207 221 0
207 221 0
207 221 0
207 222 0
208 222 0
209 223 0
209 223 0
209 223 0
209 223 0
208 223 0
208 223 0
208 223 0
208 223 0
208 223 0
208 224 0
209 224 0
210 225 0
212 227 0
215 228 0
217 230 0
220 231 0
221 232 0
222 232 0
222 232 0
222 232 0
221 232 0
221 232 0
221 232 0
221 233 0
222 233 0
223 234 0
223 235 0
223 234 0
223 234 0
221 233 0
220 232 0
218 230 0
216 229 0
216 229 0
215 228 0
215 228 0
215 228 0
229 238 0
228 237 0
225 235 0
222 233 0
218 230 0
214 227 0
211 225 0
209 223 0
207 221 0
206 221 0
207 221 0
207 221 0
207 221 0
207 221 0
207 221 0
207 221 0
206 221 0
205 221 0
205 221 0
205 221 0
206 221 0
206 222 0
206 222 0
207 223 0
208 224 0
210 225 0
213 227 0
215 229 0
217 230 0
219 231 0
220 231 0
220 231 0
219 230 0
218 230 0
217 229 0
217 229 0
217 230 0
217 231 0
218 231 0
219 232 0
220 232 0
220 232 0
220 232 0
219 231 0
217 230 0
216 229 0
215 228 0
215 228 0
214 227 0
214 227 0
234 242 0
232 241 0
228 238 0
224 235 0
219 232 0
215 228 0
211 225 0
208 223 0
206 221 0
206 220 0
206 220 0
206 220 0
206 220 0
206 220 0
205 220 0
204 219 0
203 219 0
203 219 0
203 219 0
203 219 0
203 220 0
204 220 0
205 221 0
205 222 0
207 223 0
208 224 0
211 226 0
213 228 0
215 229 0
217 230 0
218 230 0
217 230 0
216 229 0
215 228 0
213 227 0
213 227 0
213 227 0
214 228 0
215 229 0
216 230 0
218 231 0
219 231 0
219 231 0
219 231 0
218 230 0
217 229 0
216 228 0
215 228 0
215 227 0
215 227 0
238 246 0
236 244 0
231 241 0
226 237 0
220 233 0
215 229 0
211 225 0
207 222 0
206 221 0
205 220 0
205 219 0
205 219 0
205 219 0
204 218 0
203 218 0
202 217 0
201 217 0
200 217 0
200 217 0
201 218 0
201 218 0
202 219 0
203 220 0
204 221 0
205 222 0
207 224 0
209 225 0
211 227 0
214 228 0
215 229 0
216 229 0
215 228 0
214 227 0
212 226 0
210 225 0
209 225 0
209 225 0
210 226 0
212 227 0
214 229 0
217 230 0
218 231 0
219 231 0
220 231 0
219 230 0
218 229 0
217 229 0
216 228 0
216 228 0
215 227 0
241 248 0
239 247 0
234 243 0
228 239 0
221 234 0
215 230 0
210 225 0
207 222 0
205 220 0
204 219 0
204 218 0
204 218 0
203 218 0
203 217 0
202 217 0
200 216 0
199 216 0
199 216 0
199 216 0
199 217 0
200 217 0
201 218 0
202 219 0
203 220 0
204 222 0
205 223 0
208 224 0
210 226 0
212 227 0
214 228 0
214 228 0
214 228 0
212 226 0
210 225 0
208 224 0
207 224 0
207 224 0
208 225 0
210 226 0
213 228 0
216 229 0
218 231 0
220 231 0
221 231 0
221 231 0
220 230 0
219 229 0
218 229 0
217 228 0
216 228 0
243 250 0
240 248 0
235 245 0
228 240 0
222 235 0
215 230 0
210 225 0
206 222 0
204 220 0
203 219 0
203 218 0
203 218 0
203 217 0
202 217 0
201 216 0
199 215 0
198 215 0
198 215 0
198 215 0
198 216 0
199 217 0
200 218 0
201 219 0
202 220 0
203 221 0
205 223 0
207 224 0
209 226 0
212 227 0
213 228 0
214 228 0
213 227 0
211 226 0
209 225 0
207 223 0
206 223 0
206 223 0
207 224 0
210 226 0
213 227 0
216 229 0
219 231 0
221 231 0
221 232 0
221 231 0
221 230 0
219 230 0
218 229 0
217 228 0
217 228 0
