P3
50 50
255
243 216 0
244 215 0
245 214 0
247 213 0
248 213 0
249 213 0
250 215 0
250 216 0
250 217 0
250 218 0
250 217 0
250 215 0
250 213 0
250 209 0
250 205 0
250 201 0
249 198 0
248 198 0
247 201 0
246 206 0
245 212 0
244 219 0
243 225 0
242 232 0
241 238 0
240 243 0
239 248 0
239 250 0
240 250 0
240 247 0
241 243 0
243 238 0
244 233 0
245 228 0
247 222 0
248 217 0
248 211 0
249 207 0
249 202 0
250 199 0
250 196 0
250 193 0
251 190 0
251 186 0
251 183 0
251 180 0
252 179 0
252 179 0
252 180 0
252 180 0
243 216 0
244 215 0
245 213 0
247 212 0
248 212 0
249 212 0
250 214 0
250 215 0
250 216 0
250 216 0
250 216 0
250 214 0
250 212 0
250 208 0
250 204 0
250 200 0
249 198 0
248 198 0
247 201 0
246 206 0
245 212 0
244 218 0
243 224 0
242 231 0
241 237 0
240 242 0
239 246 0
239 249 0
240 248 0
241 246 0
242 241 0
243 236 0
244 231 0
246 226 0
247 221 0
248 216 0
248 211 0
249 206 0
249 202 0
250 198 0
250 196 0
250 193 0
251 190 0
251 187 0
251 184 0
251 183 0
252 182 0
252 183 0
252 184 0
252 184 0
244 214 0
244 213 0
246 212 0
247 211 0
248 210 0
249 210 0
250 211 0
250 212 0
250 213 0
250 214 0
250 213 0
250 212 0
250 210 0
250 207 0
250 203 0
250 200 0
250 198 0
249 199 0
248 201 0
247 206 0
246 212 0
244 218 0
243 224 0
242 229 0
241 235 0
240 240 0
240 244 0
240 246 0
240 246 0
241 243 0
242 239 0
243 234 0
244 228 0
246 223 0
247 219 0
248 214 0
248 209 0
249 205 0
249 201 0
250 197 0
250 195 0
250 192 0
251 190 0
251 188 0
252 187 0
252 186 0
252 187 0
252 188 0
252 190 0
252 191 0
244 212 0
245 211 0
246 209 0
247 208 0
248 207 0
249 207 0
250 208 0
250 209 0
250 210 0
250 211 0
250 211 0
250 210 0
250 208 0
250 205 0
250 202 0
250 199 0
250 198 0
249 199 0
248 202 0
247 206 0
246 212 0
245 217 0
243 223 0
242 228 0
241 234 0
241 238 0
240 242 0
241 244 0
241 243 0
242 241 0
243 236 0
244 230 0
245 225 0
246 220 0
247 216 0
248 212 0
248 207 0
249 203 0
249 199 0
249 195 0
250 192 0
251 191 0
251 189 0
251 188 0
252 188 0
252 189 0
252 191 0
252 194 0
252 196 0
252 198 0
245 207 0
246 206 0
247 206 0
248 205 0
249 204 0
249 204 0
250 205 0
250 206 0
250 207 0
250 208 0
250 209 0
250 208 0
250 206 0
250 204 0
250 201 0
250 199 0
250 198 0
249 199 0
249 202 0
247 206 0
246 211 0
245 217 0
244 223 0
243 228 0
242 233 0
241 237 0
241 241 0
241 242 0
242 241 0
242 238 0
243 233 0
244 228 0
245 222 0
246 218 0
247 213 0
248 209 0
248 205 0
249 200 0
249 196 0
249 192 0
250 189 0
251 187 0
251 187 0
252 187 0
252 188 0
252 190 0
252 193 0
252 197 0
252 201 0
252 203 0
246 201 0
247 201 0
247 201 0
248 201 0
249 201 0
250 201 0
250 202 0
250 204 0
250 205 0
250 207 0
250 208 0
250 207 0
250 206 0
250 203 0
250 201 0
250 199 0
250 198 0
250 198 0
249 201 0
248 205 0
246 211 0
245 217 0
244 223 0
243 228 0
242 233 0
242 237 0
242 240 0
242 241 0
242 239 0
243 236 0
244 231 0
245 225 0
246 220 0
247 215 0
248 211 0
248 207 0
248 202 0
249 197 0
249 192 0
249 188 0
250 185 0
251 183 0
251 183 0
252 183 0
252 185 0
252 189 0
253 193 0
252 197 0
252 201 0
252 203 0
247 196 0
248 196 0
248 197 0
249 198 0
249 198 0
250 199 0
250 200 0
251 202 0
251 204 0
251 206 0
251 207 0
250 207 0
250 206 0
250 204 0
250 201 0
250 198 0
250 197 0
250 197 0
249 199 0
248 204 0
247 209 0
246 216 0
244 222 0
244 228 0
243 233 0
243 236 0
243 239 0
243 239 0
243 238 0
244 234 0
245 229 0
246 224 0
246 219 0
247 214 0
248 209 0
248 205 0
249 200 0
249 195 0
249 189 0
250 185 0
250 181 0
251 179 0
252 178 0
252 179 0
253 181 0
253 185 0
253 189 0
253 194 0
253 198 0
253 200 0
248 191 0
248 192 0
249 194 0
249 195 0
250 197 0
250 198 0
251 200 0
251 201 0
251 203 0
251 205 0
251 207 0
251 207 0
250 206 0
250 204 0
250 201 0
250 198 0
250 196 0
250 196 0
249 197 0
248 201 0
247 207 0
246 213 0
245 220 0
244 226 0
244 231 0
243 235 0
243 237 0
243 238 0
244 236 0
244 233 0
245 229 0
246 224 0
247 219 0
247 214 0
248 209 0
249 204 0
249 199 0
249 193 0
250 187 0
250 182 0
251 178 0
251 175 0
252 174 0
253 175 0
253 177 0
253 180 0
253 184 0
253 188 0
253 191 0
253 193 0
249 188 0
249 190 0
250 192 0
250 194 0
251 196 0
251 198 0
251 199 0
252 201 0
252 203 0
252 205 0
251 206 0
251 207 0
251 206 0
250 204 0
250 201 0
250 198 0
250 195 0
250 194 0
249 195 0
248 198 0
248 203 0
247 210 0
246 217 0
245 223 0
244 229 0
244 233 0
244 235 0
244 236 0
244 235 0
245 232 0
245 229 0
246 224 0
247 220 0
247 215 0
248 210 0
248 204 0
249 199 0
249 192 0
250 186 0
250 180 0
251 176 0
252 173 0
252 171 0
253 171 0
253 172 0
254 175 0
254 178 0
254 181 0
253 184 0
253 185 0
250 187 0
250 189 0
250 191 0
251 194 0
251 196 0
252 198 0
252 199 0
252 200 0
252 201 0
252 203 0
252 204 0
251 205 0
251 204 0
251 203 0
251 200 0
251 197 0
250 194 0
250 192 0
250 192 0
249 195 0
248 200 0
247 206 0
246 213 0
246 220 0
245 226 0
245 230 0
244 233 0
244 234 0
244 234 0
245 233 0
245 230 0
246 226 0
246 222 0
247 217 0
248 212 0
248 207 0
248 201 0
249 194 0
250 187 0
250 181 0
251 176 0
252 172 0
253 170 0
253 169 0
254 169 0
254 170 0
254 172 0
254 174 0
254 176 0
254 177 0
250 188 0
250 189 0
251 192 0
251 195 0
252 197 0
252 198 0
252 198 0
253 199 0
253 199 0
252 200 0
252 201 0
252 201 0
251 201 0
251 200 0
251 197 0
251 194 0
251 192 0
251 190 0
250 190 0
249 193 0
249 197 0
248 203 0
247 210 0
246 217 0
246 223 0
245 228 0
245 232 0
245 234 0
245 234 0
245 234 0
245 232 0
245 230 0
246 226 0
246 222 0
247 217 0
247 211 0
248 204 0
248 198 0
249 191 0
250 184 0
251 178 0
252 173 0
253 169 0
254 167 0
254 167 0
254 167 0
254 167 0
254 168 0
254 168 0
254 169 0
251 189 0
251 190 0
251 193 0
252 195 0
252 196 0
253 197 0
253 197 0
253 196 0
253 196 0
253 196 0
252 197 0
252 197 0
251 196 0
251 195 0
251 193 0
251 191 0
251 189 0
251 189 0
250 189 0
250 192 0
249 196 0
248 202 0
247 209 0
247 216 0
246 222 0
245 227 0
245 231 0
245 234 0
245 235 0
245 235 0
245 235 0
245 233 0
245 230 0
245 227 0
246 222 0
246 216 0
247 210 0
248 203 0
249 195 0
250 188 0
251 180 0
252 175 0
253 170 0
254 167 0
254 165 0
254 163 0
255 162 0
254 162 0
254 161 0
254 161 0
251 190 0
251 191 0
252 193 0
252 194 0
253 195 0
253 195 0
254 194 0
254 194 0
253 193 0
253 193 0
253 192 0
252 192 0
252 191 0
251 191 0
251 189 0
251 188 0
251 187 0
251 188 0
250 189 0
250 192 0
249 197 0
248 203 0
247 209 0
247 216 0
246 222 0
246 227 0
245 231 0
245 233 0
245 235 0
245 236 0
244 236 0
244 236 0
244 234 0
245 231 0
245 227 0
246 222 0
246 216 0
247 208 0
248 200 0
249 192 0
251 183 0
252 176 0
253 170 0
253 166 0
254 163 0
254 160 0
254 158 0
254 156 0
254 154 0
254 154 0
251 191 0
251 191 0
252 192 0
253 193 0
253 193 0
254 193 0
254 192 0
254 191 0
254 190 0
253 189 0
253 189 0
252 188 0
251 188 0
251 187 0
251 187 0
251 187 0
251 187 0
250 188 0
250 191 0
250 194 0
249 199 0
248 204 0
248 210 0
247 216 0
246 222 0
246 226 0
246 229 0
246 232 0
245 233 0
245 234 0
245 235 0
244 236 0
244 235 0
244 234 0
245 231 0
245 226 0
246 220 0
247 213 0
248 204 0
249 194 0
250 185 0
251 177 0
252 170 0
253 164 0
254 160 0
254 156 0
254 153 0
253 150 0
253 148 0
253 147 0
251 190 0
251 190 0
252 190 0
252 191 0
253 191 0
254 190 0
254 190 0
254 189 0
254 188 0
253 187 0
253 187 0
252 187 0
251 187 0
251 187 0
250 187 0
250 188 0
250 189 0
250 191 0
250 194 0
249 198 0
249 202 0
248 207 0
248 212 0
247 217 0
247 221 0
247 224 0
247 226 0
246 228 0
246 229 0
246 230 0
245 232 0
245 233 0
245 234 0
244 234 0
245 232 0
245 228 0
246 222 0
247 215 0
248 205 0
249 195 0
250 185 0
251 176 0
252 169 0
252 163 0
253 158 0
253 153 0
253 150 0
253 146 0
252 144 0
252 143 0
251 188 0
251 188 0
251 188 0
252 189 0
253 189 0
253 189 0
254 189 0
254 189 0
253 188 0
253 188 0
252 188 0
252 188 0
251 189 0
250 190 0
250 191 0
249 193 0
249 194 0
249 196 0
249 199 0
249 202 0
248 206 0
248 209 0
248 213 0
247 216 0
247 218 0
247 219 0
247 220 0
247 221 0
247 222 0
247 223 0
246 226 0
246 228 0
245 230 0
245 231 0
245 230 0
245 227 0
246 222 0
247 214 0
248 204 0
249 194 0
250 184 0
251 175 0
251 167 0
252 161 0
252 156 0
252 152 0
252 148 0
252 145 0
251 143 0
251 141 0
250 186 0
250 186 0
251 187 0
252 188 0
252 189 0
253 190 0
253 190 0
253 190 0
253 190 0
253 190 0
252 191 0
251 192 0
250 194 0
250 196 0
249 199 0
249 200 0
248 202 0
248 204 0
248 205 0
248 207 0
248 209 0
248 211 0
248 212 0
248 213 0
248 213 0
248 213 0
248 212 0
248 212 0
248 213 0
248 215 0
247 218 0
247 221 0
246 224 0
246 226 0
246 226 0
246 224 0
247 219 0
247 211 0
248 201 0
249 191 0
250 181 0
251 173 0
251 166 0
252 161 0
252 157 0
252 153 0
252 150 0
251 148 0
251 145 0
251 144 0
249 186 0
250 187 0
250 188 0
251 190 0
251 192 0
252 193 0
252 194 0
252 195 0
252 195 0
252 195 0
251 196 0
251 198 0
250 201 0
249 204 0
248 208 0
248 210 0
248 211 0
247 212 0
247 212 0
247 212 0
248 212 0
248 212 0
248 211 0
248 209 0
249 208 0
249 206 0
249 204 0
249 203 0
249 204 0
249 206 0
249 210 0
248 214 0
248 218 0
247 221 0
247 221 0
248 219 0
248 214 0
248 206 0
249 197 0
250 188 0
250 179 0
251 172 0
251 166 0
252 162 0
252 160 0
252 158 0
251 156 0
251 154 0
250 153 0
250 152 0
248 189 0
249 190 0
249 192 0
250 195 0
250 198 0
251 200 0
251 201 0
252 201 0
252 201 0
251 201 0
251 202 0
250 204 0
249 208 0
248 212 0
247 216 0
247 219 0
247 220 0
247 220 0
247 219 0
247 217 0
247 215 0
248 212 0
248 209 0
249 206 0
249 202 0
250 199 0
250 197 0
250 196 0
250 196 0
250 199 0
250 203 0
249 208 0
249 212 0
249 215 0
249 216 0
249 214 0
249 209 0
249 202 0
250 193 0
250 185 0
251 177 0
251 171 0
252 168 0
252 166 0
252 165 0
252 165 0
251 164 0
251 164 0
250 163 0
250 163 0
248 195 0
248 197 0
248 199 0
249 203 0
249 206 0
250 208 0
250 209 0
250 208 0
251 207 0
251 206 0
250 207 0
249 209 0
249 213 0
248 218 0
247 223 0
246 226 0
246 227 0
246 226 0
246 223 0
246 220 0
247 216 0
248 212 0
248 208 0
249 203 0
250 198 0
251 194 0
251 191 0
251 190 0
251 191 0
251 193 0
251 197 0
250 202 0
250 207 0
250 209 0
250 210 0
250 208 0
250 204 0
250 197 0
251 190 0
251 183 0
251 177 0
252 172 0
252 170 0
252 170 0
252 171 0
252 172 0
251 174 0
251 175 0
250 175 0
250 175 0
247 204 0
247 206 0
247 209 0
247 212 0
248 215 0
248 217 0
249 216 0
249 214 0
250 212 0
250 210 0
250 209 0
249 211 0
248 215 0
247 220 0
247 225 0
246 228 0
246 230 0
246 229 0
246 226 0
246 222 0
247 218 0
248 213 0
248 208 0
249 202 0
250 197 0
251 192 0
251 189 0
252 187 0
252 187 0
252 190 0
252 193 0
251 198 0
251 202 0
251 204 0
251 205 0
251 203 0
251 199 0
251 194 0
251 188 0
252 182 0
252 178 0
252 175 0
252 173 0
252 174 0
252 176 0
252 179 0
251 182 0
251 184 0
250 185 0
250 186 0
246 214 0
246 216 0
246 219 0
246 222 0
246 224 0
247 224 0
247 222 0
248 219 0
249 214 0
249 211 0
249 209 0
249 209 0
248 213 0
247 218 0
247 223 0
246 227 0
246 229 0
245 229 0
245 227 0
246 223 0
246 219 0
247 214 0
248 209 0
249 203 0
250 197 0
251 192 0
251 188 0
252 186 0
252 186 0
252 187 0
252 190 0
252 194 0
252 197 0
252 200 0
251 200 0
251 199 0
251 197 0
251 193 0
252 188 0
252 184 0
252 180 0
252 177 0
252 177 0
252 177 0
252 180 0
251 183 0
251 187 0
250 190 0
250 192 0
250 193 0
246 222 0
246 224 0
245 226 0
245 229 0
245 230 0
246 229 0
246 226 0
247 220 0
248 214 0
249 209 0
249 206 0
249 206 0
249 208 0
248 213 0
247 218 0
247 223 0
246 226 0
246 227 0
245 226 0
246 224 0
246 221 0
247 216 0
248 211 0
249 206 0
250 200 0
251 194 0
251 189 0
252 186 0
252 185 0
252 185 0
252 187 0
252 190 0
252 193 0
252 195 0
252 197 0
252 197 0
252 196 0
252 193 0
252 190 0
252 187 0
252 184 0
252 181 0
252 180 0
251 180 0
251 181 0
251 185 0
251 189 0
250 193 0
250 195 0
249 197 0
245 228 0
245 229 0
245 231 0
245 232 0
245 232 0
245 230 0
246 226 0
247 219 0
248 212 0
249 206 0
249 202 0
249 200 0
249 202 0
248 207 0
248 213 0
247 218 0
246 223 0
246 225 0
245 226 0
245 225 0
246 222 0
246 219 0
247 214 0
248 209 0
249 203 0
250 197 0
251 191 0
252 187 0
252 184 0
252 184 0
252 184 0
252 186 0
252 189 0
252 192 0
252 194 0
252 196 0
252 197 0
252 196 0
251 195 0
251 192 0
251 189 0
251 186 0
251 183 0
251 182 0
251 182 0
250 185 0
250 189 0
250 193 0
249 196 0
249 198 0
246 229 0
245 230 0
245 231 0
245 232 0
245 231 0
245 228 0
246 223 0
247 216 0
248 209 0
249 202 0
250 197 0
250 196 0
250 197 0
249 202 0
248 208 0
248 214 0
247 220 0
246 223 0
245 225 0
245 225 0
245 224 0
246 221 0
246 217 0
247 211 0
249 205 0
250 199 0
251 193 0
251 187 0
252 184 0
252 182 0
252 181 0
252 182 0
252 185 0
252 188 0
252 192 0
252 196 0
251 199 0
251 201 0
251 201 0
251 199 0
251 196 0
250 192 0
250 187 0
250 184 0
250 183 0
250 185 0
250 188 0
250 192 0
249 195 0
249 197 0
246 227 0
246 228 0
246 229 0
245 229 0
245 228 0
246 225 0
247 220 0
248 213 0
249 206 0
250 199 0
250 195 0
250 193 0
250 194 0
249 198 0
249 204 0
248 211 0
247 218 0
246 223 0
245 226 0
245 227 0
245 225 0
245 222 0
246 218 0
247 212 0
248 206 0
249 199 0
250 193 0
251 187 0
252 183 0
252 179 0
252 178 0
252 179 0
252 181 0
252 185 0
252 191 0
251 197 0
251 203 0
250 207 0
250 209 0
250 208 0
249 204 0
249 199 0
249 193 0
249 188 0
249 186 0
249 186 0
249 188 0
249 191 0
249 194 0
249 196 0
247 223 0
247 223 0
246 224 0
246 225 0
246 224 0
247 221 0
247 216 0
248 210 0
249 204 0
250 198 0
250 194 0
250 192 0
250 193 0
249 197 0
249 203 0
248 211 0
247 218 0
246 223 0
245 226 0
244 227 0
244 226 0
245 223 0
246 218 0
247 212 0
248 205 0
249 199 0
250 192 0
251 187 0
251 182 0
252 178 0
252 175 0
252 175 0
252 178 0
252 183 0
251 190 0
251 199 0
250 206 0
250 213 0
249 216 0
248 216 0
248 213 0
248 208 0
248 201 0
248 195 0
248 190 0
249 189 0
249 190 0
249 192 0
249 194 0
250 196 0
247 218 0
247 218 0
247 219 0
247 220 0
247 220 0
248 218 0
248 214 0
249 209 0
249 204 0
250 199 0
250 195 0
250 193 0
249 194 0
249 198 0
248 204 0
247 211 0
246 219 0
245 224 0
244 227 0
244 228 0
244 225 0
245 221 0
245 215 0
247 209 0
248 203 0
249 197 0
250 191 0
251 186 0
251 181 0
251 177 0
252 174 0
251 174 0
251 176 0
251 182 0
251 190 0
250 200 0
249 210 0
248 218 0
248 223 0
247 224 0
247 222 0
247 217 0
247 210 0
247 203 0
247 197 0
248 194 0
249 193 0
249 194 0
249 195 0
250 196 0
248 214 0
248 214 0
248 215 0
248 216 0
248 217 0
248 216 0
249 213 0
249 210 0
249 206 0
249 202 0
249 199 0
249 197 0
249 197 0
248 200 0
247 206 0
246 213 0
245 220 0
244 225 0
244 228 0
244 227 0
244 223 0
245 218 0
245 212 0
247 205 0
248 200 0
249 195 0
250 191 0
251 187 0
251 182 0
251 178 0
251 175 0
251 174 0
251 176 0
251 182 0
250 191 0
249 201 0
248 212 0
247 222 0
246 229 0
245 232 0
245 231 0
245 226 0
245 219 0
246 212 0
246 206 0
247 201 0
248 198 0
249 197 0
249 196 0
250 196 0
249 211 0
249 211 0
249 213 0
249 214 0
249 215 0
249 215 0
249 214 0
249 212 0
249 209 0
249 206 0
249 203 0
248 201 0
248 202 0
247 204 0
246 209 0
245 216 0
244 222 0
244 226 0
243 228 0
243 226 0
244 221 0
245 214 0
246 208 0
247 202 0
248 197 0
249 194 0
250 191 0
250 189 0
251 186 0
251 182 0
251 179 0
251 177 0
251 179 0
250 184 0
250 192 0
249 203 0
247 215 0
246 225 0
245 233 0
244 238 0
243 238 0
243 235 0
244 229 0
244 222 0
245 215 0
246 209 0
247 204 0
248 200 0
249 198 0
249 197 0
249 208 0
249 209 0
249 211 0
249 212 0
249 214 0
249 215 0
249 215 0
249 214 0
248 213 0
248 210 0
248 208 0
247 206 0
247 206 0
246 209 0
245 214 0
244 219 0
244 225 0
243 228 0
243 228 0
243 225 0
244 219 0
245 211 0
246 205 0
247 199 0
248 196 0
249 195 0
250 194 0
250 193 0
251 191 0
251 188 0
251 184 0
251 182 0
250 183 0
250 188 0
249 195 0
248 206 0
247 217 0
245 228 0
244 236 0
243 242 0
242 244 0
242 243 0
242 238 0
243 232 0
244 224 0
245 217 0
247 210 0
248 204 0
248 200 0
249 198 0
249 207 0
249 207 0
249 209 0
249 211 0
249 213 0
249 215 0
249 216 0
248 216 0
248 215 0
248 213 0
247 211 0
247 210 0
246 211 0
245 213 0
244 218 0
244 224 0
243 228 0
242 231 0
242 230 0
243 225 0
244 218 0
245 210 0
246 203 0
247 199 0
248 197 0
249 197 0
250 198 0
250 198 0
250 197 0
250 195 0
250 192 0
250 189 0
250 189 0
249 193 0
249 199 0
247 209 0
246 219 0
244 229 0
243 238 0
241 245 0
240 249 0
240 249 0
241 246 0
242 240 0
243 232 0
244 224 0
246 216 0
247 209 0
248 203 0
248 201 0
249 204 0
249 205 0
249 207 0
249 210 0
249 212 0
249 215 0
249 216 0
248 216 0
248 216 0
247 214 0
247 213 0
246 212 0
246 213 0
245 217 0
244 222 0
243 228 0
242 233 0
242 234 0
242 232 0
242 227 0
243 219 0
245 211 0
246 204 0
247 200 0
248 199 0
249 200 0
249 203 0
249 205 0
250 205 0
250 203 0
250 200 0
250 197 0
249 196 0
249 198 0
248 204 0
247 212 0
246 221 0
244 231 0
242 240 0
241 247 0
240 251 0
239 253 0
239 251 0
240 245 0
242 238 0
244 229 0
245 221 0
247 213 0
248 207 0
248 204 0
249 200 0
249 201 0
249 204 0
249 207 0
249 210 0
249 213 0
249 215 0
248 215 0
248 214 0
247 213 0
247 212 0
246 212 0
246 215 0
245 219 0
244 225 0
242 232 0
242 237 0
241 239 0
241 236 0
242 230 0
243 221 0
245 213 0
246 206 0
247 202 0
248 202 0
248 204 0
249 208 0
249 211 0
249 212 0
249 211 0
249 207 0
249 204 0
249 202 0
249 203 0
248 207 0
247 214 0
245 222 0
244 231 0
242 240 0
240 247 0
239 252 0
239 254 0
239 253 0
240 248 0
241 241 0
243 233 0
245 224 0
246 217 0
247 211 0
248 208 0
249 196 0
249 197 0
249 200 0
249 204 0
249 207 0
249 210 0
249 212 0
248 212 0
248 211 0
248 209 0
247 209 0
247 210 0
246 214 0
245 220 0
244 227 0
242 235 0
241 240 0
241 242 0
241 240 0
242 233 0
243 224 0
244 215 0
246 208 0
247 204 0
248 205 0
248 208 0
248 213 0
248 217 0
248 218 0
248 217 0
248 213 0
249 210 0
249 207 0
248 207 0
248 210 0
247 216 0
245 223 0
244 231 0
242 239 0
240 247 0
239 252 0
238 255 0
239 253 0
240 249 0
241 242 0
243 234 0
245 227 0
246 220 0
247 215 0
248 213 0
249 191 0
249 193 0
249 196 0
250 200 0
250 204 0
249 207 0
249 208 0
249 207 0
248 206 0
248 204 0
248 204 0
247 207 0
246 212 0
245 219 0
244 228 0
243 236 0
242 242 0
241 244 0
241 242 0
242 235 0
243 226 0
244 217 0
246 210 0
247 206 0
247 207 0
247 211 0
248 216 0
247 221 0
248 223 0
248 222 0
248 218 0
248 214 0
248 211 0
248 210 0
248 212 0
247 216 0
245 223 0
244 231 0
242 239 0
240 246 0
239 251 0
239 253 0
239 252 0
240 248 0
241 241 0
243 234 0
245 227 0
246 222 0
247 219 0
248 217 0
250 188 0
250 190 0
250 193 0
250 197 0
250 201 0
250 203 0
250 204 0
249 203 0
249 201 0
249 199 0
248 199 0
248 202 0
247 208 0
246 217 0
245 226 0
244 235 0
242 241 0
242 243 0
242 241 0
242 235 0
244 226 0
245 217 0
246 210 0
246 207 0
247 207 0
247 211 0
247 217 0
247 222 0
247 225 0
247 224 0
248 221 0
248 216 0
248 213 0
248 212 0
248 213 0
247 217 0
246 223 0
244 231 0
242 238 0
241 245 0
240 250 0
240 251 0
240 249 0
241 245 0
242 239 0
244 232 0
245 227 0
246 223 0
247 221 0
248 220 0
250 187 0
250 189 0
250 192 0
250 195 0
251 199 0
250 200 0
250 200 0
250 198 0
250 196 0
249 194 0
249 195 0
248 198 0
248 205 0
247 213 0
246 223 0
244 231 0
243 237 0
243 240 0
243 238 0
243 232 0
244 224 0
245 215 0
246 209 0
246 205 0
247 206 0
247 211 0
247 217 0
247 222 0
247 225 0
247 225 0
248 222 0
248 218 0
248 214 0
248 213 0
248 214 0
247 218 0
246 224 0
244 231 0
243 238 0
241 245 0
241 248 0
240 249 0
241 246 0
242 241 0
243 235 0
244 229 0
245 225 0
246 223 0
247 222 0
248 222 0
251 189 0
251 190 0
251 193 0
251 196 0
251 198 0
251 199 0
251 198 0
251 196 0
250 193 0
250 191 0
249 192 0
249 195 0
248 201 0
247 210 0
247 218 0
246 226 0
245 232 0
244 234 0
244 232 0
245 227 0
245 220 0
246 212 0
246 206 0
247 204 0
247 205 0
247 209 0
247 216 0
247 221 0
247 225 0
247 225 0
248 222 0
248 218 0
248 215 0
248 214 0
248 215 0
247 219 0
246 225 0
244 232 0
243 239 0
242 244 0
241 247 0
242 246 0
242 242 0
243 236 0
244 230 0
245 225 0
246 222 0
247 221 0
247 221 0
247 222 0
252 192 0
252 193 0
252 195 0
252 197 0
252 199 0
252 199 0
251 197 0
251 194 0
251 191 0
250 190 0
250 190 0
249 193 0
249 199 0
248 206 0
247 214 0
247 220 0
246 225 0
246 226 0
246 225 0
246 221 0
246 215 0
247 209 0
247 204 0
247 202 0
247 203 0
247 208 0
247 214 0
247 220 0
247 223 0
247 224 0
248 222 0
248 219 0
249 216 0
249 215 0
248 217 0
247 221 0
246 226 0
245 233 0
243 239 0
243 243 0
242 244 0
243 242 0
243 237 0
244 231 0
245 225 0
246 220 0
246 218 0
247 218 0
247 220 0
247 221 0
252 195 0
252 196 0
252 198 0
252 200 0
252 200 0
252 200 0
252 198 0
251 195 0
251 192 0
250 190 0
250 190 0
250 193 0
249 198 0
249 204 0
248 210 0
248 215 0
247 218 0
247 218 0
247 217 0
247 215 0
247 211 0
248 206 0
248 203 0
248 201 0
248 202 0
247 206 0
247 212 0
247 218 0
247 222 0
247 223 0
248 222 0
248 219 0
249 217 0
249 217 0
248 218 0
247 222 0
246 227 0
245 232 0
244 237 0
243 240 0
243 240 0
244 237 0
245 231 0
245 225 0
246 219 0
247 215 0
247 214 0
247 215 0
247 217 0
247 219 0
252 200 0
252 200 0
252 201 0
252 202 0
252 202 0
252 201 0
252 199 0
251 196 0
251 193 0
251 192 0
250 192 0
250 194 0
249 198 0
249 203 0
249 207 0
248 210 0
248 211 0
248 212 0
248 211 0
248 209 0
248 207 0
248 204 0
249 202 0
248 201 0
248 202 0
248 206 0
248 211 0
248 216 0
248 220 0
248 222 0
248 221 0
249 220 0
249 218 0
249 218 0
248 219 0
247 222 0
246 226 0
245 230 0
245 233 0
244 235 0
244 234 0
245 230 0
246 224 0
246 218 0
247 213 0
247 210 0
248 210 0
248 211 0
248 214 0
248 215 0
252 204 0
252 205 0
252 205 0
252 205 0
252 204 0
252 203 0
252 201 0
251 198 0
251 196 0
251 194 0
250 195 0
250 196 0
250 200 0
249 203 0
249 205 0
249 206 0
249 206 0
249 206 0
249 205 0
249 205 0
249 204 0
249 203 0
249 201 0
249 201 0
249 202 0
248 205 0
248 210 0
248 215 0
248 219 0
248 221 0
248 220 0
249 219 0
249 218 0
249 217 0
248 218 0
248 220 0
247 223 0
246 226 0
245 228 0
245 228 0
245 226 0
246 223 0
247 218 0
247 213 0
248 208 0
248 206 0
248 205 0
248 207 0
248 210 0
248 211 0
250 210 0
251 209 0
251 209 0
251 208 0
251 206 0
251 204 0
251 201 0
251 199 0
251 197 0
251 196 0
250 197 0
250 199 0
250 201 0
250 203 0
250 204 0
250 204 0
249 202 0
249 201 0
249 201 0
249 201 0
250 201 0
250 201 0
250 201 0
249 200 0
249 201 0
249 204 0
248 208 0
248 213 0
248 217 0
248 219 0
248 219 0
249 218 0
249 216 0
249 215 0
249 215 0
248 217 0
247 218 0
247 220 0
246 221 0
246 221 0
246 219 0
247 217 0
247 213 0
248 208 0
249 205 0
249 203 0
249 202 0
249 204 0
249 206 0
249 207 0
249 216 0
249 215 0
249 213 0
250 211 0
250 208 0
251 204 0
251 201 0
251 199 0
251 198 0
251 197 0
251 198 0
251 200 0
251 202 0
250 203 0
250 202 0
250 201 0
250 199 0
250 198 0
250 197 0
250 198 0
250 199 0
250 200 0
250 200 0
249 199 0
249 200 0
249 202 0
249 205 0
248 210 0
248 214 0
248 216 0
248 216 0
249 215 0
249 213 0
249 212 0
249 211 0
248 212 0
248 212 0
247 213 0
247 214 0
247 214 0
247 214 0
247 212 0
248 209 0
249 206 0
249 203 0
249 202 0
249 201 0
249 202 0
249 203 0
249 204 0
246 224 0
247 222 0
247 218 0
248 214 0
249 209 0
250 204 0
250 200 0
251 198 0
251 197 0
251 197 0
251 198 0
251 200 0
251 201 0
251 201 0
251 200 0
251 198 0
251 196 0
251 194 0
250 194 0
250 195 0
250 197 0
250 198 0
250 198 0
249 198 0
249 198 0
249 200 0
248 203 0
248 207 0
248 211 0
248 213 0
248 214 0
249 212 0
249 210 0
249 208 0
249 206 0
249 206 0
248 206 0
248 207 0
247 208 0
247 209 0
247 210 0
248 210 0
248 209 0
249 207 0
249 205 0
250 203 0
250 202 0
250 202 0
250 202 0
250 203 0
243 232 0
244 229 0
245 224 0
246 217 0
248 210 0
249 203 0
250 199 0
251 196 0
251 195 0
251 195 0
252 197 0
252 198 0
252 199 0
252 199 0
252 197 0
251 194 0
251 192 0
251 191 0
251 191 0
250 192 0
250 195 0
250 196 0
249 196 0
249 196 0
249 196 0
248 197 0
248 200 0
248 204 0
248 208 0
248 211 0
248 211 0
249 210 0
249 207 0
249 204 0
249 201 0
249 200 0
248 200 0
248 201 0
247 203 0
247 205 0
247 208 0
248 210 0
248 210 0
249 209 0
250 208 0
250 206 0
250 204 0
250 203 0
250 203 0
250 203 0
240 240 0
241 236 0
242 229 0
244 220 0
246 211 0
248 203 0
249 197 0
250 194 0
251 193 0
252 193 0
252 195 0
252 196 0
252 196 0
252 195 0
252 193 0
252 191 0
252 188 0
251 187 0
251 188 0
250 190 0
250 192 0
249 194 0
249 194 0
249 194 0
248 194 0
248 195 0
248 198 0
248 202 0
248 206 0
248 209 0
248 209 0
248 208 0
249 204 0
249 200 0
249 197 0
249 195 0
249 195 0
248 196 0
248 200 0
247 204 0
247 208 0
248 211 0
248 213 0
249 213 0
249 212 0
250 210 0
250 207 0
250 206 0
250 205 0
250 205 0
237 247 0
238 242 0
240 234 0
243 223 0
245 212 0
247 203 0
249 196 0
250 192 0
251 191 0
252 191 0
252 193 0
253 194 0
253 194 0
253 193 0
252 190 0
252 187 0
252 185 0
252 184 0
251 185 0
250 187 0
250 190 0
249 192 0
249 192 0
248 192 0
248 192 0
248 193 0
247 196 0
247 201 0
247 205 0
248 208 0
248 209 0
248 206 0
249 202 0
249 198 0
249 194 0
249 192 0
249 192 0
248 194 0
248 198 0
247 203 0
247 209 0
248 213 0
248 216 0
249 217 0
249 215 0
250 213 0
250 211 0
250 209 0
250 207 0
250 207 0
235 250 0
237 245 0
239 236 0
242 225 0
245 213 0
247 203 0
249 195 0
250 191 0
251 190 0
252 190 0
253 191 0
253 192 0
253 192 0
253 191 0
253 188 0
252 186 0
252 183 0
252 183 0
251 184 0
250 186 0
250 188 0
249 191 0
248 191 0
248 191 0
248 191 0
247 192 0
247 196 0
247 200 0
247 205 0
248 208 0
248 208 0
248 206 0
249 202 0
249 197 0
249 192 0
249 190 0
249 190 0
248 192 0
248 197 0
247 203 0
247 209 0
248 215 0
248 218 0
249 219 0
249 218 0
250 215 0
250 213 0
250 210 0
250 209 0
250 208 0
