P3
50 50
255
218 231 0
218 231 0
219 232 0
219 232 0
220 232 0
220 233 0
221 233 0
222 234 0
223 235 0
224 235 0
225 236 0
226 237 0
228 238 0
229 239 0
230 239 0
231 240 0
233 241 0
234 241 0
235 242 0
236 242 0
236 243 0
237 243 0
237 243 0
237 242 0
236 242 0
236 241 0
235 241 0
233 239 0
232 238 0
230 237 0
228 235 0
225 233 0
222 231 0
219 228 0
216 226 0
213 223 0
210 221 0
207 218 0
203 215 0
200 212 0
197 210 0
194 207 0
192 204 0
189 202 0
187 200 0
185 198 0
184 197 0
183 196 0
182 195 0
181 195 0
218 231 0
218 232 0
219 232 0
219 232 0
220 232 0
220 233 0
221 233 0
222 234 0
223 235 0
224 235 0
225 236 0
226 237 0
228 238 0
229 239 0
230 239 0
231 240 0
233 241 0
234 241 0
235 242 0
235 242 0
236 243 0
237 243 0
237 243 0
237 242 0
236 242 0
236 241 0
235 240 0
233 239 0
232 238 0
230 237 0
228 235 0
225 233 0
222 231 0
219 228 0
216 226 0
213 223 0
210 221 0
207 218 0
203 215 0
200 212 0
197 209 0
194 207 0
191 204 0
189 202 0
187 200 0
185 198 0
184 197 0
183 196 0
182 195 0
181 195 0
218 231 0
219 232 0
219 232 0
219 232 0
220 232 0
220 233 0
221 233 0
222 234 0
223 235 0
224 235 0
225 236 0
226 237 0
228 238 0
229 238 0
230 239 0
231 240 0
233 241 0
234 241 0
235 242 0
235 242 0
236 242 0
236 243 0
237 242 0
236 242 0
236 242 0
235 241 0
234 240 0
233 239 0
231 238 0
230 236 0
227 235 0
225 233 0
222 231 0
219 228 0
216 226 0
213 223 0
210 221 0
206 218 0
203 215 0
200 212 0
197 209 0
194 207 0
191 204 0
189 202 0
187 200 0
185 198 0
184 197 0
183 196 0
182 195 0
181 195 0
218 231 0
219 232 0
219 232 0
219 232 0
220 232 0
220 233 0
221 233 0
222 234 0
223 235 0
224 235 0
225 236 0
226 237 0
228 238 0
229 238 0
230 239 0
231 240 0
232 241 0
233 241 0
234 242 0
235 242 0
236 242 0
236 242 0
236 242 0
236 242 0
236 242 0
235 241 0
234 240 0
233 239 0
231 238 0
229 236 0
227 235 0
225 233 0
222 231 0
219 228 0
216 226 0
213 223 0
210 220 0
206 218 0
203 215 0
200 212 0
197 209 0
194 207 0
191 204 0
189 202 0
187 200 0
185 198 0
184 197 0
182 196 0
182 195 0
181 195 0
219 232 0
219 232 0
219 232 0
219 232 0
220 232 0
220 233 0
221 233 0
222 234 0
223 235 0
224 235 0
225 236 0
226 237 0
228 238 0
229 238 0
230 239 0
231 240 0
232 240 0
233 241 0
234 242 0
235 242 0
235 242 0
236 242 0
236 242 0
236 242 0
235 241 0
235 241 0
234 240 0
232 239 0
231 238 0
229 236 0
227 234 0
224 232 0
222 230 0
219 228 0
216 226 0
212 223 0
209 220 0
206 218 0
203 215 0
200 212 0
197 209 0
194 207 0
191 204 0
189 202 0
187 200 0
185 198 0
184 197 0
182 196 0
182 195 0
181 195 0
219 232 0
219 232 0
219 232 0
219 232 0
220 233 0
221 233 0
221 234 0
222 234 0
223 235 0
224 235 0
225 236 0
226 237 0
227 238 0
229 238 0
230 239 0
231 240 0
232 240 0
233 241 0
234 241 0
235 242 0
235 242 0
235 242 0
236 242 0
235 242 0
235 241 0
234 241 0
233 240 0
232 239 0
230 237 0
228 236 0
226 234 0
224 232 0
221 230 0
218 228 0
215 225 0
212 223 0
209 220 0
206 217 0
203 215 0
200 212 0
197 209 0
194 207 0
191 204 0
189 202 0
187 200 0
185 198 0
184 197 0
183 196 0
182 195 0
181 195 0
219 232 0
219 232 0
219 232 0
220 232 0
220 233 0
221 233 0
221 234 0
222 234 0
223 235 0
224 235 0
225 236 0
226 237 0
227 238 0
229 238 0
230 239 0
231 240 0
232 240 0
233 241 0
234 241 0
234 242 0
235 242 0
235 242 0
235 242 0
235 241 0
235 241 0
234 240 0
233 239 0
231 238 0
230 237 0
228 236 0
226 234 0
223 232 0
221 230 0
218 228 0
215 225 0
212 223 0
209 220 0
206 217 0
202 215 0
199 212 0
196 209 0
194 207 0
191 204 0
189 202 0
187 200 0
185 198 0
184 197 0
183 196 0
182 195 0
181 195 0
219 232 0
219 232 0
219 232 0
220 232 0
220 233 0
221 233 0
222 234 0
222 234 0
223 235 0
224 235 0
225 236 0
226 237 0
227 238 0
228 238 0
230 239 0
231 240 0
232 240 0
232 241 0
233 241 0
234 241 0
234 242 0
235 242 0
235 241 0
235 241 0
234 241 0
233 240 0
232 239 0
231 238 0
229 237 0
227 235 0
225 234 0
223 232 0
220 230 0
217 227 0
215 225 0
212 222 0
208 220 0
205 217 0
202 214 0
199 212 0
196 209 0
194 207 0
191 204 0
189 202 0
187 200 0
185 199 0
184 197 0
183 196 0
182 195 0
182 195 0
219 232 0
219 232 0
220 232 0
220 233 0
220 233 0
221 233 0
222 234 0
222 234 0
223 235 0
224 236 0
225 236 0
226 237 0
227 238 0
228 238 0
229 239 0
230 239 0
231 240 0
232 240 0
233 241 0
234 241 0
234 241 0
234 241 0
234 241 0
234 241 0
233 240 0
233 240 0
232 239 0
230 238 0
229 236 0
227 235 0
225 233 0
222 231 0
220 229 0
217 227 0
214 225 0
211 222 0
208 220 0
205 217 0
202 214 0
199 212 0
196 209 0
194 207 0
191 204 0
189 202 0
187 200 0
185 199 0
184 197 0
183 196 0
182 196 0
182 195 0
220 232 0
220 232 0
220 233 0
220 233 0
221 233 0
221 234 0
222 234 0
223 234 0
223 235 0
224 236 0
225 236 0
226 237 0
227 238 0
228 238 0
229 239 0
230 239 0
231 240 0
232 240 0
233 241 0
233 241 0
234 241 0
234 241 0
234 241 0
233 241 0
233 240 0
232 239 0
231 239 0
230 237 0
228 236 0
226 235 0
224 233 0
222 231 0
219 229 0
217 227 0
214 225 0
211 222 0
208 220 0
205 217 0
202 214 0
199 212 0
196 209 0
194 207 0
191 205 0
189 203 0
187 201 0
185 199 0
184 198 0
183 197 0
182 196 0
182 196 0
220 233 0
220 233 0
220 233 0
221 233 0
221 233 0
222 234 0
222 234 0
223 235 0
224 235 0
224 236 0
225 236 0
226 237 0
227 238 0
228 238 0
229 239 0
230 239 0
231 240 0
232 240 0
232 241 0
233 241 0
233 241 0
233 241 0
233 241 0
233 240 0
232 240 0
232 239 0
231 238 0
229 237 0
228 236 0
226 234 0
224 233 0
221 231 0
219 229 0
216 227 0
213 224 0
211 222 0
208 220 0
205 217 0
202 214 0
199 212 0
196 210 0
194 207 0
191 205 0
189 203 0
187 201 0
186 200 0
184 198 0
183 197 0
183 197 0
182 196 0
220 233 0
220 233 0
221 233 0
221 233 0
221 234 0
222 234 0
222 234 0
223 235 0
224 235 0
225 236 0
226 236 0
226 237 0
227 238 0
228 238 0
229 239 0
230 239 0
231 240 0
231 240 0
232 240 0
232 241 0
233 241 0
233 241 0
233 240 0
232 240 0
232 239 0
231 239 0
230 238 0
229 237 0
227 236 0
225 234 0
223 233 0
221 231 0
219 229 0
216 227 0
213 224 0
210 222 0
208 220 0
205 217 0
202 215 0
199 212 0
197 210 0
194 207 0
192 205 0
190 203 0
188 202 0
186 200 0
185 199 0
184 198 0
183 197 0
183 197 0
221 233 0
221 233 0
221 233 0
221 234 0
222 234 0
222 234 0
223 235 0
223 235 0
224 236 0
225 236 0
226 237 0
227 237 0
227 238 0
228 238 0
229 239 0
230 239 0
230 240 0
231 240 0
232 240 0
232 240 0
232 240 0
232 240 0
232 240 0
232 240 0
231 239 0
230 239 0
229 238 0
228 237 0
227 235 0
225 234 0
223 232 0
221 231 0
218 229 0
216 227 0
213 224 0
210 222 0
208 220 0
205 217 0
202 215 0
199 212 0
197 210 0
194 208 0
192 206 0
190 204 0
188 202 0
187 201 0
186 199 0
185 199 0
184 198 0
184 198 0
221 234 0
221 234 0
222 234 0
222 234 0
222 234 0
223 235 0
223 235 0
224 235 0
224 236 0
225 236 0
226 237 0
227 237 0
227 238 0
228 238 0
229 239 0
230 239 0
230 240 0
231 240 0
231 240 0
232 240 0
232 240 0
232 240 0
232 240 0
231 239 0
231 239 0
230 238 0
229 237 0
228 236 0
226 235 0
224 234 0
222 232 0
220 230 0
218 229 0
215 227 0
213 224 0
210 222 0
208 220 0
205 218 0
202 215 0
200 213 0
197 211 0
195 209 0
193 206 0
191 205 0
189 203 0
188 202 0
186 200 0
185 199 0
185 199 0
185 199 0
222 234 0
222 234 0
222 234 0
222 234 0
223 235 0
223 235 0
224 235 0
224 236 0
225 236 0
225 236 0
226 237 0
227 237 0
228 238 0
228 238 0
229 239 0
230 239 0
230 239 0
231 240 0
231 240 0
231 240 0
232 240 0
232 240 0
231 240 0
231 239 0
230 239 0
229 238 0
228 237 0
227 236 0
226 235 0
224 234 0
222 232 0
220 230 0
218 229 0
215 227 0
213 225 0
210 222 0
208 220 0
205 218 0
203 216 0
200 213 0
198 211 0
196 209 0
193 207 0
192 206 0
190 204 0
189 203 0
187 201 0
186 201 0
186 200 0
186 200 0
222 234 0
222 234 0
223 235 0
223 235 0
223 235 0
224 235 0
224 236 0
225 236 0
225 236 0
226 237 0
226 237 0
227 238 0
228 238 0
228 238 0
229 239 0
230 239 0
230 239 0
231 240 0
231 240 0
231 240 0
231 240 0
231 240 0
231 240 0
231 239 0
230 239 0
229 238 0
228 237 0
227 236 0
225 235 0
224 233 0
222 232 0
220 230 0
218 229 0
215 227 0
213 225 0
211 223 0
208 221 0
206 218 0
203 216 0
201 214 0
199 212 0
196 210 0
194 208 0
193 207 0
191 205 0
190 204 0
189 203 0
188 202 0
187 201 0
187 201 0
223 235 0
223 235 0
223 235 0
223 235 0
224 235 0
224 236 0
225 236 0
225 236 0
226 237 0
226 237 0
227 237 0
227 238 0
228 238 0
229 239 0
229 239 0
230 239 0
230 239 0
231 240 0
231 240 0
231 240 0
231 240 0
231 240 0
231 239 0
230 239 0
230 238 0
229 238 0
228 237 0
227 236 0
225 235 0
224 233 0
222 232 0
220 231 0
218 229 0
216 227 0
213 225 0
211 223 0
209 221 0
206 219 0
204 217 0
202 215 0
199 213 0
197 211 0
195 209 0
194 208 0
192 206 0
191 205 0
190 204 0
189 203 0
189 203 0
188 202 0
224 235 0
224 235 0
224 235 0
224 236 0
224 236 0
225 236 0
225 236 0
226 237 0
226 237 0
227 237 0
227 238 0
228 238 0
228 238 0
229 239 0
229 239 0
230 239 0
230 240 0
230 240 0
231 240 0
231 240 0
231 240 0
231 240 0
230 239 0
230 239 0
229 238 0
228 238 0
228 237 0
226 236 0
225 235 0
223 234 0
222 232 0
220 231 0
218 229 0
216 227 0
214 226 0
212 224 0
209 222 0
207 220 0
205 218 0
203 216 0
201 214 0
199 212 0
197 211 0
195 209 0
194 208 0
192 207 0
191 206 0
191 205 0
190 204 0
190 204 0
224 236 0
224 236 0
224 236 0
225 236 0
225 236 0
225 236 0
226 237 0
226 237 0
226 237 0
227 238 0
227 238 0
228 238 0
228 239 0
229 239 0
229 239 0
230 239 0
230 240 0
230 240 0
231 240 0
231 240 0
231 240 0
231 240 0
230 239 0
230 239 0
229 238 0
228 238 0
227 237 0
226 236 0
225 235 0
223 234 0
222 232 0
220 231 0
218 229 0
216 228 0
214 226 0
212 224 0
210 223 0
208 221 0
206 219 0
204 217 0
202 215 0
200 214 0
198 212 0
197 211 0
195 209 0
194 208 0
193 207 0
192 207 0
192 206 0
192 206 0
225 236 0
225 236 0
225 236 0
225 236 0
226 237 0
226 237 0
226 237 0
227 237 0
227 238 0
227 238 0
228 238 0
228 238 0
229 239 0
229 239 0
230 239 0
230 239 0
230 240 0
230 240 0
231 240 0
231 240 0
231 240 0
230 240 0
230 239 0
230 239 0
229 238 0
228 238 0
227 237 0
226 236 0
225 235 0
224 234 0
222 233 0
220 231 0
219 230 0
217 228 0
215 227 0
213 225 0
211 223 0
209 222 0
207 220 0
205 218 0
203 217 0
202 215 0
200 214 0
198 212 0
197 211 0
196 210 0
195 209 0
194 208 0
194 208 0
194 208 0
226 237 0
226 237 0
226 237 0
226 237 0
226 237 0
226 237 0
227 237 0
227 238 0
227 238 0
228 238 0
228 238 0
229 239 0
229 239 0
229 239 0
230 239 0
230 240 0
230 240 0
231 240 0
231 240 0
231 240 0
231 240 0
230 240 0
230 239 0
230 239 0
229 238 0
228 238 0
227 237 0
226 236 0
225 235 0
224 234 0
222 233 0
221 232 0
219 230 0
218 229 0
216 228 0
214 226 0
212 224 0
210 223 0
208 221 0
207 220 0
205 218 0
203 217 0
202 215 0
200 214 0
199 213 0
198 212 0
197 211 0
197 211 0
196 210 0
196 210 0
226 237 0
226 237 0
226 237 0
227 237 0
227 237 0
227 238 0
227 238 0
228 238 0
228 238 0
228 238 0
229 239 0
229 239 0
229 239 0
230 239 0
230 240 0
230 240 0
230 240 0
231 240 0
231 240 0
231 240 0
231 240 0
230 240 0
230 239 0
230 239 0
229 238 0
228 238 0
228 237 0
227 236 0
225 236 0
224 235 0
223 234 0
222 232 0
220 231 0
218 230 0
217 228 0
215 227 0
213 225 0
212 224 0
210 223 0
208 221 0
207 220 0
205 218 0
204 217 0
203 216 0
201 215 0
201 214 0
200 213 0
199 213 0
199 212 0
199 212 0
227 237 0
227 237 0
227 237 0
227 238 0
227 238 0
227 238 0
228 238 0
228 238 0
228 238 0
229 239 0
229 239 0
229 239 0
230 239 0
230 240 0
230 240 0
230 240 0
231 240 0
231 240 0
231 240 0
231 240 0
231 240 0
230 240 0
230 239 0
230 239 0
229 239 0
228 238 0
228 237 0
227 237 0
226 236 0
225 235 0
224 234 0
222 233 0
221 232 0
219 231 0
218 229 0
216 228 0
215 227 0
213 225 0
212 224 0
210 223 0
209 221 0
207 220 0
206 219 0
205 218 0
204 217 0
203 216 0
202 216 0
202 215 0
201 215 0
201 215 0
227 238 0
227 238 0
228 238 0
228 238 0
228 238 0
228 238 0
228 238 0
228 239 0
229 239 0
229 239 0
229 239 0
230 239 0
230 240 0
230 240 0
230 240 0
231 240 0
231 240 0
231 240 0
231 240 0
231 240 0
231 240 0
230 240 0
230 240 0
230 239 0
229 239 0
229 238 0
228 238 0
227 237 0
226 236 0
225 236 0
224 235 0
223 234 0
222 233 0
220 231 0
219 230 0
218 229 0
216 228 0
215 227 0
213 226 0
212 224 0
211 223 0
210 222 0
208 221 0
207 220 0
206 219 0
206 219 0
205 218 0
205 217 0
204 217 0
204 217 0
228 238 0
228 238 0
228 238 0
228 238 0
228 238 0
228 239 0
229 239 0
229 239 0
229 239 0
229 239 0
230 239 0
230 240 0
230 240 0
230 240 0
231 240 0
231 240 0
231 240 0
231 240 0
231 240 0
231 240 0
231 240 0
231 240 0
230 240 0
230 239 0
230 239 0
229 239 0
228 238 0
228 237 0
227 237 0
226 236 0
225 235 0
224 234 0
223 233 0
222 232 0
220 231 0
219 230 0
218 229 0
217 228 0
215 227 0
214 226 0
213 225 0
212 224 0
211 223 0
210 222 0
209 222 0
208 221 0
208 220 0
207 220 0
207 220 0
207 220 0
228 238 0
228 238 0
228 238 0
229 239 0
229 239 0
229 239 0
229 239 0
229 239 0
229 239 0
230 239 0
230 240 0
230 240 0
230 240 0
230 240 0
231 240 0
231 240 0
231 240 0
231 240 0
231 240 0
231 240 0
231 240 0
231 240 0
230 240 0
230 240 0
230 239 0
229 239 0
229 238 0
228 238 0
227 237 0
227 237 0
226 236 0
225 235 0
224 234 0
223 233 0
222 233 0
221 232 0
220 231 0
219 230 0
218 229 0
216 228 0
215 227 0
214 226 0
214 225 0
213 224 0
212 224 0
211 223 0
211 223 0
210 222 0
210 222 0
210 222 0
229 239 0
229 239 0
229 239 0
229 239 0
229 239 0
229 239 0
229 239 0
229 239 0
230 239 0
230 240 0
230 240 0
230 240 0
230 240 0
231 240 0
231 240 0
231 240 0
231 240 0
231 240 0
231 240 0
231 240 0
231 240 0
231 240 0
231 240 0
230 240 0
230 240 0
230 239 0
229 239 0
229 238 0
228 238 0
227 237 0
227 237 0
226 236 0
225 235 0
224 235 0
223 234 0
222 233 0
222 232 0
221 231 0
220 230 0
219 230 0
218 229 0
217 228 0
216 227 0
215 227 0
215 226 0
214 226 0
214 225 0
214 225 0
213 225 0
213 225 0
229 239 0
229 239 0
229 239 0
229 239 0
229 239 0
229 239 0
229 239 0
230 239 0
230 240 0
230 240 0
230 240 0
230 240 0
231 240 0
231 240 0
231 240 0
231 240 0
231 240 0
231 240 0
231 241 0
231 240 0
231 240 0
231 240 0
231 240 0
231 240 0
230 240 0
230 240 0
230 239 0
229 239 0
229 238 0
228 238 0
228 237 0
227 237 0
226 236 0
226 236 0
225 235 0
224 234 0
223 234 0
223 233 0
222 232 0
221 231 0
220 231 0
220 230 0
219 230 0
218 229 0
218 228 0
217 228 0
217 228 0
217 227 0
216 227 0
216 227 0
229 239 0
229 239 0
229 239 0
229 239 0
229 239 0
229 239 0
230 239 0
230 239 0
230 240 0
230 240 0
230 240 0
230 240 0
231 240 0
231 240 0
231 240 0
231 240 0
231 241 0
231 241 0
231 241 0
231 241 0
231 241 0
231 240 0
231 240 0
231 240 0
231 240 0
231 240 0
230 240 0
230 239 0
230 239 0
229 239 0
229 238 0
228 238 0
228 237 0
227 237 0
227 236 0
226 236 0
225 235 0
225 234 0
224 234 0
223 233 0
223 233 0
222 232 0
222 232 0
221 231 0
221 231 0
220 230 0
220 230 0
220 230 0
220 230 0
220 230 0
229 239 0
229 239 0
229 239 0
229 239 0
229 239 0
230 239 0
230 239 0
230 240 0
230 240 0
230 240 0
230 240 0
230 240 0
231 240 0
231 240 0
231 240 0
231 240 0
231 241 0
231 241 0
231 241 0
231 241 0
231 241 0
231 241 0
231 241 0
231 240 0
231 240 0
231 240 0
231 240 0
231 240 0
230 239 0
230 239 0
230 239 0
229 239 0
229 238 0
229 238 0
228 237 0
228 237 0
227 236 0
227 236 0
226 235 0
226 235 0
225 235 0
225 234 0
224 234 0
224 233 0
224 233 0
223 233 0
223 232 0
223 232 0
223 232 0
223 232 0
229 239 0
229 239 0
229 239 0
229 239 0
229 239 0
230 239 0
230 239 0
230 240 0
230 240 0
230 240 0
230 240 0
230 240 0
230 240 0
231 240 0
231 240 0
231 240 0
231 240 0
231 241 0
231 241 0
231 241 0
231 241 0
231 241 0
231 241 0
231 241 0
231 241 0
231 240 0
231 240 0
231 240 0
231 240 0
231 240 0
231 240 0
230 239 0
230 239 0
230 239 0
230 238 0
229 238 0
229 238 0
229 237 0
228 237 0
228 237 0
228 236 0
227 236 0
227 236 0
227 235 0
227 235 0
226 235 0
226 235 0
226 235 0
226 234 0
226 234 0
229 239 0
229 239 0
229 239 0
229 239 0
229 239 0
229 239 0
230 239 0
230 239 0
230 240 0
230 240 0
230 240 0
230 240 0
230 240 0
230 240 0
231 240 0
231 240 0
231 240 0
231 241 0
231 241 0
231 241 0
231 241 0
231 241 0
232 241 0
232 241 0
232 241 0
232 241 0
232 241 0
232 241 0
232 241 0
232 240 0
232 240 0
232 240 0
231 240 0
231 240 0
231 240 0
231 239 0
231 239 0
231 239 0
231 239 0
230 238 0
230 238 0
230 238 0
230 238 0
230 237 0
229 237 0
229 237 0
229 237 0
229 237 0
229 237 0
229 237 0
229 239 0
229 239 0
229 239 0
229 239 0
229 239 0
229 239 0
229 239 0
229 239 0
230 239 0
230 240 0
230 240 0
230 240 0
230 240 0
230 240 0
230 240 0
231 240 0
231 240 0
231 240 0
231 241 0
231 241 0
231 241 0
231 241 0
232 241 0
232 241 0
232 241 0
232 241 0
232 241 0
232 241 0
232 241 0
232 241 0
233 241 0
233 241 0
233 241 0
233 241 0
233 241 0
233 241 0
233 240 0
233 240 0
233 240 0
233 240 0
232 240 0
232 240 0
232 239 0
232 239 0
232 239 0
232 239 0
232 239 0
232 239 0
232 239 0
232 239 0
229 239 0
229 239 0
229 239 0
229 239 0
229 239 0
229 239 0
229 239 0
229 239 0
229 239 0
229 239 0
229 239 0
230 240 0
230 240 0
230 240 0
230 240 0
230 240 0
230 240 0
231 240 0
231 240 0
231 241 0
231 241 0
231 241 0
232 241 0
232 241 0
232 241 0
232 241 0
233 241 0
233 241 0
233 242 0
233 242 0
233 242 0
234 242 0
234 242 0
234 242 0
234 242 0
234 242 0
234 242 0
234 242 0
235 241 0
235 241 0
235 241 0
235 241 0
235 241 0
235 241 0
235 241 0
235 241 0
235 241 0
235 241 0
235 241 0
235 241 0
228 239 0
228 239 0
228 239 0
229 239 0
229 239 0
229 239 0
229 239 0
229 239 0
229 239 0
229 239 0
229 239 0
229 239 0
229 239 0
230 240 0
230 240 0
230 240 0
230 240 0
230 240 0
231 240 0
231 241 0
231 241 0
231 241 0
232 241 0
232 241 0
232 241 0
233 242 0
233 242 0
233 242 0
234 242 0
234 242 0
234 242 0
235 242 0
235 242 0
235 243 0
235 243 0
236 243 0
236 243 0
236 243 0
236 243 0
237 243 0
237 243 0
237 243 0
237 243 0
237 243 0
237 243 0
237 243 0
237 243 0
237 243 0
237 243 0
237 243 0
228 238 0
228 238 0
228 238 0
228 238 0
228 239 0
228 239 0
228 239 0
228 239 0
228 239 0
229 239 0
229 239 0
229 239 0
229 239 0
229 239 0
229 240 0
230 240 0
230 240 0
230 240 0
230 240 0
231 240 0
231 241 0
231 241 0
232 241 0
232 241 0
232 241 0
233 242 0
233 242 0
234 242 0
234 242 0
234 243 0
235 243 0
235 243 0
236 243 0
236 243 0
237 243 0
237 244 0
237 244 0
238 244 0
238 244 0
238 244 0
239 244 0
239 244 0
239 244 0
239 244 0
239 244 0
240 244 0
240 244 0
240 244 0
240 244 0
240 244 0
228 238 0
228 238 0
228 238 0
228 238 0
228 238 0
228 238 0
228 238 0
228 238 0
228 239 0
228 239 0
228 239 0
228 239 0
229 239 0
229 239 0
229 239 0
229 239 0
229 240 0
230 240 0
230 240 0
230 240 0
231 240 0
231 241 0
231 241 0
232 241 0
232 242 0
233 242 0
233 242 0
234 242 0
234 243 0
235 243 0
236 243 0
236 244 0
237 244 0
237 244 0
238 244 0
238 244 0
239 245 0
239 245 0
240 245 0
240 245 0
240 245 0
241 245 0
241 246 0
241 246 0
242 246 0
242 246 0
242 246 0
242 246 0
242 246 0
242 246 0
227 238 0
227 238 0
227 238 0
227 238 0
227 238 0
227 238 0
227 238 0
227 238 0
228 238 0
228 238 0
228 238 0
228 239 0
228 239 0
228 239 0
228 239 0
229 239 0
229 239 0
229 240 0
230 240 0
230 240 0
230 240 0
231 241 0
231 241 0
232 241 0
232 242 0
233 242 0
234 242 0
234 243 0
235 243 0
235 243 0
236 244 0
237 244 0
237 244 0
238 245 0
239 245 0
239 245 0
240 246 0
241 246 0
241 246 0
242 246 0
242 246 0
242 247 0
243 247 0
243 247 0
243 247 0
244 247 0
244 247 0
244 247 0
244 247 0
244 247 0
227 238 0
227 238 0
227 238 0
227 238 0
227 238 0
227 238 0
227 238 0
227 238 0
227 238 0
227 238 0
227 238 0
227 238 0
228 238 0
228 238 0
228 239 0
228 239 0
229 239 0
229 239 0
229 240 0
230 240 0
230 240 0
231 241 0
231 241 0
232 241 0
232 242 0
233 242 0
234 242 0
234 243 0
235 243 0
236 244 0
237 244 0
237 244 0
238 245 0
239 245 0
240 246 0
240 246 0
241 246 0
242 247 0
242 247 0
243 247 0
243 247 0
244 248 0
244 248 0
245 248 0
245 248 0
245 248 0
246 248 0
246 249 0
246 249 0
246 249 0
226 237 0
226 237 0
226 237 0
226 237 0
226 237 0
226 237 0
226 237 0
226 237 0
226 238 0
227 238 0
227 238 0
227 238 0
227 238 0
227 238 0
227 238 0
228 239 0
228 239 0
228 239 0
229 239 0
229 240 0
230 240 0
230 240 0
231 241 0
232 241 0
232 242 0
233 242 0
234 242 0
235 243 0
235 243 0
236 244 0
237 244 0
238 245 0
239 245 0
240 246 0
240 246 0
241 247 0
242 247 0
243 247 0
243 248 0
244 248 0
245 248 0
245 249 0
246 249 0
246 249 0
247 249 0
247 249 0
247 250 0
247 250 0
248 250 0
248 250 0
226 237 0
226 237 0
226 237 0
226 237 0
226 237 0
226 237 0
226 237 0
226 237 0
226 237 0
226 237 0
226 237 0
226 238 0
226 238 0
227 238 0
227 238 0
227 238 0
228 239 0
228 239 0
228 239 0
229 239 0
229 240 0
230 240 0
231 241 0
231 241 0
232 242 0
233 242 0
234 243 0
235 243 0
235 244 0
236 244 0
237 245 0
238 245 0
239 246 0
240 246 0
241 247 0
242 247 0
243 248 0
244 248 0
244 248 0
245 249 0
246 249 0
246 249 0
247 250 0
248 250 0
248 250 0
248 250 0
249 250 0
249 251 0
249 251 0
249 251 0
225 237 0
225 237 0
225 237 0
225 237 0
225 237 0
225 237 0
225 237 0
225 237 0
225 237 0
225 237 0
226 237 0
226 237 0
226 237 0
226 238 0
226 238 0
227 238 0
227 238 0
228 239 0
228 239 0
228 239 0
229 240 0
230 240 0
230 240 0
231 241 0
232 241 0
233 242 0
234 243 0
235 243 0
236 244 0
237 244 0
238 245 0
239 245 0
240 246 0
241 247 0
242 247 0
243 248 0
244 248 0
244 249 0
245 249 0
246 249 0
247 250 0
247 250 0
248 250 0
249 251 0
249 251 0
249 251 0
250 251 0
250 251 0
250 251 0
250 252 0
225 236 0
225 236 0
225 236 0
225 236 0
225 236 0
225 236 0
225 236 0
225 236 0
225 236 0
225 237 0
225 237 0
225 237 0
225 237 0
226 237 0
226 237 0
226 238 0
227 238 0
227 238 0
228 239 0
228 239 0
229 239 0
229 240 0
230 240 0
231 241 0
232 241 0
233 242 0
234 243 0
235 243 0
236 244 0
237 244 0
238 245 0
239 246 0
240 246 0
241 247 0
242 247 0
243 248 0
244 249 0
245 249 0
246 249 0
247 250 0
248 250 0
248 251 0
249 251 0
250 251 0
250 252 0
250 252 0
251 252 0
251 252 0
251 252 0
251 252 0
224 236 0
224 236 0
224 236 0
224 236 0
224 236 0
224 236 0
224 236 0
224 236 0
224 236 0
225 236 0
225 236 0
225 237 0
225 237 0
225 237 0
225 237 0
226 237 0
226 238 0
227 238 0
227 238 0
228 239 0
228 239 0
229 240 0
230 240 0
231 241 0
232 241 0
233 242 0
234 243 0
235 243 0
236 244 0
237 244 0
238 245 0
239 246 0
240 246 0
241 247 0
242 248 0
244 248 0
245 249 0
246 249 0
247 250 0
247 250 0
248 251 0
249 251 0
250 252 0
250 252 0
251 252 0
251 252 0
252 253 0
252 253 0
252 253 0
252 253 0
224 236 0
224 236 0
224 236 0
224 236 0
224 236 0
224 236 0
224 236 0
224 236 0
224 236 0
224 236 0
224 236 0
224 236 0
225 236 0
225 237 0
225 237 0
225 237 0
226 237 0
226 238 0
227 238 0
227 239 0
228 239 0
229 240 0
230 240 0
231 241 0
231 241 0
232 242 0
233 243 0
235 243 0
236 244 0
237 245 0
238 245 0
239 246 0
240 247 0
242 247 0
243 248 0
244 249 0
245 249 0
246 250 0
247 250 0
248 251 0
249 251 0
250 252 0
250 252 0
251 252 0
251 253 0
252 253 0
252 253 0
253 253 0
253 253 0
253 253 0
224 235 0
224 235 0
224 235 0
224 235 0
224 235 0
224 236 0
224 236 0
224 236 0
224 236 0
224 236 0
224 236 0
224 236 0
224 236 0
224 236 0
225 237 0
225 237 0
225 237 0
226 238 0
226 238 0
227 238 0
228 239 0
229 239 0
229 240 0
230 241 0
231 241 0
232 242 0
233 242 0
235 243 0
236 244 0
237 245 0
238 245 0
239 246 0
241 247 0
242 247 0
243 248 0
244 249 0
245 249 0
246 250 0
247 251 0
248 251 0
249 252 0
250 252 0
251 252 0
251 253 0
252 253 0
252 253 0
253 253 0
253 254 0
253 254 0
253 254 0
223 235 0
223 235 0
223 235 0
223 235 0
223 235 0
223 235 0
223 235 0
223 235 0
223 235 0
223 236 0
224 236 0
224 236 0
224 236 0
224 236 0
224 236 0
225 237 0
225 237 0
226 237 0
226 238 0
227 238 0
228 239 0
228 239 0
229 240 0
230 240 0
231 241 0
232 242 0
233 242 0
234 243 0
236 244 0
237 245 0
238 245 0
239 246 0
241 247 0
242 248 0
243 248 0
244 249 0
245 250 0
247 250 0
248 251 0
249 251 0
250 252 0
250 252 0
251 253 0
252 253 0
252 253 0
253 254 0
253 254 0
254 254 0
254 254 0
254 254 0
223 235 0
223 235 0
223 235 0
223 235 0
223 235 0
223 235 0
223 235 0
223 235 0
223 235 0
223 235 0
223 236 0
223 236 0
224 236 0
224 236 0
224 236 0
225 237 0
225 237 0
225 237 0
226 238 0
227 238 0
227 239 0
228 239 0
229 240 0
230 240 0
231 241 0
232 242 0
233 242 0
234 243 0
236 244 0
237 245 0
238 245 0
239 246 0
241 247 0
242 248 0
243 248 0
244 249 0
246 250 0
247 250 0
248 251 0
249 251 0
250 252 0
251 252 0
251 253 0
252 253 0
253 253 0
253 254 0
254 254 0
254 254 0
254 254 0
254 254 0
223 235 0
223 235 0
223 235 0
223 235 0
223 235 0
223 235 0
223 235 0
223 235 0
223 235 0
223 235 0
223 235 0
223 236 0
223 236 0
224 236 0
224 236 0
224 236 0
225 237 0
225 237 0
226 238 0
227 238 0
227 239 0
228 239 0
229 240 0
230 240 0
231 241 0
232 242 0
233 242 0
234 243 0
236 244 0
237 245 0
238 245 0
239 246 0
241 247 0
242 248 0
243 248 0
245 249 0
246 250 0
247 250 0
248 251 0
249 252 0
250 252 0
251 253 0
252 253 0
252 253 0
253 254 0
253 254 0
254 254 0
254 254 0
254 254 0
254 254 0
223 235 0
223 235 0
223 235 0
223 235 0
223 235 0
223 235 0
223 235 0
223 235 0
223 235 0
223 235 0
223 235 0
223 235 0
223 236 0
224 236 0
224 236 0
224 236 0
225 237 0
225 237 0
226 238 0
226 238 0
227 239 0
228 239 0
229 240 0
230 240 0
231 241 0
232 242 0
233 242 0
234 243 0
236 244 0
237 245 0
238 245 0
239 246 0
241 247 0
242 248 0
243 248 0
245 249 0
246 250 0
247 250 0
248 251 0
249 252 0
250 252 0
251 253 0
252 253 0
252 253 0
253 254 0
253 254 0
254 254 0
254 254 0
254 254 0
255 255 0
