P3
50 50
255
239 230 0
239 230 0
239 230 0
240 230 0
240 230 0
240 230 0
240 230 0
240 230 0
240 230 0
240 230 0
240 230 0
240 230 0
240 230 0
240 230 0
240 231 0
240 232 0
241 233 0
242 234 0
243 236 0
244 239 0
245 241 0
247 244 0
249 246 0
250 249 0
252 251 0
253 253 0
254 254 0
254 255 0
255 254 0
254 253 0
253 252 0
252 249 0
250 247 0
248 243 0
246 240 0
243 236 0
241 232 0
238 228 0
236 224 0
234 221 0
232 218 0
230 215 0
229 213 0
228 211 0
227 209 0
227 208 0
226 207 0
226 206 0
226 206 0
226 206 0
239 230 0
239 230 0
239 230 0
239 230 0
240 230 0
240 230 0
240 230 0
240 230 0
240 230 0
240 230 0
240 230 0
240 230 0
240 230 0
240 230 0
240 231 0
240 231 0
241 233 0
242 234 0
243 236 0
244 238 0
245 241 0
247 244 0
249 246 0
250 249 0
252 251 0
253 253 0
254 254 0
254 254 0
254 254 0
254 253 0
253 252 0
252 249 0
250 246 0
248 243 0
245 239 0
243 236 0
241 232 0
238 228 0
236 224 0
234 221 0
232 218 0
230 215 0
229 212 0
228 210 0
227 209 0
227 207 0
226 207 0
226 206 0
226 205 0
226 205 0
238 229 0
239 229 0
239 229 0
239 229 0
239 229 0
239 229 0
240 229 0
240 229 0
240 229 0
240 229 0
240 229 0
240 229 0
240 229 0
240 230 0
240 230 0
240 231 0
241 232 0
241 234 0
242 236 0
244 238 0
245 241 0
247 243 0
248 246 0
250 248 0
252 250 0
253 252 0
254 253 0
254 254 0
254 254 0
254 253 0
253 251 0
251 249 0
250 246 0
248 243 0
245 239 0
243 235 0
240 231 0
238 227 0
236 224 0
234 220 0
232 217 0
230 214 0
229 212 0
228 210 0
227 208 0
226 207 0
226 206 0
225 205 0
225 205 0
225 205 0
238 228 0
238 228 0
238 228 0
238 228 0
239 228 0
239 228 0
239 228 0
239 228 0
239 228 0
239 228 0
239 228 0
239 228 0
239 229 0
239 229 0
239 230 0
240 230 0
240 232 0
241 233 0
242 235 0
243 238 0
245 240 0
246 243 0
248 245 0
250 248 0
251 250 0
252 252 0
253 253 0
254 253 0
254 253 0
253 252 0
253 251 0
251 248 0
249 246 0
247 242 0
245 239 0
243 235 0
240 231 0
238 227 0
235 223 0
233 220 0
231 216 0
230 213 0
228 211 0
227 209 0
226 207 0
226 206 0
225 205 0
225 204 0
225 204 0
225 204 0
237 227 0
237 227 0
237 227 0
238 227 0
238 227 0
238 227 0
238 227 0
239 227 0
239 227 0
239 227 0
239 228 0
239 228 0
239 228 0
239 228 0
239 229 0
239 230 0
240 231 0
241 233 0
242 235 0
243 237 0
244 239 0
246 242 0
248 245 0
249 247 0
251 249 0
252 251 0
253 252 0
254 253 0
254 252 0
253 252 0
252 250 0
251 248 0
249 245 0
247 242 0
245 238 0
242 234 0
240 230 0
237 226 0
235 222 0
233 219 0
231 216 0
229 213 0
228 210 0
226 208 0
226 206 0
225 205 0
224 204 0
224 203 0
224 202 0
224 202 0
236 226 0
236 226 0
237 226 0
237 226 0
237 226 0
237 226 0
238 226 0
238 226 0
238 226 0
238 226 0
238 227 0
238 227 0
238 227 0
238 227 0
238 228 0
239 229 0
239 230 0
240 232 0
241 234 0
242 236 0
244 239 0
246 241 0
247 244 0
249 246 0
250 248 0
252 250 0
253 251 0
253 252 0
253 252 0
253 251 0
252 249 0
250 247 0
249 244 0
247 241 0
244 238 0
242 234 0
239 230 0
237 226 0
234 222 0
232 218 0
230 215 0
228 211 0
227 209 0
226 206 0
225 205 0
224 203 0
224 202 0
223 201 0
223 201 0
223 200 0
236 224 0
236 224 0
236 224 0
236 224 0
236 225 0
237 225 0
237 225 0
237 225 0
237 225 0
237 225 0
238 225 0
238 226 0
238 226 0
238 227 0
238 227 0
238 228 0
239 229 0
240 231 0
241 233 0
242 235 0
243 238 0
245 240 0
247 243 0
248 245 0
250 247 0
251 249 0
252 250 0
253 251 0
253 251 0
252 250 0
251 249 0
250 246 0
248 244 0
246 240 0
244 237 0
242 233 0
239 229 0
236 225 0
234 221 0
232 217 0
230 213 0
228 210 0
226 207 0
225 205 0
224 203 0
223 201 0
222 200 0
222 199 0
222 199 0
222 198 0
235 223 0
235 223 0
235 223 0
235 223 0
236 223 0
236 223 0
236 224 0
236 224 0
237 224 0
237 224 0
237 224 0
237 225 0
237 225 0
237 226 0
237 226 0
238 227 0
238 229 0
239 230 0
240 232 0
241 234 0
243 237 0
245 239 0
246 242 0
248 244 0
249 246 0
251 248 0
251 249 0
252 250 0
252 250 0
252 249 0
251 248 0
250 246 0
248 243 0
246 240 0
244 236 0
241 232 0
239 228 0
236 224 0
233 220 0
231 216 0
229 212 0
227 209 0
225 206 0
224 203 0
223 201 0
222 200 0
221 198 0
221 197 0
221 197 0
220 196 0
234 221 0
234 221 0
234 222 0
234 222 0
235 222 0
235 222 0
235 222 0
236 223 0
236 223 0
236 223 0
236 223 0
236 224 0
236 224 0
237 225 0
237 226 0
237 227 0
238 228 0
239 230 0
240 231 0
241 234 0
242 236 0
244 238 0
246 241 0
247 243 0
249 245 0
250 247 0
251 248 0
251 249 0
252 249 0
251 248 0
250 247 0
249 245 0
248 242 0
246 239 0
243 236 0
241 232 0
238 228 0
236 223 0
233 219 0
231 215 0
228 211 0
226 208 0
224 205 0
223 202 0
222 200 0
221 198 0
220 196 0
219 195 0
219 194 0
219 194 0
233 220 0
233 220 0
234 220 0
234 221 0
234 221 0
234 221 0
235 221 0
235 222 0
235 222 0
235 222 0
236 223 0
236 223 0
236 223 0
236 224 0
236 225 0
237 226 0
237 227 0
238 229 0
239 231 0
241 233 0
242 235 0
243 237 0
245 240 0
247 242 0
248 244 0
249 246 0
250 247 0
251 247 0
251 247 0
251 247 0
250 246 0
249 244 0
247 241 0
245 238 0
243 235 0
241 231 0
238 227 0
235 223 0
233 218 0
230 214 0
228 210 0
225 207 0
224 203 0
222 200 0
221 198 0
220 196 0
219 194 0
218 193 0
218 192 0
218 192 0
233 219 0
233 219 0
233 220 0
233 220 0
234 220 0
234 220 0
234 221 0
235 221 0
235 221 0
235 222 0
235 222 0
235 222 0
236 223 0
236 224 0
236 225 0
237 226 0
237 227 0
238 228 0
239 230 0
240 232 0
242 234 0
243 237 0
245 239 0
246 241 0
247 243 0
249 244 0
249 245 0
250 246 0
250 246 0
250 246 0
249 244 0
248 243 0
247 240 0
245 237 0
243 234 0
240 230 0
238 226 0
235 222 0
232 218 0
230 213 0
227 209 0
225 205 0
223 202 0
221 199 0
220 196 0
218 194 0
218 192 0
217 191 0
216 190 0
216 190 0
233 219 0
233 219 0
233 219 0
233 219 0
233 220 0
234 220 0
234 220 0
234 220 0
234 221 0
235 221 0
235 222 0
235 222 0
235 223 0
236 223 0
236 224 0
236 225 0
237 227 0
238 228 0
239 230 0
240 232 0
241 234 0
243 236 0
244 238 0
245 240 0
247 241 0
248 243 0
249 244 0
249 245 0
249 245 0
249 244 0
249 243 0
248 242 0
246 239 0
245 237 0
242 233 0
240 230 0
237 226 0
235 221 0
232 217 0
229 213 0
227 208 0
224 205 0
222 201 0
220 198 0
219 195 0
217 193 0
216 191 0
216 189 0
215 189 0
215 188 0
233 219 0
233 219 0
233 219 0
233 219 0
233 219 0
234 220 0
234 220 0
234 220 0
234 221 0
235 221 0
235 222 0
235 222 0
235 223 0
236 223 0
236 224 0
236 225 0
237 227 0
238 228 0
239 230 0
240 231 0
241 233 0
242 235 0
244 237 0
245 239 0
246 240 0
247 241 0
248 242 0
248 243 0
249 243 0
248 243 0
248 242 0
247 240 0
246 238 0
244 235 0
242 232 0
240 229 0
237 225 0
234 221 0
232 216 0
229 212 0
226 208 0
224 204 0
222 200 0
220 197 0
218 194 0
217 192 0
216 190 0
215 188 0
214 187 0
214 187 0
233 219 0
233 219 0
233 219 0
233 219 0
233 220 0
234 220 0
234 220 0
234 220 0
234 221 0
235 221 0
235 222 0
235 222 0
236 223 0
236 224 0
236 225 0
237 226 0
237 227 0
238 228 0
239 230 0
240 231 0
241 233 0
242 235 0
243 236 0
244 238 0
245 239 0
246 240 0
247 241 0
247 241 0
247 241 0
247 241 0
247 240 0
246 239 0
245 237 0
243 234 0
241 231 0
239 228 0
237 224 0
234 220 0
231 216 0
229 212 0
226 207 0
224 203 0
221 200 0
219 196 0
218 193 0
216 191 0
215 189 0
214 187 0
214 186 0
213 186 0
233 220 0
233 220 0
233 220 0
234 220 0
234 220 0
234 220 0
234 221 0
235 221 0
235 221 0
235 222 0
235 222 0
236 223 0
236 224 0
236 224 0
237 225 0
237 226 0
238 228 0
238 229 0
239 230 0
240 231 0
241 233 0
242 234 0
243 235 0
244 237 0
244 238 0
245 239 0
246 239 0
246 239 0
246 239 0
246 239 0
246 238 0
245 237 0
244 235 0
242 233 0
241 230 0
239 227 0
236 223 0
234 219 0
231 215 0
228 211 0
226 207 0
223 203 0
221 199 0
219 196 0
217 193 0
216 191 0
215 189 0
214 187 0
213 186 0
213 186 0
234 221 0
234 221 0
234 221 0
234 221 0
234 221 0
235 221 0
235 222 0
235 222 0
235 222 0
236 223 0
236 223 0
236 224 0
237 225 0
237 225 0
237 226 0
238 227 0
238 228 0
239 229 0
240 231 0
240 232 0
241 233 0
242 234 0
242 235 0
243 236 0
244 236 0
244 237 0
245 237 0
245 238 0
245 237 0
245 237 0
244 236 0
244 235 0
243 233 0
242 231 0
240 229 0
238 226 0
236 222 0
233 219 0
231 215 0
228 211 0
226 207 0
223 203 0
221 200 0
219 196 0
217 193 0
216 191 0
215 189 0
214 188 0
213 187 0
213 186 0
235 222 0
235 222 0
235 222 0
235 222 0
235 223 0
236 223 0
236 223 0
236 223 0
236 224 0
236 224 0
237 225 0
237 225 0
237 226 0
238 227 0
238 227 0
239 228 0
239 229 0
240 230 0
240 231 0
241 232 0
241 233 0
242 234 0
242 234 0
242 235 0
243 235 0
243 235 0
243 236 0
244 236 0
244 235 0
243 235 0
243 234 0
242 233 0
242 232 0
240 230 0
239 227 0
237 225 0
235 222 0
233 218 0
231 215 0
228 211 0
226 207 0
224 204 0
221 200 0
220 197 0
218 194 0
216 192 0
215 190 0
214 189 0
214 188 0
214 187 0
236 224 0
236 224 0
236 224 0
236 224 0
236 224 0
237 224 0
237 225 0
237 225 0
237 225 0
237 225 0
237 226 0
238 226 0
238 227 0
238 228 0
239 229 0
239 230 0
240 230 0
240 231 0
241 232 0
241 232 0
241 233 0
242 233 0
242 234 0
242 234 0
242 234 0
242 234 0
242 234 0
242 234 0
242 233 0
242 233 0
242 232 0
241 231 0
240 230 0
239 228 0
238 226 0
237 224 0
235 221 0
233 218 0
231 215 0
228 211 0
226 208 0
224 204 0
222 201 0
220 198 0
219 196 0
217 193 0
216 191 0
215 190 0
215 189 0
215 189 0
238 226 0
238 226 0
238 226 0
238 226 0
238 226 0
238 226 0
238 226 0
238 226 0
238 227 0
238 227 0
238 227 0
239 228 0
239 229 0
239 229 0
240 230 0
240 231 0
241 232 0
241 232 0
241 233 0
241 233 0
241 233 0
242 233 0
241 233 0
241 233 0
241 233 0
241 232 0
241 232 0
241 232 0
241 231 0
240 231 0
240 230 0
240 229 0
239 228 0
238 226 0
237 225 0
236 223 0
234 220 0
232 218 0
231 215 0
229 212 0
227 208 0
225 205 0
223 202 0
221 200 0
220 197 0
218 195 0
217 194 0
216 192 0
216 191 0
216 191 0
239 228 0
239 228 0
239 228 0
239 228 0
239 228 0
239 228 0
239 228 0
239 228 0
239 228 0
239 229 0
239 229 0
240 229 0
240 230 0
240 231 0
241 231 0
241 232 0
241 233 0
242 233 0
242 234 0
242 234 0
242 234 0
242 233 0
241 233 0
241 232 0
241 232 0
240 231 0
240 230 0
240 230 0
239 229 0
239 228 0
239 228 0
238 227 0
238 226 0
237 225 0
236 223 0
235 222 0
234 220 0
232 218 0
231 215 0
229 212 0
227 210 0
225 207 0
224 204 0
222 202 0
221 200 0
220 198 0
219 196 0
218 195 0
218 194 0
217 194 0
240 231 0
240 230 0
240 230 0
240 230 0
240 230 0
240 230 0
240 230 0
240 230 0
240 230 0
240 230 0
240 230 0
240 231 0
241 231 0
241 232 0
241 233 0
242 233 0
242 234 0
242 234 0
242 234 0
242 234 0
242 234 0
242 233 0
241 233 0
240 232 0
240 231 0
239 230 0
239 229 0
238 228 0
238 227 0
238 227 0
237 226 0
237 225 0
237 224 0
236 224 0
235 222 0
235 221 0
234 220 0
232 218 0
231 216 0
230 213 0
228 211 0
226 209 0
225 206 0
224 204 0
222 202 0
221 201 0
220 199 0
220 198 0
219 197 0
219 197 0
242 233 0
242 232 0
242 232 0
242 232 0
241 232 0
241 232 0
241 232 0
241 232 0
241 232 0
241 232 0
241 232 0
241 232 0
241 233 0
242 233 0
242 234 0
242 234 0
243 235 0
243 235 0
243 235 0
242 235 0
242 234 0
241 233 0
241 232 0
240 231 0
239 230 0
239 229 0
238 228 0
237 227 0
237 226 0
236 225 0
236 224 0
236 224 0
236 223 0
235 222 0
235 222 0
234 221 0
234 220 0
233 218 0
232 217 0
230 215 0
229 213 0
228 211 0
226 209 0
225 207 0
224 205 0
223 204 0
222 202 0
222 202 0
221 201 0
221 201 0
243 234 0
243 234 0
243 234 0
243 234 0
243 234 0
242 233 0
242 233 0
242 233 0
242 233 0
242 233 0
242 233 0
242 233 0
242 234 0
242 234 0
243 235 0
243 235 0
243 236 0
243 236 0
243 236 0
243 235 0
242 235 0
241 234 0
241 232 0
240 231 0
239 229 0
238 228 0
237 227 0
236 225 0
236 224 0
235 224 0
235 223 0
235 222 0
235 222 0
235 222 0
234 221 0
234 221 0
234 220 0
233 219 0
232 218 0
231 217 0
230 215 0
229 213 0
228 212 0
227 210 0
226 209 0
225 207 0
224 206 0
224 205 0
224 205 0
223 204 0
244 236 0
244 236 0
244 236 0
244 235 0
243 235 0
243 235 0
243 234 0
243 234 0
242 234 0
242 234 0
242 234 0
242 234 0
243 235 0
243 235 0
243 236 0
243 236 0
243 237 0
243 237 0
243 236 0
243 236 0
242 235 0
241 234 0
241 232 0
239 231 0
238 229 0
237 227 0
236 226 0
236 224 0
235 223 0
235 223 0
234 222 0
234 222 0
234 221 0
234 221 0
234 221 0
234 221 0
234 221 0
234 220 0
233 220 0
233 219 0
232 218 0
231 216 0
230 215 0
229 214 0
228 212 0
227 211 0
227 210 0
226 209 0
226 209 0
226 208 0
245 237 0
245 237 0
244 237 0
244 236 0
244 236 0
244 236 0
243 235 0
243 235 0
243 235 0
243 235 0
243 235 0
243 235 0
243 236 0
243 236 0
243 237 0
244 237 0
244 237 0
244 237 0
244 237 0
243 236 0
242 235 0
242 234 0
240 232 0
239 231 0
238 229 0
237 227 0
236 225 0
235 224 0
234 223 0
234 222 0
234 221 0
234 221 0
234 221 0
234 221 0
235 222 0
235 222 0
235 222 0
235 222 0
235 222 0
234 221 0
234 220 0
233 219 0
232 218 0
231 217 0
231 216 0
230 215 0
229 214 0
229 213 0
228 213 0
228 212 0
245 237 0
245 237 0
245 237 0
245 237 0
244 237 0
244 236 0
244 236 0
243 236 0
243 235 0
243 235 0
243 236 0
243 236 0
243 236 0
243 237 0
244 237 0
244 238 0
244 238 0
244 238 0
244 238 0
243 237 0
243 236 0
242 234 0
240 233 0
239 231 0
238 229 0
237 227 0
236 225 0
235 224 0
234 223 0
234 222 0
234 221 0
234 221 0
234 222 0
234 222 0
235 223 0
235 223 0
236 224 0
236 224 0
236 224 0
236 224 0
236 223 0
235 223 0
235 222 0
234 221 0
233 220 0
232 219 0
232 218 0
231 217 0
231 217 0
231 216 0
245 238 0
245 237 0
245 237 0
245 237 0
244 237 0
244 236 0
244 236 0
243 236 0
243 236 0
243 236 0
243 236 0
243 236 0
243 237 0
244 237 0
244 238 0
244 238 0
244 239 0
244 239 0
244 238 0
243 237 0
243 236 0
242 235 0
241 233 0
239 231 0
238 229 0
237 227 0
236 225 0
235 224 0
234 223 0
234 222 0
234 222 0
234 222 0
234 222 0
235 223 0
236 224 0
236 225 0
237 226 0
238 226 0
238 227 0
238 227 0
238 227 0
237 226 0
237 226 0
236 225 0
236 224 0
235 223 0
234 222 0
234 221 0
233 221 0
233 221 0
245 237 0
245 237 0
245 237 0
245 237 0
244 237 0
244 236 0
244 236 0
243 236 0
243 236 0
243 236 0
243 236 0
243 237 0
243 237 0
244 238 0
244 239 0
244 239 0
244 239 0
244 239 0
244 239 0
244 238 0
243 237 0
242 235 0
241 233 0
239 231 0
238 229 0
237 228 0
236 226 0
235 224 0
234 223 0
234 223 0
234 223 0
234 223 0
235 223 0
236 224 0
237 225 0
238 227 0
238 228 0
239 229 0
240 230 0
240 230 0
240 230 0
240 230 0
239 229 0
239 229 0
238 228 0
237 227 0
237 226 0
236 225 0
236 225 0
235 225 0
244 237 0
244 237 0
244 237 0
244 236 0
244 236 0
244 236 0
243 236 0
243 236 0
243 236 0
243 236 0
243 237 0
243 237 0
244 238 0
244 238 0
244 239 0
245 239 0
245 240 0
245 240 0
244 239 0
244 238 0
243 237 0
242 236 0
241 234 0
240 232 0
238 230 0
237 228 0
236 227 0
236 225 0
235 224 0
235 224 0
235 224 0
235 224 0
236 225 0
237 226 0
238 227 0
239 229 0
240 230 0
241 232 0
242 233 0
242 233 0
242 234 0
242 234 0
242 233 0
241 233 0
241 232 0
240 231 0
239 230 0
238 229 0
238 229 0
238 228 0
244 236 0
244 236 0
244 236 0
243 236 0
243 235 0
243 235 0
243 235 0
243 235 0
243 236 0
243 236 0
243 237 0
243 237 0
244 238 0
244 239 0
244 239 0
245 240 0
245 240 0
245 240 0
245 240 0
244 239 0
243 238 0
242 236 0
241 235 0
240 233 0
239 231 0
238 229 0
237 228 0
236 226 0
236 226 0
236 225 0
236 225 0
236 226 0
237 227 0
238 228 0
239 230 0
240 231 0
242 233 0
243 234 0
244 236 0
244 236 0
244 237 0
244 237 0
244 237 0
244 236 0
243 236 0
242 235 0
241 234 0
241 233 0
240 232 0
240 232 0
243 235 0
243 235 0
243 235 0
243 235 0
243 235 0
243 235 0
242 235 0
242 235 0
243 235 0
243 236 0
243 236 0
243 237 0
244 238 0
244 239 0
245 240 0
245 240 0
245 240 0
245 240 0
245 240 0
244 239 0
244 238 0
243 237 0
242 235 0
241 234 0
239 232 0
238 230 0
238 229 0
237 228 0
237 227 0
237 227 0
237 227 0
237 228 0
238 229 0
239 230 0
241 232 0
242 234 0
243 235 0
244 237 0
245 238 0
246 240 0
247 240 0
247 240 0
246 240 0
246 240 0
245 239 0
244 238 0
244 237 0
243 236 0
243 236 0
242 236 0
242 233 0
242 233 0
242 233 0
242 233 0
242 233 0
242 234 0
242 234 0
242 234 0
242 235 0
242 235 0
243 236 0
243 237 0
244 238 0
244 239 0
245 240 0
245 240 0
245 241 0
245 241 0
245 240 0
245 240 0
244 239 0
243 238 0
242 236 0
241 234 0
240 233 0
239 231 0
238 230 0
238 229 0
238 229 0
238 228 0
238 229 0
239 230 0
240 231 0
241 232 0
242 234 0
244 236 0
245 238 0
246 240 0
247 241 0
248 242 0
248 243 0
249 243 0
248 243 0
248 243 0
247 242 0
246 241 0
246 240 0
245 239 0
244 239 0
244 239 0
241 232 0
241 232 0
241 232 0
241 232 0
241 232 0
241 233 0
241 233 0
241 233 0
242 234 0
242 235 0
242 236 0
243 237 0
243 238 0
244 239 0
245 240 0
245 240 0
245 241 0
245 241 0
245 241 0
245 240 0
244 239 0
243 238 0
242 237 0
242 235 0
241 234 0
240 232 0
239 231 0
239 231 0
239 230 0
239 230 0
239 231 0
240 232 0
241 233 0
242 234 0
244 236 0
245 238 0
246 240 0
248 242 0
249 244 0
250 245 0
250 246 0
250 246 0
250 246 0
250 245 0
249 245 0
248 244 0
247 243 0
247 242 0
246 241 0
246 241 0
240 230 0
240 231 0
240 231 0
240 231 0
240 231 0
240 231 0
241 232 0
241 232 0
241 233 0
242 234 0
242 235 0
243 236 0
243 237 0
244 238 0
244 239 0
245 240 0
245 241 0
245 241 0
245 241 0
245 240 0
244 239 0
244 238 0
243 237 0
242 236 0
241 235 0
241 233 0
240 233 0
240 232 0
240 232 0
240 232 0
241 232 0
241 233 0
242 235 0
244 236 0
245 238 0
246 240 0
248 242 0
249 244 0
250 246 0
251 247 0
251 248 0
252 248 0
251 248 0
251 248 0
250 247 0
250 246 0
249 245 0
248 244 0
248 244 0
247 243 0
239 229 0
239 229 0
239 229 0
239 230 0
240 230 0
240 230 0
240 231 0
240 231 0
241 232 0
241 233 0
242 234 0
242 235 0
243 236 0
244 238 0
244 239 0
245 240 0
245 240 0
245 240 0
245 240 0
245 240 0
244 239 0
244 238 0
243 237 0
242 236 0
242 235 0
241 234 0
241 234 0
241 233 0
241 233 0
241 234 0
242 234 0
243 235 0
244 237 0
245 238 0
246 240 0
247 242 0
249 244 0
250 246 0
251 247 0
252 248 0
252 249 0
253 250 0
252 249 0
252 249 0
251 248 0
251 247 0
250 247 0
249 246 0
249 245 0
248 245 0
239 228 0
239 228 0
239 228 0
239 229 0
239 229 0
239 229 0
239 230 0
240 230 0
240 231 0
240 232 0
241 233 0
242 234 0
242 236 0
243 237 0
244 238 0
244 239 0
245 239 0
245 240 0
245 240 0
245 240 0
244 239 0
244 238 0
243 237 0
243 237 0
242 236 0
242 235 0
242 235 0
242 234 0
242 234 0
242 235 0
243 236 0
244 237 0
245 238 0
246 240 0
247 241 0
248 243 0
250 245 0
251 247 0
252 248 0
253 249 0
253 250 0
253 250 0
253 250 0
253 250 0
252 249 0
251 248 0
250 248 0
250 247 0
249 246 0
249 246 0
238 227 0
238 227 0
238 227 0
238 228 0
238 228 0
238 228 0
239 229 0
239 229 0
239 230 0
240 231 0
241 232 0
241 233 0
242 235 0
243 236 0
243 237 0
244 238 0
244 238 0
244 239 0
244 239 0
244 239 0
244 238 0
244 238 0
243 237 0
243 237 0
242 236 0
242 236 0
242 235 0
242 235 0
243 235 0
243 236 0
244 237 0
245 238 0
245 239 0
247 241 0
248 242 0
249 244 0
250 246 0
251 248 0
252 249 0
253 250 0
253 251 0
253 251 0
253 251 0
253 250 0
252 250 0
251 249 0
251 248 0
250 247 0
250 247 0
249 246 0
238 227 0
238 227 0
238 227 0
238 227 0
238 227 0
238 228 0
238 228 0
238 229 0
239 229 0
239 230 0
240 231 0
241 232 0
241 233 0
242 234 0
243 236 0
243 236 0
243 237 0
244 238 0
244 238 0
244 238 0
243 238 0
243 237 0
243 237 0
243 236 0
242 236 0
242 236 0
242 236 0
243 236 0
243 236 0
244 237 0
244 238 0
245 239 0
246 240 0
247 241 0
248 243 0
249 245 0
250 246 0
251 248 0
252 249 0
253 250 0
253 250 0
253 251 0
253 251 0
253 250 0
252 249 0
251 249 0
251 248 0
250 247 0
250 247 0
249 246 0
238 227 0
238 227 0
238 227 0
238 227 0
238 227 0
238 227 0
238 227 0
238 228 0
238 228 0
239 229 0
239 230 0
240 231 0
240 232 0
241 233 0
242 234 0
242 235 0
243 236 0
243 236 0
243 236 0
243 236 0
243 236 0
243 236 0
242 236 0
242 236 0
242 236 0
242 235 0
243 236 0
243 236 0
243 236 0
244 237 0
245 238 0
245 239 0
246 240 0
247 242 0
248 243 0
249 245 0
250 246 0
251 247 0
252 249 0
252 249 0
253 250 0
253 250 0
252 250 0
252 249 0
252 249 0
251 248 0
250 247 0
250 247 0
249 246 0
249 246 0
238 227 0
238 227 0
238 227 0
238 227 0
238 227 0
238 227 0
238 227 0
238 227 0
238 228 0
238 228 0
239 229 0
239 230 0
240 231 0
240 232 0
241 232 0
241 233 0
242 234 0
242 234 0
242 235 0
242 235 0
242 235 0
242 235 0
242 235 0
242 235 0
242 235 0
242 235 0
242 235 0
243 236 0
243 236 0
244 237 0
245 238 0
245 239 0
246 240 0
247 242 0
248 243 0
249 244 0
250 246 0
251 247 0
251 248 0
252 248 0
252 249 0
252 249 0
252 249 0
251 248 0
251 248 0
250 247 0
250 246 0
249 246 0
249 245 0
249 245 0
238 227 0
238 227 0
238 227 0
238 227 0
238 227 0
238 227 0
237 227 0
237 227 0
237 227 0
238 227 0
238 228 0
238 228 0
239 229 0
239 230 0
240 231 0
240 231 0
240 232 0
241 233 0
241 233 0
241 233 0
241 233 0
241 233 0
241 234 0
241 234 0
241 234 0
242 234 0
242 235 0
243 235 0
243 236 0
244 237 0
244 238 0
245 239 0
246 240 0
247 241 0
248 242 0
248 243 0
249 245 0
250 246 0
250 246 0
251 247 0
251 247 0
251 247 0
251 247 0
250 247 0
250 246 0
249 246 0
249 245 0
248 244 0
248 244 0
248 244 0
239 228 0
239 228 0
239 228 0
238 227 0
238 227 0
238 227 0
237 226 0
237 226 0
237 226 0
237 226 0
237 227 0
238 227 0
238 228 0
238 228 0
239 229 0
239 230 0
239 230 0
240 231 0
240 231 0
240 231 0
240 232 0
240 232 0
240 232 0
240 232 0
241 233 0
241 233 0
241 234 0
242 235 0
243 235 0
243 236 0
244 237 0
245 238 0
245 239 0
246 240 0
247 241 0
248 242 0
248 243 0
249 244 0
249 245 0
250 245 0
250 246 0
250 246 0
249 246 0
249 245 0
249 245 0
248 244 0
248 243 0
247 243 0
247 243 0
247 242 0
240 229 0
239 229 0
239 229 0
239 228 0
238 228 0
238 227 0
238 227 0
237 226 0
237 226 0
237 226 0
237 226 0
237 226 0
237 226 0
237 227 0
238 227 0
238 228 0
238 228 0
238 229 0
238 229 0
239 229 0
239 230 0
239 230 0
239 230 0
239 231 0
240 231 0
240 232 0
241 233 0
241 234 0
242 234 0
243 235 0
243 236 0
244 237 0
245 238 0
245 239 0
246 240 0
247 241 0
247 242 0
248 243 0
248 243 0
248 244 0
248 244 0
248 244 0
248 244 0
248 243 0
248 243 0
247 242 0
247 242 0
246 241 0
246 241 0
246 241 0
240 231 0
240 230 0
240 230 0
239 229 0
239 228 0
238 228 0
238 227 0
237 226 0
237 225 0
236 225 0
236 225 0
236 225 0
236 225 0
236 225 0
237 225 0
237 226 0
237 226 0
237 227 0
237 227 0
237 227 0
237 228 0
238 228 0
238 229 0
238 229 0
239 230 0
239 231 0
240 232 0
241 232 0
241 233 0
242 234 0
243 235 0
243 236 0
244 237 0
244 238 0
245 239 0
245 240 0
246 240 0
246 241 0
247 242 0
247 242 0
247 242 0
247 242 0
247 242 0
247 242 0
246 241 0
246 241 0
246 240 0
246 240 0
245 240 0
245 239 0
241 232 0
241 232 0
241 231 0
240 230 0
239 229 0
239 228 0
238 227 0
237 226 0
237 225 0
236 225 0
236 224 0
236 224 0
236 224 0
236 224 0
236 224 0
236 224 0
236 224 0
236 225 0
236 225 0
236 226 0
236 226 0
237 227 0
237 227 0
237 228 0
238 229 0
238 230 0
239 230 0
240 231 0
240 232 0
241 233 0
242 234 0
242 235 0
243 236 0
243 237 0
244 237 0
244 238 0
245 239 0
245 239 0
245 240 0
246 240 0
246 240 0
246 240 0
246 240 0
246 240 0
245 240 0
245 239 0
245 239 0
245 238 0
244 238 0
244 238 0
242 233 0
242 233 0
241 232 0
241 231 0
240 230 0
239 229 0
238 227 0
237 226 0
237 225 0
236 224 0
236 223 0
235 223 0
235 223 0
235 223 0
235 223 0
235 223 0
235 223 0
235 223 0
235 224 0
235 224 0
235 225 0
236 225 0
236 226 0
236 227 0
237 227 0
238 228 0
238 229 0
239 230 0
240 231 0
240 232 0
241 233 0
241 234 0
242 235 0
242 235 0
243 236 0
243 237 0
244 237 0
244 238 0
244 238 0
245 239 0
245 239 0
245 239 0
245 239 0
245 239 0
245 238 0
244 238 0
244 238 0
244 237 0
244 237 0
244 237 0
243 234 0
243 234 0
242 233 0
241 232 0
240 231 0
239 229 0
238 228 0
237 226 0
237 225 0
236 224 0
235 223 0
235 222 0
234 222 0
234 221 0
234 221 0
234 221 0
234 222 0
234 222 0
234 222 0
234 223 0
234 223 0
235 224 0
235 225 0
236 225 0
236 226 0
237 227 0
238 228 0
238 229 0
239 230 0
240 231 0
240 232 0
241 233 0
241 234 0
242 234 0
242 235 0
242 235 0
243 236 0
243 236 0
243 237 0
243 237 0
244 237 0
244 237 0
244 237 0
244 237 0
244 237 0
244 237 0
243 236 0
243 236 0
243 236 0
243 236 0
243 235 0
243 235 0
243 234 0
242 233 0
241 231 0
240 230 0
239 228 0
237 226 0
237 225 0
236 224 0
235 223 0
234 222 0
234 221 0
234 221 0
233 220 0
233 220 0
233 220 0
233 221 0
233 221 0
233 221 0
234 222 0
234 223 0
234 224 0
235 224 0
236 225 0
236 226 0
237 227 0
238 228 0
238 229 0
239 230 0
239 231 0
240 232 0
240 233 0
241 233 0
241 234 0
241 234 0
242 235 0
242 235 0
242 236 0
243 236 0
243 236 0
243 236 0
243 236 0
243 236 0
243 236 0
243 236 0
243 236 0
243 235 0
243 235 0
243 235 0
244 236 0
244 236 0
243 235 0
242 233 0
241 232 0
240 230 0
239 228 0
238 227 0
237 225 0
236 224 0
235 222 0
234 221 0
234 221 0
233 220 0
233 220 0
233 220 0
233 220 0
233 220 0
233 220 0
233 221 0
233 221 0
233 222 0
234 223 0
234 224 0
235 225 0
236 226 0
236 227 0
237 228 0
238 229 0
238 230 0
239 231 0
240 231 0
240 232 0
240 233 0
241 233 0
241 234 0
241 234 0
242 235 0
242 235 0
242 235 0
242 235 0
243 236 0
243 236 0
243 236 0
243 235 0
243 235 0
243 235 0
243 235 0
242 235 0
242 235 0
244 236 0
244 236 0
243 235 0
242 234 0
241 232 0
240 230 0
239 228 0
238 227 0
237 225 0
236 223 0
235 222 0
234 221 0
234 220 0
233 220 0
233 220 0
233 219 0
233 219 0
233 220 0
233 220 0
233 220 0
233 221 0
233 222 0
234 222 0
234 223 0
235 224 0
236 226 0
236 227 0
237 228 0
238 229 0
238 229 0
239 230 0
239 231 0
240 232 0
240 232 0
240 233 0
241 233 0
241 234 0
241 234 0
242 235 0
242 235 0
242 235 0
242 235 0
242 235 0
243 235 0
243 235 0
243 235 0
242 235 0
242 235 0
242 234 0
242 234 0
