P3
50 50
255
220 230 0
220 230 0
220 230 0
220 231 0
219 231 0
219 231 0
219 232 0
218 233 0
218 233 0
217 234 0
216 235 0
216 236 0
215 237 0
214 238 0
214 239 0
213 240 0
213 241 0
212 242 0
212 242 0
211 243 0
211 244 0
211 244 0
211 244 0
211 244 0
211 244 0
212 244 0
213 243 0
214 242 0
215 241 0
216 240 0
218 239 0
219 237 0
221 235 0
223 233 0
225 230 0
228 228 0
230 225 0
233 223 0
235 220 0
238 217 0
240 215 0
243 212 0
245 210 0
247 207 0
249 205 0
251 204 0
252 202 0
253 201 0
254 201 0
254 200 0
220 230 0
220 230 0
220 230 0
220 231 0
219 231 0
219 232 0
219 232 0
218 233 0
218 233 0
217 234 0
216 235 0
216 236 0
215 237 0
214 238 0
214 239 0
213 240 0
213 241 0
212 242 0
212 242 0
211 243 0
211 244 0
211 244 0
211 244 0
211 244 0
212 244 0
212 244 0
213 243 0
214 242 0
215 241 0
216 240 0
218 239 0
219 237 0
221 235 0
223 233 0
225 230 0
228 228 0
230 225 0
233 223 0
235 220 0
238 217 0
240 215 0
243 212 0
245 210 0
247 207 0
249 205 0
251 204 0
252 202 0
253 201 0
254 200 0
254 200 0
220 230 0
220 230 0
220 230 0
220 231 0
219 231 0
219 232 0
219 232 0
218 233 0
218 233 0
217 234 0
216 235 0
216 236 0
215 237 0
214 238 0
214 239 0
213 240 0
213 241 0
212 242 0
212 242 0
211 243 0
211 243 0
211 244 0
211 244 0
211 244 0
212 244 0
212 244 0
213 243 0
214 242 0
215 241 0
216 240 0
218 238 0
219 237 0
221 235 0
223 233 0
225 230 0
228 228 0
230 225 0
233 223 0
235 220 0
238 217 0
240 215 0
243 212 0
245 210 0
247 207 0
249 205 0
251 204 0
252 202 0
253 201 0
254 200 0
255 200 0
220 230 0
220 230 0
220 230 0
220 231 0
219 231 0
219 232 0
219 232 0
218 233 0
218 233 0
217 234 0
216 235 0
216 236 0
215 237 0
214 238 0
214 239 0
213 240 0
213 241 0
212 241 0
212 242 0
211 243 0
211 243 0
211 244 0
211 244 0
211 244 0
212 244 0
212 243 0
213 243 0
214 242 0
215 241 0
216 240 0
218 238 0
219 236 0
221 234 0
223 232 0
226 230 0
228 228 0
230 225 0
233 222 0
235 220 0
238 217 0
240 214 0
243 212 0
245 209 0
247 207 0
249 205 0
251 204 0
252 202 0
253 201 0
254 200 0
254 200 0
220 230 0
220 230 0
220 230 0
220 231 0
219 231 0
219 232 0
219 232 0
218 233 0
218 233 0
217 234 0
216 235 0
216 236 0
215 237 0
214 238 0
214 239 0
213 240 0
213 240 0
212 241 0
212 242 0
212 243 0
211 243 0
211 243 0
211 244 0
212 244 0
212 243 0
212 243 0
213 243 0
214 242 0
215 241 0
216 239 0
218 238 0
220 236 0
221 234 0
224 232 0
226 230 0
228 227 0
230 225 0
233 222 0
235 219 0
238 217 0
240 214 0
243 212 0
245 209 0
247 207 0
249 205 0
251 204 0
252 202 0
253 201 0
254 200 0
254 200 0
220 230 0
220 230 0
220 230 0
220 231 0
219 231 0
219 232 0
218 232 0
218 233 0
217 234 0
217 234 0
216 235 0
216 236 0
215 237 0
215 238 0
214 239 0
213 239 0
213 240 0
212 241 0
212 242 0
212 242 0
212 243 0
211 243 0
211 243 0
212 243 0
212 243 0
213 243 0
213 242 0
214 241 0
215 240 0
217 239 0
218 237 0
220 236 0
222 234 0
224 232 0
226 229 0
228 227 0
231 224 0
233 222 0
236 219 0
238 217 0
241 214 0
243 212 0
245 209 0
247 207 0
249 205 0
251 203 0
252 202 0
253 201 0
254 200 0
254 200 0
220 230 0
220 230 0
220 231 0
219 231 0
219 231 0
219 232 0
218 232 0
218 233 0
217 234 0
217 234 0
216 235 0
216 236 0
215 237 0
215 238 0
214 238 0
213 239 0
213 240 0
212 241 0
212 242 0
212 242 0
212 243 0
212 243 0
212 243 0
212 243 0
212 243 0
213 242 0
214 242 0
215 241 0
216 240 0
217 239 0
218 237 0
220 235 0
222 233 0
224 231 0
226 229 0
228 227 0
231 224 0
233 222 0
236 219 0
238 216 0
241 214 0
243 211 0
245 209 0
247 207 0
249 205 0
251 203 0
252 202 0
253 201 0
254 200 0
254 200 0
220 230 0
220 231 0
220 231 0
219 231 0
219 231 0
219 232 0
218 232 0
218 233 0
217 234 0
217 234 0
216 235 0
216 236 0
215 237 0
215 238 0
214 238 0
214 239 0
213 240 0
213 241 0
212 241 0
212 242 0
212 242 0
212 243 0
212 243 0
212 243 0
213 242 0
213 242 0
214 241 0
215 240 0
216 239 0
217 238 0
219 237 0
220 235 0
222 233 0
224 231 0
226 229 0
228 226 0
231 224 0
233 221 0
236 219 0
238 216 0
241 214 0
243 211 0
245 209 0
247 207 0
249 205 0
251 203 0
252 202 0
253 201 0
254 200 0
254 200 0
220 231 0
220 231 0
219 231 0
219 231 0
219 231 0
219 232 0
218 232 0
218 233 0
217 234 0
217 234 0
216 235 0
216 236 0
215 237 0
215 237 0
214 238 0
214 239 0
213 240 0
213 240 0
212 241 0
212 241 0
212 242 0
212 242 0
212 242 0
212 242 0
213 242 0
213 242 0
214 241 0
215 240 0
216 239 0
217 238 0
219 236 0
221 235 0
222 233 0
224 231 0
226 228 0
229 226 0
231 224 0
233 221 0
236 219 0
238 216 0
241 214 0
243 211 0
245 209 0
247 207 0
249 205 0
251 203 0
252 202 0
253 201 0
254 200 0
254 200 0
219 231 0
219 231 0
219 231 0
219 231 0
219 232 0
218 232 0
218 233 0
218 233 0
217 234 0
217 234 0
216 235 0
216 236 0
215 237 0
215 237 0
214 238 0
214 239 0
213 240 0
213 240 0
213 241 0
212 241 0
212 242 0
212 242 0
212 242 0
213 242 0
213 241 0
214 241 0
214 240 0
215 240 0
216 238 0
218 237 0
219 236 0
221 234 0
223 232 0
224 230 0
227 228 0
229 226 0
231 223 0
233 221 0
236 218 0
238 216 0
241 213 0
243 211 0
245 209 0
247 207 0
249 205 0
250 204 0
252 202 0
253 201 0
253 201 0
254 200 0
219 231 0
219 231 0
219 231 0
219 232 0
219 232 0
218 232 0
218 233 0
218 233 0
217 234 0
217 234 0
216 235 0
216 236 0
215 237 0
215 237 0
214 238 0
214 239 0
213 239 0
213 240 0
213 240 0
213 241 0
212 241 0
212 241 0
213 241 0
213 241 0
213 241 0
214 241 0
215 240 0
216 239 0
217 238 0
218 237 0
219 235 0
221 234 0
223 232 0
225 230 0
227 228 0
229 225 0
231 223 0
233 221 0
236 218 0
238 216 0
240 213 0
243 211 0
245 209 0
247 207 0
248 205 0
250 204 0
251 203 0
252 202 0
253 201 0
253 201 0
219 231 0
219 231 0
219 232 0
219 232 0
218 232 0
218 233 0
218 233 0
217 233 0
217 234 0
217 235 0
216 235 0
216 236 0
215 237 0
215 237 0
214 238 0
214 239 0
213 239 0
213 240 0
213 240 0
213 241 0
213 241 0
213 241 0
213 241 0
213 241 0
214 241 0
214 240 0
215 239 0
216 239 0
217 238 0
218 236 0
220 235 0
221 233 0
223 231 0
225 229 0
227 227 0
229 225 0
231 223 0
233 221 0
236 218 0
238 216 0
240 214 0
242 211 0
244 209 0
246 207 0
248 206 0
249 204 0
251 203 0
252 202 0
252 201 0
253 201 0
219 232 0
219 232 0
219 232 0
218 232 0
218 232 0
218 233 0
218 233 0
217 234 0
217 234 0
216 235 0
216 235 0
216 236 0
215 237 0
215 237 0
214 238 0
214 238 0
213 239 0
213 240 0
213 240 0
213 240 0
213 241 0
213 241 0
213 241 0
213 240 0
214 240 0
214 240 0
215 239 0
216 238 0
217 237 0
218 236 0
220 234 0
221 233 0
223 231 0
225 229 0
227 227 0
229 225 0
231 223 0
233 220 0
235 218 0
238 216 0
240 214 0
242 212 0
244 210 0
246 208 0
247 206 0
249 205 0
250 203 0
251 203 0
252 202 0
252 202 0
218 232 0
218 232 0
218 232 0
218 232 0
218 233 0
218 233 0
217 233 0
217 234 0
217 234 0
216 235 0
216 236 0
215 236 0
215 237 0
215 237 0
214 238 0
214 238 0
214 239 0
213 239 0
213 240 0
213 240 0
213 240 0
213 240 0
213 240 0
214 240 0
214 240 0
215 239 0
215 239 0
216 238 0
217 237 0
218 235 0
220 234 0
221 232 0
223 231 0
225 229 0
227 227 0
229 225 0
231 223 0
233 221 0
235 218 0
237 216 0
239 214 0
241 212 0
243 210 0
245 208 0
247 207 0
248 205 0
249 204 0
250 203 0
251 203 0
251 202 0
218 232 0
218 233 0
218 233 0
218 233 0
218 233 0
217 233 0
217 234 0
217 234 0
216 235 0
216 235 0
216 236 0
215 236 0
215 237 0
215 237 0
214 238 0
214 238 0
214 239 0
213 239 0
213 240 0
213 240 0
213 240 0
213 240 0
213 240 0
214 240 0
214 239 0
215 239 0
216 238 0
216 237 0
217 236 0
219 235 0
220 234 0
221 232 0
223 231 0
225 229 0
227 227 0
229 225 0
231 223 0
233 221 0
235 219 0
237 216 0
239 214 0
241 212 0
243 211 0
244 209 0
246 207 0
247 206 0
248 205 0
249 204 0
250 204 0
250 203 0
218 233 0
218 233 0
218 233 0
218 233 0
217 234 0
217 234 0
217 234 0
217 235 0
216 235 0
216 235 0
215 236 0
215 236 0
215 237 0
214 237 0
214 238 0
214 238 0
214 239 0
213 239 0
213 239 0
213 240 0
213 240 0
213 240 0
214 240 0
214 239 0
214 239 0
215 238 0
216 238 0
217 237 0
218 236 0
219 235 0
220 233 0
221 232 0
223 230 0
225 229 0
226 227 0
228 225 0
230 223 0
232 221 0
234 219 0
236 217 0
238 215 0
240 213 0
242 211 0
243 210 0
245 208 0
246 207 0
247 206 0
248 205 0
248 205 0
249 204 0
217 233 0
217 233 0
217 234 0
217 234 0
217 234 0
217 234 0
217 235 0
216 235 0
216 235 0
216 236 0
215 236 0
215 237 0
215 237 0
214 238 0
214 238 0
214 238 0
214 239 0
213 239 0
213 239 0
213 239 0
213 240 0
213 239 0
214 239 0
214 239 0
214 239 0
215 238 0
216 238 0
217 237 0
218 236 0
219 235 0
220 233 0
221 232 0
223 230 0
224 229 0
226 227 0
228 225 0
230 223 0
232 221 0
233 219 0
235 218 0
237 216 0
239 214 0
241 212 0
242 211 0
244 209 0
245 208 0
246 207 0
247 206 0
247 206 0
247 206 0
217 234 0
217 234 0
217 234 0
217 234 0
217 234 0
216 235 0
216 235 0
216 235 0
216 236 0
215 236 0
215 236 0
215 237 0
214 237 0
214 238 0
214 238 0
214 238 0
213 239 0
213 239 0
213 239 0
213 239 0
213 239 0
213 239 0
214 239 0
214 239 0
214 238 0
215 238 0
216 237 0
217 236 0
218 236 0
219 234 0
220 233 0
221 232 0
223 230 0
224 229 0
226 227 0
227 226 0
229 224 0
231 222 0
233 220 0
234 218 0
236 217 0
238 215 0
239 213 0
241 212 0
242 211 0
243 209 0
244 209 0
245 208 0
246 207 0
246 207 0
217 234 0
217 234 0
217 235 0
216 235 0
216 235 0
216 235 0
216 235 0
216 236 0
215 236 0
215 236 0
215 237 0
215 237 0
214 237 0
214 238 0
214 238 0
214 238 0
213 239 0
213 239 0
213 239 0
213 239 0
213 239 0
213 239 0
214 239 0
214 239 0
215 238 0
215 238 0
216 237 0
217 236 0
217 235 0
218 234 0
220 233 0
221 232 0
222 231 0
224 229 0
225 228 0
227 226 0
228 224 0
230 223 0
232 221 0
233 219 0
235 218 0
237 216 0
238 215 0
240 213 0
241 212 0
242 211 0
243 210 0
243 209 0
244 209 0
244 209 0
216 235 0
216 235 0
216 235 0
216 235 0
216 235 0
216 236 0
216 236 0
215 236 0
215 236 0
215 237 0
215 237 0
214 237 0
214 238 0
214 238 0
214 238 0
213 239 0
213 239 0
213 239 0
213 239 0
213 239 0
213 239 0
213 239 0
214 239 0
214 239 0
215 238 0
215 238 0
216 237 0
216 236 0
217 235 0
218 234 0
219 233 0
221 232 0
222 231 0
223 230 0
225 228 0
226 227 0
228 225 0
229 223 0
231 222 0
232 220 0
234 219 0
235 217 0
237 216 0
238 215 0
239 214 0
240 213 0
241 212 0
242 211 0
242 211 0
242 211 0
216 235 0
216 235 0
216 236 0
216 236 0
216 236 0
215 236 0
215 236 0
215 236 0
215 237 0
215 237 0
214 237 0
214 238 0
214 238 0
214 238 0
214 238 0
213 239 0
213 239 0
213 239 0
213 239 0
213 239 0
213 239 0
213 239 0
214 239 0
214 238 0
214 238 0
215 238 0
216 237 0
216 236 0
217 236 0
218 235 0
219 234 0
220 232 0
221 231 0
223 230 0
224 229 0
225 227 0
227 226 0
228 224 0
230 223 0
231 221 0
233 220 0
234 219 0
235 217 0
236 216 0
237 215 0
238 214 0
239 214 0
240 213 0
240 213 0
240 213 0
216 236 0
216 236 0
215 236 0
215 236 0
215 236 0
215 236 0
215 237 0
215 237 0
215 237 0
214 237 0
214 238 0
214 238 0
214 238 0
214 238 0
213 239 0
213 239 0
213 239 0
213 239 0
213 239 0
213 239 0
213 239 0
213 239 0
214 239 0
214 238 0
214 238 0
215 238 0
215 237 0
216 236 0
217 236 0
218 235 0
219 234 0
220 233 0
221 232 0
222 231 0
223 229 0
224 228 0
226 227 0
227 225 0
228 224 0
230 223 0
231 222 0
232 220 0
234 219 0
235 218 0
236 217 0
236 216 0
237 216 0
238 215 0
238 215 0
238 215 0
215 236 0
215 236 0
215 236 0
215 237 0
215 237 0
215 237 0
215 237 0
214 237 0
214 237 0
214 238 0
214 238 0
214 238 0
214 238 0
213 239 0
213 239 0
213 239 0
213 239 0
213 239 0
213 239 0
213 239 0
213 239 0
213 239 0
214 239 0
214 238 0
214 238 0
215 238 0
215 237 0
216 237 0
217 236 0
217 235 0
218 234 0
219 233 0
220 232 0
221 231 0
222 230 0
224 229 0
225 228 0
226 227 0
227 225 0
228 224 0
230 223 0
231 222 0
232 221 0
233 220 0
234 219 0
234 218 0
235 218 0
236 217 0
236 217 0
236 217 0
215 237 0
215 237 0
215 237 0
215 237 0
215 237 0
215 237 0
214 237 0
214 238 0
214 238 0
214 238 0
214 238 0
214 238 0
213 239 0
213 239 0
213 239 0
213 239 0
213 239 0
213 239 0
213 239 0
213 239 0
213 239 0
213 239 0
213 239 0
214 239 0
214 238 0
214 238 0
215 237 0
216 237 0
216 236 0
217 235 0
218 235 0
219 234 0
219 233 0
220 232 0
221 231 0
223 230 0
224 229 0
225 228 0
226 227 0
227 226 0
228 225 0
229 224 0
230 223 0
231 222 0
232 221 0
232 221 0
233 220 0
233 220 0
234 219 0
234 219 0
215 237 0
215 237 0
215 237 0
214 237 0
214 237 0
214 238 0
214 238 0
214 238 0
214 238 0
214 238 0
214 238 0
213 239 0
213 239 0
213 239 0
213 239 0
213 239 0
213 239 0
213 239 0
213 239 0
213 239 0
213 239 0
213 239 0
213 239 0
214 239 0
214 238 0
214 238 0
215 238 0
215 237 0
216 237 0
216 236 0
217 235 0
218 235 0
219 234 0
220 233 0
221 232 0
221 231 0
222 230 0
223 229 0
224 228 0
225 227 0
226 226 0
227 226 0
228 225 0
229 224 0
230 223 0
230 223 0
231 222 0
231 222 0
231 222 0
232 222 0
214 238 0
214 238 0
214 238 0
214 238 0
214 238 0
214 238 0
214 238 0
214 238 0
214 238 0
214 238 0
213 239 0
213 239 0
213 239 0
213 239 0
213 239 0
213 239 0
213 239 0
213 239 0
213 239 0
213 239 0
213 239 0
213 239 0
213 239 0
213 239 0
214 239 0
214 238 0
214 238 0
215 237 0
215 237 0
216 236 0
217 236 0
217 235 0
218 235 0
219 234 0
220 233 0
220 232 0
221 231 0
222 231 0
223 230 0
224 229 0
225 228 0
226 228 0
226 227 0
227 226 0
228 226 0
228 225 0
229 225 0
229 224 0
229 224 0
229 224 0
214 238 0
214 238 0
214 238 0
214 238 0
214 238 0
214 238 0
214 238 0
214 238 0
213 238 0
213 239 0
213 239 0
213 239 0
213 239 0
213 239 0
213 239 0
213 239 0
213 239 0
213 239 0
213 239 0
213 239 0
213 239 0
213 239 0
213 239 0
213 239 0
213 239 0
214 238 0
214 238 0
214 238 0
215 237 0
215 237 0
216 236 0
217 236 0
217 235 0
218 235 0
219 234 0
219 233 0
220 233 0
221 232 0
222 231 0
222 231 0
223 230 0
224 230 0
224 229 0
225 228 0
226 228 0
226 228 0
226 227 0
227 227 0
227 227 0
227 227 0
214 238 0
214 238 0
214 238 0
214 238 0
214 238 0
214 238 0
214 238 0
213 239 0
213 239 0
213 239 0
213 239 0
213 239 0
213 239 0
213 239 0
213 239 0
213 239 0
213 239 0
213 239 0
213 239 0
213 239 0
213 239 0
213 239 0
213 239 0
213 239 0
213 239 0
213 239 0
214 238 0
214 238 0
214 238 0
215 238 0
215 237 0
216 237 0
216 236 0
217 236 0
218 235 0
218 235 0
219 234 0
219 234 0
220 233 0
221 233 0
221 232 0
222 232 0
223 231 0
223 231 0
224 230 0
224 230 0
224 230 0
225 229 0
225 229 0
225 229 0
214 238 0
214 238 0
214 238 0
214 238 0
214 238 0
214 238 0
213 239 0
213 239 0
213 239 0
213 239 0
213 239 0
213 239 0
213 239 0
213 239 0
213 239 0
213 239 0
213 239 0
212 239 0
212 240 0
212 240 0
213 239 0
213 239 0
213 239 0
213 239 0
213 239 0
213 239 0
213 239 0
214 239 0
214 238 0
214 238 0
215 238 0
215 237 0
216 237 0
216 237 0
217 236 0
217 236 0
218 236 0
218 235 0
219 235 0
219 234 0
220 234 0
220 233 0
221 233 0
221 233 0
222 232 0
222 232 0
222 232 0
222 232 0
223 232 0
223 232 0
214 238 0
214 238 0
214 238 0
214 238 0
214 238 0
214 238 0
213 239 0
213 239 0
213 239 0
213 239 0
213 239 0
213 239 0
213 239 0
213 239 0
213 239 0
213 239 0
213 239 0
212 239 0
212 240 0
212 240 0
212 240 0
212 240 0
213 239 0
213 239 0
213 239 0
213 239 0
213 239 0
213 239 0
214 239 0
214 239 0
214 238 0
214 238 0
215 238 0
215 238 0
216 238 0
216 237 0
216 237 0
217 237 0
217 236 0
218 236 0
218 236 0
219 235 0
219 235 0
219 235 0
220 235 0
220 234 0
220 234 0
220 234 0
220 234 0
220 234 0
214 238 0
214 238 0
214 238 0
214 238 0
214 238 0
214 238 0
213 239 0
213 239 0
213 239 0
213 239 0
213 239 0
213 239 0
213 239 0
213 239 0
213 239 0
213 239 0
213 239 0
212 239 0
212 239 0
212 240 0
212 240 0
212 240 0
212 240 0
212 240 0
213 240 0
213 240 0
213 239 0
213 239 0
213 239 0
213 239 0
213 239 0
214 239 0
214 239 0
214 239 0
215 239 0
215 238 0
215 238 0
216 238 0
216 238 0
216 238 0
217 237 0
217 237 0
217 237 0
218 237 0
218 237 0
218 237 0
218 236 0
218 236 0
218 236 0
218 236 0
214 238 0
214 238 0
214 238 0
214 238 0
214 238 0
214 238 0
213 238 0
213 238 0
213 239 0
213 239 0
213 239 0
213 239 0
213 239 0
213 239 0
213 239 0
213 239 0
213 239 0
212 239 0
212 239 0
212 239 0
212 240 0
212 240 0
212 240 0
212 240 0
212 240 0
212 240 0
212 240 0
213 240 0
213 240 0
213 240 0
213 240 0
213 240 0
213 240 0
213 240 0
214 240 0
214 240 0
214 240 0
214 239 0
215 239 0
215 239 0
215 239 0
215 239 0
216 239 0
216 239 0
216 239 0
216 239 0
216 239 0
216 239 0
216 239 0
217 238 0
214 238 0
214 238 0
214 238 0
214 238 0
214 238 0
214 238 0
214 238 0
213 238 0
213 238 0
213 238 0
213 239 0
213 239 0
213 239 0
213 239 0
213 239 0
213 239 0
213 239 0
213 239 0
212 239 0
212 239 0
212 239 0
212 240 0
212 240 0
212 240 0
212 240 0
212 240 0
212 240 0
212 240 0
212 240 0
212 240 0
212 240 0
212 241 0
213 241 0
213 241 0
213 241 0
213 241 0
213 241 0
213 241 0
213 241 0
214 241 0
214 241 0
214 241 0
214 241 0
214 241 0
214 241 0
214 241 0
215 241 0
215 241 0
215 241 0
215 241 0
214 238 0
214 238 0
214 238 0
214 238 0
214 238 0
214 238 0
214 238 0
214 238 0
214 238 0
213 238 0
213 238 0
213 238 0
213 239 0
213 239 0
213 239 0
213 239 0
213 239 0
213 239 0
213 239 0
212 239 0
212 239 0
212 240 0
212 240 0
212 240 0
212 240 0
212 240 0
212 240 0
212 241 0
212 241 0
212 241 0
212 241 0
212 241 0
212 241 0
212 242 0
212 242 0
212 242 0
212 242 0
212 242 0
212 242 0
212 242 0
212 242 0
213 242 0
213 242 0
213 242 0
213 242 0
213 242 0
213 242 0
213 242 0
213 242 0
213 242 0
214 238 0
214 238 0
214 238 0
214 238 0
214 238 0
214 238 0
214 238 0
214 238 0
214 238 0
214 238 0
214 238 0
213 238 0
213 238 0
213 238 0
213 238 0
213 239 0
213 239 0
213 239 0
213 239 0
212 239 0
212 239 0
212 239 0
212 240 0
212 240 0
212 240 0
212 240 0
212 241 0
212 241 0
211 241 0
211 241 0
211 242 0
211 242 0
211 242 0
211 242 0
211 243 0
211 243 0
211 243 0
211 243 0
211 243 0
211 244 0
211 244 0
211 244 0
211 244 0
211 244 0
211 244 0
211 244 0
211 244 0
211 244 0
211 244 0
211 244 0
214 237 0
214 237 0
214 237 0
214 237 0
214 237 0
214 237 0
214 237 0
214 238 0
214 238 0
214 238 0
214 238 0
214 238 0
214 238 0
213 238 0
213 238 0
213 238 0
213 238 0
213 239 0
213 239 0
213 239 0
212 239 0
212 239 0
212 240 0
212 240 0
212 240 0
212 240 0
211 241 0
211 241 0
211 241 0
211 242 0
211 242 0
211 242 0
211 243 0
211 243 0
210 243 0
210 244 0
210 244 0
210 244 0
210 245 0
210 245 0
210 245 0
210 245 0
210 245 0
210 245 0
210 246 0
210 246 0
210 246 0
210 246 0
210 246 0
210 246 0
214 237 0
214 237 0
214 237 0
214 237 0
214 237 0
214 237 0
214 237 0
214 237 0
214 237 0
214 237 0
214 237 0
214 237 0
214 238 0
214 238 0
213 238 0
213 238 0
213 238 0
213 238 0
213 238 0
213 239 0
213 239 0
212 239 0
212 239 0
212 240 0
212 240 0
212 240 0
211 241 0
211 241 0
211 242 0
211 242 0
211 242 0
210 243 0
210 243 0
210 244 0
210 244 0
210 244 0
209 245 0
209 245 0
209 246 0
209 246 0
209 246 0
209 246 0
209 247 0
209 247 0
209 247 0
209 247 0
209 247 0
209 247 0
209 247 0
209 247 0
215 237 0
215 237 0
215 237 0
215 237 0
215 237 0
215 237 0
215 237 0
214 237 0
214 237 0
214 237 0
214 237 0
214 237 0
214 237 0
214 237 0
214 237 0
214 238 0
213 238 0
213 238 0
213 238 0
213 238 0
213 239 0
212 239 0
212 239 0
212 240 0
212 240 0
211 240 0
211 241 0
211 241 0
211 242 0
210 242 0
210 243 0
210 243 0
210 244 0
209 244 0
209 245 0
209 245 0
209 246 0
209 246 0
208 246 0
208 247 0
208 247 0
208 247 0
208 248 0
208 248 0
208 248 0
208 248 0
208 248 0
208 249 0
208 249 0
208 249 0
215 236 0
215 236 0
215 236 0
215 236 0
215 236 0
215 236 0
215 236 0
215 236 0
215 236 0
215 237 0
214 237 0
214 237 0
214 237 0
214 237 0
214 237 0
214 237 0
214 237 0
213 238 0
213 238 0
213 238 0
213 238 0
213 239 0
212 239 0
212 240 0
212 240 0
211 240 0
211 241 0
211 241 0
210 242 0
210 243 0
210 243 0
210 244 0
209 244 0
209 245 0
209 245 0
208 246 0
208 246 0
208 247 0
208 247 0
208 248 0
207 248 0
207 248 0
207 249 0
207 249 0
207 249 0
207 249 0
207 250 0
207 250 0
207 250 0
207 250 0
215 236 0
215 236 0
215 236 0
215 236 0
215 236 0
215 236 0
215 236 0
215 236 0
215 236 0
215 236 0
215 236 0
215 236 0
215 236 0
214 236 0
214 237 0
214 237 0
214 237 0
214 237 0
213 238 0
213 238 0
213 238 0
213 239 0
212 239 0
212 239 0
212 240 0
211 240 0
211 241 0
211 242 0
210 242 0
210 243 0
210 243 0
209 244 0
209 245 0
209 245 0
208 246 0
208 246 0
208 247 0
207 247 0
207 248 0
207 248 0
207 249 0
206 249 0
206 250 0
206 250 0
206 250 0
206 250 0
206 250 0
206 251 0
206 251 0
206 251 0
216 236 0
216 236 0
215 236 0
215 236 0
215 236 0
215 236 0
215 236 0
215 236 0
215 236 0
215 236 0
215 236 0
215 236 0
215 236 0
215 236 0
215 236 0
214 236 0
214 237 0
214 237 0
214 237 0
213 238 0
213 238 0
213 238 0
212 239 0
212 239 0
212 240 0
211 240 0
211 241 0
211 242 0
210 242 0
210 243 0
209 243 0
209 244 0
209 245 0
208 245 0
208 246 0
208 247 0
207 247 0
207 248 0
207 248 0
206 249 0
206 249 0
206 250 0
206 250 0
205 251 0
205 251 0
205 251 0
205 251 0
205 251 0
205 252 0
205 252 0
216 235 0
216 235 0
216 235 0
216 235 0
216 235 0
216 235 0
216 235 0
216 235 0
216 235 0
215 235 0
215 235 0
215 235 0
215 236 0
215 236 0
215 236 0
215 236 0
214 236 0
214 237 0
214 237 0
214 237 0
213 238 0
213 238 0
213 239 0
212 239 0
212 240 0
211 240 0
211 241 0
211 242 0
210 242 0
210 243 0
209 244 0
209 244 0
208 245 0
208 246 0
208 246 0
207 247 0
207 248 0
206 248 0
206 249 0
206 249 0
206 250 0
205 250 0
205 251 0
205 251 0
205 252 0
205 252 0
204 252 0
204 252 0
204 252 0
204 252 0
216 235 0
216 235 0
216 235 0
216 235 0
216 235 0
216 235 0
216 235 0
216 235 0
216 235 0
216 235 0
216 235 0
216 235 0
215 235 0
215 235 0
215 235 0
215 236 0
215 236 0
214 236 0
214 237 0
214 237 0
213 237 0
213 238 0
213 238 0
212 239 0
212 239 0
211 240 0
211 241 0
211 241 0
210 242 0
210 243 0
209 244 0
209 244 0
208 245 0
208 246 0
207 247 0
207 247 0
206 248 0
206 249 0
206 249 0
205 250 0
205 250 0
205 251 0
205 251 0
204 252 0
204 252 0
204 252 0
204 253 0
204 253 0
204 253 0
204 253 0
216 234 0
216 234 0
216 234 0
216 234 0
216 234 0
216 234 0
216 234 0
216 234 0
216 234 0
216 235 0
216 235 0
216 235 0
216 235 0
215 235 0
215 235 0
215 235 0
215 236 0
215 236 0
214 236 0
214 237 0
214 237 0
213 238 0
213 238 0
212 239 0
212 239 0
212 240 0
211 241 0
211 241 0
210 242 0
210 243 0
209 244 0
209 245 0
208 245 0
208 246 0
207 247 0
207 248 0
206 248 0
206 249 0
205 250 0
205 250 0
205 251 0
204 251 0
204 252 0
204 252 0
204 252 0
204 253 0
203 253 0
203 253 0
203 253 0
203 253 0
216 234 0
216 234 0
216 234 0
216 234 0
216 234 0
216 234 0
216 234 0
216 234 0
216 234 0
216 234 0
216 234 0
216 234 0
216 234 0
216 235 0
216 235 0
215 235 0
215 235 0
215 236 0
214 236 0
214 236 0
214 237 0
213 237 0
213 238 0
213 238 0
212 239 0
212 240 0
211 241 0
211 241 0
210 242 0
210 243 0
209 244 0
208 245 0
208 245 0
207 246 0
207 247 0
206 248 0
206 249 0
206 249 0
205 250 0
205 250 0
204 251 0
204 252 0
204 252 0
204 252 0
203 253 0
203 253 0
203 253 0
203 254 0
203 254 0
203 254 0
217 234 0
217 234 0
217 234 0
217 234 0
217 234 0
217 234 0
217 234 0
217 234 0
216 234 0
216 234 0
216 234 0
216 234 0
216 234 0
216 234 0
216 234 0
215 235 0
215 235 0
215 235 0
215 236 0
214 236 0
214 237 0
214 237 0
213 238 0
213 238 0
212 239 0
212 240 0
211 240 0
211 241 0
210 242 0
209 243 0
209 244 0
208 245 0
208 245 0
207 246 0
207 247 0
206 248 0
206 249 0
205 249 0
205 250 0
205 251 0
204 251 0
204 252 0
204 252 0
203 253 0
203 253 0
203 253 0
203 254 0
203 254 0
203 254 0
202 254 0
217 234 0
217 234 0
217 234 0
217 234 0
217 234 0
217 234 0
217 234 0
217 234 0
217 234 0
217 234 0
216 234 0
216 234 0
216 234 0
216 234 0
216 234 0
216 234 0
215 235 0
215 235 0
215 235 0
214 236 0
214 236 0
214 237 0
213 238 0
213 238 0
212 239 0
212 240 0
211 240 0
211 241 0
210 242 0
209 243 0
209 244 0
208 245 0
208 245 0
207 246 0
207 247 0
206 248 0
206 249 0
205 249 0
205 250 0
204 251 0
204 251 0
204 252 0
203 252 0
203 253 0
203 253 0
203 254 0
202 254 0
202 254 0
202 254 0
202 254 0
217 234 0
217 234 0
217 234 0
217 234 0
217 233 0
217 233 0
217 233 0
217 233 0
217 233 0
217 233 0
217 234 0
217 234 0
216 234 0
216 234 0
216 234 0
216 234 0
216 235 0
215 235 0
215 235 0
215 236 0
214 236 0
214 237 0
213 237 0
213 238 0
212 239 0
212 240 0
211 240 0
211 241 0
210 242 0
209 243 0
209 244 0
208 245 0
208 246 0
207 246 0
207 247 0
206 248 0
206 249 0
205 250 0
205 250 0
204 251 0
204 252 0
203 252 0
203 253 0
203 253 0
203 253 0
202 254 0
202 254 0
202 254 0
202 254 0
202 254 0
217 233 0
217 233 0
217 233 0
217 233 0
217 233 0
217 233 0
217 233 0
217 233 0
217 233 0
217 233 0
217 233 0
217 233 0
216 234 0
216 234 0
216 234 0
216 234 0
216 234 0
215 235 0
215 235 0
215 236 0
214 236 0
214 237 0
213 237 0
213 238 0
212 239 0
212 239 0
211 240 0
211 241 0
210 242 0
209 243 0
209 244 0
208 245 0
208 246 0
207 246 0
207 247 0
206 248 0
206 249 0
205 250 0
205 250 0
204 251 0
204 252 0
203 252 0
203 253 0
203 253 0
203 254 0
202 254 0
202 254 0
202 254 0
202 254 0
202 254 0
217 233 0
217 233 0
217 233 0
217 233 0
217 233 0
217 233 0
217 233 0
217 233 0
217 233 0
217 233 0
217 233 0
217 233 0
216 233 0
216 234 0
216 234 0
216 234 0
216 234 0
215 235 0
215 235 0
215 236 0
214 236 0
214 237 0
213 237 0
213 238 0
212 239 0
212 239 0
211 240 0
211 241 0
210 242 0
209 243 0
209 244 0
208 245 0
208 246 0
207 246 0
207 247 0
206 248 0
205 249 0
205 250 0
205 250 0
204 251 0
204 252 0
203 252 0
203 253 0
203 253 0
203 254 0
202 254 0
202 254 0
202 254 0
202 254 0
202 255 0
