P3
50 50
255
254 188 0
254 188 0
254 187 0
254 187 0
254 186 0
254 185 0
254 185 0
254 184 0
254 182 0
254 181 0
254 180 0
253 179 0
253 177 0
253 176 0
253 175 0
252 173 0
252 172 0
252 171 0
252 170 0
251 169 0
251 168 0
251 168 0
251 168 0
251 168 0
251 168 0
251 169 0
251 170 0
251 171 0
251 173 0
251 175 0
251 178 0
251 181 0
252 184 0
252 188 0
252 192 0
252 196 0
252 201 0
252 206 0
251 211 0
251 217 0
251 222 0
250 227 0
250 233 0
249 237 0
248 242 0
248 246 0
247 249 0
247 251 0
247 253 0
246 254 0
254 188 0
254 188 0
254 187 0
254 187 0
254 186 0
254 185 0
254 185 0
254 184 0
254 182 0
254 181 0
254 180 0
253 179 0
253 177 0
253 176 0
253 175 0
252 173 0
252 172 0
252 171 0
252 170 0
251 169 0
251 169 0
251 168 0
251 168 0
251 168 0
251 168 0
251 169 0
251 170 0
251 172 0
251 173 0
251 175 0
251 178 0
251 181 0
252 184 0
252 188 0
252 192 0
252 197 0
252 201 0
252 206 0
251 212 0
251 217 0
251 222 0
250 228 0
250 233 0
249 237 0
248 242 0
248 246 0
247 249 0
247 251 0
247 253 0
246 254 0
254 188 0
254 188 0
254 187 0
254 187 0
254 186 0
254 185 0
254 185 0
254 184 0
254 182 0
254 181 0
254 180 0
253 179 0
253 177 0
253 176 0
253 175 0
252 173 0
252 172 0
252 171 0
252 170 0
251 169 0
251 169 0
251 168 0
251 168 0
251 168 0
251 169 0
251 169 0
251 170 0
251 172 0
251 174 0
251 176 0
251 178 0
251 181 0
252 184 0
252 188 0
252 192 0
252 197 0
252 202 0
252 207 0
251 212 0
251 217 0
251 222 0
250 228 0
250 233 0
249 238 0
248 242 0
248 246 0
247 249 0
247 252 0
247 253 0
246 254 0
255 188 0
254 187 0
254 187 0
254 187 0
254 186 0
254 185 0
254 184 0
254 184 0
254 182 0
254 181 0
254 180 0
253 179 0
253 177 0
253 176 0
253 175 0
253 173 0
252 172 0
252 171 0
252 170 0
252 169 0
251 169 0
251 168 0
251 168 0
251 168 0
251 169 0
251 170 0
251 171 0
251 172 0
251 174 0
251 176 0
251 179 0
252 181 0
252 185 0
252 189 0
252 193 0
252 197 0
252 202 0
252 207 0
252 212 0
251 217 0
251 223 0
250 228 0
250 233 0
249 238 0
248 242 0
248 246 0
247 249 0
247 252 0
246 253 0
246 254 0
254 188 0
254 187 0
254 187 0
254 187 0
254 186 0
254 185 0
254 184 0
254 183 0
254 182 0
254 181 0
254 180 0
253 179 0
253 177 0
253 176 0
253 175 0
253 174 0
252 172 0
252 171 0
252 171 0
252 170 0
251 169 0
251 169 0
251 169 0
251 169 0
251 169 0
251 170 0
251 171 0
251 172 0
251 174 0
251 176 0
251 179 0
252 182 0
252 185 0
252 189 0
252 193 0
252 197 0
252 202 0
252 207 0
252 212 0
251 218 0
251 223 0
250 228 0
250 233 0
249 238 0
248 242 0
248 246 0
247 249 0
247 252 0
246 254 0
246 254 0
254 187 0
254 187 0
254 187 0
254 187 0
254 186 0
254 185 0
254 184 0
254 183 0
254 182 0
254 181 0
254 180 0
253 179 0
253 178 0
253 176 0
253 175 0
253 174 0
252 173 0
252 172 0
252 171 0
252 170 0
251 169 0
251 169 0
251 169 0
251 169 0
251 170 0
251 170 0
251 171 0
251 173 0
251 175 0
251 177 0
252 179 0
252 182 0
252 186 0
252 189 0
252 194 0
252 198 0
252 203 0
252 208 0
252 213 0
251 218 0
251 223 0
250 228 0
250 233 0
249 238 0
248 243 0
248 246 0
247 249 0
247 252 0
247 254 0
246 254 0
254 187 0
254 187 0
254 187 0
254 186 0
254 186 0
254 185 0
254 184 0
254 183 0
254 182 0
254 181 0
254 180 0
253 179 0
253 178 0
253 176 0
253 175 0
253 174 0
252 173 0
252 172 0
252 171 0
252 170 0
252 170 0
251 170 0
251 169 0
251 170 0
251 170 0
251 171 0
251 172 0
251 173 0
251 175 0
252 177 0
252 180 0
252 183 0
252 186 0
252 190 0
252 194 0
252 198 0
252 203 0
252 208 0
252 213 0
251 218 0
251 224 0
250 229 0
250 234 0
249 238 0
248 243 0
248 246 0
247 250 0
247 252 0
247 254 0
246 255 0
254 187 0
254 187 0
254 187 0
254 186 0
254 186 0
254 185 0
254 184 0
254 183 0
254 182 0
254 181 0
254 180 0
254 179 0
253 178 0
253 177 0
253 175 0
253 174 0
252 173 0
252 172 0
252 171 0
252 171 0
252 170 0
252 170 0
251 170 0
251 170 0
251 171 0
251 171 0
251 173 0
251 174 0
252 176 0
252 178 0
252 181 0
252 184 0
252 187 0
252 191 0
252 195 0
252 199 0
252 204 0
252 208 0
252 214 0
251 219 0
251 224 0
250 229 0
250 234 0
249 238 0
248 243 0
248 246 0
247 250 0
247 252 0
247 254 0
246 254 0
254 187 0
254 187 0
254 186 0
254 186 0
254 185 0
254 185 0
254 184 0
254 183 0
254 182 0
254 181 0
254 180 0
254 179 0
253 178 0
253 177 0
253 175 0
253 174 0
253 173 0
252 173 0
252 172 0
252 171 0
252 171 0
252 170 0
252 170 0
251 171 0
251 171 0
251 172 0
251 173 0
252 175 0
252 176 0
252 179 0
252 181 0
252 184 0
252 187 0
252 191 0
252 195 0
252 199 0
252 204 0
252 209 0
252 214 0
251 219 0
251 224 0
250 229 0
250 234 0
249 239 0
249 243 0
248 246 0
247 249 0
247 252 0
247 253 0
247 254 0
254 187 0
254 186 0
254 186 0
254 186 0
254 185 0
254 185 0
254 184 0
254 183 0
254 182 0
254 181 0
254 180 0
254 179 0
253 178 0
253 177 0
253 176 0
253 175 0
253 174 0
252 173 0
252 172 0
252 172 0
252 171 0
252 171 0
252 171 0
252 171 0
252 172 0
252 173 0
252 174 0
252 175 0
252 177 0
252 179 0
252 182 0
252 185 0
252 188 0
252 192 0
252 196 0
252 200 0
252 204 0
252 209 0
252 214 0
251 219 0
251 224 0
250 229 0
250 234 0
249 238 0
249 242 0
248 246 0
248 249 0
247 251 0
247 253 0
247 254 0
254 186 0
254 186 0
254 186 0
254 185 0
254 185 0
254 184 0
254 184 0
254 183 0
254 182 0
254 181 0
254 180 0
254 179 0
253 178 0
253 177 0
253 176 0
253 175 0
253 174 0
252 173 0
252 172 0
252 172 0
252 172 0
252 171 0
252 171 0
252 172 0
252 172 0
252 173 0
252 174 0
252 176 0
252 178 0
252 180 0
252 182 0
252 185 0
252 189 0
252 192 0
252 196 0
252 200 0
252 205 0
252 209 0
252 214 0
251 219 0
251 224 0
251 229 0
250 234 0
249 238 0
249 242 0
248 245 0
248 248 0
247 251 0
247 252 0
247 253 0
254 186 0
254 186 0
254 185 0
254 185 0
254 184 0
254 184 0
254 183 0
254 182 0
254 182 0
254 181 0
254 180 0
254 179 0
253 178 0
253 177 0
253 176 0
253 175 0
253 174 0
253 173 0
252 173 0
252 172 0
252 172 0
252 172 0
252 172 0
252 172 0
252 173 0
252 174 0
252 175 0
252 177 0
252 178 0
252 181 0
252 183 0
252 186 0
253 189 0
253 193 0
253 196 0
253 201 0
252 205 0
252 210 0
252 214 0
252 219 0
251 224 0
251 229 0
250 233 0
250 237 0
249 241 0
248 245 0
248 247 0
248 250 0
247 251 0
247 252 0
254 185 0
254 185 0
254 185 0
254 184 0
254 184 0
254 183 0
254 183 0
254 182 0
254 181 0
254 180 0
254 180 0
254 179 0
253 178 0
253 177 0
253 176 0
253 175 0
253 174 0
253 174 0
252 173 0
252 173 0
252 172 0
252 172 0
252 172 0
252 173 0
252 174 0
252 174 0
252 176 0
252 177 0
252 179 0
252 181 0
252 184 0
253 186 0
253 190 0
253 193 0
253 197 0
253 201 0
253 205 0
252 210 0
252 214 0
252 219 0
251 223 0
251 228 0
250 232 0
250 237 0
249 240 0
249 244 0
248 246 0
248 248 0
248 250 0
247 251 0
254 185 0
254 184 0
254 184 0
254 184 0
254 183 0
254 183 0
254 182 0
254 182 0
254 181 0
254 180 0
254 179 0
254 178 0
253 178 0
253 177 0
253 176 0
253 175 0
253 174 0
253 174 0
253 173 0
252 173 0
252 173 0
252 173 0
252 173 0
252 173 0
252 174 0
252 175 0
252 176 0
252 178 0
252 179 0
253 182 0
253 184 0
253 187 0
253 190 0
253 193 0
253 197 0
253 201 0
253 205 0
252 209 0
252 214 0
252 218 0
251 223 0
251 227 0
251 231 0
250 235 0
249 239 0
249 242 0
249 245 0
248 247 0
248 248 0
248 249 0
254 184 0
254 184 0
254 184 0
254 183 0
254 183 0
254 182 0
254 182 0
254 181 0
254 181 0
254 180 0
254 179 0
254 178 0
253 177 0
253 177 0
253 176 0
253 175 0
253 174 0
253 174 0
253 173 0
253 173 0
252 173 0
252 173 0
252 173 0
252 174 0
252 174 0
252 175 0
252 177 0
252 178 0
253 180 0
253 182 0
253 184 0
253 187 0
253 190 0
253 193 0
253 197 0
253 201 0
253 205 0
253 209 0
252 213 0
252 217 0
252 222 0
251 226 0
251 230 0
250 234 0
250 237 0
249 240 0
249 243 0
249 245 0
248 246 0
248 247 0
254 183 0
254 183 0
254 183 0
254 183 0
254 182 0
254 182 0
254 181 0
254 181 0
254 180 0
254 179 0
254 179 0
253 178 0
253 177 0
253 176 0
253 176 0
253 175 0
253 174 0
253 174 0
253 174 0
253 173 0
253 173 0
252 173 0
252 174 0
252 174 0
252 175 0
252 176 0
253 177 0
253 179 0
253 180 0
253 182 0
253 185 0
253 187 0
253 190 0
253 193 0
253 197 0
253 200 0
253 204 0
253 208 0
252 212 0
252 216 0
252 221 0
251 225 0
251 228 0
251 232 0
250 235 0
250 238 0
249 240 0
249 242 0
249 244 0
249 244 0
254 182 0
254 182 0
254 182 0
254 182 0
254 182 0
254 181 0
254 181 0
254 180 0
254 180 0
254 179 0
254 178 0
253 178 0
253 177 0
253 176 0
253 176 0
253 175 0
253 174 0
253 174 0
253 174 0
253 174 0
253 174 0
253 174 0
253 174 0
253 175 0
253 175 0
253 176 0
253 177 0
253 179 0
253 181 0
253 183 0
253 185 0
253 187 0
253 190 0
253 193 0
253 196 0
253 200 0
253 204 0
253 207 0
253 211 0
252 215 0
252 219 0
252 223 0
251 226 0
251 230 0
251 233 0
250 236 0
250 238 0
250 239 0
249 241 0
249 241 0
254 182 0
254 182 0
254 181 0
254 181 0
254 181 0
254 180 0
254 180 0
254 180 0
254 179 0
254 178 0
253 178 0
253 177 0
253 177 0
253 176 0
253 175 0
253 175 0
253 174 0
253 174 0
253 174 0
253 174 0
253 174 0
253 174 0
253 174 0
253 175 0
253 175 0
253 176 0
253 178 0
253 179 0
253 181 0
253 183 0
253 185 0
253 187 0
253 190 0
253 193 0
253 196 0
253 199 0
253 203 0
253 206 0
253 210 0
253 213 0
252 217 0
252 221 0
252 224 0
251 227 0
251 230 0
251 233 0
250 235 0
250 236 0
250 237 0
250 238 0
254 181 0
254 181 0
254 181 0
254 180 0
254 180 0
254 180 0
254 179 0
254 179 0
254 178 0
253 178 0
253 177 0
253 177 0
253 176 0
253 176 0
253 175 0
253 175 0
253 174 0
253 174 0
253 174 0
253 174 0
253 174 0
253 174 0
253 174 0
253 175 0
253 176 0
253 177 0
253 178 0
253 179 0
253 181 0
253 183 0
253 185 0
253 187 0
253 189 0
253 192 0
253 195 0
253 198 0
253 201 0
253 205 0
253 208 0
253 212 0
252 215 0
252 218 0
252 221 0
252 224 0
251 227 0
251 229 0
251 231 0
251 233 0
250 234 0
250 234 0
254 180 0
254 180 0
254 180 0
254 180 0
254 179 0
254 179 0
254 179 0
254 178 0
253 178 0
253 177 0
253 177 0
253 176 0
253 176 0
253 175 0
253 175 0
253 175 0
253 174 0
253 174 0
253 174 0
253 174 0
253 174 0
253 174 0
253 174 0
253 175 0
253 176 0
253 177 0
253 178 0
253 179 0
253 181 0
253 182 0
253 184 0
253 186 0
253 189 0
253 191 0
253 194 0
253 197 0
253 200 0
253 203 0
253 206 0
253 209 0
253 213 0
252 216 0
252 219 0
252 221 0
252 224 0
251 226 0
251 228 0
251 229 0
251 230 0
251 230 0
254 179 0
254 179 0
254 179 0
254 179 0
254 179 0
253 178 0
253 178 0
253 178 0
253 177 0
253 177 0
253 176 0
253 176 0
253 175 0
253 175 0
253 175 0
253 174 0
253 174 0
253 174 0
253 174 0
253 174 0
253 174 0
253 174 0
253 174 0
253 175 0
253 176 0
253 177 0
253 178 0
253 179 0
253 180 0
253 182 0
253 184 0
253 186 0
253 188 0
253 190 0
253 193 0
253 196 0
253 198 0
253 201 0
253 204 0
253 207 0
253 210 0
253 213 0
252 215 0
252 218 0
252 220 0
252 222 0
252 224 0
252 225 0
251 226 0
251 226 0
253 179 0
253 178 0
253 178 0
253 178 0
253 178 0
253 178 0
253 177 0
253 177 0
253 177 0
253 176 0
253 176 0
253 175 0
253 175 0
253 175 0
253 174 0
253 174 0
253 174 0
253 174 0
253 174 0
253 174 0
253 174 0
253 174 0
253 174 0
253 175 0
253 176 0
253 176 0
253 177 0
253 179 0
253 180 0
253 182 0
253 183 0
253 185 0
253 187 0
253 189 0
253 192 0
253 194 0
253 197 0
253 199 0
253 202 0
253 204 0
253 207 0
253 210 0
253 212 0
253 214 0
252 216 0
252 218 0
252 219 0
252 220 0
252 221 0
252 222 0
253 178 0
253 178 0
253 178 0
253 177 0
253 177 0
253 177 0
253 177 0
253 176 0
253 176 0
253 176 0
253 175 0
253 175 0
253 175 0
253 174 0
253 174 0
253 174 0
253 174 0
253 174 0
253 173 0
253 174 0
253 174 0
253 174 0
253 174 0
253 175 0
253 175 0
253 176 0
253 177 0
253 178 0
253 180 0
253 181 0
253 182 0
253 184 0
253 186 0
253 188 0
253 190 0
253 192 0
253 195 0
253 197 0
253 199 0
253 202 0
253 204 0
253 206 0
253 208 0
253 210 0
253 212 0
252 214 0
252 215 0
252 216 0
252 217 0
252 217 0
253 177 0
253 177 0
253 177 0
253 177 0
253 177 0
253 176 0
253 176 0
253 176 0
253 176 0
253 175 0
253 175 0
253 175 0
253 174 0
253 174 0
253 174 0
253 174 0
253 173 0
253 173 0
253 173 0
253 173 0
253 174 0
253 174 0
253 174 0
253 175 0
253 175 0
253 176 0
253 177 0
253 178 0
253 179 0
253 180 0
253 182 0
253 183 0
253 185 0
253 187 0
253 188 0
253 190 0
253 192 0
253 195 0
253 197 0
253 199 0
253 201 0
253 203 0
253 205 0
253 206 0
253 208 0
253 209 0
253 211 0
253 211 0
253 212 0
252 212 0
253 177 0
253 176 0
253 176 0
253 176 0
253 176 0
253 176 0
253 176 0
253 175 0
253 175 0
253 175 0
253 175 0
253 174 0
253 174 0
253 174 0
253 174 0
253 173 0
253 173 0
253 173 0
253 173 0
253 173 0
253 173 0
253 174 0
253 174 0
253 174 0
253 175 0
253 176 0
253 176 0
253 177 0
253 178 0
253 179 0
253 181 0
253 182 0
253 184 0
253 185 0
253 187 0
253 188 0
253 190 0
253 192 0
253 194 0
253 196 0
253 198 0
253 199 0
253 201 0
253 202 0
253 204 0
253 205 0
253 206 0
253 207 0
253 207 0
253 208 0
253 176 0
253 176 0
253 176 0
253 176 0
253 176 0
253 175 0
253 175 0
253 175 0
253 175 0
253 174 0
253 174 0
253 174 0
253 174 0
253 173 0
253 173 0
253 173 0
253 173 0
253 173 0
253 173 0
253 173 0
253 173 0
253 173 0
253 174 0
253 174 0
253 175 0
253 175 0
253 176 0
253 177 0
253 178 0
253 179 0
253 180 0
253 181 0
253 182 0
253 184 0
253 185 0
253 186 0
253 188 0
253 190 0
253 191 0
253 193 0
253 194 0
253 196 0
253 197 0
253 199 0
253 200 0
253 201 0
253 202 0
253 202 0
253 203 0
253 203 0
253 176 0
253 176 0
253 175 0
253 175 0
253 175 0
253 175 0
253 175 0
253 175 0
253 174 0
253 174 0
253 174 0
253 174 0
253 173 0
253 173 0
253 173 0
253 173 0
253 173 0
253 173 0
253 173 0
253 173 0
253 173 0
253 173 0
253 173 0
253 174 0
253 174 0
253 175 0
253 175 0
253 176 0
253 177 0
253 178 0
253 179 0
253 180 0
253 181 0
253 182 0
253 183 0
253 184 0
253 186 0
253 187 0
253 188 0
253 190 0
253 191 0
253 192 0
253 193 0
253 195 0
253 196 0
253 196 0
253 197 0
253 198 0
253 198 0
253 198 0
253 175 0
253 175 0
253 175 0
253 175 0
253 175 0
253 175 0
253 175 0
253 174 0
253 174 0
253 174 0
253 174 0
253 174 0
253 173 0
253 173 0
253 173 0
253 173 0
253 173 0
253 173 0
253 173 0
253 173 0
253 173 0
253 173 0
253 173 0
253 174 0
253 174 0
253 174 0
253 175 0
253 175 0
253 176 0
253 177 0
253 177 0
253 178 0
253 179 0
253 180 0
253 181 0
253 182 0
253 183 0
253 184 0
253 186 0
253 187 0
253 188 0
253 189 0
253 190 0
253 191 0
253 192 0
253 192 0
253 193 0
253 193 0
253 194 0
253 194 0
253 175 0
253 175 0
253 175 0
253 175 0
253 175 0
253 175 0
253 174 0
253 174 0
253 174 0
253 174 0
253 174 0
253 173 0
253 173 0
253 173 0
253 173 0
253 173 0
253 173 0
253 173 0
253 173 0
253 173 0
253 173 0
253 173 0
253 173 0
253 173 0
253 173 0
253 174 0
253 174 0
253 175 0
253 175 0
253 176 0
253 176 0
253 177 0
253 178 0
253 179 0
253 179 0
253 180 0
253 181 0
253 182 0
253 183 0
253 184 0
253 185 0
253 186 0
253 186 0
253 187 0
253 188 0
253 188 0
253 189 0
253 189 0
253 189 0
253 190 0
253 175 0
253 175 0
253 175 0
253 175 0
253 175 0
253 174 0
253 174 0
253 174 0
253 174 0
253 174 0
253 174 0
253 173 0
253 173 0
253 173 0
253 173 0
253 173 0
253 173 0
253 173 0
253 173 0
253 173 0
253 173 0
253 173 0
253 173 0
253 173 0
253 173 0
253 173 0
253 174 0
253 174 0
253 174 0
253 175 0
253 175 0
253 176 0
253 176 0
253 177 0
253 178 0
253 178 0
253 179 0
253 180 0
253 180 0
253 181 0
253 182 0
253 182 0
252 183 0
252 184 0
252 184 0
252 184 0
252 185 0
252 185 0
252 185 0
252 185 0
253 175 0
253 175 0
253 175 0
253 175 0
253 175 0
253 174 0
253 174 0
253 174 0
253 174 0
253 174 0
253 174 0
253 173 0
253 173 0
253 173 0
253 173 0
253 173 0
253 173 0
253 173 0
253 173 0
253 173 0
253 172 0
253 173 0
253 173 0
253 173 0
253 173 0
253 173 0
253 173 0
253 173 0
253 174 0
253 174 0
253 174 0
253 174 0
253 175 0
253 175 0
253 176 0
253 176 0
252 177 0
252 177 0
252 178 0
252 178 0
252 179 0
252 179 0
252 180 0
252 180 0
252 181 0
252 181 0
252 181 0
252 181 0
252 182 0
252 182 0
253 175 0
253 175 0
253 175 0
253 175 0
253 175 0
253 175 0
253 174 0
253 174 0
253 174 0
253 174 0
253 174 0
253 174 0
253 173 0
253 173 0
253 173 0
253 173 0
253 173 0
253 173 0
253 173 0
253 173 0
253 172 0
253 172 0
253 172 0
253 172 0
253 172 0
253 172 0
253 173 0
253 173 0
253 173 0
253 173 0
253 173 0
253 173 0
252 174 0
252 174 0
252 174 0
252 174 0
252 175 0
252 175 0
252 175 0
252 176 0
252 176 0
252 176 0
252 177 0
252 177 0
252 177 0
252 178 0
252 178 0
252 178 0
252 178 0
252 178 0
253 175 0
253 175 0
253 175 0
253 175 0
253 175 0
253 175 0
253 175 0
253 174 0
253 174 0
253 174 0
253 174 0
253 174 0
253 174 0
253 173 0
253 173 0
253 173 0
253 173 0
253 173 0
253 173 0
253 173 0
253 172 0
253 172 0
253 172 0
253 172 0
253 172 0
253 172 0
253 172 0
253 172 0
253 172 0
253 172 0
252 172 0
252 172 0
252 172 0
252 172 0
252 172 0
252 173 0
252 173 0
252 173 0
252 173 0
252 173 0
252 174 0
252 174 0
252 174 0
252 174 0
252 174 0
252 174 0
251 175 0
251 175 0
251 175 0
251 175 0
253 175 0
253 175 0
253 175 0
253 175 0
253 175 0
253 175 0
253 175 0
253 175 0
253 175 0
253 174 0
253 174 0
253 174 0
253 174 0
253 174 0
253 174 0
253 173 0
253 173 0
253 173 0
253 173 0
253 173 0
253 173 0
253 172 0
253 172 0
253 172 0
253 172 0
253 172 0
253 172 0
253 172 0
253 171 0
252 171 0
252 171 0
252 171 0
252 171 0
252 171 0
252 171 0
252 171 0
252 171 0
252 171 0
252 171 0
252 171 0
251 171 0
251 171 0
251 171 0
251 171 0
251 172 0
251 172 0
251 172 0
251 172 0
251 172 0
251 172 0
253 176 0
253 176 0
253 176 0
253 175 0
253 175 0
253 175 0
253 175 0
253 175 0
253 175 0
253 175 0
253 175 0
253 174 0
253 174 0
253 174 0
253 174 0
253 174 0
253 174 0
253 173 0
253 173 0
253 173 0
253 173 0
253 172 0
253 172 0
253 172 0
253 172 0
253 172 0
253 171 0
253 171 0
252 171 0
252 171 0
252 170 0
252 170 0
252 170 0
252 170 0
252 170 0
252 169 0
252 169 0
251 169 0
251 169 0
251 169 0
251 169 0
251 169 0
251 169 0
251 169 0
251 169 0
251 169 0
251 169 0
251 169 0
251 169 0
251 169 0
253 176 0
253 176 0
253 176 0
253 176 0
253 176 0
253 176 0
253 176 0
253 176 0
253 175 0
253 175 0
253 175 0
253 175 0
253 175 0
253 175 0
253 174 0
253 174 0
253 174 0
253 174 0
253 173 0
253 173 0
253 173 0
253 173 0
253 172 0
253 172 0
253 172 0
253 171 0
253 171 0
253 171 0
252 170 0
252 170 0
252 170 0
252 169 0
252 169 0
252 169 0
252 168 0
252 168 0
251 168 0
251 168 0
251 167 0
251 167 0
251 167 0
251 167 0
251 167 0
251 167 0
251 167 0
251 167 0
250 167 0
250 167 0
250 167 0
250 167 0
253 176 0
253 176 0
253 176 0
253 176 0
253 176 0
253 176 0
253 176 0
253 176 0
253 176 0
253 176 0
253 176 0
253 175 0
253 175 0
253 175 0
253 175 0
253 175 0
253 174 0
253 174 0
253 174 0
253 173 0
253 173 0
253 173 0
253 172 0
253 172 0
253 172 0
253 171 0
253 171 0
253 170 0
252 170 0
252 169 0
252 169 0
252 169 0
252 168 0
252 168 0
251 167 0
251 167 0
251 167 0
251 166 0
251 166 0
251 166 0
251 165 0
251 165 0
250 165 0
250 165 0
250 165 0
250 165 0
250 165 0
250 165 0
250 165 0
250 164 0
253 177 0
253 177 0
253 177 0
253 177 0
253 177 0
253 177 0
253 177 0
253 177 0
253 176 0
253 176 0
253 176 0
253 176 0
253 176 0
253 176 0
253 175 0
253 175 0
253 175 0
253 175 0
253 174 0
253 174 0
253 173 0
253 173 0
253 173 0
253 172 0
253 172 0
253 171 0
253 171 0
253 170 0
252 170 0
252 169 0
252 168 0
252 168 0
252 167 0
252 167 0
251 166 0
251 166 0
251 165 0
251 165 0
251 165 0
251 164 0
250 164 0
250 164 0
250 163 0
250 163 0
250 163 0
250 163 0
250 163 0
250 163 0
250 163 0
250 163 0
254 177 0
254 177 0
254 177 0
254 177 0
254 177 0
254 177 0
254 177 0
254 177 0
254 177 0
254 177 0
254 177 0
254 177 0
254 176 0
254 176 0
254 176 0
254 176 0
254 175 0
254 175 0
253 175 0
253 174 0
253 174 0
253 173 0
253 173 0
253 172 0
253 172 0
253 171 0
253 171 0
253 170 0
252 169 0
252 169 0
252 168 0
252 167 0
252 167 0
251 166 0
251 166 0
251 165 0
251 164 0
251 164 0
251 163 0
250 163 0
250 163 0
250 162 0
250 162 0
250 162 0
250 162 0
250 161 0
250 161 0
250 161 0
250 161 0
250 161 0
254 178 0
254 178 0
254 178 0
254 178 0
254 178 0
254 178 0
254 178 0
254 178 0
254 178 0
254 177 0
254 177 0
254 177 0
254 177 0
254 177 0
254 176 0
254 176 0
254 176 0
254 175 0
254 175 0
254 175 0
253 174 0
253 174 0
253 173 0
253 172 0
253 172 0
253 171 0
253 170 0
253 170 0
252 169 0
252 168 0
252 168 0
252 167 0
252 166 0
251 166 0
251 165 0
251 164 0
251 164 0
251 163 0
250 162 0
250 162 0
250 162 0
250 161 0
250 161 0
250 160 0
250 160 0
249 160 0
249 160 0
249 160 0
249 160 0
249 160 0
254 179 0
254 179 0
254 179 0
254 179 0
254 178 0
254 178 0
254 178 0
254 178 0
254 178 0
254 178 0
254 178 0
254 178 0
254 178 0
254 177 0
254 177 0
254 177 0
254 176 0
254 176 0
254 176 0
254 175 0
254 175 0
253 174 0
253 173 0
253 173 0
253 172 0
253 171 0
253 171 0
253 170 0
252 169 0
252 168 0
252 167 0
252 167 0
252 166 0
251 165 0
251 164 0
251 164 0
251 163 0
250 162 0
250 162 0
250 161 0
250 161 0
250 160 0
250 160 0
250 159 0
249 159 0
249 159 0
249 159 0
249 158 0
249 158 0
249 158 0
254 179 0
254 179 0
254 179 0
254 179 0
254 179 0
254 179 0
254 179 0
254 179 0
254 179 0
254 179 0
254 179 0
254 178 0
254 178 0
254 178 0
254 178 0
254 177 0
254 177 0
254 177 0
254 176 0
254 176 0
254 175 0
254 174 0
253 174 0
253 173 0
253 172 0
253 171 0
253 171 0
253 170 0
252 169 0
252 168 0
252 167 0
252 166 0
252 165 0
251 165 0
251 164 0
251 163 0
251 162 0
250 162 0
250 161 0
250 160 0
250 160 0
250 159 0
250 159 0
249 158 0
249 158 0
249 158 0
249 158 0
249 157 0
249 157 0
249 157 0
254 180 0
254 180 0
254 180 0
254 180 0
254 180 0
254 180 0
254 180 0
254 179 0
254 179 0
254 179 0
254 179 0
254 179 0
254 179 0
254 179 0
254 178 0
254 178 0
254 178 0
254 177 0
254 177 0
254 176 0
254 175 0
254 175 0
253 174 0
253 173 0
253 172 0
253 172 0
253 171 0
253 170 0
252 169 0
252 168 0
252 167 0
252 166 0
252 165 0
251 164 0
251 163 0
251 163 0
251 162 0
250 161 0
250 160 0
250 160 0
250 159 0
250 159 0
249 158 0
249 158 0
249 157 0
249 157 0
249 157 0
249 157 0
249 157 0
249 157 0
254 180 0
254 180 0
254 180 0
254 180 0
254 180 0
254 180 0
254 180 0
254 180 0
254 180 0
254 180 0
254 180 0
254 180 0
254 179 0
254 179 0
254 179 0
254 178 0
254 178 0
254 178 0
254 177 0
254 176 0
254 176 0
254 175 0
254 174 0
253 173 0
253 173 0
253 172 0
253 171 0
253 170 0
252 169 0
252 168 0
252 167 0
252 166 0
252 165 0
251 164 0
251 163 0
251 162 0
251 161 0
250 161 0
250 160 0
250 159 0
250 159 0
249 158 0
249 158 0
249 157 0
249 157 0
249 156 0
249 156 0
249 156 0
249 156 0
249 156 0
254 181 0
254 181 0
254 181 0
254 181 0
254 181 0
254 181 0
254 181 0
254 180 0
254 180 0
254 180 0
254 180 0
254 180 0
254 180 0
254 180 0
254 179 0
254 179 0
254 178 0
254 178 0
254 177 0
254 177 0
254 176 0
254 175 0
254 175 0
253 174 0
253 173 0
253 172 0
253 171 0
253 170 0
253 169 0
252 168 0
252 167 0
252 166 0
252 165 0
251 164 0
251 163 0
251 162 0
250 161 0
250 160 0
250 160 0
250 159 0
250 158 0
249 158 0
249 157 0
249 157 0
249 156 0
249 156 0
249 156 0
249 155 0
249 155 0
249 155 0
254 181 0
254 181 0
254 181 0
254 181 0
254 181 0
254 181 0
254 181 0
254 181 0
254 181 0
254 181 0
254 181 0
254 180 0
254 180 0
254 180 0
254 180 0
254 179 0
254 179 0
254 178 0
254 178 0
254 177 0
254 176 0
254 176 0
254 175 0
254 174 0
253 173 0
253 172 0
253 171 0
253 170 0
253 169 0
252 168 0
252 167 0
252 166 0
252 165 0
251 164 0
251 163 0
251 162 0
250 161 0
250 160 0
250 159 0
250 159 0
250 158 0
249 157 0
249 157 0
249 156 0
249 156 0
249 156 0
249 155 0
249 155 0
249 155 0
249 155 0
254 181 0
254 181 0
254 181 0
254 181 0
254 181 0
254 181 0
254 181 0
254 181 0
254 181 0
254 181 0
254 181 0
254 181 0
254 181 0
254 180 0
254 180 0
254 180 0
254 179 0
254 179 0
254 178 0
254 177 0
254 177 0
254 176 0
254 175 0
254 174 0
253 173 0
253 172 0
253 171 0
253 170 0
253 169 0
252 168 0
252 167 0
252 166 0
252 165 0
251 164 0
251 163 0
251 162 0
250 161 0
250 160 0
250 159 0
250 158 0
250 158 0
249 157 0
249 156 0
249 156 0
249 156 0
249 155 0
249 155 0
249 155 0
249 155 0
249 155 0
254 181 0
254 181 0
254 181 0
254 182 0
254 182 0
254 182 0
254 182 0
254 182 0
254 181 0
254 181 0
254 181 0
254 181 0
254 181 0
254 181 0
254 180 0
254 180 0
254 180 0
254 179 0
254 178 0
254 178 0
254 177 0
254 176 0
254 175 0
254 174 0
253 173 0
253 172 0
253 171 0
253 170 0
253 169 0
252 168 0
252 167 0
252 166 0
252 165 0
251 164 0
251 163 0
251 162 0
250 161 0
250 160 0
250 159 0
250 158 0
250 157 0
249 157 0
249 156 0
249 156 0
249 155 0
249 155 0
249 155 0
249 155 0
249 154 0
249 154 0
254 182 0
254 182 0
254 182 0
254 182 0
254 182 0
254 182 0
254 182 0
254 182 0
254 182 0
254 182 0
254 181 0
254 181 0
254 181 0
254 181 0
254 181 0
254 180 0
254 180 0
254 179 0
254 179 0
254 178 0
254 177 0
254 176 0
254 175 0
254 174 0
253 173 0
253 172 0
253 171 0
253 170 0
253 169 0
252 168 0
252 167 0
252 166 0
252 165 0
251 164 0
251 162 0
251 161 0
250 161 0
250 160 0
250 159 0
250 158 0
250 157 0
249 157 0
249 156 0
249 156 0
249 155 0
249 155 0
249 155 0
249 154 0
249 154 0
249 154 0
254 182 0
254 182 0
254 182 0
254 182 0
254 182 0
254 182 0
254 182 0
254 182 0
254 182 0
254 182 0
254 182 0
254 181 0
254 181 0
254 181 0
254 181 0
254 180 0
254 180 0
254 179 0
254 179 0
254 178 0
254 177 0
254 176 0
254 175 0
254 175 0
253 174 0
253 172 0
253 171 0
253 170 0
253 169 0
252 168 0
252 167 0
252 166 0
252 165 0
251 164 0
251 162 0
251 161 0
250 161 0
250 160 0
250 159 0
250 158 0
250 157 0
249 157 0
249 156 0
249 156 0
249 155 0
249 155 0
249 155 0
249 154 0
249 154 0
249 154 0
