P3
50 50
255
222 254 0
222 254 0
222 253 0
222 253 0
222 253 0
222 253 0
222 253 0
222 253 0
222 253 0
222 253 0
222 253 0
223 253 0
223 253 0
224 253 0
224 253 0
226 253 0
227 253 0
229 253 0
232 253 0
235 253 0
238 253 0
241 252 0
245 252 0
248 251 0
250 251 0
252 250 0
254 250 0
255 250 0
254 250 0
253 250 0
251 250 0
248 251 0
244 251 0
240 252 0
235 252 0
230 253 0
225 253 0
220 253 0
215 253 0
211 253 0
207 253 0
203 253 0
200 253 0
197 253 0
195 252 0
193 252 0
192 252 0
191 252 0
190 252 0
190 252 0
222 254 0
222 254 0
222 253 0
222 253 0
222 253 0
222 253 0
222 253 0
222 253 0
222 253 0
222 253 0
222 253 0
222 253 0
223 253 0
223 253 0
224 253 0
225 253 0
227 253 0
229 253 0
232 253 0
235 253 0
238 253 0
241 252 0
244 252 0
247 251 0
250 251 0
252 251 0
254 250 0
254 250 0
254 250 0
253 250 0
251 250 0
248 251 0
244 251 0
240 252 0
235 252 0
230 253 0
225 253 0
220 253 0
215 253 0
210 253 0
206 253 0
203 253 0
199 253 0
197 253 0
194 252 0
193 252 0
191 252 0
190 252 0
190 252 0
189 251 0
221 254 0
221 254 0
221 254 0
221 253 0
221 253 0
221 253 0
221 253 0
221 253 0
221 253 0
221 253 0
222 253 0
222 253 0
222 253 0
223 253 0
224 253 0
225 253 0
227 253 0
229 253 0
231 253 0
234 253 0
237 253 0
241 252 0
244 252 0
247 251 0
250 251 0
252 251 0
253 250 0
254 250 0
253 250 0
252 250 0
250 250 0
247 251 0
244 251 0
239 252 0
235 252 0
230 253 0
225 253 0
219 253 0
215 253 0
210 253 0
206 253 0
202 253 0
199 253 0
196 253 0
194 252 0
192 252 0
191 252 0
190 252 0
189 251 0
189 251 0
220 254 0
220 254 0
220 254 0
220 253 0
220 253 0
220 253 0
220 253 0
220 253 0
220 253 0
221 253 0
221 253 0
221 253 0
221 253 0
222 253 0
223 253 0
224 253 0
226 253 0
228 253 0
231 253 0
234 253 0
237 253 0
240 252 0
243 252 0
246 252 0
249 251 0
251 251 0
252 250 0
253 250 0
253 250 0
252 250 0
250 250 0
247 251 0
243 251 0
239 252 0
234 252 0
229 253 0
224 253 0
219 253 0
214 253 0
209 253 0
205 253 0
201 253 0
198 253 0
195 252 0
193 252 0
191 252 0
189 252 0
188 251 0
188 251 0
187 251 0
218 254 0
218 254 0
218 254 0
219 253 0
219 253 0
219 253 0
219 253 0
219 253 0
219 253 0
219 253 0
220 253 0
220 253 0
220 253 0
221 253 0
222 253 0
223 253 0
225 253 0
227 253 0
230 253 0
233 253 0
236 253 0
239 253 0
242 252 0
245 252 0
248 251 0
250 251 0
252 250 0
252 250 0
252 250 0
251 250 0
249 251 0
246 251 0
242 251 0
238 252 0
233 252 0
228 253 0
223 253 0
218 253 0
213 253 0
208 253 0
204 253 0
200 253 0
197 253 0
194 252 0
191 252 0
189 252 0
188 251 0
187 251 0
186 251 0
186 251 0
217 254 0
217 254 0
217 254 0
217 254 0
217 253 0
217 253 0
218 253 0
218 253 0
218 253 0
218 253 0
218 253 0
219 253 0
219 253 0
220 253 0
221 253 0
222 253 0
224 254 0
226 254 0
229 253 0
232 253 0
235 253 0
238 253 0
241 252 0
244 252 0
247 251 0
249 251 0
250 251 0
251 250 0
251 250 0
250 250 0
248 251 0
245 251 0
241 251 0
237 252 0
233 252 0
228 253 0
222 253 0
217 253 0
212 253 0
207 253 0
203 253 0
199 253 0
195 253 0
192 252 0
189 252 0
187 251 0
186 251 0
185 251 0
184 251 0
184 251 0
215 254 0
215 254 0
215 254 0
215 254 0
216 253 0
216 253 0
216 253 0
216 253 0
217 253 0
217 253 0
217 253 0
218 253 0
218 253 0
219 253 0
220 253 0
221 254 0
223 254 0
225 254 0
228 253 0
231 253 0
234 253 0
237 253 0
240 252 0
243 252 0
246 251 0
248 251 0
249 251 0
250 250 0
250 250 0
249 250 0
247 251 0
244 251 0
240 251 0
236 252 0
232 252 0
227 253 0
221 253 0
216 253 0
211 253 0
206 253 0
201 253 0
197 253 0
193 252 0
190 252 0
188 252 0
185 251 0
184 251 0
183 251 0
182 250 0
181 250 0
213 254 0
213 254 0
214 254 0
214 254 0
214 253 0
214 253 0
215 253 0
215 253 0
215 253 0
216 253 0
216 253 0
216 253 0
217 253 0
218 253 0
219 253 0
220 254 0
222 254 0
224 254 0
227 254 0
230 253 0
233 253 0
236 253 0
239 252 0
242 252 0
244 251 0
246 251 0
248 251 0
248 251 0
248 251 0
247 251 0
246 251 0
243 251 0
239 251 0
235 252 0
231 252 0
226 253 0
220 253 0
215 253 0
210 253 0
205 253 0
200 253 0
196 253 0
192 252 0
188 252 0
186 251 0
183 251 0
182 251 0
180 250 0
179 250 0
179 250 0
212 254 0
212 254 0
212 254 0
212 254 0
213 253 0
213 253 0
213 253 0
214 253 0
214 253 0
214 253 0
215 253 0
215 253 0
216 253 0
217 253 0
218 254 0
220 254 0
221 254 0
223 254 0
226 254 0
229 253 0
231 253 0
234 253 0
237 252 0
240 252 0
243 252 0
245 251 0
246 251 0
247 251 0
247 251 0
246 251 0
244 251 0
242 251 0
238 252 0
234 252 0
230 252 0
225 253 0
219 253 0
214 253 0
209 253 0
204 253 0
199 253 0
194 252 0
190 252 0
187 252 0
184 251 0
181 251 0
179 250 0
178 250 0
177 250 0
177 250 0
211 254 0
211 254 0
211 254 0
211 254 0
211 253 0
212 253 0
212 253 0
212 253 0
213 253 0
213 253 0
214 253 0
214 253 0
215 253 0
216 253 0
217 254 0
219 254 0
221 254 0
223 254 0
225 254 0
228 253 0
230 253 0
233 253 0
236 253 0
239 252 0
241 252 0
243 251 0
245 251 0
245 251 0
245 251 0
244 251 0
243 251 0
240 251 0
237 252 0
233 252 0
229 252 0
224 253 0
218 253 0
213 253 0
208 253 0
202 253 0
197 253 0
193 252 0
189 252 0
185 251 0
182 251 0
179 250 0
177 250 0
176 249 0
175 249 0
174 249 0
210 254 0
210 254 0
210 254 0
210 254 0
210 253 0
211 253 0
211 253 0
212 253 0
212 253 0
213 253 0
213 253 0
214 253 0
215 253 0
216 254 0
217 254 0
218 254 0
220 254 0
222 254 0
224 254 0
227 253 0
229 253 0
232 253 0
235 253 0
237 252 0
240 252 0
242 252 0
243 251 0
244 251 0
243 251 0
243 251 0
241 251 0
239 251 0
236 252 0
232 252 0
227 252 0
223 253 0
217 253 0
212 253 0
207 253 0
201 253 0
196 253 0
191 252 0
187 252 0
183 251 0
180 251 0
177 250 0
175 250 0
174 249 0
173 249 0
172 249 0
209 254 0
209 254 0
209 254 0
210 254 0
210 253 0
210 253 0
211 253 0
211 253 0
212 253 0
212 253 0
213 253 0
214 253 0
214 253 0
215 254 0
217 254 0
218 254 0
220 254 0
222 254 0
224 254 0
226 253 0
229 253 0
231 253 0
234 253 0
236 252 0
238 252 0
240 252 0
241 251 0
242 251 0
242 251 0
241 251 0
239 251 0
237 251 0
234 252 0
230 252 0
226 252 0
221 253 0
216 253 0
211 253 0
206 253 0
200 253 0
195 253 0
190 252 0
186 252 0
182 251 0
179 250 0
176 250 0
173 249 0
172 249 0
171 249 0
170 248 0
209 254 0
209 254 0
209 254 0
209 253 0
210 253 0
210 253 0
211 253 0
211 253 0
212 253 0
212 253 0
213 253 0
214 253 0
214 253 0
215 254 0
217 254 0
218 254 0
220 254 0
221 254 0
224 254 0
226 253 0
228 253 0
230 253 0
232 253 0
235 252 0
236 252 0
238 252 0
239 252 0
240 251 0
240 251 0
239 251 0
237 251 0
235 252 0
232 252 0
229 252 0
225 252 0
220 253 0
215 253 0
210 253 0
205 253 0
199 253 0
194 252 0
189 252 0
185 251 0
181 251 0
177 250 0
174 250 0
172 249 0
170 249 0
169 248 0
169 248 0
209 254 0
209 254 0
210 254 0
210 253 0
210 253 0
211 253 0
211 253 0
211 253 0
212 253 0
212 253 0
213 253 0
214 253 0
215 253 0
216 254 0
217 254 0
218 254 0
220 254 0
222 254 0
223 254 0
225 253 0
227 253 0
229 253 0
231 253 0
233 253 0
235 252 0
236 252 0
237 252 0
237 252 0
237 252 0
237 252 0
235 252 0
233 252 0
231 252 0
227 252 0
223 252 0
219 253 0
214 253 0
209 253 0
204 253 0
199 253 0
194 252 0
189 252 0
184 251 0
180 251 0
177 250 0
174 250 0
171 249 0
170 249 0
168 248 0
168 248 0
210 254 0
210 254 0
211 253 0
211 253 0
211 253 0
211 253 0
212 253 0
212 253 0
213 253 0
213 253 0
214 253 0
215 253 0
216 253 0
217 253 0
218 254 0
219 254 0
221 254 0
222 254 0
224 253 0
225 253 0
227 253 0
229 253 0
230 253 0
232 253 0
233 252 0
234 252 0
235 252 0
235 252 0
235 252 0
234 252 0
233 252 0
231 252 0
229 252 0
226 252 0
222 252 0
218 253 0
213 253 0
208 253 0
203 253 0
198 253 0
193 252 0
188 252 0
184 251 0
180 251 0
177 250 0
174 250 0
171 249 0
169 249 0
168 248 0
168 248 0
212 253 0
212 253 0
212 253 0
212 253 0
212 253 0
213 253 0
213 253 0
213 253 0
214 253 0
214 253 0
215 253 0
216 253 0
217 253 0
218 253 0
219 253 0
220 253 0
221 253 0
223 253 0
224 253 0
226 253 0
227 253 0
228 253 0
230 253 0
231 253 0
232 253 0
232 252 0
233 252 0
233 252 0
232 252 0
232 252 0
230 252 0
229 252 0
226 252 0
224 252 0
220 253 0
216 253 0
212 253 0
208 253 0
203 253 0
198 253 0
193 252 0
189 252 0
184 251 0
180 251 0
177 250 0
174 250 0
172 249 0
170 249 0
169 249 0
168 248 0
214 253 0
214 253 0
214 253 0
214 253 0
214 253 0
214 253 0
215 253 0
215 253 0
215 253 0
216 253 0
217 253 0
217 253 0
218 253 0
219 253 0
220 253 0
221 253 0
222 253 0
224 253 0
225 253 0
226 253 0
227 253 0
228 253 0
229 253 0
229 253 0
230 253 0
230 253 0
230 253 0
230 252 0
230 252 0
229 252 0
228 252 0
226 252 0
224 252 0
222 253 0
219 253 0
215 253 0
211 253 0
207 253 0
202 253 0
198 253 0
193 252 0
189 252 0
185 252 0
181 251 0
178 251 0
175 250 0
173 250 0
171 249 0
170 249 0
169 249 0
216 253 0
216 253 0
216 253 0
216 253 0
216 253 0
216 253 0
216 253 0
217 253 0
217 253 0
218 253 0
218 253 0
219 253 0
220 253 0
221 253 0
222 253 0
223 253 0
224 253 0
225 253 0
226 253 0
226 253 0
227 253 0
228 253 0
228 253 0
228 253 0
228 253 0
228 253 0
228 253 0
228 253 0
227 253 0
226 253 0
225 253 0
224 253 0
222 253 0
220 253 0
217 253 0
214 253 0
210 253 0
206 253 0
202 253 0
198 253 0
194 253 0
190 252 0
186 252 0
182 251 0
179 251 0
177 250 0
174 250 0
173 250 0
172 249 0
171 249 0
218 253 0
218 253 0
218 253 0
218 253 0
218 253 0
218 253 0
219 253 0
219 253 0
219 253 0
220 253 0
220 253 0
221 253 0
221 253 0
222 253 0
223 253 0
224 253 0
225 253 0
226 253 0
226 253 0
227 253 0
227 253 0
227 253 0
227 253 0
227 253 0
227 253 0
227 253 0
226 253 0
225 253 0
225 253 0
224 253 0
223 253 0
221 253 0
220 253 0
218 253 0
215 253 0
213 253 0
210 253 0
206 253 0
203 253 0
199 253 0
195 253 0
191 252 0
188 252 0
184 252 0
181 251 0
179 251 0
177 251 0
175 250 0
174 250 0
174 250 0
221 253 0
221 253 0
221 253 0
221 253 0
221 253 0
221 253 0
221 253 0
221 253 0
221 253 0
221 253 0
222 253 0
223 253 0
223 253 0
224 253 0
225 253 0
226 253 0
226 253 0
227 253 0
227 253 0
228 253 0
228 253 0
227 253 0
227 253 0
226 253 0
226 253 0
225 253 0
224 253 0
223 253 0
222 253 0
221 253 0
220 253 0
219 253 0
218 253 0
216 253 0
214 253 0
212 253 0
209 253 0
206 253 0
203 253 0
200 253 0
196 253 0
193 253 0
190 252 0
187 252 0
184 252 0
182 251 0
180 251 0
178 251 0
177 251 0
177 251 0
223 253 0
223 253 0
223 253 0
223 253 0
223 253 0
223 253 0
223 253 0
223 253 0
223 253 0
223 253 0
224 253 0
224 253 0
225 253 0
226 253 0
226 253 0
227 253 0
228 253 0
228 253 0
228 253 0
228 253 0
228 253 0
227 253 0
226 253 0
226 253 0
224 253 0
223 253 0
222 253 0
221 253 0
220 253 0
219 253 0
218 253 0
217 253 0
216 253 0
215 253 0
213 253 0
211 253 0
209 253 0
207 253 0
204 253 0
201 253 0
198 253 0
195 253 0
192 253 0
190 252 0
187 252 0
185 252 0
183 252 0
182 252 0
181 251 0
181 251 0
226 253 0
226 253 0
226 253 0
226 253 0
225 253 0
225 253 0
225 253 0
225 253 0
225 253 0
225 253 0
226 253 0
226 253 0
227 253 0
227 253 0
228 253 0
229 253 0
229 253 0
229 253 0
229 253 0
229 253 0
228 253 0
227 253 0
226 253 0
225 253 0
224 253 0
222 254 0
221 254 0
219 254 0
218 254 0
217 254 0
216 254 0
215 253 0
214 253 0
213 253 0
212 253 0
211 253 0
209 253 0
207 253 0
205 253 0
203 253 0
201 253 0
198 253 0
196 253 0
193 253 0
191 253 0
189 252 0
187 252 0
186 252 0
185 252 0
185 252 0
228 252 0
228 252 0
228 252 0
228 252 0
227 252 0
227 253 0
227 253 0
227 253 0
227 253 0
227 253 0
227 253 0
228 253 0
228 253 0
229 253 0
229 253 0
230 253 0
230 253 0
230 253 0
230 253 0
229 253 0
229 253 0
227 253 0
226 253 0
224 254 0
223 254 0
221 254 0
219 254 0
218 254 0
217 254 0
216 254 0
215 254 0
214 254 0
213 254 0
213 253 0
212 253 0
211 253 0
210 253 0
209 253 0
207 253 0
205 253 0
203 253 0
201 253 0
199 253 0
197 253 0
195 253 0
193 253 0
192 253 0
191 253 0
190 253 0
190 253 0
230 252 0
230 252 0
230 252 0
229 252 0
229 252 0
229 252 0
229 253 0
228 253 0
228 253 0
228 253 0
229 253 0
229 253 0
230 253 0
230 253 0
231 253 0
231 253 0
231 253 0
231 253 0
231 253 0
230 253 0
229 253 0
228 253 0
226 253 0
224 254 0
222 254 0
220 254 0
219 254 0
217 254 0
216 254 0
215 254 0
214 254 0
213 254 0
213 254 0
212 254 0
212 253 0
212 253 0
211 253 0
210 253 0
209 253 0
208 253 0
206 253 0
205 253 0
203 253 0
201 253 0
200 253 0
198 253 0
197 253 0
196 253 0
195 253 0
195 253 0
231 252 0
231 252 0
231 252 0
231 252 0
230 252 0
230 252 0
230 252 0
230 253 0
229 253 0
230 253 0
230 253 0
230 253 0
231 253 0
231 253 0
232 253 0
232 253 0
232 253 0
232 253 0
232 253 0
231 253 0
229 253 0
228 253 0
226 254 0
224 254 0
222 254 0
220 254 0
218 254 0
216 254 0
215 254 0
214 254 0
213 254 0
213 254 0
213 254 0
213 254 0
213 254 0
213 253 0
213 253 0
212 253 0
212 253 0
211 253 0
210 253 0
209 253 0
207 253 0
206 253 0
204 254 0
203 254 0
202 254 0
201 254 0
200 254 0
200 254 0
232 252 0
232 252 0
232 252 0
231 252 0
231 252 0
231 252 0
231 252 0
230 253 0
230 253 0
230 253 0
231 253 0
231 253 0
232 253 0
232 253 0
233 253 0
233 253 0
233 253 0
233 253 0
232 253 0
231 253 0
230 253 0
228 253 0
226 254 0
224 254 0
222 254 0
220 254 0
218 254 0
216 254 0
215 254 0
214 254 0
213 254 0
213 254 0
213 254 0
214 254 0
214 254 0
215 253 0
215 253 0
215 253 0
215 253 0
215 253 0
214 253 0
213 253 0
212 253 0
211 254 0
209 254 0
208 254 0
207 254 0
206 254 0
205 254 0
205 254 0
232 252 0
232 252 0
232 252 0
232 252 0
232 252 0
231 252 0
231 252 0
231 253 0
231 253 0
231 253 0
231 253 0
232 253 0
232 253 0
233 253 0
233 253 0
234 253 0
234 253 0
234 253 0
233 253 0
232 253 0
231 253 0
229 254 0
227 254 0
225 254 0
222 254 0
220 254 0
218 254 0
216 254 0
215 254 0
214 254 0
214 254 0
214 254 0
214 254 0
215 254 0
216 254 0
217 253 0
217 253 0
218 253 0
218 253 0
218 253 0
218 253 0
218 253 0
217 253 0
216 253 0
214 254 0
213 254 0
212 254 0
211 254 0
211 254 0
210 254 0
232 252 0
232 252 0
232 252 0
232 252 0
231 252 0
231 252 0
231 253 0
231 253 0
231 253 0
231 253 0
232 253 0
232 253 0
233 253 0
233 253 0
234 253 0
234 253 0
234 253 0
234 253 0
234 253 0
233 253 0
231 253 0
229 254 0
227 254 0
225 254 0
223 254 0
221 254 0
219 254 0
217 254 0
216 254 0
215 254 0
215 254 0
215 254 0
216 254 0
217 254 0
218 254 0
219 253 0
220 253 0
221 253 0
222 253 0
222 253 0
222 253 0
222 253 0
222 253 0
221 253 0
220 253 0
219 254 0
218 254 0
217 254 0
216 254 0
216 254 0
231 252 0
231 252 0
231 252 0
231 252 0
231 252 0
231 253 0
231 253 0
231 253 0
231 253 0
231 253 0
232 253 0
232 253 0
233 253 0
234 253 0
234 253 0
235 253 0
235 253 0
235 253 0
234 253 0
233 253 0
232 253 0
230 254 0
228 254 0
226 254 0
224 254 0
221 254 0
220 254 0
218 254 0
217 254 0
216 254 0
216 254 0
217 254 0
218 254 0
219 254 0
220 253 0
222 253 0
223 253 0
225 253 0
226 253 0
227 253 0
227 253 0
227 253 0
226 253 0
226 253 0
225 253 0
224 253 0
223 253 0
222 254 0
221 254 0
221 254 0
230 252 0
230 252 0
230 252 0
230 252 0
230 253 0
230 253 0
230 253 0
230 253 0
231 253 0
231 253 0
232 253 0
233 253 0
233 253 0
234 253 0
235 253 0
235 253 0
236 253 0
235 253 0
235 253 0
234 253 0
233 253 0
231 254 0
229 254 0
227 254 0
225 254 0
223 254 0
221 254 0
219 254 0
219 254 0
218 254 0
218 254 0
219 254 0
220 254 0
221 253 0
223 253 0
225 253 0
227 253 0
228 253 0
230 252 0
231 252 0
231 252 0
231 252 0
231 252 0
230 253 0
230 253 0
229 253 0
228 253 0
227 253 0
226 253 0
226 253 0
229 253 0
229 253 0
229 253 0
229 253 0
229 253 0
229 253 0
229 253 0
230 253 0
230 253 0
231 253 0
232 253 0
232 253 0
233 253 0
234 253 0
235 253 0
236 253 0
236 253 0
236 253 0
235 253 0
234 253 0
233 253 0
232 254 0
230 254 0
228 254 0
226 254 0
224 254 0
222 254 0
221 254 0
220 254 0
220 254 0
220 254 0
221 254 0
222 254 0
224 253 0
226 253 0
228 253 0
230 252 0
232 252 0
233 252 0
235 252 0
235 252 0
236 252 0
235 252 0
235 252 0
234 252 0
233 253 0
232 253 0
231 253 0
231 253 0
230 253 0
227 253 0
228 253 0
228 253 0
228 253 0
228 253 0
228 253 0
228 253 0
229 253 0
229 253 0
230 253 0
231 253 0
232 253 0
233 253 0
234 253 0
235 253 0
236 253 0
236 253 0
236 253 0
236 253 0
235 253 0
234 253 0
232 253 0
230 254 0
229 254 0
227 254 0
225 254 0
224 254 0
223 254 0
222 254 0
222 254 0
223 254 0
224 254 0
225 253 0
227 253 0
229 253 0
231 252 0
233 252 0
235 252 0
237 252 0
238 251 0
239 251 0
239 251 0
239 251 0
239 252 0
238 252 0
237 252 0
236 252 0
235 253 0
235 253 0
234 253 0
226 253 0
226 253 0
226 253 0
226 253 0
226 253 0
227 253 0
227 253 0
228 253 0
228 253 0
229 253 0
230 253 0
232 253 0
233 253 0
234 253 0
235 253 0
236 253 0
236 253 0
236 253 0
236 253 0
235 253 0
234 253 0
233 253 0
231 254 0
230 254 0
228 254 0
226 254 0
225 254 0
224 254 0
224 254 0
224 254 0
225 254 0
226 253 0
228 253 0
229 253 0
232 253 0
234 252 0
236 252 0
238 252 0
240 251 0
241 251 0
242 251 0
243 251 0
243 251 0
242 251 0
242 251 0
241 252 0
240 252 0
239 252 0
238 252 0
238 252 0
224 253 0
224 253 0
224 253 0
225 253 0
225 253 0
225 253 0
226 253 0
227 253 0
227 253 0
228 253 0
230 253 0
231 253 0
232 253 0
233 253 0
234 253 0
235 253 0
236 253 0
236 253 0
236 253 0
235 253 0
234 253 0
233 253 0
232 253 0
230 254 0
229 254 0
228 254 0
227 254 0
226 254 0
226 254 0
226 254 0
227 253 0
228 253 0
230 253 0
232 253 0
234 252 0
236 252 0
239 252 0
241 251 0
243 251 0
244 251 0
245 251 0
246 251 0
245 251 0
245 251 0
244 251 0
243 251 0
243 252 0
242 252 0
241 252 0
241 252 0
223 253 0
223 253 0
223 253 0
223 253 0
224 253 0
224 253 0
225 253 0
225 253 0
226 253 0
227 253 0
229 253 0
230 253 0
231 253 0
232 253 0
234 253 0
234 253 0
235 253 0
235 253 0
235 253 0
235 253 0
234 253 0
233 253 0
232 253 0
231 253 0
230 254 0
229 254 0
228 254 0
228 254 0
228 253 0
228 253 0
229 253 0
230 253 0
232 253 0
234 252 0
236 252 0
239 252 0
241 251 0
243 251 0
245 251 0
246 250 0
247 250 0
248 250 0
248 250 0
247 251 0
246 251 0
246 251 0
245 251 0
244 251 0
243 252 0
243 252 0
221 253 0
222 253 0
222 253 0
222 253 0
222 253 0
223 253 0
223 253 0
224 253 0
225 253 0
226 253 0
227 253 0
229 253 0
230 253 0
231 253 0
232 253 0
233 253 0
234 253 0
235 253 0
235 253 0
234 253 0
234 253 0
233 253 0
232 253 0
231 253 0
230 253 0
230 253 0
229 253 0
229 253 0
229 253 0
230 253 0
231 253 0
232 253 0
234 252 0
236 252 0
238 252 0
240 251 0
243 251 0
245 251 0
246 250 0
248 250 0
249 250 0
249 250 0
249 250 0
249 250 0
248 251 0
247 251 0
246 251 0
245 251 0
245 251 0
244 251 0
220 253 0
221 253 0
221 253 0
221 253 0
221 253 0
222 253 0
222 253 0
223 253 0
224 253 0
225 253 0
226 253 0
227 253 0
229 253 0
230 253 0
231 253 0
232 253 0
233 253 0
233 253 0
234 253 0
233 253 0
233 253 0
232 253 0
232 253 0
231 253 0
231 253 0
230 253 0
230 253 0
230 253 0
230 253 0
231 253 0
232 253 0
234 252 0
235 252 0
237 252 0
239 252 0
242 251 0
244 251 0
246 251 0
247 250 0
248 250 0
249 250 0
250 250 0
250 250 0
249 250 0
249 250 0
248 251 0
247 251 0
246 251 0
245 251 0
245 251 0
220 253 0
220 253 0
220 253 0
220 253 0
220 253 0
221 253 0
221 253 0
222 254 0
223 254 0
224 253 0
225 253 0
226 253 0
227 253 0
228 253 0
230 253 0
231 253 0
231 253 0
232 253 0
232 253 0
232 253 0
232 253 0
232 253 0
231 253 0
231 253 0
230 253 0
230 253 0
230 253 0
231 253 0
231 253 0
232 253 0
233 253 0
235 252 0
236 252 0
238 252 0
240 251 0
242 251 0
244 251 0
246 251 0
247 250 0
249 250 0
249 250 0
250 250 0
250 250 0
249 250 0
248 250 0
248 251 0
247 251 0
246 251 0
245 251 0
245 251 0
220 253 0
220 253 0
220 253 0
220 253 0
220 253 0
220 253 0
220 253 0
221 254 0
221 254 0
222 254 0
223 253 0
224 253 0
225 253 0
227 253 0
228 253 0
229 253 0
229 253 0
230 253 0
230 253 0
231 253 0
231 253 0
230 253 0
230 253 0
230 253 0
230 253 0
230 253 0
230 253 0
231 253 0
231 253 0
232 253 0
234 252 0
235 252 0
237 252 0
238 252 0
240 251 0
242 251 0
244 251 0
246 251 0
247 250 0
248 250 0
249 250 0
249 250 0
249 250 0
248 250 0
248 251 0
247 251 0
246 251 0
245 251 0
245 251 0
245 251 0
220 253 0
220 253 0
220 253 0
219 253 0
219 253 0
219 253 0
220 253 0
220 254 0
220 254 0
221 254 0
222 254 0
223 254 0
224 253 0
225 253 0
226 253 0
227 253 0
227 253 0
228 253 0
228 253 0
229 253 0
229 253 0
229 253 0
229 253 0
229 253 0
229 253 0
229 253 0
230 253 0
230 253 0
231 253 0
232 253 0
234 252 0
235 252 0
237 252 0
238 252 0
240 252 0
242 251 0
243 251 0
245 251 0
246 251 0
247 251 0
248 250 0
248 250 0
248 251 0
247 251 0
247 251 0
246 251 0
245 251 0
244 251 0
244 251 0
244 252 0
220 253 0
220 253 0
220 253 0
220 253 0
219 253 0
219 253 0
219 253 0
219 254 0
219 254 0
220 254 0
220 254 0
221 254 0
222 254 0
223 253 0
224 253 0
224 253 0
225 253 0
226 253 0
226 253 0
227 254 0
227 254 0
227 254 0
227 254 0
228 254 0
228 253 0
228 253 0
229 253 0
230 253 0
231 253 0
232 253 0
233 253 0
235 252 0
236 252 0
238 252 0
239 252 0
241 251 0
242 251 0
244 251 0
245 251 0
245 251 0
246 251 0
246 251 0
246 251 0
246 251 0
245 251 0
244 251 0
244 251 0
243 252 0
242 252 0
242 252 0
221 253 0
221 253 0
221 253 0
220 253 0
220 253 0
219 253 0
219 253 0
219 253 0
219 254 0
219 254 0
219 254 0
219 254 0
220 254 0
221 254 0
221 254 0
222 254 0
223 254 0
223 254 0
224 254 0
224 254 0
225 254 0
225 254 0
225 254 0
226 254 0
226 254 0
227 253 0
228 253 0
229 253 0
230 253 0
231 253 0
232 253 0
234 252 0
235 252 0
237 252 0
238 252 0
239 252 0
241 252 0
242 251 0
243 251 0
244 251 0
244 251 0
244 251 0
244 251 0
244 251 0
243 251 0
242 252 0
242 252 0
241 252 0
241 252 0
241 252 0
222 253 0
222 253 0
221 253 0
221 253 0
220 253 0
220 253 0
219 253 0
218 253 0
218 254 0
218 254 0
218 254 0
218 254 0
218 254 0
219 254 0
219 254 0
220 254 0
220 254 0
221 254 0
221 254 0
222 254 0
222 254 0
223 254 0
223 254 0
224 254 0
225 254 0
226 254 0
227 254 0
228 253 0
229 253 0
230 253 0
231 253 0
233 253 0
234 252 0
235 252 0
237 252 0
238 252 0
239 252 0
240 252 0
241 252 0
241 252 0
242 252 0
242 252 0
242 252 0
241 252 0
241 252 0
240 252 0
240 252 0
239 252 0
239 252 0
239 252 0
223 253 0
223 253 0
223 253 0
222 253 0
221 253 0
220 253 0
219 253 0
218 253 0
218 254 0
217 254 0
217 254 0
217 254 0
217 254 0
217 254 0
217 254 0
218 254 0
218 254 0
219 254 0
219 254 0
220 254 0
220 254 0
221 254 0
221 254 0
222 254 0
223 254 0
224 254 0
225 254 0
226 254 0
227 253 0
229 253 0
230 253 0
231 253 0
232 253 0
234 253 0
235 252 0
236 252 0
237 252 0
238 252 0
239 252 0
239 252 0
240 252 0
240 252 0
240 252 0
239 252 0
239 252 0
238 252 0
238 252 0
237 252 0
237 252 0
237 252 0
225 253 0
224 253 0
224 253 0
223 253 0
222 253 0
221 253 0
219 253 0
218 253 0
217 253 0
216 254 0
216 254 0
215 254 0
215 254 0
215 254 0
215 254 0
216 254 0
216 254 0
216 254 0
217 254 0
217 254 0
218 254 0
219 254 0
220 254 0
220 254 0
221 254 0
222 254 0
224 254 0
225 254 0
226 254 0
227 253 0
229 253 0
230 253 0
231 253 0
232 253 0
233 253 0
234 253 0
235 253 0
236 252 0
237 252 0
237 252 0
237 252 0
238 252 0
237 252 0
237 252 0
237 252 0
236 252 0
236 252 0
236 252 0
235 252 0
235 253 0
226 253 0
226 253 0
225 253 0
224 253 0
223 253 0
221 253 0
220 253 0
218 253 0
217 253 0
216 254 0
215 254 0
214 254 0
214 254 0
214 254 0
214 254 0
214 254 0
214 254 0
214 254 0
215 254 0
215 254 0
216 254 0
217 254 0
218 254 0
219 254 0
220 254 0
221 254 0
222 254 0
223 254 0
225 254 0
226 254 0
227 253 0
228 253 0
229 253 0
231 253 0
232 253 0
232 253 0
233 253 0
234 253 0
235 253 0
235 253 0
235 253 0
236 253 0
236 252 0
235 252 0
235 253 0
235 253 0
234 253 0
234 253 0
234 253 0
234 253 0
227 253 0
227 253 0
226 253 0
225 253 0
223 253 0
222 253 0
220 253 0
218 253 0
217 253 0
215 254 0
214 254 0
213 254 0
213 254 0
212 254 0
212 254 0
212 254 0
212 254 0
213 254 0
213 254 0
214 254 0
214 254 0
215 254 0
216 254 0
217 254 0
218 254 0
220 254 0
221 254 0
222 254 0
224 254 0
225 254 0
226 254 0
227 254 0
228 253 0
229 253 0
230 253 0
231 253 0
232 253 0
232 253 0
233 253 0
233 253 0
234 253 0
234 253 0
234 253 0
234 253 0
233 253 0
233 253 0
233 253 0
233 253 0
232 253 0
232 253 0
228 252 0
228 253 0
227 253 0
226 253 0
224 253 0
222 253 0
220 253 0
218 253 0
217 253 0
215 254 0
214 254 0
213 254 0
212 254 0
212 254 0
211 254 0
211 254 0
211 254 0
211 254 0
212 254 0
212 254 0
213 254 0
214 254 0
215 254 0
216 254 0
217 254 0
219 254 0
220 254 0
221 254 0
223 254 0
224 254 0
225 254 0
226 254 0
227 254 0
228 254 0
229 253 0
230 253 0
230 253 0
231 253 0
232 253 0
232 253 0
232 253 0
232 253 0
233 253 0
232 253 0
232 253 0
232 253 0
232 253 0
232 253 0
231 253 0
231 253 0
229 252 0
229 252 0
228 253 0
226 253 0
225 253 0
223 253 0
221 253 0
219 253 0
217 253 0
215 254 0
214 254 0
212 254 0
211 254 0
211 254 0
210 254 0
210 254 0
210 254 0
211 254 0
211 254 0
211 254 0
212 254 0
213 254 0
214 254 0
215 254 0
216 254 0
218 254 0
219 254 0
220 254 0
222 254 0
223 254 0
224 254 0
225 254 0
226 254 0
227 254 0
228 254 0
229 254 0
229 253 0
230 253 0
231 253 0
231 253 0
231 253 0
232 253 0
232 253 0
232 253 0
231 253 0
231 253 0
231 253 0
231 253 0
231 253 0
231 253 0
230 252 0
229 252 0
228 253 0
227 253 0
225 253 0
223 253 0
221 253 0
219 253 0
217 253 0
215 254 0
213 254 0
212 254 0
211 254 0
211 254 0
210 254 0
210 254 0
210 254 0
210 254 0
210 254 0
211 254 0
212 254 0
213 254 0
214 254 0
215 255 0
216 254 0
217 254 0
219 254 0
220 254 0
221 254 0
223 254 0
224 254 0
225 254 0
226 254 0
227 254 0
228 254 0
228 254 0
229 254 0
230 253 0
230 253 0
231 253 0
231 253 0
231 253 0
231 253 0
231 253 0
231 253 0
231 253 0
231 253 0
230 253 0
230 253 0
230 253 0
