P3
50 50
255
220 244 0
220 244 0
219 244 0
219 243 0
219 243 0
219 243 0
218 243 0
218 243 0
217 243 0
216 243 0
215 243 0
215 243 0
214 242 0
213 242 0
212 242 0
211 242 0
209 242 0
208 242 0
207 242 0
206 241 0
205 241 0
205 241 0
204 241 0
204 241 0
203 242 0
203 242 0
203 242 0
204 242 0
205 242 0
206 243 0
207 243 0
209 244 0
211 244 0
213 245 0
215 246 0
218 246 0
221 247 0
224 248 0
227 248 0
230 249 0
233 250 0
236 250 0
239 251 0
242 252 0
244 252 0
246 253 0
248 253 0
249 253 0
250 254 0
251 254 0
220 244 0
220 244 0
219 244 0
219 243 0
219 243 0
219 243 0
218 243 0
218 243 0
217 243 0
216 243 0
215 243 0
215 243 0
214 242 0
213 242 0
212 242 0
211 242 0
210 242 0
208 242 0
207 242 0
206 241 0
206 241 0
205 241 0
204 241 0
204 241 0
203 242 0
203 242 0
204 242 0
204 242 0
205 243 0
206 243 0
207 243 0
209 244 0
211 244 0
213 245 0
215 246 0
218 246 0
221 247 0
224 248 0
227 248 0
230 249 0
233 250 0
236 250 0
239 251 0
242 252 0
244 252 0
246 253 0
248 253 0
249 253 0
250 254 0
251 254 0
220 244 0
220 244 0
220 244 0
219 243 0
219 243 0
219 243 0
218 243 0
218 243 0
217 243 0
216 243 0
216 243 0
215 243 0
214 242 0
213 242 0
212 242 0
211 242 0
210 242 0
209 242 0
208 242 0
207 241 0
206 241 0
205 241 0
204 241 0
204 241 0
204 242 0
204 242 0
204 242 0
204 242 0
205 243 0
206 243 0
207 243 0
209 244 0
211 244 0
213 245 0
215 246 0
218 246 0
221 247 0
224 248 0
227 248 0
230 249 0
233 250 0
236 250 0
239 251 0
242 252 0
244 252 0
246 253 0
248 253 0
250 254 0
251 254 0
251 254 0
220 244 0
220 244 0
220 244 0
219 243 0
219 243 0
219 243 0
218 243 0
218 243 0
217 243 0
216 243 0
216 243 0
215 243 0
214 242 0
213 242 0
212 242 0
211 242 0
210 242 0
209 242 0
208 242 0
207 242 0
206 241 0
205 241 0
205 241 0
204 242 0
204 242 0
204 242 0
204 242 0
205 242 0
205 243 0
206 243 0
208 243 0
209 244 0
211 244 0
213 245 0
216 246 0
218 246 0
221 247 0
224 248 0
227 248 0
230 249 0
234 250 0
237 251 0
240 251 0
242 252 0
245 252 0
247 253 0
249 253 0
250 254 0
251 254 0
251 254 0
220 244 0
220 244 0
220 244 0
220 243 0
219 243 0
219 243 0
218 243 0
218 243 0
217 243 0
217 243 0
216 243 0
215 243 0
214 242 0
213 242 0
212 242 0
211 242 0
210 242 0
209 242 0
208 242 0
207 242 0
206 241 0
205 241 0
205 241 0
204 242 0
204 242 0
204 242 0
204 242 0
205 242 0
206 243 0
207 243 0
208 243 0
210 244 0
212 245 0
214 245 0
216 246 0
219 246 0
222 247 0
225 248 0
228 249 0
231 249 0
234 250 0
237 251 0
240 251 0
243 252 0
245 253 0
247 253 0
249 253 0
250 254 0
251 254 0
252 254 0
220 244 0
220 244 0
220 244 0
220 243 0
219 243 0
219 243 0
219 243 0
218 243 0
217 243 0
217 243 0
216 243 0
215 243 0
214 242 0
213 242 0
212 242 0
211 242 0
210 242 0
209 242 0
208 242 0
207 242 0
206 242 0
206 242 0
205 242 0
205 242 0
205 242 0
205 242 0
205 242 0
205 242 0
206 243 0
207 243 0
209 244 0
210 244 0
212 245 0
214 245 0
217 246 0
219 246 0
222 247 0
225 248 0
228 249 0
231 249 0
234 250 0
238 251 0
240 251 0
243 252 0
246 253 0
248 253 0
250 254 0
251 254 0
252 254 0
252 254 0
220 244 0
220 244 0
220 243 0
220 243 0
219 243 0
219 243 0
219 243 0
218 243 0
218 243 0
217 243 0
216 243 0
215 243 0
214 242 0
213 242 0
213 242 0
212 242 0
211 242 0
210 242 0
209 242 0
208 242 0
207 242 0
206 242 0
206 242 0
205 242 0
205 242 0
205 242 0
205 242 0
206 242 0
207 243 0
208 243 0
209 244 0
211 244 0
213 245 0
215 245 0
217 246 0
220 247 0
223 247 0
226 248 0
229 249 0
232 249 0
235 250 0
238 251 0
241 252 0
244 252 0
246 253 0
248 253 0
250 254 0
251 254 0
252 254 0
253 254 0
220 244 0
220 244 0
220 243 0
220 243 0
220 243 0
219 243 0
219 243 0
218 243 0
218 243 0
217 243 0
216 243 0
215 243 0
215 242 0
214 242 0
213 242 0
212 242 0
211 242 0
210 242 0
209 242 0
208 242 0
207 242 0
207 242 0
206 242 0
206 242 0
206 242 0
206 242 0
206 242 0
206 243 0
207 243 0
208 243 0
210 244 0
211 244 0
213 245 0
216 245 0
218 246 0
221 247 0
223 247 0
226 248 0
229 249 0
233 250 0
236 250 0
239 251 0
242 252 0
244 252 0
247 253 0
249 253 0
251 254 0
252 254 0
253 254 0
253 254 0
220 244 0
220 244 0
220 243 0
220 243 0
220 243 0
219 243 0
219 243 0
218 243 0
218 243 0
217 243 0
216 243 0
216 243 0
215 242 0
214 242 0
213 242 0
212 242 0
211 242 0
210 242 0
209 242 0
208 242 0
208 242 0
207 242 0
207 242 0
206 242 0
206 242 0
206 242 0
207 242 0
207 243 0
208 243 0
209 243 0
210 244 0
212 244 0
214 245 0
216 245 0
219 246 0
221 247 0
224 247 0
227 248 0
230 249 0
233 250 0
236 250 0
239 251 0
242 252 0
245 252 0
247 253 0
249 253 0
251 254 0
252 254 0
253 254 0
254 254 0
220 243 0
220 243 0
220 243 0
220 243 0
220 243 0
219 243 0
219 243 0
218 243 0
218 243 0
217 243 0
216 243 0
216 243 0
215 242 0
214 242 0
213 242 0
212 242 0
211 242 0
210 242 0
210 242 0
209 242 0
208 242 0
208 242 0
207 242 0
207 242 0
207 242 0
207 242 0
207 242 0
208 243 0
209 243 0
210 243 0
211 244 0
213 244 0
215 245 0
217 245 0
219 246 0
222 247 0
225 247 0
228 248 0
231 249 0
234 250 0
237 250 0
240 251 0
243 252 0
245 252 0
248 253 0
250 253 0
251 254 0
253 254 0
254 254 0
254 255 0
220 243 0
220 243 0
220 243 0
220 243 0
219 243 0
219 243 0
219 243 0
218 243 0
218 243 0
217 243 0
216 243 0
216 243 0
215 242 0
214 242 0
213 242 0
212 242 0
212 242 0
211 242 0
210 242 0
209 242 0
209 242 0
208 242 0
208 242 0
207 242 0
207 242 0
208 242 0
208 242 0
209 243 0
209 243 0
210 243 0
212 244 0
214 244 0
215 245 0
218 246 0
220 246 0
223 247 0
225 247 0
228 248 0
231 249 0
234 250 0
237 250 0
240 251 0
243 252 0
246 252 0
248 253 0
250 253 0
252 254 0
253 254 0
254 254 0
254 254 0
220 243 0
220 243 0
220 243 0
220 243 0
219 243 0
219 243 0
219 243 0
218 243 0
218 243 0
217 243 0
216 243 0
216 243 0
215 242 0
214 242 0
213 242 0
213 242 0
212 242 0
211 242 0
210 242 0
210 242 0
209 242 0
209 242 0
208 242 0
208 242 0
208 242 0
208 242 0
209 243 0
209 243 0
210 243 0
211 244 0
213 244 0
214 244 0
216 245 0
218 246 0
221 246 0
223 247 0
226 247 0
229 248 0
232 249 0
235 250 0
237 250 0
240 251 0
243 252 0
246 252 0
248 253 0
250 253 0
252 254 0
253 254 0
254 254 0
255 254 0
220 243 0
220 243 0
220 243 0
219 243 0
219 243 0
219 243 0
218 243 0
218 243 0
217 243 0
217 243 0
216 243 0
216 243 0
215 242 0
214 242 0
213 242 0
213 242 0
212 242 0
211 242 0
211 242 0
210 242 0
209 242 0
209 242 0
209 242 0
209 242 0
209 242 0
209 242 0
209 243 0
210 243 0
211 243 0
212 244 0
213 244 0
215 244 0
217 245 0
219 246 0
221 246 0
224 247 0
226 247 0
229 248 0
232 249 0
235 250 0
238 250 0
241 251 0
243 252 0
246 252 0
248 253 0
250 253 0
252 254 0
253 254 0
254 254 0
254 254 0
219 243 0
219 243 0
219 243 0
219 243 0
219 243 0
218 243 0
218 243 0
218 243 0
217 243 0
217 243 0
216 243 0
215 243 0
215 242 0
214 242 0
213 242 0
213 242 0
212 242 0
211 242 0
211 242 0
210 242 0
210 242 0
209 242 0
209 242 0
209 242 0
209 242 0
209 242 0
210 243 0
211 243 0
212 243 0
213 244 0
214 244 0
216 244 0
217 245 0
219 246 0
222 246 0
224 247 0
227 247 0
229 248 0
232 249 0
235 249 0
238 250 0
240 251 0
243 251 0
246 252 0
248 253 0
250 253 0
251 253 0
253 254 0
253 254 0
254 254 0
219 243 0
219 243 0
219 243 0
219 243 0
218 243 0
218 243 0
218 243 0
217 243 0
217 243 0
216 243 0
216 243 0
215 242 0
215 242 0
214 242 0
213 242 0
213 242 0
212 242 0
212 242 0
211 242 0
211 242 0
210 242 0
210 242 0
210 242 0
210 242 0
210 242 0
210 242 0
211 243 0
211 243 0
212 243 0
213 244 0
215 244 0
216 244 0
218 245 0
220 245 0
222 246 0
224 247 0
227 247 0
230 248 0
232 249 0
235 249 0
238 250 0
240 251 0
243 251 0
245 252 0
247 252 0
249 253 0
251 253 0
252 253 0
253 254 0
253 254 0
218 243 0
218 243 0
218 243 0
218 243 0
218 243 0
218 243 0
217 243 0
217 243 0
216 243 0
216 243 0
215 243 0
215 242 0
214 242 0
214 242 0
213 242 0
213 242 0
212 242 0
212 242 0
211 242 0
211 242 0
210 242 0
210 242 0
210 242 0
210 242 0
210 242 0
211 242 0
211 243 0
212 243 0
213 243 0
214 244 0
215 244 0
217 244 0
218 245 0
220 245 0
222 246 0
225 247 0
227 247 0
230 248 0
232 248 0
235 249 0
237 250 0
240 250 0
242 251 0
244 252 0
246 252 0
248 252 0
250 253 0
251 253 0
252 253 0
252 253 0
218 243 0
218 243 0
218 243 0
217 243 0
217 243 0
217 243 0
217 243 0
216 243 0
216 243 0
216 243 0
215 243 0
215 242 0
214 242 0
214 242 0
213 242 0
213 242 0
212 242 0
212 242 0
211 242 0
211 242 0
211 242 0
211 242 0
210 242 0
211 242 0
211 242 0
211 242 0
212 243 0
212 243 0
213 243 0
214 243 0
216 244 0
217 244 0
219 245 0
221 245 0
223 246 0
225 246 0
227 247 0
229 248 0
232 248 0
234 249 0
237 249 0
239 250 0
241 251 0
244 251 0
245 252 0
247 252 0
249 252 0
250 253 0
250 253 0
251 253 0
217 243 0
217 243 0
217 243 0
217 243 0
217 243 0
216 243 0
216 243 0
216 243 0
215 243 0
215 243 0
215 242 0
214 242 0
214 242 0
213 242 0
213 242 0
212 242 0
212 242 0
212 242 0
211 242 0
211 242 0
211 242 0
211 242 0
211 242 0
211 242 0
211 242 0
212 242 0
212 243 0
213 243 0
214 243 0
215 243 0
216 244 0
217 244 0
219 245 0
221 245 0
223 246 0
225 246 0
227 247 0
229 247 0
231 248 0
234 249 0
236 249 0
238 250 0
240 250 0
242 251 0
244 251 0
246 252 0
247 252 0
248 252 0
249 252 0
249 253 0
216 243 0
216 243 0
216 243 0
216 243 0
216 243 0
216 243 0
215 243 0
215 243 0
215 243 0
215 242 0
214 242 0
214 242 0
213 242 0
213 242 0
213 242 0
212 242 0
212 242 0
212 242 0
211 242 0
211 242 0
211 242 0
211 242 0
211 242 0
211 242 0
212 242 0
212 242 0
213 242 0
213 243 0
214 243 0
215 243 0
216 244 0
218 244 0
219 245 0
221 245 0
223 245 0
224 246 0
226 247 0
229 247 0
231 248 0
233 248 0
235 249 0
237 249 0
239 250 0
241 250 0
243 251 0
244 251 0
245 252 0
246 252 0
247 252 0
247 252 0
216 243 0
216 243 0
216 243 0
215 243 0
215 243 0
215 243 0
215 243 0
215 243 0
214 243 0
214 242 0
214 242 0
213 242 0
213 242 0
213 242 0
212 242 0
212 242 0
212 242 0
211 242 0
211 242 0
211 242 0
211 242 0
211 242 0
211 242 0
211 242 0
212 242 0
212 242 0
213 242 0
214 243 0
214 243 0
215 243 0
216 244 0
218 244 0
219 244 0
221 245 0
222 245 0
224 246 0
226 246 0
228 247 0
230 247 0
232 248 0
234 248 0
236 249 0
237 249 0
239 250 0
241 250 0
242 251 0
243 251 0
244 251 0
245 251 0
245 251 0
215 243 0
215 243 0
215 243 0
215 243 0
215 243 0
214 243 0
214 243 0
214 243 0
214 242 0
213 242 0
213 242 0
213 242 0
212 242 0
212 242 0
212 242 0
212 242 0
211 242 0
211 242 0
211 242 0
211 242 0
211 242 0
211 242 0
211 242 0
212 242 0
212 242 0
212 242 0
213 242 0
214 243 0
214 243 0
215 243 0
216 243 0
218 244 0
219 244 0
220 245 0
222 245 0
223 245 0
225 246 0
227 246 0
229 247 0
230 247 0
232 248 0
234 248 0
236 249 0
237 249 0
239 250 0
240 250 0
241 250 0
242 251 0
242 251 0
242 251 0
214 243 0
214 243 0
214 243 0
214 243 0
214 243 0
214 243 0
214 243 0
213 242 0
213 242 0
213 242 0
213 242 0
212 242 0
212 242 0
212 242 0
212 242 0
211 242 0
211 242 0
211 242 0
211 242 0
211 242 0
211 242 0
211 242 0
211 242 0
212 242 0
212 242 0
213 242 0
213 242 0
214 242 0
215 243 0
215 243 0
216 243 0
217 244 0
219 244 0
220 244 0
221 245 0
223 245 0
224 246 0
226 246 0
227 247 0
229 247 0
231 248 0
232 248 0
234 248 0
235 249 0
236 249 0
237 249 0
238 250 0
239 250 0
240 250 0
240 250 0
214 243 0
214 243 0
214 243 0
213 243 0
213 243 0
213 243 0
213 242 0
213 242 0
213 242 0
212 242 0
212 242 0
212 242 0
212 242 0
211 242 0
211 242 0
211 242 0
211 242 0
211 242 0
211 242 0
211 242 0
211 242 0
211 242 0
211 242 0
212 242 0
212 242 0
213 242 0
213 242 0
214 242 0
214 243 0
215 243 0
216 243 0
217 243 0
218 244 0
219 244 0
221 245 0
222 245 0
223 245 0
225 246 0
226 246 0
227 247 0
229 247 0
230 248 0
232 248 0
233 248 0
234 249 0
235 249 0
236 249 0
236 249 0
237 249 0
237 249 0
213 243 0
213 243 0
213 243 0
213 243 0
213 242 0
213 242 0
212 242 0
212 242 0
212 242 0
212 242 0
212 242 0
211 242 0
211 242 0
211 242 0
211 242 0
211 242 0
211 242 0
211 241 0
211 241 0
211 241 0
211 241 0
211 241 0
211 242 0
212 242 0
212 242 0
212 242 0
213 242 0
214 242 0
214 242 0
215 243 0
216 243 0
217 243 0
218 244 0
219 244 0
220 244 0
221 245 0
222 245 0
223 245 0
224 246 0
226 246 0
227 247 0
228 247 0
229 247 0
230 248 0
231 248 0
232 248 0
233 248 0
233 249 0
234 249 0
234 249 0
212 243 0
212 242 0
212 242 0
212 242 0
212 242 0
212 242 0
212 242 0
212 242 0
212 242 0
211 242 0
211 242 0
211 242 0
211 242 0
211 242 0
211 242 0
210 242 0
210 241 0
210 241 0
210 241 0
211 241 0
211 241 0
211 241 0
211 241 0
211 242 0
212 242 0
212 242 0
213 242 0
213 242 0
214 242 0
215 242 0
215 243 0
216 243 0
217 243 0
218 244 0
219 244 0
220 244 0
221 245 0
222 245 0
223 245 0
224 246 0
225 246 0
226 246 0
227 247 0
228 247 0
229 247 0
229 248 0
230 248 0
230 248 0
231 248 0
231 248 0
212 242 0
212 242 0
212 242 0
212 242 0
212 242 0
212 242 0
211 242 0
211 242 0
211 242 0
211 242 0
211 242 0
211 242 0
210 242 0
210 242 0
210 242 0
210 241 0
210 241 0
210 241 0
210 241 0
210 241 0
211 241 0
211 241 0
211 241 0
211 241 0
212 242 0
212 242 0
213 242 0
213 242 0
214 242 0
214 242 0
215 243 0
215 243 0
216 243 0
217 243 0
218 244 0
218 244 0
219 244 0
220 245 0
221 245 0
222 245 0
223 246 0
224 246 0
224 246 0
225 247 0
226 247 0
227 247 0
227 247 0
227 247 0
228 247 0
228 247 0
212 242 0
212 242 0
212 242 0
212 242 0
211 242 0
211 242 0
211 242 0
211 242 0
211 242 0
211 242 0
210 242 0
210 242 0
210 242 0
210 242 0
210 241 0
210 241 0
210 241 0
210 241 0
210 241 0
210 241 0
210 241 0
211 241 0
211 241 0
211 241 0
212 241 0
212 242 0
212 242 0
213 242 0
213 242 0
214 242 0
214 242 0
215 243 0
215 243 0
216 243 0
217 243 0
217 244 0
218 244 0
219 244 0
219 245 0
220 245 0
221 245 0
221 245 0
222 246 0
223 246 0
223 246 0
224 246 0
224 247 0
224 247 0
225 247 0
225 247 0
211 242 0
211 242 0
211 242 0
211 242 0
211 242 0
211 242 0
211 242 0
211 242 0
211 242 0
210 242 0
210 242 0
210 242 0
210 242 0
210 241 0
210 241 0
210 241 0
210 241 0
210 241 0
210 241 0
210 241 0
210 241 0
210 241 0
211 241 0
211 241 0
211 241 0
212 241 0
212 242 0
212 242 0
213 242 0
213 242 0
214 242 0
214 242 0
214 243 0
215 243 0
215 243 0
216 243 0
216 244 0
217 244 0
217 244 0
218 245 0
219 245 0
219 245 0
220 245 0
220 245 0
221 246 0
221 246 0
221 246 0
222 246 0
222 246 0
222 246 0
211 242 0
211 242 0
211 242 0
211 242 0
211 242 0
211 242 0
211 242 0
211 242 0
210 242 0
210 242 0
210 242 0
210 242 0
210 241 0
210 241 0
210 241 0
210 241 0
210 241 0
210 241 0
210 241 0
210 241 0
210 241 0
210 241 0
210 241 0
211 241 0
211 241 0
211 241 0
212 241 0
212 242 0
212 242 0
212 242 0
213 242 0
213 242 0
213 242 0
214 243 0
214 243 0
214 243 0
215 243 0
215 244 0
216 244 0
216 244 0
216 244 0
217 245 0
217 245 0
218 245 0
218 245 0
218 245 0
219 245 0
219 245 0
219 245 0
219 245 0
211 242 0
211 242 0
211 242 0
211 242 0
211 242 0
211 242 0
211 242 0
211 242 0
210 242 0
210 242 0
210 242 0
210 242 0
210 241 0
210 241 0
210 241 0
210 241 0
210 241 0
210 241 0
210 241 0
210 241 0
210 241 0
210 241 0
210 241 0
211 241 0
211 241 0
211 241 0
211 241 0
211 241 0
212 242 0
212 242 0
212 242 0
212 242 0
212 242 0
213 242 0
213 243 0
213 243 0
213 243 0
214 243 0
214 244 0
214 244 0
214 244 0
215 244 0
215 244 0
215 244 0
216 245 0
216 245 0
216 245 0
216 245 0
216 245 0
216 245 0
211 242 0
211 242 0
211 242 0
211 242 0
211 242 0
211 242 0
211 242 0
211 242 0
210 242 0
210 242 0
210 242 0
210 242 0
210 241 0
210 241 0
210 241 0
210 241 0
210 241 0
210 241 0
210 241 0
210 241 0
210 241 0
210 241 0
210 241 0
210 241 0
210 241 0
211 241 0
211 241 0
211 241 0
211 241 0
211 242 0
211 242 0
211 242 0
212 242 0
212 242 0
212 242 0
212 243 0
212 243 0
212 243 0
212 243 0
212 243 0
212 243 0
213 244 0
213 244 0
213 244 0
213 244 0
213 244 0
214 244 0
214 244 0
214 244 0
214 244 0
211 242 0
211 242 0
211 242 0
211 242 0
211 242 0
211 242 0
211 242 0
211 242 0
211 242 0
210 242 0
210 242 0
210 242 0
210 241 0
210 241 0
210 241 0
210 241 0
210 241 0
210 241 0
210 241 0
210 241 0
210 241 0
210 241 0
210 241 0
210 241 0
210 241 0
210 241 0
210 241 0
211 241 0
211 241 0
211 241 0
211 242 0
211 242 0
211 242 0
211 242 0
211 242 0
211 242 0
211 243 0
211 243 0
211 243 0
211 243 0
211 243 0
211 243 0
211 243 0
211 243 0
211 244 0
211 244 0
211 244 0
211 244 0
211 244 0
211 244 0
212 242 0
211 242 0
211 242 0
211 242 0
211 242 0
211 242 0
211 242 0
211 242 0
211 242 0
211 242 0
211 242 0
210 242 0
210 241 0
210 241 0
210 241 0
210 241 0
210 241 0
210 241 0
210 241 0
210 241 0
210 241 0
210 241 0
210 241 0
210 241 0
210 241 0
210 241 0
210 241 0
210 241 0
210 241 0
210 241 0
210 241 0
210 242 0
210 242 0
210 242 0
210 242 0
209 242 0
209 242 0
209 242 0
209 243 0
209 243 0
209 243 0
209 243 0
209 243 0
209 243 0
209 243 0
209 243 0
209 243 0
209 243 0
209 243 0
209 243 0
212 242 0
212 242 0
212 242 0
212 242 0
212 242 0
211 242 0
211 242 0
211 242 0
211 242 0
211 242 0
211 242 0
211 242 0
211 241 0
210 241 0
210 241 0
210 241 0
210 241 0
210 241 0
210 241 0
210 241 0
210 241 0
210 241 0
210 241 0
210 241 0
210 241 0
210 241 0
210 241 0
210 241 0
210 241 0
210 241 0
209 241 0
209 241 0
209 242 0
209 242 0
209 242 0
208 242 0
208 242 0
208 242 0
208 242 0
208 242 0
208 242 0
208 242 0
207 243 0
207 243 0
207 243 0
207 243 0
207 243 0
207 243 0
207 243 0
207 243 0
212 242 0
212 242 0
212 242 0
212 242 0
212 242 0
212 242 0
212 242 0
212 242 0
211 242 0
211 242 0
211 242 0
211 242 0
211 241 0
211 241 0
211 241 0
211 241 0
210 241 0
210 241 0
210 241 0
210 241 0
210 241 0
210 241 0
210 241 0
210 241 0
210 241 0
210 241 0
210 241 0
210 241 0
209 241 0
209 241 0
209 241 0
209 241 0
208 241 0
208 242 0
208 242 0
207 242 0
207 242 0
207 242 0
207 242 0
206 242 0
206 242 0
206 242 0
206 242 0
206 242 0
206 242 0
206 242 0
206 242 0
206 242 0
206 242 0
206 242 0
212 242 0
212 242 0
212 242 0
212 242 0
212 242 0
212 242 0
212 242 0
212 242 0
212 242 0
212 242 0
212 242 0
211 242 0
211 242 0
211 241 0
211 241 0
211 241 0
211 241 0
211 241 0
211 241 0
211 241 0
210 241 0
210 241 0
210 241 0
210 241 0
210 241 0
210 241 0
210 241 0
209 241 0
209 241 0
209 241 0
208 241 0
208 241 0
208 241 0
207 241 0
207 241 0
207 242 0
206 242 0
206 242 0
206 242 0
205 242 0
205 242 0
205 242 0
205 242 0
205 242 0
205 242 0
205 242 0
205 242 0
204 242 0
204 242 0
204 242 0
213 242 0
213 242 0
213 242 0
213 242 0
213 242 0
213 242 0
213 242 0
212 242 0
212 242 0
212 242 0
212 242 0
212 242 0
212 242 0
212 242 0
212 241 0
211 241 0
211 241 0
211 241 0
211 241 0
211 241 0
211 241 0
211 241 0
210 241 0
210 241 0
210 241 0
210 241 0
209 241 0
209 241 0
209 241 0
208 241 0
208 241 0
208 241 0
207 241 0
207 241 0
206 241 0
206 241 0
206 241 0
205 241 0
205 241 0
205 242 0
204 242 0
204 242 0
204 242 0
204 242 0
204 242 0
203 242 0
203 242 0
203 242 0
203 242 0
203 242 0
213 242 0
213 242 0
213 242 0
213 242 0
213 242 0
213 242 0
213 242 0
213 242 0
213 242 0
213 242 0
213 242 0
212 242 0
212 242 0
212 242 0
212 241 0
212 241 0
212 241 0
212 241 0
211 241 0
211 241 0
211 241 0
211 241 0
211 241 0
210 241 0
210 241 0
210 241 0
209 241 0
209 241 0
209 241 0
208 241 0
208 241 0
207 241 0
207 241 0
206 241 0
206 241 0
205 241 0
205 241 0
205 241 0
204 241 0
204 241 0
204 241 0
203 241 0
203 241 0
203 241 0
203 241 0
203 241 0
202 241 0
202 241 0
202 241 0
202 241 0
214 242 0
214 242 0
214 242 0
214 242 0
213 242 0
213 242 0
213 242 0
213 242 0
213 242 0
213 242 0
213 242 0
213 242 0
213 242 0
213 242 0
213 242 0
212 241 0
212 241 0
212 241 0
212 241 0
212 241 0
212 241 0
211 241 0
211 241 0
211 241 0
210 241 0
210 241 0
210 241 0
209 241 0
209 241 0
208 241 0
208 241 0
207 241 0
207 241 0
206 241 0
206 241 0
205 241 0
205 241 0
204 241 0
204 241 0
203 241 0
203 241 0
203 241 0
202 241 0
202 241 0
202 241 0
202 241 0
202 241 0
202 241 0
202 241 0
202 241 0
214 242 0
214 242 0
214 242 0
214 242 0
214 242 0
214 242 0
214 242 0
214 242 0
214 242 0
214 242 0
214 242 0
214 242 0
213 242 0
213 242 0
213 242 0
213 242 0
213 241 0
213 241 0
212 241 0
212 241 0
212 241 0
212 241 0
211 241 0
211 241 0
211 241 0
210 241 0
210 241 0
209 241 0
209 241 0
208 241 0
208 241 0
207 241 0
206 241 0
206 241 0
205 241 0
205 241 0
204 241 0
204 241 0
203 241 0
203 241 0
203 241 0
202 241 0
202 241 0
202 241 0
202 241 0
201 241 0
201 241 0
201 241 0
201 241 0
201 241 0
214 242 0
214 242 0
214 242 0
214 242 0
214 242 0
214 242 0
214 242 0
214 242 0
214 242 0
214 242 0
214 242 0
214 242 0
214 242 0
214 242 0
214 242 0
214 242 0
213 242 0
213 241 0
213 241 0
213 241 0
212 241 0
212 241 0
212 241 0
211 241 0
211 241 0
210 241 0
210 241 0
209 241 0
209 241 0
208 241 0
208 241 0
207 241 0
206 241 0
206 241 0
205 241 0
205 241 0
204 241 0
204 241 0
203 241 0
203 241 0
202 241 0
202 241 0
202 241 0
201 241 0
201 241 0
201 241 0
201 241 0
201 241 0
201 241 0
201 241 0
215 242 0
215 242 0
215 242 0
215 242 0
215 242 0
215 242 0
215 242 0
215 242 0
215 242 0
215 242 0
215 242 0
215 242 0
215 242 0
215 242 0
214 242 0
214 242 0
214 242 0
214 242 0
214 241 0
213 241 0
213 241 0
213 241 0
212 241 0
212 241 0
211 241 0
211 241 0
210 241 0
210 241 0
209 241 0
208 241 0
208 241 0
207 241 0
206 241 0
206 241 0
205 241 0
205 241 0
204 241 0
203 241 0
203 241 0
203 241 0
202 241 0
202 241 0
201 241 0
201 240 0
201 240 0
201 240 0
201 240 0
201 240 0
201 240 0
201 240 0
215 242 0
215 242 0
215 242 0
215 242 0
215 242 0
215 242 0
215 242 0
215 242 0
215 242 0
215 242 0
215 242 0
215 242 0
215 242 0
215 242 0
215 242 0
215 242 0
215 242 0
214 242 0
214 241 0
214 241 0
213 241 0
213 241 0
213 241 0
212 241 0
212 241 0
211 241 0
210 241 0
210 241 0
209 241 0
209 241 0
208 241 0
207 241 0
207 241 0
206 241 0
205 241 0
205 241 0
204 241 0
203 241 0
203 241 0
202 240 0
202 240 0
202 240 0
201 240 0
201 240 0
201 240 0
201 240 0
201 240 0
201 240 0
200 240 0
200 240 0
215 243 0
215 243 0
215 243 0
215 243 0
215 242 0
215 242 0
216 242 0
216 242 0
216 242 0
216 242 0
216 242 0
216 242 0
216 242 0
216 242 0
216 242 0
215 242 0
215 242 0
215 242 0
215 242 0
214 241 0
214 241 0
214 241 0
213 241 0
213 241 0
212 241 0
211 241 0
211 241 0
210 241 0
209 241 0
209 241 0
208 241 0
207 241 0
207 241 0
206 241 0
205 241 0
205 241 0
204 240 0
203 240 0
203 240 0
202 240 0
202 240 0
202 240 0
201 240 0
201 240 0
201 240 0
201 240 0
201 240 0
201 240 0
200 240 0
200 240 0
215 243 0
215 243 0
215 243 0
216 243 0
216 243 0
216 243 0
216 242 0
216 242 0
216 242 0
216 242 0
216 242 0
216 242 0
216 242 0
216 242 0
216 242 0
216 242 0
216 242 0
216 242 0
215 242 0
215 241 0
214 241 0
214 241 0
214 241 0
213 241 0
212 241 0
212 241 0
211 241 0
210 241 0
210 241 0
209 241 0
208 241 0
208 241 0
207 241 0
206 241 0
205 241 0
205 240 0
204 240 0
204 240 0
203 240 0
203 240 0
202 240 0
202 240 0
201 240 0
201 240 0
201 240 0
201 240 0
201 240 0
201 240 0
201 240 0
200 240 0
216 243 0
216 243 0
216 243 0
216 243 0
216 243 0
216 243 0
216 243 0
216 242 0
216 242 0
217 242 0
217 242 0
217 242 0
217 242 0
217 242 0
217 242 0
216 242 0
216 242 0
216 242 0
216 242 0
215 242 0
215 241 0
214 241 0
214 241 0
213 241 0
213 241 0
212 241 0
211 241 0
211 241 0
210 241 0
209 241 0
208 241 0
208 241 0
207 241 0
206 241 0
206 240 0
205 240 0
204 240 0
204 240 0
203 240 0
203 240 0
202 240 0
202 240 0
202 240 0
201 240 0
201 240 0
201 240 0
201 240 0
201 240 0
201 240 0
201 240 0
216 243 0
216 243 0
216 243 0
216 243 0
216 243 0
216 243 0
216 243 0
217 243 0
217 242 0
217 242 0
217 242 0
217 242 0
217 242 0
217 242 0
217 242 0
217 242 0
217 242 0
216 242 0
216 242 0
216 242 0
215 241 0
215 241 0
214 241 0
214 241 0
213 241 0
212 241 0
212 241 0
211 241 0
210 241 0
209 241 0
209 241 0
208 241 0
207 241 0
206 240 0
206 240 0
205 240 0
204 240 0
204 240 0
203 240 0
203 240 0
202 240 0
202 240 0
202 240 0
201 240 0
201 240 0
201 240 0
201 240 0
201 240 0
201 240 0
201 240 0
216 243 0
216 243 0
216 243 0
216 243 0
216 243 0
216 243 0
217 243 0
217 243 0
217 242 0
217 242 0
217 242 0
217 242 0
217 242 0
217 242 0
217 242 0
217 242 0
217 242 0
217 242 0
216 242 0
216 242 0
216 241 0
215 241 0
215 241 0
214 241 0
213 241 0
213 241 0
212 241 0
211 241 0
210 241 0
210 241 0
209 241 0
208 241 0
207 240 0
206 240 0
206 240 0
205 240 0
204 240 0
204 240 0
203 240 0
203 240 0
202 240 0
202 240 0
202 240 0
202 240 0
201 240 0
201 240 0
201 240 0
201 240 0
201 240 0
201 240 0
216 243 0
216 243 0
216 243 0
216 243 0
216 243 0
216 243 0
217 243 0
217 243 0
217 243 0
217 242 0
217 242 0
217 242 0
217 242 0
217 242 0
217 242 0
217 242 0
217 242 0
217 242 0
217 242 0
216 242 0
216 241 0
215 241 0
215 241 0
214 241 0
213 241 0
213 241 0
212 241 0
211 241 0
210 241 0
210 241 0
209 241 0
208 241 0
207 240 0
207 240 0
206 240 0
205 240 0
205 240 0
204 240 0
203 240 0
203 240 0
203 240 0
202 240 0
202 240 0
202 240 0
201 240 0
201 240 0
201 240 0
201 240 0
201 240 0
201 240 0
216 243 0
216 243 0
216 243 0
216 243 0
216 243 0
217 243 0
217 243 0
217 243 0
217 243 0
217 242 0
217 242 0
217 242 0
218 242 0
218 242 0
218 242 0
217 242 0
217 242 0
217 242 0
217 242 0
216 242 0
216 241 0
215 241 0
215 241 0
214 241 0
213 241 0
213 241 0
212 241 0
211 241 0
211 241 0
210 241 0
209 241 0
208 241 0
207 240 0
207 240 0
206 240 0
205 240 0
205 240 0
204 240 0
203 240 0
203 240 0
203 240 0
202 240 0
202 240 0
202 240 0
201 240 0
201 240 0
201 240 0
201 240 0
201 240 0
201 240 0
