P3
50 50
255
223 253 0
223 253 0
224 253 0
224 253 0
224 253 0
225 253 0
225 253 0
226 252 0
227 252 0
228 252 0
229 252 0
231 252 0
232 251 0
234 251 0
235 251 0
237 250 0
239 250 0
241 249 0
243 249 0
245 249 0
247 248 0
248 248 0
250 247 0
251 247 0
251 247 0
252 246 0
251 246 0
251 246 0
250 247 0
248 247 0
246 247 0
243 248 0
240 248 0
236 249 0
232 250 0
228 251 0
224 251 0
219 252 0
214 253 0
210 253 0
205 253 0
201 254 0
197 254 0
193 254 0
190 254 0
188 254 0
185 254 0
184 254 0
182 254 0
182 254 0
223 253 0
223 253 0
223 253 0
224 253 0
224 253 0
225 253 0
225 253 0
226 252 0
227 252 0
228 252 0
229 252 0
231 252 0
232 251 0
234 251 0
235 251 0
237 250 0
239 250 0
241 250 0
243 249 0
245 249 0
247 248 0
248 248 0
249 247 0
250 247 0
251 247 0
251 246 0
251 246 0
251 246 0
249 247 0
248 247 0
246 247 0
243 248 0
240 249 0
236 249 0
232 250 0
228 251 0
223 251 0
219 252 0
214 253 0
210 253 0
205 253 0
201 254 0
197 254 0
193 254 0
190 254 0
187 254 0
185 254 0
183 254 0
182 254 0
182 254 0
223 253 0
223 253 0
223 253 0
224 253 0
224 253 0
225 253 0
225 253 0
226 252 0
227 252 0
228 252 0
229 252 0
230 252 0
232 251 0
233 251 0
235 251 0
237 250 0
239 250 0
241 250 0
243 249 0
245 249 0
246 248 0
248 248 0
249 247 0
250 247 0
251 247 0
251 247 0
251 246 0
250 247 0
249 247 0
247 247 0
245 247 0
242 248 0
239 249 0
236 249 0
232 250 0
227 251 0
223 251 0
218 252 0
214 253 0
209 253 0
205 253 0
200 254 0
197 254 0
193 254 0
190 254 0
187 254 0
185 254 0
183 254 0
182 254 0
181 254 0
223 253 0
223 253 0
223 253 0
223 253 0
224 253 0
224 253 0
225 253 0
226 253 0
227 252 0
228 252 0
229 252 0
230 252 0
232 252 0
233 251 0
235 251 0
237 251 0
239 250 0
240 250 0
242 249 0
244 249 0
246 248 0
247 248 0
249 247 0
250 247 0
250 247 0
251 247 0
250 247 0
250 247 0
249 247 0
247 247 0
245 248 0
242 248 0
239 249 0
235 249 0
231 250 0
227 251 0
222 251 0
218 252 0
213 253 0
209 253 0
204 253 0
200 254 0
196 254 0
192 254 0
189 254 0
186 254 0
184 254 0
182 254 0
181 254 0
181 254 0
223 253 0
223 253 0
223 253 0
223 253 0
224 253 0
224 253 0
225 253 0
225 253 0
226 252 0
227 252 0
229 252 0
230 252 0
231 252 0
233 251 0
235 251 0
236 251 0
238 250 0
240 250 0
242 249 0
244 249 0
245 248 0
247 248 0
248 248 0
249 247 0
250 247 0
250 247 0
250 247 0
249 247 0
248 247 0
246 247 0
244 248 0
241 248 0
238 249 0
234 250 0
230 250 0
226 251 0
222 252 0
217 252 0
213 253 0
208 253 0
204 253 0
199 254 0
195 254 0
192 254 0
189 254 0
186 254 0
184 254 0
182 254 0
181 254 0
180 254 0
222 253 0
222 253 0
223 253 0
223 253 0
223 253 0
224 253 0
224 253 0
225 253 0
226 253 0
227 252 0
228 252 0
230 252 0
231 252 0
233 251 0
234 251 0
236 251 0
238 250 0
240 250 0
241 249 0
243 249 0
245 249 0
246 248 0
247 248 0
248 247 0
249 247 0
249 247 0
249 247 0
248 247 0
247 247 0
245 248 0
243 248 0
240 248 0
237 249 0
234 250 0
230 250 0
225 251 0
221 252 0
216 252 0
212 253 0
207 253 0
203 254 0
199 254 0
195 254 0
191 254 0
188 254 0
185 254 0
183 254 0
181 254 0
180 254 0
179 254 0
222 253 0
222 253 0
222 253 0
223 253 0
223 253 0
223 253 0
224 253 0
225 253 0
226 253 0
227 252 0
228 252 0
229 252 0
231 252 0
232 251 0
234 251 0
235 251 0
237 250 0
239 250 0
241 250 0
242 249 0
244 249 0
245 248 0
247 248 0
248 248 0
248 247 0
248 247 0
248 247 0
247 247 0
246 247 0
244 248 0
242 248 0
239 249 0
236 249 0
233 250 0
229 251 0
224 251 0
220 252 0
215 252 0
211 253 0
206 253 0
202 254 0
198 254 0
194 254 0
190 254 0
187 254 0
184 254 0
182 254 0
180 254 0
179 254 0
179 254 0
222 253 0
222 253 0
222 253 0
222 253 0
223 253 0
223 253 0
224 253 0
225 253 0
225 253 0
226 253 0
228 252 0
229 252 0
230 252 0
232 252 0
233 251 0
235 251 0
237 251 0
238 250 0
240 250 0
242 249 0
243 249 0
245 249 0
246 248 0
247 248 0
247 248 0
247 248 0
247 248 0
246 248 0
245 248 0
243 248 0
241 248 0
238 249 0
235 250 0
231 250 0
228 251 0
223 251 0
219 252 0
214 253 0
210 253 0
205 253 0
201 254 0
197 254 0
193 254 0
189 254 0
186 254 0
183 254 0
181 254 0
179 254 0
178 254 0
178 254 0
222 253 0
222 253 0
222 253 0
222 253 0
222 253 0
223 253 0
224 253 0
224 253 0
225 253 0
226 253 0
227 252 0
229 252 0
230 252 0
231 252 0
233 251 0
235 251 0
236 251 0
238 250 0
240 250 0
241 249 0
243 249 0
244 249 0
245 248 0
246 248 0
246 248 0
246 248 0
246 248 0
245 248 0
244 248 0
242 248 0
240 249 0
237 249 0
234 250 0
230 250 0
226 251 0
222 252 0
218 252 0
213 253 0
209 253 0
204 253 0
200 254 0
196 254 0
192 254 0
188 254 0
185 254 0
183 254 0
180 254 0
179 254 0
178 254 0
177 254 0
221 253 0
222 253 0
222 253 0
222 253 0
222 253 0
223 253 0
224 253 0
224 253 0
225 253 0
226 253 0
227 252 0
228 252 0
230 252 0
231 252 0
233 251 0
234 251 0
236 251 0
237 250 0
239 250 0
240 250 0
242 249 0
243 249 0
244 249 0
245 248 0
245 248 0
245 248 0
244 248 0
244 248 0
242 248 0
241 249 0
238 249 0
236 250 0
233 250 0
229 251 0
225 251 0
221 252 0
217 252 0
212 253 0
208 253 0
204 254 0
199 254 0
195 254 0
191 254 0
188 254 0
185 254 0
182 254 0
180 254 0
178 254 0
177 254 0
176 254 0
222 253 0
222 253 0
222 253 0
222 253 0
222 253 0
223 253 0
224 253 0
224 253 0
225 253 0
226 253 0
227 252 0
228 252 0
230 252 0
231 252 0
232 251 0
234 251 0
235 251 0
237 251 0
238 250 0
240 250 0
241 249 0
242 249 0
243 249 0
243 249 0
244 249 0
244 248 0
243 248 0
242 249 0
241 249 0
239 249 0
237 249 0
234 250 0
231 250 0
228 251 0
224 251 0
220 252 0
216 253 0
211 253 0
207 253 0
203 254 0
198 254 0
194 254 0
191 254 0
187 254 0
184 254 0
181 254 0
179 254 0
178 254 0
176 254 0
176 253 0
222 253 0
222 253 0
222 253 0
222 253 0
223 253 0
223 253 0
224 253 0
224 253 0
225 253 0
226 253 0
227 252 0
228 252 0
229 252 0
231 252 0
232 252 0
234 251 0
235 251 0
236 251 0
238 250 0
239 250 0
240 250 0
241 249 0
242 249 0
242 249 0
243 249 0
242 249 0
242 249 0
241 249 0
240 249 0
238 249 0
236 250 0
233 250 0
230 251 0
227 251 0
223 252 0
219 252 0
215 253 0
211 253 0
206 253 0
202 254 0
198 254 0
194 254 0
190 254 0
187 254 0
184 254 0
181 254 0
179 254 0
177 254 0
176 254 0
176 254 0
222 253 0
222 253 0
222 253 0
223 253 0
223 253 0
224 253 0
224 253 0
225 253 0
226 253 0
226 253 0
227 252 0
228 252 0
230 252 0
231 252 0
232 252 0
233 251 0
235 251 0
236 251 0
237 250 0
238 250 0
239 250 0
240 250 0
241 249 0
241 249 0
241 249 0
241 249 0
241 249 0
240 249 0
238 249 0
237 250 0
234 250 0
232 250 0
229 251 0
225 251 0
222 252 0
218 252 0
214 253 0
210 253 0
206 254 0
202 254 0
197 254 0
194 254 0
190 254 0
187 254 0
184 254 0
181 254 0
179 254 0
177 254 0
176 254 0
176 254 0
223 253 0
223 253 0
223 253 0
223 253 0
224 253 0
224 253 0
225 253 0
225 253 0
226 253 0
227 252 0
228 252 0
229 252 0
230 252 0
231 252 0
232 252 0
233 251 0
234 251 0
236 251 0
237 251 0
238 250 0
239 250 0
239 250 0
240 250 0
240 249 0
240 249 0
240 249 0
239 249 0
238 250 0
237 250 0
235 250 0
233 250 0
231 251 0
228 251 0
224 252 0
221 252 0
217 253 0
213 253 0
209 253 0
205 254 0
201 254 0
197 254 0
193 254 0
190 254 0
187 254 0
184 254 0
181 254 0
179 254 0
178 254 0
177 254 0
176 254 0
223 253 0
223 253 0
224 253 0
224 253 0
224 253 0
225 253 0
225 253 0
226 253 0
226 252 0
227 252 0
228 252 0
229 252 0
230 252 0
231 252 0
232 252 0
233 251 0
234 251 0
235 251 0
236 251 0
237 250 0
238 250 0
239 250 0
239 250 0
239 250 0
239 250 0
239 250 0
238 250 0
237 250 0
236 250 0
234 250 0
232 251 0
229 251 0
227 251 0
224 252 0
220 252 0
217 253 0
213 253 0
209 253 0
205 254 0
201 254 0
197 254 0
194 254 0
190 254 0
187 254 0
184 254 0
182 254 0
180 254 0
178 254 0
177 254 0
177 254 0
224 253 0
224 253 0
225 253 0
225 253 0
225 253 0
225 253 0
226 253 0
227 252 0
227 252 0
228 252 0
229 252 0
230 252 0
231 252 0
231 252 0
232 251 0
233 251 0
234 251 0
235 251 0
236 251 0
237 251 0
238 250 0
238 250 0
238 250 0
238 250 0
238 250 0
238 250 0
237 250 0
236 250 0
235 250 0
233 251 0
231 251 0
228 251 0
226 252 0
223 252 0
219 253 0
216 253 0
212 253 0
209 254 0
205 254 0
201 254 0
198 254 0
194 254 0
191 254 0
188 254 0
185 254 0
183 254 0
181 254 0
179 254 0
179 254 0
178 254 0
225 253 0
225 253 0
226 253 0
226 252 0
226 252 0
226 252 0
227 252 0
227 252 0
228 252 0
229 252 0
229 252 0
230 252 0
231 252 0
232 252 0
233 251 0
234 251 0
235 251 0
235 251 0
236 251 0
237 251 0
237 250 0
238 250 0
238 250 0
238 250 0
237 250 0
237 250 0
236 250 0
235 250 0
234 251 0
232 251 0
230 251 0
228 252 0
225 252 0
222 252 0
219 253 0
216 253 0
212 253 0
209 254 0
205 254 0
202 254 0
198 254 0
195 254 0
192 254 0
189 254 0
186 254 0
184 254 0
182 254 0
181 254 0
180 254 0
180 254 0
226 252 0
226 252 0
227 252 0
227 252 0
227 252 0
228 252 0
228 252 0
228 252 0
229 252 0
230 252 0
230 252 0
231 252 0
232 252 0
233 251 0
233 251 0
234 251 0
235 251 0
235 251 0
236 251 0
237 251 0
237 251 0
237 250 0
237 250 0
237 250 0
237 250 0
236 250 0
235 251 0
234 251 0
233 251 0
231 251 0
229 251 0
227 252 0
224 252 0
222 252 0
219 253 0
216 253 0
212 253 0
209 254 0
206 254 0
203 254 0
199 254 0
196 254 0
193 254 0
190 254 0
188 254 0
186 254 0
184 254 0
183 254 0
182 254 0
182 254 0
228 252 0
228 252 0
228 252 0
228 252 0
228 252 0
229 252 0
229 252 0
230 252 0
230 252 0
231 252 0
231 252 0
232 252 0
233 251 0
233 251 0
234 251 0
234 251 0
235 251 0
236 251 0
236 251 0
236 251 0
237 251 0
237 251 0
237 251 0
236 251 0
236 251 0
235 251 0
234 251 0
233 251 0
232 251 0
230 251 0
228 252 0
226 252 0
224 252 0
222 253 0
219 253 0
216 253 0
213 253 0
210 254 0
207 254 0
204 254 0
201 254 0
198 254 0
195 254 0
192 254 0
190 254 0
188 254 0
186 254 0
185 254 0
184 254 0
184 254 0
229 252 0
229 252 0
229 252 0
229 252 0
230 252 0
230 252 0
230 252 0
231 252 0
231 252 0
232 251 0
232 251 0
233 251 0
233 251 0
234 251 0
234 251 0
235 251 0
235 251 0
236 251 0
236 251 0
236 251 0
237 251 0
237 251 0
236 251 0
236 251 0
235 251 0
235 251 0
234 251 0
233 251 0
231 251 0
230 252 0
228 252 0
226 252 0
224 252 0
222 253 0
219 253 0
216 253 0
214 253 0
211 254 0
208 254 0
205 254 0
202 254 0
200 254 0
197 254 0
195 254 0
192 255 0
191 254 0
189 254 0
188 254 0
187 254 0
187 254 0
230 252 0
230 252 0
230 252 0
231 252 0
231 252 0
231 251 0
231 251 0
232 251 0
232 251 0
233 251 0
233 251 0
234 251 0
234 251 0
235 251 0
235 251 0
236 251 0
236 251 0
236 251 0
236 251 0
237 251 0
237 251 0
236 251 0
236 251 0
236 251 0
235 251 0
234 251 0
233 251 0
232 251 0
231 252 0
230 252 0
228 252 0
226 252 0
224 252 0
222 253 0
220 253 0
217 253 0
215 253 0
212 254 0
209 254 0
207 254 0
204 254 0
202 254 0
199 254 0
197 254 0
195 254 0
194 254 0
192 254 0
191 254 0
190 254 0
190 254 0
231 251 0
231 251 0
232 251 0
232 251 0
232 251 0
232 251 0
233 251 0
233 251 0
233 251 0
234 251 0
234 251 0
235 251 0
235 251 0
235 251 0
236 251 0
236 251 0
236 251 0
237 251 0
237 251 0
237 251 0
237 251 0
236 251 0
236 251 0
236 251 0
235 251 0
234 251 0
233 251 0
232 251 0
231 252 0
229 252 0
228 252 0
226 252 0
224 252 0
222 253 0
220 253 0
218 253 0
216 253 0
214 254 0
211 254 0
209 254 0
207 254 0
204 254 0
202 254 0
200 254 0
198 254 0
197 254 0
196 254 0
195 254 0
194 254 0
194 254 0
233 251 0
233 251 0
233 251 0
233 251 0
233 251 0
233 251 0
234 251 0
234 251 0
234 251 0
235 251 0
235 251 0
235 251 0
236 251 0
236 251 0
237 251 0
237 251 0
237 251 0
237 251 0
237 251 0
237 251 0
237 251 0
236 251 0
236 251 0
235 251 0
235 251 0
234 251 0
233 251 0
232 252 0
231 252 0
230 252 0
228 252 0
227 252 0
225 252 0
223 253 0
221 253 0
219 253 0
217 253 0
215 253 0
213 254 0
211 254 0
209 254 0
207 254 0
205 254 0
203 254 0
202 254 0
201 254 0
199 254 0
198 254 0
198 254 0
198 254 0
234 251 0
234 251 0
234 251 0
234 251 0
234 251 0
234 251 0
235 251 0
235 251 0
235 251 0
236 251 0
236 251 0
236 251 0
237 251 0
237 251 0
237 251 0
237 251 0
237 251 0
237 251 0
237 251 0
237 251 0
237 251 0
237 251 0
236 251 0
236 251 0
235 251 0
234 251 0
233 251 0
232 252 0
231 252 0
230 252 0
229 252 0
227 252 0
226 252 0
224 253 0
223 253 0
221 253 0
219 253 0
217 253 0
216 253 0
214 253 0
212 254 0
210 254 0
209 254 0
207 254 0
206 254 0
204 254 0
203 254 0
203 254 0
202 254 0
202 254 0
235 251 0
235 251 0
235 251 0
235 251 0
235 251 0
235 251 0
236 251 0
236 251 0
236 251 0
236 251 0
237 250 0
237 250 0
237 250 0
238 250 0
238 250 0
238 250 0
238 250 0
238 250 0
238 251 0
238 251 0
237 251 0
237 251 0
236 251 0
236 251 0
235 251 0
234 251 0
233 251 0
232 252 0
231 252 0
230 252 0
229 252 0
228 252 0
227 252 0
226 252 0
224 253 0
223 253 0
221 253 0
220 253 0
218 253 0
217 253 0
215 253 0
214 253 0
212 254 0
211 254 0
210 254 0
209 254 0
208 254 0
207 254 0
206 254 0
206 254 0
235 251 0
235 251 0
235 251 0
236 251 0
236 250 0
236 250 0
236 250 0
237 250 0
237 250 0
237 250 0
237 250 0
238 250 0
238 250 0
238 250 0
238 250 0
238 250 0
238 250 0
238 250 0
238 250 0
238 251 0
238 251 0
237 251 0
237 251 0
236 251 0
235 251 0
235 251 0
234 251 0
233 252 0
232 252 0
231 252 0
230 252 0
229 252 0
228 252 0
227 252 0
226 252 0
225 252 0
223 252 0
222 253 0
221 253 0
220 253 0
218 253 0
217 253 0
216 253 0
215 253 0
214 253 0
213 253 0
212 253 0
211 253 0
211 253 0
211 253 0
236 250 0
236 250 0
236 250 0
236 250 0
236 250 0
237 250 0
237 250 0
237 250 0
237 250 0
238 250 0
238 250 0
238 250 0
238 250 0
239 250 0
239 250 0
239 250 0
239 250 0
239 250 0
239 250 0
238 251 0
238 251 0
237 251 0
237 251 0
236 251 0
236 251 0
235 251 0
234 251 0
233 251 0
233 252 0
232 252 0
231 252 0
230 252 0
229 252 0
229 252 0
228 252 0
227 252 0
226 252 0
225 252 0
224 252 0
223 252 0
222 252 0
221 253 0
220 253 0
219 253 0
218 253 0
217 253 0
216 253 0
216 253 0
216 253 0
215 253 0
236 250 0
236 250 0
236 250 0
237 250 0
237 250 0
237 250 0
237 250 0
238 250 0
238 250 0
238 250 0
238 250 0
239 250 0
239 250 0
239 250 0
239 250 0
239 250 0
239 250 0
239 250 0
239 250 0
239 250 0
238 251 0
238 251 0
237 251 0
237 251 0
236 251 0
235 251 0
235 251 0
234 251 0
233 251 0
233 252 0
232 252 0
232 252 0
231 252 0
230 252 0
230 252 0
229 252 0
228 252 0
227 252 0
227 252 0
226 252 0
225 252 0
224 252 0
224 252 0
223 252 0
222 252 0
221 252 0
221 252 0
221 252 0
220 252 0
220 252 0
237 250 0
237 250 0
237 250 0
237 250 0
237 250 0
237 250 0
237 250 0
238 250 0
238 250 0
238 250 0
239 250 0
239 250 0
239 250 0
239 250 0
239 250 0
239 250 0
239 250 0
239 250 0
239 250 0
239 250 0
238 251 0
238 251 0
238 251 0
237 251 0
237 251 0
236 251 0
235 251 0
235 251 0
234 251 0
234 251 0
233 251 0
233 251 0
233 251 0
232 251 0
232 251 0
231 251 0
231 251 0
230 251 0
230 251 0
229 251 0
229 251 0
228 251 0
227 251 0
227 251 0
226 252 0
226 252 0
225 252 0
225 252 0
225 252 0
225 252 0
237 250 0
237 250 0
237 250 0
237 250 0
237 250 0
237 250 0
238 250 0
238 250 0
238 250 0
238 250 0
239 250 0
239 250 0
239 250 0
239 250 0
239 250 0
239 250 0
239 250 0
239 250 0
239 250 0
239 250 0
239 251 0
238 251 0
238 251 0
237 251 0
237 251 0
237 251 0
236 251 0
236 251 0
235 251 0
235 251 0
235 251 0
234 251 0
234 251 0
234 251 0
234 251 0
233 251 0
233 251 0
233 251 0
233 251 0
232 251 0
232 251 0
231 251 0
231 251 0
231 251 0
230 251 0
230 251 0
230 251 0
229 251 0
229 251 0
229 251 0
237 250 0
237 250 0
237 250 0
237 250 0
237 250 0
237 250 0
237 250 0
238 250 0
238 250 0
238 250 0
239 250 0
239 250 0
239 250 0
239 250 0
239 250 0
239 250 0
239 250 0
239 250 0
239 250 0
239 250 0
239 250 0
238 251 0
238 251 0
238 251 0
237 251 0
237 251 0
237 251 0
236 251 0
236 251 0
236 251 0
236 251 0
236 251 0
236 251 0
236 251 0
236 251 0
236 250 0
236 250 0
236 250 0
235 250 0
235 250 0
235 250 0
235 250 0
235 250 0
234 250 0
234 250 0
234 250 0
234 250 0
233 250 0
233 250 0
233 250 0
236 251 0
236 251 0
236 250 0
237 250 0
237 250 0
237 250 0
237 250 0
237 250 0
238 250 0
238 250 0
238 250 0
239 250 0
239 250 0
239 250 0
239 250 0
239 250 0
239 250 0
239 250 0
239 250 0
239 250 0
239 250 0
239 251 0
238 251 0
238 251 0
238 251 0
238 251 0
237 251 0
237 251 0
237 251 0
237 251 0
237 251 0
237 250 0
237 250 0
237 250 0
238 250 0
238 250 0
238 250 0
238 250 0
238 250 0
238 250 0
238 249 0
238 249 0
238 249 0
238 249 0
238 249 0
237 249 0
237 249 0
237 249 0
237 249 0
237 250 0
236 251 0
236 251 0
236 251 0
236 251 0
236 251 0
237 251 0
237 251 0
237 251 0
237 250 0
238 250 0
238 250 0
238 250 0
238 250 0
239 250 0
239 250 0
239 250 0
239 250 0
239 250 0
239 250 0
239 250 0
239 251 0
239 251 0
238 251 0
238 251 0
238 251 0
238 251 0
238 251 0
238 251 0
238 251 0
238 250 0
238 250 0
239 250 0
239 250 0
239 250 0
239 250 0
240 250 0
240 249 0
240 249 0
241 249 0
241 249 0
241 249 0
241 249 0
241 249 0
241 249 0
241 249 0
241 249 0
241 249 0
241 249 0
241 249 0
241 249 0
235 251 0
235 251 0
236 251 0
236 251 0
236 251 0
236 251 0
236 251 0
236 251 0
237 251 0
237 251 0
237 251 0
238 251 0
238 250 0
238 250 0
238 250 0
238 250 0
239 250 0
239 250 0
239 250 0
239 251 0
239 251 0
239 251 0
239 251 0
238 251 0
238 251 0
238 251 0
238 251 0
239 250 0
239 250 0
239 250 0
239 250 0
240 250 0
240 250 0
241 250 0
241 249 0
242 249 0
242 249 0
242 249 0
243 249 0
243 248 0
243 248 0
244 248 0
244 248 0
244 248 0
244 248 0
244 248 0
244 248 0
244 248 0
244 248 0
244 248 0
235 251 0
235 251 0
235 251 0
235 251 0
235 251 0
235 251 0
236 251 0
236 251 0
236 251 0
236 251 0
237 251 0
237 251 0
237 251 0
237 251 0
238 251 0
238 251 0
238 251 0
238 251 0
238 251 0
238 251 0
238 251 0
238 251 0
238 251 0
238 251 0
239 251 0
239 251 0
239 250 0
239 250 0
239 250 0
240 250 0
240 250 0
241 250 0
241 249 0
242 249 0
243 249 0
243 249 0
244 249 0
244 248 0
245 248 0
245 248 0
246 248 0
246 248 0
246 248 0
246 248 0
246 248 0
246 248 0
246 248 0
246 248 0
246 248 0
246 248 0
234 251 0
234 251 0
234 251 0
234 251 0
235 251 0
235 251 0
235 251 0
235 251 0
235 251 0
236 251 0
236 251 0
236 251 0
236 251 0
237 251 0
237 251 0
237 251 0
237 251 0
238 251 0
238 251 0
238 251 0
238 251 0
238 251 0
238 251 0
238 251 0
239 251 0
239 251 0
239 250 0
239 250 0
240 250 0
240 250 0
241 250 0
242 250 0
242 249 0
243 249 0
244 249 0
245 248 0
245 248 0
246 248 0
246 248 0
247 248 0
247 247 0
248 247 0
248 247 0
248 247 0
249 247 0
249 247 0
249 247 0
249 247 0
249 247 0
249 247 0
234 251 0
234 251 0
234 251 0
234 251 0
234 251 0
234 251 0
234 251 0
234 251 0
235 251 0
235 251 0
235 251 0
235 251 0
236 251 0
236 251 0
236 251 0
236 251 0
237 251 0
237 251 0
237 251 0
237 251 0
237 251 0
238 251 0
238 251 0
238 251 0
238 251 0
239 251 0
239 250 0
240 250 0
240 250 0
241 250 0
242 250 0
242 249 0
243 249 0
244 249 0
245 249 0
246 248 0
246 248 0
247 248 0
248 248 0
248 247 0
249 247 0
249 247 0
250 247 0
250 247 0
250 247 0
250 247 0
251 247 0
251 247 0
251 247 0
251 247 0
233 251 0
233 251 0
233 251 0
233 251 0
233 251 0
233 251 0
233 251 0
234 251 0
234 251 0
234 251 0
234 251 0
234 251 0
235 251 0
235 251 0
235 251 0
235 251 0
236 251 0
236 251 0
236 251 0
236 251 0
237 251 0
237 251 0
237 251 0
238 251 0
238 251 0
239 251 0
239 250 0
240 250 0
240 250 0
241 250 0
242 250 0
243 249 0
244 249 0
245 249 0
246 248 0
247 248 0
247 248 0
248 248 0
249 247 0
250 247 0
250 247 0
251 247 0
251 247 0
251 247 0
252 246 0
252 246 0
252 246 0
252 246 0
252 246 0
252 246 0
232 251 0
232 251 0
232 251 0
232 251 0
232 251 0
232 251 0
233 252 0
233 252 0
233 252 0
233 252 0
233 252 0
233 251 0
234 251 0
234 251 0
234 251 0
234 251 0
235 251 0
235 251 0
235 251 0
236 251 0
236 251 0
236 251 0
237 251 0
237 251 0
238 251 0
238 251 0
239 250 0
240 250 0
241 250 0
241 250 0
242 250 0
243 249 0
244 249 0
245 249 0
246 248 0
247 248 0
248 248 0
249 247 0
250 247 0
250 247 0
251 247 0
252 247 0
252 246 0
252 246 0
253 246 0
253 246 0
253 246 0
253 246 0
253 246 0
253 246 0
232 252 0
232 252 0
232 252 0
232 252 0
232 252 0
232 252 0
232 252 0
232 252 0
232 252 0
232 252 0
232 252 0
232 252 0
233 252 0
233 252 0
233 252 0
233 252 0
234 252 0
234 252 0
234 252 0
235 251 0
235 251 0
236 251 0
236 251 0
237 251 0
237 251 0
238 251 0
239 251 0
239 250 0
240 250 0
241 250 0
242 250 0
243 249 0
244 249 0
245 249 0
246 248 0
247 248 0
248 248 0
249 247 0
250 247 0
251 247 0
252 247 0
252 247 0
253 246 0
253 246 0
253 246 0
254 246 0
254 246 0
254 246 0
254 246 0
254 246 0
231 252 0
231 252 0
231 252 0
231 252 0
231 252 0
231 252 0
231 252 0
231 252 0
231 252 0
231 252 0
231 252 0
231 252 0
231 252 0
232 252 0
232 252 0
232 252 0
232 252 0
233 252 0
233 252 0
234 252 0
234 252 0
235 251 0
235 251 0
236 251 0
237 251 0
237 251 0
238 251 0
239 250 0
240 250 0
241 250 0
242 250 0
243 249 0
244 249 0
246 249 0
247 248 0
248 248 0
249 248 0
250 247 0
250 247 0
251 247 0
252 247 0
252 247 0
253 246 0
253 246 0
254 246 0
254 246 0
254 246 0
254 246 0
254 246 0
254 246 0
231 252 0
231 252 0
231 252 0
231 252 0
230 252 0
230 252 0
230 252 0
230 252 0
230 252 0
230 252 0
230 252 0
230 252 0
230 252 0
231 252 0
231 252 0
231 252 0
231 252 0
232 252 0
232 252 0
233 252 0
233 252 0
234 252 0
234 252 0
235 251 0
236 251 0
237 251 0
238 251 0
239 251 0
240 250 0
241 250 0
242 250 0
243 249 0
244 249 0
245 249 0
247 248 0
248 248 0
249 248 0
250 247 0
250 247 0
251 247 0
252 247 0
253 247 0
253 246 0
253 246 0
254 246 0
254 246 0
254 246 0
254 246 0
254 246 0
255 246 0
230 252 0
230 252 0
230 252 0
230 252 0
230 252 0
230 252 0
230 252 0
230 252 0
229 252 0
229 252 0
229 252 0
229 252 0
229 252 0
230 252 0
230 252 0
230 252 0
230 252 0
231 252 0
231 252 0
232 252 0
232 252 0
233 252 0
234 252 0
234 252 0
235 251 0
236 251 0
237 251 0
238 251 0
239 250 0
240 250 0
242 250 0
243 249 0
244 249 0
245 249 0
246 248 0
247 248 0
249 248 0
249 248 0
250 247 0
251 247 0
252 247 0
252 247 0
253 247 0
253 246 0
254 246 0
254 246 0
254 246 0
254 246 0
254 246 0
254 246 0
230 252 0
230 252 0
230 252 0
230 252 0
229 252 0
229 252 0
229 252 0
229 252 0
229 252 0
229 252 0
229 252 0
228 252 0
229 253 0
229 253 0
229 253 0
229 253 0
229 253 0
230 252 0
230 252 0
231 252 0
231 252 0
232 252 0
233 252 0
234 252 0
234 252 0
235 251 0
237 251 0
238 251 0
239 251 0
240 250 0
241 250 0
242 250 0
244 249 0
245 249 0
246 249 0
247 248 0
248 248 0
249 248 0
250 247 0
251 247 0
252 247 0
252 247 0
253 247 0
253 247 0
253 246 0
254 246 0
254 246 0
254 246 0
254 246 0
254 246 0
230 252 0
230 252 0
229 252 0
229 252 0
229 252 0
229 252 0
229 252 0
228 252 0
228 252 0
228 252 0
228 253 0
228 253 0
228 253 0
228 253 0
228 253 0
228 253 0
228 253 0
229 253 0
229 253 0
230 253 0
230 252 0
231 252 0
232 252 0
233 252 0
234 252 0
235 252 0
236 251 0
237 251 0
238 251 0
240 250 0
241 250 0
242 250 0
243 249 0
245 249 0
246 249 0
247 248 0
248 248 0
249 248 0
250 248 0
251 247 0
251 247 0
252 247 0
252 247 0
253 247 0
253 247 0
253 247 0
254 247 0
254 246 0
254 246 0
254 246 0
229 252 0
229 252 0
229 252 0
229 252 0
229 252 0
228 252 0
228 252 0
228 252 0
228 252 0
227 253 0
227 253 0
227 253 0
227 253 0
227 253 0
227 253 0
227 253 0
227 253 0
228 253 0
228 253 0
229 253 0
230 253 0
230 252 0
231 252 0
232 252 0
233 252 0
234 252 0
235 251 0
237 251 0
238 251 0
239 251 0
240 250 0
242 250 0
243 250 0
244 249 0
245 249 0
247 249 0
248 248 0
249 248 0
249 248 0
250 248 0
251 247 0
252 247 0
252 247 0
252 247 0
253 247 0
253 247 0
253 247 0
253 247 0
254 247 0
254 247 0
229 252 0
229 252 0
229 252 0
229 252 0
228 252 0
228 252 0
228 252 0
227 252 0
227 253 0
227 253 0
227 253 0
226 253 0
226 253 0
226 253 0
226 253 0
227 253 0
227 253 0
227 253 0
228 253 0
228 253 0
229 253 0
230 253 0
231 252 0
232 252 0
233 252 0
234 252 0
235 252 0
236 251 0
237 251 0
239 251 0
240 250 0
241 250 0
243 250 0
244 249 0
245 249 0
246 249 0
247 248 0
248 248 0
249 248 0
250 248 0
251 247 0
251 247 0
252 247 0
252 247 0
252 247 0
253 247 0
253 247 0
253 247 0
253 247 0
253 247 0
229 252 0
229 252 0
229 252 0
229 252 0
228 252 0
228 252 0
228 252 0
227 252 0
227 253 0
226 253 0
226 253 0
226 253 0
226 253 0
226 253 0
226 253 0
226 253 0
226 253 0
227 253 0
227 253 0
228 253 0
228 253 0
229 253 0
230 253 0
231 252 0
232 252 0
233 252 0
234 252 0
236 251 0
237 251 0
238 251 0
240 250 0
241 250 0
242 250 0
244 249 0
245 249 0
246 249 0
247 249 0
248 248 0
249 248 0
250 248 0
250 248 0
251 247 0
251 247 0
252 247 0
252 247 0
252 247 0
253 247 0
253 247 0
253 247 0
253 247 0
229 252 0
229 252 0
229 252 0
228 252 0
228 252 0
228 252 0
227 252 0
227 253 0
227 253 0
226 253 0
226 253 0
226 253 0
226 253 0
225 253 0
225 253 0
226 253 0
226 253 0
226 253 0
227 253 0
227 253 0
228 253 0
229 253 0
230 253 0
231 252 0
232 252 0
233 252 0
234 252 0
235 251 0
237 251 0
238 251 0
239 251 0
241 250 0
242 250 0
243 250 0
245 249 0
246 249 0
247 249 0
248 248 0
249 248 0
249 248 0
250 248 0
251 247 0
251 247 0
252 247 0
252 247 0
252 247 0
252 247 0
253 247 0
253 247 0
253 247 0
229 252 0
229 252 0
229 252 0
228 252 0
228 252 0
228 252 0
227 252 0
227 253 0
226 253 0
226 253 0
226 253 0
226 253 0
225 253 0
225 253 0
225 253 0
225 253 0
226 253 0
226 253 0
227 253 0
227 253 0
228 253 0
229 253 0
230 253 0
231 253 0
232 252 0
233 252 0
234 252 0
235 252 0
237 251 0
238 251 0
239 251 0
241 250 0
242 250 0
243 250 0
244 249 0
246 249 0
247 249 0
248 248 0
249 248 0
249 248 0
250 248 0
251 248 0
251 247 0
252 247 0
252 247 0
252 247 0
252 247 0
252 247 0
253 247 0
253 247 0
