P3
50 50
255
240 232 0
240 232 0
240 232 0
240 232 0
240 233 0
239 233 0
239 233 0
239 234 0
239 234 0
239 235 0
238 236 0
238 237 0
238 238 0
237 239 0
237 240 0
236 242 0
236 243 0
235 245 0
235 246 0
234 248 0
234 249 0
234 251 0
233 252 0
233 253 0
233 254 0
233 254 0
233 254 0
233 254 0
234 253 0
234 252 0
235 250 0
236 249 0
236 246 0
237 244 0
238 241 0
240 237 0
241 234 0
242 230 0
243 227 0
245 223 0
246 220 0
247 217 0
248 213 0
249 211 0
250 208 0
251 206 0
251 204 0
252 203 0
252 202 0
252 202 0
240 232 0
240 232 0
240 232 0
240 232 0
240 232 0
239 233 0
239 233 0
239 234 0
239 234 0
239 235 0
238 236 0
238 237 0
238 238 0
237 239 0
237 240 0
236 242 0
236 243 0
235 244 0
235 246 0
235 248 0
234 249 0
234 250 0
233 252 0
233 253 0
233 253 0
233 254 0
233 254 0
233 254 0
234 253 0
234 252 0
235 250 0
236 248 0
236 246 0
237 243 0
239 240 0
240 237 0
241 234 0
242 230 0
243 227 0
245 223 0
246 220 0
247 216 0
248 213 0
249 211 0
250 208 0
251 206 0
251 204 0
252 203 0
252 202 0
252 202 0
240 232 0
240 232 0
240 232 0
240 232 0
240 232 0
240 233 0
239 233 0
239 233 0
239 234 0
239 235 0
238 236 0
238 236 0
238 238 0
237 239 0
237 240 0
236 241 0
236 243 0
236 244 0
235 246 0
235 247 0
234 249 0
234 250 0
233 251 0
233 252 0
233 253 0
233 254 0
233 254 0
233 253 0
234 253 0
234 252 0
235 250 0
236 248 0
237 246 0
238 243 0
239 240 0
240 237 0
241 233 0
242 230 0
243 226 0
245 223 0
246 219 0
247 216 0
248 213 0
249 210 0
250 208 0
251 206 0
252 204 0
252 202 0
252 202 0
252 201 0
240 231 0
240 231 0
240 232 0
240 232 0
240 232 0
240 232 0
239 233 0
239 233 0
239 234 0
239 235 0
239 235 0
238 236 0
238 237 0
237 238 0
237 240 0
237 241 0
236 243 0
236 244 0
235 246 0
235 247 0
234 248 0
234 250 0
234 251 0
233 252 0
233 253 0
233 253 0
233 253 0
234 253 0
234 252 0
234 251 0
235 250 0
236 248 0
237 245 0
238 243 0
239 240 0
240 236 0
241 233 0
242 229 0
244 226 0
245 222 0
246 219 0
247 216 0
248 213 0
249 210 0
250 207 0
251 205 0
252 203 0
252 202 0
253 201 0
253 201 0
240 231 0
240 231 0
240 231 0
240 231 0
240 232 0
240 232 0
240 232 0
239 233 0
239 234 0
239 234 0
239 235 0
238 236 0
238 237 0
238 238 0
237 239 0
237 241 0
236 242 0
236 244 0
235 245 0
235 247 0
234 248 0
234 249 0
234 251 0
234 252 0
233 252 0
233 253 0
234 253 0
234 252 0
234 252 0
235 251 0
235 249 0
236 247 0
237 245 0
238 242 0
239 239 0
240 236 0
241 232 0
243 229 0
244 225 0
245 222 0
246 218 0
247 215 0
249 212 0
250 209 0
250 207 0
251 204 0
252 203 0
252 201 0
253 200 0
253 200 0
240 231 0
240 231 0
240 231 0
240 231 0
240 231 0
240 232 0
240 232 0
239 233 0
239 233 0
239 234 0
239 235 0
238 236 0
238 237 0
238 238 0
237 239 0
237 240 0
236 242 0
236 243 0
235 245 0
235 246 0
235 248 0
234 249 0
234 250 0
234 251 0
234 252 0
234 252 0
234 252 0
234 252 0
234 251 0
235 250 0
236 248 0
236 246 0
237 244 0
238 241 0
239 238 0
240 235 0
242 232 0
243 228 0
244 225 0
245 221 0
247 218 0
248 214 0
249 211 0
250 208 0
251 206 0
252 204 0
252 202 0
253 201 0
253 200 0
253 199 0
240 230 0
240 230 0
240 231 0
240 231 0
240 231 0
240 231 0
240 232 0
240 232 0
239 233 0
239 234 0
239 234 0
238 235 0
238 236 0
238 237 0
237 239 0
237 240 0
236 241 0
236 243 0
236 244 0
235 246 0
235 247 0
234 248 0
234 249 0
234 250 0
234 251 0
234 251 0
234 251 0
234 251 0
235 250 0
235 249 0
236 248 0
237 246 0
237 243 0
238 241 0
239 238 0
241 234 0
242 231 0
243 228 0
244 224 0
246 220 0
247 217 0
248 214 0
249 210 0
250 208 0
251 205 0
252 203 0
252 201 0
253 200 0
253 199 0
254 198 0
240 230 0
240 230 0
240 230 0
240 230 0
240 231 0
240 231 0
240 231 0
240 232 0
239 233 0
239 233 0
239 234 0
239 235 0
238 236 0
238 237 0
237 238 0
237 240 0
237 241 0
236 242 0
236 244 0
235 245 0
235 246 0
235 248 0
234 249 0
234 250 0
234 250 0
234 250 0
234 250 0
235 250 0
235 249 0
235 248 0
236 247 0
237 245 0
238 242 0
239 240 0
240 237 0
241 234 0
242 230 0
243 227 0
245 223 0
246 220 0
247 216 0
248 213 0
249 210 0
250 207 0
251 204 0
252 202 0
253 200 0
253 199 0
254 198 0
254 198 0
240 230 0
240 230 0
240 230 0
240 230 0
240 230 0
240 231 0
240 231 0
240 232 0
239 232 0
239 233 0
239 234 0
239 235 0
238 236 0
238 237 0
237 238 0
237 239 0
237 241 0
236 242 0
236 243 0
235 245 0
235 246 0
235 247 0
235 248 0
234 249 0
234 249 0
234 250 0
235 250 0
235 249 0
235 248 0
236 247 0
236 246 0
237 244 0
238 241 0
239 239 0
240 236 0
241 233 0
242 229 0
244 226 0
245 222 0
246 219 0
247 215 0
249 212 0
250 209 0
251 206 0
252 204 0
252 201 0
253 200 0
254 198 0
254 197 0
254 197 0
240 230 0
240 230 0
240 230 0
240 230 0
240 230 0
240 231 0
240 231 0
240 232 0
239 232 0
239 233 0
239 234 0
239 235 0
238 235 0
238 237 0
238 238 0
237 239 0
237 240 0
236 241 0
236 243 0
236 244 0
235 245 0
235 246 0
235 247 0
235 248 0
235 248 0
235 249 0
235 249 0
235 248 0
236 247 0
236 246 0
237 245 0
237 243 0
238 240 0
239 238 0
240 235 0
241 232 0
243 228 0
244 225 0
245 221 0
246 218 0
248 215 0
249 211 0
250 208 0
251 205 0
252 203 0
253 201 0
253 199 0
254 198 0
254 197 0
254 196 0
240 230 0
240 230 0
240 230 0
240 230 0
240 230 0
240 231 0
240 231 0
240 232 0
239 232 0
239 233 0
239 234 0
239 234 0
238 235 0
238 236 0
238 237 0
237 239 0
237 240 0
237 241 0
236 242 0
236 243 0
236 245 0
235 246 0
235 246 0
235 247 0
235 247 0
235 248 0
235 248 0
235 247 0
236 246 0
236 245 0
237 244 0
238 242 0
239 239 0
240 237 0
241 234 0
242 231 0
243 228 0
244 224 0
245 221 0
247 217 0
248 214 0
249 211 0
250 208 0
251 205 0
252 202 0
253 200 0
253 198 0
254 197 0
254 196 0
254 196 0
240 230 0
240 230 0
240 230 0
240 230 0
240 230 0
240 231 0
240 231 0
240 232 0
239 232 0
239 233 0
239 234 0
239 234 0
238 235 0
238 236 0
238 237 0
237 238 0
237 239 0
237 241 0
236 242 0
236 243 0
236 244 0
235 245 0
235 246 0
235 246 0
235 247 0
235 247 0
236 246 0
236 246 0
236 245 0
237 244 0
237 242 0
238 241 0
239 238 0
240 236 0
241 233 0
242 230 0
243 227 0
244 223 0
246 220 0
247 217 0
248 213 0
249 210 0
250 207 0
251 204 0
252 202 0
253 200 0
253 198 0
254 197 0
254 196 0
255 195 0
240 230 0
240 230 0
240 230 0
240 230 0
240 231 0
240 231 0
240 231 0
240 232 0
239 232 0
239 233 0
239 234 0
239 234 0
238 235 0
238 236 0
238 237 0
237 238 0
237 239 0
237 240 0
236 241 0
236 242 0
236 243 0
236 244 0
236 245 0
235 245 0
236 246 0
236 246 0
236 245 0
236 245 0
237 244 0
237 243 0
238 241 0
238 239 0
239 237 0
240 235 0
241 232 0
242 229 0
243 226 0
245 223 0
246 219 0
247 216 0
248 213 0
249 210 0
250 207 0
251 204 0
252 202 0
253 200 0
253 198 0
254 196 0
254 196 0
254 195 0
240 230 0
240 230 0
240 231 0
240 231 0
240 231 0
240 231 0
240 232 0
240 232 0
239 233 0
239 233 0
239 234 0
239 235 0
238 235 0
238 236 0
238 237 0
237 238 0
237 239 0
237 240 0
236 241 0
236 242 0
236 243 0
236 244 0
236 244 0
236 244 0
236 245 0
236 245 0
236 244 0
236 244 0
237 243 0
237 242 0
238 240 0
239 238 0
240 236 0
240 234 0
241 231 0
242 228 0
244 225 0
245 222 0
246 219 0
247 216 0
248 213 0
249 209 0
250 207 0
251 204 0
252 202 0
253 200 0
253 198 0
254 197 0
254 196 0
254 195 0
240 231 0
240 231 0
240 231 0
240 231 0
240 232 0
240 232 0
240 232 0
239 233 0
239 233 0
239 234 0
239 234 0
238 235 0
238 236 0
238 237 0
238 237 0
237 238 0
237 239 0
237 240 0
237 241 0
236 242 0
236 242 0
236 243 0
236 243 0
236 244 0
236 244 0
236 244 0
236 243 0
237 243 0
237 242 0
238 241 0
238 239 0
239 237 0
240 235 0
241 233 0
242 230 0
243 228 0
244 225 0
245 222 0
246 219 0
247 215 0
248 212 0
249 210 0
250 207 0
251 204 0
252 202 0
253 200 0
253 198 0
254 197 0
254 196 0
254 196 0
240 232 0
240 232 0
240 232 0
240 232 0
240 232 0
239 233 0
239 233 0
239 233 0
239 234 0
239 234 0
239 235 0
238 235 0
238 236 0
238 237 0
238 238 0
237 238 0
237 239 0
237 240 0
237 241 0
236 241 0
236 242 0
236 242 0
236 243 0
236 243 0
236 243 0
236 243 0
237 242 0
237 242 0
237 241 0
238 240 0
238 238 0
239 236 0
240 234 0
241 232 0
242 230 0
243 227 0
244 224 0
245 221 0
246 218 0
247 216 0
248 213 0
249 210 0
250 207 0
251 205 0
252 202 0
252 201 0
253 199 0
253 198 0
254 197 0
254 197 0
240 233 0
240 233 0
240 233 0
239 233 0
239 233 0
239 233 0
239 234 0
239 234 0
239 234 0
239 235 0
238 235 0
238 236 0
238 237 0
238 237 0
237 238 0
237 239 0
237 239 0
237 240 0
237 241 0
236 241 0
236 242 0
236 242 0
236 242 0
236 242 0
236 242 0
237 242 0
237 241 0
237 241 0
238 240 0
238 239 0
239 237 0
239 236 0
240 234 0
241 232 0
242 229 0
243 227 0
244 224 0
245 221 0
246 219 0
247 216 0
248 213 0
249 210 0
250 208 0
250 205 0
251 203 0
252 202 0
252 200 0
253 199 0
253 198 0
253 198 0
239 234 0
239 234 0
239 234 0
239 234 0
239 234 0
239 234 0
239 235 0
239 235 0
239 235 0
238 236 0
238 236 0
238 237 0
238 237 0
238 238 0
237 238 0
237 239 0
237 240 0
237 240 0
237 241 0
236 241 0
236 241 0
236 242 0
236 242 0
236 242 0
237 241 0
237 241 0
237 241 0
237 240 0
238 239 0
238 238 0
239 236 0
239 235 0
240 233 0
241 231 0
242 229 0
243 227 0
243 224 0
244 222 0
245 219 0
246 216 0
247 214 0
248 211 0
249 209 0
250 207 0
251 205 0
251 203 0
252 201 0
252 200 0
252 200 0
253 199 0
239 235 0
239 235 0
239 235 0
239 235 0
239 235 0
239 235 0
239 235 0
238 236 0
238 236 0
238 237 0
238 237 0
238 237 0
238 238 0
237 238 0
237 239 0
237 239 0
237 240 0
237 240 0
237 241 0
236 241 0
236 241 0
236 241 0
236 241 0
237 241 0
237 241 0
237 240 0
237 240 0
237 239 0
238 238 0
238 237 0
239 236 0
239 234 0
240 233 0
241 231 0
242 229 0
242 227 0
243 224 0
244 222 0
245 219 0
246 217 0
247 215 0
248 212 0
249 210 0
249 208 0
250 206 0
251 205 0
251 203 0
251 202 0
252 202 0
252 201 0
239 236 0
239 236 0
239 236 0
239 236 0
239 236 0
238 236 0
238 236 0
238 237 0
238 237 0
238 237 0
238 238 0
238 238 0
237 239 0
237 239 0
237 239 0
237 240 0
237 240 0
237 241 0
236 241 0
236 241 0
236 241 0
236 241 0
236 241 0
237 241 0
237 240 0
237 240 0
237 239 0
238 239 0
238 238 0
238 236 0
239 235 0
239 234 0
240 232 0
241 231 0
241 229 0
242 227 0
243 225 0
244 223 0
245 220 0
246 218 0
246 216 0
247 214 0
248 212 0
249 210 0
249 208 0
250 207 0
250 205 0
251 204 0
251 204 0
251 203 0
238 237 0
238 237 0
238 237 0
238 237 0
238 237 0
238 237 0
238 237 0
238 238 0
238 238 0
238 238 0
237 239 0
237 239 0
237 239 0
237 240 0
237 240 0
237 240 0
237 241 0
236 241 0
236 241 0
236 241 0
236 241 0
236 241 0
236 241 0
237 240 0
237 240 0
237 239 0
237 239 0
238 238 0
238 237 0
238 236 0
239 235 0
239 234 0
240 232 0
241 231 0
241 229 0
242 227 0
243 225 0
243 223 0
244 221 0
245 219 0
246 217 0
246 215 0
247 214 0
248 212 0
248 210 0
249 209 0
249 208 0
250 207 0
250 206 0
250 206 0
238 238 0
238 238 0
238 238 0
238 238 0
238 238 0
238 238 0
238 238 0
238 239 0
237 239 0
237 239 0
237 239 0
237 240 0
237 240 0
237 240 0
237 241 0
236 241 0
236 241 0
236 241 0
236 241 0
236 241 0
236 241 0
236 241 0
236 241 0
237 240 0
237 240 0
237 239 0
237 238 0
238 238 0
238 237 0
238 236 0
239 235 0
239 234 0
240 232 0
240 231 0
241 229 0
242 228 0
242 226 0
243 224 0
244 223 0
244 221 0
245 219 0
246 217 0
246 216 0
247 214 0
247 213 0
248 212 0
248 211 0
249 210 0
249 209 0
249 209 0
238 239 0
238 239 0
238 239 0
238 239 0
238 239 0
238 239 0
237 239 0
237 239 0
237 240 0
237 240 0
237 240 0
237 241 0
237 241 0
237 241 0
236 241 0
236 241 0
236 241 0
236 242 0
236 241 0
236 241 0
236 241 0
236 241 0
236 241 0
237 240 0
237 240 0
237 239 0
237 238 0
238 237 0
238 237 0
238 236 0
239 235 0
239 234 0
240 233 0
240 231 0
241 230 0
241 229 0
242 227 0
242 226 0
243 224 0
244 223 0
244 221 0
245 220 0
245 218 0
246 217 0
246 216 0
247 214 0
247 213 0
248 213 0
248 212 0
248 212 0
238 239 0
238 240 0
238 240 0
237 240 0
237 240 0
237 240 0
237 240 0
237 240 0
237 241 0
237 241 0
237 241 0
237 241 0
236 241 0
236 242 0
236 242 0
236 242 0
236 242 0
236 242 0
236 242 0
236 242 0
236 241 0
236 241 0
236 241 0
236 240 0
237 240 0
237 239 0
237 238 0
237 237 0
238 237 0
238 236 0
239 235 0
239 234 0
239 233 0
240 232 0
240 231 0
241 230 0
241 229 0
242 227 0
242 226 0
243 225 0
244 223 0
244 222 0
245 221 0
245 220 0
245 218 0
246 217 0
246 217 0
246 216 0
246 216 0
247 215 0
237 240 0
237 240 0
237 240 0
237 240 0
237 241 0
237 241 0
237 241 0
237 241 0
237 241 0
237 241 0
236 242 0
236 242 0
236 242 0
236 242 0
236 242 0
236 242 0
236 242 0
236 242 0
236 242 0
236 242 0
236 242 0
236 241 0
236 241 0
236 240 0
237 240 0
237 239 0
237 238 0
237 238 0
238 237 0
238 236 0
238 235 0
239 235 0
239 234 0
239 233 0
240 232 0
240 231 0
241 230 0
241 229 0
242 228 0
242 227 0
243 226 0
243 225 0
244 224 0
244 223 0
244 222 0
245 221 0
245 220 0
245 219 0
245 219 0
245 219 0
237 241 0
237 241 0
237 241 0
237 241 0
237 241 0
237 241 0
237 241 0
237 242 0
236 242 0
236 242 0
236 242 0
236 242 0
236 243 0
236 243 0
236 243 0
236 243 0
236 243 0
236 243 0
236 242 0
236 242 0
236 242 0
236 241 0
236 241 0
236 240 0
236 240 0
237 239 0
237 238 0
237 238 0
237 237 0
238 237 0
238 236 0
238 235 0
239 235 0
239 234 0
239 233 0
240 232 0
240 232 0
241 231 0
241 230 0
241 229 0
242 228 0
242 227 0
243 226 0
243 226 0
243 225 0
243 224 0
244 224 0
244 223 0
244 223 0
244 223 0
237 241 0
237 241 0
237 241 0
237 241 0
237 242 0
237 242 0
237 242 0
236 242 0
236 242 0
236 242 0
236 243 0
236 243 0
236 243 0
236 243 0
236 243 0
236 243 0
236 243 0
236 243 0
236 243 0
236 242 0
236 242 0
236 242 0
236 241 0
236 241 0
236 240 0
237 239 0
237 239 0
237 238 0
237 238 0
238 237 0
238 237 0
238 236 0
238 236 0
239 235 0
239 235 0
239 234 0
240 233 0
240 233 0
240 232 0
241 232 0
241 231 0
241 230 0
242 229 0
242 229 0
242 228 0
242 228 0
242 227 0
243 227 0
243 226 0
243 226 0
237 242 0
237 242 0
237 242 0
237 242 0
237 242 0
237 242 0
236 242 0
236 242 0
236 243 0
236 243 0
236 243 0
236 243 0
236 243 0
236 243 0
236 243 0
236 243 0
235 243 0
235 243 0
236 243 0
236 243 0
236 242 0
236 242 0
236 241 0
236 241 0
236 240 0
236 240 0
237 239 0
237 239 0
237 238 0
237 238 0
237 237 0
238 237 0
238 237 0
238 236 0
238 236 0
239 236 0
239 235 0
239 235 0
239 235 0
240 234 0
240 234 0
240 233 0
241 232 0
241 232 0
241 231 0
241 231 0
241 231 0
241 230 0
242 230 0
242 230 0
237 242 0
237 242 0
237 242 0
237 242 0
237 242 0
236 242 0
236 242 0
236 242 0
236 243 0
236 243 0
236 243 0
236 243 0
236 243 0
236 244 0
235 244 0
235 244 0
235 244 0
235 243 0
235 243 0
235 243 0
236 242 0
236 242 0
236 242 0
236 241 0
236 241 0
236 240 0
236 240 0
237 239 0
237 239 0
237 239 0
237 238 0
237 238 0
238 238 0
238 238 0
238 238 0
238 237 0
238 237 0
239 237 0
239 237 0
239 237 0
239 236 0
239 236 0
240 235 0
240 235 0
240 235 0
240 234 0
240 234 0
240 234 0
240 233 0
240 233 0
237 242 0
237 242 0
237 242 0
237 242 0
236 242 0
236 242 0
236 242 0
236 242 0
236 243 0
236 243 0
236 243 0
236 243 0
236 243 0
236 244 0
235 244 0
235 244 0
235 244 0
235 243 0
235 243 0
235 243 0
235 243 0
236 242 0
236 242 0
236 241 0
236 241 0
236 241 0
236 240 0
236 240 0
237 240 0
237 239 0
237 239 0
237 239 0
237 239 0
237 239 0
237 239 0
238 239 0
238 239 0
238 239 0
238 239 0
238 239 0
238 239 0
238 239 0
239 238 0
239 238 0
239 238 0
239 237 0
239 237 0
239 237 0
239 237 0
239 237 0
237 241 0
237 241 0
237 242 0
237 242 0
236 242 0
236 242 0
236 242 0
236 242 0
236 243 0
236 243 0
236 243 0
236 243 0
236 243 0
236 244 0
235 244 0
235 244 0
235 244 0
235 244 0
235 243 0
235 243 0
235 243 0
235 242 0
236 242 0
236 242 0
236 241 0
236 241 0
236 241 0
236 241 0
236 240 0
236 240 0
237 240 0
237 240 0
237 240 0
237 241 0
237 241 0
237 241 0
237 241 0
237 241 0
237 241 0
237 241 0
237 241 0
238 241 0
238 241 0
238 241 0
238 241 0
238 240 0
238 240 0
238 240 0
238 240 0
238 240 0
237 241 0
237 241 0
237 241 0
237 241 0
237 241 0
236 242 0
236 242 0
236 242 0
236 242 0
236 243 0
236 243 0
236 243 0
236 243 0
236 243 0
235 243 0
235 244 0
235 244 0
235 243 0
235 243 0
235 243 0
235 243 0
235 243 0
236 242 0
236 242 0
236 242 0
236 242 0
236 241 0
236 241 0
236 241 0
236 241 0
236 241 0
236 241 0
236 242 0
236 242 0
236 242 0
236 243 0
236 243 0
237 243 0
237 243 0
237 243 0
237 244 0
237 244 0
237 244 0
237 243 0
237 243 0
237 243 0
237 243 0
237 243 0
237 243 0
237 243 0
237 241 0
237 241 0
237 241 0
237 241 0
237 241 0
237 241 0
236 241 0
236 242 0
236 242 0
236 242 0
236 242 0
236 243 0
236 243 0
236 243 0
236 243 0
235 243 0
235 243 0
235 243 0
235 243 0
235 243 0
235 243 0
235 243 0
235 242 0
236 242 0
236 242 0
236 242 0
236 242 0
236 242 0
236 242 0
236 242 0
236 242 0
236 243 0
236 243 0
236 243 0
236 244 0
236 244 0
236 245 0
236 245 0
236 245 0
236 245 0
236 246 0
236 246 0
236 246 0
236 246 0
236 246 0
236 246 0
236 246 0
236 246 0
236 246 0
236 246 0
237 240 0
237 240 0
237 240 0
237 240 0
237 241 0
237 241 0
237 241 0
236 241 0
236 241 0
236 242 0
236 242 0
236 242 0
236 242 0
236 243 0
236 243 0
236 243 0
236 243 0
235 243 0
235 243 0
235 243 0
235 243 0
235 243 0
235 242 0
236 242 0
236 242 0
236 242 0
236 242 0
236 242 0
236 243 0
236 243 0
236 243 0
236 243 0
236 244 0
236 244 0
236 245 0
236 245 0
235 246 0
235 246 0
235 247 0
235 247 0
235 248 0
235 248 0
235 248 0
235 248 0
235 248 0
235 248 0
235 248 0
235 248 0
235 248 0
235 248 0
237 240 0
237 240 0
237 240 0
237 240 0
237 240 0
237 240 0
237 240 0
237 241 0
236 241 0
236 241 0
236 241 0
236 242 0
236 242 0
236 242 0
236 242 0
236 242 0
236 242 0
236 243 0
236 243 0
236 243 0
235 243 0
235 242 0
235 242 0
235 242 0
236 242 0
236 242 0
236 243 0
236 243 0
236 243 0
235 243 0
235 244 0
235 244 0
235 245 0
235 245 0
235 246 0
235 247 0
235 247 0
235 248 0
235 248 0
235 249 0
235 249 0
235 249 0
235 250 0
235 250 0
235 250 0
235 250 0
235 250 0
235 250 0
235 250 0
235 250 0
237 239 0
237 239 0
237 239 0
237 239 0
237 240 0
237 240 0
237 240 0
237 240 0
237 240 0
237 240 0
236 241 0
236 241 0
236 241 0
236 241 0
236 242 0
236 242 0
236 242 0
236 242 0
236 242 0
236 242 0
236 242 0
236 242 0
236 242 0
236 242 0
236 242 0
235 243 0
235 243 0
235 243 0
235 243 0
235 244 0
235 244 0
235 245 0
235 246 0
235 246 0
235 247 0
235 248 0
235 248 0
235 249 0
234 250 0
234 250 0
234 250 0
234 251 0
234 251 0
234 251 0
234 251 0
234 251 0
234 251 0
234 251 0
234 251 0
234 251 0
237 239 0
237 239 0
237 239 0
237 239 0
237 239 0
237 239 0
237 239 0
237 239 0
237 240 0
237 240 0
237 240 0
237 240 0
236 240 0
236 241 0
236 241 0
236 241 0
236 241 0
236 241 0
236 242 0
236 242 0
236 242 0
236 242 0
236 242 0
236 242 0
236 242 0
235 243 0
235 243 0
235 243 0
235 244 0
235 244 0
235 245 0
235 246 0
235 246 0
235 247 0
235 248 0
234 249 0
234 249 0
234 250 0
234 251 0
234 251 0
234 251 0
234 252 0
234 252 0
234 252 0
234 252 0
234 253 0
233 253 0
233 253 0
233 253 0
233 253 0
237 238 0
237 238 0
237 238 0
237 238 0
237 238 0
237 238 0
237 239 0
237 239 0
237 239 0
237 239 0
237 239 0
237 239 0
237 240 0
237 240 0
236 240 0
236 240 0
236 240 0
236 241 0
236 241 0
236 241 0
236 241 0
236 241 0
236 242 0
236 242 0
236 242 0
236 242 0
235 243 0
235 243 0
235 244 0
235 244 0
235 245 0
235 246 0
235 247 0
235 248 0
234 248 0
234 249 0
234 250 0
234 251 0
234 251 0
234 252 0
234 252 0
233 253 0
233 253 0
233 253 0
233 253 0
233 253 0
233 254 0
233 254 0
233 254 0
233 254 0
238 238 0
238 238 0
238 238 0
238 238 0
237 238 0
237 238 0
237 238 0
237 238 0
237 238 0
237 238 0
237 238 0
237 239 0
237 239 0
237 239 0
237 239 0
237 239 0
236 240 0
236 240 0
236 240 0
236 240 0
236 241 0
236 241 0
236 241 0
236 241 0
236 242 0
236 242 0
235 243 0
235 243 0
235 244 0
235 245 0
235 245 0
235 246 0
235 247 0
234 248 0
234 249 0
234 249 0
234 250 0
234 251 0
234 252 0
233 252 0
233 253 0
233 253 0
233 253 0
233 254 0
233 254 0
233 254 0
233 254 0
233 254 0
233 254 0
233 254 0
238 237 0
238 237 0
238 237 0
238 237 0
238 237 0
238 237 0
238 237 0
238 237 0
237 237 0
237 238 0
237 238 0
237 238 0
237 238 0
237 238 0
237 238 0
237 239 0
237 239 0
237 239 0
237 239 0
236 240 0
236 240 0
236 240 0
236 240 0
236 241 0
236 241 0
236 242 0
236 242 0
235 243 0
235 244 0
235 244 0
235 245 0
235 246 0
235 247 0
234 248 0
234 249 0
234 250 0
234 250 0
234 251 0
233 252 0
233 252 0
233 253 0
233 253 0
233 254 0
233 254 0
233 254 0
233 254 0
233 254 0
233 254 0
233 254 0
233 254 0
238 237 0
238 237 0
238 237 0
238 237 0
238 237 0
238 237 0
238 237 0
238 237 0
238 237 0
238 237 0
238 237 0
238 237 0
237 237 0
237 237 0
237 237 0
237 238 0
237 238 0
237 238 0
237 238 0
237 239 0
237 239 0
236 239 0
236 240 0
236 240 0
236 241 0
236 241 0
236 242 0
235 243 0
235 243 0
235 244 0
235 245 0
235 246 0
235 247 0
234 248 0
234 249 0
234 250 0
234 250 0
233 251 0
233 252 0
233 252 0
233 253 0
233 253 0
233 254 0
233 254 0
233 254 0
233 254 0
233 254 0
232 254 0
232 254 0
232 255 0
238 237 0
238 237 0
238 237 0
238 237 0
238 237 0
238 236 0
238 236 0
238 236 0
238 236 0
238 236 0
238 236 0
238 236 0
238 236 0
238 236 0
238 236 0
237 237 0
237 237 0
237 237 0
237 237 0
237 238 0
237 238 0
237 239 0
236 239 0
236 240 0
236 240 0
236 241 0
236 242 0
236 242 0
235 243 0
235 244 0
235 245 0
235 246 0
235 247 0
234 248 0
234 249 0
234 249 0
234 250 0
233 251 0
233 252 0
233 252 0
233 253 0
233 253 0
233 254 0
233 254 0
233 254 0
232 254 0
232 254 0
232 254 0
232 254 0
232 254 0
238 237 0
238 237 0
238 236 0
238 236 0
238 236 0
238 236 0
238 236 0
238 236 0
238 236 0
238 235 0
238 235 0
238 235 0
238 235 0
238 235 0
238 236 0
238 236 0
238 236 0
237 236 0
237 237 0
237 237 0
237 237 0
237 238 0
237 238 0
237 239 0
236 240 0
236 240 0
236 241 0
236 242 0
235 243 0
235 244 0
235 244 0
235 245 0
235 246 0
234 247 0
234 248 0
234 249 0
234 250 0
233 251 0
233 251 0
233 252 0
233 252 0
233 253 0
233 253 0
233 253 0
233 254 0
232 254 0
232 254 0
232 254 0
232 254 0
232 254 0
238 236 0
238 236 0
238 236 0
238 236 0
238 236 0
238 236 0
238 235 0
238 235 0
238 235 0
238 235 0
238 235 0
238 235 0
238 235 0
238 235 0
238 235 0
238 235 0
238 235 0
238 235 0
238 236 0
237 236 0
237 236 0
237 237 0
237 238 0
237 238 0
236 239 0
236 240 0
236 240 0
236 241 0
236 242 0
235 243 0
235 244 0
235 245 0
235 246 0
234 247 0
234 248 0
234 249 0
234 250 0
233 250 0
233 251 0
233 252 0
233 252 0
233 252 0
233 253 0
233 253 0
233 253 0
233 253 0
232 254 0
232 254 0
232 254 0
232 254 0
238 236 0
238 236 0
238 236 0
238 236 0
238 236 0
238 235 0
238 235 0
238 235 0
238 235 0
238 234 0
238 234 0
238 234 0
238 234 0
238 234 0
238 234 0
238 234 0
238 234 0
238 235 0
238 235 0
238 235 0
237 236 0
237 236 0
237 237 0
237 237 0
237 238 0
236 239 0
236 240 0
236 241 0
236 242 0
235 243 0
235 244 0
235 245 0
235 246 0
234 247 0
234 247 0
234 248 0
234 249 0
234 250 0
233 251 0
233 251 0
233 252 0
233 252 0
233 252 0
233 253 0
233 253 0
233 253 0
233 253 0
232 253 0
232 253 0
232 253 0
238 236 0
238 236 0
238 236 0
238 236 0
238 235 0
238 235 0
239 235 0
239 235 0
239 234 0
239 234 0
239 234 0
239 233 0
239 233 0
239 233 0
238 233 0
238 233 0
238 234 0
238 234 0
238 234 0
238 235 0
238 235 0
237 236 0
237 236 0
237 237 0
237 238 0
237 238 0
236 239 0
236 240 0
236 241 0
236 242 0
235 243 0
235 244 0
235 245 0
234 246 0
234 247 0
234 248 0
234 249 0
234 249 0
233 250 0
233 251 0
233 251 0
233 252 0
233 252 0
233 252 0
233 252 0
233 252 0
233 253 0
233 253 0
233 253 0
233 253 0
238 236 0
238 236 0
238 236 0
238 236 0
239 235 0
239 235 0
239 235 0
239 234 0
239 234 0
239 234 0
239 233 0
239 233 0
239 233 0
239 233 0
239 233 0
239 233 0
238 233 0
238 233 0
238 233 0
238 234 0
238 234 0
238 235 0
237 236 0
237 236 0
237 237 0
237 238 0
236 239 0
236 240 0
236 241 0
236 242 0
235 243 0
235 244 0
235 245 0
235 246 0
234 247 0
234 248 0
234 248 0
234 249 0
233 250 0
233 250 0
233 251 0
233 251 0
233 251 0
233 252 0
233 252 0
233 252 0
233 252 0
233 252 0
233 252 0
233 252 0
238 236 0
238 236 0
238 236 0
239 236 0
239 235 0
239 235 0
239 234 0
239 234 0
239 234 0
239 233 0
239 233 0
239 233 0
239 232 0
239 232 0
239 232 0
239 232 0
239 232 0
238 233 0
238 233 0
238 233 0
238 234 0
238 235 0
238 235 0
237 236 0
237 237 0
237 238 0
236 238 0
236 239 0
236 240 0
236 241 0
235 242 0
235 243 0
235 244 0
235 245 0
234 246 0
234 247 0
234 248 0
234 249 0
233 249 0
233 250 0
233 250 0
233 251 0
233 251 0
233 251 0
233 252 0
233 252 0
233 252 0
233 252 0
233 252 0
233 252 0
238 236 0
238 236 0
239 236 0
239 236 0
239 235 0
239 235 0
239 234 0
239 234 0
239 234 0
239 233 0
239 233 0
239 232 0
239 232 0
239 232 0
239 232 0
239 232 0
239 232 0
239 232 0
238 233 0
238 233 0
238 234 0
238 234 0
238 235 0
237 236 0
237 236 0
237 237 0
237 238 0
236 239 0
236 240 0
236 241 0
235 242 0
235 243 0
235 244 0
235 245 0
234 246 0
234 247 0
234 248 0
234 248 0
234 249 0
233 250 0
233 250 0
233 251 0
233 251 0
233 251 0
233 251 0
233 251 0
233 252 0
233 252 0
233 252 0
233 252 0
238 236 0
238 236 0
239 236 0
239 236 0
239 235 0
239 235 0
239 234 0
239 234 0
239 233 0
239 233 0
239 233 0
239 232 0
239 232 0
239 232 0
239 232 0
239 232 0
239 232 0
239 232 0
238 232 0
238 233 0
238 233 0
238 234 0
238 235 0
237 235 0
237 236 0
237 237 0
237 238 0
236 239 0
236 240 0
236 241 0
235 242 0
235 243 0
235 244 0
235 245 0
234 246 0
234 247 0
234 248 0
234 248 0
234 249 0
233 250 0
233 250 0
233 250 0
233 251 0
233 251 0
233 251 0
233 251 0
233 251 0
233 251 0
233 251 0
233 251 0
